<svg width="138" height="78" viewBox="0 0 138 78" fill="none" xmlns="http://www.w3.org/2000/svg">
<rect width="33" height="12" transform="translate(16 12)" fill="white"/>
<path d="M26.6562 22.5498C26.6602 22.5498 26.6642 22.5439 26.6642 22.5439C26.696 22.5203 26.7279 22.4909 26.7558 22.4556C26.7518 22.4556 26.7478 22.4556 26.7438 22.4498C26.7159 22.4792 26.6841 22.5145 26.6562 22.5498Z" fill="#000091"/>
<path d="M31.0694 21.0629L30.9997 21.1229C31.0396 21.1129 31.0694 21.1029 31.0694 21.0629Z" fill="#000091"/>
<path fill-rule="evenodd" clip-rule="evenodd" d="M29.6426 22.5817C29.7704 22.4532 29.8983 22.3168 30.0261 22.1765H30.0222C30.2624 21.9038 30.4948 21.6428 30.7737 21.4051C30.8589 21.3272 30.9402 21.261 31.0177 21.2064C31.0291 21.195 31.0349 21.1779 31.0406 21.1612C31.0465 21.1438 31.0523 21.1268 31.0642 21.1168C31.009 21.1379 30.965 21.1712 30.9207 21.2047C30.8749 21.2394 30.8289 21.2742 30.7698 21.296C30.7466 21.296 30.7233 21.2727 30.7466 21.2493C30.8279 21.1908 30.9092 21.1285 30.9867 21.0662H30.9712C30.948 21.0662 30.948 21.0428 30.948 21.0194C30.6596 20.9736 30.4381 21.1708 30.2399 21.3473L30.2275 21.3584C30.1966 21.3739 30.1675 21.3585 30.1446 21.3464C30.133 21.3403 30.123 21.335 30.1152 21.335C29.9398 21.3938 29.7885 21.5022 29.6362 21.6114C29.4959 21.7119 29.3548 21.813 29.1933 21.8765V21.8298C29.1384 21.8487 29.0842 21.8734 29.0298 21.8981C28.9498 21.9345 28.8696 21.971 28.7865 21.9895C28.6349 22.0247 28.4943 22.0202 28.358 22.0158C28.3133 22.0143 28.2689 22.0129 28.2249 22.0129C27.9768 22.0375 27.7319 22.0906 27.4872 22.1437L27.4076 22.161C27.4037 22.1629 27.3998 22.1639 27.3959 22.1649C27.3921 22.1658 27.3882 22.1668 27.3843 22.1688C27.2371 22.2077 27.1016 22.2623 26.966 22.3402L26.9505 22.348C26.9452 22.3551 26.9398 22.3614 26.9349 22.3673C26.929 22.3743 26.9237 22.3806 26.9195 22.3869C26.873 22.4415 26.8304 22.4882 26.7646 22.5233C26.6673 22.5722 26.5832 22.6476 26.5005 22.7219C26.4647 22.754 26.429 22.7861 26.3927 22.8155C26.385 22.8233 26.3695 22.8272 26.3578 22.8272C26.2378 22.9441 26.1177 23.061 25.9937 23.1739C25.986 23.1817 25.9511 23.1856 25.924 23.1817C25.924 23.1817 25.9279 23.1817 25.9279 23.1778L25.9395 23.1545L25.9976 23.061C26.0092 23.0434 26.0199 23.0259 26.0305 23.0084C26.0412 22.9908 26.0518 22.9733 26.0634 22.9558C26.0944 22.909 26.1255 22.8622 26.1603 22.8194C26.168 22.8077 26.168 22.796 26.1603 22.7882C26.1525 22.7804 26.1409 22.7765 26.1293 22.7765C26.2416 22.6675 26.3733 22.5739 26.5089 22.4921V22.4882C26.4934 22.4921 26.4702 22.4804 26.4818 22.4649C26.4932 22.4506 26.5024 22.4342 26.5112 22.4188L26.5205 22.4025C26.5225 22.3986 26.5234 22.3957 26.5244 22.3928C26.5254 22.3899 26.5263 22.3869 26.5283 22.383C26.5263 22.3791 26.5234 22.3762 26.5205 22.3733C26.5176 22.3704 26.5147 22.3675 26.5128 22.3636L26.4893 22.3791C26.4612 22.3974 26.4324 22.4163 26.4082 22.4376C26.3911 22.4523 26.3751 22.4725 26.3588 22.4932C26.3232 22.5382 26.2857 22.5856 26.23 22.5856C26.2261 22.5856 26.2068 22.5856 26.1952 22.5817C26.1835 22.5817 26.1758 22.5778 26.1719 22.5739C26.1719 22.572 26.1719 22.571 26.1724 22.5705C26.1729 22.57 26.1738 22.57 26.1758 22.57C26.1758 22.57 26.1797 22.5662 26.1797 22.5623C26.1797 22.5623 26.1797 22.5584 26.1835 22.5584C26.1855 22.5545 26.1874 22.5515 26.1893 22.5486C26.1913 22.5457 26.1932 22.5428 26.1952 22.5389C26.1971 22.535 26.199 22.5321 26.201 22.5291C26.2029 22.5262 26.2048 22.5233 26.2068 22.5194C26.2087 22.5175 26.2097 22.5145 26.2106 22.5116C26.2116 22.5087 26.2126 22.5058 26.2145 22.5038L26.2189 22.4958C26.2227 22.4889 26.2273 22.4808 26.23 22.4726C26.2319 22.4688 26.2339 22.4658 26.2358 22.4629C26.2378 22.46 26.2397 22.4571 26.2416 22.4532C26.2474 22.4454 26.2523 22.4366 26.2571 22.4278C26.262 22.4191 26.2668 22.4103 26.2726 22.4025C26.2765 22.3947 26.2804 22.3869 26.2881 22.3791C26.292 22.3713 26.2959 22.3645 26.2997 22.3577C26.3036 22.3509 26.3075 22.3441 26.3114 22.3363C26.323 22.3168 26.3114 22.3012 26.2959 22.2973C26.3385 22.2428 26.3888 22.196 26.4508 22.161H26.4431C26.4965 22.1341 26.5515 22.1026 26.6062 22.0713C26.6384 22.0528 26.671 22.0341 26.7026 22.0168C26.7142 22.0051 26.7258 21.9934 26.7413 21.9856C26.6135 22.0285 26.4973 22.0869 26.385 22.1649C26.385 22.1649 26.354 22.1765 26.3462 22.1843C26.3462 22.1843 26.323 22.1921 26.292 22.1649C26.2881 22.161 26.2881 22.1571 26.2881 22.1493C26.3016 22.1222 26.3293 22.1043 26.3594 22.0849C26.3812 22.0708 26.4041 22.056 26.4237 22.0363C26.4469 22.0363 26.4663 22.0363 26.4663 22.0597C26.9124 21.7099 27.4625 21.6289 28.0144 21.5477C28.3539 21.4978 28.6941 21.4478 29.0112 21.335C29.0441 21.3116 29.078 21.2892 29.1119 21.2668C29.1458 21.2444 29.1797 21.222 29.2126 21.1986C29.2691 21.1751 29.3198 21.1348 29.3734 21.0922C29.4263 21.0501 29.4822 21.0056 29.5496 20.9727C29.7278 20.8363 29.8634 20.6805 29.9331 20.4506C29.9331 20.4272 29.9099 20.4038 29.9099 20.4038C29.6155 20.7194 29.2785 20.9688 28.9182 21.1519C28.5747 21.3331 28.2067 21.36 27.8423 21.3866C27.7054 21.3966 27.569 21.4065 27.4347 21.4246C27.4579 21.3778 27.5044 21.3779 27.547 21.3779C27.547 21.3225 27.5735 21.2987 27.6075 21.2682C27.6166 21.26 27.6263 21.2514 27.6361 21.2415H27.702C27.7136 21.2415 27.7194 21.2298 27.7252 21.2181C27.731 21.2064 27.7368 21.1947 27.7484 21.1947C27.7949 21.1947 27.8608 21.1714 27.8375 21.1714C27.802 21.1257 27.7504 21.1438 27.6934 21.1637C27.6386 21.1829 27.5789 21.2038 27.5238 21.1714C27.5443 21.1489 27.5504 21.1219 27.556 21.0974C27.5621 21.0708 27.5675 21.0471 27.5896 21.035H27.6787C27.6787 20.9882 27.7252 20.9454 27.7252 20.9454C27.9272 20.8239 28.1223 20.7179 28.3137 20.6138C28.4416 20.5443 28.568 20.4756 28.6936 20.4038C28.6682 20.4038 28.6456 20.4143 28.6238 20.4244C28.589 20.4406 28.5558 20.4559 28.5154 20.4272C28.5386 20.4272 28.5386 20.4107 28.5386 20.3941C28.5386 20.3775 28.5386 20.361 28.5619 20.361C28.7072 20.3222 28.8365 20.2592 28.9686 20.195C29.0619 20.1496 29.1565 20.1036 29.2591 20.0649C29.2287 20.0649 29.2005 20.0731 29.173 20.0811C29.1201 20.0964 29.0699 20.111 29.0112 20.0649C29.0266 20.0571 29.039 20.0473 29.0513 20.0375C29.076 20.0178 29.1002 19.9986 29.1468 19.9986V19.9324C29.1468 19.909 29.17 19.909 29.1933 19.909C29.17 19.909 29.1468 19.8857 29.1468 19.8857C29.1591 19.8609 29.1833 19.8558 29.2103 19.8501C29.2343 19.8451 29.2605 19.8396 29.2824 19.8194C29.2591 19.8194 29.2165 19.8194 29.2165 19.796C29.2824 19.7064 29.3947 19.6831 29.507 19.6597C29.4954 19.6363 29.4731 19.6363 29.4538 19.6363C29.4344 19.6363 29.4179 19.6363 29.4179 19.6129C29.4179 19.5896 29.4412 19.5896 29.4644 19.5896H29.4179C29.3815 19.5712 29.3879 19.5385 29.3924 19.5158C29.3936 19.5096 29.3947 19.5041 29.3947 19.4999C29.4857 19.3927 29.5156 19.2662 29.5454 19.1404C29.5599 19.0788 29.5745 19.0173 29.5961 18.9584C29.5729 18.9584 29.5496 18.9584 29.5496 18.935C29.3318 19.1767 28.9866 19.2683 28.6587 19.3554L28.6277 19.3636H28.5154C28.4031 19.4103 28.2443 19.4103 28.1319 19.3402C28.0785 19.3122 28.0404 19.2771 27.9993 19.2393C27.9718 19.214 27.9429 19.1875 27.9073 19.161C27.7252 19.048 27.547 18.9584 27.3456 18.8883C26.7839 18.709 26.199 18.6155 25.6141 18.6389C25.7775 18.5491 25.9509 18.5133 26.1266 18.4771C26.2176 18.4584 26.3093 18.4395 26.4004 18.4129C26.458 18.396 26.515 18.3785 26.5716 18.3611C26.8929 18.2626 27.2046 18.1671 27.547 18.187C27.5022 18.1711 27.4448 18.1768 27.392 18.1821C27.3672 18.1846 27.3434 18.187 27.3224 18.187C27.0634 18.1677 26.8019 18.2253 26.529 18.2855C26.4712 18.2982 26.4129 18.3111 26.354 18.3233C26.2471 18.3456 26.1455 18.3775 26.0437 18.4095C25.9315 18.4448 25.8191 18.4801 25.6993 18.5025C25.6474 18.5205 25.6056 18.551 25.565 18.5807C25.4996 18.6285 25.437 18.6743 25.3391 18.6623V18.5922C25.5638 18.3194 25.8349 18.0506 26.1952 18.0272C26.5434 17.9705 26.8717 18.0109 27.2142 18.053C27.2718 18.0601 27.3297 18.0673 27.3882 18.074C27.669 18.0966 27.9317 18.1592 28.2148 18.2267L28.2443 18.2337C28.3062 18.2337 28.3411 18.2883 28.3748 18.3411C28.4023 18.384 28.429 18.4258 28.4689 18.4363C28.5241 18.4553 28.5792 18.4589 28.6344 18.4624C28.7148 18.4676 28.7952 18.4728 28.8756 18.5259C28.8756 18.5102 28.873 18.4949 28.8704 18.4798C28.8653 18.4499 28.8602 18.4206 28.8756 18.3896C28.9256 18.3393 28.9829 18.3528 29.0393 18.3661C29.0834 18.3764 29.127 18.3867 29.1662 18.3662C29.289 18.29 29.1738 18.1729 29.0585 18.0558C29.0029 17.9993 28.9472 17.9428 28.9182 17.8909C28.9182 17.8675 28.9415 17.8441 28.9415 17.8441C28.9924 17.8897 29.0398 17.9369 29.0867 17.9837C29.2043 18.1008 29.3194 18.2153 29.4799 18.2961C29.5922 18.3428 29.8634 18.409 29.8169 18.2727C29.7373 18.0961 29.6014 17.9429 29.4642 17.7883C29.4077 17.7246 29.351 17.6607 29.2979 17.5948V17.5052C29.2625 17.5052 29.2541 17.4917 29.2435 17.4749C29.2402 17.4696 29.2367 17.464 29.232 17.4584V17.3688C29.1752 17.339 29.1625 17.2918 29.1497 17.2443C29.1424 17.2173 29.1351 17.1902 29.1197 17.1662C29.0808 17.1033 29.0781 17.0259 29.0752 16.946C29.0729 16.8825 29.0705 16.8175 29.0499 16.7571C29.0035 16.6207 28.9841 16.5078 28.9609 16.3714C28.9356 16.2319 28.9079 16.0985 28.8807 15.9679C28.8328 15.7374 28.7866 15.5157 28.7594 15.2844C28.7236 14.9538 28.8905 14.6743 29.0612 14.3885C29.1118 14.3037 29.1627 14.2185 29.2088 14.1312C29.3676 13.8584 29.5458 13.5896 29.8401 13.4065C29.9044 13.1405 30.0791 12.919 30.253 12.6985L30.2662 12.6818C30.4379 12.4679 30.7245 12.3371 30.9357 12.2408L30.9596 12.2299C31.2734 12.0896 31.5561 12 31.56 12H16V23.996H27.0396C27.3348 23.782 27.6283 23.6469 27.9775 23.4862C28.1369 23.4129 28.3079 23.3342 28.496 23.2402C28.5359 23.2201 28.5832 23.1968 28.6357 23.171C28.951 23.0159 29.4534 22.7687 29.6426 22.5817ZM26.1396 20.9633C26.0958 20.9677 26.0494 20.9723 26.0669 20.9372C26.0832 20.8583 26.1639 20.8347 26.2428 20.8116C26.2765 20.8017 26.31 20.7919 26.3378 20.7779L26.3505 20.7714L26.3598 20.7664C26.4035 20.7432 26.457 20.7148 26.4965 20.7313C26.5231 20.7692 26.5561 20.779 26.5881 20.7884C26.612 20.7955 26.6353 20.8024 26.6551 20.8207C26.5714 20.9047 26.4737 20.913 26.3747 20.9214C26.3089 20.9269 26.2425 20.9326 26.1791 20.9605C26.1678 20.9605 26.1538 20.9619 26.1396 20.9633ZM22.7126 20.4154C22.7126 20.4388 22.7359 20.4622 22.7359 20.4622C23.2782 19.8505 23.7701 19.3284 24.4673 18.8959C24.486 18.8881 24.4791 18.8979 24.4698 18.9109C24.4561 18.9302 24.4373 18.9567 24.4906 18.9427C24.7214 18.8901 24.8251 18.6923 24.9259 18.5C24.952 18.4502 24.9779 18.4008 25.0058 18.3544C25.1115 18.1823 25.2618 18.0721 25.4132 17.9611C25.5223 17.881 25.6321 17.8004 25.7262 17.696C25.7262 17.7193 25.7262 17.7427 25.703 17.7661C25.7262 17.7895 25.7495 17.7895 25.7727 17.7895C25.8136 17.7586 25.8582 17.7459 25.901 17.7336C25.9555 17.718 26.007 17.7033 26.0439 17.6531C25.8657 17.583 25.6372 17.5596 25.459 17.6297C24.9864 17.8557 24.5836 18.218 24.2001 18.6271C23.9677 18.8726 23.7275 19.1024 23.4331 19.2622C23.2317 19.6674 23.007 20.0297 22.7126 20.4154ZM24.6037 18.9664C24.5916 18.9908 24.5794 19.0035 24.5678 19.0156C24.5573 19.0266 24.5471 19.0372 24.5379 19.0557C24.5147 19.1023 24.4915 19.1217 24.4489 19.145C24.4257 19.145 24.4025 19.145 24.4025 19.1217C24.4257 19.0324 24.4915 18.9431 24.5805 18.9198C24.6037 18.9237 24.6037 18.947 24.6037 18.9664ZM25.5942 22.4264C25.6136 22.4069 25.6368 22.3835 25.6484 22.3601C25.6677 22.3134 25.5478 22.3251 25.5284 22.3368C25.5109 22.3509 25.4997 22.365 25.4862 22.3821L25.482 22.3874C25.4659 22.406 25.447 22.4232 25.4278 22.4406C25.4148 22.4525 25.4016 22.4644 25.3891 22.477C25.3349 22.5316 25.2808 22.5861 25.2227 22.6368C25.184 22.6718 25.3078 22.6874 25.3349 22.664C25.3659 22.6407 25.393 22.6134 25.4201 22.5861C25.4304 22.5861 25.4407 22.5844 25.4476 22.5832L25.4523 22.5825L25.4549 22.5822C25.5191 22.5607 25.5668 22.516 25.6132 22.4726L25.6252 22.4614C25.6407 22.4459 25.6213 22.4303 25.5942 22.4264ZM25.244 22.173C25.2436 22.1731 25.2433 22.1732 25.243 22.1734C25.2426 22.1739 25.2426 22.1749 25.2426 22.1768C25.2188 22.1931 25.1953 22.2097 25.1719 22.2263C25.1114 22.2691 25.0512 22.3117 24.9869 22.3483C24.9255 22.3829 24.8625 22.4128 24.7989 22.4429C24.7623 22.4603 24.7255 22.4778 24.6886 22.4963C24.6886 22.4963 24.6886 22.4924 24.6848 22.4924C24.677 22.4807 24.6615 22.4768 24.646 22.4846C24.5608 22.5314 24.4872 22.5937 24.4214 22.6599C24.4097 22.6677 24.3981 22.6794 24.3904 22.6911L24.3555 22.7262V22.7301C24.34 22.7457 24.3245 22.7612 24.3052 22.7846C24.3011 22.7887 24.298 22.7927 24.2951 22.7966C24.2895 22.8039 24.2843 22.8107 24.2742 22.8158C24.2587 22.8236 24.2199 22.8236 24.2238 22.8002V22.7963C24.2122 22.8041 24.1967 22.8119 24.1851 22.8158C24.1793 22.8197 24.1735 22.8226 24.1677 22.8255C24.1618 22.8284 24.156 22.8314 24.1502 22.8353C24.1463 22.8314 24.1386 22.8314 24.1347 22.8314C24.1309 22.8314 24.1231 22.8314 24.1192 22.8353C24.1102 22.8431 24.1012 22.8504 24.0921 22.8578C24.074 22.8725 24.056 22.8872 24.0379 22.9054C23.9914 22.9483 23.9488 22.995 23.9062 23.0457C23.9062 23.0457 23.9062 23.0495 23.9023 23.0495C23.9023 23.0515 23.9013 23.0525 23.9004 23.0534C23.8994 23.0544 23.8984 23.0554 23.8984 23.0573L23.8907 23.0651C23.8892 23.0666 23.8883 23.0681 23.8875 23.0694C23.8863 23.0714 23.8853 23.0729 23.8829 23.0729L23.8791 23.0768C23.8752 23.0846 23.8713 23.0924 23.8636 23.1002C23.8597 23.1041 23.852 23.108 23.8442 23.108C23.8403 23.1041 23.8365 23.1002 23.8365 23.0963C23.8345 23.0944 23.8336 23.0924 23.8326 23.0905C23.8316 23.0885 23.8307 23.0866 23.8287 23.0846C23.8248 23.0788 23.8219 23.0729 23.819 23.0671C23.8161 23.0612 23.8132 23.0554 23.8094 23.0495V23.0457C23.8094 23.0437 23.8084 23.0418 23.8074 23.0398C23.8064 23.0379 23.8055 23.0359 23.8055 23.034L23.8752 22.9521L23.8791 22.9483C23.8829 22.9444 23.8868 22.9395 23.8907 22.9346C23.8946 22.9298 23.8984 22.9249 23.9023 22.921C23.9081 22.9132 23.9149 22.9054 23.9217 22.8976C23.9285 22.8898 23.9352 22.882 23.9411 22.8742C23.943 22.8703 23.9449 22.8674 23.9469 22.8645C23.9488 22.8616 23.9507 22.8586 23.9527 22.8547C23.9759 22.8236 23.9992 22.7924 24.0224 22.7573V22.7534C24.0263 22.7496 24.0301 22.7457 24.0301 22.7379C24.0418 22.7223 24.0534 22.7067 24.0611 22.6911L24.0844 22.6444V22.6405L24.0882 22.6366C24.0882 22.6346 24.0892 22.6336 24.0902 22.6327C24.0912 22.6317 24.0921 22.6307 24.0921 22.6288C24.096 22.619 24.0999 22.6103 24.1037 22.6015C24.1076 22.5928 24.1115 22.584 24.1154 22.5742V22.5703L24.1192 22.5547C24.1212 22.5509 24.1221 22.547 24.1231 22.5431C24.1241 22.5392 24.125 22.5353 24.127 22.5314V22.5275C24.1289 22.5216 24.1299 22.5158 24.1309 22.5099C24.1318 22.5041 24.1328 22.4983 24.1347 22.4924C24.1347 22.4885 24.1347 22.4807 24.1309 22.4768C24.1541 22.434 24.1851 22.395 24.2199 22.356C24.218 22.356 24.2161 22.357 24.2141 22.358C24.213 22.3586 24.2119 22.3591 24.2108 22.3595C24.21 22.3598 24.2092 22.3599 24.2083 22.3599C24.1911 22.3708 24.1762 22.3852 24.1611 22.4C24.1491 22.4117 24.1369 22.4236 24.1231 22.434C24.0999 22.4535 24.0534 22.4223 24.0844 22.3989C24.1037 22.3833 24.1192 22.3677 24.1347 22.3522C24.1347 22.3522 24.1347 22.3483 24.1386 22.3483C24.154 22.3343 24.1689 22.3184 24.1838 22.3025C24.2064 22.2784 24.2292 22.254 24.2548 22.2353C24.2819 22.2158 24.3013 22.2002 24.3245 22.1807C24.3284 22.1768 24.3323 22.1729 24.3362 22.1729C24.3516 22.1535 24.3671 22.134 24.3865 22.1145C24.3865 22.1145 24.3904 22.1145 24.3904 22.1106C24.5234 21.9816 24.7103 21.9361 24.9011 21.8896C25.0214 21.8603 25.1433 21.8307 25.2542 21.7794C25.3168 21.7534 25.3866 21.7636 25.4556 21.7738C25.5104 21.7818 25.5647 21.7898 25.6144 21.7794C25.6803 21.7794 25.75 21.7794 25.8158 21.8262C25.6627 21.9077 25.5165 22.001 25.3719 22.0933C25.33 22.12 25.2882 22.1467 25.2464 22.1729C25.2454 22.1729 25.2446 22.1729 25.244 22.173ZM25.7281 20.5851C25.7099 20.5872 25.6982 20.5885 25.7082 20.5986C25.7741 20.6649 25.9097 20.6415 26.0026 20.5909C26.0685 20.5441 26.1382 20.5441 26.2273 20.5441C26.2505 20.5441 26.2505 20.5012 26.2505 20.4779C26.3164 20.5012 26.3629 20.5012 26.4287 20.5012C26.9671 20.3883 27.4862 20.2753 27.982 20.0259C27.4803 19.6383 26.8618 19.4656 26.256 19.2965C26.1555 19.2684 26.0554 19.2405 25.9561 19.2116C25.978 19.2116 25.9998 19.2189 26.0217 19.2262C26.066 19.241 26.1109 19.2559 26.1576 19.2116C26.0961 19.1626 26.0277 19.1532 25.9599 19.144C25.9038 19.1363 25.8482 19.1286 25.7973 19.0987C25.8026 19.0987 25.809 19.0999 25.8158 19.1012C25.839 19.1057 25.8685 19.1114 25.8864 19.0753C25.7688 19.0161 25.6511 18.996 25.5323 18.9757C25.4712 18.9653 25.4098 18.9548 25.348 18.9389C25.4603 18.9155 25.5301 18.8259 25.5301 18.7129C25.5301 18.6896 25.4836 18.6896 25.4603 18.6896C25.1931 18.8259 25.011 19.0753 24.8987 19.3675C24.9999 19.4271 25.1091 19.4202 25.2161 19.4134C25.2769 19.4096 25.3369 19.4058 25.3945 19.4142C25.3437 19.4625 25.2703 19.4756 25.1997 19.4882C25.1734 19.4929 25.1475 19.4975 25.1233 19.5038C25.0536 19.5194 24.9878 19.5701 25.011 19.6168C25.0265 19.6363 25.042 19.6441 25.0614 19.648C25.011 19.6636 24.9645 19.687 24.9219 19.7298C24.9857 19.78 25.0514 19.7703 25.1163 19.7608C25.1421 19.757 25.1677 19.7532 25.1931 19.7532C25.1931 19.7815 25.2116 19.7911 25.2309 19.8011C25.2409 19.8062 25.251 19.8115 25.2589 19.8194C25.1466 19.8623 25.0575 19.9558 25.0342 20.022C25.0065 20.0895 24.9552 20.1334 24.9044 20.1768C24.8701 20.2062 24.8361 20.2353 24.8096 20.2714V20.3415C24.7347 20.4078 24.6578 20.4671 24.582 20.5255C24.4262 20.6455 24.2748 20.7621 24.155 20.9298C24.1782 20.9298 24.1782 20.9532 24.1782 20.9766C24.1568 21.0089 24.1263 21.0313 24.0974 21.0525C24.0636 21.0774 24.0319 21.1006 24.0194 21.1363C24.0194 21.1597 24.0194 21.1831 24.0426 21.1831C24.1848 21.1361 24.3077 21.057 24.4283 20.9794C24.5377 20.9091 24.6452 20.84 24.7631 20.7973C24.8595 20.7742 24.9434 20.7305 25.0253 20.6878C25.0948 20.6516 25.1628 20.6162 25.2357 20.5947C25.2918 20.5831 25.3538 20.5665 25.4158 20.5499C25.4778 20.5334 25.5397 20.5168 25.5959 20.5051C25.5959 20.5285 25.5959 20.5519 25.6192 20.5519H25.7973C25.7864 20.5784 25.7518 20.5824 25.7281 20.5851Z" fill="#000091"/>
<path d="M48.9997 12H36.0963C36.0963 12 36.1197 12.0039 36.2172 12.0546C36.3225 12.1092 36.4591 12.1834 36.541 12.2263C36.7087 12.3121 36.8686 12.4213 36.9739 12.5891C37.0208 12.6554 37.0871 12.7919 37.0442 12.8817C36.9974 12.9948 36.9739 13.1782 36.8608 13.2211C36.7243 13.2913 36.5449 13.2913 36.3849 13.2679C36.2952 13.2679 36.2055 13.2445 36.1119 13.2211C36.4513 13.3576 36.7711 13.5176 36.9974 13.8336C37.0208 13.8804 37.1105 13.8999 37.2002 13.8999C37.2236 13.8999 37.2236 13.9467 37.2236 13.9662C37.1768 14.013 37.1339 14.0364 37.1573 14.1027H37.2236C37.3367 14.0559 37.3133 13.8296 37.4732 13.8999C37.5864 13.9662 37.6332 14.1261 37.5629 14.2393C37.4732 14.329 37.3835 14.3992 37.2899 14.4655C37.2665 14.5124 37.2665 14.5787 37.2899 14.6255C37.3562 14.7152 37.3796 14.8049 37.403 14.8986C37.4732 15.0585 37.4927 15.238 37.5629 15.3979C37.6527 15.7373 37.7424 16.0767 37.7229 16.42C37.7229 16.5995 37.6332 16.7594 37.6995 16.9428C37.7463 17.1222 37.8594 17.2588 37.9491 17.4187C38.0388 17.5553 38.1285 17.645 38.1988 17.7815C38.3353 18.0078 38.5849 18.2341 38.4718 18.5072C38.4055 18.6671 38.1558 18.6437 37.9959 18.7334C37.8594 18.8466 37.9725 19.0299 38.0427 19.143C38.1558 19.3459 37.9062 19.4824 37.7463 19.5527C37.7931 19.6229 37.8828 19.5995 37.9062 19.6424C37.9296 19.7555 38.0427 19.8218 37.9725 19.9389C37.8828 20.0754 37.6098 20.1417 37.7463 20.3485C37.836 20.5085 37.7775 20.684 37.7229 20.8479C37.6566 21.0507 37.4732 21.1404 37.3133 21.1873C37.1768 21.2341 37.0169 21.2341 36.8842 21.2107C36.8374 21.1873 36.7945 21.1638 36.7477 21.1638C36.3615 21.117 35.9754 21.0078 35.5931 21.0078C35.48 21.0312 35.3669 21.0507 35.2772 21.0975C35.1757 21.1717 35.0821 21.2536 35.0041 21.3394C35.0041 21.3394 35.0041 21.3394 35.0002 21.3433C34.9846 21.3628 34.9651 21.3784 34.9495 21.3979C34.9417 21.4096 34.93 21.4213 34.9222 21.433C34.9144 21.4408 34.9105 21.4486 34.9027 21.4564C34.8364 21.5384 34.7779 21.6281 34.7233 21.7178C34.7194 21.7256 34.7155 21.7295 34.7116 21.7334C34.7077 21.7451 34.6999 21.7529 34.6921 21.7646C34.6179 21.9012 34.5633 22.0416 34.5204 22.1821C34.3644 22.7009 34.4346 23.1456 34.5438 23.2549C34.575 23.2861 35.2928 23.5085 35.792 23.7308C36.0261 23.8362 36.1899 23.9142 36.3264 24H48.9958V12H48.9997Z" fill="#E1000F"/>
<path d="M36.8636 16.3747C36.9531 16.3981 37.0893 16.3981 37.0893 16.4448C37.0426 16.624 36.7741 16.6708 36.638 16.8539H36.5679C36.5018 16.9006 36.5212 17.0136 36.4551 17.0136C36.389 16.9903 36.3189 17.0136 36.2528 17.037C36.3423 17.1266 36.4551 17.1967 36.5913 17.1734C36.6146 17.1734 36.6574 17.2201 36.6574 17.263C36.6574 17.263 36.6808 17.263 36.7041 17.2396C36.7274 17.2396 36.7508 17.2396 36.7508 17.263V17.3526C36.6846 17.4422 36.5679 17.3993 36.4785 17.4188C36.6613 17.4656 36.8403 17.4656 36.9998 17.4188C37.1359 17.3721 36.9998 17.1461 37.0893 17.0331C37.0426 17.0331 37.0893 16.963 37.0426 16.963C37.0893 16.9162 37.1321 16.85 37.1787 16.8266C37.2254 16.8266 37.2916 16.8032 37.3149 16.7565C37.3149 16.7097 37.2254 16.6903 37.2449 16.6435C37.381 16.5539 37.4939 16.4175 37.4472 16.2812C37.4238 16.211 37.2449 16.211 37.1321 16.1682C37.0192 16.1253 36.8831 16.1682 36.7469 16.1916C36.6341 16.1916 36.5212 16.2617 36.4084 16.2812C36.2489 16.3279 36.1127 16.4175 35.9805 16.5071C36.14 16.4409 36.2956 16.4175 36.4785 16.3708C36.6146 16.3747 36.7274 16.3435 36.8636 16.3747Z" fill="#808080"/>
<path d="M21.1 37.644C21.892 37.644 22.576 37.368 23.056 36.912V35.448H20.92V33.996H24.76V37.524C23.98 38.568 22.672 39.24 21.1 39.24C18.376 39.24 16.516 37.2 16.516 34.8C16.516 32.4 18.328 30.36 20.98 30.36C22.504 30.36 23.752 31.044 24.52 32.064L23.176 33.108C22.696 32.424 21.94 31.956 20.98 31.956C19.396 31.956 18.268 33.192 18.268 34.8C18.268 36.408 19.456 37.644 21.1 37.644ZM30.6728 30.36C33.3128 30.36 35.1248 32.4 35.1248 34.8C35.1248 37.2 33.3128 39.24 30.6728 39.24C28.0208 39.24 26.2088 37.2 26.2088 34.8C26.2088 32.4 28.0208 30.36 30.6728 30.36ZM30.6728 37.644C32.2448 37.644 33.3728 36.408 33.3728 34.8C33.3728 33.192 32.2448 31.956 30.6728 31.956C29.0888 31.956 27.9608 33.192 27.9608 34.8C27.9608 36.408 29.0888 37.644 30.6728 37.644ZM41.8918 35.856V30.6H43.5958V35.712C43.5958 37.92 42.2998 39.24 40.1878 39.24C38.0878 39.24 36.7918 37.92 36.7918 35.712V30.6H38.4958V35.856C38.4958 36.984 39.1318 37.644 40.1998 37.644C41.2438 37.644 41.8918 36.984 41.8918 35.856ZM44.8366 30.6H46.6486L49.1326 37.164L51.6166 30.6H53.4286L50.2486 39H48.0166L44.8366 30.6ZM54.9057 39V30.6H59.8017V32.016H56.6097V34.008H59.3217V35.424H56.6097V37.584H59.8017V39H54.9057ZM61.9618 39V30.6H64.5298C66.3778 30.6 67.5178 31.548 67.5178 33.108C67.5178 34.128 67.0258 34.884 66.1618 35.28L68.7898 39H66.7858L64.5418 35.604H63.6658V39H61.9618ZM64.6258 32.016H63.6658V34.188H64.6258C65.3458 34.188 65.7658 33.768 65.7658 33.084C65.7658 32.448 65.3458 32.016 64.6258 32.016ZM70.0491 39V30.6H72.2331L75.9891 36.672V30.6H77.6931V39H75.5091L71.7531 32.928V39H70.0491ZM80.2224 39V30.6H85.1184V32.016H81.9264V34.008H84.6384V35.424H81.9264V37.584H85.1184V39H80.2224ZM87.2785 39V30.6H89.4025L91.4545 34.128L93.5065 30.6H95.6305V39H93.9265V32.976L92.0545 36.12H90.8545L88.9825 32.976V39H87.2785ZM98.1549 39V30.6H103.051V32.016H99.8589V34.008H102.571V35.424H99.8589V37.584H103.051V39H98.1549ZM105.211 39V30.6H107.395L111.151 36.672V30.6H112.855V39H110.671L106.915 32.928V39H105.211ZM114.52 32.148V30.6H121.408V32.148H118.816V39H117.112V32.148H114.52Z" fill="black"/>
<path fill-rule="evenodd" clip-rule="evenodd" d="M47.18 60.6142L46.0638 61.6341H45.7758L46.4359 60.4702H47.18V60.6142ZM46.3759 64.5616H46.1359C45.8358 64.9216 45.4998 65.2096 45.1757 65.2096C44.8397 65.2096 44.6717 65.0056 44.6717 64.5616C44.6717 64.3816 44.6957 64.1896 44.7317 64.0216L46.688 63.3737C47.072 62.4617 46.6159 62.0657 46.0759 62.0657C45.1517 62.0657 44.0956 63.6856 44.0956 64.9816C44.0956 65.5935 44.3836 65.9295 44.8397 65.9295C45.3678 65.9175 45.9198 65.4016 46.3759 64.5616ZM45.7046 62.594C45.9686 62.594 46.1966 62.798 46.0766 63.266L44.8644 63.59C45.0565 63.014 45.4165 62.594 45.7046 62.594ZM41.8886 62.6177H42.5367L41.5045 65.4496C41.4085 65.6896 41.5405 65.9295 41.7925 65.9295C42.5247 65.9295 43.4008 65.3056 43.7368 64.4176H43.5568C43.2928 64.7896 42.7167 65.1976 42.2846 65.2696L43.2328 62.6177H44.2049L44.3249 62.2098H43.3768L43.7368 61.1898H43.3648L42.6927 62.2098L41.8886 62.3178V62.6177ZM40.9878 62.0784C41.1198 62.0784 41.2998 62.2224 41.2158 62.4864L40.0516 65.3063C40.3517 65.2583 40.6637 64.9703 40.8438 64.7063H41.0358C40.7597 65.4142 40.1356 65.9302 39.5956 65.9302C39.4636 65.9302 39.2715 65.7862 39.3675 65.5222L40.4477 62.7024C40.1477 62.7504 39.8356 63.0384 39.6556 63.3024H39.4756C39.7516 62.5824 40.4237 62.0784 40.9878 62.0784ZM41.3246 61.3582C41.5647 61.3582 41.7687 61.1662 41.7687 60.9142C41.7687 60.6742 41.5647 60.4702 41.3246 60.4702C41.0726 60.4702 40.8806 60.6742 40.8806 60.9142C40.8806 61.1542 41.0846 61.3582 41.3246 61.3582ZM36.0797 63.6983C36.3437 63.1224 36.2477 62.8584 36.0797 62.8584C35.9357 62.8584 35.7676 63.0144 35.5996 63.3024H35.4196C35.6956 62.6904 36.0557 62.0784 36.4517 62.0784C36.7878 62.0784 36.9078 62.4144 36.9078 62.7864V63.3144C36.9618 63.2515 37.0144 63.1898 37.0658 63.1296L37.0667 63.1285L37.0675 63.1276C37.5745 62.5326 37.9617 62.0784 38.408 62.0784C38.7561 62.0784 38.9361 62.2944 38.9361 62.6184C38.9361 62.8104 38.8761 63.0504 38.7441 63.3024L37.7479 65.3063C38.048 65.2583 38.36 64.9703 38.54 64.7063H38.7201C38.444 65.4262 37.7719 65.9302 37.2079 65.9302C36.9558 65.9302 36.8118 65.6662 36.9198 65.4502L38.072 63.2304C38.204 62.9784 38.228 62.8104 38.024 62.8104C37.7479 62.8104 37.0998 63.2664 36.7518 63.6863L35.9957 65.6782C35.9117 65.8822 35.8277 65.9302 35.6356 65.9302C35.3236 65.9302 35.1676 65.7262 35.3116 65.4022L36.0797 63.6983ZM35.2987 62.9297C35.4307 62.4737 35.3587 62.0657 35.0106 62.0657C34.5766 62.0657 34.4407 62.3524 34.02 63.2394L33.9905 63.3017V62.7737C33.9905 62.4017 33.8705 62.0657 33.5344 62.0657C33.1384 62.0657 32.7783 62.6777 32.5023 63.2897H32.6823C32.8743 63.0137 33.0544 62.8457 33.1984 62.8457C33.3664 62.8457 33.4624 63.1097 33.1984 63.6856L32.4303 65.3896C32.2863 65.7135 32.4423 65.9175 32.7543 65.9175C32.9464 65.9175 33.0304 65.8695 33.1144 65.6655L33.8705 63.6736C34.0865 63.4097 34.2785 63.1817 34.5186 62.9297H35.2987ZM31.5064 63.266C31.6264 62.798 31.3984 62.594 31.1344 62.594C30.8463 62.594 30.4863 63.014 30.2942 63.59L31.5064 63.266ZM31.8057 64.5616H31.5657C31.2656 64.9216 30.9296 65.2096 30.6055 65.2096C30.2695 65.2096 30.1015 65.0056 30.1015 64.5616C30.1015 64.3816 30.1255 64.1896 30.1615 64.0216L32.1178 63.3737C32.5018 62.4617 32.0458 62.0657 31.5057 62.0657C30.5815 62.0657 29.5254 63.6856 29.5254 64.9816C29.5254 65.5935 29.8134 65.9295 30.2695 65.9295C30.7976 65.9175 31.3497 65.4016 31.8057 64.5616ZM27.9665 62.6177H27.3184V62.3178L28.1225 62.2098L28.7946 61.1898H29.1666L28.8066 62.2098H29.7547L29.6347 62.6177H28.6626L27.7144 65.2696C28.1465 65.1976 28.7226 64.7896 28.9866 64.4176H29.1666C28.8306 65.3056 27.9545 65.9295 27.2224 65.9295C26.9703 65.9295 26.8383 65.6896 26.9343 65.4496L27.9665 62.6177ZM23.8865 64.8139C23.8865 63.9379 24.8586 62.762 25.3987 62.762C25.5187 62.762 25.6387 62.774 25.7347 62.81L25.1707 64.3219C24.8466 64.7179 24.3425 65.1979 24.1025 65.1979C23.9705 65.1979 23.8865 65.0779 23.8865 64.8139ZM26.5632 61.8861L26.8632 61.9101L25.8191 64.3099C25.567 64.8859 25.675 65.1499 25.8191 65.1499C25.9631 65.1499 26.1431 64.9819 26.3351 64.7059H26.5152C26.2391 65.3179 25.8791 65.9298 25.483 65.9298C25.147 65.9298 24.9429 65.5699 25.0029 64.9219L25.0269 64.6939L24.9616 64.7852C24.5317 65.3861 24.1427 65.9298 23.7428 65.9298C23.3947 65.9298 23.2147 65.7138 23.2147 65.3899C23.2147 63.9979 24.7389 62.222 26.1671 62.222H26.2271L26.5632 61.8861ZM23.814 62.9297C23.946 62.4737 23.874 62.0657 23.526 62.0657C23.0919 62.0657 22.956 62.3524 22.5354 63.2394L22.5058 63.3017V62.7737C22.5058 62.4017 22.3858 62.0657 22.0498 62.0657C21.6537 62.0657 21.2937 62.6777 21.0176 63.2897H21.1976C21.3897 63.0137 21.5697 62.8457 21.7017 62.8457C21.8697 62.8457 21.9658 63.1097 21.7017 63.6856L20.9336 65.4016C20.7896 65.7255 20.9456 65.9295 21.2576 65.9295C21.4497 65.9295 21.5337 65.8815 21.6177 65.6775L22.3738 63.6856C22.5898 63.4217 22.7819 63.1937 23.0219 62.9417H23.814V62.9297ZM18.8684 65.5688L18.7964 65.7848H16L16.072 65.5568C16.9361 65.4008 17.0802 65.3288 17.4402 64.3569L18.2203 62.269C18.5684 61.2971 18.4964 61.2251 17.7403 61.0691L17.8123 60.8531H21.4488L21.2328 62.017H20.9687C20.9687 61.3211 20.8967 61.1411 20.2366 61.1411H20.0686C19.4205 61.1411 19.3365 61.2371 19.1565 61.741L18.6404 63.145H19.3965C19.9006 63.145 20.0926 62.833 20.3206 62.425H20.5847L19.9606 64.1289H19.6965C19.7565 63.6129 19.7565 63.4089 19.2885 63.4089H18.5324L18.1843 64.3689C17.8081 65.368 17.9156 65.3884 18.8115 65.558C18.8301 65.5616 18.8491 65.5651 18.8684 65.5688Z" fill="black"/>
<path fill-rule="evenodd" clip-rule="evenodd" d="M21.2448 51.4341L20.1286 52.2385V52.2505H19.8405L20.5006 51.29H21.2448V51.4341ZM29.0472 57.0648L30.8355 52.3105L30.7755 52.2384L29.5393 52.3825V52.5266L29.7793 52.7066C29.9843 52.8661 29.93 53.0147 29.76 53.4805L29.7313 53.5591L28.3631 57.2089C28.2551 57.425 28.3991 57.6891 28.6511 57.6891C29.2152 57.6891 29.8153 57.1728 30.0914 56.4645H29.9114C29.7193 56.7286 29.3353 57.0168 29.0472 57.0648ZM37.2438 53.403L38.36 52.3825V52.2384H37.6159L36.9558 53.403H37.2438ZM37.315 56.3204H37.5551C37.111 57.1728 36.5589 57.6891 36.0308 57.6891C35.5747 57.6891 35.2867 57.3529 35.2867 56.7406C35.2867 55.444 36.3429 53.8232 37.267 53.8232C37.7951 53.8232 38.2632 54.2194 37.8791 55.1318L35.9108 55.7801C35.8748 55.9482 35.8508 56.1403 35.8508 56.3204C35.8508 56.7646 36.0188 56.9687 36.3549 56.9687C36.6789 56.9687 37.015 56.6806 37.315 56.3204ZM37.2544 55.0238C37.3745 54.5676 37.1464 54.3635 36.8824 54.3635C36.6063 54.3635 36.2463 54.7837 36.0422 55.348L37.2544 55.0238ZM33.7258 54.3872H33.0777V54.0871L33.8818 53.979L34.554 52.9585H34.926L34.566 53.979H35.5141L35.3941 54.3872H34.4219L33.4738 57.0405C33.9058 56.9685 34.4819 56.5603 34.746 56.1881H34.926C34.59 57.0765 33.7138 57.7008 32.9817 57.7008C32.7296 57.7008 32.5976 57.4607 32.6936 57.2206L33.7258 54.3872ZM32.4055 54.2431C32.4775 53.979 32.3095 53.8349 32.1655 53.8349C31.6014 53.8349 30.9292 54.3512 30.6532 55.0595H30.8332C31.0133 54.7954 31.3253 54.5072 31.6254 54.4592L30.5452 57.2806C30.4492 57.5447 30.6412 57.6888 30.7732 57.6888C31.3133 57.6888 31.9374 57.1726 32.2135 56.4642H32.0334C31.8534 56.7283 31.5413 57.0165 31.2413 57.0645L32.4055 54.2431ZM32.9585 52.6826C32.9585 52.9228 32.7544 53.1269 32.5144 53.1269C32.2744 53.1269 32.0703 52.9228 32.0703 52.6826C32.0703 52.4425 32.2624 52.2384 32.5144 52.2384C32.7544 52.2384 32.9585 52.4425 32.9585 52.6826ZM26.8987 54.5315C26.3586 54.5315 25.3864 55.7081 25.3864 56.5846C25.3864 56.8487 25.4704 56.9687 25.6145 56.9687C25.8425 56.9687 26.3466 56.4885 26.6706 56.0923L27.2347 54.5796C27.1267 54.5435 27.0187 54.5315 26.8987 54.5315ZM28.3632 53.6791L28.0632 53.6551L27.7271 53.9913H27.6671C26.2389 53.9913 24.7146 55.7682 24.7146 57.1609C24.7146 57.485 24.8946 57.7011 25.2427 57.7011C25.6426 57.7011 26.0316 57.1571 26.4616 56.5558L26.5269 56.4645L26.5029 56.6926C26.4429 57.3409 26.6469 57.7011 26.983 57.7011C27.3791 57.7011 27.7391 57.0888 28.0152 56.4765H27.8351C27.6431 56.7527 27.4631 56.9207 27.3191 56.9207C27.175 56.9207 27.067 56.6566 27.3191 56.0803L28.3632 53.6791ZM22.3135 57.5692C21.7974 57.7733 21.4373 58.0134 21.4373 58.3856C21.4373 58.7337 21.7614 58.8778 22.4335 58.8778C23.3337 58.8778 23.8258 58.6137 23.8258 58.2655C23.8258 58.1094 23.6217 58.0374 23.0816 57.8573C22.7336 57.7493 22.4815 57.6532 22.3135 57.5692ZM22.9128 56.0924C22.6728 56.0924 22.5888 55.8883 22.5888 55.6722C22.5888 54.9758 22.9248 54.1114 23.4649 54.1114C23.705 54.1114 23.789 54.3155 23.789 54.5316C23.777 55.24 23.4409 56.0924 22.9128 56.0924ZM23.3701 57.2209C24.0302 57.425 24.4383 57.581 24.4383 58.0373C24.4383 58.6255 23.3581 59.3219 22.0499 59.3099C21.2937 59.3099 20.6456 59.1058 20.6456 58.6135C20.6456 58.1453 21.0777 57.7611 22.1339 57.449C21.9899 57.3529 21.9299 57.2329 21.9299 57.0648C21.9299 56.7766 22.1939 56.5485 22.65 56.3324C22.2059 56.2724 21.9178 55.9362 21.9178 55.444C21.9178 54.6876 22.542 53.8232 23.5261 53.8232C23.7302 53.8232 23.9102 53.8712 24.0542 53.9673H25.1344L25.0144 54.3755H24.3783C24.4143 54.4835 24.4383 54.6036 24.4383 54.7356C24.4383 55.468 23.8502 56.3084 22.914 56.3564C22.674 56.4885 22.554 56.6686 22.554 56.8127C22.554 56.9822 22.7503 57.0395 23.1842 57.1662C23.2419 57.183 23.3039 57.2011 23.3701 57.2209ZM19.5646 55.1679C20.0327 55.1679 20.0447 55.372 19.9727 55.8883H20.2367L20.8609 54.1834H20.5968C20.3688 54.5916 20.1767 54.9038 19.6726 54.9038H18.6405L19.1446 53.4991C19.3246 52.9949 19.4086 52.8988 20.0567 52.8988H20.5128C21.1729 52.8988 21.2449 53.0789 21.2449 53.7752H21.509L21.725 52.6107H17.8123L17.7403 52.8268C18.4964 52.9829 18.5684 53.0549 18.2204 54.0274L17.4403 56.1284C17.0802 57.1009 16.9362 57.1729 16.06 57.329L16 57.5571H20.3448L21.1249 56.3205H20.8248C20.3208 56.8127 19.8167 57.269 18.8325 57.269C17.75 57.269 17.7693 57.216 18.0941 56.3234C18.115 56.266 18.1372 56.205 18.1604 56.1404L18.5204 55.1799H19.5646V55.1679Z" fill="black"/>
<path fill-rule="evenodd" clip-rule="evenodd" d="M23.1496 44.8876C23.3896 44.8876 23.5936 44.6837 23.5936 44.4438C23.5936 44.2039 23.3896 44 23.1496 44C22.8977 44 22.7057 44.2039 22.7057 44.4438C22.7057 44.6957 22.8977 44.8876 23.1496 44.8876ZM26.7022 46.3986C26.7022 45.8229 26.5583 45.607 26.1503 45.607C25.6464 45.607 25.1785 46.1467 24.7106 46.7944L25.7184 44.0956L25.6584 44.0117L24.4227 44.1556V44.2996L24.6626 44.4795C24.8716 44.6419 24.811 44.8044 24.633 45.2818L24.6146 45.3311L23.5229 48.1858C23.4269 48.4257 23.3189 48.7136 23.3189 48.7856C23.3189 49.1214 23.7748 49.4453 24.1947 49.4453C25.1305 49.4573 26.7022 47.73 26.7022 46.3986ZM37.1042 45.1752L38.22 44.1556V44.0117H37.4761L36.8163 45.1752H37.1042ZM37.1765 48.0899H37.4164C36.9605 48.9415 36.4086 49.4573 35.8807 49.4453C35.4248 49.4453 35.1369 49.1214 35.1369 48.5097C35.1369 47.2143 36.1927 45.595 37.1165 45.595C37.6444 45.595 38.1123 45.9908 37.7284 46.9024L35.7727 47.5501C35.7368 47.7181 35.7128 47.91 35.7128 48.0899C35.7128 48.5337 35.8807 48.7376 36.2167 48.7376C36.5406 48.7376 36.8765 48.4497 37.1765 48.0899ZM37.1153 46.7945C37.2353 46.3387 37.0073 46.1348 36.7434 46.1348C36.4555 46.1348 36.0955 46.5546 35.9036 47.1184L37.1153 46.7945ZM33.5747 46.1595H32.9268V45.8596L33.7306 45.7516L34.4025 44.7321H34.7744L34.4145 45.7516H35.3623L35.2423 46.1595H34.2705L33.3227 48.8103C33.7546 48.7383 34.3305 48.3305 34.5945 47.9587H34.7744C34.4385 48.8463 33.5627 49.47 32.8308 49.47C32.5789 49.47 32.4469 49.2301 32.5429 48.9902L33.5747 46.1595ZM32.5931 46.4713C32.7251 46.0155 32.6531 45.6077 32.3052 45.6077C31.8713 45.6077 31.7354 45.8942 31.3149 46.7809L31.2854 46.8431V46.3154C31.2854 45.9435 31.1654 45.6077 30.8295 45.6077C30.4336 45.6077 30.0736 46.2194 29.7977 46.8311H29.9776C30.1696 46.5553 30.3496 46.3873 30.4815 46.3873C30.6495 46.3873 30.7455 46.6512 30.4815 47.227L29.7137 48.9302C29.5697 49.2541 29.7257 49.458 30.0376 49.458C30.2296 49.458 30.3136 49.41 30.3976 49.2061L31.1534 47.215C31.3694 46.9511 31.5613 46.7232 31.8013 46.4713H32.5931ZM28.7902 46.7945C28.9101 46.3387 28.6822 46.1348 28.4182 46.1348C28.1303 46.1348 27.7823 46.5546 27.5784 47.1184L28.7902 46.7945ZM29.0893 48.0899H28.8494C28.5495 48.4497 28.2135 48.7376 27.8896 48.7376C27.5536 48.7376 27.3857 48.5337 27.3857 48.0899C27.3857 47.91 27.4097 47.7181 27.4457 47.5501L29.4013 46.9024C29.7852 45.9908 29.3293 45.595 28.7894 45.595C27.8656 45.595 26.8098 47.2143 26.8098 48.5097C26.8098 49.1214 27.0977 49.4453 27.5536 49.4453C28.0815 49.4573 28.6334 48.9415 29.0893 48.0899ZM24.0512 48.5461C24.0512 48.702 24.3272 48.882 24.5191 48.882C25.299 48.882 26.0308 47.4786 26.0188 46.6989C26.0188 46.435 25.8869 46.3271 25.7069 46.3271C25.419 46.3271 24.8911 46.7589 24.5551 47.1667L24.2432 48.0064C24.1352 48.2822 24.0512 48.4981 24.0512 48.5461ZM22.7917 45.6077C22.9357 45.6077 23.1036 45.7516 23.0316 46.0155L21.8799 48.8343C22.1798 48.7863 22.4917 48.4984 22.6717 48.2345H22.8517C22.5757 48.9422 21.9518 49.458 21.4119 49.458C21.268 49.458 21.076 49.314 21.172 49.0502L22.2518 46.2314C21.9518 46.2794 21.6399 46.5673 21.4599 46.8311H21.28C21.5559 46.1235 22.2278 45.6077 22.7917 45.6077ZM17.8116 44.3602H20.3911L20.3192 44.5881C19.4433 44.744 19.2994 44.816 18.9394 45.7876L18.1716 47.8986C17.7997 48.9062 17.8956 49.0261 18.5555 49.0261C19.3708 49.0261 19.9053 48.4337 20.3721 47.9164C20.4068 47.878 20.4411 47.84 20.4751 47.8027H20.7751L19.9232 49.314H16L16.072 49.0981C16.9358 48.9422 17.0798 48.8702 17.4397 47.8986L18.2196 45.7756C18.5675 44.804 18.4955 44.732 17.7397 44.5761L17.8116 44.3602Z" fill="black"/>
</svg>
