<svg width="122" height="121" viewBox="0 0 122 121" fill="none" xmlns="http://www.w3.org/2000/svg">
<g clip-path="url(#clip0_2591_68675)">
<path d="M100.531 20.6997H0.953125V32.4795H100.531V20.6997Z" fill="#33B7B7"/>
<path d="M87.2531 61.0276H0.953125V72.8074H87.2531V61.0276Z" fill="#E94589"/>
<path d="M107.168 75.304H0.953125V87.0838H107.168V75.304Z" fill="#A5ACB0"/>
<path d="M0.953125 34.9761V58.5311H120.447V34.9761H0.953125Z" fill="#1D1D1B"/>
<path d="M14.6672 51.5615C15.1449 52.1095 15.885 52.4467 16.7936 52.4467C18.4657 52.4467 19.3275 51.3975 19.6601 50.0299H23.0325C22.4329 53.5942 19.9224 55.4116 16.7702 55.4116C14.906 55.4116 13.3744 54.7418 12.18 53.5474C10.4611 51.8238 10.5079 49.6973 10.5079 46.7559C10.5079 43.8144 10.4611 41.688 12.18 39.9643C13.3744 38.7699 14.906 38.1001 16.7702 38.1001C19.9505 38.1001 22.4376 39.9174 23.0325 43.4772H19.6601C19.3275 42.1142 18.4657 41.0603 16.7936 41.0603C15.885 41.0603 15.1449 41.3975 14.6672 41.9456C14.0207 42.6622 13.8287 43.4772 13.8287 46.7512C13.8287 50.0252 14.0207 50.8402 14.6672 51.5568V51.5615Z" fill="white"/>
<path d="M38.9336 55.2663H35.9688L29.224 44.8167V55.2663H25.8985V38.2406H28.8634L35.6081 48.6668V38.2406H38.9336V55.2663Z" fill="white"/>
<path d="M54.114 41.2055H46.2217V45.2008H52.9384V48.1656H46.2217V52.3015H54.114V55.2663H42.8962V38.2406H54.114V41.2055Z" fill="white"/>
<path d="M68.002 39.8659C66.8779 38.7418 65.2761 38.2406 63.5055 38.2406H57.3604V55.2617H63.5055C65.2761 55.2617 66.8779 54.7605 68.002 53.6364C69.9177 51.7254 69.7257 49.2383 69.7257 46.6762C69.7257 44.1142 69.9177 41.7769 68.002 39.8612V39.8659ZM65.6836 51.2477C65.1121 51.9409 64.3439 52.3015 63.1964 52.3015H60.6859V41.2055H63.1964C64.3439 41.2055 65.1121 41.5661 65.6836 42.2593C66.3064 43.0228 66.4001 44.1001 66.4001 46.6809C66.4001 49.2617 66.3064 50.4842 65.6836 51.2477Z" fill="white"/>
<path d="M5.29988 100.611H4.03991L3.72609 99.093H1.95092L1.65116 100.611H0.381836L2.26473 92.9531H3.43569L5.2952 100.611H5.29988ZM2.1898 98.0068H3.50127L2.84553 94.8031L2.1898 98.0068Z" fill="#1D1D1B"/>
<path d="M8.14794 100.611V100.18C8.09646 100.246 8.0402 100.311 7.96997 100.381C7.89974 100.452 7.83419 100.503 7.75919 100.536C7.67958 100.587 7.5906 100.625 7.49224 100.653C7.39388 100.681 7.29083 100.695 7.19247 100.695C6.96294 100.695 6.76622 100.658 6.60232 100.587C6.43841 100.517 6.28849 100.405 6.162 100.254C6.04489 100.124 5.96528 99.974 5.9138 99.7913C5.86224 99.6127 5.83888 99.3557 5.83888 99.0276V94.9388H6.977V99.0138C6.977 99.2337 7.02857 99.4026 7.1363 99.5101C7.24395 99.6176 7.37513 99.6693 7.53443 99.6693C7.69364 99.6693 7.82482 99.6176 7.93255 99.5101C8.0402 99.4026 8.09177 99.2385 8.09177 99.0138V94.9388H9.22997V100.606H8.14325L8.14794 100.611Z" fill="#1D1D1B"/>
<path d="M13.7643 94.854C14.0032 94.854 14.2233 94.892 14.4294 94.9623C14.6355 95.0326 14.8135 95.1401 14.9587 95.2856C15.1086 95.4302 15.2257 95.604 15.3147 95.8052C15.4037 96.0065 15.4458 96.2546 15.4458 96.5407H14.3264C14.3264 96.4187 14.3123 96.316 14.2889 96.236C14.2655 96.152 14.2233 96.0816 14.1671 96.0251C14.0594 95.9127 13.9283 95.8521 13.769 95.8521C13.5957 95.8521 13.4551 95.9038 13.3475 96.0113C13.2398 96.1188 13.1882 96.2643 13.1882 96.4421C13.1882 96.5779 13.2163 96.6902 13.2725 96.7751C13.3521 96.906 13.4926 97.0135 13.694 97.0976L14.4482 97.4209C14.6402 97.5057 14.8041 97.5995 14.94 97.6973C15.0711 97.7959 15.1835 97.9131 15.2772 98.0488C15.4365 98.2687 15.5161 98.5782 15.5161 98.9718C15.5161 99.2523 15.4692 99.4963 15.3708 99.7024C15.2725 99.9085 15.1554 100.086 15.0102 100.231C14.8369 100.405 14.6495 100.522 14.4435 100.592C14.2374 100.663 14.0126 100.695 13.769 100.695C13.5255 100.695 13.2912 100.653 13.0711 100.578C12.8509 100.499 12.6636 100.386 12.5231 100.236C12.3591 100.063 12.2327 99.8754 12.1484 99.6693C12.064 99.4632 12.0173 99.224 12.0173 98.9524H13.1461C13.1461 99.1819 13.2116 99.3606 13.3381 99.4915C13.3943 99.5473 13.4598 99.5901 13.5348 99.6224C13.6097 99.6507 13.6894 99.6645 13.7643 99.6645C13.9423 99.6645 14.0922 99.6127 14.2046 99.5052C14.2608 99.4535 14.303 99.3929 14.3264 99.3137C14.3497 99.2337 14.3638 99.1496 14.3638 99.0559C14.3638 98.8966 14.3264 98.7609 14.2468 98.634C14.1624 98.5031 14.0126 98.3956 13.8065 98.3107L13.0523 97.9785C12.6636 97.8056 12.3872 97.5898 12.2233 97.3231C12.1015 97.1307 12.0407 96.8729 12.0407 96.5496C12.0407 96.278 12.0875 96.0437 12.1765 95.857C12.2655 95.6646 12.3872 95.4917 12.5372 95.3365C12.6964 95.1773 12.879 95.0601 13.0898 94.9809C13.3006 94.9009 13.5255 94.8637 13.7643 94.8637V94.854Z" fill="#1D1D1B"/>
<path d="M17.946 94.854C18.1849 94.854 18.4003 94.8871 18.597 94.9477C18.7937 95.0092 18.9811 95.1304 19.1638 95.309C19.3932 95.5385 19.5385 95.8893 19.5993 96.3669C19.6603 96.8446 19.693 97.4209 19.693 98.1046H17.3464C17.3464 98.4279 17.3558 98.7043 17.3792 98.9387C17.4026 99.1731 17.4495 99.3412 17.5197 99.4495C17.5619 99.5149 17.6228 99.5667 17.6977 99.6087C17.7727 99.6507 17.8617 99.6741 17.96 99.6741C18.1474 99.6741 18.2878 99.6038 18.3909 99.4584C18.4424 99.4026 18.4753 99.3274 18.4986 99.2337C18.5221 99.1399 18.5314 99.0413 18.5314 98.9435H19.6696C19.6556 99.1965 19.6134 99.426 19.5478 99.641C19.4776 99.8568 19.3605 100.058 19.1871 100.246C19.0373 100.41 18.8593 100.527 18.6579 100.597C18.4565 100.667 18.2223 100.7 17.96 100.7C17.7071 100.7 17.487 100.667 17.2856 100.601C17.0888 100.536 16.9014 100.414 16.7328 100.236C16.611 100.115 16.5174 99.9643 16.4471 99.7913C16.3769 99.6176 16.3253 99.4212 16.2925 99.2102C16.2551 98.9993 16.2317 98.7698 16.2223 98.5265C16.2129 98.2832 16.2082 98.0302 16.2082 97.7724C16.2082 97.2568 16.2364 96.7791 16.2925 96.3435C16.3488 95.9079 16.4986 95.562 16.7328 95.313C16.9061 95.1352 17.0935 95.014 17.2996 94.9526C17.5057 94.892 17.7211 94.8588 17.9507 94.8588L17.946 94.854ZM17.946 95.8659C17.8382 95.8659 17.7492 95.8844 17.6837 95.9273C17.6134 95.9645 17.5572 96.0202 17.5057 96.0954C17.4495 96.1803 17.4073 96.316 17.3839 96.4938C17.3605 96.6716 17.3464 96.9295 17.3464 97.2665H18.5502C18.5502 96.9295 18.5361 96.6716 18.5127 96.4938C18.4892 96.316 18.4471 96.1803 18.3909 96.0954C18.3394 96.0251 18.2832 95.9693 18.2129 95.9273C18.1427 95.8844 18.0584 95.8659 17.9507 95.8659H17.946Z" fill="#1D1D1B"/>
<path d="M23.1123 95.9645H22.7235C22.4518 95.9645 22.2271 96.0485 22.0443 96.2223C21.8664 96.3952 21.7774 96.6345 21.7774 96.9432V100.611H20.6392V94.9437H21.7353V95.5474C21.7914 95.4634 21.8664 95.3793 21.9507 95.2993C22.035 95.2193 22.1287 95.1538 22.2317 95.0932C22.4893 94.934 22.7844 94.854 23.1123 94.854V95.9645Z" fill="#1D1D1B"/>
<path d="M24.7231 94.9437L25.4773 98.7843L26.2313 94.9437H27.4773L26.0768 100.611H24.8731L23.4632 94.9437H24.7231Z" fill="#1D1D1B"/>
<path d="M29.2756 94.222H28.0157V92.962H29.2756V94.222ZM29.2241 100.611H28.0859V95.0932H29.2241V100.611Z" fill="#1D1D1B"/>
<path d="M31.8986 94.854C32.1422 94.854 32.3623 94.8823 32.5543 94.9388C32.7464 94.9946 32.9291 95.1029 33.093 95.2621C33.2709 95.4351 33.3974 95.6363 33.4677 95.8707C33.538 96.1051 33.5801 96.3435 33.5988 96.5965H32.47C32.4606 96.5027 32.4513 96.4138 32.4326 96.3201C32.4138 96.2312 32.3763 96.1471 32.3202 96.0671C32.2265 95.9313 32.0859 95.861 31.8986 95.861C31.8143 95.861 31.73 95.8804 31.6503 95.9224C31.5707 95.9596 31.5052 96.0202 31.4583 96.1002C31.3787 96.2312 31.3319 96.4324 31.3178 96.7137C31.3038 96.9949 31.2944 97.3465 31.2944 97.7676C31.2944 98.1895 31.2991 98.5402 31.3178 98.8215C31.3319 99.1027 31.3787 99.3088 31.4583 99.4446C31.5099 99.5238 31.5707 99.5804 31.6503 99.6176C31.73 99.6556 31.8096 99.6693 31.8986 99.6693C32.0859 99.6693 32.2265 99.6038 32.3202 99.4769C32.3763 99.3977 32.4138 99.3137 32.4326 99.224C32.4513 99.1351 32.4606 99.0413 32.47 98.9387H33.5988C33.5848 99.2102 33.538 99.4632 33.4583 99.6927C33.3787 99.9223 33.2616 100.115 33.1024 100.274C32.8213 100.554 32.4232 100.695 31.8986 100.695C31.627 100.695 31.374 100.653 31.1445 100.564C30.915 100.48 30.7183 100.321 30.5543 100.091C30.3763 99.8471 30.2639 99.5198 30.2218 99.1076C30.1796 98.6954 30.1562 98.2501 30.1562 97.7676C30.1562 97.2851 30.1796 96.8406 30.2218 96.4324C30.2639 96.0251 30.3763 95.6929 30.5543 95.4448C30.7183 95.2152 30.915 95.0601 31.1445 94.976C31.374 94.892 31.627 94.854 31.8986 94.854Z" fill="#1D1D1B"/>
<path d="M35.9886 94.854C36.2275 94.854 36.443 94.8871 36.6397 94.9477C36.8364 95.0092 37.0238 95.1304 37.2064 95.309C37.436 95.5385 37.5811 95.8893 37.6421 96.3669C37.7029 96.8446 37.7357 97.4209 37.7357 98.1046H35.3891C35.3891 98.4279 35.3985 98.7043 35.4219 98.9387C35.4454 99.1731 35.4922 99.3412 35.5624 99.4495C35.6046 99.5149 35.6654 99.5667 35.7404 99.6087C35.8154 99.6507 35.9043 99.6741 36.0027 99.6741C36.19 99.6741 36.3306 99.6038 36.4336 99.4584C36.4851 99.4026 36.5179 99.3274 36.5414 99.2337C36.5647 99.1399 36.5741 99.0413 36.5741 98.9435H37.7123C37.6982 99.1965 37.6561 99.426 37.5905 99.641C37.5203 99.8568 37.4032 100.058 37.2299 100.246C37.08 100.41 36.902 100.527 36.7006 100.597C36.4992 100.667 36.265 100.7 36.0027 100.7C35.7498 100.7 35.5297 100.667 35.3282 100.601C35.1315 100.536 34.9442 100.414 34.7755 100.236C34.6537 100.115 34.56 99.9643 34.4898 99.7913C34.4196 99.6176 34.368 99.4212 34.3353 99.2102C34.2978 98.9993 34.2743 98.7698 34.265 98.5265C34.2556 98.2832 34.2509 98.0302 34.2509 97.7724C34.2509 97.2568 34.279 96.7791 34.3353 96.3435C34.3914 95.9079 34.5414 95.562 34.7755 95.313C34.9489 95.1352 35.1362 95.014 35.3423 94.9526C35.5484 94.892 35.7638 94.8588 35.9933 94.8588L35.9886 94.854ZM35.9886 95.8659C35.8809 95.8659 35.7919 95.8844 35.7264 95.9273C35.6561 95.9645 35.5999 96.0202 35.5484 96.0954C35.4922 96.1803 35.45 96.316 35.4266 96.4938C35.4032 96.6716 35.3891 96.9295 35.3891 97.2665H36.5929C36.5929 96.9295 36.5788 96.6716 36.5554 96.4938C36.532 96.316 36.4898 96.1803 36.4336 96.0954C36.3821 96.0251 36.3259 95.9693 36.2556 95.9273C36.1854 95.8844 36.1011 95.8659 35.9933 95.8659H35.9886Z" fill="#1D1D1B"/>
<path d="M42.7338 92.9531H43.8719V100.611H42.7759V100.189C42.7385 100.246 42.6822 100.311 42.6026 100.381C42.523 100.452 42.4574 100.507 42.3965 100.541C42.2326 100.639 42.0406 100.69 41.8251 100.69C41.6097 100.69 41.4223 100.658 41.2677 100.592C41.1085 100.527 40.9633 100.414 40.8275 100.25C40.6401 100.021 40.5277 99.7065 40.4902 99.304C40.4528 98.9015 40.4294 98.3907 40.4294 97.7676C40.4294 97.1444 40.4481 96.6345 40.4902 96.236C40.5277 95.8384 40.6448 95.524 40.8275 95.2945C40.9587 95.1304 41.1038 95.014 41.263 94.9526C41.4223 94.8871 41.6144 94.8548 41.8298 94.8548C42.0453 94.8548 42.2326 94.9057 42.4012 95.0043C42.523 95.0835 42.6354 95.1821 42.7338 95.3041V92.9482V92.9531ZM42.1764 95.8659C42.0031 95.8659 41.8626 95.941 41.7549 96.0905C41.7174 96.1423 41.6893 96.2037 41.6611 96.2829C41.6378 96.3629 41.6144 96.4655 41.6003 96.5965C41.5862 96.7282 41.5769 96.8874 41.5722 97.079C41.5722 97.2713 41.5675 97.5009 41.5675 97.7676C41.5675 98.3067 41.5769 98.6994 41.6003 98.9435C41.6237 99.1868 41.6705 99.3606 41.7502 99.4543C41.8486 99.599 41.989 99.6693 42.1717 99.6693C42.331 99.6693 42.4575 99.6176 42.5604 99.5198C42.6729 99.4074 42.7338 99.2288 42.7338 98.9904V96.5496C42.7338 96.4284 42.7197 96.3249 42.6916 96.236C42.6635 96.152 42.6214 96.0768 42.5604 96.021C42.4621 95.9127 42.331 95.8618 42.1717 95.8618L42.1764 95.8659Z" fill="#1D1D1B"/>
<path d="M46.5601 94.854C46.7989 94.854 47.0144 94.8871 47.2111 94.9477C47.4079 95.0092 47.5953 95.1304 47.7779 95.309C48.0074 95.5385 48.1526 95.8893 48.2135 96.3669C48.2744 96.8446 48.3071 97.4209 48.3071 98.1046H45.9606C45.9606 98.4279 45.97 98.7043 45.9934 98.9387C46.0168 99.1731 46.0636 99.3412 46.1339 99.4495C46.1761 99.5149 46.2369 99.5667 46.3118 99.6087C46.3868 99.6507 46.4758 99.6741 46.5742 99.6741C46.7615 99.6741 46.902 99.6038 47.005 99.4584C47.0566 99.4026 47.0894 99.3274 47.1128 99.2337C47.1362 99.1399 47.1456 99.0413 47.1456 98.9435H48.2838C48.2697 99.1965 48.2275 99.426 48.162 99.641C48.0918 99.8568 47.9747 100.058 47.8013 100.246C47.6515 100.41 47.4735 100.527 47.2721 100.597C47.0707 100.667 46.8364 100.7 46.5742 100.7C46.3212 100.7 46.1011 100.667 45.8997 100.601C45.7029 100.536 45.5156 100.414 45.347 100.236C45.2252 100.115 45.1315 99.9643 45.0613 99.7913C44.9911 99.6176 44.9395 99.4212 44.9067 99.2102C44.8693 98.9993 44.8458 98.7698 44.8364 98.5265C44.8271 98.2832 44.8224 98.0302 44.8224 97.7724C44.8224 97.2568 44.8505 96.7791 44.9067 96.3435C44.9629 95.9079 45.1128 95.562 45.347 95.313C45.5203 95.1352 45.7076 95.014 45.9137 94.9526C46.1198 94.892 46.3353 94.8588 46.5648 94.8588L46.5601 94.854ZM46.5601 95.8659C46.4524 95.8659 46.3634 95.8844 46.2979 95.9273C46.2275 95.9645 46.1714 96.0202 46.1198 96.0954C46.0636 96.1803 46.0215 96.316 45.9981 96.4938C45.9747 96.6716 45.9606 96.9295 45.9606 97.2665H47.1643C47.1643 96.9295 47.1503 96.6716 47.1268 96.4938C47.1034 96.316 47.0613 96.1803 47.005 96.0954C46.9536 96.0251 46.8974 95.9693 46.8271 95.9273C46.7568 95.8844 46.6725 95.8659 46.5648 95.8659H46.5601Z" fill="#1D1D1B"/>
<path d="M52.5414 95.0932H53.3282V95.9645H52.5414V98.8263C52.5414 99.3371 52.8083 99.5901 53.347 99.5901V100.611C53.0753 100.611 52.8271 100.592 52.5975 100.55C52.3727 100.512 52.162 100.414 51.9699 100.264C51.7919 100.119 51.6515 99.9409 51.5484 99.721C51.45 99.5012 51.3985 99.2248 51.3985 98.8869V95.9596H50.8177V95.0884H51.3985V93.4865H52.5367V95.0884L52.5414 95.0932Z" fill="#1D1D1B"/>
<path d="M55.6509 94.854C55.9225 94.854 56.1754 94.8968 56.4049 94.976C56.6345 95.0601 56.8312 95.2152 56.9951 95.4448C57.1731 95.6978 57.2855 96.0251 57.3277 96.4324C57.3699 96.8406 57.3932 97.2851 57.3932 97.7676C57.3932 98.2501 57.3699 98.6906 57.3277 99.1027C57.2855 99.5101 57.1731 99.8423 56.9951 100.091C56.8312 100.321 56.6345 100.48 56.4049 100.564C56.1754 100.648 55.9225 100.695 55.6509 100.695C55.3792 100.695 55.1263 100.653 54.8967 100.564C54.6673 100.48 54.4706 100.321 54.3066 100.091C54.1286 99.8382 54.0162 99.5101 53.974 99.1027C53.9319 98.6954 53.9085 98.2501 53.9085 97.7676C53.9085 97.2851 53.9319 96.8406 53.974 96.4324C54.0162 96.0251 54.1286 95.6929 54.3066 95.4448C54.4706 95.2152 54.6673 95.0601 54.8967 94.976C55.1263 94.892 55.3792 94.854 55.6509 94.854ZM55.6509 95.8659C55.5666 95.8659 55.4822 95.8844 55.4026 95.9273C55.323 95.9645 55.2574 96.0251 55.2106 96.1051C55.131 96.236 55.0841 96.4373 55.0701 96.7185C55.056 96.9998 55.0467 97.3505 55.0467 97.7724C55.0467 98.1943 55.0514 98.5499 55.0701 98.8312C55.0841 99.1116 55.131 99.3177 55.2106 99.4495C55.2621 99.5287 55.323 99.5852 55.4026 99.6224C55.4822 99.6596 55.5619 99.6741 55.6509 99.6741C55.7399 99.6741 55.8195 99.6556 55.8991 99.6224C55.9787 99.5852 56.0443 99.5287 56.0911 99.4495C56.1708 99.3177 56.2176 99.1116 56.2317 98.8312C56.2457 98.5499 56.2551 98.1943 56.2551 97.7724C56.2551 97.3505 56.2457 96.9998 56.2317 96.7185C56.2176 96.4373 56.1708 96.236 56.0911 96.1051C56.0396 96.0251 55.9787 95.9645 55.8991 95.9273C55.8195 95.8893 55.7399 95.8659 55.6509 95.8659Z" fill="#1D1D1B"/>
<path d="M60.6202 100.611V100.18C60.5686 100.246 60.5124 100.311 60.4421 100.381C60.3719 100.452 60.3017 100.503 60.2314 100.536C60.1517 100.587 60.0627 100.625 59.9644 100.653C59.866 100.681 59.763 100.695 59.6646 100.695C59.4352 100.695 59.2385 100.658 59.0745 100.587C58.9106 100.517 58.7606 100.405 58.6342 100.254C58.5171 100.124 58.4375 99.974 58.386 99.7913C58.3345 99.6127 58.311 99.3557 58.311 99.0276V94.9388H59.4538V99.0138C59.4538 99.2337 59.5054 99.4026 59.6131 99.5101C59.7209 99.6176 59.852 99.6693 60.0113 99.6693C60.1705 99.6693 60.3017 99.6176 60.4094 99.5101C60.5171 99.4026 60.5686 99.2385 60.5686 99.0138V94.9388H61.7068V100.606H60.6202V100.611Z" fill="#1D1D1B"/>
<path d="M64.1894 95.0932H64.9763V95.9645H64.1894V98.8263C64.1894 99.3371 64.4563 99.5901 64.995 99.5901V100.611C64.7233 100.611 64.4751 100.592 64.2456 100.55C64.0208 100.512 63.81 100.414 63.6179 100.264C63.4399 100.119 63.2995 99.9409 63.1964 99.721C63.0981 99.5012 63.0465 99.2248 63.0465 98.8869V95.9596H62.4657V95.0884H63.0465V93.4865H64.1847V95.0884L64.1894 95.0932Z" fill="#1D1D1B"/>
<path d="M67.2911 94.854C67.5299 94.854 67.7454 94.8871 67.9421 94.9477C68.1388 95.0092 68.3261 95.1304 68.5089 95.309C68.7383 95.5385 68.8836 95.8893 68.9444 96.3669C69.0054 96.8446 69.0381 97.4209 69.0381 98.1046H66.6915C66.6915 98.4279 66.7009 98.7043 66.7243 98.9387C66.7477 99.1731 66.7899 99.3412 66.8648 99.4495C66.907 99.5149 66.9679 99.5667 67.0428 99.6087C67.1178 99.6507 67.2068 99.6741 67.3051 99.6741C67.4925 99.6741 67.6329 99.6038 67.736 99.4584C67.7876 99.4026 67.8203 99.3274 67.8437 99.2337C67.8672 99.1399 67.8765 99.0413 67.8765 98.9435H69.0147C69.0007 99.1965 68.9585 99.426 68.8929 99.641C68.8226 99.8568 68.7056 100.058 68.5322 100.246C68.3824 100.41 68.2044 100.527 68.003 100.597C67.8016 100.667 67.5674 100.7 67.3051 100.7C67.0522 100.7 66.832 100.667 66.6306 100.601C66.4339 100.536 66.2465 100.414 66.0779 100.236C65.9561 100.115 65.8625 99.9643 65.7922 99.7913C65.7219 99.6176 65.6704 99.4212 65.6376 99.2102C65.6002 98.9993 65.5768 98.7698 65.5674 98.5265C65.558 98.2832 65.5533 98.0302 65.5533 97.7724C65.5533 97.2568 65.5815 96.7791 65.6376 96.3435C65.6939 95.9079 65.8437 95.562 66.0779 95.313C66.2512 95.1352 66.4386 95.014 66.6447 94.9526C66.8508 94.892 67.0662 94.8588 67.2958 94.8588L67.2911 94.854ZM67.2911 95.8659C67.1833 95.8659 67.0943 95.8844 67.0287 95.9273C66.9632 95.9693 66.9023 96.0202 66.8507 96.0954C66.7946 96.1803 66.7524 96.316 66.729 96.4938C66.7056 96.6716 66.6915 96.9295 66.6915 97.2665H67.8953C67.8953 96.9295 67.8812 96.6716 67.8578 96.4938C67.8343 96.316 67.7922 96.1803 67.736 96.0954C67.6845 96.0251 67.6283 95.9693 67.558 95.9273C67.4925 95.8893 67.4035 95.8659 67.2958 95.8659H67.2911Z" fill="#1D1D1B"/>
<path d="M71.4629 94.854C71.6971 94.854 71.922 94.892 72.128 94.9623C72.3341 95.0326 72.5121 95.1401 72.6573 95.2856C72.8072 95.4302 72.929 95.604 73.0133 95.8052C73.0976 96.0065 73.1398 96.2546 73.1398 96.5407H72.0203C72.0203 96.4187 72.0063 96.316 71.9828 96.236C71.9594 96.152 71.9173 96.0816 71.861 96.0251C71.7533 95.9127 71.6222 95.8521 71.4629 95.8521C71.2896 95.8521 71.1491 95.9038 71.0414 96.0113C70.9337 96.1188 70.8821 96.2643 70.8821 96.4421C70.8821 96.5779 70.9102 96.6902 70.9664 96.7751C71.0461 96.906 71.1866 97.0135 71.388 97.0976L72.1421 97.4209C72.3341 97.5057 72.498 97.5995 72.6292 97.6973C72.7603 97.7959 72.8727 97.9131 72.9664 98.0488C73.1257 98.2687 73.2006 98.5782 73.2006 98.9718C73.2006 99.2523 73.1537 99.4963 73.0554 99.7024C72.957 99.9085 72.84 100.086 72.6948 100.231C72.5215 100.405 72.3341 100.522 72.128 100.592C71.922 100.663 71.7018 100.695 71.4582 100.695C71.2147 100.695 70.9805 100.653 70.7603 100.578C70.5402 100.503 70.3528 100.386 70.2123 100.236C70.0484 100.063 69.922 99.8754 69.8377 99.6693C69.7533 99.4632 69.7065 99.224 69.7065 98.9524H70.8353C70.8353 99.1819 70.9009 99.3606 71.0273 99.4915C71.0835 99.5473 71.1491 99.5901 71.2241 99.6224C71.299 99.6507 71.3786 99.6645 71.4535 99.6645C71.6316 99.6645 71.7814 99.6127 71.8938 99.5052C71.95 99.4535 71.9922 99.3929 72.0156 99.3137C72.0391 99.2337 72.053 99.1496 72.053 99.0559C72.053 98.8966 72.0156 98.7609 71.936 98.634C71.8516 98.5031 71.7018 98.3956 71.4957 98.3107L70.7416 97.9785C70.3528 97.8056 70.0765 97.5898 69.9126 97.3231C69.7908 97.1307 69.7299 96.8729 69.7299 96.5496C69.7299 96.278 69.7767 96.0437 69.8657 95.857C69.9547 95.6646 70.0765 95.4917 70.2264 95.3365C70.3856 95.1773 70.5683 95.0601 70.7791 94.9809C70.9898 94.9009 71.2147 94.8637 71.4535 94.8637L71.4629 94.854Z" fill="#1D1D1B"/>
<path d="M77.1129 98.8263C77.1129 99.3371 77.3704 99.5901 77.8861 99.5901V100.611C77.6186 100.611 77.3753 100.587 77.1551 100.545C76.935 100.503 76.7289 100.41 76.5415 100.264C76.3636 100.128 76.223 99.9506 76.12 99.7299C76.0216 99.5101 75.9701 99.2288 75.9701 98.8869V92.9482H77.1082V98.8215L77.1129 98.8263Z" fill="#1D1D1B"/>
<path d="M80.1652 94.854C80.4045 94.854 80.6203 94.8871 80.8166 94.9477C81.013 95.0092 81.2005 95.1304 81.3832 95.309C81.6127 95.5385 81.7582 95.8893 81.8188 96.3669C81.8802 96.8446 81.9126 97.4209 81.9126 98.1046H79.5663C79.5663 98.4279 79.5752 98.7043 79.5987 98.9387C79.6221 99.1731 79.6641 99.3412 79.7393 99.4495C79.7813 99.5149 79.8427 99.5667 79.9171 99.6087C79.9923 99.6507 80.0812 99.6741 80.1798 99.6741C80.3673 99.6741 80.5079 99.6038 80.6105 99.4584C80.6623 99.4026 80.6946 99.3274 80.718 99.2337C80.7415 99.1399 80.7512 99.0413 80.7512 98.9435H81.8891C81.8754 99.1965 81.8334 99.426 81.7671 99.641C81.6976 99.8568 81.5804 100.058 81.4066 100.246C81.2571 100.41 81.0793 100.527 80.8773 100.597C80.676 100.667 80.4416 100.7 80.1798 100.7C79.9268 100.7 79.707 100.667 79.5049 100.601C79.3085 100.536 79.121 100.414 78.9521 100.236C78.8309 100.115 78.7371 99.9643 78.6668 99.7913C78.5965 99.6176 78.5448 99.4212 78.5124 99.2102C78.4793 98.9993 78.451 98.7698 78.4421 98.5265C78.4324 98.2832 78.4276 98.0302 78.4276 97.7724C78.4276 97.2568 78.4559 96.7791 78.5124 96.3435C78.5682 95.9079 78.7185 95.562 78.9521 95.313C79.1259 95.1352 79.3134 95.014 79.5195 94.9526C79.7256 94.892 79.9405 94.8588 80.1701 94.8588L80.1652 94.854ZM80.1652 95.8659C80.0577 95.8659 79.9688 95.8844 79.9034 95.9273C79.833 95.9645 79.7765 96.0202 79.7256 96.0954C79.669 96.1803 79.627 96.316 79.6035 96.4938C79.5801 96.6716 79.5663 96.9295 79.5663 97.2665H80.7698C80.7698 96.9295 80.756 96.6716 80.7326 96.4938C80.7092 96.316 80.6671 96.1803 80.6105 96.0954C80.5588 96.0251 80.5031 95.9693 80.4327 95.9273C80.3624 95.8844 80.2784 95.8659 80.1701 95.8659H80.1652Z" fill="#1D1D1B"/>
<path d="M84.3388 94.854C84.5781 94.854 84.7979 94.892 85.004 94.9623C85.2101 95.0326 85.3887 95.1401 85.5334 95.2856C85.6837 95.4302 85.8009 95.604 85.8898 95.8052C85.9738 96.0113 86.0207 96.2546 86.0207 96.5407H84.9013C84.9013 96.4187 84.8868 96.316 84.8634 96.236C84.8399 96.152 84.7979 96.0816 84.7421 96.0251C84.6346 95.9127 84.5029 95.8521 84.3437 95.8521C84.1707 95.8521 84.0301 95.9038 83.9226 96.0113C83.8143 96.1188 83.7634 96.2643 83.7634 96.4421C83.7634 96.5779 83.7909 96.6902 83.8474 96.7751C83.9266 96.906 84.0673 97.0135 84.2685 97.0976L85.0234 97.4209C85.2149 97.5057 85.379 97.5995 85.5099 97.6973C85.6409 97.7959 85.754 97.9131 85.847 98.0488C86.007 98.2687 86.0862 98.5782 86.0862 98.9718C86.0862 99.2523 86.0393 99.4963 85.9407 99.7024C85.8429 99.9085 85.7257 100.086 85.5802 100.231C85.4073 100.405 85.2198 100.522 85.0137 100.592C84.8076 100.663 84.5878 100.695 84.3388 100.695C84.0907 100.695 83.8612 100.653 83.6413 100.578C83.4215 100.503 83.234 100.386 83.0934 100.236C82.9293 100.063 82.8032 99.8754 82.7184 99.6693C82.6343 99.4632 82.5923 99.224 82.5923 98.9524H83.7205C83.7205 99.1819 83.7868 99.3606 83.9129 99.4915C83.9695 99.5473 84.0349 99.5901 84.1141 99.6224C84.1893 99.6507 84.2685 99.6645 84.3437 99.6645C84.5215 99.6645 84.6718 99.6127 84.7841 99.5052C84.8399 99.4535 84.8828 99.3929 84.9062 99.3137C84.9296 99.2337 84.9434 99.1496 84.9434 99.0559C84.9434 98.8966 84.9013 98.7609 84.8262 98.634C84.7421 98.5031 84.5918 98.3956 84.3857 98.3107L83.6316 97.9785C83.2429 97.8056 82.9665 97.5898 82.8032 97.3231C82.6812 97.1307 82.6206 96.8729 82.6206 96.5496C82.6206 96.278 82.6666 96.0437 82.7563 95.857C82.8453 95.6695 82.9665 95.4917 83.1168 95.3365C83.276 95.1773 83.4587 95.0601 83.6696 94.9809C83.8798 94.9009 84.1053 94.8637 84.3437 94.8637L84.3388 94.854Z" fill="#1D1D1B"/>
<path d="M91.3509 95.9645H90.9621C90.6906 95.9645 90.4659 96.0485 90.2832 96.2223C90.1046 96.3952 90.0157 96.6345 90.0157 96.9432V100.611H88.8777V94.9437H89.9737V95.5474C90.0303 95.4634 90.1046 95.3793 90.1895 95.2993C90.2735 95.2193 90.3673 95.1538 90.4699 95.0932C90.7277 94.934 91.0227 94.854 91.3509 94.854V95.9645Z" fill="#1D1D1B"/>
<path d="M93.6131 94.854C93.8523 94.854 94.0673 94.8871 94.2645 94.9477C94.4609 95.0092 94.6484 95.1304 94.831 95.309C95.0606 95.5385 95.206 95.8893 95.2667 96.3669C95.3273 96.8446 95.3604 97.4209 95.3604 98.1046H93.0134C93.0134 98.4279 93.0231 98.7043 93.0465 98.9387C93.0699 99.1731 93.112 99.3412 93.1871 99.4495C93.2292 99.5149 93.2898 99.5667 93.3649 99.6087C93.4401 99.6507 93.529 99.6741 93.6276 99.6741C93.8143 99.6741 93.9549 99.6038 94.0584 99.4584C94.1093 99.4026 94.1424 99.3274 94.1659 99.2337C94.1893 99.1399 94.199 99.0413 94.199 98.9435H95.337C95.3224 99.1965 95.2804 99.426 95.2149 99.641C95.1446 99.8568 95.0274 100.058 94.8545 100.246C94.7041 100.41 94.5263 100.527 94.3251 100.597C94.1238 100.667 93.8895 100.7 93.6276 100.7C93.3746 100.7 93.154 100.667 92.9527 100.601C92.7563 100.536 92.5688 100.414 92.3999 100.236C92.2779 100.115 92.1849 99.9643 92.1146 99.7913C92.0443 99.6176 91.9926 99.4212 91.9594 99.2102C91.9271 98.9993 91.8988 98.7698 91.8891 98.5265C91.8802 98.2832 91.8754 98.0302 91.8754 97.7724C91.8754 97.2568 91.9037 96.7791 91.9594 96.3435C92.016 95.9079 92.1655 95.562 92.3999 95.313C92.5737 95.1352 92.7604 95.014 92.9665 94.9526C93.1726 94.892 93.3884 94.8588 93.6179 94.8588L93.6131 94.854ZM93.6131 95.8659C93.5056 95.8659 93.4167 95.8844 93.3512 95.9273C93.2809 95.9645 93.2243 96.021 93.1726 96.0954C93.1168 96.1803 93.0748 96.316 93.0513 96.4938C93.0279 96.6716 93.0134 96.9295 93.0134 97.2665H94.2176C94.2176 96.9295 94.203 96.6716 94.1796 96.4938C94.1562 96.316 94.1141 96.1803 94.0584 96.0954C94.0067 96.0251 93.9501 95.9693 93.8798 95.9273C93.8103 95.8844 93.7254 95.8659 93.6179 95.8659H93.6131ZM93.8612 94.2971H93.0651L93.8377 92.8027H94.8076L93.8612 94.2971Z" fill="#1D1D1B"/>
<path d="M98.5827 100.611V100.18C98.531 100.246 98.4744 100.311 98.4041 100.381C98.3338 100.452 98.2635 100.503 98.194 100.536C98.114 100.587 98.0251 100.625 97.9265 100.653C97.8287 100.681 97.7252 100.695 97.6266 100.695C97.3971 100.695 97.2007 100.658 97.0366 100.587C96.8726 100.517 96.723 100.405 96.5962 100.254C96.479 100.124 96.3998 99.974 96.348 99.7913C96.2963 99.6127 96.2729 99.3557 96.2729 99.0276V94.9388H97.4116V99.0138C97.4116 99.2337 97.4626 99.4026 97.5709 99.5101C97.6784 99.6176 97.8093 99.6693 97.9685 99.6693C98.1277 99.6693 98.2595 99.6176 98.367 99.5101C98.4744 99.4026 98.5262 99.2385 98.5262 99.0138V94.9388H99.6641V100.606H98.5779L98.5827 100.611Z" fill="#1D1D1B"/>
<path d="M102.27 94.854C102.509 94.854 102.729 94.892 102.935 94.9623C103.141 95.0326 103.319 95.1401 103.464 95.2856C103.614 95.4302 103.731 95.604 103.82 95.8052C103.905 96.0113 103.951 96.2546 103.951 96.5407H102.832C102.832 96.4187 102.818 96.316 102.794 96.236C102.771 96.152 102.729 96.0816 102.672 96.0251C102.565 95.9127 102.434 95.8521 102.275 95.8521C102.101 95.8521 101.96 95.9038 101.853 96.0113C101.745 96.1188 101.694 96.2643 101.694 96.4421C101.694 96.5779 101.722 96.6902 101.778 96.7751C101.858 96.906 101.998 97.0135 102.199 97.0976L102.954 97.4209C103.146 97.5057 103.31 97.5995 103.441 97.6973C103.572 97.7959 103.684 97.9131 103.778 98.0488C103.937 98.2687 104.017 98.5782 104.017 98.9718C104.017 99.2523 103.97 99.4963 103.872 99.7024C103.773 99.9085 103.656 100.086 103.511 100.231C103.337 100.405 103.15 100.522 102.944 100.592C102.738 100.663 102.518 100.695 102.27 100.695C102.022 100.695 101.792 100.653 101.572 100.578C101.352 100.503 101.164 100.386 101.024 100.236C100.86 100.063 100.733 99.8754 100.649 99.6693C100.564 99.4632 100.522 99.224 100.522 98.9524H101.652C101.652 99.1819 101.717 99.3606 101.844 99.4915C101.9 99.5473 101.965 99.5901 102.045 99.6224C102.119 99.6507 102.199 99.6645 102.275 99.6645C102.452 99.6645 102.602 99.6127 102.714 99.5052C102.771 99.4535 102.813 99.3929 102.836 99.3137C102.86 99.2337 102.874 99.1496 102.874 99.0559C102.874 98.8966 102.832 98.7609 102.757 98.634C102.672 98.5031 102.523 98.3956 102.317 98.3107L101.563 97.9785C101.174 97.8056 100.897 97.5898 100.733 97.3231C100.611 97.1307 100.551 96.8729 100.551 96.5496C100.551 96.278 100.598 96.0437 100.687 95.857C100.775 95.6695 100.897 95.4917 101.047 95.3365C101.206 95.1773 101.389 95.0601 101.6 94.9809C101.811 94.9009 102.035 94.8637 102.275 94.8637L102.27 94.854Z" fill="#1D1D1B"/>
<path d="M106.367 94.854C106.607 94.854 106.826 94.892 107.033 94.9623C107.239 95.0326 107.416 95.1401 107.562 95.2856C107.712 95.4302 107.829 95.604 107.918 95.8052C108.002 96.0113 108.049 96.2546 108.049 96.5407H106.93C106.93 96.4187 106.915 96.316 106.892 96.236C106.869 96.152 106.826 96.0816 106.771 96.0251C106.662 95.9127 106.532 95.8521 106.372 95.8521C106.199 95.8521 106.059 95.9038 105.95 96.0113C105.843 96.1188 105.791 96.2643 105.791 96.4421C105.791 96.5779 105.819 96.6902 105.876 96.7751C105.955 96.906 106.096 97.0135 106.297 97.0976L107.051 97.4209C107.244 97.5057 107.408 97.5995 107.539 97.6973C107.669 97.7959 107.782 97.9131 107.876 98.0488C108.035 98.2687 108.115 98.5782 108.115 98.9718C108.115 99.2523 108.068 99.4963 107.969 99.7024C107.872 99.9085 107.754 100.086 107.609 100.231C107.436 100.405 107.248 100.522 107.042 100.592C106.836 100.663 106.616 100.695 106.367 100.695C106.119 100.695 105.89 100.653 105.67 100.578C105.449 100.503 105.263 100.386 105.122 100.236C104.958 100.063 104.831 99.8754 104.747 99.6693C104.663 99.4632 104.621 99.224 104.621 98.9524H105.749C105.749 99.1819 105.815 99.3606 105.942 99.4915C105.997 99.5473 106.064 99.5901 106.143 99.6224C106.218 99.6507 106.297 99.6645 106.372 99.6645C106.55 99.6645 106.7 99.6127 106.813 99.5052C106.869 99.4535 106.911 99.3929 106.934 99.3137C106.957 99.2337 106.972 99.1496 106.972 99.0559C106.972 98.8966 106.93 98.7609 106.855 98.634C106.771 98.5031 106.62 98.3956 106.414 98.3107L105.66 97.9785C105.271 97.8056 104.995 97.5898 104.831 97.3231C104.71 97.1307 104.648 96.8729 104.648 96.5496C104.648 96.278 104.695 96.0437 104.784 95.857C104.874 95.6695 104.995 95.4917 105.145 95.3365C105.305 95.1773 105.487 95.0601 105.698 94.9809C105.908 94.9009 106.133 94.8637 106.372 94.8637L106.367 94.854Z" fill="#1D1D1B"/>
<path d="M110.176 94.222H108.916V92.962H110.176V94.222ZM110.124 100.611H108.986V95.0932H110.124V100.611Z" fill="#1D1D1B"/>
<path d="M112.597 95.0932H113.384V95.9645H112.597V98.8263C112.597 99.3371 112.864 99.5901 113.402 99.5901V100.611C113.131 100.611 112.882 100.592 112.653 100.55C112.423 100.507 112.217 100.414 112.026 100.264C111.847 100.119 111.707 99.9409 111.604 99.721C111.505 99.5012 111.454 99.2248 111.454 98.8869V95.9596H110.873V95.0884H111.454V93.4865H112.592V95.0884L112.597 95.0932Z" fill="#1D1D1B"/>
<path d="M115.698 94.854C115.937 94.854 116.152 94.8871 116.35 94.9477C116.546 95.0092 116.734 95.1304 116.916 95.309C117.146 95.5385 117.291 95.8893 117.352 96.3669C117.412 96.8446 117.446 97.4209 117.446 98.1046H115.099C115.099 98.4279 115.108 98.7043 115.132 98.9387C115.155 99.1731 115.197 99.3412 115.272 99.4495C115.314 99.5149 115.375 99.5667 115.45 99.6087C115.525 99.6507 115.614 99.6741 115.713 99.6741C115.9 99.6741 116.04 99.6038 116.144 99.4584C116.195 99.4026 116.228 99.3274 116.251 99.2337C116.274 99.1399 116.284 99.0413 116.284 98.9435H117.422C117.408 99.1965 117.366 99.426 117.3 99.641C117.23 99.8568 117.113 100.058 116.94 100.246C116.79 100.41 116.612 100.527 116.41 100.597C116.209 100.667 115.975 100.7 115.713 100.7C115.46 100.7 115.239 100.667 115.038 100.601C114.842 100.536 114.654 100.414 114.485 100.236C114.364 100.115 114.27 99.9643 114.2 99.7913C114.129 99.6176 114.078 99.4212 114.045 99.2102C114.012 98.9993 113.984 98.7698 113.975 98.5265C113.965 98.2832 113.961 98.0302 113.961 97.7724C113.961 97.2568 113.989 96.7791 114.045 96.3435C114.101 95.9079 114.252 95.562 114.485 95.313C114.659 95.1352 114.846 95.014 115.052 94.9526C115.259 94.892 115.474 94.8588 115.703 94.8588L115.698 94.854ZM115.698 95.8659C115.591 95.8659 115.502 95.8844 115.436 95.9273C115.366 95.9645 115.309 96.0202 115.259 96.0954C115.202 96.1803 115.16 96.316 115.137 96.4938C115.113 96.6716 115.099 96.9295 115.099 97.2665H116.303C116.303 96.9295 116.289 96.6716 116.266 96.4938C116.242 96.316 116.199 96.1803 116.144 96.0954C116.092 96.0251 116.036 95.9693 115.966 95.9273C115.895 95.8844 115.811 95.8659 115.703 95.8659H115.698Z" fill="#1D1D1B"/>
<path d="M119.87 94.854C120.109 94.854 120.329 94.892 120.535 94.9623C120.741 95.0326 120.919 95.1401 121.065 95.2856C121.215 95.4302 121.331 95.604 121.421 95.8052C121.505 96.0113 121.552 96.2546 121.552 96.5407H120.433C120.433 96.4187 120.418 96.316 120.395 96.236C120.371 96.152 120.329 96.0816 120.274 96.0251C120.165 95.9127 120.034 95.8521 119.875 95.8521C119.702 95.8521 119.561 95.9038 119.454 96.0113C119.346 96.1188 119.294 96.2643 119.294 96.4421C119.294 96.5779 119.322 96.6902 119.379 96.7751C119.458 96.906 119.599 97.0135 119.8 97.0976L120.554 97.4209C120.746 97.5057 120.91 97.5995 121.041 97.6973C121.172 97.7959 121.285 97.9131 121.378 98.0488C121.538 98.2687 121.618 98.5782 121.618 98.9718C121.618 99.2523 121.571 99.4963 121.472 99.7024C121.374 99.9085 121.257 100.086 121.112 100.231C120.939 100.405 120.751 100.522 120.545 100.592C120.339 100.663 120.118 100.695 119.87 100.695C119.622 100.695 119.393 100.653 119.173 100.578C118.952 100.503 118.765 100.386 118.625 100.236C118.461 100.063 118.334 99.8754 118.25 99.6693C118.166 99.4632 118.124 99.224 118.124 98.9524H119.252C119.252 99.1819 119.317 99.3606 119.444 99.4915C119.5 99.5473 119.566 99.5901 119.646 99.6224C119.721 99.6507 119.8 99.6645 119.875 99.6645C120.053 99.6645 120.203 99.6127 120.316 99.5052C120.371 99.4535 120.414 99.3929 120.438 99.3137C120.461 99.2337 120.475 99.1496 120.475 99.0559C120.475 98.8966 120.433 98.7609 120.358 98.634C120.274 98.5031 120.123 98.3956 119.917 98.3107L119.163 97.9785C118.774 97.8056 118.498 97.5898 118.334 97.3231C118.213 97.1307 118.151 96.8729 118.151 96.5496C118.151 96.278 118.198 96.0437 118.287 95.857C118.377 95.6695 118.498 95.4917 118.648 95.3365C118.807 95.1773 118.99 95.0601 119.201 94.9809C119.411 94.9009 119.637 94.8637 119.875 94.8637L119.87 94.854Z" fill="#1D1D1B"/>
</g>
<defs>
<clipPath id="clip0_2591_68675">
<rect width="121.236" height="120" fill="white" transform="translate(0.381836 0.699707)"/>
</clipPath>
</defs>
</svg>
