<svg width="120" height="121" viewBox="0 0 120 121" fill="none" xmlns="http://www.w3.org/2000/svg">
<g clip-path="url(#clip0_2591_11494)">
<mask id="mask0_2591_11494" style="mask-type:luminance" maskUnits="userSpaceOnUse" x="0" y="21" width="120" height="80">
<path d="M119.25 21.5566H0.75V100.184H119.25V21.5566Z" fill="white"/>
</mask>
<g mask="url(#mask0_2591_11494)">
<path d="M26.6551 21.5566C12.3577 21.5566 0.75 33.1487 0.75 47.4618C0.75 53.5803 2.87337 59.164 6.42806 63.5995H9.5895V66.934C10.958 68.1293 12.4678 69.1674 14.0722 70.0639H16.054V71.0863C19.2941 72.5333 22.8802 73.3513 26.6394 73.3513C28.6999 73.3513 30.6817 73.0996 32.6006 72.6434L26.4664 60.9885C25.0823 60.9727 23.761 60.7525 22.5185 60.3436V60.3751H19.2784V58.8022C18.5234 58.3146 17.8314 57.7327 17.2022 57.1035H16.054V60.3436H12.8296V57.1035H16.0697V55.8766C14.2295 53.5645 13.1128 50.639 13.1128 47.4304C13.1128 39.9435 19.184 33.8722 26.6709 33.8722C31.1221 33.8722 35.0543 36.0271 37.5237 39.3301L46.3003 30.5535C41.5345 25.0484 34.5037 21.5566 26.6551 21.5566ZM19.2941 63.6151H22.5343V66.8553H19.2941V63.6151Z" fill="#273375"/>
<path d="M70.3804 48.5471H68.084L70.0973 52.3692H72.3936L70.3804 48.5471Z" fill="#E30613"/>
<path d="M19.2941 60.3594V57.1193H16.054V60.3594H9.58946V63.5995H12.8296V66.8396H9.58946V70.0798H6.34938V73.3198H12.8139V70.0798H16.054V66.8396H19.2941V63.5995H22.5342V60.3594H19.2941ZM3.125 63.5838H6.36511V66.8239H3.125V63.5838ZM16.054 73.2884H19.2941V70.0483H16.054V73.2884ZM38.2472 46.8328C37.8382 46.2979 37.1934 45.952 36.4698 45.952C36.4069 45.952 36.344 45.9676 36.2968 45.9676C35.1329 46.0621 34.2049 47.0215 34.2049 48.2169C34.2049 49.4122 35.1486 50.3875 36.3282 50.4661C36.3755 50.4661 36.4227 50.4818 36.4698 50.4818C37.1776 50.4818 37.8068 50.1515 38.2314 49.6324C38.2419 49.6219 38.2524 49.6115 38.2629 49.601L39.7414 51.0795C39.5998 51.2525 39.4269 51.4098 39.2538 51.5514C38.4988 52.1805 37.5394 52.558 36.4856 52.558C36.0766 52.558 35.6991 52.495 35.3373 52.4007C33.4814 51.8817 32.1287 50.2144 32.1287 48.2169C32.1287 46.2193 33.4656 44.5678 35.2745 44.0488C35.652 43.9387 36.0452 43.8915 36.4698 43.8915C37.5394 43.8915 38.5146 44.2847 39.2538 44.9296C39.4111 45.0712 39.5684 45.2127 39.7257 45.37L38.2472 46.8328ZM69.6102 44.0959C71.1988 44.0959 72.4885 45.4171 72.4885 46.99C72.4885 48.5629 71.246 49.8841 69.6102 49.8841H67.4868V52.3535H65.3634V44.0959H69.6102ZM69.6102 47.8551C70.0506 47.8551 70.4281 47.4776 70.4281 47.0215C70.4281 46.5654 70.0821 46.1722 69.6102 46.1722H67.4868V47.8708H69.6102M54.8409 47.8866C55.533 48.0596 56.1465 48.7202 56.1465 49.8684C56.1465 51.2525 55.0926 52.3535 53.6141 52.3535H48.9112V44.0959H53.6141C54.7466 44.0959 55.7375 45.0082 55.7375 46.1878C55.7375 46.9743 55.3443 47.6035 54.8409 47.8866ZM50.9403 47.1001H53.1265C53.4568 47.1001 53.6613 46.8957 53.6613 46.6126C53.6613 46.3294 53.4568 46.1092 53.1265 46.1092H50.9403V47.1001ZM53.2681 50.3402C53.6613 50.3402 53.8815 50.0414 53.8815 49.7268C53.8815 49.3651 53.6141 49.1134 53.2681 49.1134H50.9403V50.3402H53.2681ZM57.2475 44.0959H63.8063V46.1407H59.3236V47.226H62.784V49.255H59.3236V50.3245H63.8063V52.3693H57.2475V44.0959ZM45.5453 44.0959H47.8417L43.5006 52.3535H41.1885L43.0444 48.846L40.5435 44.0959H42.9029L44.2241 46.6282L45.5453 44.0959ZM22.5342 53.8792H25.7743V57.1193H22.5342V53.8792ZM16.054 53.8792H19.2941V50.6391H16.054V53.8792Z" fill="#E30613"/>
<path d="M38.4043 58.5505C38.42 58.5347 38.4357 58.5347 38.4515 58.519V62.9545H40.5119V54.5554C40.5119 54.5554 40.4962 54.5554 40.4962 54.5711L38.4043 58.5505Z" fill="#273375"/>
<path d="M58.7267 58.7394L60.504 55.3262L58.7109 58.7237L58.7267 58.7394Z" fill="#273375"/>
<path d="M110.08 57.4023C110.238 57.2449 111.433 56.0024 111.528 55.9081C111.402 55.7822 111.244 55.6406 111.072 55.4991L110.08 57.4023Z" fill="#273375"/>
<path d="M37.0828 71.448C37.4131 71.448 37.6805 71.7154 37.6805 72.0458C37.6805 72.3761 37.4289 72.6277 37.0828 72.6277C36.7368 72.6277 36.5009 72.3761 36.5009 72.0458C36.5009 71.7154 36.7683 71.448 37.0828 71.448ZM47.1492 68.7742H44.1607V69.5449H46.237C46.1425 70.9605 45.0573 71.9356 43.626 71.9356C41.9745 71.9356 40.7791 70.7088 40.7791 68.9629C40.7791 67.1226 41.943 65.8801 43.626 65.8801C44.6483 65.8801 45.4348 66.3205 45.9538 67.2013L46.6774 66.6194C46.001 65.597 44.9786 65.0937 43.5945 65.0937C42.5407 65.0937 41.6756 65.4082 41.015 66.0374C40.2286 66.7767 39.8511 67.7518 39.8511 68.9629C39.8511 70.4414 40.5274 71.6368 41.7228 72.2817C42.2104 72.549 42.8238 72.7064 43.5473 72.7064C45.7651 72.7064 47.1649 71.3223 47.1649 69.0101V68.7742H47.1492ZM55.2337 71.6053C55.973 70.8975 56.3662 69.9538 56.3662 68.9157C56.3662 67.8777 55.9888 66.9339 55.2337 66.2104C54.5102 65.5026 53.5036 65.1094 52.4812 65.1094C51.4588 65.1094 50.4679 65.5026 49.7444 66.2104C49.0052 66.9339 48.612 67.8777 48.612 68.9157C48.612 69.9538 49.0052 70.8819 49.7444 71.6053C50.4837 72.3132 51.4588 72.7221 52.4812 72.7221C53.5036 72.7221 54.4945 72.3132 55.2337 71.6053ZM54.5731 71.0234C53.9912 71.6053 53.2677 71.9042 52.4655 71.9042C51.6634 71.9042 50.9398 71.6053 50.3578 71.0234C49.7916 70.4414 49.4928 69.7336 49.4928 68.9157C49.4928 68.0979 49.7916 67.3586 50.3578 66.7923C50.9241 66.2262 51.6634 65.9273 52.4655 65.9273C53.2677 65.9273 54.0069 66.2262 54.5731 66.7923C55.1394 67.3586 55.4383 68.1136 55.4383 68.9157C55.4539 69.7179 55.1551 70.4571 54.5731 71.0234ZM57.9391 65.2667V69.7808C57.9391 71.7469 58.8671 72.7064 60.7546 72.7064C62.6419 72.7064 63.57 71.7312 63.57 69.7808V65.2667H62.6892V69.7808C62.6892 71.2278 62.1072 71.9042 60.7546 71.9042C59.4019 71.9042 58.8199 71.2278 58.8199 69.7808V65.2667H57.9391ZM68.0527 72.8007L71.104 65.2509H70.176L68.0527 70.8032L65.9293 65.2509H64.9855L68.0527 72.8007ZM71.7017 71.448C71.3871 71.448 71.1197 71.7154 71.1197 72.0458C71.1197 72.3761 71.3714 72.6277 71.7017 72.6277C72.032 72.6277 72.2994 72.3761 72.2994 72.0458C72.2994 71.7154 72.0478 71.448 71.7017 71.448ZM74.8003 72.5176H75.6652V68.9315H78.6225V68.1293H75.6652V66.0531H78.6225V65.2509H74.8003V72.5176ZM80.6512 72.5176H81.501V69.0573H81.6262L84.2692 72.5176H85.3702L82.602 69.0573H82.7587C84.0487 69.0573 84.7252 68.4282 84.7252 67.2485C84.7252 66.5407 84.4575 65.9587 84.0487 65.6284C83.5927 65.2824 83.0737 65.2667 82.3815 65.2667H80.6827V72.5176H80.6512ZM81.4852 65.9902H82.1452C83.2935 65.9902 83.844 66.1947 83.844 67.2485C83.844 68.3023 83.2777 68.4124 82.1452 68.4124H81.4852V65.9902ZM32.6631 54.5554V62.9546H34.7236V58.5191C35.0224 58.7078 36.3121 59.5257 36.5795 59.6988C36.8155 59.5572 38.0423 58.7865 38.404 58.5505L40.5117 54.5554C40.0555 54.87 36.9727 56.8676 36.5795 57.135C36.1863 56.8833 33.2293 54.933 32.6631 54.5554ZM52.7329 54.697H50.6095V62.9546H55.1394V60.9413H52.7329V54.697ZM77.6782 54.697H75.555V62.9546H80.085V60.9413H77.6782V54.697ZM83.577 54.697H81.4537V62.9546H85.983V60.9413H83.577V54.697ZM60.8332 54.697L60.5029 55.3261L58.7255 58.7393L58.7098 58.7235L56.6179 54.697H54.3529C54.4945 55.0587 56.3505 58.4719 57.6088 60.7998C58.1436 61.8063 58.584 62.6243 58.6941 62.8759V62.9546C58.6941 62.9388 58.7098 62.9231 58.7098 62.9074C58.7255 62.9231 58.7255 62.9388 58.7255 62.9546V62.8759C59.103 62.0423 62.8621 55.216 63.0667 54.697H60.8332ZM45.4819 54.7756V54.697C45.4819 54.7128 45.4663 54.7284 45.4663 54.7442C45.4663 54.7284 45.4505 54.7128 45.4505 54.697V54.7756C45.0573 55.6092 41.3139 62.4355 41.1094 62.9546H43.3429L43.6732 62.3254L43.8304 62.0265H47.0548L47.5424 62.9703H49.8073C49.6658 62.6085 47.8098 59.1954 46.5515 56.8676C46.0324 55.8294 45.6078 55.0273 45.4819 54.7756ZM44.8371 60.1077L45.4505 58.9123L45.4663 58.928L46.0797 60.1077H44.8371ZM90.9225 54.7756V54.697C90.9225 54.7128 90.9067 54.7284 90.9067 54.7442C90.9067 54.7284 90.891 54.7128 90.891 54.697V54.7756C90.4972 55.6092 86.754 62.4355 86.5492 62.9546H88.7985L89.1292 62.3254L89.2867 62.0265H92.511L92.9985 62.9703H95.2477C95.106 62.6085 93.2497 59.1954 92.0077 56.8676C91.473 55.8294 91.0477 55.0273 90.9225 54.7756ZM90.2775 60.1077L90.891 58.9123L90.9067 58.928L91.5195 60.1077H90.2775ZM63.9475 62.9546H70.5063V60.9099H66.0236V59.8403H69.4682V57.8113H66.0236V56.726H70.5063V54.6813H63.9475V62.9546ZM71.9219 54.697H74.061V62.9546H71.9219V54.697ZM100.705 58.5663C100.297 58.2202 96.5055 54.8229 96.1755 54.524V62.9546H98.2515V59.0853C98.598 59.3999 102.357 62.7658 102.766 63.1276V54.697H100.705V58.5663ZM108.365 61.0829C109.089 61.0829 109.718 60.6739 110.127 60.1706C110.237 60.2964 111.433 61.5075 111.558 61.6334C110.992 62.2467 109.891 63.159 108.365 63.159C107.941 63.159 107.532 63.0804 107.138 62.9546C105.376 62.4513 104.008 60.8784 104.008 58.8336C104.008 56.3643 106.006 54.4926 108.365 54.4926C109.576 54.4926 110.473 54.9958 111.07 55.4835L110.08 57.3866C109.765 57.0878 109.309 56.5687 108.365 56.5687C107.154 56.5687 106.147 57.5754 106.147 58.8336C106.147 59.9661 107.013 60.957 108.145 61.0671C108.208 61.0671 108.286 61.0829 108.365 61.0829ZM119.108 56.7417V54.697H112.534V62.9546H119.108V60.9099H114.625V59.8403H118.086V57.8113H114.625V56.726H119.108V56.7417Z" fill="#273375"/>
<path d="M8.40964 82.4581H9.43204L11.7127 88.1836H10.8948L10.2342 86.5006H7.59176L6.93117 88.1836H6.11328L8.40964 82.4581ZM9.99829 85.8399L8.92871 83.1346L7.87489 85.8399H9.99829ZM13.4586 87.1921C13.7417 87.5544 14.0877 87.7584 14.4967 87.7584C14.9528 87.7584 15.2202 87.4756 15.2202 87.1141C15.2202 86.1856 13.2069 86.5321 13.2069 85.0531C13.2069 84.3924 13.7574 83.8891 14.5281 83.8891C15.1416 83.8891 15.6291 84.1569 15.928 84.5656L15.4404 84.9744C15.2202 84.6444 14.9056 84.4554 14.5281 84.4554C14.1035 84.4554 13.8675 84.6916 13.8675 85.0216C13.8675 85.9659 15.8808 85.6351 15.8808 87.0826C15.8651 87.8529 15.2674 88.3246 14.481 88.3246C13.8204 88.3246 13.317 88.0576 12.9396 87.6016L13.4586 87.1921ZM17.784 87.1921C18.0671 87.5544 18.4131 87.7584 18.8378 87.7584C19.2939 87.7584 19.5613 87.4756 19.5613 87.1141C19.5613 86.1856 17.548 86.5321 17.548 85.0531C17.548 84.3924 18.0985 83.8891 18.8693 83.8891C19.4826 83.8891 19.986 84.1569 20.2691 84.5656L19.7815 84.9744C19.5613 84.6444 19.2468 84.4554 18.8693 84.4554C18.4446 84.4554 18.2086 84.6916 18.2086 85.0216C18.2086 85.9659 20.2219 85.6351 20.2219 87.0826C20.2219 87.8529 19.6085 88.3246 18.8378 88.3246C18.1772 88.3246 17.6739 88.0576 17.2964 87.6016L17.784 87.1921ZM21.9678 82.5054C21.9678 82.2376 22.188 82.0179 22.4554 82.0179C22.7228 82.0179 22.943 82.2376 22.943 82.5054C22.943 82.7724 22.7228 82.9929 22.4554 82.9929C22.188 82.9929 21.9678 82.7724 21.9678 82.5054ZM22.1094 84.0624H22.8015V88.1836H22.1094V84.0624ZM25.0191 87.1921C25.3023 87.5544 25.6483 87.7584 26.073 87.7584C26.5291 87.7584 26.7965 87.4756 26.7965 87.1141C26.7965 86.1856 24.7833 86.5321 24.7833 85.0531C24.7833 84.3924 25.3338 83.8891 26.1045 83.8891C26.7179 83.8891 27.2212 84.1569 27.5043 84.5656L27.0167 84.9744C26.7965 84.6444 26.4819 84.4554 26.1045 84.4554C25.6798 84.4554 25.4439 84.6916 25.4439 85.0216C25.4439 85.9659 27.4571 85.6351 27.4571 87.0826C27.4414 87.8529 26.828 88.3246 26.0573 88.3246C25.3967 88.3246 24.8934 88.0576 24.5159 87.6016L25.0191 87.1921ZM29.5962 84.7074H28.8098V84.0624H29.5962V83.0244H30.304V84.0624H31.7353V84.7074H30.304V86.8149C30.304 87.4599 30.6343 87.6331 31.1376 87.6331C31.405 87.6331 31.5938 87.6016 31.7511 87.5386V88.1521C31.5623 88.2309 31.3421 88.2616 31.0433 88.2616C30.131 88.2616 29.612 87.8056 29.612 86.7991V84.7074H29.5962ZM33.3082 87.1764C33.3082 86.5321 33.78 86.0754 34.6608 85.9501L36.045 85.7139V85.4311C36.045 84.8649 35.6361 84.5341 35.0541 84.5341C34.5665 84.5341 34.1733 84.7389 33.9373 85.1004L33.4183 84.6916C33.78 84.2041 34.362 83.9049 35.0856 83.9049C36.1236 83.9049 36.7528 84.5184 36.7528 85.4311V88.1994H36.0607V87.6804C35.7462 88.1206 35.2271 88.3719 34.6766 88.3719C33.8587 88.3561 33.3082 87.8844 33.3082 87.1764ZM34.7867 87.7741C35.3372 87.7741 35.7618 87.4914 36.0607 87.0196V86.2329L34.8339 86.4376C34.2676 86.5321 34.0002 86.7834 34.0002 87.1449C34.0002 87.5071 34.2991 87.7741 34.7867 87.7741ZM38.8919 84.0624H39.5839V84.5341C39.9142 84.1726 40.3389 83.9049 40.9524 83.9049C41.8803 83.9049 42.5724 84.5184 42.5724 85.6981V88.1994H41.8646V85.7296C41.8646 84.9901 41.4557 84.5656 40.8108 84.5656C40.2131 84.5656 39.8356 84.9121 39.5839 85.3366V88.1836H38.8919V84.0624ZM47.7629 87.0826C47.5112 87.4441 47.1023 87.6954 46.599 87.6954C45.7024 87.6954 45.0732 87.0039 45.0732 86.1226C45.0732 85.2421 45.7024 84.5499 46.5832 84.5499C47.0865 84.5499 47.5112 84.8019 47.7629 85.1634L48.3134 84.7389C47.9359 84.2199 47.3225 83.8891 46.5832 83.8891C45.2148 83.8891 44.334 84.9121 44.334 86.1069C44.334 87.3024 45.2148 88.3246 46.5832 88.3246C47.3382 88.3246 47.9359 87.9946 48.3134 87.4756L47.7629 87.0826ZM51.7422 88.3561C50.3424 88.3561 49.493 87.3339 49.493 86.1384C49.493 84.8806 50.2952 83.9206 51.5692 83.9206C52.686 83.9206 53.4252 84.6759 53.4252 85.7139C53.4252 85.8714 53.3937 86.0439 53.378 86.1541H50.2165V86.1699C50.2165 87.0826 50.8299 87.7426 51.758 87.7426C52.277 87.7426 52.7174 87.4914 53.0005 87.1299L53.5196 87.5386C53.1264 88.0261 52.5287 88.3561 51.7422 88.3561ZM50.2794 85.5879H52.7331C52.7017 84.9901 52.277 84.5026 51.6006 84.5026C50.9244 84.5026 50.4367 84.8806 50.2794 85.5879ZM60.1885 88.3561C58.7887 88.3561 57.9393 87.3339 57.9393 86.1384C57.9393 84.8806 58.7415 83.9206 60.0155 83.9206C61.1322 83.9206 61.8558 84.6759 61.8558 85.7139C61.8558 85.8714 61.8243 86.0439 61.8086 86.1541H58.6471V86.1699C58.6471 87.0826 59.2605 87.7426 60.1885 87.7426C60.7076 87.7426 61.148 87.4914 61.4311 87.1299L61.9501 87.5386C61.5726 88.0261 60.9435 88.3561 60.1885 88.3561ZM58.71 85.5879H61.148C61.1166 84.9901 60.6918 84.5026 60.0155 84.5026C59.3392 84.5026 58.8673 84.8806 58.71 85.5879ZM63.9792 84.7074H63.2085V84.0624H63.9792V83.0244H64.6869V84.0624H66.1182V84.7074H64.6869V86.8149C64.6869 87.4599 65.0172 87.6331 65.5048 87.6331C65.7722 87.6331 65.961 87.6016 66.1182 87.5386V88.1521C65.9138 88.2309 65.6936 88.2616 65.4105 88.2616C64.4982 88.2616 63.9792 87.8056 63.9792 86.7991V84.7074ZM70.8683 84.0624H71.5604V84.5184C71.9379 84.1096 72.4254 83.8891 73.0232 83.8891C74.3129 83.8891 75.1467 84.9121 75.1467 86.1069C75.1467 87.3024 74.3286 88.3404 73.0232 88.3404C72.4254 88.3404 71.9379 88.1206 71.5604 87.7111V90.1809H70.8683V84.0624ZM72.9445 87.6954C73.8253 87.6954 74.423 87.0039 74.423 86.1226C74.423 85.2421 73.8253 84.5499 72.9445 84.5499C72.3783 84.5499 71.8749 84.8334 71.5604 85.3366V86.9094C71.8749 87.4126 72.3625 87.6954 72.9445 87.6954ZM77.0022 84.0624H77.6945V84.5814C77.9937 84.2199 78.371 83.9836 78.89 83.9836C79.016 83.9836 79.142 83.9994 79.2515 84.0309V84.7546C79.1262 84.7231 79.0002 84.6916 78.8427 84.6916C78.308 84.6916 77.9465 84.9744 77.6945 85.3839V88.1836H77.0022V84.0624ZM82.6647 88.3561C81.281 88.3561 80.4155 87.3339 80.4155 86.1384C80.4155 84.8806 81.218 83.9206 82.4915 83.9206C83.6082 83.9206 84.3477 84.6759 84.3477 85.7139C84.3477 85.8714 84.332 86.0439 84.3005 86.1541H81.1392V86.1699C81.1392 87.0826 81.7527 87.7426 82.6805 87.7426C83.1995 87.7426 83.6397 87.4914 83.9232 87.1299L84.4422 87.5386C84.065 88.0261 83.4357 88.3561 82.6647 88.3561ZM81.2022 85.5879H83.6555C83.6397 84.9901 83.1995 84.5026 82.523 84.5026C81.8472 84.5026 81.3597 84.8806 81.2022 85.5879ZM82.193 83.4016L83.042 82.0494H83.8287L82.8695 83.4016H82.193ZM86.3142 84.0624L87.635 87.4599L88.9565 84.0624H89.711L88.091 88.1836H87.179L85.559 84.0624H86.3142ZM93.1085 88.3561C91.7247 88.3561 90.8592 87.3339 90.8592 86.1384C90.8592 84.8806 91.6617 83.9206 92.936 83.9206C94.0527 83.9206 94.7757 84.6759 94.7757 85.7139C94.7757 85.8714 94.76 86.0439 94.7285 86.1541H91.5672V86.1699C91.5672 87.0826 92.1807 87.7426 93.1085 87.7426C93.6275 87.7426 94.0685 87.4914 94.3512 87.1299L94.8702 87.5386C94.493 88.0261 93.8952 88.3561 93.1085 88.3561ZM91.646 85.5879H94.0992C94.0842 84.9901 93.6432 84.5026 92.9675 84.5026C92.291 84.5026 91.8035 84.8806 91.646 85.5879ZM96.7107 84.0624H97.418V84.5341C97.7487 84.1726 98.1732 83.9049 98.7867 83.9049C99.7145 83.9049 100.391 84.5184 100.391 85.6981V88.1994H99.683V85.7296C99.683 84.9901 99.2742 84.5656 98.6292 84.5656C98.0315 84.5656 97.6542 84.9121 97.403 85.3366V88.1836H96.7107V84.0624ZM102.75 84.7074H101.979V84.0624H102.75V83.0244H103.458V84.0624H104.889V84.7074H103.458V86.8149C103.458 87.4599 103.788 87.6331 104.292 87.6331C104.559 87.6331 104.748 87.6016 104.905 87.5386V88.1521C104.716 88.2309 104.481 88.2616 104.197 88.2616C103.285 88.2616 102.766 87.8056 102.766 86.7991V84.7074H102.75ZM106.557 82.5054C106.557 82.2376 106.777 82.0179 107.044 82.0179C107.312 82.0179 107.532 82.2376 107.532 82.5054C107.532 82.7724 107.312 82.9929 107.044 82.9929C106.777 82.9929 106.557 82.7724 106.557 82.5054ZM106.698 84.0624H107.39V88.1836H106.698V84.0624ZM113.713 86.1226C113.713 87.3181 112.801 88.3404 111.48 88.3404C110.159 88.3404 109.246 87.3181 109.246 86.1226C109.246 84.9271 110.143 83.9049 111.48 83.9049C112.817 83.9049 113.713 84.9271 113.713 86.1226ZM112.974 86.1226C112.974 85.2579 112.345 84.5499 111.48 84.5499C110.615 84.5499 109.97 85.2579 109.97 86.1226C109.97 86.9881 110.599 87.6954 111.48 87.6954C112.361 87.6954 112.974 86.9724 112.974 86.1226ZM115.569 84.0624H116.261V84.5341C116.592 84.1726 117.016 83.9049 117.645 83.9049C118.573 83.9049 119.25 84.5184 119.25 85.6981V88.1994H118.542V85.7296C118.542 84.9901 118.133 84.5656 117.504 84.5656C116.874 84.5656 116.529 84.9121 116.277 85.3366V88.1836H115.569V84.0624ZM8.53549 98.3439C7.13564 98.3439 6.2863 97.3216 6.2863 96.1261C6.2863 94.8684 7.08846 93.9084 8.36246 93.9084C9.47921 93.9084 10.2027 94.6636 10.2027 95.7016C10.2027 95.8591 10.187 96.0316 10.1556 96.1419H7.00982V96.1576C7.00982 97.0704 7.62326 97.7304 8.55124 97.7304C9.07031 97.7304 9.51071 97.4791 9.79376 97.1169L10.3128 97.5264C9.91961 98.0139 9.30619 98.3439 8.53549 98.3439ZM7.07273 95.5756H9.52639C9.51071 94.9779 9.07031 94.4904 8.39396 94.4904C7.71761 94.4904 7.23002 94.8684 7.07273 95.5756ZM12.1374 94.0659H12.8295V94.5376C13.1598 94.1761 13.5844 93.9084 14.2136 93.9084C15.1416 93.9084 15.8179 94.5219 15.8179 95.7016V98.2029H15.1101V95.7174C15.1101 94.9779 14.7012 94.5534 14.0562 94.5534C13.4586 94.5534 13.0811 94.8991 12.8295 95.3244V98.1714H12.1374V94.0659ZM20.9454 97.1956C21.2286 97.5579 21.5746 97.7619 21.9993 97.7619C22.4554 97.7619 22.7228 97.4791 22.7228 97.1169C22.7228 96.1891 20.7095 96.5356 20.7095 95.0566C20.7095 94.3959 21.26 93.8926 22.0307 93.8926C22.6441 93.8926 23.1474 94.1604 23.4306 94.5691L22.943 94.9779C22.707 94.6479 22.4082 94.4589 22.0307 94.4589C21.606 94.4589 21.3701 94.6951 21.3701 95.0251C21.3701 95.9694 23.3834 95.6386 23.3834 97.0861C23.3834 97.8564 22.77 98.3281 21.9835 98.3281C21.3229 98.3281 20.8196 98.0611 20.4421 97.6051L20.9454 97.1956ZM27.0954 98.3439C25.7112 98.3439 24.8462 97.3216 24.8462 96.1261C24.8462 94.8684 25.6483 93.9084 26.9223 93.9084C28.0391 93.9084 28.7626 94.6636 28.7626 95.7016C28.7626 95.8591 28.7311 96.0316 28.7154 96.1419H25.5697V96.1576C25.5697 97.0704 26.1831 97.7304 27.1111 97.7304C27.6301 97.7304 28.0705 97.4791 28.338 97.1169L28.857 97.5264C28.4795 98.0139 27.8661 98.3439 27.0954 98.3439ZM25.6326 95.5756H28.0863C28.0548 94.9779 27.6301 94.4904 26.9381 94.4904C26.246 94.4904 25.7899 94.8684 25.6326 95.5756ZM26.6235 93.4051L27.4728 92.0529H28.2593L27.2998 93.4051H26.6235ZM33.7486 97.0861C33.4969 97.4476 33.088 97.6989 32.5847 97.6989C31.6881 97.6989 31.059 97.0074 31.059 96.1261C31.059 95.2456 31.6881 94.5534 32.5689 94.5534C33.0723 94.5534 33.4969 94.8054 33.7486 95.1669L34.2991 94.7424C33.9216 94.2234 33.3082 93.8926 32.5689 93.8926C31.2006 93.8926 30.3198 94.9149 30.3198 96.1104C30.3198 97.3059 31.2006 98.3281 32.5689 98.3281C33.324 98.3281 33.9216 97.9981 34.2991 97.4791L33.7486 97.0861ZM38.8447 94.0659H39.5525V96.3939C39.5525 97.6209 38.8447 98.3596 37.728 98.3596C36.6112 98.3596 35.9034 97.6366 35.9034 96.3939V94.0659H36.5955V96.4254C36.5955 97.2271 37.0202 97.6989 37.728 97.6989C38.4357 97.6989 38.8447 97.2271 38.8447 96.4254V94.0659ZM41.6601 94.0659H42.3522V94.5849C42.651 94.2234 43.0285 93.9871 43.5476 93.9871C43.6734 93.9871 43.7992 94.0029 43.8936 94.0344V94.7581C43.7678 94.7266 43.6419 94.6951 43.4847 94.6951C42.9499 94.6951 42.5881 94.9779 42.3365 95.3874V98.1871H41.6444V94.0659H41.6601ZM45.5136 92.4931C45.5136 92.2254 45.7338 92.0056 46.0013 92.0056C46.2687 92.0056 46.4889 92.2254 46.4889 92.4931C46.4889 92.7601 46.2687 92.9806 46.0013 92.9806C45.7338 92.9806 45.5136 92.7601 45.5136 92.4931ZM45.6552 94.0659H46.3473V98.1871H45.6552V94.0659ZM48.7852 94.6951H48.0145V94.0501H48.7852V93.0121H49.493V94.0501H50.9244V94.6951H49.493V96.8026C49.493 97.4476 49.8234 97.6209 50.3109 97.6209C50.5783 97.6209 50.767 97.5894 50.9244 97.5264V98.1399C50.7356 98.2179 50.4996 98.2494 50.2165 98.2494C49.3043 98.2494 48.7852 97.7934 48.7852 96.7869V94.6951ZM54.5419 98.3439C53.1421 98.3439 52.2927 97.3216 52.2927 96.1261C52.2927 94.8684 53.0949 93.9084 54.3689 93.9084C55.4856 93.9084 56.2092 94.6636 56.2092 95.7016C56.2092 95.8591 56.1934 96.0316 56.162 96.1419H53.0005V96.1576C53.0005 97.0704 53.6139 97.7304 54.5419 97.7304C55.061 97.7304 55.5014 97.4791 55.7688 97.1169L56.2878 97.5264C55.926 98.0139 55.3126 98.3439 54.5419 98.3439ZM53.0634 95.5756H55.5171C55.5014 94.9779 55.061 94.4904 54.3846 94.4904C53.7083 94.4904 53.2207 94.8684 53.0634 95.5756ZM54.0543 93.4051L54.9037 92.0529H55.6902L54.7307 93.4051H54.0543ZM61.0693 94.0659H61.7614V94.5376C62.0917 94.1761 62.5164 93.9084 63.1298 93.9084C64.0578 93.9084 64.7341 94.5219 64.7341 95.7016V98.2029H64.0263V95.7174C64.0263 94.9779 63.6174 94.5534 62.9883 94.5534C62.3591 94.5534 62.013 94.8991 61.7457 95.3244V98.1714H61.0536V94.0659H61.0693ZM69.7516 94.0659H70.4594V96.3939C70.4594 97.6209 69.7516 98.3596 68.6349 98.3596C67.5181 98.3596 66.8103 97.6366 66.8103 96.3939V94.0659H67.5024V96.4254C67.5024 97.2271 67.9428 97.6989 68.6349 97.6989C69.3269 97.6989 69.7516 97.2271 69.7516 96.4254V94.0659ZM72.567 94.0659H73.2591V94.5219C73.5737 94.1604 73.9826 93.9084 74.5488 93.9084C75.1467 93.9084 75.65 94.1919 75.9012 94.7424C76.232 94.2706 76.6722 93.9084 77.3645 93.9084C78.245 93.9084 78.89 94.5061 78.89 95.6229V98.2029H78.1977V95.6544C78.1977 94.9621 77.8205 94.5691 77.2227 94.5691C76.7037 94.5691 76.3422 94.8684 76.0587 95.3559C76.0745 95.4496 76.0745 95.5441 76.0745 95.6229V98.2029H75.3665V95.6544C75.3665 94.9621 75.005 94.5691 74.4073 94.5691C73.8411 94.5691 73.495 94.9149 73.2591 95.3401V98.1871H72.567V94.0659ZM82.9325 98.3439C81.548 98.3439 80.6832 97.3216 80.6832 96.1261C80.6832 94.8684 81.485 93.9084 82.7592 93.9084C83.876 93.9084 84.5997 94.6636 84.5997 95.7016C84.5997 95.8591 84.584 96.0316 84.5525 96.1419H81.3905V96.1576C81.3905 97.0704 82.004 97.7304 82.9325 97.7304C83.4515 97.7304 83.8917 97.4791 84.1745 97.1169L84.6935 97.5264C84.3005 98.0139 83.687 98.3439 82.9325 98.3439ZM81.4535 95.5756H83.8917C83.876 94.9779 83.4357 94.4904 82.7592 94.4904C82.0827 94.4904 81.611 94.8684 81.4535 95.5756ZM82.445 93.4051L83.294 92.0529H84.0807L83.1207 93.4051H82.445ZM86.5182 94.0659H87.2105V94.5849C87.509 94.2234 87.887 93.9871 88.406 93.9871C88.532 93.9871 88.6572 94.0029 88.7675 94.0344V94.7581C88.6415 94.7266 88.5162 94.6951 88.3587 94.6951C87.824 94.6951 87.4617 94.9779 87.2105 95.3874V98.1871H86.5182V94.0659ZM90.356 92.4931C90.356 92.2254 90.5765 92.0056 90.8435 92.0056C91.1112 92.0056 91.331 92.2254 91.331 92.4931C91.331 92.7601 91.1112 92.9806 90.8435 92.9806C90.5765 92.9806 90.356 92.7601 90.356 92.4931ZM90.4977 94.0659H91.19V98.1871H90.4977V94.0659ZM95.1695 93.8926C95.7822 93.8926 96.2705 94.1289 96.632 94.5219V94.0501H97.3242V100.184H96.632V97.6989C96.2705 98.1084 95.7665 98.3281 95.1695 98.3281C93.8795 98.3281 93.0455 97.3059 93.0455 96.0946C93.0455 94.8841 93.8795 93.8926 95.1695 93.8926ZM95.2475 97.6831C95.8295 97.6831 96.317 97.4161 96.6477 96.8971V95.3244C96.3327 94.8211 95.8452 94.5376 95.2475 94.5376C94.3827 94.5376 93.785 95.2299 93.785 96.1104C93.785 96.9916 94.3827 97.6831 95.2475 97.6831ZM102.404 94.0659H103.112V96.3939C103.112 97.6209 102.404 98.3596 101.288 98.3596C100.171 98.3596 99.4632 97.6366 99.4632 96.3939V94.0659H100.155V96.4254C100.155 97.2271 100.58 97.6989 101.288 97.6989C101.995 97.6989 102.404 97.2271 102.404 96.4254V94.0659ZM107.107 98.3439C105.723 98.3439 104.858 97.3216 104.858 96.1261C104.858 94.8684 105.66 93.9084 106.934 93.9084C108.051 93.9084 108.774 94.6636 108.774 95.7016C108.774 95.8591 108.759 96.0316 108.727 96.1419H105.566V96.1576C105.566 97.0704 106.179 97.7304 107.107 97.7304C107.626 97.7304 108.066 97.4791 108.334 97.1169L108.853 97.5264C108.492 98.0139 107.878 98.3439 107.107 98.3439ZM105.629 95.5756H108.082C108.051 94.9779 107.626 94.4904 106.95 94.4904C106.274 94.4904 105.801 94.8684 105.629 95.5756Z" fill="black"/>
</g>
</g>
<defs>
<clipPath id="clip0_2591_11494">
<rect width="120" height="120" fill="white" transform="translate(0 0.556641)"/>
</clipPath>
</defs>
</svg>
