<svg width="280" height="121" viewBox="0 0 280 121" fill="none" xmlns="http://www.w3.org/2000/svg">
<g clip-path="url(#clip0_2591_11508)">
<path d="M26.6646 19.376H0V29.0722H26.6646V19.376Z" fill="white"/>
<path d="M8.61035 27.9006C8.61358 27.9006 8.61682 27.8958 8.61682 27.8958C8.64251 27.8767 8.66829 27.853 8.69083 27.8244C8.6876 27.8244 8.68437 27.8244 8.68113 27.8198C8.65859 27.8435 8.6329 27.872 8.61035 27.9006Z" fill="#000091"/>
<path d="M12.1764 26.699L12.1201 26.7475C12.1524 26.7394 12.1764 26.7313 12.1764 26.699Z" fill="#000091"/>
<path fill-rule="evenodd" clip-rule="evenodd" d="M11.0235 27.9262C11.1267 27.8224 11.2301 27.7121 11.3333 27.5988H11.3302C11.5243 27.3784 11.7121 27.1675 11.9374 26.9755C12.0063 26.9125 12.072 26.859 12.1346 26.8149C12.1438 26.8057 12.1485 26.7919 12.1531 26.7784C12.1578 26.7643 12.1625 26.7506 12.1721 26.7425C12.1275 26.7596 12.092 26.7865 12.0562 26.8135C12.0192 26.8416 11.982 26.8697 11.9343 26.8873C11.9155 26.8873 11.8967 26.8685 11.9155 26.8496C11.9812 26.8023 12.0469 26.752 12.1095 26.7016H12.097C12.0783 26.7016 12.0783 26.6827 12.0783 26.6638C11.8452 26.6268 11.6662 26.7861 11.5061 26.9288L11.4961 26.9377C11.4711 26.9503 11.4476 26.9378 11.4291 26.928C11.4197 26.9231 11.4116 26.9188 11.4053 26.9188C11.2636 26.9663 11.1414 27.0539 11.0183 27.1422C10.9049 27.2234 10.7909 27.3051 10.6604 27.3564V27.3186C10.6161 27.3339 10.5723 27.3539 10.5283 27.3738C10.4637 27.4032 10.3989 27.4327 10.3317 27.4477C10.2092 27.4761 10.0956 27.4725 9.98549 27.4689C9.94937 27.4677 9.91349 27.4666 9.87794 27.4666C9.67747 27.4865 9.47959 27.5294 9.28187 27.5723L9.21755 27.5862C9.2144 27.5878 9.21125 27.5886 9.20809 27.5894C9.20502 27.5901 9.20187 27.5909 9.19872 27.5926C9.07978 27.624 8.97029 27.6681 8.86073 27.731L8.8482 27.7373C8.84392 27.7431 8.83956 27.7482 8.8356 27.7529C8.83083 27.7586 8.82655 27.7637 8.82315 27.7688C8.78558 27.8129 8.75116 27.8506 8.69799 27.879C8.61937 27.9185 8.55142 27.9794 8.48459 28.0395C8.45567 28.0654 8.42682 28.0913 8.39749 28.1151C8.39127 28.1214 8.37874 28.1246 8.36929 28.1246C8.27233 28.219 8.17529 28.3135 8.07509 28.4047C8.06887 28.411 8.04067 28.4141 8.01877 28.411C8.01877 28.411 8.02192 28.411 8.02192 28.4078L8.0313 28.389L8.07824 28.3135C8.08762 28.2992 8.09626 28.2851 8.10483 28.271C8.11347 28.2567 8.12204 28.2426 8.13141 28.2285C8.15646 28.1906 8.18159 28.1528 8.20971 28.1182C8.21593 28.1088 8.21593 28.0993 8.20971 28.093C8.2034 28.0867 8.19403 28.0836 8.18466 28.0836C8.2754 27.9955 8.38181 27.9199 8.49138 27.8538V27.8506C8.47886 27.8538 8.46011 27.8443 8.46948 27.8318C8.4787 27.8203 8.48613 27.807 8.49324 27.7946L8.50076 27.7814C8.50237 27.7782 8.5031 27.7759 8.50391 27.7735C8.50471 27.7712 8.50544 27.7688 8.50706 27.7656C8.50544 27.7625 8.5031 27.7601 8.50076 27.7578C8.49841 27.7554 8.49607 27.7531 8.49453 27.75L8.47554 27.7625C8.45284 27.7773 8.42957 27.7925 8.41001 27.8097C8.3962 27.8216 8.38327 27.8379 8.3701 27.8547C8.34133 27.891 8.31103 27.9293 8.26603 27.9293C8.26287 27.9293 8.24728 27.9293 8.23791 27.9262C8.22845 27.9262 8.22223 27.923 8.21908 27.9199L8.21948 27.9171C8.21948 27.9171 8.22062 27.9167 8.22223 27.9167C8.22223 27.9167 8.22538 27.9137 8.22538 27.9105C8.22538 27.9105 8.22538 27.9074 8.22845 27.9074C8.23007 27.9042 8.2316 27.9018 8.23314 27.8994C8.23476 27.8971 8.23629 27.8948 8.23791 27.8916C8.23944 27.8884 8.24098 27.8861 8.24259 27.8837C8.24413 27.8813 8.24566 27.879 8.24728 27.8758C8.24882 27.8743 8.24962 27.8719 8.25035 27.8695C8.25116 27.8672 8.25197 27.8649 8.2535 27.8632L8.25706 27.8568C8.26013 27.8512 8.26384 27.8447 8.26603 27.838C8.26756 27.835 8.26918 27.8325 8.27071 27.8302C8.27233 27.8278 8.27386 27.8255 8.2754 27.8224C8.28009 27.816 8.28404 27.8089 8.28792 27.8018C8.29188 27.7948 8.29576 27.7877 8.30045 27.7814C8.3036 27.7751 8.30675 27.7688 8.31297 27.7625C8.31612 27.7562 8.31927 27.7507 8.32234 27.7452C8.3255 27.7397 8.32865 27.7342 8.3318 27.7279C8.34117 27.7121 8.3318 27.6995 8.31927 27.6964C8.3537 27.6523 8.39434 27.6145 8.44444 27.5862H8.43821C8.48136 27.5645 8.5258 27.5391 8.57 27.5138C8.59602 27.4988 8.62236 27.4837 8.6479 27.4697C8.65727 27.4603 8.66664 27.4508 8.67917 27.4445C8.5759 27.4792 8.48201 27.5264 8.39127 27.5894C8.39127 27.5894 8.36622 27.5988 8.35992 27.6051C8.35992 27.6051 8.34117 27.6114 8.31612 27.5894C8.31297 27.5862 8.31297 27.5831 8.31297 27.5768C8.32388 27.5549 8.34626 27.5404 8.37058 27.5248C8.3882 27.5134 8.4067 27.5014 8.42254 27.4855C8.44129 27.4855 8.45696 27.4855 8.45696 27.5044C8.81742 27.2218 9.26191 27.1563 9.70785 27.0907C9.98218 27.0504 10.2571 27.01 10.5133 26.9188C10.5399 26.8999 10.5673 26.8818 10.5947 26.8637C10.622 26.8456 10.6494 26.8275 10.676 26.8086C10.7217 26.7896 10.7626 26.7571 10.8059 26.7226C10.8487 26.6886 10.8939 26.6527 10.9483 26.6261C11.0923 26.5159 11.2019 26.39 11.2582 26.2042C11.2582 26.1853 11.2395 26.1664 11.2395 26.1664C11.0016 26.4214 10.7293 26.6229 10.4381 26.7709C10.1606 26.9173 9.86324 26.939 9.56879 26.9605C9.45818 26.9686 9.34796 26.9766 9.23944 26.9912C9.25819 26.9534 9.29576 26.9535 9.33019 26.9535C9.33019 26.9087 9.3516 26.8895 9.37907 26.8649C9.38642 26.8582 9.39426 26.8513 9.40218 26.8433H9.45543C9.4648 26.8433 9.46949 26.8338 9.47417 26.8244C9.47886 26.8149 9.48355 26.8055 9.49292 26.8055C9.53049 26.8055 9.58374 26.7866 9.56491 26.7866C9.53623 26.7497 9.49454 26.7643 9.44848 26.7804C9.4042 26.7959 9.35596 26.8128 9.31144 26.7866C9.328 26.7685 9.33293 26.7466 9.33746 26.7268C9.34239 26.7053 9.34675 26.6862 9.36461 26.6764H9.4366C9.4366 26.6386 9.47417 26.604 9.47417 26.604C9.63739 26.5058 9.79504 26.4202 9.94969 26.3361C10.053 26.2799 10.1552 26.2244 10.2567 26.1664C10.2361 26.1664 10.2179 26.1749 10.2003 26.183C10.1721 26.1961 10.1453 26.2085 10.1127 26.1853C10.1314 26.1853 10.1314 26.172 10.1314 26.1586C10.1314 26.1451 10.1314 26.1318 10.1502 26.1318C10.2676 26.1005 10.3721 26.0496 10.4789 25.9977C10.5543 25.961 10.6307 25.9238 10.7136 25.8926C10.689 25.8926 10.6662 25.8992 10.644 25.9057C10.6013 25.918 10.5607 25.9298 10.5133 25.8926C10.5257 25.8863 10.5357 25.8783 10.5457 25.8704C10.5656 25.8545 10.5852 25.839 10.6229 25.839V25.7855C10.6229 25.7666 10.6416 25.7666 10.6604 25.7666C10.6416 25.7666 10.6229 25.7478 10.6229 25.7478C10.6328 25.7277 10.6523 25.7236 10.6742 25.719C10.6936 25.715 10.7147 25.7105 10.7324 25.6942C10.7136 25.6942 10.6792 25.6942 10.6792 25.6753C10.7324 25.6029 10.8232 25.5841 10.9139 25.5652C10.9045 25.5462 10.8865 25.5462 10.8709 25.5462C10.8552 25.5462 10.8419 25.5462 10.8419 25.5273C10.8419 25.5085 10.8607 25.5085 10.8795 25.5085H10.8419C10.8125 25.4936 10.8177 25.4672 10.8213 25.4489C10.8223 25.4439 10.8232 25.4394 10.8232 25.436C10.8967 25.3494 10.9209 25.2472 10.9449 25.1455C10.9566 25.0958 10.9684 25.0461 10.9859 24.9985C10.9671 24.9985 10.9483 24.9985 10.9483 24.9796C10.7723 25.1749 10.4934 25.2489 10.2285 25.3193L10.2034 25.3259H10.1127C10.0219 25.3636 9.89362 25.3636 9.8028 25.307C9.75965 25.2844 9.72886 25.256 9.69565 25.2255C9.67343 25.205 9.65008 25.1836 9.62132 25.1622C9.47418 25.0709 9.33019 24.9985 9.16745 24.9418C8.71359 24.797 8.24098 24.7214 7.76837 24.7403C7.9004 24.6678 8.04051 24.6388 8.18248 24.6096C8.25601 24.5945 8.3301 24.5792 8.40371 24.5577C8.45025 24.5441 8.49631 24.5299 8.54204 24.5159C8.80166 24.4363 9.05352 24.3591 9.33019 24.3752C9.29399 24.3623 9.24761 24.3669 9.20494 24.3712C9.1849 24.3732 9.16567 24.3752 9.1487 24.3752C8.93943 24.3596 8.72813 24.4061 8.50762 24.4548C8.46092 24.465 8.41381 24.4755 8.36622 24.4853C8.27984 24.5033 8.19775 24.5291 8.11549 24.555C8.02483 24.5835 7.93401 24.612 7.83721 24.6301C7.79527 24.6447 7.7615 24.6693 7.72869 24.6933C7.67585 24.7319 7.62527 24.7689 7.54616 24.7592V24.7026C7.72772 24.4822 7.94678 24.265 8.23791 24.2461C8.51926 24.2002 8.78453 24.2329 9.06128 24.2669C9.10782 24.2726 9.1546 24.2785 9.20187 24.2839C9.42876 24.3021 9.64103 24.3527 9.86978 24.4073L9.89362 24.4129C9.94363 24.4129 9.97183 24.457 9.99906 24.4997C10.0213 24.5344 10.0429 24.5681 10.0751 24.5766C10.1197 24.592 10.1642 24.5949 10.2088 24.5977C10.2738 24.6019 10.3388 24.6061 10.4037 24.649C10.4037 24.6363 10.4016 24.624 10.3995 24.6118C10.3954 24.5876 10.3913 24.5639 10.4037 24.5389C10.4441 24.4982 10.4904 24.5092 10.536 24.5199C10.5716 24.5282 10.6069 24.5365 10.6385 24.52C10.7378 24.4584 10.6447 24.3638 10.5515 24.2692C10.5066 24.2235 10.4616 24.1779 10.4381 24.1359C10.4381 24.117 10.457 24.0981 10.457 24.0981C10.4981 24.135 10.5364 24.1731 10.5743 24.2109C10.6693 24.3055 10.7623 24.3981 10.892 24.4633C10.9827 24.5011 11.2019 24.5546 11.1643 24.4444C11.1 24.3017 10.9902 24.1779 10.8793 24.053C10.8337 24.0016 10.7878 23.9499 10.7449 23.8967V23.8243C10.7163 23.8243 10.7096 23.8134 10.701 23.7998C10.6983 23.7955 10.6955 23.791 10.6917 23.7865V23.7141C10.6458 23.69 10.6355 23.6518 10.6252 23.6135C10.6193 23.5917 10.6134 23.5698 10.601 23.5504C10.5695 23.4995 10.5673 23.437 10.565 23.3724C10.5631 23.3211 10.5612 23.2686 10.5446 23.2198C10.5071 23.1096 10.4914 23.0184 10.4726 22.9081C10.4522 22.7954 10.4298 22.6876 10.4078 22.5821C10.3691 22.3959 10.3318 22.2167 10.3098 22.0298C10.2809 21.7627 10.4158 21.5369 10.5537 21.3059C10.5946 21.2374 10.6357 21.1686 10.6729 21.098C10.8013 20.8776 10.9453 20.6604 11.1831 20.5125C11.235 20.2975 11.3762 20.1185 11.5167 19.9404L11.5273 19.9269C11.6661 19.754 11.8977 19.6484 12.0683 19.5705L12.0876 19.5617C12.3412 19.4484 12.5696 19.376 12.5728 19.376H0V29.069H8.9202C9.15872 28.896 9.39588 28.7869 9.67804 28.657C9.80684 28.5978 9.94501 28.5342 10.097 28.4583C10.1292 28.442 10.1675 28.4232 10.2099 28.4023C10.4646 28.277 10.8706 28.0773 11.0235 27.9262ZM8.19298 26.6185C8.15759 26.622 8.1201 26.6258 8.13424 26.5974C8.14741 26.5336 8.21262 26.5146 8.27637 26.4959C8.3036 26.4879 8.33067 26.48 8.35313 26.4687L8.36339 26.4634L8.37091 26.4594C8.40622 26.4406 8.44945 26.4177 8.48136 26.431C8.50286 26.4616 8.52952 26.4696 8.55538 26.4772C8.57469 26.4829 8.59352 26.4885 8.60951 26.5033C8.54188 26.5711 8.46294 26.5778 8.38295 26.5846C8.32978 26.5891 8.27613 26.5937 8.2249 26.6162C8.21577 26.6162 8.20446 26.6174 8.19298 26.6185ZM5.4239 26.1758C5.4239 26.1947 5.44273 26.2136 5.44273 26.2136C5.88092 25.7193 6.27838 25.2975 6.84173 24.948C6.85684 24.9417 6.85127 24.9496 6.84375 24.9601C6.83268 24.9757 6.81749 24.9971 6.86056 24.9858C7.04705 24.9433 7.13084 24.7835 7.21229 24.6281C7.23338 24.5879 7.25431 24.5479 7.27685 24.5104C7.36226 24.3714 7.4837 24.2823 7.60604 24.1927C7.69419 24.1279 7.78291 24.0628 7.85895 23.9784C7.85895 23.9973 7.85895 24.0162 7.8402 24.0351C7.85895 24.054 7.87777 24.054 7.89652 24.054C7.92957 24.029 7.9656 24.0188 8.00019 24.0088C8.04422 23.9962 8.08584 23.9843 8.11565 23.9438C7.97166 23.8871 7.78703 23.8682 7.64304 23.9249C7.26117 24.1075 6.9357 24.4002 6.62583 24.7308C6.43805 24.9292 6.24396 25.1148 6.00608 25.244C5.84334 25.5714 5.66178 25.8641 5.4239 26.1758ZM6.95195 25.005C6.94217 25.0247 6.93231 25.0349 6.92294 25.0447C6.91445 25.0536 6.90621 25.0622 6.89878 25.0771C6.88003 25.1148 6.86129 25.1304 6.82686 25.1493C6.80812 25.1493 6.78937 25.1493 6.78937 25.1304C6.80812 25.0583 6.86129 24.9861 6.9332 24.9673C6.95195 24.9705 6.95195 24.9893 6.95195 25.005ZM7.75229 27.8007C7.76796 27.7849 7.78671 27.766 7.79608 27.7471C7.81168 27.7094 7.7148 27.7188 7.69912 27.7283C7.68498 27.7397 7.67593 27.7511 7.66502 27.7649L7.66163 27.7692C7.64862 27.7842 7.63335 27.7981 7.61783 27.8122C7.60733 27.8218 7.59666 27.8314 7.58656 27.8416C7.54277 27.8857 7.49905 27.9297 7.45211 27.9707C7.42084 27.999 7.52087 28.0116 7.54277 27.9927C7.56782 27.9739 7.58971 27.9518 7.61161 27.9297C7.61993 27.9297 7.62826 27.9284 7.63383 27.9274L7.63763 27.9268L7.63973 27.9266C7.69161 27.9092 7.73015 27.8731 7.76764 27.838L7.77734 27.829C7.78986 27.8165 7.77419 27.8038 7.75229 27.8007ZM7.46932 27.5959L7.46851 27.5963L7.46819 27.599C7.44896 27.6122 7.42997 27.6256 7.41106 27.639C7.36218 27.6736 7.31353 27.708 7.26158 27.7376C7.21197 27.7655 7.16106 27.7897 7.10967 27.814C7.0801 27.8281 7.05036 27.8422 7.02055 27.8572C7.02055 27.8572 7.02055 27.854 7.01748 27.854C7.01117 27.8446 6.99865 27.8414 6.98612 27.8477C6.91728 27.8855 6.85781 27.9359 6.80464 27.9894C6.79519 27.9957 6.78582 28.0051 6.7796 28.0146L6.7514 28.0429V28.0461C6.73887 28.0587 6.72635 28.0712 6.71075 28.0901C6.70744 28.0934 6.70493 28.0967 6.70259 28.0998C6.69807 28.1057 6.69387 28.1112 6.6857 28.1153C6.67318 28.1216 6.64183 28.1216 6.64498 28.1027V28.0996C6.63561 28.1059 6.62308 28.1122 6.61371 28.1153C6.60902 28.1185 6.60434 28.1208 6.59965 28.1232C6.59488 28.1255 6.5902 28.1279 6.58551 28.1311C6.58236 28.1279 6.57614 28.1279 6.57299 28.1279C6.56992 28.1279 6.56361 28.1279 6.56046 28.1311C6.55319 28.1374 6.54592 28.1433 6.53856 28.1493C6.52394 28.1612 6.5094 28.173 6.49477 28.1877C6.4572 28.2224 6.42277 28.2601 6.38835 28.3011C6.38835 28.3011 6.38835 28.3042 6.3852 28.3042C6.3852 28.3058 6.38367 28.3073 6.38367 28.3073L6.38205 28.3105L6.37583 28.3168C6.37462 28.318 6.37324 28.3203 6.37324 28.3203C6.37227 28.3219 6.37147 28.3231 6.36953 28.3231L6.36646 28.3262C6.36331 28.3325 6.36015 28.3388 6.35393 28.3451C6.35078 28.3483 6.34456 28.3514 6.33826 28.3514C6.3351 28.3483 6.33203 28.3451 6.33203 28.342C6.33042 28.3405 6.32969 28.3388 6.32888 28.3373C6.32807 28.3357 6.32735 28.3342 6.32573 28.3325C6.32258 28.3278 6.32024 28.3231 6.31789 28.3184C6.31555 28.3136 6.31321 28.3089 6.31014 28.3042V28.3011C6.31014 28.2995 6.30933 28.298 6.30852 28.2963C6.30771 28.2948 6.30699 28.2916 6.30699 28.2916L6.3633 28.2255L6.36646 28.2224C6.36953 28.2193 6.37268 28.2153 6.37583 28.2113C6.37898 28.2075 6.38205 28.2035 6.3852 28.2003C6.38989 28.194 6.39538 28.1877 6.40088 28.1814C6.40637 28.1751 6.41179 28.1688 6.41655 28.1625C6.41809 28.1594 6.41962 28.157 6.42124 28.1547C6.42277 28.1523 6.42431 28.1499 6.42593 28.1468C6.44467 28.1216 6.4635 28.0964 6.48224 28.0681V28.0649C6.4854 28.0618 6.48847 28.0587 6.48847 28.0524C6.49792 28.0398 6.50729 28.0272 6.51351 28.0146L6.53234 27.9768V27.9737L6.53541 27.9705C6.53541 27.9689 6.53703 27.9674 6.53703 27.9674L6.53856 27.9642C6.54172 27.9563 6.54487 27.9493 6.54794 27.9422C6.55109 27.9352 6.55424 27.928 6.55739 27.9201V27.917L6.56046 27.9044C6.56208 27.9013 6.5628 27.8981 6.56361 27.895C6.56442 27.8918 6.56515 27.8887 6.56676 27.8855V27.8824C6.5683 27.8776 6.56911 27.8729 6.56991 27.8682C6.57064 27.8635 6.57145 27.8588 6.57299 27.854C6.57299 27.8509 6.57298 27.8446 6.56991 27.8414C6.58866 27.8068 6.61371 27.7753 6.64183 27.7438C6.64183 27.7438 6.63876 27.7446 6.63714 27.7454L6.63448 27.7466L6.63245 27.747C6.61856 27.7558 6.60652 27.7674 6.59432 27.7794C6.58462 27.7888 6.57476 27.7984 6.56361 27.8068C6.54487 27.8226 6.50729 27.7974 6.53234 27.7785C6.54794 27.7659 6.56046 27.7533 6.57299 27.7407C6.57299 27.7407 6.57298 27.7376 6.57614 27.7376C6.58858 27.7263 6.60062 27.7134 6.61266 27.7006C6.63092 27.6811 6.64934 27.6614 6.67003 27.6463C6.69193 27.6305 6.7076 27.6179 6.72635 27.6022C6.7295 27.599 6.73265 27.5959 6.7358 27.5959C6.74824 27.5802 6.76077 27.5644 6.77644 27.5487C6.77644 27.5487 6.7796 27.5487 6.7796 27.5455C6.88706 27.4413 7.03808 27.4045 7.19225 27.367C7.28945 27.3433 7.38795 27.3194 7.47756 27.2779C7.52814 27.2569 7.58454 27.2651 7.6403 27.2734C7.68458 27.2798 7.72845 27.2863 7.76861 27.2779C7.82186 27.2779 7.87818 27.2779 7.93134 27.3157C7.80764 27.3816 7.68951 27.457 7.57267 27.5315C7.53881 27.5531 7.50503 27.5747 7.47126 27.5959L7.46932 27.5959ZM7.86048 26.3129C7.84578 26.3146 7.83632 26.3156 7.8444 26.3238C7.89765 26.3774 8.00722 26.3585 8.08228 26.3176C8.13553 26.2798 8.19185 26.2798 8.26384 26.2798C8.28259 26.2798 8.28259 26.2451 8.28259 26.2263C8.33584 26.2451 8.37341 26.2451 8.42658 26.2451C8.86162 26.1539 9.28106 26.0626 9.68167 25.861C9.27629 25.5479 8.77653 25.4083 8.28703 25.2717C8.20583 25.249 8.12495 25.2264 8.04471 25.2031C8.06241 25.2031 8.08002 25.209 8.09772 25.2149C8.13351 25.2268 8.16979 25.2389 8.20753 25.2031C8.15783 25.1635 8.10256 25.1559 8.04778 25.1485C8.00245 25.1422 7.95752 25.136 7.9164 25.1119C7.92068 25.1119 7.92585 25.1128 7.93134 25.1139C7.95009 25.1175 7.97393 25.1221 7.98839 25.0929C7.89337 25.0451 7.79826 25.0289 7.70227 25.0125C7.6529 25.0041 7.60329 24.9956 7.55335 24.9827C7.64409 24.9638 7.70049 24.8914 7.70049 24.8001C7.70049 24.7813 7.66292 24.7813 7.64409 24.7813C7.42819 24.8914 7.28105 25.0929 7.19031 25.3291C7.27208 25.3772 7.36032 25.3716 7.44678 25.3661C7.4959 25.3631 7.54439 25.36 7.59093 25.3668C7.54988 25.4058 7.49057 25.4164 7.43352 25.4266C7.41227 25.4304 7.39135 25.4341 7.37179 25.4392C7.31547 25.4518 7.26231 25.4928 7.28105 25.5305C7.29358 25.5462 7.3061 25.5525 7.32178 25.5557C7.28105 25.5683 7.24348 25.5872 7.20906 25.6218C7.26061 25.6624 7.3137 25.6545 7.36614 25.6468C7.38698 25.6438 7.40767 25.6407 7.42819 25.6407C7.42819 25.6636 7.44314 25.6713 7.45873 25.6794C7.46681 25.6835 7.47498 25.6878 7.48136 25.6942C7.39062 25.7289 7.31862 25.8044 7.2998 25.8579C7.27742 25.9124 7.23596 25.9479 7.19492 25.983C7.1672 26.0067 7.13973 26.0302 7.11832 26.0594V26.1161C7.0578 26.1696 6.99566 26.2175 6.93441 26.2647C6.80852 26.3617 6.68619 26.4559 6.58939 26.5914C6.60813 26.5914 6.60813 26.6103 6.60813 26.6292C6.59084 26.6553 6.5662 26.6734 6.54285 26.6906C6.51554 26.7107 6.48992 26.7294 6.47982 26.7583C6.47982 26.7772 6.47982 26.7961 6.49857 26.7961C6.61347 26.7581 6.71277 26.6942 6.81022 26.6315C6.89862 26.5747 6.98548 26.5189 7.08074 26.4844C7.15864 26.4657 7.22643 26.4304 7.29261 26.3959C7.34876 26.3666 7.40371 26.338 7.46261 26.3207C7.50794 26.3113 7.55804 26.2979 7.60814 26.2845C7.65823 26.2711 7.70825 26.2577 7.75366 26.2483C7.75366 26.2672 7.75366 26.2861 7.77249 26.2861H7.9164C7.90759 26.3075 7.87963 26.3107 7.86048 26.3129Z" fill="#000091"/>
<path d="M26.6635 19.376H16.2373C16.2373 19.376 16.2562 19.3792 16.335 19.4202C16.4201 19.4643 16.5304 19.5242 16.5966 19.5589C16.7321 19.6282 16.8613 19.7165 16.9464 19.852C16.9843 19.9056 17.0379 20.0159 17.0032 20.0885C16.9654 20.1799 16.9464 20.328 16.855 20.3627C16.7447 20.4194 16.5998 20.4194 16.4705 20.4005C16.398 20.4005 16.3255 20.3816 16.2499 20.3627C16.5241 20.473 16.7825 20.6023 16.9654 20.8576C16.9843 20.8954 17.0568 20.9112 17.1293 20.9112C17.1482 20.9112 17.1482 20.949 17.1482 20.9648C17.1104 21.0026 17.0757 21.0215 17.0946 21.0751H17.1482C17.2396 21.0372 17.2207 20.8544 17.3499 20.9112C17.4413 20.9648 17.4791 21.094 17.4223 21.1854C17.3499 21.2579 17.2774 21.3146 17.2017 21.3682C17.1828 21.4061 17.1828 21.4597 17.2017 21.4975C17.2553 21.57 17.2742 21.6424 17.2931 21.7182C17.3499 21.8474 17.3656 21.9924 17.4223 22.1216C17.4949 22.3958 17.5674 22.6701 17.5516 22.9475C17.5516 23.0925 17.4791 23.2217 17.5327 23.3699C17.5705 23.5149 17.6619 23.6252 17.7344 23.7544C17.8069 23.8648 17.8793 23.9373 17.9361 24.0476C18.0464 24.2304 18.2481 24.4133 18.1567 24.634C18.1032 24.7632 17.9014 24.7443 17.7722 24.8167C17.6619 24.9082 17.7533 25.0563 17.81 25.1477C17.9014 25.3117 17.6997 25.422 17.5705 25.4788C17.6083 25.5355 17.6808 25.5166 17.6997 25.5512C17.7186 25.6426 17.81 25.6962 17.7533 25.7908C17.6808 25.9011 17.4602 25.9547 17.5705 26.1218C17.643 26.2511 17.5957 26.3929 17.5516 26.5253C17.498 26.6892 17.3499 26.7616 17.2207 26.7995C17.1104 26.8374 16.9812 26.8374 16.8739 26.8184C16.8361 26.7995 16.8015 26.7806 16.7636 26.7806C16.4516 26.7427 16.1396 26.6545 15.8307 26.6545C15.7393 26.6734 15.6479 26.6892 15.5754 26.727C15.4934 26.7869 15.4178 26.8531 15.3548 26.9224C15.3548 26.9224 15.3548 26.9224 15.3516 26.9256C15.339 26.9413 15.3233 26.954 15.3107 26.9697C15.3044 26.9792 15.2949 26.9886 15.2886 26.9981C15.2823 27.0044 15.2791 27.0107 15.2728 27.017C15.2193 27.0832 15.172 27.1557 15.1279 27.2282C15.1247 27.2345 15.1216 27.2377 15.1184 27.2408C15.1153 27.2503 15.109 27.2566 15.1027 27.266C15.0427 27.3764 14.9986 27.4898 14.9639 27.6034C14.8379 28.0226 14.8946 28.3819 14.9828 28.4702C15.0081 28.4954 15.588 28.6751 15.9914 28.8547C16.1806 28.9399 16.3129 29.0029 16.4232 29.0723H26.6603V19.376H26.6635Z" fill="#E1000F"/>
<path d="M16.8581 22.911C16.9304 22.9299 17.0405 22.9299 17.0405 22.9677C17.0027 23.1125 16.7858 23.1503 16.6758 23.2982H16.6192C16.5658 23.336 16.5814 23.4273 16.528 23.4273C16.4746 23.4084 16.418 23.4273 16.3646 23.4462C16.4369 23.5186 16.528 23.5753 16.6381 23.5564C16.6569 23.5564 16.6915 23.5941 16.6915 23.6288C16.6915 23.6288 16.7104 23.6288 16.7292 23.6099C16.748 23.6099 16.7669 23.6099 16.7669 23.6288V23.7012C16.7135 23.7736 16.6192 23.739 16.5469 23.7547C16.6946 23.7925 16.8393 23.7925 16.9681 23.7547C17.0781 23.7169 16.9681 23.5343 17.0405 23.443C17.0027 23.443 17.0405 23.3864 17.0027 23.3864C17.0405 23.3486 17.075 23.2951 17.1127 23.2762C17.1504 23.2762 17.2039 23.2573 17.2228 23.2195C17.2228 23.1818 17.1504 23.166 17.1662 23.1282C17.2762 23.0558 17.3674 22.9457 17.3297 22.8355C17.3107 22.7788 17.1662 22.7788 17.075 22.7442C16.9838 22.7095 16.8738 22.7442 16.7638 22.7631C16.6727 22.7631 16.5814 22.8197 16.4903 22.8355C16.3614 22.8732 16.2514 22.9457 16.1445 23.0181C16.2734 22.9645 16.3991 22.9457 16.5469 22.9079C16.6569 22.911 16.748 22.8858 16.8581 22.911Z" fill="#808080"/>
<path d="M1 41.1925V34.4052H2.71623L4.37428 37.2559L6.03234 34.4052H7.74857V41.1925H6.37171V36.325L4.85909 38.8654H3.88947L2.37686 36.325V41.1925H1ZM9.78833 41.1925V34.4052H11.1652V41.1925H9.78833ZM13.2078 41.1925V34.4052H14.9725L18.0074 39.3115V34.4052H19.3843V41.1925H17.6196L14.5846 36.2862V41.1925H13.2078ZM21.428 41.1925V34.4052H22.8049V41.1925H21.428ZM24.2365 40.252L25.2352 39.3308C25.6425 39.8544 26.1854 40.1647 26.7381 40.1647C27.2811 40.1647 27.6108 39.8738 27.6108 39.389C27.6108 38.1382 24.5274 38.4776 24.5274 36.1796C24.5274 35.1033 25.4194 34.2112 26.7187 34.2112C27.7368 34.2112 28.5125 34.667 29.0943 35.3554L28.0859 36.2668C27.6884 35.7529 27.2423 35.4136 26.7284 35.4136C26.2436 35.4136 25.9236 35.7239 25.9236 36.1311C25.9236 37.3625 29.007 37.0134 29.007 39.3405C28.9876 40.6204 27.9986 41.3864 26.7478 41.3864C25.6037 41.3864 24.8377 40.9695 24.2365 40.252ZM29.8507 35.656V34.4052H35.4163V35.656H33.3219V41.1925H31.9451V35.656H29.8507ZM38.1383 33.8234L36.8875 32.5144H38.3031L39.3988 33.8234H38.1383ZM36.7711 41.1925V34.4052H40.7272V35.5493H38.148V37.1589H40.3393V38.303H38.148V40.0484H40.7272V41.1925H36.7711ZM42.4725 41.1925V34.4052H44.5475C46.0407 34.4052 46.9619 35.1712 46.9619 36.4317C46.9619 37.2559 46.5643 37.8667 45.8662 38.1867L47.9896 41.1925H46.3704L44.5572 38.4485H43.8494V41.1925H42.4725ZM44.6251 35.5493H43.8494V37.3043H44.6251C45.2068 37.3043 45.5462 36.965 45.5462 36.4123C45.5462 35.8984 45.2068 35.5493 44.6251 35.5493ZM49.0073 41.1925V34.4052H52.9633V35.5493H50.3841V37.1589H52.5755V38.303H50.3841V40.0484H52.9633V41.1925H49.0073ZM1 50.8887V44.1014H3.66646C5.81902 44.1014 7.27345 45.6625 7.27345 47.4951C7.27345 49.3276 5.81902 50.8887 3.66646 50.8887H1ZM3.68585 45.3522H2.37686V49.6379H3.68585C4.94636 49.6379 5.8578 48.6974 5.8578 47.4951C5.8578 46.283 4.94636 45.3522 3.68585 45.3522ZM8.74671 50.8887V44.1014H12.7028V45.2455H10.1236V46.8551H12.3149V47.9993H10.1236V49.7446H12.7028V50.8887H8.74671ZM17.1101 50.8887V44.1014H18.487V49.6379H21.0662V50.8887H17.1101ZM22.0616 46.8939H20.9174L21.7901 44.1014H23.1863L22.0616 46.8939ZM26.9924 43.5196H25.7416L26.8373 42.2106H28.2529L26.9924 43.5196ZM24.4035 50.8887V44.1014H28.3596V45.2455H25.7804V46.8551H27.9717V47.9993H25.7804V49.7446H28.3596V50.8887H24.4035ZM32.9787 49.7931C33.7544 49.7931 34.3653 49.4149 34.7531 48.8622L35.8391 49.6961C35.2185 50.5397 34.2101 51.0827 32.9787 51.0827C30.8358 51.0827 29.3717 49.4343 29.3717 47.4951C29.3717 45.5558 30.8358 43.9075 32.9787 43.9075C34.2101 43.9075 35.2185 44.4601 35.8391 45.2843L34.7531 46.1279C34.3653 45.5752 33.7544 45.1971 32.9787 45.1971C31.6988 45.1971 30.7873 46.1958 30.7873 47.4951C30.7873 48.7944 31.6988 49.7931 32.9787 49.7931ZM40.1573 43.9075C42.2905 43.9075 43.7546 45.5558 43.7546 47.4951C43.7546 49.4343 42.2905 51.0827 40.1573 51.0827C38.0144 51.0827 36.5503 49.4343 36.5503 47.4951C36.5503 45.5558 38.0144 43.9075 40.1573 43.9075ZM40.1573 49.7931C41.4275 49.7931 42.3389 48.7944 42.3389 47.4951C42.3389 46.1958 41.4275 45.1971 40.1573 45.1971C38.8774 45.1971 37.9659 46.1958 37.9659 47.4951C37.9659 48.7944 38.8774 49.7931 40.1573 49.7931ZM45.2197 50.8887V44.1014H46.9844L50.0193 49.0077V44.1014H51.3962V50.8887H49.6315L46.5965 45.9825V50.8887H45.2197ZM56.4651 43.9075C58.5983 43.9075 60.0624 45.5558 60.0624 47.4951C60.0624 49.4343 58.5983 51.0827 56.4651 51.0827C54.3223 51.0827 52.8581 49.4343 52.8581 47.4951C52.8581 45.5558 54.3223 43.9075 56.4651 43.9075ZM56.4651 49.7931C57.7353 49.7931 58.6468 48.7944 58.6468 47.4951C58.6468 46.1958 57.7353 45.1971 56.4651 45.1971C55.1852 45.1971 54.2738 46.1958 54.2738 47.4951C54.2738 48.7944 55.1852 49.7931 56.4651 49.7931ZM61.5275 50.8887V44.1014H63.2437L64.9018 46.9521L66.5598 44.1014H68.2761V50.8887H66.8992V46.0212L65.3866 48.5616H64.417L62.9044 46.0212V50.8887H61.5275ZM70.3158 50.8887V44.1014H71.6927V50.8887H70.3158ZM73.7354 50.8887V44.1014H77.6914V45.2455H75.1122V46.8551H77.3036V47.9993H75.1122V49.7446H77.6914V50.8887H73.7354ZM79.8989 52.4401H78.7548L79.6371 49.541H81.0237L79.8989 52.4401ZM1 60.585V53.7976H3.66646C5.81902 53.7976 7.27345 55.3587 7.27345 57.1913C7.27345 59.0239 5.81902 60.585 3.66646 60.585H1ZM3.68585 55.0484H2.37686V59.3341H3.68585C4.94636 59.3341 5.8578 58.3936 5.8578 57.1913C5.8578 55.9792 4.94636 55.0484 3.68585 55.0484ZM8.74671 60.585V53.7976H12.7028V54.9418H10.1236V56.5513H12.3149V57.6955H10.1236V59.4408H12.7028V60.585H8.74671ZM13.8373 59.6444L14.836 58.7233C15.2433 59.2469 15.7862 59.5572 16.3389 59.5572C16.8819 59.5572 17.2116 59.2663 17.2116 58.7815C17.2116 57.5306 14.1282 57.87 14.1282 55.572C14.1282 54.4957 15.0202 53.6037 16.3195 53.6037C17.3376 53.6037 18.1133 54.0594 18.6951 54.7478L17.6867 55.6593C17.2892 55.1454 16.8431 54.806 16.3292 54.806C15.8444 54.806 15.5244 55.1163 15.5244 55.5235C15.5244 56.7549 18.6078 56.4059 18.6078 58.733C18.5885 60.0129 17.5994 60.7789 16.3486 60.7789C15.2045 60.7789 14.4385 60.3619 13.8373 59.6444ZM22.8589 60.585V53.7976H26.815V54.9418H24.2358V56.5513H26.4271V57.6955H24.2358V60.585H22.8589ZM28.1721 60.585V53.7976H29.549V60.585H28.1721ZM31.5916 60.585V53.7976H33.3563L36.3912 58.7039V53.7976H37.7681V60.585H36.0033L32.9684 55.6787V60.585H31.5916ZM38.9585 60.585L41.528 53.7976H43.3315L45.901 60.585H44.4369L43.7872 58.8202H41.0723L40.4226 60.585H38.9585ZM41.4989 57.647H43.3606L42.4298 55.0969L41.4989 57.647ZM47.0945 60.585V53.7976H48.8592L51.8941 58.7039V53.7976H53.271V60.585H51.5063L48.4714 55.6787V60.585H47.0945ZM58.34 59.4893C59.1157 59.4893 59.7265 59.1111 60.1144 58.5584L61.2003 59.3923C60.5798 60.2359 59.5714 60.7789 58.34 60.7789C56.1971 60.7789 54.733 59.1305 54.733 57.1913C54.733 55.252 56.1971 53.6037 58.34 53.6037C59.5714 53.6037 60.5798 54.1564 61.2003 54.9805L60.1144 55.8241C59.7265 55.2714 59.1157 54.8933 58.34 54.8933C57.0601 54.8933 56.1486 55.892 56.1486 57.1913C56.1486 58.4906 57.0601 59.4893 58.34 59.4893ZM62.5407 60.585V53.7976H66.4967V54.9418H63.9175V56.5513H66.1089V57.6955H63.9175V59.4408H66.4967V60.585H62.5407ZM67.6313 59.6444L68.63 58.7233C69.0372 59.2469 69.5802 59.5572 70.1329 59.5572C70.6759 59.5572 71.0056 59.2663 71.0056 58.7815C71.0056 57.5306 67.9222 57.87 67.9222 55.572C67.9222 54.4957 68.8142 53.6037 70.1135 53.6037C71.1319 53.6037 71.9076 54.0594 72.4894 54.7478L71.481 55.6593C71.0831 55.1454 70.6371 54.806 70.1232 54.806C69.6384 54.806 69.3184 55.1163 69.3184 55.5235C69.3184 56.7549 72.4021 56.4059 72.4021 58.733C72.3827 60.0129 71.3937 60.7789 70.1426 60.7789C68.9984 60.7789 68.2324 60.3619 67.6313 59.6444ZM1 70.2812V63.4938H4.95606V64.638H2.37686V66.2475H4.56821V67.3917H2.37686V69.137H4.95606V70.2812H1ZM6.14538 64.7446V63.4938H11.711V64.7446H9.61662V70.2812H8.23976V64.7446H6.14538ZM15.7277 70.2812V63.4938H18.3941C20.5467 63.4938 22.0011 65.0549 22.0011 66.8875C22.0011 68.7201 20.5467 70.2812 18.3941 70.2812H15.7277ZM18.4135 64.7446H17.1045V69.0304H18.4135C19.674 69.0304 20.5855 68.0898 20.5855 66.8875C20.5855 65.6755 19.674 64.7446 18.4135 64.7446ZM23.4744 70.2812V63.4938H27.4304V64.638H24.8512V66.2475H27.0426V67.3917H24.8512V69.137H27.4304V70.2812H23.4744ZM31.8378 70.2812V63.4938H33.2146V69.0304H35.7938V70.2812H31.8378ZM36.5913 70.2812L39.1608 63.4938H40.9643L43.5338 70.2812H42.0696L41.42 68.5165H38.705L38.0554 70.2812H36.5913ZM39.1317 67.3432H40.9933L40.0625 64.7931L39.1317 67.3432ZM46.7783 69.3406L47.7771 68.4195C48.1843 68.9431 48.7273 69.2534 49.28 69.2534C49.823 69.2534 50.1526 68.9625 50.1526 68.4777C50.1526 67.2269 47.0692 67.5662 47.0692 65.2682C47.0692 64.1919 47.9613 63.2999 49.2606 63.2999C50.2787 63.2999 51.0544 63.7556 51.6362 64.444L50.6277 65.3555C50.2302 64.8416 49.7842 64.5022 49.2703 64.5022C48.7855 64.5022 48.4655 64.8125 48.4655 65.2197C48.4655 66.4512 51.5489 66.1021 51.5489 68.4292C51.5295 69.7091 50.5405 70.4751 49.2897 70.4751C48.1455 70.4751 47.3795 70.0582 46.7783 69.3406ZM56.078 63.2999C58.2112 63.2999 59.6753 64.9483 59.6753 66.8875C59.6753 68.8267 58.2112 70.4751 56.078 70.4751C53.9351 70.4751 52.471 68.8267 52.471 66.8875C52.471 64.9483 53.9351 63.2999 56.078 63.2999ZM56.078 69.1855C57.3482 69.1855 58.2596 68.1868 58.2596 66.8875C58.2596 65.5882 57.3482 64.5895 56.078 64.5895C54.7981 64.5895 53.8866 65.5882 53.8866 66.8875C53.8866 68.1868 54.7981 69.1855 56.078 69.1855ZM65.1432 67.7408V63.4938H66.52V67.6244C66.52 69.4085 65.4728 70.4751 63.7663 70.4751C62.0694 70.4751 61.0223 69.4085 61.0223 67.6244V63.4938H62.3991V67.7408C62.3991 68.6522 62.913 69.1855 63.776 69.1855C64.6196 69.1855 65.1432 68.6522 65.1432 67.7408ZM67.5226 63.4938H68.9867L70.9938 68.7976L73.0009 63.4938H74.465L71.8955 70.2812H70.0921L67.5226 63.4938ZM75.6585 70.2812V63.4938H79.6145V64.638H77.0353V66.2475H79.2267V67.3917H77.0353V69.137H79.6145V70.2812H75.6585ZM81.3598 70.2812V63.4938H83.4348C84.928 63.4938 85.8492 64.2598 85.8492 65.5203C85.8492 66.3445 85.4516 66.9554 84.7535 67.2753L86.877 70.2812H85.2577L83.4445 67.5371H82.7367V70.2812H81.3598ZM83.5124 64.638H82.7367V66.393H83.5124C84.0942 66.393 84.4335 66.0536 84.4335 65.5009C84.4335 64.987 84.0942 64.638 83.5124 64.638ZM87.3351 70.2812L89.9046 63.4938H91.7081L94.2776 70.2812H92.8135L92.1638 68.5165H89.4489L88.7993 70.2812H87.3351ZM89.8755 67.3432H91.7372L90.8064 64.7931L89.8755 67.3432ZM95.4711 70.2812V63.4938H96.8479V70.2812H95.4711ZM98.8906 70.2812V63.4938H100.655L103.69 68.4001V63.4938H105.067V70.2812H103.302L100.267 65.3749V70.2812H98.8906ZM107.111 70.2812V63.4938H111.067V64.638H108.487V66.2475H110.679V67.3917H108.487V69.137H111.067V70.2812H107.111ZM112.256 64.7446V63.4938H117.822V64.7446H115.727V70.2812H114.35V64.7446H112.256ZM121.766 62.912H120.515L121.61 61.6031H123.026L121.766 62.912ZM119.177 70.2812V63.4938H123.133V64.638H120.554V66.2475H122.745V67.3917H120.554V69.137H123.133V70.2812H119.177ZM1 79.9774V73.19H2.37686V79.9774H1ZM4.41945 79.9774V73.19H6.18416L9.21908 78.0963V73.19H10.5959V79.9774H8.83123L5.79631 75.0711V79.9774H4.41945ZM12.6397 79.9774V73.19H15.3061C17.4587 73.19 18.9131 74.7511 18.9131 76.5837C18.9131 78.4163 17.4587 79.9774 15.3061 79.9774H12.6397ZM15.3255 74.4408H14.0165V78.7266H15.3255C16.586 78.7266 17.4975 77.786 17.4975 76.5837C17.4975 75.3717 16.586 74.4408 15.3255 74.4408ZM24.3891 77.437V73.19H25.766V77.3206C25.766 79.1047 24.7188 80.1713 23.0123 80.1713C21.3154 80.1713 20.2682 79.1047 20.2682 77.3206V73.19H21.6451V77.437C21.6451 78.3484 22.159 78.8817 23.022 78.8817C23.8655 78.8817 24.3891 78.3484 24.3891 77.437ZM27.0109 79.0369L28.0096 78.1157C28.4169 78.6393 28.9599 78.9496 29.5125 78.9496C30.0555 78.9496 30.3852 78.6587 30.3852 78.1739C30.3852 76.9231 27.3018 77.2624 27.3018 74.9644C27.3018 73.8882 28.1939 72.9961 29.4931 72.9961C30.5112 72.9961 31.2869 73.4518 31.8687 74.1403L30.8603 75.0517C30.4628 74.5378 30.0167 74.1984 29.5028 74.1984C29.018 74.1984 28.6981 74.5087 28.6981 74.916C28.6981 76.1474 31.7815 75.7983 31.7815 78.1254C31.7621 79.4053 30.773 80.1713 29.5222 80.1713C28.3781 80.1713 27.6121 79.7544 27.0109 79.0369ZM32.6251 74.4408V73.19H38.1907V74.4408H36.0963V79.9774H34.7195V74.4408H32.6251ZM39.5455 79.9774V73.19H41.6205C43.1137 73.19 44.0349 73.956 44.0349 75.2165C44.0349 76.0407 43.6373 76.6516 42.9392 76.9716L45.0627 79.9774H43.4434L41.6302 77.2334H40.9224V79.9774H39.5455ZM41.6981 74.3342H40.9224V76.0892H41.6981C42.2799 76.0892 42.6192 75.7498 42.6192 75.1972C42.6192 74.6833 42.2799 74.3342 41.6981 74.3342ZM46.0802 79.9774V73.19H47.4571V79.9774H46.0802ZM49.4997 79.9774V73.19H53.4557V74.3342H50.8765V75.9438H53.0679V77.0879H50.8765V78.8332H53.4557V79.9774H49.4997ZM55.2011 79.9774V73.19H56.578V78.7266H59.1572V79.9774H55.2011ZM60.5143 79.9774V73.19H61.8912V78.7266H64.4704V79.9774H60.5143ZM65.8275 79.9774V73.19H69.7836V74.3342H67.2044V75.9438H69.3957V77.0879H67.2044V78.8332H69.7836V79.9774H65.8275ZM74.1911 79.9774V73.19H78.1471V74.3342H75.568V75.9438H77.7593V77.0879H75.568V78.8332H78.1471V79.9774H74.1911ZM79.3365 74.4408V73.19H84.9022V74.4408H82.8078V79.9774H81.4309V74.4408H79.3365ZM88.9188 79.9774V73.19H90.6835L93.7185 78.0963V73.19H95.0953V79.9774H93.3306L90.2957 75.0711V79.9774H88.9188ZM101.066 77.437V73.19H102.443V77.3206C102.443 79.1047 101.395 80.1713 99.6889 80.1713C97.9921 80.1713 96.9449 79.1047 96.9449 77.3206V73.19H98.3217V77.437C98.3217 78.3484 98.8356 78.8817 99.6986 78.8817C100.542 78.8817 101.066 78.3484 101.066 77.437ZM104.299 79.9774V73.19H106.015L107.673 76.0407L109.331 73.19H111.047V79.9774H109.67V75.1099L108.158 77.6503H107.188L105.676 75.1099V79.9774H104.299ZM115.676 72.6083H114.425L115.52 71.2993H116.936L115.676 72.6083ZM113.087 79.9774V73.19H117.043V74.3342H114.464V75.9438H116.655V77.0879H114.464V78.8332H117.043V79.9774H113.087ZM118.788 79.9774V73.19H120.863C122.356 73.19 123.277 73.956 123.277 75.2165C123.277 76.0407 122.88 76.6516 122.182 76.9716L124.305 79.9774H122.686L120.873 77.2334H120.165V79.9774H118.788ZM120.941 74.3342H120.165V76.0892H120.941C121.522 76.0892 121.862 75.7498 121.862 75.1972C121.862 74.6833 121.522 74.3342 120.941 74.3342ZM125.323 79.9774V73.19H126.7V79.9774H125.323ZM134.434 79.8029C134.957 80.278 135.423 80.4525 135.859 80.4525C136.004 80.4525 136.198 80.4331 136.344 80.3749V81.5385C136.121 81.6257 135.927 81.6645 135.626 81.6645C134.87 81.6645 134.172 81.3543 133.503 80.7725L132.698 80.055C132.407 80.1325 132.097 80.1713 131.767 80.1713C129.624 80.1713 128.16 78.523 128.16 76.5837C128.16 74.6445 129.624 72.9961 131.767 72.9961C133.9 72.9961 135.365 74.6445 135.365 76.5837C135.365 77.7182 134.86 78.7557 134.026 79.415L134.434 79.8029ZM131.767 78.8817C133.037 78.8817 133.949 77.883 133.949 76.5837C133.949 75.2844 133.037 74.2857 131.767 74.2857C130.487 74.2857 129.576 75.2844 129.576 76.5837C129.576 77.883 130.487 78.8817 131.767 78.8817ZM140.832 77.437V73.19H142.209V77.3206C142.209 79.1047 141.162 80.1713 139.456 80.1713C137.759 80.1713 136.711 79.1047 136.711 77.3206V73.19H138.088V77.437C138.088 78.3484 138.602 78.8817 139.465 78.8817C140.309 78.8817 140.832 78.3484 140.832 77.437ZM144.065 79.9774V73.19H148.021V74.3342H145.442V75.9438H147.633V77.0879H145.442V78.8332H148.021V79.9774H144.065Z" fill="black"/>
<path fill-rule="evenodd" clip-rule="evenodd" d="M25.194 97.4419L24.2921 98.2661H24.0594L24.5928 97.3256H25.194V97.4419ZM24.5443 100.631H24.3504C24.1079 100.922 23.8364 101.155 23.5745 101.155C23.303 101.155 23.1673 100.99 23.1673 100.631C23.1673 100.486 23.1866 100.331 23.2157 100.195L24.7965 99.6712C25.1067 98.9343 24.7382 98.6144 24.3019 98.6144C23.5551 98.6144 22.7018 99.9233 22.7018 100.971C22.7018 101.465 22.9345 101.737 23.303 101.737C23.7297 101.727 24.1757 101.31 24.5443 100.631ZM24.0019 99.0418C24.2152 99.0418 24.3994 99.2066 24.3024 99.5848L23.323 99.8466C23.4782 99.3812 23.7691 99.0418 24.0019 99.0418ZM20.9185 99.0604H21.4421L20.6081 101.349C20.5305 101.543 20.6372 101.737 20.8408 101.737C21.4324 101.737 22.1403 101.232 22.4118 100.515H22.2664C22.0531 100.815 21.5876 101.145 21.2384 101.203L22.0046 99.0604H22.7901L22.887 98.7315H22.121L22.4118 97.9073H22.1113L21.5682 98.7315L20.9185 98.8188V99.0604ZM20.1906 98.6249C20.2973 98.6249 20.4427 98.7412 20.3748 98.9545L19.4341 101.233C19.6766 101.194 19.9287 100.962 20.0742 100.748H20.2294C20.0063 101.32 19.502 101.737 19.0657 101.737C18.959 101.737 18.8038 101.621 18.8814 101.408L19.7542 99.1291C19.5118 99.1678 19.2596 99.4006 19.1142 99.6139H18.9687C19.1917 99.0321 19.7348 98.6249 20.1906 98.6249ZM20.4627 98.0431C20.6567 98.0431 20.8216 97.8879 20.8216 97.6843C20.8216 97.4904 20.6567 97.3256 20.4627 97.3256C20.2591 97.3256 20.104 97.4904 20.104 97.6843C20.104 97.8782 20.2688 98.0431 20.4627 98.0431ZM16.2248 99.9338C16.4381 99.4684 16.3605 99.2551 16.2248 99.2551C16.1084 99.2551 15.9726 99.3812 15.8368 99.6139H15.6914C15.9144 99.1194 16.2054 98.6249 16.5253 98.6249C16.7969 98.6249 16.8939 98.8964 16.8939 99.1969V99.6236C16.9375 99.5727 16.98 99.5234 17.0215 99.4741L17.0223 99.4733L17.0229 99.4725C17.4326 98.9917 17.7455 98.6249 18.1061 98.6249C18.3873 98.6249 18.5328 98.7994 18.5328 99.0612C18.5328 99.2163 18.4843 99.4102 18.3776 99.6139L17.5727 101.233C17.8152 101.194 18.0673 100.962 18.2127 100.748H18.3583C18.1352 101.33 17.5921 101.737 17.1364 101.737C16.9327 101.737 16.8163 101.524 16.9036 101.349L17.8346 99.5557C17.9412 99.3521 17.9606 99.2163 17.7958 99.2163C17.5727 99.2163 17.049 99.5848 16.7678 99.9241L16.1569 101.534C16.089 101.699 16.0211 101.737 15.8659 101.737C15.6138 101.737 15.4878 101.573 15.6041 101.311L16.2248 99.9338ZM15.5937 99.3125C15.7004 98.944 15.6422 98.6144 15.3609 98.6144C15.0102 98.6144 14.9004 98.8462 14.5605 99.563L14.5366 99.6131V99.1864C14.5366 98.8858 14.4397 98.6144 14.1681 98.6144C13.8481 98.6144 13.5572 99.1089 13.3342 99.6034H13.4796C13.6347 99.3804 13.7803 99.2446 13.8966 99.2446C14.0324 99.2446 14.1099 99.4579 13.8966 99.9233L13.276 101.3C13.1596 101.562 13.2857 101.727 13.5378 101.727C13.693 101.727 13.7609 101.688 13.8287 101.523L14.4397 99.9136C14.6142 99.7003 14.7694 99.5161 14.9634 99.3125H15.5937ZM12.5295 99.5848C12.6264 99.2066 12.4422 99.0418 12.2289 99.0418C11.9961 99.0418 11.7052 99.3812 11.55 99.8466L12.5295 99.5848ZM12.7713 100.631H12.5774C12.3349 100.922 12.0634 101.155 11.8015 101.155C11.53 101.155 11.3943 100.99 11.3943 100.631C11.3943 100.486 11.4137 100.331 11.4427 100.195L13.0235 99.6712C13.3338 98.9343 12.9653 98.6144 12.5289 98.6144C11.7821 98.6144 10.9288 99.9233 10.9288 100.971C10.9288 101.465 11.1615 101.737 11.53 101.737C11.9567 101.727 12.4028 101.31 12.7713 100.631ZM9.66915 99.0604H9.14547V98.8188L9.7952 98.7315L10.3383 97.9073H10.6389L10.348 98.7315H11.114L11.0171 99.0604H10.2316L9.46545 101.203C9.81459 101.145 10.2801 100.815 10.4934 100.515H10.6389C10.3674 101.232 9.65945 101.737 9.0679 101.737C8.8642 101.737 8.75754 101.543 8.83511 101.349L9.66915 99.0604ZM6.37243 100.836C6.37243 100.128 7.15791 99.1775 7.59432 99.1775C7.69128 99.1775 7.78824 99.1872 7.86581 99.2163L7.41009 100.438C7.14821 100.758 6.74089 101.146 6.54697 101.146C6.44031 101.146 6.37243 101.049 6.37243 100.836ZM8.53526 98.4697L8.77766 98.4891L7.93401 100.428C7.73031 100.894 7.81757 101.107 7.93401 101.107C8.05037 101.107 8.19581 100.971 8.35095 100.748H8.49647C8.27338 101.243 7.98249 101.737 7.66244 101.737C7.39094 101.737 7.22602 101.446 7.27451 100.923L7.2939 100.739L7.24114 100.812C6.89377 101.298 6.57945 101.737 6.25632 101.737C5.97505 101.737 5.82961 101.563 5.82961 101.301C5.82961 100.176 7.06119 98.7412 8.2152 98.7412H8.26368L8.53526 98.4697ZM6.31385 99.3125C6.42051 98.944 6.36233 98.6144 6.08114 98.6144C5.73038 98.6144 5.62057 98.8462 5.28072 99.563L5.2568 99.6131V99.1864C5.2568 98.8858 5.15984 98.6144 4.88835 98.6144C4.56829 98.6144 4.2774 99.1089 4.05431 99.6034H4.19975C4.35497 99.3804 4.50042 99.2446 4.60708 99.2446C4.74282 99.2446 4.82047 99.4579 4.60708 99.9233L3.98644 101.31C3.87008 101.572 3.99614 101.737 4.24824 101.737C4.40346 101.737 4.47133 101.698 4.5392 101.533L5.15015 99.9233C5.32468 99.71 5.4799 99.5258 5.67382 99.3222H6.31385V99.3125ZM2.31772 101.446L2.25954 101.62H0L0.0581769 101.436C0.756385 101.31 0.872821 101.252 1.16371 100.466L1.79404 98.7792C2.07531 97.9938 2.01714 97.9356 1.40619 97.8096L1.46437 97.635H4.40273L4.2282 98.5756H4.0148C4.0148 98.0132 3.95662 97.8677 3.42325 97.8677H3.2875C2.76383 97.8677 2.69595 97.9453 2.55051 98.3525L2.13349 99.487H2.74443C3.15176 99.487 3.3069 99.2349 3.49112 98.9052H3.70452L3.20024 100.282H2.98684C3.03532 99.8652 3.03532 99.7003 2.65717 99.7003H2.04623L1.76495 100.476C1.46098 101.283 1.54784 101.299 2.27174 101.437C2.28677 101.439 2.30212 101.442 2.31772 101.446Z" fill="black"/>
<path fill-rule="evenodd" clip-rule="evenodd" d="M4.23789 90.0243L3.33598 90.6747V90.6844H3.10319L3.63657 89.9079H4.23789V90.0243ZM10.5424 94.5742L11.9874 90.7321L11.9389 90.6739L10.94 90.7903V90.9074L11.1339 91.0529C11.2996 91.1813 11.2557 91.3017 11.1183 91.6775L11.0951 91.7413L9.98961 94.6906C9.90234 94.8651 10.0187 95.0784 10.2223 95.0784C10.6781 95.0784 11.163 94.6615 11.3861 94.0894H11.2407C11.0854 94.3027 10.7752 94.5354 10.5424 94.5742ZM17.1654 91.6152L18.0673 90.7903V90.6739H17.466L16.9327 91.6152H17.1654ZM17.2229 93.9722H17.4169C17.0581 94.6615 16.612 95.0784 16.1852 95.0784C15.8167 95.0784 15.584 94.8069 15.584 94.3124C15.584 93.2644 16.4374 91.9546 17.1841 91.9546C17.6108 91.9546 17.9891 92.2746 17.6787 93.0123L16.0883 93.5359C16.0592 93.6716 16.0398 93.8268 16.0398 93.9722C16.0398 94.3318 16.1756 94.4966 16.4471 94.4966C16.7089 94.4966 16.9805 94.2639 17.2229 93.9722ZM17.1739 92.925C17.271 92.5566 17.0867 92.3909 16.8734 92.3909C16.6503 92.3909 16.3594 92.7311 16.1945 93.1868L17.1739 92.925ZM14.3228 92.4103H13.7991V92.1679L14.4488 92.0807L14.992 91.2557H15.2926L15.0017 92.0807H15.7677L15.6708 92.4103H14.8852L14.1191 94.5548C14.4682 94.4958 14.9337 94.1662 15.1471 93.8656H15.2926C15.0211 94.5839 14.3131 95.0881 13.7215 95.0881C13.5178 95.0881 13.4112 94.8942 13.4887 94.7003L14.3228 92.4103ZM13.2559 92.294C13.3141 92.0807 13.1784 91.9643 13.062 91.9643C12.6062 91.9643 12.0631 92.3812 11.8401 92.9541H11.9855C12.131 92.74 12.3831 92.5073 12.6256 92.4685L11.7528 94.7487C11.6752 94.962 11.8304 95.0784 11.937 95.0784C12.3734 95.0784 12.8777 94.6615 13.1008 94.0886H12.9553C12.8098 94.3019 12.5577 94.5346 12.3152 94.5734L13.2559 92.294ZM13.7028 91.0335C13.7028 91.2274 13.5379 91.3922 13.3439 91.3922C13.15 91.3922 12.9851 91.2274 12.9851 91.0335C12.9851 90.8395 13.1403 90.6739 13.3439 90.6739C13.5379 90.6739 13.7028 90.8395 13.7028 91.0335ZM8.80635 92.5275C8.36994 92.5275 7.58438 93.4777 7.58438 94.1864C7.58438 94.3997 7.65225 94.4966 7.76869 94.4966C7.95292 94.4966 8.36024 94.1088 8.62204 93.788L9.07784 92.5663C8.99057 92.5372 8.90331 92.5275 8.80635 92.5275ZM9.98969 91.8383L9.74728 91.8189L9.47571 92.0904H9.42723C8.27322 92.0904 7.04155 93.5262 7.04155 94.6518C7.04155 94.9136 7.187 95.0881 7.46827 95.0881C7.7914 95.0881 8.10571 94.6485 8.45316 94.1629L8.50593 94.0894L8.48653 94.2736C8.43805 94.7972 8.60289 95.0881 8.87446 95.0881C9.19452 95.0881 9.4854 94.5936 9.7085 94.0991H9.56297C9.40784 94.3221 9.26239 94.4578 9.14604 94.4578C9.0296 94.4578 8.94234 94.2445 9.14604 93.7783L9.98969 91.8383ZM5.10142 94.9814C4.6844 95.1463 4.39344 95.3402 4.39344 95.6416C4.39344 95.9228 4.65532 96.0391 5.19838 96.0391C5.92576 96.0391 6.32339 95.8258 6.32339 95.5446C6.32339 95.4178 6.15847 95.3596 5.72206 95.2142C5.44087 95.1269 5.23717 95.0493 5.10142 94.9814ZM5.58567 93.788C5.39174 93.788 5.32387 93.6232 5.32387 93.4486C5.32387 92.8862 5.59536 92.1873 6.03177 92.1873C6.22578 92.1873 6.29365 92.353 6.29365 92.5275C6.28396 93.0996 6.01238 93.788 5.58567 93.788ZM5.95517 94.7003C6.48855 94.8651 6.8183 94.9911 6.8183 95.3596C6.8183 95.8355 5.94548 96.3979 4.88843 96.3882C4.27741 96.3882 3.75373 96.2234 3.75373 95.8258C3.75373 95.4469 4.10287 95.1366 4.9563 94.8845C4.83995 94.8069 4.79147 94.71 4.79147 94.5742C4.79147 94.3415 5.00478 94.1573 5.37332 93.9819C5.01448 93.9334 4.78169 93.6619 4.78169 93.2644C4.78169 92.6535 5.28605 91.9546 6.08122 91.9546C6.24614 91.9546 6.39158 91.9934 6.50794 92.071H7.38076L7.2838 92.4006H6.76982C6.79891 92.4887 6.8183 92.5857 6.8183 92.6923C6.8183 93.2838 6.3431 93.9625 5.58664 94.0013C5.39271 94.108 5.29575 94.2542 5.29575 94.3706C5.29575 94.5071 5.45436 94.554 5.80496 94.6558C5.85159 94.6695 5.90168 94.6841 5.95517 94.7003ZM2.88026 93.0414C3.25849 93.0414 3.26819 93.2062 3.21001 93.6232H3.42333L3.9277 92.2455H3.7143C3.53007 92.576 3.37485 92.8281 2.96753 92.8281H2.13357L2.54089 91.6928C2.68634 91.2856 2.75421 91.208 3.27789 91.208H3.64642C4.1798 91.208 4.23797 91.3534 4.23797 91.9158H4.45137L4.6259 90.9753H1.46437L1.40619 91.1498C2.01714 91.2759 2.07531 91.334 1.79412 92.1194L1.16379 93.8171C0.872821 94.6033 0.756467 94.6615 0.0484814 94.7875L0 94.9717H3.51068L4.14101 93.9722H3.89853C3.49128 94.3706 3.08396 94.739 2.28871 94.739C1.41403 94.739 1.42963 94.6962 1.69207 93.9747C1.70896 93.9286 1.7269 93.8793 1.74564 93.8268L2.03653 93.0511H2.88026V93.0414Z" fill="black"/>
<path fill-rule="evenodd" clip-rule="evenodd" d="M5.77701 84.7347C5.97093 84.7347 6.13577 84.5699 6.13577 84.3761C6.13577 84.1822 5.97093 84.0175 5.77701 84.0175C5.57347 84.0175 5.41833 84.1822 5.41833 84.3761C5.41833 84.5796 5.57347 84.7347 5.77701 84.7347ZM8.64757 85.9556C8.64757 85.4904 8.5313 85.3159 8.20162 85.3159C7.79447 85.3159 7.41639 85.752 7.03832 86.2754L7.85264 84.0947L7.80416 84.0269L6.80569 84.1432V84.2595L6.99954 84.4049C7.16841 84.5361 7.11945 84.6674 6.97562 85.0532L6.96075 85.093L6.07864 87.3997C6.00107 87.5935 5.9138 87.8261 5.9138 87.8843C5.9138 88.1556 6.28218 88.4174 6.62147 88.4174C7.37761 88.4271 8.64757 87.0314 8.64757 85.9556ZM17.0526 84.967L17.9542 84.1432V84.0269H17.3531L16.8199 84.967H17.0526ZM17.111 87.3222H17.3048C16.9365 88.0103 16.4905 88.4271 16.064 88.4174C15.6956 88.4174 15.463 88.1556 15.463 87.6614C15.463 86.6147 16.3161 85.3062 17.0625 85.3062C17.4891 85.3062 17.8671 85.6261 17.5569 86.3626L15.9767 86.886C15.9477 87.0218 15.9283 87.1768 15.9283 87.3222C15.9283 87.6808 16.064 87.8455 16.3355 87.8455C16.5972 87.8455 16.8686 87.6129 17.111 87.3222ZM17.0615 86.2755C17.1585 85.9072 16.9743 85.7424 16.761 85.7424C16.5284 85.7424 16.2375 86.0816 16.0825 86.5372L17.0615 86.2755ZM14.2007 85.7624H13.6772V85.52L14.3266 85.4328L14.8696 84.609H15.1701L14.8792 85.4328H15.6451L15.5481 85.7624H14.7629L13.9971 87.9043C14.346 87.8461 14.8114 87.5166 15.0247 87.2162H15.1701C14.8986 87.9334 14.191 88.4373 13.5996 88.4373C13.3961 88.4373 13.2894 88.2435 13.367 88.0496L14.2007 85.7624ZM13.4075 86.0143C13.5142 85.646 13.456 85.3165 13.1749 85.3165C12.8243 85.3165 12.7145 85.548 12.3747 86.2645L12.3509 86.3147V85.8883C12.3509 85.5878 12.2539 85.3165 11.9825 85.3165C11.6626 85.3165 11.3717 85.8108 11.1488 86.305H11.2942C11.4493 86.0822 11.5947 85.9464 11.7013 85.9464C11.8371 85.9464 11.9146 86.1597 11.7013 86.6249L11.0809 88.0011C10.9646 88.2629 11.0906 88.4276 11.3426 88.4276C11.4978 88.4276 11.5656 88.3888 11.6335 88.2241L12.2442 86.6152C12.4188 86.402 12.5738 86.2178 12.7677 86.0143H13.4075ZM10.3347 86.2755C10.4316 85.9072 10.2474 85.7424 10.0341 85.7424C9.8015 85.7424 9.52031 86.0816 9.35556 86.5372L10.3347 86.2755ZM10.5764 87.3222H10.3825C10.1402 87.6129 9.86873 87.8455 9.60701 87.8455C9.33552 87.8455 9.19985 87.6808 9.19985 87.3222C9.19985 87.1768 9.21924 87.0218 9.24833 86.886L10.8285 86.3626C11.1387 85.6261 10.7703 85.3062 10.3341 85.3062C9.58762 85.3062 8.73451 86.6147 8.73451 87.6614C8.73451 88.1556 8.96714 88.4174 9.33552 88.4174C9.76207 88.4271 10.208 88.0103 10.5764 87.3222ZM6.50552 87.6908C6.50552 87.8168 6.72853 87.9622 6.88359 87.9622C7.51376 87.9622 8.10507 86.8282 8.09537 86.1982C8.09537 85.985 7.98879 85.8978 7.84335 85.8978C7.61072 85.8978 7.18417 86.2467 6.91267 86.5762L6.66066 87.2547C6.57339 87.4776 6.50552 87.652 6.50552 87.6908ZM5.48782 85.3165C5.60417 85.3165 5.73984 85.4328 5.68166 85.646L4.75107 87.9237C4.99339 87.8849 5.24541 87.6522 5.39085 87.439H5.5363C5.31328 88.0108 4.80916 88.4276 4.37291 88.4276C4.25664 88.4276 4.1015 88.3113 4.17907 88.0981L5.05157 85.8205C4.80916 85.8593 4.55714 86.0919 4.4117 86.305H4.26634C4.48927 85.7333 5.03218 85.3165 5.48782 85.3165ZM1.46381 84.3085H3.54809L3.48999 84.4926C2.78225 84.6186 2.66597 84.6768 2.37509 85.4619L1.75469 87.1676C1.45419 87.9818 1.53168 88.0786 2.06489 88.0786C2.72367 88.0786 3.15555 87.6 3.53274 87.182C3.56077 87.1509 3.58849 87.1202 3.61596 87.0901H3.85837L3.17002 88.3113H0L0.0581769 88.1368C0.756143 88.0108 0.872498 87.9527 1.1633 87.1676L1.79348 85.4522C2.07459 84.6671 2.01641 84.6089 1.40571 84.483L1.46381 84.3085Z" fill="black"/>
<path d="M173.724 46.0405H172.108V75.1292H173.724V46.0405Z" fill="#161616"/>
<path d="M187.734 58.1606V50.8076H190.623C192.955 50.8076 194.53 52.4988 194.53 54.4841C194.53 56.4694 192.955 58.1606 190.623 58.1606H187.734ZM190.644 52.1627H189.226V56.8055H190.644C192.009 56.8055 192.997 55.7866 192.997 54.4841C192.997 53.1711 192.009 52.1627 190.644 52.1627ZM196.462 51.9421C195.99 51.9421 195.59 51.5429 195.59 51.0702C195.59 50.5975 195.99 50.1984 196.462 50.1984C196.935 50.1984 197.324 50.5975 197.324 51.0702C197.324 51.5429 196.935 51.9421 196.462 51.9421ZM195.79 58.1606V52.8664H197.124V58.1606H195.79ZM198.724 58.1606V52.8664H200.058V53.3917C200.405 53.0345 200.856 52.7614 201.455 52.7614C201.634 52.7614 201.791 52.7929 201.917 52.8349V54.148C201.749 54.1059 201.571 54.0744 201.329 54.0744C200.678 54.0744 200.258 54.4316 200.058 54.7677V58.1606H198.724ZM207.64 57.2992C207.146 57.961 206.327 58.3707 205.329 58.3707C203.448 58.3707 202.387 57.0576 202.387 55.5135C202.387 53.9484 203.375 52.6564 205.108 52.6564C206.579 52.6564 207.545 53.6543 207.545 55.0408C207.545 55.3349 207.503 55.608 207.461 55.7866H203.753C203.879 56.774 204.488 57.1732 205.318 57.1732C205.896 57.1732 206.4 56.9211 206.684 56.5429L207.64 57.2992ZM205.077 53.7488C204.394 53.7488 203.942 54.1269 203.795 54.8202H206.232C206.211 54.2845 205.822 53.7488 205.077 53.7488ZM211.35 57.1101C211.875 57.1101 212.295 56.8686 212.547 56.5009L213.587 57.2992C213.094 57.9505 212.316 58.3707 211.35 58.3707C209.522 58.3707 208.43 57.0576 208.43 55.5135C208.43 53.9694 209.522 52.6564 211.35 52.6564C212.316 52.6564 213.094 53.0765 213.587 53.7278L212.547 54.5261C212.295 54.1585 211.875 53.9169 211.329 53.9169C210.457 53.9169 209.816 54.5891 209.816 55.5135C209.816 56.4484 210.457 57.1101 211.35 57.1101ZM214.971 56.2278V54.0639H213.983V52.8664H214.971V51.5429H216.315V52.8664H217.933V54.0639H216.315V56.2278C216.315 56.816 216.63 57.0471 217.156 57.0471C217.523 57.0471 217.765 57.0051 217.943 56.9316V58.0975C217.681 58.2131 217.366 58.2656 216.924 58.2656C215.601 58.2656 214.971 57.5198 214.971 56.2278ZM219.799 51.9421C219.327 51.9421 218.928 51.5429 218.928 51.0702C218.928 50.5975 219.327 50.1984 219.799 50.1984C220.272 50.1984 220.661 50.5975 220.661 51.0702C220.661 51.5429 220.272 51.9421 219.799 51.9421ZM219.127 58.1606V52.8664H220.461V58.1606H219.127ZM224.582 52.6564C226.305 52.6564 227.481 53.9274 227.481 55.5135C227.481 57.0996 226.305 58.3707 224.582 58.3707C222.859 58.3707 221.683 57.0996 221.683 55.5135C221.683 53.9274 222.859 52.6564 224.582 52.6564ZM224.603 57.1101C225.454 57.1101 226.095 56.4274 226.095 55.5135C226.095 54.5891 225.454 53.9169 224.603 53.9169C223.721 53.9169 223.069 54.5891 223.069 55.5135C223.069 56.4379 223.721 57.1101 224.603 57.1101ZM228.698 58.1606V52.8664H230.032V53.2866C230.4 52.9295 230.894 52.6564 231.597 52.6564C232.742 52.6564 233.656 53.4442 233.656 55.0093V58.1606H232.312V55.0618C232.312 54.358 231.912 53.9169 231.261 53.9169C230.589 53.9169 230.232 54.3685 230.032 54.7047V58.1606H228.698ZM237.477 59.0849C237.477 58.5597 237.74 58.1396 238.213 57.7929C238.002 57.5828 237.887 57.2992 237.887 57.0261C237.887 56.6059 238.065 56.2698 238.465 55.9757C238.002 55.6291 237.75 55.1038 237.75 54.5156C237.75 53.4862 238.549 52.6564 239.872 52.6564C240.282 52.6564 240.639 52.7299 240.944 52.8664H242.876V54.0009H241.942C241.994 54.169 242.015 54.337 242.015 54.5156C242.015 55.5555 241.238 56.3959 239.872 56.3959C239.694 56.3959 239.526 56.3854 239.368 56.3538C239.252 56.4589 239.189 56.5744 239.189 56.69C239.189 56.9001 239.305 57.0051 239.547 57.0051H240.881C242.215 57.0051 242.939 57.7194 242.939 58.7068C242.939 59.8833 241.815 60.7866 240.166 60.7866C238.475 60.7866 237.477 60.1984 237.477 59.0849ZM239.893 55.3875C240.45 55.3875 240.807 55.0408 240.807 54.5156C240.807 53.9904 240.45 53.6543 239.893 53.6543C239.315 53.6543 238.969 54.0009 238.969 54.5156C238.969 55.0408 239.315 55.3875 239.893 55.3875ZM238.738 58.8959C238.738 59.4001 239.221 59.7152 240.156 59.7152C241.122 59.7152 241.616 59.3581 241.616 58.8328C241.616 58.4337 241.374 58.1501 240.734 58.1501H239.095C238.895 58.3391 238.738 58.5702 238.738 58.8959ZM246.681 52.0261H245.399L246.492 50.2824H247.941L246.681 52.0261ZM248.477 57.2992C247.983 57.961 247.164 58.3707 246.166 58.3707C244.286 58.3707 243.225 57.0576 243.225 55.5135C243.225 53.9484 244.212 52.6564 245.945 52.6564C247.416 52.6564 248.382 53.6543 248.382 55.0408C248.382 55.3349 248.34 55.608 248.298 55.7866H244.59C244.716 56.774 245.326 57.1732 246.155 57.1732C246.733 57.1732 247.237 56.9211 247.521 56.5429L248.477 57.2992ZM245.914 53.7488C245.231 53.7488 244.779 54.1269 244.632 54.8202H247.069C247.048 54.2845 246.66 53.7488 245.914 53.7488ZM249.686 58.1606V52.8664H251.02V53.2866C251.387 52.9295 251.881 52.6564 252.585 52.6564C253.73 52.6564 254.644 53.4442 254.644 55.0093V58.1606H253.299V55.0618C253.299 54.358 252.9 53.9169 252.249 53.9169C251.576 53.9169 251.219 54.3685 251.02 54.7047V58.1606H249.686ZM259.236 52.0261H257.955L259.047 50.2824H260.497L259.236 52.0261ZM261.033 57.2992C260.539 57.961 259.72 58.3707 258.722 58.3707C256.841 58.3707 255.78 57.0576 255.78 55.5135C255.78 53.9484 256.768 52.6564 258.501 52.6564C259.972 52.6564 260.938 53.6543 260.938 55.0408C260.938 55.3349 260.896 55.608 260.854 55.7866H257.146C257.272 56.774 257.881 57.1732 258.711 57.1732C259.289 57.1732 259.793 56.9211 260.077 56.5429L261.033 57.2992ZM258.47 53.7488C257.787 53.7488 257.335 54.1269 257.188 54.8202H259.625C259.604 54.2845 259.215 53.7488 258.47 53.7488ZM262.242 58.1606V52.8664H263.576V53.3917C263.923 53.0345 264.375 52.7614 264.973 52.7614C265.152 52.7614 265.309 52.7929 265.435 52.8349V54.148C265.267 54.1059 265.089 54.0744 264.847 54.0744C264.196 54.0744 263.776 54.4316 263.576 54.7677V58.1606H262.242ZM267.744 58.3181C266.683 58.3181 265.958 57.7089 265.958 56.732C265.958 55.9337 266.578 55.3349 267.712 55.1459L269.33 54.8727V54.7362C269.33 54.1795 268.91 53.8223 268.301 53.8223C267.786 53.8223 267.387 54.0639 267.103 54.4526L266.126 53.7068C266.599 53.0555 267.376 52.6564 268.343 52.6564C269.876 52.6564 270.664 53.5702 270.664 54.7362V58.1606H269.33V57.6459C268.994 58.0555 268.364 58.3181 267.744 58.3181ZM267.282 56.669C267.282 57.0261 267.565 57.2572 268.017 57.2572C268.626 57.2572 269.068 56.9736 269.33 56.5534V55.8076L268.07 56.0177C267.513 56.1122 267.282 56.3433 267.282 56.669ZM272.192 58.1606V50.2824H273.526V58.1606H272.192ZM280 57.2992C279.506 57.961 278.687 58.3707 277.689 58.3707C275.809 58.3707 274.748 57.0576 274.748 55.5135C274.748 53.9484 275.735 52.6564 277.468 52.6564C278.939 52.6564 279.905 53.6543 279.905 55.0408C279.905 55.3349 279.863 55.608 279.821 55.7866H276.113C276.24 56.774 276.849 57.1732 277.679 57.1732C278.256 57.1732 278.761 56.9211 279.044 56.5429L280 57.2992ZM277.437 53.7488C276.754 53.7488 276.303 54.1269 276.155 54.8202H278.592C278.571 54.2845 278.183 53.7488 277.437 53.7488ZM187.072 70.0578C187.072 68.5137 188.091 67.2007 189.761 67.2007C190.476 67.2007 190.99 67.4213 191.4 67.8309V64.8267H192.745V72.7049H191.4V72.2847C190.99 72.6944 190.476 72.915 189.761 72.915C188.091 72.915 187.072 71.602 187.072 70.0578ZM188.469 70.0578C188.469 70.9822 189.047 71.6545 189.95 71.6545C190.549 71.6545 191.043 71.4024 191.4 70.9192V69.1965C191.043 68.7133 190.549 68.4612 189.95 68.4612C189.047 68.4612 188.469 69.1335 188.469 70.0578ZM199.218 71.8436C198.724 72.5053 197.905 72.915 196.907 72.915C195.026 72.915 193.965 71.602 193.965 70.0578C193.965 68.4927 194.953 67.2007 196.686 67.2007C198.157 67.2007 199.123 68.1986 199.123 69.5851C199.123 69.8793 199.081 70.1524 199.039 70.3309H195.331C195.457 71.3183 196.066 71.7175 196.896 71.7175C197.474 71.7175 197.978 71.4654 198.262 71.0872L199.218 71.8436ZM196.655 68.2931C195.972 68.2931 195.52 68.6713 195.373 69.3646H197.81C197.789 68.8288 197.4 68.2931 196.655 68.2931ZM199.893 71.9381L200.775 71.1398C201.101 71.5494 201.49 71.8436 201.994 71.8436C202.425 71.8436 202.645 71.5914 202.645 71.2763C202.645 70.3519 200.114 70.6986 200.114 68.8393C200.114 67.9045 200.901 67.2007 202.004 67.2007C202.813 67.2007 203.549 67.5893 203.927 68.104L203.044 68.8814C202.771 68.5452 202.425 68.2721 202.015 68.2721C201.595 68.2721 201.395 68.5032 201.395 68.7763C201.395 69.6797 203.927 69.3646 203.927 71.1923C203.906 72.3057 203.013 72.915 202.015 72.915C201.07 72.915 200.397 72.5368 199.893 71.9381ZM208.271 72.7049V65.3519H212.556V66.5914H209.762V68.3351H212.136V69.5746H209.762V71.4654H212.556V72.7049H208.271ZM214.091 72.7049V67.4108H215.425V67.8309C215.792 67.4738 216.286 67.2007 216.99 67.2007C218.135 67.2007 219.049 67.9885 219.049 69.5536V72.7049H217.704V69.6062C217.704 68.9024 217.305 68.4612 216.654 68.4612C215.982 68.4612 215.624 68.9129 215.425 69.249V72.7049H214.091ZM220.899 70.7721V68.6082H219.912V67.4108H220.899V66.0872H222.244V67.4108H223.861V68.6082H222.244V70.7721C222.244 71.3604 222.559 71.5915 223.084 71.5915C223.452 71.5915 223.693 71.5494 223.872 71.4759V72.6419C223.609 72.7574 223.294 72.8099 222.853 72.8099C221.529 72.8099 220.899 72.0641 220.899 70.7721ZM225.056 72.7049V67.4108H226.39V67.936C226.737 67.5788 227.189 67.3057 227.787 67.3057C227.966 67.3057 228.124 67.3372 228.25 67.3793V68.6923C228.082 68.6503 227.903 68.6188 227.661 68.6188C227.01 68.6188 226.59 68.9759 226.39 69.312V72.7049H225.056ZM233.972 71.8436C233.478 72.5053 232.659 72.915 231.661 72.915C229.781 72.915 228.72 71.602 228.72 70.0578C228.72 68.4927 229.707 67.2007 231.441 67.2007C232.911 67.2007 233.878 68.1986 233.878 69.5851C233.878 69.8793 233.836 70.1524 233.793 70.3309H230.085C230.212 71.3183 230.821 71.7175 231.651 71.7175C232.228 71.7175 232.733 71.4654 233.016 71.0872L233.972 71.8436ZM231.409 68.2931C230.726 68.2931 230.275 68.6713 230.128 69.3646H232.565C232.543 68.8288 232.155 68.2931 231.409 68.2931ZM235.181 75.2889V67.4108H236.515V67.8414C236.925 67.4318 237.439 67.2007 238.164 67.2007C239.845 67.2007 240.853 68.5137 240.853 70.0578C240.853 71.602 239.845 72.915 238.164 72.915C237.439 72.915 236.925 72.6839 236.515 72.2742V75.2889H235.181ZM237.975 68.4612C237.355 68.4612 236.851 68.7343 236.515 69.228V70.8877C236.872 71.3919 237.366 71.6545 237.975 71.6545C238.878 71.6545 239.467 70.9822 239.467 70.0578C239.467 69.1335 238.878 68.4612 237.975 68.4612ZM242.075 72.7049V67.4108H243.409V67.936C243.756 67.5788 244.207 67.3057 244.806 67.3057C244.985 67.3057 245.142 67.3372 245.268 67.3793V68.6923C245.1 68.6503 244.922 68.6188 244.68 68.6188C244.029 68.6188 243.608 68.9759 243.409 69.312V72.7049H242.075ZM247.014 66.4864C246.542 66.4864 246.142 66.0872 246.142 65.6145C246.142 65.1419 246.542 64.7427 247.014 64.7427C247.487 64.7427 247.876 65.1419 247.876 65.6145C247.876 66.0872 247.487 66.4864 247.014 66.4864ZM246.342 72.7049V67.4108H247.676V72.7049H246.342ZM248.742 71.9381L249.624 71.1398C249.95 71.5494 250.338 71.8436 250.843 71.8436C251.273 71.8436 251.494 71.5914 251.494 71.2763C251.494 70.3519 248.962 70.6986 248.962 68.8393C248.962 67.9045 249.75 67.2007 250.853 67.2007C251.662 67.2007 252.397 67.5893 252.775 68.104L251.893 68.8814C251.62 68.5452 251.273 68.2721 250.864 68.2721C250.444 68.2721 250.244 68.5032 250.244 68.7763C250.244 69.6797 252.775 69.3646 252.775 71.1923C252.754 72.3057 251.862 72.915 250.864 72.915C249.918 72.915 249.246 72.5368 248.742 71.9381ZM258.858 71.8436C258.365 72.5053 257.545 72.915 256.547 72.915C254.667 72.915 253.606 71.602 253.606 70.0578C253.606 68.4927 254.593 67.2007 256.327 67.2007C257.797 67.2007 258.764 68.1986 258.764 69.5851C258.764 69.8793 258.722 70.1524 258.68 70.3309H254.972C255.098 71.3183 255.707 71.7175 256.537 71.7175C257.115 71.7175 257.619 71.4654 257.902 71.0872L258.858 71.8436ZM256.295 68.2931C255.612 68.2931 255.161 68.6713 255.014 69.3646H257.451C257.43 68.8288 257.041 68.2931 256.295 68.2931ZM259.533 71.9381L260.415 71.1398C260.741 71.5494 261.13 71.8436 261.634 71.8436C262.064 71.8436 262.285 71.5914 262.285 71.2763C262.285 70.3519 259.754 70.6986 259.754 68.8393C259.754 67.9045 260.541 67.2007 261.644 67.2007C262.453 67.2007 263.188 67.5893 263.567 68.104L262.684 68.8814C262.411 68.5452 262.064 68.2721 261.655 68.2721C261.235 68.2721 261.035 68.5032 261.035 68.7763C261.035 69.6797 263.567 69.3646 263.567 71.1923C263.546 72.3057 262.653 72.915 261.655 72.915C260.709 72.915 260.037 72.5368 259.533 71.9381Z" fill="#161616"/>
</g>
<defs>
<clipPath id="clip0_2591_11508">
<rect width="280" height="120" fill="white" transform="translate(0 0.556641)"/>
</clipPath>
</defs>
</svg>
