<svg width="341" height="121" viewBox="0 0 341 121" fill="none" xmlns="http://www.w3.org/2000/svg">
<g clip-path="url(#clip0_2591_11536)">
<path d="M29.5091 21.0841H0.540039V31.6183H29.5091V21.0841Z" fill="white"/>
<path d="M9.89843 30.3454C9.92476 30.3279 9.9511 30.3015 9.97743 30.2664C9.97743 30.2664 9.97743 30.2664 9.96866 30.2664C9.94232 30.2928 9.91598 30.3191 9.88965 30.3542L9.89843 30.3454Z" fill="#000091"/>
<path d="M13.7695 29.0375L13.708 29.0902C13.708 29.0902 13.7695 29.0727 13.7695 29.0375Z" fill="#000091"/>
<path fill-rule="evenodd" clip-rule="evenodd" d="M12.5139 30.3717C12.628 30.2576 12.7422 30.1435 12.8475 30.0118C13.0582 29.7748 13.2601 29.5465 13.5059 29.3359C13.5849 29.2656 13.6551 29.213 13.7166 29.1603C13.7254 29.1515 13.7341 29.134 13.7341 29.1164C13.7341 29.0988 13.7429 29.0901 13.7517 29.0813C13.699 29.0988 13.6639 29.1252 13.6288 29.1603C13.5849 29.1866 13.5498 29.2217 13.4971 29.2393C13.4796 29.2393 13.4532 29.2217 13.4796 29.1954C13.5498 29.1427 13.62 29.0901 13.6902 29.0374H13.6727C13.6727 29.0374 13.6551 29.0198 13.6551 28.9935C13.4006 28.9496 13.2074 29.1252 13.0319 29.2832H13.0231C13.0231 29.2832 12.9704 29.292 12.9528 29.2832C12.9441 29.2832 12.9353 29.2744 12.9265 29.2744C12.7685 29.3271 12.6368 29.4236 12.5051 29.5202C12.3822 29.608 12.2593 29.6958 12.1189 29.7572V29.7133C12.075 29.7309 12.0223 29.7484 11.9784 29.7748C11.9082 29.8099 11.838 29.8362 11.7677 29.8538C11.6361 29.8889 11.5132 29.8801 11.3903 29.8801C11.3552 29.8801 11.3113 29.8801 11.2762 29.8801C11.0567 29.8977 10.846 29.9504 10.6265 29.9942L10.5563 30.0118C10.5563 30.0118 10.5563 30.0118 10.5475 30.0118C10.5475 30.0118 10.5475 30.0118 10.5388 30.0118C10.4071 30.0469 10.293 30.0908 10.1701 30.161H10.1525C10.1525 30.161 10.1437 30.1786 10.1349 30.1874C10.1349 30.1874 10.1262 30.1962 10.1174 30.2049C10.0735 30.2488 10.0384 30.2927 9.98571 30.3278C9.89793 30.3717 9.8277 30.4332 9.75747 30.5034C9.72236 30.5297 9.69602 30.5561 9.66091 30.5824C9.66091 30.5824 9.64335 30.5912 9.63457 30.5912C9.52923 30.6965 9.42389 30.7931 9.31855 30.8984C9.31855 30.8984 9.28343 30.9072 9.2571 30.8984V30.8809L9.31855 30.8019C9.32732 30.7843 9.3361 30.7668 9.34488 30.758C9.35366 30.7404 9.36244 30.7229 9.37122 30.7141C9.39755 30.6702 9.42389 30.6351 9.459 30.5912C9.459 30.5824 9.459 30.5736 9.459 30.5649C9.459 30.5649 9.44145 30.5561 9.43267 30.5561C9.52923 30.4595 9.64335 30.3805 9.76625 30.3103C9.76625 30.3103 9.73114 30.3015 9.73991 30.2839C9.74869 30.2752 9.75747 30.2576 9.76625 30.24V30.2225H9.77503L9.75747 30.24C9.75747 30.24 9.7048 30.2752 9.68724 30.2927C9.66969 30.3015 9.66091 30.3191 9.64335 30.3454C9.60824 30.3893 9.5819 30.4244 9.52923 30.4244C9.52923 30.4244 9.51167 30.4244 9.50289 30.4244C9.49412 30.4244 9.48534 30.4244 9.48534 30.4244C9.48534 30.4244 9.48534 30.4068 9.49412 30.3981C9.49412 30.3981 9.5029 30.3805 9.51167 30.3717C9.51167 30.3717 9.51167 30.3542 9.52923 30.3454C9.52923 30.3454 9.52923 30.3278 9.54679 30.3278C9.54679 30.3278 9.54679 30.3191 9.55557 30.3103C9.55557 30.3103 9.55557 30.3015 9.56434 30.2927C9.57312 30.2752 9.56434 30.2576 9.54679 30.2576C9.5819 30.2137 9.62579 30.1698 9.67846 30.1347C9.72236 30.1084 9.77503 30.082 9.81892 30.0557C9.84526 30.0381 9.87159 30.0206 9.90671 30.0118C9.91548 30.003 9.92426 29.9942 9.94182 29.9855C9.8277 30.0206 9.73114 30.0733 9.62579 30.1435C9.62579 30.1435 9.59946 30.1523 9.59068 30.161C9.59068 30.161 9.57312 30.161 9.54679 30.1435C9.54679 30.1435 9.54679 30.1435 9.54679 30.1259C9.55557 30.0996 9.5819 30.082 9.60824 30.0733C9.62579 30.0645 9.64335 30.0469 9.66091 30.0294C9.67846 30.0294 9.69602 30.0294 9.69602 30.0469C10.0911 29.7397 10.5739 29.6694 11.0567 29.5992C11.3552 29.5553 11.6536 29.5114 11.9345 29.4149C11.9609 29.3973 11.996 29.371 12.0223 29.3534C12.0487 29.3359 12.0838 29.3183 12.1101 29.292C12.1628 29.2744 12.2067 29.2393 12.2506 29.1954C12.2945 29.1603 12.3471 29.1164 12.4086 29.0901C12.5666 28.9672 12.6807 28.8355 12.7422 28.6336C12.7422 28.616 12.7246 28.5897 12.7246 28.5897C12.47 28.8706 12.1716 29.0901 11.8555 29.2481C11.5571 29.4061 11.2323 29.4324 10.9075 29.45C10.7846 29.4588 10.6704 29.4675 10.5475 29.4851C10.5651 29.4412 10.609 29.4412 10.6441 29.4412C10.6441 29.3885 10.6704 29.371 10.6968 29.3446C10.6968 29.3446 10.7143 29.3271 10.7231 29.3183H10.7846C10.7846 29.3183 10.8021 29.3095 10.8021 29.3007C10.8021 29.292 10.8109 29.2832 10.8197 29.2832C10.8636 29.2832 10.9162 29.2656 10.8987 29.2656C10.8636 29.2217 10.8197 29.2393 10.7758 29.2656C10.7319 29.2832 10.6792 29.3007 10.6265 29.2656C10.6441 29.2481 10.6529 29.2217 10.6529 29.2042C10.6529 29.1778 10.6617 29.1603 10.6792 29.1515H10.7582L10.8021 29.0725C10.9777 28.9672 11.1533 28.8706 11.32 28.7828C11.4342 28.7214 11.5395 28.6599 11.6536 28.5985C11.6273 28.5985 11.6097 28.6072 11.5922 28.616C11.5658 28.6336 11.5307 28.6424 11.4956 28.616C11.5132 28.616 11.5132 28.5985 11.5132 28.5897C11.5132 28.5809 11.5132 28.5634 11.5307 28.5634C11.6624 28.5282 11.7677 28.4756 11.8906 28.4141C11.9697 28.3702 12.0574 28.3351 12.1452 28.3C12.1189 28.3 12.0926 28.3 12.0662 28.3176C12.0223 28.3351 11.9784 28.3439 11.9258 28.3C11.9433 28.3 11.9521 28.2824 11.9609 28.2737C11.9784 28.2561 12.0048 28.2385 12.0487 28.2385V28.1771C12.0487 28.1771 12.0662 28.1595 12.0926 28.1595C12.075 28.1595 12.0487 28.142 12.0487 28.142C12.0574 28.1244 12.0838 28.1156 12.1013 28.1069C12.1189 28.1069 12.1452 28.0981 12.1628 28.0805C12.1452 28.0805 12.1013 28.0805 12.1013 28.063C12.1628 27.984 12.2593 27.9664 12.3559 27.9401C12.3471 27.9225 12.3296 27.9225 12.312 27.9225C12.2945 27.9225 12.2769 27.9225 12.2769 27.905C12.2769 27.8874 12.2945 27.8874 12.3208 27.8874H12.2769C12.2769 27.8874 12.2506 27.8435 12.2506 27.826C12.2506 27.826 12.2506 27.8172 12.2506 27.8084C12.3296 27.7118 12.3559 27.6065 12.3822 27.4924C12.391 27.4397 12.4086 27.387 12.4261 27.3344C12.4086 27.3344 12.3822 27.3344 12.3822 27.3168C12.1891 27.5275 11.8906 27.6065 11.601 27.6855H11.5746H11.4781C11.3815 27.7294 11.241 27.7294 11.1445 27.6679C11.1006 27.6416 11.0655 27.6153 11.0304 27.5802C11.004 27.5538 10.9777 27.5363 10.9513 27.5099C10.7933 27.4134 10.6353 27.3344 10.4598 27.2729C9.96816 27.1149 9.45022 27.0359 8.94107 27.0534C9.08153 26.9744 9.23954 26.9393 9.38877 26.913C9.46778 26.8954 9.54679 26.8779 9.62579 26.8603C9.67846 26.8428 9.72236 26.834 9.77503 26.8164C10.0559 26.7286 10.3281 26.6496 10.6353 26.6672C10.6002 26.6496 10.5475 26.6584 10.4949 26.6672C10.4773 26.6672 10.451 26.6672 10.4334 26.6672C10.2052 26.6496 9.97693 26.7023 9.73991 26.755C9.68724 26.7638 9.63457 26.7813 9.59068 26.7901C9.49412 26.8076 9.40633 26.834 9.31855 26.8691C9.22198 26.9042 9.12542 26.9305 9.02008 26.9481C8.97618 26.9657 8.94107 26.992 8.90596 27.0183C8.84451 27.0622 8.79184 27.0973 8.70405 27.0886V27.0271C8.89718 26.7901 9.14298 26.5531 9.459 26.5355C9.76625 26.4828 10.0559 26.518 10.3544 26.5619C10.4071 26.5619 10.4598 26.5706 10.5036 26.5794C10.7494 26.597 10.9777 26.6584 11.2323 26.7111H11.2586C11.3113 26.7111 11.3464 26.7638 11.3727 26.8076C11.3991 26.8428 11.4166 26.8779 11.4517 26.8954C11.5044 26.913 11.5483 26.913 11.601 26.9218C11.6712 26.9218 11.7414 26.9305 11.8116 26.9744C11.8116 26.9569 11.8116 26.9481 11.8116 26.9305C11.8116 26.9042 11.8029 26.8779 11.8116 26.8515C11.8555 26.8076 11.9082 26.8164 11.9521 26.834C11.9872 26.8428 12.0311 26.8515 12.0662 26.834C12.1716 26.7638 12.0662 26.6672 11.9697 26.5619C11.917 26.5092 11.8731 26.4653 11.8468 26.4214C11.8468 26.4038 11.8643 26.3775 11.8643 26.3775C11.9082 26.4214 11.9521 26.4565 11.996 26.5004C12.1013 26.6057 12.1979 26.7023 12.3384 26.7725C12.4349 26.8164 12.6719 26.8691 12.6368 26.755C12.5666 26.597 12.4437 26.4653 12.3296 26.3336C12.2769 26.2809 12.233 26.2195 12.1803 26.1668V26.0878C12.1803 26.0878 12.1452 26.079 12.1364 26.0615C12.1364 26.0615 12.1364 26.0527 12.1277 26.0439V25.9649C12.075 25.9386 12.0662 25.8947 12.0574 25.8596C12.0574 25.8332 12.0487 25.8157 12.0311 25.7893C11.996 25.7367 11.996 25.6664 11.996 25.5962C11.996 25.5435 11.996 25.4821 11.9697 25.4294C11.9258 25.3065 11.9082 25.21 11.8906 25.0871C11.8643 24.9642 11.8468 24.85 11.8204 24.7359C11.7765 24.534 11.7414 24.3409 11.7151 24.139C11.68 23.8493 11.8292 23.6035 11.9784 23.3489C12.0223 23.2787 12.0662 23.1997 12.1101 23.1207C12.2506 22.8837 12.4086 22.6466 12.6632 22.4886C12.7158 22.2516 12.8738 22.0585 13.0231 21.8654V21.8478C13.1811 21.6634 13.4357 21.5493 13.62 21.4615H13.6376C13.9097 21.3299 14.1643 21.2509 14.1643 21.2509H0.540039V31.7851H10.2315C10.4949 31.6007 10.7494 31.4778 11.0567 31.3374C11.1971 31.2759 11.3464 31.2057 11.5132 31.1179C11.5483 31.1003 11.5922 31.0828 11.6361 31.0564C11.917 30.916 12.3559 30.7053 12.5227 30.5385L12.5139 30.3717ZM9.44145 28.9496C9.44145 28.9496 9.36244 28.9496 9.38 28.9233C9.39755 28.853 9.46778 28.8355 9.53801 28.8091C9.56434 28.8091 9.59946 28.7916 9.61702 28.7828H9.62579V28.774C9.66091 28.7565 9.71358 28.7301 9.74869 28.7389C9.77503 28.774 9.80136 28.7828 9.8277 28.7916C9.84526 28.7916 9.87159 28.8004 9.88915 28.8179C9.81892 28.8882 9.73114 28.8969 9.64335 28.9057C9.5819 28.9057 9.52923 28.9145 9.46778 28.9408C9.459 28.9408 9.44145 28.9408 9.43267 28.9408L9.44145 28.9496ZM6.43042 28.4756L6.44797 28.5195C6.92201 27.984 7.35216 27.5275 7.96666 27.1412C7.98421 27.1412 7.97543 27.1412 7.96666 27.15C7.95788 27.1676 7.94032 27.1939 7.98421 27.1763C8.18612 27.1325 8.2739 26.9569 8.37047 26.7901C8.3968 26.7462 8.41436 26.7023 8.4407 26.6584C8.53726 26.5092 8.66894 26.4126 8.80061 26.3161C8.89718 26.2458 8.99374 26.1756 9.07275 26.079C9.07275 26.0966 9.07275 26.1229 9.05519 26.1405C9.07275 26.158 9.09908 26.158 9.11664 26.158C9.15176 26.1317 9.19565 26.1229 9.23076 26.1054C9.27465 26.0878 9.32732 26.079 9.35366 26.0351C9.19565 25.9737 8.99374 25.9561 8.84451 26.0176C8.43192 26.2195 8.072 26.5355 7.73841 26.8954C7.53651 27.1149 7.32582 27.3168 7.06247 27.4573C6.8869 27.8172 6.68499 28.1332 6.43042 28.4668V28.4756ZM8.08956 27.2027C8.08956 27.2027 8.072 27.2378 8.05444 27.2466C8.04566 27.2554 8.03688 27.2641 8.02811 27.2817C8.01055 27.3256 7.98421 27.3431 7.9491 27.3607C7.93154 27.3607 7.90521 27.3607 7.90521 27.3431C7.92276 27.2641 7.98421 27.1851 8.06322 27.1676C8.08078 27.1676 8.08078 27.1939 8.08078 27.2115L8.08956 27.2027ZM8.95863 30.24C8.95863 30.24 8.99374 30.2049 9.00252 30.1786C9.02008 30.1347 8.91473 30.1523 8.89718 30.161C8.87962 30.1698 8.87084 30.1874 8.86206 30.2049C8.86206 30.2049 8.83573 30.24 8.81817 30.2576C8.80939 30.2664 8.79184 30.2752 8.78306 30.2927C8.73917 30.3366 8.68649 30.3893 8.63382 30.4332C8.59871 30.4595 8.71283 30.4771 8.73039 30.4595C8.75672 30.442 8.78306 30.4156 8.80939 30.3893C8.81817 30.3893 8.82695 30.3893 8.83573 30.3893C8.8884 30.3717 8.93229 30.3278 8.97618 30.2927H8.98496C8.98496 30.2927 8.98496 30.2576 8.95863 30.2488V30.24ZM8.65138 30.0118C8.63382 30.0294 8.60749 30.0381 8.58993 30.0557C8.53726 30.0908 8.48459 30.1347 8.43192 30.161C8.37925 30.1874 8.32657 30.2137 8.26513 30.24C8.23001 30.2576 8.20368 30.2664 8.16856 30.2839C8.16856 30.2752 8.151 30.2664 8.13345 30.2839C8.05444 30.3278 7.99299 30.3805 7.94032 30.442C7.93154 30.442 7.92276 30.4595 7.91398 30.4683L7.88765 30.5034C7.88765 30.5034 7.86131 30.5297 7.84376 30.5561C7.84376 30.5561 7.84376 30.5561 7.83498 30.5649C7.83498 30.5649 7.8262 30.5736 7.81742 30.5824C7.79986 30.5824 7.77353 30.5824 7.77353 30.5649C7.77353 30.5649 7.74719 30.5736 7.73841 30.5824C7.73841 30.5824 7.72964 30.5824 7.72086 30.5824C7.72086 30.5824 7.71208 30.5824 7.7033 30.5824C7.7033 30.5824 7.69452 30.5824 7.68574 30.5824C7.67697 30.5824 7.67697 30.5824 7.66819 30.5824C7.66819 30.5824 7.65063 30.6 7.64185 30.6C7.62429 30.6087 7.60674 30.6263 7.59796 30.6439C7.55407 30.679 7.51895 30.7229 7.48384 30.7668V30.7755C7.48384 30.7755 7.48384 30.7931 7.46628 30.8019C7.46628 30.8019 7.4575 30.8019 7.44872 30.8019C7.44872 30.8019 7.44872 30.8019 7.44872 30.7931C7.44872 30.7931 7.44872 30.7843 7.44872 30.7755C7.44872 30.7755 7.44872 30.7668 7.44872 30.758L7.51017 30.6877C7.51017 30.6877 7.51017 30.679 7.51895 30.6702C7.51895 30.6702 7.51895 30.6702 7.52773 30.6614C7.52773 30.6614 7.53651 30.6439 7.54529 30.6439C7.54529 30.6439 7.55407 30.6263 7.56284 30.6263C7.5804 30.6 7.60674 30.5736 7.62429 30.5385C7.62429 30.5385 7.62429 30.5297 7.62429 30.521C7.63307 30.5034 7.64185 30.4946 7.65063 30.4771L7.66819 30.4332C7.66819 30.4332 7.66819 30.4156 7.67697 30.4068C7.67697 30.4068 7.67697 30.3893 7.68574 30.3805V30.3629C7.68574 30.3629 7.68574 30.3629 7.68574 30.3542C7.68574 30.3454 7.68574 30.3542 7.68574 30.3454V30.3278C7.68574 30.3278 7.68574 30.3191 7.68574 30.3103C7.68574 30.3103 7.68574 30.3015 7.68574 30.2927C7.7033 30.2576 7.72964 30.2225 7.76475 30.1874C7.74719 30.1962 7.73842 30.2137 7.72086 30.2225C7.71208 30.2313 7.7033 30.24 7.68574 30.2488C7.66819 30.2664 7.62429 30.24 7.65063 30.2137C7.66819 30.1962 7.67697 30.1874 7.69452 30.1698C7.71208 30.161 7.72086 30.1435 7.73841 30.1259C7.75597 30.1084 7.78231 30.082 7.79986 30.0645C7.8262 30.0469 7.84376 30.0294 7.86131 30.0206C7.86131 30.0206 7.86131 30.0206 7.87009 30.0206C7.88765 30.003 7.89643 29.9855 7.91398 29.9679C8.02811 29.8538 8.1949 29.8187 8.36169 29.7748C8.46703 29.7484 8.57237 29.7221 8.66894 29.6782C8.72161 29.6519 8.78306 29.6607 8.84451 29.6782C8.8884 29.6782 8.94107 29.6958 8.98496 29.6782C9.04641 29.6782 9.10786 29.6782 9.16053 29.7221C9.02886 29.7923 8.89718 29.8713 8.77428 29.9591C8.73916 29.9855 8.70405 30.003 8.66016 30.0294L8.65138 30.0118ZM9.08153 28.6248C9.08153 28.6248 9.05519 28.6248 9.06397 28.6336C9.12542 28.695 9.23954 28.6687 9.31855 28.6336C9.38 28.5897 9.44145 28.5897 9.51167 28.5897C9.52923 28.5897 9.52923 28.5546 9.52923 28.5282C9.59068 28.5458 9.62579 28.5458 9.68724 28.5458C10.1613 28.4492 10.6178 28.3439 11.0479 28.1244C10.609 27.7821 10.0647 27.6328 9.52923 27.4836C9.44145 27.4573 9.35366 27.4309 9.26587 27.4134C9.28343 27.4134 9.30099 27.4134 9.32732 27.4221C9.36244 27.4309 9.40633 27.4485 9.45022 27.4134C9.39755 27.3695 9.3361 27.3607 9.27465 27.3519C9.22198 27.3519 9.17809 27.3344 9.1342 27.308C9.1342 27.308 9.14298 27.308 9.15176 27.308C9.16931 27.308 9.19565 27.3168 9.2132 27.2817C9.10786 27.229 9.00252 27.2115 8.90596 27.1939C8.85328 27.1851 8.80061 27.1763 8.74794 27.1588C8.84451 27.1412 8.90596 27.0622 8.90596 26.9569C8.90596 26.9393 8.86206 26.9393 8.84451 26.9393C8.60749 27.0622 8.44947 27.2817 8.35291 27.5363C8.4407 27.5889 8.53726 27.5802 8.63382 27.5802C8.68649 27.5802 8.73916 27.5802 8.79184 27.5802C8.74794 27.6241 8.68649 27.6328 8.62504 27.6416C8.59871 27.6416 8.58115 27.6416 8.55482 27.6592C8.49337 27.6767 8.43192 27.7206 8.45825 27.7557C8.47581 27.7733 8.48459 27.7821 8.50214 27.7821C8.45825 27.7996 8.41436 27.8172 8.37925 27.8523C8.43192 27.8962 8.49337 27.8874 8.54604 27.8786C8.57237 27.8786 8.58993 27.8786 8.61627 27.8786C8.61627 27.905 8.63382 27.9137 8.65138 27.9225C8.66016 27.9225 8.66894 27.9313 8.67772 27.9401C8.58115 27.9752 8.50215 28.063 8.48459 28.1156C8.45825 28.1771 8.41436 28.2122 8.37047 28.2473C8.34413 28.2737 8.30902 28.3 8.29146 28.3263V28.3878C8.23001 28.4492 8.15978 28.5019 8.08956 28.5458C7.9491 28.6511 7.81742 28.7565 7.71208 28.8969C7.72964 28.8969 7.72964 28.9145 7.72964 28.9408C7.71208 28.9672 7.68574 28.9847 7.65941 29.0111C7.63307 29.0286 7.59796 29.0549 7.58918 29.0813C7.58918 29.0988 7.58918 29.1252 7.60674 29.1252C7.72964 29.0813 7.84376 29.0111 7.9491 28.9496C8.04566 28.8882 8.14223 28.8267 8.23879 28.7916C8.32658 28.774 8.3968 28.7301 8.46703 28.695C8.52848 28.6599 8.58993 28.6336 8.65138 28.616C8.70405 28.6072 8.75672 28.5897 8.80939 28.5809C8.86206 28.5634 8.91473 28.5546 8.96741 28.5458C8.96741 28.5634 8.96741 28.5897 8.98496 28.5897H9.14298C9.14298 28.5897 9.09908 28.616 9.08153 28.616V28.6248Z" fill="#000091"/>
<path d="M29.5086 21.0841H18.1843C18.1843 21.0841 18.2019 21.0841 18.2897 21.128C18.3862 21.1719 18.5004 21.2421 18.5706 21.2772C18.7198 21.3562 18.8603 21.444 18.9481 21.5933C18.992 21.6547 19.0446 21.7688 19.0095 21.8478C18.9656 21.9444 18.9481 22.1112 18.8515 22.1463C18.7286 22.2078 18.5706 22.2078 18.4301 22.1902C18.3511 22.1902 18.2721 22.1726 18.1931 22.1463C18.4916 22.2692 18.7725 22.4097 18.9744 22.6818C18.992 22.7257 19.071 22.7432 19.15 22.7432C19.1675 22.7432 19.1675 22.7871 19.1675 22.8047C19.1236 22.8486 19.0885 22.8661 19.1061 22.9276H19.1675C19.2641 22.8837 19.2465 22.6906 19.387 22.752C19.4835 22.8135 19.5274 22.9539 19.466 23.0505C19.387 23.1295 19.308 23.1909 19.229 23.2524C19.2114 23.2963 19.2114 23.349 19.229 23.3929C19.2904 23.4719 19.308 23.5509 19.3255 23.6299C19.387 23.7703 19.4045 23.9283 19.466 24.0688C19.545 24.3673 19.624 24.6657 19.6064 24.9642C19.6064 25.1222 19.5274 25.2627 19.5889 25.4207C19.6328 25.5787 19.7293 25.7016 19.8084 25.8421C19.8874 25.965 19.9664 26.044 20.0278 26.1581C20.1507 26.36 20.3702 26.5531 20.2648 26.7989C20.2034 26.9394 19.9839 26.9218 19.8435 27.0008C19.7206 27.0974 19.8259 27.2642 19.8874 27.3607C19.9839 27.5363 19.7645 27.6592 19.624 27.7207C19.6679 27.7821 19.7469 27.7645 19.7645 27.7997C19.782 27.8962 19.8874 27.9577 19.8259 28.063C19.7469 28.1859 19.5099 28.2386 19.624 28.4229C19.703 28.5634 19.6503 28.7214 19.6064 28.8619C19.545 29.0374 19.387 29.1164 19.2465 29.1603C19.1236 29.2042 18.9832 29.2042 18.8691 29.1779C18.8252 29.1603 18.79 29.134 18.7462 29.134C18.4038 29.0901 18.0702 28.9935 17.7366 28.9935C17.6401 29.0111 17.5347 29.0287 17.4557 29.0725C17.3679 29.134 17.2801 29.213 17.2187 29.2832C17.2187 29.2832 17.1836 29.3183 17.1748 29.3359C17.1748 29.3447 17.1572 29.3535 17.1485 29.371C17.1485 29.371 17.1397 29.3886 17.1309 29.3886C17.0695 29.4588 17.0256 29.5378 16.9729 29.6168C16.9729 29.6168 16.9729 29.6256 16.9641 29.6344C16.9641 29.6431 16.9553 29.6519 16.9466 29.6607C16.8851 29.7836 16.8324 29.9065 16.7973 30.0294C16.6569 30.4859 16.7183 30.8721 16.8149 30.9687C16.8412 30.995 17.4733 31.1882 17.9122 31.3901C18.1141 31.4866 18.2633 31.5481 18.3775 31.6271H29.4998V21.0841H29.5086Z" fill="#E1000F"/>
<path d="M18.8516 24.9203C18.9306 24.9378 19.0535 24.9378 19.0535 24.9817C19.0096 25.1397 18.7726 25.1836 18.6585 25.3416H18.597C18.5356 25.3855 18.5532 25.4821 18.5005 25.4821C18.439 25.4645 18.3776 25.4821 18.3249 25.4997C18.4039 25.5787 18.5005 25.6401 18.6234 25.6226C18.6409 25.6226 18.6848 25.6664 18.6848 25.7016C18.6848 25.7016 18.7024 25.7016 18.7287 25.684C18.7463 25.684 18.7726 25.684 18.7726 25.7016V25.7806C18.7112 25.8596 18.6146 25.8245 18.5356 25.842C18.6936 25.8859 18.8516 25.8859 18.9921 25.842C19.115 25.7981 18.9921 25.605 19.0711 25.4997C19.0272 25.4997 19.0711 25.4382 19.0272 25.4382C19.0711 25.3943 19.1062 25.3416 19.1501 25.3153C19.194 25.3153 19.2467 25.2977 19.273 25.2539C19.273 25.21 19.194 25.1924 19.2115 25.1573C19.3344 25.0783 19.431 24.9554 19.3871 24.8413C19.3696 24.7798 19.2115 24.7798 19.1062 24.7447C19.0096 24.7096 18.8867 24.7447 18.7638 24.7623C18.6673 24.7623 18.5619 24.8237 18.4654 24.8413C18.3249 24.8852 18.202 24.9642 18.0879 25.0432C18.2283 24.9817 18.3688 24.9642 18.5268 24.9203C18.6497 24.9203 18.7463 24.8939 18.8692 24.9203H18.8516Z" fill="#808080"/>
<path d="M1.62988 44.786V37.412H3.49093L5.29052 40.5108L7.09011 37.412H8.95116V44.786H7.45881V39.5013L5.81723 42.2578H4.76381L3.12223 39.5013V44.786H1.62988ZM11.1721 44.786V37.412H12.6645V44.786H11.1721ZM14.8854 44.786V37.412H16.7991L20.0999 42.7406V37.412H21.5922V44.786H19.6785L16.3778 39.4574V44.786H14.8854ZM23.8219 44.786V37.412H25.3143V44.786H23.8219ZM26.8681 43.7677L27.9566 42.7669C28.3956 43.3375 28.9925 43.6711 29.5894 43.6711C30.1864 43.6711 30.5375 43.3551 30.5375 42.8284C30.5375 41.4677 27.1841 41.8364 27.1841 39.3433C27.1841 38.1757 28.1498 37.2013 29.5631 37.2013C30.6692 37.2013 31.5119 37.6929 32.144 38.4479L31.0467 39.4399C30.6165 38.878 30.1337 38.5093 29.5719 38.5093C29.0452 38.5093 28.694 38.8429 28.694 39.2906C28.694 40.625 32.0474 40.2475 32.0474 42.7757C32.0299 44.1627 30.9501 44.9966 29.5894 44.9966C28.3429 44.9966 27.5177 44.5402 26.8593 43.7677H26.8681ZM32.9692 38.7727V37.412H39.0175V38.7727H36.7439V44.786H35.2516V38.7727H32.9779H32.9692ZM41.9759 36.78L40.6152 35.3578H42.1515L43.3453 36.78H41.9759ZM40.4923 44.786V37.412H44.7938V38.6586H41.9935V40.4055H44.3724V41.652H41.9935V43.5482H44.7938V44.7947H40.4923V44.786ZM46.6812 44.786V37.412H48.9373C50.5613 37.412 51.562 38.246 51.562 39.6154C51.562 40.5108 51.1319 41.178 50.3682 41.5204L52.6769 44.786H50.9212L48.9548 41.8013H48.1823V44.786H46.69H46.6812ZM49.025 38.6586H48.1823V40.5635H49.025C49.6571 40.5635 50.0258 40.1948 50.0258 39.5979C50.0258 39.036 49.6571 38.6586 49.025 38.6586ZM53.783 44.786V37.412H58.0845V38.6586H55.2841V40.4055H57.6631V41.652H55.2841V43.5482H58.0845V44.7947H53.783V44.786ZM1.62988 55.3202V47.9462H4.52679C6.86187 47.9462 8.442 49.6405 8.442 51.6332C8.442 53.6259 6.86187 55.3202 4.52679 55.3202H1.62988ZM4.54435 49.3069H3.12223V53.9595H4.54435C5.91379 53.9595 6.90577 52.9412 6.90577 51.6332C6.90577 50.3252 5.91379 49.3069 4.54435 49.3069ZM10.0397 55.3202V47.9462H14.3412V49.1928H11.5408V50.9397H13.9198V52.1862H11.5408V54.0824H14.3412V55.329H10.0397V55.3202ZM19.1254 55.3202V47.9462H20.6178V53.9595H23.4181V55.3202H19.1167H19.1254ZM24.5067 50.9836H23.2601L24.2082 47.9462H25.7269L24.5067 50.9836ZM25.2792 55.3202L28.0707 47.9462H30.0284L32.8199 55.3202H31.231L30.5287 53.4065H27.5791L26.8769 55.3202H25.288H25.2792ZM28.0444 52.1248H30.0635L29.0539 49.3508L28.0444 52.1248ZM37.2443 54.1263C38.087 54.1263 38.7542 53.7137 39.1756 53.1168L40.3519 54.021C39.6759 54.9339 38.5786 55.5309 37.2443 55.5309C34.918 55.5309 33.3291 53.74 33.3291 51.6332C33.3291 49.5264 34.918 47.7355 37.2443 47.7355C38.5786 47.7355 39.6759 48.3325 40.3519 49.2279L39.1756 50.1409C38.7542 49.5439 38.087 49.1313 37.2443 49.1313C35.8573 49.1313 34.8653 50.2199 34.8653 51.6244C34.8653 53.029 35.8573 54.1175 37.2443 54.1175V54.1263ZM41.0454 49.3069V47.9462H47.0938V49.3069H44.8201V55.3202H43.3278V49.3069H41.0542H41.0454ZM48.5686 55.3202V47.9462H50.0609V55.3202H48.5686ZM55.565 47.7355C57.8826 47.7355 59.4715 49.5264 59.4715 51.6332C59.4715 53.74 57.8826 55.5309 55.565 55.5309C53.2475 55.5309 51.6498 53.74 51.6498 51.6332C51.6498 49.5264 53.2387 47.7355 55.565 47.7355ZM55.565 54.1263C56.9433 54.1263 57.9352 53.0378 57.9352 51.6332C57.9352 50.2286 56.9433 49.1401 55.565 49.1401C54.1868 49.1401 53.1861 50.2286 53.1861 51.6332C53.1861 53.0378 54.178 54.1263 55.565 54.1263ZM61.0692 55.3202V47.9462H62.9829L66.2836 53.2748V47.9462H67.7759V55.3202H65.8622L62.5615 49.9916V55.3202H61.0692ZM72.8938 55.3202V47.9462H75.3255C76.9495 47.9462 77.9414 48.7802 77.9414 50.1496C77.9414 51.5191 76.9495 52.3443 75.3255 52.3443H74.3862V55.329H72.8938V55.3202ZM75.3869 49.1928H74.3862V51.0977H75.3869C76.019 51.0977 76.3964 50.729 76.3964 50.1321C76.3964 49.5703 76.019 49.1928 75.3869 49.1928ZM83.6826 52.5637V47.9462H85.1749V52.432C85.1749 54.3721 84.0337 55.5309 82.1815 55.5309C80.3292 55.5309 79.1968 54.3721 79.1968 52.432V47.9462H80.6891V52.5637C80.6891 53.5557 81.2509 54.1351 82.1815 54.1351C83.112 54.1351 83.665 53.5557 83.665 52.5637H83.6826ZM87.194 55.3202V47.9462H89.3623C90.8985 47.9462 91.8378 48.7012 91.8378 49.9477C91.8378 50.5447 91.5657 51.0626 91.0478 51.405C91.829 51.7561 92.2592 52.3882 92.2592 53.1519C92.2592 54.5038 91.2146 55.3202 89.5203 55.3202H87.194ZM89.3974 49.1928H88.6951V50.8607H89.3974C89.968 50.8607 90.3016 50.5534 90.3016 50.018C90.3016 49.4825 89.968 49.1928 89.3974 49.1928ZM89.6081 52.0985H88.6951V54.0824H89.6081C90.3016 54.0824 90.723 53.7137 90.723 53.0904C90.723 52.4672 90.3016 52.0985 89.6081 52.0985ZM93.9534 55.3202V47.9462H95.4458V53.9595H98.2461V55.3202H93.9447H93.9534ZM99.7297 55.3202V47.9462H101.222V55.3202H99.7297ZM109.623 55.127C110.194 55.645 110.694 55.8293 111.168 55.8293C111.326 55.8293 111.537 55.8118 111.695 55.7415V57.0056C111.449 57.1022 111.238 57.1461 110.914 57.1461C110.088 57.1461 109.333 56.8125 108.605 56.1805L107.727 55.3992C107.411 55.487 107.077 55.5221 106.717 55.5221C104.391 55.5221 102.802 53.7313 102.802 51.6244C102.802 49.5176 104.391 47.7268 106.717 47.7268C109.044 47.7268 110.624 49.5176 110.624 51.6244C110.624 52.8534 110.08 53.9858 109.167 54.6969L109.606 55.1183L109.623 55.127ZM106.726 54.1263C108.104 54.1263 109.096 53.0378 109.096 51.6332C109.096 50.2286 108.104 49.1401 106.726 49.1401C105.348 49.1401 104.347 50.2286 104.347 51.6332C104.347 53.0378 105.339 54.1263 106.726 54.1263ZM116.576 52.5637V47.9462H118.068V52.432C118.068 54.3721 116.927 55.5309 115.075 55.5309C113.222 55.5309 112.09 54.3721 112.09 52.432V47.9462H113.582V52.5637C113.582 53.5557 114.144 54.1351 115.075 54.1351C116.005 54.1351 116.558 53.5557 116.558 52.5637H116.576ZM120.087 55.3202V47.9462H124.389V49.1928H121.588V50.9397H123.967V52.1862H121.588V54.0824H124.389V55.329H120.087V55.3202ZM126.785 57.0056H125.539L126.495 53.8542H128.005L126.785 57.0056ZM1.62988 65.8544V58.4804H4.52679C6.86187 58.4804 8.442 60.1747 8.442 62.1674C8.442 64.1601 6.86187 65.8544 4.52679 65.8544H1.62988ZM4.54435 59.8411H3.12223V64.4937H4.54435C5.91379 64.4937 6.90577 63.4754 6.90577 62.1674C6.90577 60.8594 5.91379 59.8411 4.54435 59.8411ZM10.0397 65.8544V58.4804H14.3412V59.727H11.5408V61.4739H13.9198V62.7205H11.5408V64.6166H14.3412V65.8632H10.0397V65.8544ZM19.1254 65.8544V58.4804H20.6178V64.4937H23.4181V65.8544H19.1167H19.1254ZM24.296 65.8544L27.0876 58.4804H29.0452L31.8367 65.8544H30.2478L29.5455 63.9407H26.596L25.8937 65.8544H24.3048H24.296ZM27.0524 62.659H29.0715L28.062 59.885L27.0524 62.659ZM36.0241 65.8544V58.4804H40.3255V59.727H37.5252V61.4739H39.9042V62.7205H37.5252V65.8632H36.0329L36.0241 65.8544ZM45.0659 58.2698C47.3835 58.2698 48.9724 60.0606 48.9724 62.1674C48.9724 64.2743 47.3835 66.0651 45.0659 66.0651C42.7484 66.0651 41.1507 64.2743 41.1507 62.1674C41.1507 60.0606 42.7396 58.2698 45.0659 58.2698ZM45.0659 64.6605C46.4442 64.6605 47.4361 63.572 47.4361 62.1674C47.4361 60.7628 46.4442 59.6743 45.0659 59.6743C43.6877 59.6743 42.687 60.7628 42.687 62.1674C42.687 63.572 43.6789 64.6605 45.0659 64.6605ZM50.5613 65.8544V58.4804H52.475L55.7757 63.809V58.4804H57.2681V65.8544H55.3543L52.0536 60.5258V65.8544H50.5613ZM62.781 64.6605C63.6237 64.6605 64.2909 64.2479 64.7122 63.651L65.8886 64.5552C65.2126 65.4681 64.1153 66.0651 62.781 66.0651C60.4547 66.0651 58.8658 64.2743 58.8658 62.1674C58.8658 60.0606 60.4547 58.2698 62.781 58.2698C64.1153 58.2698 65.2126 58.8667 65.8886 59.7621L64.7122 60.6751C64.2909 60.0781 63.6237 59.6655 62.781 59.6655C61.394 59.6655 60.402 60.7541 60.402 62.1586C60.402 63.5632 61.394 64.6517 62.781 64.6517V64.6605ZM66.5821 59.8411V58.4804H72.6305V59.8411H70.3568V65.8544H68.8645V59.8411H66.5908H66.5821ZM74.1052 65.8544V58.4804H75.5976V65.8544H74.1052ZM81.1017 58.2698C83.4192 58.2698 85.0081 60.0606 85.0081 62.1674C85.0081 64.2743 83.4192 66.0651 81.1017 66.0651C78.7842 66.0651 77.1865 64.2743 77.1865 62.1674C77.1865 60.0606 78.7754 58.2698 81.1017 58.2698ZM81.1017 64.6605C82.4799 64.6605 83.4719 63.572 83.4719 62.1674C83.4719 60.7628 82.4799 59.6743 81.1017 59.6743C79.7235 59.6743 78.7227 60.7628 78.7227 62.1674C78.7227 63.572 79.7147 64.6605 81.1017 64.6605ZM86.6058 65.8544V58.4804H88.5195L91.8203 63.809V58.4804H93.3126V65.8544H91.3989L88.0982 60.5258V65.8544H86.6058ZM98.4305 65.8544V58.4804H100.862C102.486 58.4804 103.478 59.3144 103.478 60.6838C103.478 62.0533 102.486 62.8785 100.862 62.8785H99.9228V65.8632H98.4305V65.8544ZM100.924 59.727H99.9228V61.6319H100.924C101.556 61.6319 101.933 61.2632 101.933 60.6663C101.933 60.1045 101.556 59.727 100.924 59.727ZM109.219 63.0979V58.4804H110.712V62.9663C110.712 64.9063 109.57 66.0651 107.718 66.0651C105.866 66.0651 104.733 64.9063 104.733 62.9663V58.4804H106.226V63.0979C106.226 64.0899 106.788 64.6693 107.718 64.6693C108.649 64.6693 109.202 64.0899 109.202 63.0979H109.219ZM112.731 65.8544V58.4804H114.899C116.435 58.4804 117.374 59.2354 117.374 60.4819C117.374 61.0789 117.102 61.5968 116.584 61.9392C117.366 62.2903 117.796 62.9224 117.796 63.6861C117.796 65.038 116.751 65.8544 115.057 65.8544H112.731ZM114.934 59.727H114.232V61.3949H114.934C115.505 61.3949 115.838 61.0877 115.838 60.5522C115.838 60.0167 115.505 59.727 114.934 59.727ZM115.145 62.6327H114.232V64.6166H115.145C115.838 64.6166 116.26 64.2479 116.26 63.6246C116.26 63.0014 115.838 62.6327 115.145 62.6327ZM119.49 65.8544V58.4804H120.982V64.4937H123.783V65.8544H119.481H119.49ZM125.258 65.8544V58.4804H126.75V65.8544H125.258ZM135.16 65.6613C135.73 66.1792 136.231 66.3635 136.705 66.3635C136.863 66.3635 137.073 66.346 137.231 66.2758V67.5399C136.986 67.6364 136.775 67.6803 136.45 67.6803C135.625 67.6803 134.87 67.3467 134.141 66.7147L133.264 65.9334C132.948 66.0212 132.614 66.0563 132.254 66.0563C129.928 66.0563 128.339 64.2655 128.339 62.1586C128.339 60.0518 129.928 58.261 132.254 58.261C134.58 58.261 136.161 60.0518 136.161 62.1586C136.161 63.3876 135.616 64.52 134.703 65.2311L135.142 65.6525L135.16 65.6613ZM132.263 64.6605C133.641 64.6605 134.633 63.572 134.633 62.1674C134.633 60.7628 133.641 59.6743 132.263 59.6743C130.885 59.6743 129.884 60.7628 129.884 62.1674C129.884 63.572 130.876 64.6605 132.263 64.6605ZM142.112 63.0979V58.4804H143.605V62.9663C143.605 64.9063 142.463 66.0651 140.611 66.0651C138.759 66.0651 137.627 64.9063 137.627 62.9663V58.4804H139.119V63.0979C139.119 64.0899 139.681 64.6693 140.611 64.6693C141.542 64.6693 142.095 64.0899 142.095 63.0979H142.112ZM145.624 65.8544V58.4804H149.925V59.727H147.125V61.4739H149.504V62.7205H147.125V64.6166H149.925V65.8632H145.624V65.8544ZM1.62988 76.3886V69.0146H5.93135V70.2612H3.13101V72.0081H5.50998V73.2547H3.13101V75.1508H5.93135V76.3974H1.62988V76.3886ZM7.21301 70.3753V69.0146H13.2614V70.3753H10.9878V76.3886H9.49543V70.3753H7.22179H7.21301ZM17.6243 76.3886V69.0146H20.5212C22.8563 69.0146 24.4364 70.7089 24.4364 72.7016C24.4364 74.6943 22.8563 76.3886 20.5212 76.3886H17.6243ZM20.5476 70.3753H19.1254V75.0279H20.5476C21.917 75.0279 22.909 74.0096 22.909 72.7016C22.909 71.3936 21.917 70.3753 20.5476 70.3753ZM26.0429 76.3886V69.0146H30.3444V70.2612H27.544V72.0081H29.923V73.2547H27.544V75.1508H30.3444V76.3974H26.0429V76.3886ZM35.1287 76.3886V69.0146H36.621V75.0279H39.4214V76.3886H35.1199H35.1287ZM40.2904 76.3886L43.082 69.0146H45.0396L47.8312 76.3886H46.2423L45.54 74.4749H42.5904L41.8881 76.3886H40.2992H40.2904ZM43.0557 73.1932H45.0747L44.0652 70.4192L43.0557 73.1932ZM51.3601 75.3703L52.4487 74.3695C52.8876 74.9401 53.4845 75.2737 54.0815 75.2737C54.6784 75.2737 55.0295 74.9577 55.0295 74.431C55.0295 73.0703 51.6762 73.439 51.6762 70.9459C51.6762 69.7784 52.6418 68.804 54.0551 68.804C55.1612 68.804 56.004 69.2956 56.636 70.0505L55.5387 71.0425C55.1085 70.4807 54.6257 70.112 54.0639 70.112C53.5372 70.112 53.1861 70.4455 53.1861 70.8932C53.1861 72.2276 56.5394 71.8501 56.5394 74.3783C56.5219 75.7653 55.4421 76.5993 54.0815 76.5993C52.8349 76.5993 52.0097 76.1428 51.3513 75.3703H51.3601ZM58.2688 76.3886V69.0146H59.7612V76.3886H58.2688ZM61.9821 76.3886V69.0146H63.8432L65.6428 72.1135L67.4424 69.0146H69.3034V76.3886H67.8111V71.1039L66.1695 73.8604H65.116L63.4745 71.1039V76.3886H61.9821ZM71.5331 76.3886V69.0146H73.9648C75.5888 69.0146 76.5808 69.8486 76.5808 71.218C76.5808 72.5875 75.5888 73.4127 73.9648 73.4127H73.0255V76.3974H71.5331V76.3886ZM74.0262 70.2612H73.0255V72.1661H74.0262C74.6583 72.1661 75.0358 71.7974 75.0358 71.2005C75.0358 70.6387 74.6583 70.2612 74.0262 70.2612ZM77.9766 76.3886V69.0146H79.4689V75.0279H82.2692V76.3886H77.9678H77.9766ZM83.744 76.3886V69.0146H85.2364V76.3886H83.744ZM87.4574 76.3886V69.0146H91.7588V70.2612H88.9585V72.0081H91.3374V73.2547H88.9585V76.3974H87.4661L87.4574 76.3886ZM93.2336 76.3886V69.0146H94.726V76.3886H93.2336ZM100.239 75.1947C101.082 75.1947 101.749 74.7821 102.17 74.1852L103.346 75.0894C102.671 76.0023 101.573 76.5993 100.239 76.5993C97.9126 76.5993 96.3236 74.8085 96.3236 72.7016C96.3236 70.5948 97.9126 68.804 100.239 68.804C101.573 68.804 102.671 69.4009 103.346 70.2963L102.17 71.2093C101.749 70.6123 101.082 70.1997 100.239 70.1997C98.8519 70.1997 97.8599 71.2883 97.8599 72.6928C97.8599 74.0974 98.8519 75.1859 100.239 75.1859V75.1947ZM103.82 76.3886L106.612 69.0146H108.57L111.361 76.3886H109.772L109.07 74.4749H106.12L105.418 76.3886H103.829H103.82ZM106.577 73.1932H108.596L107.586 70.4192L106.577 73.1932ZM111.159 70.3753V69.0146H117.208V70.3753H114.934V76.3886H113.442V70.3753H111.168H111.159ZM118.682 76.3886V69.0146H120.175V76.3886H118.682ZM125.679 68.804C127.996 68.804 129.585 70.5948 129.585 72.7016C129.585 74.8085 127.996 76.5993 125.679 76.5993C123.361 76.5993 121.764 74.8085 121.764 72.7016C121.764 70.5948 123.353 68.804 125.679 68.804ZM125.679 75.1947C127.057 75.1947 128.049 74.1062 128.049 72.7016C128.049 71.2971 127.057 70.2085 125.679 70.2085C124.301 70.2085 123.3 71.2971 123.3 72.7016C123.3 74.1062 124.292 75.1947 125.679 75.1947ZM131.183 76.3886V69.0146H133.097L136.398 74.3432V69.0146H137.89V76.3886H135.976L132.675 71.06V76.3886H131.183Z" fill="black"/>
<path fill-rule="evenodd" clip-rule="evenodd" d="M27.9114 95.359L26.9282 96.2544H26.6737L27.253 95.2361H27.9026V95.359H27.9114ZM27.2091 98.8266H26.9985C26.7351 99.1426 26.4366 99.3972 26.1557 99.3972C25.8748 99.3972 25.7168 99.2216 25.7168 98.8266C25.7168 98.6685 25.7344 98.5017 25.7695 98.3525L27.4901 97.7819C27.8236 96.9831 27.4286 96.6319 26.9546 96.6319C26.1469 96.6319 25.2164 98.054 25.2164 99.1953C25.2164 99.7307 25.471 100.029 25.866 100.029C26.3313 100.02 26.8141 99.5639 27.2179 98.8266H27.2091ZM26.6122 97.0972C26.8404 97.0972 27.0424 97.2728 26.937 97.6853L25.8748 97.9663C26.0416 97.4571 26.3576 97.0884 26.6122 97.0884V97.0972ZM23.2676 97.1235H23.8382L22.934 99.6078C22.8462 99.8185 22.9691 100.029 23.1886 100.029C23.8294 100.029 24.6019 99.4849 24.8916 98.7037H24.7336C24.5054 99.0285 23.9962 99.3884 23.6187 99.4498L24.4527 97.1235H25.3042L25.4096 96.7636H24.5756L24.8916 95.8682H24.5668L23.9787 96.7636L23.2764 96.8602V97.1235H23.2676ZM22.4775 96.6495C22.5917 96.6495 22.7497 96.7724 22.6794 97.0094L21.6611 99.4849C21.9245 99.441 22.1966 99.1865 22.3546 98.9582H22.5214C22.2756 99.5815 21.7314 100.029 21.2573 100.029C21.1432 100.029 20.9764 99.9063 21.0554 99.6693L22.0035 97.1937C21.7401 97.2376 21.468 97.4922 21.31 97.7205H21.152C21.3978 97.0884 21.9859 96.6495 22.4775 96.6495ZM22.7672 96.0174C22.9779 96.0174 23.1535 95.8506 23.1535 95.6312C23.1535 95.4117 22.9779 95.2449 22.7672 95.2449C22.5478 95.2449 22.381 95.4205 22.381 95.6312C22.381 95.8419 22.5565 96.0174 22.7672 96.0174ZM18.1673 98.0716C18.3955 97.5624 18.3165 97.3342 18.1673 97.3342C18.0444 97.3342 17.8951 97.4747 17.7459 97.7205H17.5879C17.8337 97.185 18.1497 96.6495 18.4921 96.6495C18.7906 96.6495 18.8959 96.948 18.8959 97.2728V97.738C18.9398 97.6853 18.9925 97.6327 19.0364 97.58C19.4841 97.0621 19.8176 96.6583 20.2127 96.6583C20.5199 96.6583 20.6779 96.8514 20.6779 97.1323C20.6779 97.2991 20.6253 97.5098 20.5111 97.7292L19.6333 99.4849C19.8966 99.441 20.1688 99.1865 20.3268 98.9582H20.4848C20.239 99.5903 19.6509 100.029 19.1593 100.029C18.9398 100.029 18.8081 99.801 18.9047 99.6078L19.9142 97.659C20.0283 97.4396 20.0547 97.2903 19.8703 97.2903C19.6245 97.2903 19.0627 97.6941 18.7554 98.0628L18.0883 99.8097C18.018 99.9853 17.939 100.029 17.7722 100.029C17.5001 100.029 17.3597 99.8536 17.4913 99.5639L18.1673 98.0716ZM17.4826 97.3957C17.5967 96.9918 17.5352 96.6407 17.228 96.6407C16.8505 96.6407 16.7276 96.8953 16.3589 97.6678L16.3326 97.7205V97.2552C16.3326 96.9304 16.2272 96.6319 15.9288 96.6319C15.5776 96.6319 15.2616 97.1674 15.0246 97.7029H15.1826C15.3494 97.4571 15.5074 97.3166 15.6391 97.3166C15.7883 97.3166 15.8673 97.5449 15.6391 98.054L14.9631 99.5464C14.8402 99.8273 14.9719 100.012 15.244 100.012C15.4108 100.012 15.4898 99.9678 15.5601 99.7922L16.2272 98.0453C16.4204 97.817 16.5872 97.6151 16.7978 97.3957H17.4826ZM14.1555 97.6941C14.2608 97.2815 14.0589 97.106 13.8307 97.106C13.5761 97.106 13.2601 97.4747 13.0933 97.9838L14.1555 97.7029V97.6941ZM14.4189 98.8266H14.2082C13.9448 99.1426 13.6464 99.3972 13.3654 99.3972C13.0845 99.3972 12.9265 99.2216 12.9265 98.8266C12.9265 98.6685 12.9441 98.5017 12.9792 98.3525L14.6998 97.7819C15.0334 96.9831 14.6383 96.6319 14.1643 96.6319C13.3567 96.6319 12.4261 98.054 12.4261 99.1953C12.4261 99.7307 12.6807 100.029 13.0757 100.029C13.541 100.02 14.0238 99.5639 14.4276 98.8266H14.4189ZM11.0479 97.1235H10.4773V96.8602L11.1796 96.7636L11.7678 95.8682H12.0926L11.7765 96.7636H12.6105L12.5051 97.1235H11.6536L10.8197 99.4498C11.1971 99.3884 11.7063 99.0285 11.9345 98.7037H12.0926C11.7941 99.4849 11.0304 100.029 10.3895 100.029C10.1701 100.029 10.0559 99.8185 10.1349 99.6078L11.0391 97.1235H11.0479ZM7.46628 99.046C7.46628 98.2735 8.3178 97.2464 8.79184 97.2464C8.89718 97.2464 9.00252 97.2552 9.09031 97.2903L8.59871 98.6159C8.3178 98.967 7.87009 99.3884 7.65941 99.3884C7.54529 99.3884 7.46628 99.283 7.46628 99.0548V99.046ZM9.81014 96.4827L10.0735 96.5003L9.16053 98.6071C8.94107 99.1162 9.03763 99.3445 9.16053 99.3445C9.28343 99.3445 9.44145 99.1952 9.61702 98.9582H9.77503C9.52923 99.4937 9.2132 100.029 8.87084 100.029C8.57237 100.029 8.3968 99.7132 8.44947 99.1426L8.46703 98.9407L8.40558 99.0197C8.02811 99.5464 7.68574 100.02 7.3346 100.02C7.02736 100.02 6.86934 99.8273 6.86934 99.5464C6.86934 98.3262 8.20368 96.7636 9.459 96.7636H9.51167L9.81014 96.4651V96.4827ZM7.39605 97.3957C7.51017 96.9918 7.44872 96.6407 7.14148 96.6407C6.764 96.6407 6.6411 96.8953 6.2724 97.6678L6.24607 97.7205V97.2552C6.24607 96.9304 6.14073 96.6319 5.84226 96.6319C5.49112 96.6319 5.17509 97.1674 4.93807 97.7029H5.09608C5.26288 97.4571 5.42089 97.3166 5.53501 97.3166C5.68424 97.3166 5.76325 97.5449 5.53501 98.054L4.85907 99.5639C4.73617 99.8449 4.86784 100.029 5.13998 100.029C5.30677 100.029 5.38578 99.9853 5.456 99.8097L6.12317 98.0628C6.3163 97.8346 6.48309 97.6327 6.69377 97.4132H7.38728L7.39605 97.3957ZM3.05947 99.7132L2.99802 99.9063H0.540039L0.601489 99.7044C1.35644 99.5639 1.48812 99.5025 1.80414 98.651L2.48887 96.8163C2.79612 95.9648 2.73467 95.9033 2.0675 95.7629L2.12895 95.5697H5.32433L5.1312 96.588H4.90296C4.90296 95.9735 4.84151 95.8155 4.26213 95.8155H4.11289C3.54229 95.8155 3.47206 95.9033 3.31405 96.3422L2.85757 97.5712H3.52473C3.96366 97.5712 4.13923 97.2991 4.33235 96.9392H4.5606L4.01633 98.4315H3.78809C3.84076 97.975 3.84076 97.7995 3.42817 97.7995H2.761L2.45375 98.6422C2.12017 99.5201 2.21673 99.5376 3.0068 99.6868C3.02436 99.6868 3.04191 99.6868 3.05947 99.6956V99.7132Z" fill="black"/>
<path fill-rule="evenodd" clip-rule="evenodd" d="M5.13998 87.3005L4.15678 88.0028L3.90221 88.0116L4.48159 87.1688H5.1312V87.2917L5.13998 87.3005ZM11.996 92.2428L13.5673 88.073L13.5147 88.0116L12.4261 88.1345V88.2574L12.6368 88.4154C12.8124 88.5558 12.7685 88.6875 12.6193 89.0913L12.5929 89.1615L11.3903 92.3657C11.2937 92.5588 11.4254 92.7871 11.6448 92.7871C12.1364 92.7871 12.6632 92.3306 12.909 91.7161H12.7509C12.5842 91.9443 12.2418 92.1989 11.996 92.2428ZM19.1856 89.0299L20.1688 88.1345V88.0116H19.5192L18.9398 89.0299H19.1944H19.1856ZM19.247 91.5932H19.4577C19.0715 92.3394 18.5799 92.7958 18.1234 92.7958C17.7196 92.7958 17.4738 92.4974 17.4738 91.9619C17.4738 90.8207 18.4043 89.3986 19.2119 89.3986C19.6772 89.3986 20.0898 89.7497 19.7474 90.5485L18.018 91.1192C17.9829 91.2684 17.9654 91.4352 17.9654 91.5932C17.9654 91.9794 18.1146 92.1638 18.4043 92.1638C18.694 92.1638 18.9837 91.9092 19.247 91.5932ZM19.1944 90.452C19.2997 90.0482 19.0978 89.8726 18.8696 89.8726C18.6413 89.8726 18.3077 90.2413 18.1322 90.7329L19.1944 90.452ZM16.1043 89.8989H15.5337V89.6356L16.236 89.539L16.8242 88.6436H17.149L16.8329 89.539H17.6669L17.5616 89.8989H16.71L15.8761 92.2252C16.2536 92.1638 16.7627 91.8039 16.991 91.4791H17.149C16.8505 92.2604 16.0868 92.8046 15.4459 92.8046C15.2265 92.8046 15.1124 92.5939 15.1914 92.3833L16.0956 89.8989H16.1043ZM14.9456 89.7673C15.007 89.539 14.8578 89.4073 14.7349 89.4073C14.2433 89.4073 13.6463 89.8638 13.4093 90.4783H13.5673C13.7254 90.2501 13.9975 89.9955 14.2608 89.9516L13.3128 92.4271C13.225 92.6554 13.4006 92.7871 13.5147 92.7871C13.9887 92.7871 14.533 92.3306 14.7788 91.7161H14.6208C14.4628 91.9443 14.1906 92.1989 13.9273 92.2428L14.9456 89.7673ZM15.4284 88.3978C15.4284 88.6085 15.2528 88.7841 15.0421 88.7841C14.8314 88.7841 14.6559 88.6085 14.6559 88.3978C14.6559 88.1871 14.8227 88.0116 15.0421 88.0116C15.2616 88.0116 15.4284 88.1871 15.4284 88.3978ZM10.1086 90.0218C9.63457 90.0218 8.78306 91.0577 8.78306 91.8214C8.78306 92.0497 8.85328 92.155 8.98496 92.155C9.18687 92.155 9.62579 91.7336 9.91549 91.3825L10.4071 90.057C10.3105 90.0218 10.214 90.0131 10.1086 90.0131V90.0218ZM11.3903 89.2757L11.1269 89.2581L10.8284 89.5566H10.7758C9.52045 89.5566 8.18612 91.1192 8.18612 92.3394C8.18612 92.6203 8.34413 92.8134 8.65138 92.8134C9.00252 92.8134 9.34488 92.3394 9.72236 91.8039L9.78381 91.7249L9.76625 91.9268C9.71358 92.4974 9.88915 92.8134 10.1876 92.8134C10.5388 92.8134 10.8548 92.2779 11.0918 91.7424H10.9338C10.767 91.9882 10.609 92.1287 10.4773 92.1287C10.3456 92.1287 10.2578 91.9004 10.4773 91.3913L11.3903 89.2844V89.2757ZM6.07928 92.6905C5.62279 92.8661 5.30677 93.0768 5.30677 93.4103C5.30677 93.7176 5.58768 93.8405 6.18462 93.8405C6.97468 93.8405 7.40483 93.6122 7.40483 93.305C7.40483 93.1645 7.22926 93.1031 6.75522 92.9451C6.44797 92.8485 6.22851 92.7695 6.07928 92.6905ZM6.60599 91.3913C6.3953 91.3913 6.32508 91.2157 6.32508 91.0226C6.32508 90.4081 6.62354 89.6531 7.09758 89.6531C7.30827 89.6531 7.3785 89.8287 7.3785 90.0218C7.36972 90.6451 7.07125 91.3913 6.60599 91.3913ZM7.0098 92.3833C7.58918 92.5588 7.9491 92.6993 7.9491 93.1031C7.9491 93.621 7.00102 94.2267 5.85104 94.218C5.18387 94.218 4.62205 94.0424 4.62205 93.6035C4.62205 93.1645 4.99952 92.8573 5.93004 92.5852C5.80714 92.4974 5.75447 92.392 5.75447 92.2516C5.75447 91.997 5.98271 91.7951 6.38652 91.6107C6.00027 91.5581 5.74569 91.2596 5.74569 90.8295C5.74569 90.1623 6.28996 89.4073 7.15903 89.4073C7.3346 89.4073 7.49262 89.4512 7.62429 89.5302H8.57237L8.46703 89.8902H7.90521C7.94032 89.9867 7.95788 90.0921 7.95788 90.2062C7.95788 90.847 7.43995 91.5844 6.62354 91.6283C6.41286 91.7424 6.30752 91.9004 6.30752 92.0321C6.30752 92.1814 6.48309 92.234 6.86056 92.3394C6.91324 92.3569 6.96591 92.3745 7.02736 92.3833H7.0098ZM3.66519 90.5837C4.07778 90.5837 4.08656 90.7592 4.02511 91.2157H4.25335L4.79762 89.7234H4.56937C4.36747 90.0833 4.20068 90.3554 3.76175 90.3554H2.85756L3.29649 89.1264C3.4545 88.6875 3.52473 88.5997 4.09533 88.5997H4.49915C5.07853 88.5997 5.13998 88.7577 5.13998 89.3722H5.36822L5.56135 88.3539H2.12895L2.0675 88.547C2.73467 88.6875 2.79612 88.749 2.48887 89.6005L1.80414 91.444C1.48812 92.2955 1.36522 92.3569 0.59271 92.4974L0.540039 92.6993H4.34991L5.03463 91.6107H4.77128C4.33235 92.0409 3.88465 92.4447 3.02436 92.4447C2.07628 92.4447 2.09383 92.4008 2.37475 91.6107C2.3923 91.5581 2.40986 91.5054 2.4362 91.4527L2.75222 90.61H3.66519V90.5837Z" fill="black"/>
<path fill-rule="evenodd" clip-rule="evenodd" d="M6.81667 81.5593C7.02736 81.5593 7.20293 81.3837 7.20293 81.1731C7.20293 80.9624 7.02736 80.7868 6.81667 80.7868C6.59721 80.7868 6.43042 80.9624 6.43042 81.1731C6.43042 81.3925 6.59721 81.5593 6.81667 81.5593ZM9.93304 82.8849C9.93304 82.3757 9.81014 82.1914 9.45022 82.1914C9.0113 82.1914 8.59871 82.6654 8.18612 83.236L9.07275 80.8658L9.02008 80.7956L7.93154 80.9185V81.0414L8.14223 81.1994C8.32658 81.3399 8.2739 81.4803 8.11589 81.9017L8.09833 81.9456L7.14148 84.4474C7.05369 84.6581 6.96591 84.9127 6.96591 84.9741C6.96591 85.2726 7.36972 85.5535 7.73842 85.5535C8.56359 85.5623 9.94182 84.0436 9.94182 82.8761L9.93304 82.8849ZM19.0627 81.8139L20.0459 80.9185V80.7956H19.3963L18.8169 81.8139H19.0715H19.0627ZM19.1329 84.3684H19.3436C18.9398 85.1146 18.457 85.5711 17.9917 85.5623C17.5879 85.5623 17.3421 85.2814 17.3421 84.7371C17.3421 83.5959 18.2726 82.1826 19.0802 82.1826C19.5455 82.1826 19.9581 82.5337 19.6157 83.3326L17.8951 83.9032C17.86 84.0524 17.8425 84.2192 17.8425 84.3772C17.8425 84.7635 17.9917 84.9478 18.2814 84.9478C18.5711 84.9478 18.8608 84.6932 19.1241 84.3772L19.1329 84.3684ZM19.0802 83.2272C19.1856 82.8234 18.9837 82.6478 18.7554 82.6478C18.5009 82.6478 18.1848 83.0165 18.018 83.5081L19.0802 83.2272ZM15.9639 82.6742H15.3933V82.4108L16.0956 82.3143L16.6837 81.4189H17.0085L16.6925 82.3143H17.5265L17.4211 82.6742H16.5696L15.7356 85.0005C16.1131 84.939 16.6223 84.5791 16.8505 84.2543H17.0085C16.7101 85.0356 15.9463 85.5799 15.3055 85.5799C15.086 85.5799 14.9719 85.3692 15.0509 85.1585L15.9551 82.6742H15.9639ZM15.1036 82.9463C15.2177 82.5425 15.1563 82.1914 14.849 82.1914C14.4715 82.1914 14.3486 82.4459 13.9799 83.2184L13.9536 83.2711V82.8059C13.9536 82.4811 13.8483 82.1826 13.5498 82.1826C13.1986 82.1826 12.8826 82.7181 12.6456 83.2536H12.8036C12.9704 83.0078 13.1284 82.8673 13.2425 82.8673C13.3918 82.8673 13.4708 83.0956 13.2425 83.6047L12.5666 85.097C12.4437 85.378 12.5754 85.5623 12.8475 85.5623C13.0143 85.5623 13.0933 85.5184 13.1635 85.3428L13.8307 83.5959C14.0238 83.3677 14.1906 83.1658 14.4013 82.9463H15.0948H15.1036ZM11.7678 83.2272C11.8731 82.8234 11.6712 82.6478 11.4429 82.6478C11.1884 82.6478 10.8811 83.0165 10.7056 83.5081L11.7678 83.2272ZM12.0311 84.3684H11.8204C11.5571 84.6845 11.2586 84.939 10.9777 84.939C10.6968 84.939 10.5388 84.7635 10.5388 84.3684C10.5388 84.2104 10.5563 84.0436 10.5914 83.8944L12.312 83.3238C12.6456 82.5249 12.2506 82.1738 11.7765 82.1738C10.9689 82.1738 10.0384 83.5959 10.0384 84.7284C10.0384 85.2638 10.293 85.5535 10.688 85.5535C11.1533 85.5623 11.6361 85.1146 12.0399 84.3597L12.0311 84.3684ZM7.60674 84.7722C7.60674 84.9127 7.85254 85.0707 8.01933 85.0707C8.70405 85.0707 9.34488 83.8417 9.3361 83.157C9.3361 82.9288 9.22198 82.8322 9.06397 82.8322C8.80939 82.8322 8.34413 83.2097 8.05444 83.5696L7.78231 84.307C7.68574 84.5528 7.61552 84.7371 7.61552 84.781L7.60674 84.7722ZM6.50065 82.1914C6.62354 82.1914 6.77278 82.3143 6.71133 82.5513L5.7018 85.0268C5.96516 84.9829 6.23729 84.7283 6.3953 84.5001H6.55332C6.30752 85.1234 5.76325 85.5711 5.28921 85.5711C5.16631 85.5711 4.99074 85.4482 5.07853 85.2112L6.02661 82.7356C5.76325 82.7795 5.49112 83.0341 5.3331 83.2623H5.17509C5.42089 82.6391 6.00905 82.1914 6.50065 82.1914ZM2.12895 81.0941H4.3938L4.33235 81.296C3.55985 81.4364 3.43695 81.4979 3.12092 82.3494L2.44498 84.2016C2.12017 85.0883 2.19918 85.1936 2.77856 85.1936C3.4984 85.1936 3.96366 84.6757 4.37625 84.2192C4.40258 84.1841 4.4377 84.149 4.46403 84.1226H4.72739L3.98121 85.4482H0.540039L0.601489 85.2551C1.35644 85.1146 1.48812 85.0532 1.80414 84.2016L2.48887 82.3406C2.79612 81.4891 2.73467 81.4276 2.0675 81.2872L2.12895 81.0941Z" fill="black"/>
<path d="M177.866 36.8854H176.11V84.2893H177.866V36.8854Z" fill="#161616"/>
<path d="M193.087 50.0532V42.0647H196.221C198.758 42.0647 200.47 43.8995 200.47 46.059C200.47 48.2185 198.758 50.0532 196.221 50.0532H193.087ZM196.247 43.5395H194.702V48.5872H196.247C197.731 48.5872 198.802 47.4811 198.802 46.0677C198.802 44.6544 197.731 43.5483 196.247 43.5483V43.5395ZM202.568 43.2937C202.05 43.2937 201.62 42.8636 201.62 42.3457C201.62 41.8277 202.05 41.3976 202.568 41.3976C203.086 41.3976 203.507 41.8277 203.507 42.3457C203.507 42.8636 203.086 43.2937 202.568 43.2937ZM201.839 50.0532V44.3033H203.288V50.0532H201.839ZM205.026 50.0532V44.3033H206.474V44.8739C206.852 44.4876 207.343 44.1891 207.993 44.1891C208.186 44.1891 208.362 44.2243 208.493 44.2682V45.6903C208.309 45.6464 208.116 45.6113 207.852 45.6113C207.141 45.6113 206.685 45.9975 206.474 46.3662V50.0532H205.026ZM214.708 49.1139C214.173 49.8337 213.286 50.2814 212.198 50.2814C210.152 50.2814 209.002 48.8593 209.002 47.1738C209.002 45.4884 210.073 44.0663 211.961 44.0663C213.558 44.0663 214.612 45.146 214.612 46.6559C214.612 46.9719 214.568 47.2704 214.524 47.4635H210.495C210.635 48.5345 211.294 48.9734 212.198 48.9734C212.821 48.9734 213.374 48.7013 213.681 48.2887L214.717 49.1139H214.708ZM211.926 45.2601C211.18 45.2601 210.697 45.6727 210.53 46.4277H213.181C213.155 45.8483 212.733 45.2601 211.926 45.2601ZM218.747 48.912C219.317 48.912 219.774 48.6486 220.046 48.2536L221.178 49.1227C220.643 49.8337 219.8 50.2902 218.747 50.2902C216.763 50.2902 215.578 48.8681 215.578 47.1826C215.578 45.4971 216.763 44.075 218.747 44.075C219.8 44.075 220.643 44.5315 221.178 45.2426L220.046 46.1116C219.774 45.7078 219.317 45.4533 218.72 45.4533C217.772 45.4533 217.079 46.1819 217.079 47.1914C217.079 48.2009 217.772 48.9295 218.747 48.9295V48.912ZM222.679 47.9551V45.6025H221.608V44.3033H222.679V42.8636H224.137V44.3033H225.892V45.6025H224.137V47.9551C224.137 48.596 224.479 48.8418 225.05 48.8418C225.445 48.8418 225.708 48.7979 225.91 48.7189V49.983C225.62 50.1059 225.278 50.1673 224.804 50.1673C223.364 50.1673 222.679 49.3597 222.679 47.9551ZM227.92 43.2937C227.402 43.2937 226.972 42.8636 226.972 42.3457C226.972 41.8277 227.402 41.3976 227.92 41.3976C228.438 41.3976 228.859 41.8277 228.859 42.3457C228.859 42.8636 228.438 43.2937 227.92 43.2937ZM227.192 50.0532V44.3033H228.64V50.0532H227.192ZM233.117 44.075C234.987 44.075 236.269 45.4533 236.269 47.1826C236.269 48.912 234.987 50.2902 233.117 50.2902C231.247 50.2902 229.966 48.912 229.966 47.1826C229.966 45.4533 231.247 44.075 233.117 44.075ZM233.143 48.912C234.065 48.912 234.767 48.1746 234.767 47.1738C234.767 46.1731 234.074 45.4357 233.143 45.4357C232.213 45.4357 231.475 46.1643 231.475 47.1738C231.475 48.1834 232.186 48.912 233.143 48.912ZM237.594 50.0532V44.3033H239.043V44.7598C239.438 44.3735 239.982 44.075 240.746 44.075C241.992 44.075 242.984 44.9265 242.984 46.6296V50.0532H241.527V46.6822C241.527 45.9185 241.097 45.4357 240.386 45.4357C239.675 45.4357 239.271 45.9273 239.051 46.296V50.0532H237.603H237.594ZM248.427 43.2937C247.918 43.2937 247.479 42.8636 247.479 42.3457C247.479 41.8277 247.909 41.3976 248.427 41.3976C248.945 41.3976 249.366 41.8277 249.366 42.3457C249.366 42.8636 248.945 43.2937 248.427 43.2937ZM247.698 50.0532V44.3033H249.147V50.0532H247.698ZM250.885 50.0532V44.3033H252.333V44.7598C252.728 44.3735 253.272 44.075 254.036 44.075C255.283 44.075 256.275 44.9265 256.275 46.6296V50.0532H254.817V46.6822C254.817 45.9185 254.387 45.4357 253.676 45.4357C252.965 45.4357 252.561 45.9273 252.342 46.296V50.0532H250.893H250.885ZM258.285 47.9551V45.6025H257.214V44.3033H258.285V42.8636H259.742V44.3033H261.498V45.6025H259.742V47.9551C259.742 48.596 260.085 48.8418 260.655 48.8418C261.05 48.8418 261.314 48.7979 261.507 48.7189V49.983C261.226 50.1059 260.883 50.1673 260.401 50.1673C258.961 50.1673 258.276 49.3597 258.276 47.9551H258.285ZM267.985 49.1139C267.45 49.8337 266.563 50.2814 265.475 50.2814C263.429 50.2814 262.279 48.8593 262.279 47.1738C262.279 45.4884 263.35 44.0663 265.238 44.0663C266.835 44.0663 267.889 45.146 267.889 46.6559C267.889 46.9719 267.845 47.2704 267.801 47.4635H263.772C263.912 48.5345 264.57 48.9734 265.475 48.9734C266.098 48.9734 266.651 48.7013 266.958 48.2887L267.994 49.1139H267.985ZM265.202 45.2601C264.456 45.2601 263.973 45.6727 263.807 46.4277H266.458C266.431 45.8483 266.01 45.2601 265.202 45.2601ZM269.293 50.0532V44.3033H270.742V44.8739C271.119 44.4876 271.611 44.1891 272.26 44.1891C272.454 44.1891 272.629 44.2243 272.761 44.2682V45.6903C272.576 45.6464 272.383 45.6113 272.12 45.6113C271.409 45.6113 270.952 45.9975 270.742 46.3662V50.0532H269.293ZM273.928 50.0532V44.3033H275.377V44.7334C275.763 44.3559 276.255 44.075 276.966 44.075C277.677 44.075 278.335 44.3911 278.713 45.0143C279.125 44.514 279.669 44.075 280.644 44.075C281.829 44.075 282.768 44.9002 282.768 46.5155V50.0532H281.311V46.5681C281.311 45.8746 280.934 45.4357 280.284 45.4357C279.634 45.4357 279.318 45.8658 279.09 46.2609C279.099 46.3399 279.099 46.4189 279.099 46.5155V50.0532H277.642V46.5681C277.642 45.8746 277.264 45.4357 276.615 45.4357C275.965 45.4357 275.614 45.9273 275.394 46.296V50.0532H273.946H273.928ZM285.147 43.2937C284.638 43.2937 284.199 42.8636 284.199 42.3457C284.199 41.8277 284.629 41.3976 285.147 41.3976C285.665 41.3976 286.087 41.8277 286.087 42.3457C286.087 42.8636 285.665 43.2937 285.147 43.2937ZM284.419 50.0532V44.3033H285.867V50.0532H284.419ZM287.605 50.0532V44.3033H289.054V44.7598C289.457 44.3735 289.993 44.075 290.757 44.075C292.003 44.075 292.995 44.9265 292.995 46.6296V50.0532H291.538V46.6822C291.538 45.9185 291.108 45.4357 290.397 45.4357C289.686 45.4357 289.282 45.9273 289.062 46.296V50.0532H287.614H287.605ZM295.374 43.2937C294.856 43.2937 294.426 42.8636 294.426 42.3457C294.426 41.8277 294.856 41.3976 295.374 41.3976C295.892 41.3976 296.313 41.8277 296.313 42.3457C296.313 42.8636 295.892 43.2937 295.374 43.2937ZM294.637 50.0532V44.3033H296.085V50.0532H294.637ZM297.244 49.2192L298.201 48.3502C298.552 48.7979 298.973 49.1139 299.526 49.1139C299.992 49.1139 300.237 48.8418 300.237 48.4994C300.237 47.4986 297.49 47.8673 297.49 45.8483C297.49 44.83 298.35 44.0663 299.544 44.0663C300.422 44.0663 301.221 44.4876 301.633 45.0494L300.676 45.8922C300.378 45.5235 300 45.2338 299.562 45.2338C299.123 45.2338 298.886 45.4884 298.886 45.7781C298.886 46.7613 301.633 46.4189 301.633 48.4028C301.607 49.6143 300.641 50.2727 299.553 50.2727C298.526 50.2727 297.797 49.8601 297.244 49.2105V49.2192ZM303.415 47.9551V45.6025H302.344V44.3033H303.415V42.8636H304.873V44.3033H306.628V45.6025H304.873V47.9551C304.873 48.596 305.215 48.8418 305.786 48.8418C306.189 48.8418 306.444 48.7979 306.646 48.7189V49.983C306.356 50.1059 306.023 50.1673 305.54 50.1673C304.1 50.1673 303.415 49.3597 303.415 47.9551ZM311.167 43.3903H309.771L310.956 41.4941H312.527L311.158 43.3903H311.167ZM313.116 49.1139C312.58 49.8337 311.693 50.2814 310.605 50.2814C308.56 50.2814 307.41 48.8593 307.41 47.1738C307.41 45.4884 308.481 44.0663 310.368 44.0663C311.966 44.0663 313.019 45.146 313.019 46.6559C313.019 46.9719 312.975 47.2704 312.931 47.4635H308.902C309.042 48.5345 309.701 48.9734 310.605 48.9734C311.228 48.9734 311.781 48.7013 312.088 48.2887L313.124 49.1139H313.116ZM310.333 45.2601C309.587 45.2601 309.104 45.6727 308.937 46.4277H311.588C311.562 45.8483 311.14 45.2601 310.333 45.2601ZM314.432 50.0532V44.3033H315.881V44.8739C316.258 44.4876 316.75 44.1891 317.399 44.1891C317.593 44.1891 317.768 44.2243 317.9 44.2682V45.6903C317.715 45.6464 317.522 45.6113 317.259 45.6113C316.548 45.6113 316.091 45.9975 315.881 46.3662V50.0532H314.432ZM319.796 43.2937C319.278 43.2937 318.848 42.8636 318.848 42.3457C318.848 41.8277 319.278 41.3976 319.796 41.3976C320.314 41.3976 320.735 41.8277 320.735 42.3457C320.735 42.8636 320.314 43.2937 319.796 43.2937ZM319.067 50.0532V44.3033H320.516V50.0532H319.067ZM327.547 49.1139C327.012 49.8337 326.125 50.2814 325.037 50.2814C322.991 50.2814 321.841 48.8593 321.841 47.1738C321.841 45.4884 322.912 44.0663 324.8 44.0663C326.397 44.0663 327.451 45.146 327.451 46.6559C327.451 46.9719 327.407 47.2704 327.363 47.4635H323.334C323.474 48.5345 324.133 48.9734 325.037 48.9734C325.66 48.9734 326.213 48.7013 326.52 48.2887L327.556 49.1139H327.547ZM324.765 45.2601C324.018 45.2601 323.536 45.6727 323.369 46.4277H326.02C325.994 45.8483 325.572 45.2601 324.765 45.2601ZM328.864 50.0532V41.4941H330.313V50.0532H328.864ZM332.051 50.0532V41.4941H333.499V50.0532H332.051ZM340.531 49.1139C339.995 49.8337 339.109 50.2814 338.02 50.2814C335.975 50.2814 334.825 48.8593 334.825 47.1738C334.825 45.4884 335.896 44.0663 337.783 44.0663C339.381 44.0663 340.434 45.146 340.434 46.6559C340.434 46.9719 340.39 47.2704 340.346 47.4635H336.317C336.458 48.5345 337.116 48.9734 338.02 48.9734C338.643 48.9734 339.197 48.7013 339.504 48.2887L340.54 49.1139H340.531ZM337.748 45.2601C337.002 45.2601 336.519 45.6727 336.352 46.4277H339.003C338.977 45.8483 338.556 45.2601 337.748 45.2601ZM192.367 62.9752C192.367 61.2985 193.473 59.8676 195.29 59.8676C196.063 59.8676 196.625 60.1046 197.072 60.5523V57.2867H198.53V65.8457H197.072V65.3892C196.625 65.8369 196.072 66.074 195.29 66.074C193.473 66.074 192.367 64.6518 192.367 62.9664V62.9752ZM193.886 62.9752C193.886 63.9759 194.518 64.7133 195.492 64.7133C196.142 64.7133 196.677 64.4412 197.064 63.9145V62.0446C196.677 61.5179 196.142 61.2458 195.492 61.2458C194.509 61.2458 193.886 61.9744 193.886 62.9839V62.9752ZM205.561 64.9152C205.026 65.635 204.139 66.0827 203.051 66.0827C201.005 66.0827 199.855 64.6606 199.855 62.9752C199.855 61.2897 200.926 59.8676 202.814 59.8676C204.411 59.8676 205.465 60.9473 205.465 62.4572C205.465 62.7732 205.421 63.0717 205.377 63.2648H201.348C201.488 64.3358 202.146 64.7747 203.051 64.7747C203.683 64.7747 204.227 64.5026 204.534 64.09L205.57 64.9152H205.561ZM202.778 61.0614C202.032 61.0614 201.549 61.474 201.383 62.229H204.034C204.007 61.6496 203.586 61.0614 202.778 61.0614ZM209.951 65.8545V57.2955H211.399V65.8545H209.951ZM214.761 66.0213C213.611 66.0213 212.821 65.3629 212.821 64.3007C212.821 63.4316 213.497 62.782 214.726 62.5801L216.482 62.2817V62.1324C216.482 61.5267 216.025 61.1404 215.367 61.1404C214.805 61.1404 214.375 61.4038 214.068 61.8252L213.005 61.0175C213.515 60.3065 214.366 59.8763 215.411 59.8763C217.079 59.8763 217.93 60.8683 217.93 62.1324V65.8545H216.482V65.2927C216.113 65.7404 215.428 66.0213 214.761 66.0213ZM214.261 64.2305C214.261 64.6167 214.568 64.8713 215.06 64.8713C215.718 64.8713 216.201 64.5641 216.482 64.1076V63.3L215.112 63.5282C214.507 63.6335 214.252 63.8793 214.252 64.2393L214.261 64.2305ZM223.031 63.7564V61.4038H221.96V60.1046H223.031V58.6649H224.488V60.1046H226.243V61.4038H224.488V63.7564C224.488 64.3973 224.83 64.6431 225.401 64.6431C225.796 64.6431 226.059 64.5992 226.252 64.5202V65.7843C225.971 65.9072 225.629 65.9686 225.146 65.9686C223.706 65.9686 223.022 65.161 223.022 63.7564H223.031ZM227.551 65.8545V60.1046H229V60.6752C229.377 60.2889 229.869 59.9905 230.519 59.9905C230.712 59.9905 230.887 60.0256 231.019 60.0695V61.4916C230.835 61.4477 230.641 61.4126 230.378 61.4126C229.667 61.4126 229.211 61.7988 229 62.1675V65.8545H227.551ZM233.53 66.0213C232.38 66.0213 231.59 65.3629 231.59 64.3007C231.59 63.4316 232.265 62.782 233.494 62.5801L235.25 62.2817V62.1324C235.25 61.5267 234.794 61.1404 234.135 61.1404C233.574 61.1404 233.143 61.4038 232.836 61.8252L231.774 61.0175C232.283 60.3065 233.135 59.8763 234.179 59.8763C235.847 59.8763 236.699 60.8683 236.699 62.1324V65.8545H235.25V65.2927C234.881 65.7404 234.197 66.0213 233.53 66.0213ZM233.02 64.2305C233.02 64.6167 233.328 64.8713 233.819 64.8713C234.478 64.8713 234.96 64.5641 235.241 64.1076V63.3L233.872 63.5282C233.266 63.6335 233.012 63.8793 233.012 64.2393L233.02 64.2305ZM238.358 65.8545V60.1046H239.806V60.5611C240.21 60.1748 240.746 59.8763 241.509 59.8763C242.756 59.8763 243.748 60.7279 243.748 62.4309V65.8545H242.291V62.4836C242.291 61.7198 241.86 61.237 241.149 61.237C240.438 61.237 240.034 61.7286 239.815 62.0973V65.8545H238.367H238.358ZM244.889 65.0205L245.846 64.1515C246.197 64.5992 246.618 64.9152 247.171 64.9152C247.637 64.9152 247.882 64.6431 247.882 64.3007C247.882 63.3 245.135 63.6687 245.135 61.6496C245.135 60.6313 245.995 59.8676 247.189 59.8676C248.067 59.8676 248.866 60.2889 249.278 60.8508L248.321 61.6935C248.023 61.3248 247.645 61.0351 247.207 61.0351C246.768 61.0351 246.531 61.2897 246.531 61.5794C246.531 62.5626 249.278 62.2202 249.278 64.2041C249.252 65.4156 248.286 66.074 247.198 66.074C246.171 66.074 245.442 65.6614 244.889 65.0118V65.0205ZM249.902 60.1046H250.972V59.4989C250.972 58.2787 251.78 57.2955 253.22 57.2955C253.747 57.2955 254.194 57.4184 254.554 57.6115L253.94 58.8229C253.764 58.7 253.536 58.5947 253.246 58.5947C252.755 58.5947 252.439 58.937 252.439 59.4638V60.1046H254.194V61.4038H252.439V65.8545H250.981V61.4038H249.91V60.1046H249.902ZM257.706 59.8763C259.575 59.8763 260.857 61.2546 260.857 62.9839C260.857 64.7133 259.575 66.0915 257.706 66.0915C255.836 66.0915 254.554 64.7133 254.554 62.9839C254.554 61.2546 255.836 59.8763 257.706 59.8763ZM257.723 64.7133C258.645 64.7133 259.347 63.9759 259.347 62.9752C259.347 61.9744 258.654 61.237 257.723 61.237C256.793 61.237 256.055 61.9656 256.055 62.9752C256.055 63.9847 256.766 64.7133 257.723 64.7133ZM262.174 65.8545V60.1046H263.622V60.6752C264 60.2889 264.491 59.9905 265.141 59.9905C265.334 59.9905 265.51 60.0256 265.641 60.0695V61.4916C265.457 61.4477 265.264 61.4126 265.001 61.4126C264.29 61.4126 263.833 61.7988 263.622 62.1675V65.8545H262.174ZM266.809 65.8545V60.1046H268.257V60.5347C268.644 60.1573 269.135 59.8763 269.846 59.8763C270.557 59.8763 271.216 60.1924 271.593 60.8156C272.006 60.3153 272.55 59.8763 273.524 59.8763C274.71 59.8763 275.649 60.7015 275.649 62.3168V65.8545H274.192V62.3694C274.192 61.6759 273.814 61.237 273.165 61.237C272.515 61.237 272.199 61.6672 271.971 62.0622C271.979 62.1412 271.979 62.2202 271.979 62.3168V65.8545H270.522V62.3694C270.522 61.6759 270.145 61.237 269.495 61.237C268.846 61.237 268.494 61.7286 268.275 62.0973V65.8545H266.826H266.809ZM278.914 66.0213C277.764 66.0213 276.974 65.3629 276.974 64.3007C276.974 63.4316 277.65 62.782 278.879 62.5801L280.635 62.2817V62.1324C280.635 61.5267 280.179 61.1404 279.52 61.1404C278.958 61.1404 278.528 61.4038 278.221 61.8252L277.159 61.0175C277.668 60.3065 278.519 59.8763 279.564 59.8763C281.232 59.8763 282.084 60.8683 282.084 62.1324V65.8545H280.635V65.2927C280.266 65.7404 279.582 66.0213 278.914 66.0213ZM278.414 64.2305C278.414 64.6167 278.721 64.8713 279.213 64.8713C279.871 64.8713 280.354 64.5641 280.635 64.1076V63.3L279.266 63.5282C278.66 63.6335 278.405 63.8793 278.405 64.2393L278.414 64.2305ZM284.12 63.7564V61.4038H283.049V60.1046H284.12V58.6649H285.577V60.1046H287.333V61.4038H285.577V63.7564C285.577 64.3973 285.92 64.6431 286.49 64.6431C286.894 64.6431 287.149 64.5992 287.351 64.5202V65.7843C287.07 65.9072 286.727 65.9686 286.245 65.9686C284.805 65.9686 284.12 65.161 284.12 63.7564ZM289.361 59.0951C288.852 59.0951 288.413 58.6649 288.413 58.147C288.413 57.629 288.843 57.1989 289.361 57.1989C289.879 57.1989 290.3 57.629 290.3 58.147C290.3 58.6649 289.879 59.0951 289.361 59.0951ZM288.632 65.8545V60.1046H290.081V65.8545H288.632ZM294.558 59.8763C296.428 59.8763 297.709 61.2546 297.709 62.9839C297.709 64.7133 296.428 66.0915 294.558 66.0915C292.688 66.0915 291.406 64.7133 291.406 62.9839C291.406 61.2546 292.688 59.8763 294.558 59.8763ZM294.584 64.7133C295.506 64.7133 296.208 63.9759 296.208 62.9752C296.208 61.9744 295.515 61.237 294.584 61.237C293.654 61.237 292.916 61.9656 292.916 62.9752C292.916 63.9847 293.627 64.7133 294.584 64.7133ZM299.026 65.8545V60.1046H300.475V60.5611C300.878 60.1748 301.414 59.8763 302.178 59.8763C303.424 59.8763 304.416 60.7279 304.416 62.4309V65.8545H302.959V62.4836C302.959 61.7198 302.529 61.237 301.818 61.237C301.107 61.237 300.703 61.7286 300.483 62.0973V65.8545H299.035H299.026ZM192.78 84.4649V75.9059H194.228V76.3712C194.676 75.9235 195.229 75.6777 196.019 75.6777C197.845 75.6777 198.942 77.0998 198.942 78.7852C198.942 80.4707 197.845 81.8928 196.019 81.8928C195.229 81.8928 194.676 81.6383 194.228 81.1993V84.4737H192.78V84.4649ZM195.817 77.0471C195.141 77.0471 194.597 77.3456 194.228 77.8811V79.6807C194.614 80.2249 195.15 80.5146 195.817 80.5146C196.8 80.5146 197.441 79.786 197.441 78.7765C197.441 77.7669 196.8 77.0383 195.817 77.0383V77.0471ZM204.06 79.1715V75.9059H205.517V79.1013C205.517 80.8219 204.517 81.8841 202.822 81.8841C201.128 81.8841 200.145 80.8219 200.145 79.1013V75.9059H201.602V79.1715C201.602 80.0055 202.032 80.5146 202.831 80.5146C203.63 80.5146 204.051 80.0055 204.051 79.1715H204.06ZM213.286 78.7765C213.286 80.4532 212.189 81.8841 210.363 81.8841C209.573 81.8841 209.02 81.6295 208.572 81.1906V81.6558H207.124V73.0968H208.572V76.3712C209.02 75.9235 209.573 75.6777 210.363 75.6777C212.189 75.6777 213.286 77.0998 213.286 78.7852V78.7765ZM210.161 77.0471C209.485 77.0471 208.932 77.3456 208.572 77.8723V79.6982C208.959 80.2337 209.512 80.5234 210.161 80.5234C211.144 80.5234 211.785 79.7948 211.785 78.7852C211.785 77.7757 211.144 77.0471 210.161 77.0471ZM214.612 81.6558V73.0968H216.06V81.6558H214.612ZM218.527 74.8964C218.009 74.8964 217.579 74.4662 217.579 73.9483C217.579 73.4304 218.009 73.0002 218.527 73.0002C219.045 73.0002 219.466 73.4304 219.466 73.9483C219.466 74.4662 219.045 74.8964 218.527 74.8964ZM217.799 81.6558V75.9059H219.247V81.6558H217.799ZM220.573 78.7765C220.573 77.0998 221.67 75.6689 223.496 75.6689C224.268 75.6689 224.83 75.9235 225.278 76.3624V75.8971H226.735V84.4562H225.278V81.1818C224.83 81.6295 224.277 81.8753 223.496 81.8753C221.67 81.8753 220.573 80.4532 220.573 78.7677V78.7765ZM222.082 78.7765C222.082 79.7772 222.706 80.5146 223.689 80.5146C224.365 80.5146 224.918 80.2161 225.278 79.6894V77.8635C224.892 77.328 224.339 77.0383 223.689 77.0383C222.706 77.0383 222.082 77.7669 222.082 78.7765ZM232.266 79.1715V75.9059H233.723V79.1013C233.723 80.8219 232.722 81.8841 231.028 81.8841C229.333 81.8841 228.35 80.8219 228.35 79.1013V75.9059H229.808V79.1715C229.808 80.0055 230.238 80.5146 231.037 80.5146C231.835 80.5146 232.257 80.0055 232.257 79.1715H232.266ZM240.623 80.7165C240.087 81.4364 239.201 81.8841 238.112 81.8841C236.067 81.8841 234.917 80.4619 234.917 78.7765C234.917 77.091 235.988 75.6689 237.875 75.6689C239.473 75.6689 240.526 76.7574 240.526 78.2585C240.526 78.5746 240.482 78.873 240.438 79.0662H236.409C236.549 80.1371 237.208 80.5761 238.112 80.5761C238.735 80.5761 239.288 80.3039 239.596 79.8913L240.631 80.7165H240.623ZM237.84 76.8628C237.094 76.8628 236.611 77.2753 236.444 78.0303H239.095C239.069 77.4509 238.647 76.8628 237.84 76.8628Z" fill="#161616"/>
</g>
<defs>
<clipPath id="clip0_2591_11536">
<rect width="340" height="120" fill="white" transform="translate(0.540039 0.556641)"/>
</clipPath>
</defs>
</svg>
