<svg width="116" height="121" viewBox="0 0 116 121" fill="none" xmlns="http://www.w3.org/2000/svg">
<path d="M8.98273 81.0928C6.22156 74.7939 4.75469 67.8047 4.75469 60.5566C4.75469 53.3086 6.30785 46.3194 8.98273 40.0204C17.0937 20.2608 36.5944 6.19609 59.2878 6.19609C72.0582 6.19609 83.7932 10.5967 93.1122 18.0173C83.2755 9.64755 70.5914 4.55664 56.6992 4.55664C25.8086 4.55664 0.699219 29.666 0.699219 60.5566C0.699219 91.4472 25.8086 116.557 56.6992 116.557C70.5914 116.557 83.2755 111.466 93.0259 103.096C83.7069 110.517 71.972 114.917 59.2015 114.917C36.5944 114.917 17.0937 100.939 8.98273 81.0928ZM99.1522 81.9557C99.0659 82.042 98.9797 82.2146 98.8934 82.3871C96.9951 85.666 94.6653 88.7724 91.9042 91.4472C83.6206 100.248 71.8857 105.857 58.8564 105.857C45.8271 105.857 34.7824 100.68 26.5852 92.2238C35.2139 101.888 47.7254 107.928 61.6176 107.928C80.6006 107.928 96.9951 96.6244 104.416 80.4026C102.431 79.7123 100.274 80.23 99.1522 81.9557ZM102.172 46.4056V46.5782C102.259 46.7508 102.259 46.8371 102.345 47.0096C103.035 48.8217 104.329 50.116 106.228 50.116C106.659 50.116 107.004 50.116 107.436 50.2022C102.604 29.4072 83.8795 13.9619 61.7038 13.9619C51.522 13.9619 42.0305 17.2408 34.351 22.7631C41.4265 18.1036 49.8826 15.4288 58.9427 15.4288C75.596 15.4288 90.0921 24.4888 97.9442 37.8633C99.6699 40.4519 101.051 43.3856 102.172 46.4056Z" fill="#000091"/>
<path d="M19.5098 48.9942V37.2593H26.3264V39.2438H21.8395V42.005H25.6361V43.9896H21.8395V48.9942H19.5098ZM28.5699 48.9942V37.2593H32.1939C33.4882 37.2593 34.5236 37.6044 35.2139 38.2084C35.9905 38.8124 36.3357 39.6753 36.3357 40.797C36.3357 42.2639 35.7316 43.213 34.4373 43.817L38.1477 48.9942H35.3865L32.2802 44.2485H31.0722V48.9942H28.5699ZM32.2802 39.2438H30.8996V42.2639H32.2802C32.7979 42.2639 33.143 42.0913 33.4882 41.8324C33.8333 41.5736 33.9196 41.1421 33.9196 40.7107C33.9196 40.2793 33.7471 39.9341 33.4882 39.6753C33.2293 39.4164 32.7979 39.2438 32.2802 39.2438ZM38.838 48.9942L43.2386 37.2593H46.3449L50.7455 48.9942H48.2432L47.1215 45.9742H42.462L41.3403 48.9942H38.838ZM43.2386 43.9033H46.4312L44.7917 39.5027L43.2386 43.9033ZM52.8164 48.9942V37.2593H55.8364L61.0999 45.7153V37.2593H63.4296V48.9942H60.4096L55.1461 40.5381V48.9942H52.8164ZM72.1446 47.0959C73.4389 47.0959 74.4743 46.5782 75.2509 45.4565L77.1492 46.9233C76.6315 47.6999 75.9412 48.2176 75.0783 48.6491C74.2155 49.0805 73.2663 49.2531 72.2309 49.2531C70.4189 49.2531 68.952 48.6491 67.744 47.4411C66.536 46.2331 66.0182 44.7662 66.0182 43.0405C66.0182 41.3147 66.6222 39.8478 67.744 38.6398C68.952 37.4318 70.4189 36.8278 72.2309 36.8278C73.2663 36.8278 74.2155 37.0004 75.0783 37.4318C75.9412 37.8633 76.6315 38.4673 77.1492 39.1576L75.2509 40.6244C74.4743 39.589 73.5252 38.985 72.1446 38.985C71.0229 38.985 70.16 39.3301 69.4697 40.1067C68.7794 40.8833 68.4343 41.8324 68.4343 42.9542C68.4343 44.0759 68.7794 45.025 69.4697 45.8016C70.16 46.7508 71.0229 47.0959 72.1446 47.0959ZM79.3064 48.9942V37.2593H86.123V39.2438H81.6361V42.005H85.4327V43.9896H81.6361V47.0096H86.123V48.9942H79.3064Z" fill="#000091"/>
<path d="M90.3342 66.1999L95.8738 75.2427L95.4682 74.9752C95.3388 74.8889 95.2008 74.7767 95.0713 74.6646C94.9419 74.561 94.8125 74.4489 94.6917 74.3712L94.6571 74.3367L90.6793 67.8393C90.6276 67.6926 90.6103 67.5287 90.5844 67.3475C90.5672 67.1922 90.5413 67.0368 90.5068 66.8815L90.3342 66.1999ZM90.593 62.084V62.5413C90.593 62.6103 90.5758 62.688 90.5499 62.7743C90.524 62.8692 90.5068 62.9641 90.5068 63.059L96.8143 75.8812L96.8316 75.9157L97.6685 76.3299L90.8001 62.4982L90.593 62.084ZM91.7148 59.0898C91.7148 59.2279 91.6457 59.3746 91.5767 59.4436L91.5249 59.4954L98.1949 76.4766L98.2122 76.5111L98.2467 76.5284C98.3416 76.5715 98.4106 76.5974 98.4796 76.6233C98.54 76.6405 98.6004 76.6664 98.6781 76.7009L98.9283 76.8217L91.7148 58.5204V59.0898ZM93.4232 56.7256L99.3943 76.8908L99.4202 76.9684H99.4978C99.4978 76.9684 99.5927 76.9943 99.6359 77.0029C99.7135 77.0288 99.7826 77.0547 99.843 77.0547H99.9897L93.8547 56.2942L93.4232 56.7256ZM96.2017 54.2147L96.0636 54.3527C96.0636 54.3527 96.0032 54.3959 95.9601 54.4217C95.9083 54.4476 95.8565 54.4735 95.8048 54.5253L95.7616 54.5684L100.343 76.9771V77.0029C100.464 77.2359 100.706 77.2359 100.792 77.2359H100.922L96.2362 54.4131L96.193 54.2147H96.2017ZM98.8938 53.1102C98.8334 53.1102 98.7903 53.1274 98.7385 53.1533C98.6867 53.1792 98.6263 53.1965 98.5487 53.1965H98.4279L101.206 77.2187V77.2532L101.241 77.2791C101.362 77.3999 101.56 77.3999 101.664 77.3999H101.784L98.9974 53.1102H98.9024H98.8938ZM101.931 52.4285H101.37L102.061 77.2187V77.2618L102.095 77.2963C102.216 77.4171 102.337 77.4171 102.518 77.4171H102.63L101.94 52.5407V52.4371L101.931 52.4285ZM104.313 52.5062L102.837 77.2877V77.3999H103.389L104.865 52.5062H104.304H104.313ZM107.73 53.369H107.609C107.609 53.369 107.566 53.3604 107.54 53.3432C107.479 53.3173 107.393 53.2828 107.264 53.2828H107.169L103.7 77.3653L103.657 77.6846L103.881 77.4603C103.933 77.4085 104.088 77.4085 104.149 77.4085H104.244L107.712 53.4985L107.73 53.3777V53.369ZM110.404 54.9136L110.361 54.8704C110.258 54.7669 110.154 54.6633 110.025 54.6633H109.938L104.658 77.1841L104.606 77.4085L104.813 77.3049C104.882 77.2704 104.986 77.2273 105.02 77.2273H105.106L110.387 54.9653L110.404 54.9049V54.9136ZM112.648 57.1657L112.216 56.7342L105.374 77.5207L105.693 77.2014C105.831 77.0633 105.883 77.0633 106.047 77.0633H106.125L112.622 57.2261L112.639 57.1657H112.648ZM114.374 60.039L114.348 59.9959C114.305 59.9182 114.287 59.8578 114.27 59.7888C114.244 59.7197 114.227 59.6507 114.175 59.5644L114.072 59.3573L106.642 76.6578L106.582 76.8045H106.746C106.798 76.8045 106.858 76.7872 106.918 76.77C106.996 76.7441 107.091 76.7182 107.177 76.7182H107.246L114.348 60.0821L114.365 60.039H114.374ZM115.219 62.9382L115.142 62.6966L107.945 76.1228L107.781 76.4162L108.083 76.2695C108.17 76.2264 108.273 76.1832 108.377 76.1487C108.489 76.1056 108.601 76.0624 108.687 76.0106L108.722 75.9934L115.297 63.6285V63.5767C115.306 63.3955 115.306 63.2143 115.219 62.9382ZM110.171 75.0529C110.43 74.8803 110.698 74.6991 110.965 74.4402L114.865 68.4692L115.297 66.778L109.74 75.3549L110.171 75.0615V75.0529ZM39.8134 52.86C39.1145 52.6874 38.4155 52.6011 37.7339 52.5148H37.7166H36.8538C35.965 52.5148 35.1712 52.696 34.4981 52.86L33.6525 53.0757H40.6676L39.822 52.86H39.8134ZM42.4192 54.2319H31.4522C31.2624 54.3355 31.0812 54.5167 30.9949 54.6116L30.8137 54.7928H42.9801L42.4192 54.2319ZM44.0414 56.3287C44.0414 56.2424 43.9983 56.1734 43.9465 56.0871C43.9206 56.0439 43.8861 55.9922 43.8602 55.9318L43.8343 55.8714H29.5712L29.5367 55.9059C29.4849 55.9576 29.4417 56.0267 29.39 56.0957C29.3468 56.1561 29.3123 56.2165 29.2778 56.251L29.0966 56.4322H44.0501V56.3287H44.0414ZM39.0972 57.6057L39.2784 57.7869C39.3647 57.8732 39.4424 57.9422 39.52 58.1062L39.5459 58.1666H44.7058L44.6282 58.0113C44.5505 57.8646 44.5505 57.7955 44.5505 57.7179V57.6143H39.0886L39.0972 57.6057ZM34.0926 57.5194H28.1992V57.8646L28.6048 58.063H33.5317L34.0926 57.5108V57.5194ZM44.7231 59.3487V59.2452H39.8479V59.7197H44.5246C44.7231 59.7197 44.7231 59.5213 44.7231 59.3573V59.3487ZM32.2719 59.7715C32.3669 59.6766 32.479 59.4781 32.479 59.3487V59.2452H30.4082L31.3918 59.806H32.2374L32.2719 59.7715ZM44.4384 61.3419C44.4384 61.3419 44.4384 61.2384 44.447 61.1952C44.4556 61.1521 44.4642 61.109 44.4642 61.0744V60.9709H39.6753V61.0744C39.6753 61.0744 39.6494 61.1694 39.6408 61.2125C39.6149 61.2902 39.589 61.3592 39.589 61.4196V61.5231H44.6196L44.4384 61.3419ZM43.5927 63.1971C43.6273 63.1367 43.6531 63.0849 43.679 63.0418C43.7308 62.9641 43.7739 62.8865 43.7739 62.8088V62.7053H38.7003L38.6658 62.7398C38.614 62.7915 38.5709 62.8606 38.5191 62.9296C38.476 62.99 38.4414 63.0504 38.3983 63.0849L38.2171 63.2661H43.5496L43.5755 63.2057L43.5927 63.1971ZM42.4192 64.8883L42.4538 64.8538C42.54 64.7675 42.635 64.6726 42.7299 64.4828L42.8075 64.3274H37.2421L36.6812 64.8883H42.4279H42.4192ZM40.9179 66.5623C40.9696 66.4673 41.0559 66.3983 41.1336 66.3379C41.1767 66.3034 41.2112 66.2775 41.2371 66.2516L41.4183 66.0704H35.5077L34.9468 66.6313H40.8833L40.9092 66.5709L40.9179 66.5623ZM39.7012 67.7012H33.7906L33.2297 68.2621H39.1404L39.7012 67.7012ZM37.9755 69.427H32.0649L31.504 69.9878H37.4146L37.9755 69.427ZM29.7783 71.7049H35.6026L36.3015 71.1441H30.3391L29.7783 71.7049ZM28.8895 73.353H45.2408V72.7922H28.8895V73.353ZM28.8895 75.0788H45.2408V74.5179H28.8895V75.0788ZM28.8895 76.8045H45.2408V76.2436H28.8895V76.8045ZM83.88 76.8045H84.1388C84.3459 76.8045 84.6306 76.7009 84.8895 76.5284L88.7897 72.6282L88.8155 72.5851C88.8587 72.4556 88.9018 72.3521 88.945 72.2485C88.9881 72.1364 89.0313 72.0328 89.0744 71.8948L89.2211 71.4633L84.0612 76.6233L83.88 76.8045ZM81.136 77.21L81.2137 77.2877C81.2741 77.3567 81.369 77.3826 81.4726 77.3826C81.5675 77.3826 81.6624 77.3567 81.7659 77.3049L89.2987 69.7808L89.3333 69.7462V69.0128L81.2137 77.1324L81.136 77.21ZM88.9105 67.7616V67.7185C88.9105 67.6581 88.8846 67.5891 88.8587 67.5114C88.8414 67.4596 88.8242 67.3992 88.8242 67.3734V67.1145L78.8063 77.1324L78.6251 77.3136H79.3585L88.8846 67.7875L88.9191 67.753L88.9105 67.7616ZM80.3853 73.1373L76.7182 76.8045H76.977C76.977 76.8045 77.0633 76.8304 77.1151 76.839C77.1927 76.8649 77.2618 76.8908 77.3222 76.8908H77.3653L81.1188 73.1373H80.3853ZM88.1684 66.0791L88.0907 66.0014C88.0303 65.941 87.9527 65.8633 87.9527 65.8202V65.5613L84.4926 69.0214L84.4581 69.0559V69.7894L88.0907 66.1567L88.1598 66.0791H88.1684ZM84.0525 67.9601L87.0553 64.9573L86.9776 64.8797C86.8827 64.7848 86.7705 64.6726 86.6411 64.6726H86.598L83.7764 67.4942V67.5373C83.7764 67.6667 83.8799 67.7703 83.9835 67.8738L84.0612 67.9515L84.0525 67.9601ZM78.789 72.8784C78.789 72.8784 78.72 72.8439 78.6682 72.818C78.6165 72.7835 78.5647 72.749 78.4957 72.7145L78.4266 72.68L75.1823 75.9244L75.1046 76.002L75.1823 76.0797C75.2513 76.1487 75.3203 76.1746 75.398 76.2091C75.4411 76.2264 75.4929 76.2436 75.5533 76.2781L75.6223 76.3127L79.0565 72.8784H78.7977H78.789ZM77.3222 71.9207C77.3222 71.9207 77.2014 71.843 77.141 71.7826L77.0633 71.7049L73.8017 74.9666L73.8793 75.0442C73.9829 75.1478 74.0864 75.2513 74.2159 75.2513H74.259L77.581 71.9293H77.3222V71.9207ZM87.8664 61.1952L88.0131 60.7638L82.2578 66.5191L82.0766 66.7003H82.3354C82.4131 66.7003 82.4735 66.7262 82.5253 66.7435C82.577 66.7607 82.6202 66.7866 82.6806 66.7866H82.7237L87.4263 62.0754C87.6075 61.8079 87.7801 61.4541 87.8664 61.1866V61.1952ZM76.3299 70.9284L76.2954 70.8593C76.2608 70.7989 76.2436 70.7472 76.2263 70.704C76.1918 70.6264 76.1659 70.5573 76.0969 70.4883L76.0192 70.4106L72.6627 73.7672L72.585 73.8449L72.9992 74.259L76.2695 70.9888L76.3212 70.937L76.3299 70.9284ZM88.2978 58.8741V58.1407L80.2645 66.174L80.0833 66.3552H80.8168L88.2719 58.9L88.3064 58.8655L88.2978 58.8741ZM73.2926 70.8162L71.6445 72.4643L71.7222 72.5419C71.7222 72.5419 71.7653 72.6023 71.7912 72.6455C71.8171 72.6972 71.843 72.749 71.8947 72.8008L71.9724 72.8784L75.3462 69.5046L73.2926 70.8248V70.8162ZM77.6673 66.3552H78.4957L87.9354 56.9154L87.9699 56.8809V56.8378C87.9699 56.7774 87.944 56.7083 87.9182 56.6307C87.9009 56.5789 87.8836 56.5185 87.8836 56.4926V56.2338L77.6759 66.3465L77.6673 66.3552ZM76.5197 65.9065L80.3422 62.1789H79.5138L76.5456 65.1472L76.5111 65.1817V65.9151L76.5197 65.9065ZM83.4571 58.3219C83.3622 58.4168 83.3881 58.5549 83.4054 58.667C83.414 58.7188 83.4226 58.7706 83.4226 58.831V59.0898L87.1416 55.3709L87.2192 55.2932L87.1416 55.2156C87.0898 55.1638 87.0035 55.0775 87.0035 55.0344V54.7755L83.4571 58.3219ZM82.4131 57.2088C82.4131 57.2088 82.5339 57.2865 82.5943 57.3469L82.6719 57.4245L86.0199 54.0766L85.9422 53.9989C85.8904 53.9472 85.83 53.9126 85.7869 53.8954C85.7437 53.8781 85.7179 53.8609 85.6833 53.8264L85.6057 53.7487L82.1542 57.2002H82.4131V57.2088ZM77.1927 62.1703L76.5197 62.7484V63.5767L77.9262 62.1703H77.1927ZM80.9894 56.6911L84.5702 53.1102H84.3114C84.3114 53.1102 84.2251 53.0929 84.1733 53.0757C84.0957 53.0498 84.0266 53.0239 83.9662 53.0239H83.9231L80.2559 56.6911H80.9894ZM75.5878 58.9432L76.14 59.2193L77.2273 58.1321C77.2877 58.0717 77.3394 58.0026 77.3912 57.9422C77.4689 57.8387 77.5379 57.761 77.6328 57.7179L82.7669 52.5925H82.508C82.344 52.5925 82.275 52.5925 82.1283 52.5148L82.0593 52.4803L75.7 58.831L75.5964 58.9345L75.5878 58.9432ZM74.1209 58.0803L74.6645 58.3564L80.5148 52.5062H79.6951L74.2245 57.9767L74.1209 58.0803ZM77.7191 52.7996L77.2877 52.9462C77.0288 53.0325 76.7527 53.1274 76.4679 53.3173L72.6627 57.1225L73.1028 57.4159L77.7191 52.7996ZM63.2402 53.3086L63.2143 53.2914C62.9986 53.2051 62.7915 53.1361 62.6017 53.0757C62.4118 53.0153 62.2134 52.9462 62.0063 52.86L60.8069 52.3854L61.9114 53.0584C65.9755 55.5348 68.5037 60.0304 68.5037 64.7848C68.5037 69.798 65.8461 74.3108 61.3937 76.8563L60.8155 77.1841L61.4627 77.0547C61.7302 77.0029 61.9977 76.9167 62.2306 76.839C62.386 76.7872 62.5413 76.7355 62.6793 76.7009L62.7139 76.6837C66.6917 74.0606 69.0645 69.6427 69.0645 64.8624C69.0645 60.3583 66.8901 56.0353 63.2402 53.3V53.3086ZM70.5228 61.3851C70.1 60.1253 69.6599 59.1848 69.1249 58.4254L68.5123 57.5453L68.9437 58.529C69.8497 60.6257 70.3157 62.7829 70.3157 64.9573C70.3157 67.3388 69.7548 69.7635 68.6849 71.9897L68.1154 73.1804L68.8747 72.1019C69.4787 71.239 70.0051 70.1863 70.3588 69.1336C70.704 67.8393 70.8766 66.4328 70.8766 64.9746C70.9715 63.5681 70.7558 62.3774 70.5314 61.4023L70.5228 61.3851ZM67.1576 64.871C67.1576 58.7533 62.593 53.4726 56.5357 52.6011H56.5185L54.7669 53.0325L55.483 53.0757C61.7647 53.4208 66.683 58.6066 66.683 64.871C66.683 68.0119 65.4664 70.9629 63.2661 73.1718C61.0658 75.3807 58.1148 76.6233 54.9739 76.6664H54.1456L54.9481 76.8821C55.2932 76.9684 55.6384 77.0547 55.9835 77.141H56.0008H56.018C62.2652 76.6147 67.1576 71.2217 67.1576 64.871ZM65.3542 64.871C65.3542 59.0553 60.6257 54.3182 54.8014 54.3182C53.5157 54.3182 52.2991 54.5425 50.9702 55.0171L50.9444 55.0344C50.7718 55.1638 50.6165 55.3019 50.4612 55.4313C50.3145 55.5607 50.1592 55.6902 49.9952 55.811L48.6837 56.7946L50.116 55.9922C51.5052 55.2069 53.1274 54.8014 54.81 54.8014C60.3151 54.8014 64.802 59.2797 64.802 64.7934C64.802 70.3071 60.3237 74.863 54.81 74.863C53.0325 74.863 51.2895 74.3885 49.7709 73.4997L49.0461 73.0683L50.5043 74.5265L50.5388 74.5438C51.7986 75.1305 53.1964 75.4153 54.81 75.4153C60.6257 75.4153 65.3629 70.6868 65.3629 64.871H65.3542ZM58.0975 64.871C58.0975 66.6572 56.5875 68.1758 54.7927 68.1758C52.998 68.1758 51.4966 66.6917 51.4966 64.871C51.4966 63.0504 53.0066 61.5663 54.7927 61.5663C56.5789 61.5663 58.0975 63.0763 58.0975 64.871ZM54.8014 62.1358C53.2655 62.1358 52.0661 63.3351 52.0661 64.871C52.0661 66.4069 53.3172 67.6063 54.8014 67.6063C56.2855 67.6063 57.5453 66.3552 57.5453 64.871C57.5453 63.3869 56.2941 62.1358 54.8014 62.1358ZM59.9095 64.871C59.9095 67.6926 57.6143 69.9792 54.8014 69.9792C51.9884 69.9792 49.6932 67.684 49.6932 64.871C49.6932 62.0581 51.9884 59.7629 54.8014 59.7629C57.6143 59.7629 59.9095 62.0581 59.9095 64.871ZM54.8014 60.3237C52.2904 60.3237 50.2541 62.3687 50.2541 64.871C50.2541 67.3734 52.2991 69.427 54.8014 69.427C57.3037 69.427 59.3573 67.382 59.3573 64.871C59.3573 62.3601 57.3123 60.3237 54.8014 60.3237ZM56.1992 64.9573C56.1992 65.7598 55.5952 66.3552 54.8014 66.3552C54.0075 66.3552 53.4035 65.7512 53.4035 64.9573C53.4035 64.2066 54.0593 63.5595 54.8014 63.5595C55.5434 63.5595 56.1992 64.2153 56.1992 64.9573ZM54.8014 64.0341C54.2578 64.0341 53.8781 64.4137 53.8781 64.9573C53.8781 65.5009 54.2578 65.8892 54.8014 65.8892C55.345 65.8892 55.7333 65.406 55.7333 64.9573C55.7333 64.4051 55.2501 64.0341 54.8014 64.0341ZM54.8014 73.6032C50.3921 73.6032 46.6732 70.264 46.1555 65.8288V64.871C46.1555 64.3533 46.1555 63.9133 46.2417 63.3869C46.8544 59.2538 50.5388 56.1388 54.8014 56.1388C59.6162 56.1388 63.5336 60.0563 63.5336 64.871C63.5336 69.6858 59.6162 73.6032 54.8014 73.6032ZM54.8014 73.0424C59.3055 73.0424 62.9813 69.3752 62.9813 64.871C62.9813 60.3669 59.3142 56.6911 54.8014 56.6911C50.2886 56.6911 46.63 60.3583 46.63 64.871C46.63 69.3838 50.2972 73.0424 54.8014 73.0424ZM61.7302 64.9573C61.7302 68.7712 58.6239 71.8861 54.8014 71.8861C52.929 71.8861 51.1083 71.1182 49.8054 69.7808C48.5197 68.4692 47.838 66.7521 47.8812 64.9573C47.8812 61.2039 51.0479 58.0371 54.8014 58.0371C58.5548 58.0371 61.7302 61.2039 61.7302 64.9573ZM54.8014 58.5031C51.2895 58.5031 48.4334 61.3592 48.4334 64.871C48.4334 68.3829 51.3499 71.239 54.8014 71.239C58.2528 71.239 61.1693 68.3225 61.1693 64.871C61.1693 61.4196 58.2528 58.5031 54.8014 58.5031Z" fill="#E1000F"/>
</svg>
