<svg width="86" height="65" viewBox="0 0 86 65" fill="none" xmlns="http://www.w3.org/2000/svg">
<mask id="mask0_2591_11551" style="mask-type:luminance" maskUnits="userSpaceOnUse" x="0" y="0" width="86" height="65">
<path d="M85.4598 0.556641H0.540039V64.5566H85.4598V0.556641Z" fill="white"/>
</mask>
<g mask="url(#mask0_2591_11551)">
<path fill-rule="evenodd" clip-rule="evenodd" d="M70.7236 41.2929L72.0144 39.7272C73.1641 38.4031 73.9761 37.1248 74.4634 35.8673L84.282 47.8551C86.0641 50.1368 85.9804 50.5621 83.0076 50.5621H81.9873C79.0183 50.5621 77.915 49.9703 76.133 47.8551L70.7236 41.2929ZM70.7236 24.9868L76.133 18.4244C77.915 16.3091 79.0183 15.7179 81.9873 15.7179H83.0076C85.9765 15.7179 86.0641 16.1426 84.282 18.4244L74.4634 30.4125C73.98 29.1549 73.1641 27.8766 72.0144 26.5525L70.7236 24.9868Z" fill="url(#paint0_linear_2591_11551)"/>
<path fill-rule="evenodd" clip-rule="evenodd" d="M55.7344 50.5575C52.7655 50.5575 52.678 50.1329 54.4602 47.8512L64.6413 35.4217C65.403 34.4932 65.8276 33.7312 65.8276 33.1399C65.8276 32.4653 65.403 31.7033 64.6413 30.858L54.4602 18.4286C52.678 16.1468 52.7613 15.722 55.7344 15.722H56.7542C59.7231 15.722 60.8271 16.3133 62.6091 18.4286L70.4165 27.9016C73.727 31.7075 73.727 34.5806 70.4165 38.3865L62.6091 47.8597C60.8271 49.9749 59.7231 50.566 56.7542 50.566H55.7344V50.5575Z" fill="url(#paint1_linear_2591_11551)"/>
<path fill-rule="evenodd" clip-rule="evenodd" d="M0.540039 61.4004C0.540039 63.9239 1.17295 64.5568 3.70467 64.5568H4.54995C7.0816 64.5568 7.71451 63.9239 7.71451 61.4004V46.7433C9.61332 49.7579 13.0611 51.3028 18.0578 51.3028C27.8389 51.3028 32.6941 46.1815 32.6941 36.0129V29.9127C32.6941 19.7443 27.485 14.9725 16.5796 14.9725C6.45287 14.9725 0.540039 19.8817 0.540039 29.9085V61.4004ZM25.4488 36.1503C25.4488 42.0423 23.4793 44.4949 16.6545 44.4949C9.8298 44.4949 7.71869 41.9715 7.71869 36.1503V30.1167C7.71869 24.2247 9.8298 21.7014 16.6545 21.7014C23.4793 21.7014 25.4488 24.2247 25.4488 30.1167V36.1503Z" fill="url(#paint2_linear_2591_11551)"/>
<path fill-rule="evenodd" clip-rule="evenodd" d="M39.4691 47.3181C39.4691 49.8415 40.102 50.4745 42.6337 50.4745H43.5498C46.0815 50.4745 46.7144 49.8415 46.7144 47.3181V18.8449C46.7144 16.3216 46.0815 15.6887 43.5498 15.6887H42.6337C40.102 15.6887 39.4691 16.3216 39.4691 18.8449V47.3181ZM39.9605 8.11441C41.7218 9.79667 44.5325 9.79667 46.223 8.11441C47.9802 6.3614 47.9802 3.55487 46.223 1.87261C44.5325 0.11961 41.7177 0.11961 39.9605 1.87261C38.2033 3.55487 38.2033 6.3614 39.9605 8.11441Z" fill="url(#paint3_linear_2591_11551)"/>
</g>
<defs>
<linearGradient id="paint0_linear_2591_11551" x1="78.0934" y1="16.1494" x2="78.0934" y2="50.9893" gradientUnits="userSpaceOnUse">
<stop stop-color="#12A3FF"/>
<stop offset="1" stop-color="#3D68FF"/>
</linearGradient>
<linearGradient id="paint1_linear_2591_11551" x1="63.2199" y1="16.1494" x2="63.2199" y2="50.9893" gradientUnits="userSpaceOnUse">
<stop stop-color="#FFBE00"/>
<stop offset="1" stop-color="#FF9F00"/>
</linearGradient>
<linearGradient id="paint2_linear_2591_11551" x1="16.6292" y1="15.1177" x2="16.6292" y2="51.3146" gradientUnits="userSpaceOnUse">
<stop stop-color="#12A3FF"/>
<stop offset="1" stop-color="#3D68FF"/>
</linearGradient>
<linearGradient id="paint3_linear_2591_11551" x1="42.9258" y1="14.6245" x2="42.9258" y2="50.5653" gradientUnits="userSpaceOnUse">
<stop stop-color="#12A3FF"/>
<stop offset="1" stop-color="#3D68FF"/>
</linearGradient>
</defs>
</svg>
