<svg width="94" height="82" viewBox="0 0 94 82" fill="none" xmlns="http://www.w3.org/2000/svg">
<rect width="23.158" height="8.42109" transform="translate(0 0.763184)" fill="white"/>
<path d="M7.47807 8.16655C7.48087 8.16655 7.48366 8.16243 7.48366 8.16243C7.50602 8.14591 7.52838 8.12527 7.54794 8.10051C7.54515 8.10051 7.54235 8.10051 7.53956 8.09638C7.51999 8.11702 7.49764 8.14179 7.47807 8.16655Z" fill="#000091"/>
<path d="M10.5751 7.12312L10.5262 7.16523C10.5541 7.15821 10.5751 7.15119 10.5751 7.12312Z" fill="#000091"/>
<path fill-rule="evenodd" clip-rule="evenodd" d="M9.5738 8.189C9.6635 8.09877 9.7532 8.00308 9.84291 7.90465H9.84019C10.0087 7.71326 10.1718 7.53008 10.3675 7.3633C10.4273 7.30862 10.4844 7.26214 10.5388 7.22386C10.5468 7.21583 10.5508 7.20386 10.5548 7.19214C10.559 7.17992 10.5631 7.16795 10.5714 7.16097C10.5327 7.17576 10.5018 7.19913 10.4707 7.22265C10.4386 7.24698 10.4063 7.27145 10.3648 7.28674C10.3485 7.28674 10.3322 7.27034 10.3485 7.25394C10.4056 7.21292 10.4627 7.16918 10.517 7.12543H10.5062C10.4899 7.12543 10.4899 7.10903 10.4899 7.09262C10.2875 7.06048 10.1321 7.19887 9.99294 7.32276L9.98426 7.33049C9.9626 7.34138 9.94214 7.33058 9.92606 7.32209C9.91792 7.31779 9.91091 7.31409 9.90543 7.31409C9.78233 7.35536 9.67617 7.43145 9.56931 7.50804C9.47088 7.57858 9.37187 7.64955 9.25848 7.69412V7.66132C9.21997 7.67459 9.18192 7.6919 9.14376 7.70925C9.08764 7.73478 9.03131 7.76039 8.97306 7.77341C8.86667 7.79811 8.76798 7.79492 8.67235 7.79184C8.64095 7.79082 8.60981 7.78982 8.5789 7.78982C8.40481 7.80708 8.23292 7.84437 8.06126 7.88161L8.00535 7.89371C8.00263 7.89508 7.99991 7.89576 7.99719 7.89645C7.99447 7.89713 7.99175 7.89782 7.98904 7.89918C7.88574 7.92652 7.7906 7.9648 7.69546 8.01948L7.68459 8.02495C7.68085 8.02996 7.67712 8.0344 7.67364 8.03852C7.66954 8.0434 7.66579 8.04785 7.66284 8.05229C7.63022 8.09057 7.60032 8.12338 7.55411 8.14799C7.48587 8.18231 7.42687 8.23525 7.36884 8.28733C7.34369 8.30989 7.31862 8.33238 7.29316 8.35304C7.28772 8.35851 7.27685 8.36124 7.26869 8.36124C7.18443 8.44326 7.10015 8.5253 7.01317 8.60458C7.00774 8.61005 6.98327 8.61278 6.96424 8.61005C6.96424 8.61005 6.96696 8.61005 6.96696 8.60731L6.97512 8.59091L7.01589 8.52529C7.02405 8.51299 7.03152 8.50068 7.039 8.48838C7.04647 8.47608 7.05395 8.46377 7.0621 8.45147C7.08383 8.41869 7.10561 8.38582 7.13006 8.35578C7.1355 8.34757 7.1355 8.33937 7.13006 8.3339C7.12462 8.32844 7.11647 8.3257 7.10831 8.3257C7.18714 8.24915 7.27956 8.18353 7.3747 8.12611V8.12338C7.36383 8.12611 7.34752 8.11791 7.35568 8.10697C7.36365 8.09695 7.37016 8.08545 7.37629 8.07464L7.38286 8.06323C7.38422 8.06049 7.3849 8.05844 7.38558 8.05639C7.38626 8.05434 7.38694 8.05229 7.3883 8.04956C7.38694 8.04682 7.3849 8.04477 7.38286 8.04272C7.38082 8.04067 7.37878 8.03862 7.37742 8.03589L7.36094 8.04676C7.34124 8.05966 7.32098 8.07291 7.30403 8.08783C7.29203 8.09818 7.28083 8.11234 7.26934 8.12687C7.24441 8.15841 7.21807 8.19173 7.17899 8.19173C7.17627 8.19173 7.16268 8.19173 7.15452 8.189C7.14637 8.189 7.14093 8.18626 7.13821 8.18353C7.13821 8.18217 7.13821 8.18148 7.13855 8.18114C7.13889 8.18079 7.13957 8.18079 7.14093 8.18079C7.14093 8.18079 7.14365 8.17806 7.14365 8.17533C7.14365 8.17533 7.14365 8.17259 7.14637 8.17259C7.14773 8.16986 7.14909 8.16781 7.15045 8.16576C7.1518 8.16371 7.15317 8.16165 7.15452 8.15892C7.15588 8.15619 7.15724 8.15414 7.1586 8.15209C7.15996 8.15004 7.16132 8.14798 7.16268 8.14525C7.16404 8.14388 7.16472 8.14183 7.1654 8.13978C7.16608 8.13773 7.16676 8.13568 7.16812 8.13432L7.17118 8.12867C7.17388 8.12388 7.17709 8.11816 7.17899 8.11244C7.18035 8.10971 7.18171 8.10766 7.18306 8.10561C7.18442 8.10356 7.18578 8.1015 7.18714 8.09877C7.19122 8.0933 7.19462 8.08715 7.19802 8.081C7.20141 8.07485 7.20481 8.0687 7.20889 8.06323C7.21161 8.05776 7.21433 8.05229 7.21976 8.04682C7.22248 8.04135 7.2252 8.03657 7.22792 8.03178C7.23064 8.027 7.23335 8.02222 7.23607 8.01675C7.24423 8.00308 7.23607 7.99214 7.2252 7.98941C7.2551 7.95113 7.29044 7.91832 7.33393 7.89371H7.32849C7.36602 7.87484 7.40462 7.85274 7.44295 7.83078C7.46558 7.81782 7.48846 7.80471 7.51062 7.79255C7.51877 7.78435 7.52693 7.77615 7.5378 7.77068C7.4481 7.80075 7.36655 7.84177 7.28772 7.89645C7.28772 7.89645 7.26597 7.90465 7.26054 7.91012C7.26054 7.91012 7.24423 7.91559 7.22248 7.89645C7.21976 7.89371 7.21976 7.89098 7.21976 7.88551C7.22921 7.8665 7.2487 7.85392 7.26976 7.84031C7.28506 7.83044 7.30118 7.82002 7.3149 7.80622C7.33121 7.80622 7.3448 7.80622 7.3448 7.82263C7.65787 7.57715 8.04389 7.52036 8.43123 7.46338C8.66945 7.42833 8.90816 7.39321 9.13072 7.31409C9.15382 7.29768 9.17761 7.28196 9.20139 7.26624C9.22518 7.25052 9.24896 7.2348 9.27207 7.21839C9.31171 7.20189 9.34723 7.17363 9.38486 7.1437C9.42204 7.11413 9.46127 7.08292 9.50856 7.05981C9.6336 6.96412 9.72874 6.85476 9.77767 6.69344C9.77767 6.67704 9.76136 6.66064 9.76136 6.66064C9.55477 6.8821 9.31828 7.05708 9.06548 7.18558C8.82442 7.31277 8.56613 7.33162 8.31044 7.35028C8.21437 7.35729 8.11866 7.36427 8.02437 7.37697C8.04068 7.34416 8.0733 7.34416 8.1032 7.34416C8.1032 7.30534 8.12181 7.28863 8.14568 7.2672C8.15207 7.26147 8.15884 7.25539 8.16572 7.24847H8.21194C8.22009 7.24847 8.22417 7.24026 8.22825 7.23206C8.23232 7.22386 8.2364 7.21566 8.24456 7.21566C8.27717 7.21566 8.32339 7.19925 8.30708 7.19925C8.28214 7.16721 8.24591 7.17989 8.20594 7.19389C8.16747 7.20736 8.12555 7.22204 8.08689 7.19925C8.10127 7.18348 8.10559 7.16455 8.10953 7.14732C8.11378 7.12871 8.11758 7.11208 8.13311 7.10356H8.19563C8.19563 7.07075 8.22825 7.04068 8.22825 7.04068C8.37002 6.95544 8.5069 6.88103 8.64124 6.80799C8.73097 6.75921 8.81966 6.71099 8.90782 6.66064C8.88998 6.66064 8.87417 6.66797 8.85882 6.67508C8.8344 6.68641 8.81115 6.69719 8.78278 6.67704C8.79909 6.67704 8.79909 6.66542 8.79909 6.6538C8.79909 6.64218 8.79908 6.63056 8.8154 6.63056C8.91737 6.60331 9.00814 6.55916 9.10084 6.51406C9.16628 6.48223 9.2327 6.44992 9.30469 6.42277C9.28332 6.42277 9.26354 6.42852 9.24426 6.43412C9.20713 6.44491 9.17187 6.45516 9.13072 6.42277C9.14152 6.41734 9.15023 6.4104 9.15884 6.40356C9.17621 6.38974 9.19313 6.37629 9.22586 6.37629V6.32981C9.22586 6.3134 9.24217 6.31341 9.25848 6.31341C9.24217 6.31341 9.22586 6.297 9.22586 6.297C9.23449 6.27963 9.2515 6.27605 9.27045 6.27207C9.28728 6.26853 9.30564 6.26467 9.321 6.25052C9.30469 6.25052 9.27479 6.25052 9.27479 6.23412C9.321 6.17123 9.39983 6.15483 9.47866 6.13842C9.4705 6.12202 9.45487 6.12202 9.44128 6.12202C9.42769 6.12202 9.41614 6.12202 9.41614 6.10561C9.41614 6.08921 9.43245 6.08921 9.44876 6.08921H9.41614C9.39054 6.07633 9.39507 6.05336 9.39821 6.03746C9.39907 6.0331 9.39983 6.02927 9.39983 6.02632C9.46368 5.95108 9.48468 5.8623 9.50556 5.77401C9.51578 5.73076 9.52598 5.68764 9.54118 5.64628C9.52487 5.64628 9.50856 5.64628 9.50856 5.62988C9.35571 5.79952 9.11345 5.8638 8.88332 5.92486L8.86161 5.93063H8.78278C8.70395 5.96344 8.5925 5.96344 8.51367 5.91423C8.47618 5.89456 8.44944 5.86997 8.42057 5.84342C8.40128 5.82568 8.38104 5.80707 8.356 5.78846C8.22825 5.70917 8.1032 5.64628 7.96185 5.59707C7.5677 5.4713 7.15724 5.40568 6.74678 5.42209C6.8614 5.35904 6.98311 5.33397 7.10645 5.30856C7.17031 5.29541 7.23461 5.28216 7.29859 5.26351C7.33895 5.25162 7.37895 5.23936 7.41873 5.22716C7.64419 5.15804 7.86292 5.09099 8.1032 5.10493C8.07175 5.09377 8.03148 5.0978 7.9944 5.10152C7.977 5.10326 7.9603 5.10493 7.94554 5.10493C7.76385 5.0914 7.5803 5.13185 7.38879 5.17407C7.34822 5.18301 7.30731 5.19202 7.26597 5.20063C7.19097 5.21624 7.11965 5.23865 7.04822 5.2611C6.96951 5.28584 6.89066 5.31063 6.80658 5.3264C6.77011 5.33897 6.74083 5.36039 6.71231 5.38124C6.66643 5.4148 6.62251 5.44692 6.55378 5.43849V5.38928C6.71144 5.19789 6.90172 5.00924 7.15452 4.99284C7.39889 4.95304 7.6293 4.98139 7.86966 5.01095C7.91004 5.01592 7.9507 5.02093 7.99176 5.02564C8.1888 5.0415 8.37315 5.08545 8.57179 5.13281L8.5925 5.13774C8.63599 5.13774 8.66045 5.17603 8.68414 5.21311C8.70339 5.24323 8.72213 5.27256 8.75016 5.27992C8.78886 5.29326 8.82756 5.29575 8.86626 5.29824C8.9227 5.30187 8.97914 5.3055 9.03558 5.3428C9.03558 5.33176 9.03373 5.32103 9.0319 5.3104C9.02829 5.28944 9.02475 5.26888 9.03558 5.24711C9.07065 5.21183 9.11085 5.22129 9.15043 5.23061C9.18141 5.2379 9.212 5.24511 9.23945 5.2307C9.32565 5.17721 9.24479 5.09508 9.16387 5.01288C9.12485 4.97325 9.08581 4.93361 9.06548 4.89714C9.06548 4.88074 9.08179 4.86433 9.08179 4.86433C9.11748 4.89633 9.15074 4.92945 9.18372 4.96228C9.26624 5.04445 9.34698 5.12483 9.45963 5.18149C9.53846 5.2143 9.72874 5.26078 9.69612 5.16508C9.64028 5.04115 9.5449 4.93367 9.44861 4.82516C9.40895 4.78048 9.36914 4.73561 9.33187 4.68935V4.62647C9.30709 4.62647 9.30114 4.617 9.29375 4.60526C9.29141 4.60154 9.28893 4.5976 9.28566 4.59366V4.53077C9.24581 4.50986 9.23688 4.47673 9.2279 4.44342C9.22279 4.42447 9.21767 4.40545 9.20683 4.3886C9.17958 4.34444 9.17762 4.29012 9.1756 4.23411C9.174 4.18955 9.17235 4.14392 9.1579 4.10152C9.12528 4.00582 9.11169 3.92654 9.09538 3.83084C9.07768 3.73294 9.05821 3.63934 9.03914 3.54769C9.00549 3.38596 8.97311 3.23033 8.95403 3.06803C8.92887 2.83605 9.04602 2.63986 9.16579 2.4393C9.20129 2.37985 9.23703 2.32 9.26935 2.25874C9.3808 2.06735 9.50584 1.8787 9.71243 1.75019C9.7575 1.56353 9.88014 1.40807 10.0022 1.25339L10.0114 1.24165C10.1319 1.09154 10.333 0.999771 10.4813 0.932139L10.498 0.924495C10.7182 0.826068 10.9166 0.763184 10.9193 0.763184H0V9.18147H7.74711C7.9543 9.03128 8.16021 8.93652 8.40533 8.82371C8.51717 8.77224 8.63717 8.71702 8.76918 8.65106C8.79714 8.637 8.83036 8.62065 8.86723 8.60252C9.08848 8.49366 9.44099 8.32023 9.5738 8.189ZM7.11555 7.05324C7.08482 7.05632 7.05223 7.0596 7.06453 7.03491C7.07594 6.97957 7.13261 6.96298 7.18794 6.94678C7.21164 6.93984 7.23509 6.93298 7.25463 6.92317L7.26358 6.91855L7.2701 6.91509C7.30075 6.89881 7.33827 6.87888 7.36598 6.89047C7.38466 6.91703 7.4078 6.92388 7.43029 6.93054C7.44703 6.9355 7.46341 6.94035 7.47732 6.95315C7.41857 7.0121 7.35001 7.01792 7.28049 7.02381C7.23432 7.02773 7.18772 7.03168 7.14329 7.05126C7.13531 7.05126 7.12551 7.05224 7.11555 7.05324ZM4.71064 6.66876C4.71064 6.68517 4.72695 6.70157 4.72695 6.70157C5.10751 6.27232 5.45273 5.90595 5.94202 5.60246C5.95512 5.59697 5.95025 5.60383 5.94377 5.61294C5.93413 5.62651 5.92092 5.64509 5.95833 5.63527C6.12032 5.59834 6.19307 5.45958 6.26384 5.32457C6.28215 5.28966 6.30032 5.255 6.31986 5.22242C6.3941 5.10169 6.49953 5.02434 6.60576 4.9464C6.68238 4.89019 6.75941 4.83368 6.82547 4.76036C6.82547 4.77677 6.82547 4.79317 6.80916 4.80957C6.82547 4.82598 6.84178 4.82598 6.85809 4.82598C6.88676 4.80435 6.91806 4.79539 6.94807 4.78681C6.98632 4.77587 7.02247 4.76553 7.04837 4.73029C6.92332 4.68107 6.76295 4.66467 6.6379 4.71388C6.30627 4.87246 6.02357 5.12673 5.75446 5.41381C5.59136 5.58606 5.42283 5.74737 5.21624 5.85947C5.07489 6.14382 4.91723 6.39809 4.71064 6.66876ZM6.03771 5.65191C6.02919 5.66901 6.02067 5.67791 6.01254 5.68641C6.00512 5.69416 5.99802 5.70159 5.99154 5.71459C5.97524 5.74729 5.95895 5.76092 5.92908 5.77727C5.91278 5.77727 5.89649 5.77727 5.89649 5.76092C5.91278 5.69824 5.95895 5.63556 6.02141 5.61921C6.03771 5.62193 6.03771 5.63828 6.03771 5.65191ZM6.73282 8.07997C6.7464 8.0663 6.76269 8.04989 6.77084 8.03349C6.78442 8.00068 6.70023 8.00888 6.68665 8.01708C6.67433 8.02701 6.66648 8.03693 6.65701 8.0489L6.65406 8.05263C6.64273 8.06566 6.62948 8.07773 6.61601 8.08997C6.60688 8.09828 6.59766 8.10667 6.58888 8.11551C6.55086 8.15379 6.51284 8.19207 6.47211 8.22761C6.44495 8.25222 6.53185 8.26315 6.55086 8.24675C6.57259 8.23034 6.5916 8.21121 6.61061 8.19207C6.61785 8.19207 6.62509 8.19085 6.62992 8.19004L6.63324 8.18951L6.63505 8.18933C6.68007 8.17423 6.71357 8.14289 6.74616 8.1124L6.75454 8.10458C6.76541 8.09364 6.75183 8.0827 6.73282 8.07997ZM6.48705 7.90217C6.48674 7.90222 6.48653 7.90231 6.48638 7.90246C6.48604 7.9028 6.48604 7.90348 6.48604 7.90485C6.46936 7.91628 6.4529 7.92793 6.43648 7.93955C6.39398 7.96961 6.35172 7.99952 6.30663 8.02515C6.26351 8.04944 6.2193 8.07042 6.17468 8.0916C6.14898 8.10379 6.12315 8.11605 6.09732 8.12905C6.09732 8.12905 6.09732 8.12631 6.0946 8.12631C6.08917 8.11811 6.07829 8.11538 6.06742 8.12084C6.00762 8.15365 5.95597 8.1974 5.90976 8.24388C5.90161 8.24935 5.89345 8.25755 5.88801 8.26575L5.86355 8.29036V8.29309C5.85268 8.30403 5.8418 8.31496 5.82821 8.33137C5.82539 8.33421 5.82321 8.33705 5.82113 8.33978C5.8172 8.34493 5.81357 8.34967 5.80646 8.35324C5.79559 8.35871 5.76841 8.35871 5.77113 8.34231V8.33957C5.76297 8.34504 5.7521 8.35051 5.74394 8.35324C5.73987 8.35598 5.73579 8.35803 5.73171 8.36008C5.72763 8.36213 5.72356 8.36418 5.71948 8.36691C5.71676 8.36418 5.71133 8.36418 5.70861 8.36418C5.70589 8.36418 5.70045 8.36418 5.69773 8.36691C5.69139 8.37238 5.68505 8.37754 5.67871 8.38271C5.66602 8.39304 5.65334 8.40337 5.64065 8.41613C5.60803 8.4462 5.57813 8.47901 5.54823 8.51455C5.54823 8.51455 5.54823 8.51729 5.54551 8.51729C5.54551 8.51865 5.54483 8.51934 5.54415 8.52002C5.54347 8.5207 5.54279 8.52139 5.54279 8.52276L5.53735 8.52822C5.53632 8.52927 5.53568 8.53031 5.53513 8.5312C5.53424 8.53265 5.5336 8.53369 5.53192 8.53369L5.5292 8.53643C5.52648 8.54189 5.52376 8.54736 5.51833 8.55283C5.51561 8.55556 5.51017 8.5583 5.50474 8.5583C5.50202 8.55556 5.4993 8.55283 5.4993 8.5501C5.49794 8.54873 5.49726 8.54736 5.49658 8.546C5.4959 8.54463 5.49522 8.54326 5.49386 8.54189C5.49114 8.53779 5.48911 8.53369 5.48707 8.52959C5.48503 8.52549 5.48299 8.52139 5.48027 8.51729V8.51455C5.48027 8.51319 5.47959 8.51182 5.47891 8.51045C5.47823 8.50908 5.47755 8.50772 5.47755 8.50635L5.52648 8.44894L5.5292 8.4462C5.53192 8.44347 5.53463 8.44005 5.53735 8.43664C5.54007 8.43322 5.54279 8.4298 5.54551 8.42706C5.54959 8.42159 5.55434 8.41613 5.5591 8.41066C5.56385 8.40519 5.56862 8.39972 5.57269 8.39425C5.57405 8.39152 5.57541 8.38947 5.57677 8.38742C5.57813 8.38537 5.57949 8.38332 5.58085 8.38058C5.59716 8.35871 5.61347 8.33684 5.62978 8.31223V8.3095C5.63249 8.30676 5.63521 8.30403 5.63521 8.29856C5.64336 8.28763 5.65152 8.27668 5.65696 8.26575L5.67327 8.23294V8.23021L5.67599 8.22747C5.67599 8.22611 5.67667 8.22542 5.67735 8.22474C5.67803 8.22406 5.67871 8.22337 5.67871 8.222C5.68142 8.21517 5.68414 8.20903 5.68686 8.20288C5.68957 8.19673 5.6923 8.19056 5.69502 8.18373V8.18099L5.69773 8.17006C5.69909 8.16732 5.69977 8.16459 5.70045 8.16185C5.70113 8.15912 5.70181 8.15639 5.70317 8.15365V8.15092C5.70453 8.14682 5.70521 8.14271 5.70589 8.13861C5.70657 8.13451 5.70725 8.13041 5.70861 8.12631C5.70861 8.12358 5.70861 8.11811 5.70589 8.11538C5.7222 8.0853 5.74394 8.05796 5.76841 8.03062C5.76705 8.03062 5.76569 8.0313 5.76433 8.03198C5.76355 8.03238 5.76277 8.03277 5.76199 8.03303C5.76141 8.03323 5.76083 8.03335 5.76025 8.03335C5.74816 8.04096 5.73774 8.0511 5.72713 8.06143C5.71868 8.06967 5.7101 8.07802 5.70045 8.0853C5.68414 8.09897 5.65152 8.0771 5.67327 8.06069C5.68686 8.04976 5.69773 8.03883 5.7086 8.02789C5.7086 8.02789 5.70861 8.02515 5.71133 8.02515C5.72216 8.01534 5.73256 8.00423 5.74305 7.99303C5.75887 7.97613 5.7749 7.95901 5.79287 7.94586C5.8119 7.93219 5.82549 7.92125 5.8418 7.90758C5.84452 7.90485 5.84724 7.90212 5.84996 7.90212C5.86083 7.88844 5.8717 7.87477 5.88529 7.8611C5.88529 7.8611 5.88801 7.8611 5.88801 7.85837C5.98136 7.76783 6.11253 7.7359 6.24642 7.7033C6.33086 7.68275 6.41639 7.66192 6.49419 7.62597C6.53813 7.60768 6.58714 7.61488 6.63557 7.62199C6.67402 7.62764 6.7121 7.63323 6.74699 7.62597C6.7932 7.62597 6.84213 7.62597 6.88834 7.65878C6.78086 7.71601 6.67828 7.78147 6.5768 7.84622C6.54741 7.86496 6.51804 7.8837 6.48875 7.90212C6.48799 7.90212 6.48745 7.90212 6.48705 7.90217ZM6.82673 6.78783C6.81401 6.78929 6.80576 6.79024 6.81283 6.79735C6.85904 6.84383 6.95418 6.82742 7.01942 6.79188C7.06563 6.75907 7.11456 6.75907 7.17708 6.75907C7.19339 6.75907 7.19339 6.72899 7.19339 6.71259C7.2396 6.72899 7.27222 6.72899 7.31843 6.72899C7.69627 6.6497 8.06052 6.57042 8.40846 6.39543C8.05641 6.12341 7.62237 6.00223 7.19724 5.88355C7.12671 5.86386 7.05643 5.84424 6.9868 5.82401C7.00211 5.82401 7.01741 5.8291 7.03281 5.83424C7.06392 5.8446 7.09543 5.85509 7.12815 5.82401C7.08502 5.7896 7.03701 5.78302 6.98945 5.77651C6.9501 5.77112 6.91105 5.76577 6.87535 5.74472C6.87908 5.74472 6.88351 5.74557 6.88832 5.7465C6.90461 5.74964 6.92529 5.75363 6.93787 5.72831C6.8553 5.68679 6.77273 5.67268 6.68938 5.65845C6.64651 5.65112 6.60343 5.64376 6.56003 5.63262C6.63886 5.61622 6.68779 5.55333 6.68779 5.47404C6.68779 5.45764 6.65517 5.45764 6.63886 5.45764C6.4513 5.55333 6.32354 5.72831 6.24471 5.93337C6.31578 5.97521 6.39237 5.97036 6.46745 5.96561C6.5101 5.96291 6.55227 5.96024 6.59265 5.96618C6.55701 6.00004 6.5055 6.00923 6.45598 6.01807C6.43753 6.02136 6.41935 6.02461 6.40237 6.02906C6.35344 6.04 6.30723 6.07554 6.32354 6.10835C6.33441 6.12202 6.34529 6.12749 6.35888 6.13023C6.32354 6.14116 6.29092 6.15757 6.26102 6.18764C6.30577 6.22287 6.35192 6.21607 6.39746 6.20936C6.41554 6.2067 6.43353 6.20405 6.4513 6.20405C6.4513 6.2239 6.46433 6.23065 6.47789 6.23766C6.48486 6.24127 6.49197 6.24495 6.49751 6.25053C6.41868 6.2806 6.35616 6.34622 6.33985 6.3927C6.32036 6.44006 6.28439 6.47084 6.24873 6.50135C6.22469 6.52192 6.2008 6.54236 6.18219 6.56768V6.6169C6.12968 6.66345 6.07571 6.70502 6.02247 6.74602C5.91313 6.83024 5.8069 6.91206 5.7228 7.02974C5.73911 7.02974 5.73911 7.04615 5.73911 7.06255C5.72407 7.08525 5.70267 7.10096 5.68238 7.11587C5.65866 7.13329 5.63645 7.1496 5.62766 7.17465C5.62766 7.19106 5.62766 7.20746 5.64397 7.20746C5.74372 7.1745 5.83002 7.11899 5.91463 7.06457C5.99141 7.01519 6.0668 6.9667 6.14957 6.93679C6.21721 6.92052 6.27611 6.88984 6.33356 6.85992C6.38232 6.83453 6.43004 6.80967 6.4812 6.79461C6.52062 6.78641 6.56411 6.77479 6.6076 6.76317C6.65109 6.75155 6.69459 6.73993 6.734 6.73173C6.734 6.74813 6.734 6.76454 6.75031 6.76454H6.87535C6.86765 6.78313 6.84337 6.78592 6.82673 6.78783Z" fill="#000091"/>
<path d="M23.1582 0.763184H14.1032C14.1032 0.763184 14.1196 0.765921 14.188 0.801511C14.2619 0.839839 14.3577 0.891854 14.4152 0.921969C14.5329 0.982198 14.6451 1.05885 14.719 1.17657C14.7519 1.22311 14.7984 1.31893 14.7683 1.3819C14.7355 1.46129 14.719 1.58996 14.6397 1.62008C14.5439 1.66935 14.4179 1.66935 14.3057 1.65293C14.2428 1.65293 14.1798 1.6365 14.1141 1.62008C14.3522 1.71589 14.5767 1.82814 14.7355 2.04989C14.7519 2.08274 14.8149 2.09643 14.8778 2.09643C14.8942 2.09643 14.8942 2.12928 14.8942 2.14297C14.8614 2.17582 14.8313 2.19225 14.8477 2.23879H14.8942C14.9736 2.20594 14.9572 2.04715 15.0694 2.09643C15.1488 2.14297 15.1817 2.25522 15.1324 2.33461C15.0694 2.39758 15.0065 2.44685 14.9408 2.49339C14.9243 2.52625 14.9243 2.57279 14.9408 2.60564C14.9873 2.66861 15.0037 2.73157 15.0202 2.79728C15.0694 2.90952 15.0831 3.03545 15.1324 3.1477C15.1953 3.38588 15.2583 3.62405 15.2446 3.86497C15.2446 3.9909 15.1817 4.10315 15.2282 4.23182C15.261 4.35775 15.3404 4.45357 15.4034 4.56581C15.4663 4.66163 15.5293 4.7246 15.5786 4.82042C15.6744 4.9792 15.8496 5.13799 15.7702 5.32963C15.7236 5.44187 15.5485 5.42544 15.4362 5.48841C15.3404 5.5678 15.4198 5.69647 15.4691 5.77587C15.5485 5.91823 15.3733 6.01405 15.261 6.06332C15.2939 6.1126 15.3568 6.09618 15.3733 6.12629C15.3897 6.20568 15.4691 6.25222 15.4198 6.33435C15.3568 6.43017 15.1652 6.47671 15.261 6.62181C15.324 6.73405 15.2829 6.85725 15.2446 6.97223C15.1981 7.11459 15.0694 7.17756 14.9572 7.21041C14.8614 7.24326 14.7492 7.24326 14.6561 7.22684C14.6232 7.21041 14.5931 7.19398 14.5603 7.19398C14.2893 7.16113 14.0183 7.08448 13.75 7.08448C13.6707 7.1009 13.5913 7.11459 13.5283 7.14744C13.4571 7.19946 13.3914 7.25695 13.3367 7.31718C13.3367 7.31718 13.3367 7.31718 13.334 7.31992C13.323 7.3336 13.3093 7.34456 13.2984 7.35824C13.2929 7.36646 13.2847 7.37467 13.2792 7.38288C13.2737 7.38836 13.271 7.39383 13.2655 7.39931C13.219 7.4568 13.1779 7.51977 13.1396 7.58273C13.1369 7.58821 13.1341 7.59095 13.1314 7.59368C13.1287 7.6019 13.1232 7.60737 13.1177 7.61559C13.0657 7.7114 13.0274 7.80996 12.9973 7.90852C12.8878 8.27263 12.9371 8.58472 13.0137 8.66138C13.0356 8.68328 13.5393 8.83933 13.8896 8.99537C14.0539 9.06929 14.1688 9.12404 14.2647 9.18427H23.1555V0.763184H23.1582Z" fill="#E1000F"/>
<path d="M14.6412 3.83303C14.704 3.84943 14.7996 3.84943 14.7996 3.88224C14.7668 4.00801 14.5784 4.04082 14.4829 4.16932H14.4337C14.3873 4.20213 14.401 4.28142 14.3546 4.28142C14.3082 4.26502 14.259 4.28142 14.2126 4.29783C14.2754 4.36071 14.3546 4.40992 14.4501 4.39352C14.4665 4.39352 14.4965 4.42633 14.4965 4.4564C14.4965 4.4564 14.5129 4.4564 14.5293 4.44C14.5457 4.44 14.5621 4.44 14.5621 4.4564V4.51929C14.5156 4.58217 14.4337 4.5521 14.3709 4.56577C14.4993 4.59858 14.6249 4.59858 14.7368 4.56577C14.8323 4.53296 14.7368 4.37438 14.7996 4.29509C14.7668 4.29509 14.7996 4.24588 14.7668 4.24588C14.7996 4.21307 14.8296 4.16659 14.8624 4.15018C14.8951 4.15018 14.9416 4.13378 14.9579 4.10097C14.9579 4.06816 14.8951 4.05449 14.9088 4.02168C15.0043 3.9588 15.0835 3.8631 15.0508 3.76741C15.0344 3.7182 14.9088 3.7182 14.8296 3.68812C14.7504 3.65805 14.6549 3.68812 14.5593 3.70453C14.4802 3.70453 14.401 3.75374 14.3218 3.76741C14.2099 3.80022 14.1143 3.8631 14.0215 3.92599C14.1334 3.87951 14.2426 3.8631 14.3709 3.83029C14.4665 3.83303 14.5457 3.81116 14.6412 3.83303Z" fill="#808080"/>
<path d="M0.867372 19.9912V14.0964H2.35791L3.79791 16.5722L5.23792 14.0964H6.72845V19.9912H5.53266V15.7638L4.21897 17.9701H3.37686L2.06317 15.7638V19.9912H0.867372ZM8.49997 19.9912V14.0964H9.69577V19.9912H8.49997ZM11.4697 19.9912V14.0964H13.0024L15.6382 18.3575V14.0964H16.834V19.9912H15.3013L12.6655 15.7301V19.9912H11.4697ZM18.6089 19.9912V14.0964H19.8047V19.9912H18.6089ZM21.0481 19.1744L21.9155 18.3744C22.2692 18.8291 22.7408 19.0986 23.2208 19.0986C23.6923 19.0986 23.9787 18.8459 23.9787 18.4249C23.9787 17.3386 21.3008 17.6333 21.3008 15.6375C21.3008 14.7028 22.0755 13.928 23.2039 13.928C24.0881 13.928 24.7618 14.3238 25.2671 14.9217L24.3913 15.7133C24.046 15.267 23.6587 14.9722 23.2123 14.9722C22.7913 14.9722 22.5134 15.2417 22.5134 15.5954C22.5134 16.6649 25.1913 16.3617 25.1913 18.3828C25.1745 19.4944 24.3155 20.1596 23.2292 20.1596C22.2355 20.1596 21.5702 19.7975 21.0481 19.1744ZM25.924 15.1828V14.0964H30.7577V15.1828H28.9387V19.9912H27.743V15.1828H25.924ZM33.1217 13.5912L32.0353 12.4543H33.2648L34.2164 13.5912H33.1217ZM31.9343 19.9912V14.0964H35.3701V15.0901H33.1301V16.488H35.0332V17.4817H33.1301V18.9975H35.3701V19.9912H31.9343ZM36.886 19.9912V14.0964H38.6881C39.9849 14.0964 40.7849 14.7617 40.7849 15.8565C40.7849 16.5722 40.4397 17.1028 39.8333 17.3807L41.6776 19.9912H40.2712L38.6965 17.608H38.0817V19.9912H36.886ZM38.7554 15.0901H38.0817V16.6144H38.7554C39.2607 16.6144 39.5554 16.3196 39.5554 15.8396C39.5554 15.3933 39.2607 15.0901 38.7554 15.0901ZM42.5613 19.9912V14.0964H45.9971V15.0901H43.7571V16.488H45.6603V17.4817H43.7571V18.9975H45.9971V19.9912H42.5613ZM0.867372 27.9912V22.0964H3.18317C5.05265 22.0964 6.31582 23.4522 6.31582 25.0438C6.31582 26.6354 5.05265 27.9912 3.18317 27.9912H0.867372ZM3.20001 23.1828H2.06317V26.9049H3.20001C4.29476 26.9049 5.08634 26.088 5.08634 25.0438C5.08634 23.9912 4.29476 23.1828 3.20001 23.1828ZM7.59536 27.9912V22.0964H11.0312V23.0901H8.79116V24.488H10.6943V25.4817H8.79116V26.9975H11.0312V27.9912H7.59536ZM14.8589 27.9912V22.0964H16.0547V26.9049H18.2947V27.9912H14.8589ZM19.6963 24.5217H18.7616L18.6269 22.0964H19.8227L19.6963 24.5217ZM21.2671 27.9912V22.0964H24.7029V23.0901H22.4629V24.488H24.3661V25.4817H22.4629V26.9975H24.7029V27.9912H21.2671ZM26.2188 27.9912V22.0964H28.5346C30.4041 22.0964 31.6672 23.4522 31.6672 25.0438C31.6672 26.6354 30.4041 27.9912 28.5346 27.9912H26.2188ZM28.5514 23.1828H27.4146V26.9049H28.5514C29.6462 26.9049 30.4378 26.088 30.4378 25.0438C30.4378 23.9912 29.6462 23.1828 28.5514 23.1828ZM36.4231 25.7849V22.0964H37.6189V25.6838C37.6189 27.2333 36.7094 28.1596 35.2273 28.1596C33.7536 28.1596 32.8442 27.2333 32.8442 25.6838V22.0964H34.04V25.7849C34.04 26.5765 34.4863 27.0396 35.2358 27.0396C35.9684 27.0396 36.4231 26.5765 36.4231 25.7849ZM41.9239 27.0396C42.5976 27.0396 43.1281 26.7112 43.4649 26.2312L44.4081 26.9554C43.8691 27.6881 42.9934 28.1596 41.9239 28.1596C40.0628 28.1596 38.7912 26.728 38.7912 25.0438C38.7912 23.3596 40.0628 21.928 41.9239 21.928C42.9934 21.928 43.8691 22.408 44.4081 23.1238L43.4649 23.8565C43.1281 23.3765 42.5976 23.048 41.9239 23.048C40.8123 23.048 40.0207 23.9154 40.0207 25.0438C40.0207 26.1723 40.8123 27.0396 41.9239 27.0396ZM44.79 27.9912L47.0216 22.0964H48.5879L50.8195 27.9912H49.5479L48.9837 26.4586H46.6258L46.0616 27.9912H44.79ZM46.9963 25.4396H48.6132L47.8048 23.2249L46.9963 25.4396ZM50.6577 23.1828V22.0964H55.4914V23.1828H53.6724V27.9912H52.4766V23.1828H50.6577ZM56.668 27.9912V22.0964H57.8637V27.9912H56.668ZM62.2651 21.928C64.1177 21.928 65.3893 23.3596 65.3893 25.0438C65.3893 26.728 64.1177 28.1596 62.2651 28.1596C60.404 28.1596 59.1324 26.728 59.1324 25.0438C59.1324 23.3596 60.404 21.928 62.2651 21.928ZM62.2651 27.0396C63.3682 27.0396 64.1598 26.1723 64.1598 25.0438C64.1598 23.9154 63.3682 23.048 62.2651 23.048C61.1535 23.048 60.3619 23.9154 60.3619 25.0438C60.3619 26.1723 61.1535 27.0396 62.2651 27.0396ZM66.6617 27.9912V22.0964H68.1944L70.8302 26.3575V22.0964H72.026V27.9912H70.4933L67.8575 23.7301V27.9912H66.6617ZM0.867372 36.9912V31.0964H2.40001L5.03581 35.3575V31.0964H6.23161V36.9912H4.69897L2.06317 32.7301V36.9912H0.867372ZM7.26549 36.9912L9.49708 31.0964H11.0634L13.295 36.9912H12.0234L11.4592 35.4586H9.10129L8.53708 36.9912H7.26549ZM9.47182 34.4396H11.0887L10.2802 32.2249L9.47182 34.4396ZM13.1332 32.1828V31.0964H17.9669V32.1828H16.1479V36.9912H14.9521V32.1828H13.1332ZM19.1434 36.9912V31.0964H20.3392V36.9912H19.1434ZM24.7406 30.928C26.5932 30.928 27.8648 32.3596 27.8648 34.0438C27.8648 35.728 26.5932 37.1596 24.7406 37.1596C22.8795 37.1596 21.6079 35.728 21.6079 34.0438C21.6079 32.3596 22.8795 30.928 24.7406 30.928ZM24.7406 36.0396C25.8437 36.0396 26.6353 35.1723 26.6353 34.0438C26.6353 32.9154 25.8437 32.048 24.7406 32.048C23.629 32.048 22.8374 32.9154 22.8374 34.0438C22.8374 35.1723 23.629 36.0396 24.7406 36.0396ZM29.1372 36.9912V31.0964H30.6699L33.3057 35.3575V31.0964H34.5015V36.9912H32.9688L30.333 32.7301V36.9912H29.1372ZM35.5354 36.9912L37.7669 31.0964H39.3333L41.5649 36.9912H40.2933L39.7291 35.4586H37.3712L36.8069 36.9912H35.5354ZM37.7417 34.4396H39.3585L38.5501 32.2249L37.7417 34.4396ZM42.6014 36.9912V31.0964H43.7972V35.9049H46.0372V36.9912H42.6014ZM47.2159 36.9912V31.0964H50.6517V32.0901H48.4117V33.488H50.3149V34.4817H48.4117V35.9975H50.6517V36.9912H47.2159ZM52.5689 38.3386H51.5752L52.3415 35.8207H53.5457L52.5689 38.3386ZM0.867372 44.9912V39.0964H3.18317C5.05265 39.0964 6.31582 40.4522 6.31582 42.0438C6.31582 43.6354 5.05265 44.9912 3.18317 44.9912H0.867372ZM3.20001 40.1828H2.06317V43.9049H3.20001C4.29476 43.9049 5.08634 43.088 5.08634 42.0438C5.08634 40.9912 4.29476 40.1828 3.20001 40.1828ZM7.59536 44.9912V39.0964H11.0312V40.0901H8.79116V41.488H10.6943V42.4817H8.79116V43.9975H11.0312V44.9912H7.59536ZM14.8589 44.9912V39.0964H16.0547V43.9049H18.2947V44.9912H14.8589ZM19.6963 41.5217H18.7616L18.6269 39.0964H19.8227L19.6963 41.5217ZM21.2671 44.9912V39.0964H24.7029V40.0901H22.4629V41.488H24.3661V42.4817H22.4629V43.9975H24.7029V44.9912H21.2671ZM26.2188 44.9912V39.0964H27.7514L30.3872 43.3575V39.0964H31.583V44.9912H30.0504L27.4146 40.7301V44.9912H26.2188ZM32.8274 44.1744L33.6948 43.3744C34.0485 43.8291 34.5201 44.0986 35.0001 44.0986C35.4717 44.0986 35.758 43.8459 35.758 43.4249C35.758 42.3386 33.0801 42.6333 33.0801 40.6375C33.0801 39.7028 33.8548 38.928 34.9832 38.928C35.8675 38.928 36.5411 39.3238 37.0464 39.9217L36.1706 40.7133C35.8254 40.267 35.438 39.9722 34.9917 39.9722C34.5706 39.9722 34.2927 40.2417 34.2927 40.5954C34.2927 41.6649 36.9706 41.3617 36.9706 43.3828C36.9538 44.4944 36.0948 45.1596 35.0085 45.1596C34.0148 45.1596 33.3496 44.7975 32.8274 44.1744ZM38.3508 44.9912V39.0964H41.7866V40.0901H39.5466V41.488H41.4497V42.4817H39.5466V43.9975H41.7866V44.9912H38.3508ZM43.3024 44.9912V39.0964H44.4982V44.9912H43.3024ZM48.9838 44.0396C49.5396 44.0396 50.0196 43.8459 50.3564 43.5259V42.4986H48.8575V41.4796H51.5522V43.9554C51.0048 44.6881 50.0869 45.1596 48.9838 45.1596C47.0722 45.1596 45.7669 43.728 45.7669 42.0438C45.7669 40.3596 47.0385 38.928 48.8996 38.928C49.969 38.928 50.8448 39.408 51.3838 40.1238L50.4406 40.8565C50.1038 40.3765 49.5732 40.048 48.8996 40.048C47.788 40.048 46.9964 40.9154 46.9964 42.0438C46.9964 43.1723 47.8301 44.0396 48.9838 44.0396ZM53.0084 44.9912V39.0964H54.541L57.1768 43.3575V39.0964H58.3726V44.9912H56.84L54.2042 40.7301V44.9912H53.0084ZM60.1476 44.9912V39.0964H63.5834V40.0901H61.3434V41.488H63.2465V42.4817H61.3434V43.9975H63.5834V44.9912H60.1476ZM65.0992 44.9912V39.0964H66.5898L68.0298 41.5722L69.4698 39.0964H70.9603V44.9912H69.7645V40.7638L68.4508 42.9701H67.6087L66.295 40.7638V44.9912H65.0992ZM72.7318 44.9912V39.0964H76.1676V40.0901H73.9276V41.488H75.8308V42.4817H73.9276V43.9975H76.1676V44.9912H72.7318ZM77.6835 44.9912V39.0964H79.2161L81.8519 43.3575V39.0964H83.0477V44.9912H81.5151L78.8793 40.7301V44.9912H77.6835ZM84.2164 40.1828V39.0964H89.0501V40.1828H87.2311V44.9912H86.0353V40.1828H84.2164ZM0.336844 53.1744L1.20422 52.3744C1.5579 52.8291 2.02948 53.0986 2.50948 53.0986C2.98107 53.0986 3.26738 52.8459 3.26738 52.4249C3.26738 51.3386 0.589476 51.6333 0.589476 49.6375C0.589476 48.7028 1.36422 47.928 2.49264 47.928C3.37686 47.928 4.05054 48.3238 4.55581 48.9217L3.68002 49.7133C3.33475 49.267 2.94738 48.9722 2.50106 48.9722C2.08001 48.9722 1.80211 49.2417 1.80211 49.5954C1.80211 50.6649 4.48002 50.3617 4.48002 52.3828C4.46318 53.4944 3.60423 54.1596 2.51791 54.1596C1.52422 54.1596 0.858951 53.7975 0.336844 53.1744ZM9.2707 51.7849V48.0964H10.4665V51.6838C10.4665 53.2333 9.55702 54.1596 8.0749 54.1596C6.60121 54.1596 5.69174 53.2333 5.69174 51.6838V48.0964H6.88753V51.7849C6.88753 52.5765 7.33385 53.0396 8.08333 53.0396C8.81596 53.0396 9.2707 52.5765 9.2707 51.7849ZM12.0783 53.9912V48.0964H14.0235C15.3204 48.0964 16.112 48.7617 16.112 49.8565C16.112 50.9428 15.3204 51.608 14.0235 51.608H13.2741V53.9912H12.0783ZM14.0741 49.0901H13.2741V50.6144H14.0741C14.5793 50.6144 14.8825 50.3196 14.8825 49.8396C14.8825 49.3933 14.5793 49.0901 14.0741 49.0901ZM19.4757 47.5912H18.3894L19.341 46.4543H20.5705L19.4757 47.5912ZM17.2273 53.9912V48.0964H20.6631V49.0901H18.4231V50.488H20.3263V51.4817H18.4231V52.9975H20.6631V53.9912H17.2273ZM22.179 53.9912V48.0964H23.9811C25.2779 48.0964 26.0779 48.7617 26.0779 49.8565C26.0779 50.5722 25.7327 51.1028 25.1264 51.3807L26.9706 53.9912H25.5643L23.9895 51.608H23.3748V53.9912H22.179ZM24.0485 49.0901H23.3748V50.6144H24.0485C24.5537 50.6144 24.8485 50.3196 24.8485 49.8396C24.8485 49.3933 24.5537 49.0901 24.0485 49.0901ZM27.8543 53.9912V48.0964H29.0501V53.9912H27.8543ZM30.8241 53.9912V48.0964H34.2599V49.0901H32.0199V50.488H33.923V51.4817H32.0199V52.9975H34.2599V53.9912H30.8241ZM39.2192 51.7849V48.0964H40.415V51.6838C40.415 53.2333 39.5055 54.1596 38.0234 54.1596C36.5497 54.1596 35.6402 53.2333 35.6402 51.6838V48.0964H36.836V51.7849C36.836 52.5765 37.2823 53.0396 38.0318 53.0396C38.7644 53.0396 39.2192 52.5765 39.2192 51.7849ZM42.0268 53.9912V48.0964H43.8289C45.1257 48.0964 45.9257 48.7617 45.9257 49.8565C45.9257 50.5722 45.5805 51.1028 44.9741 51.3807L46.8184 53.9912H45.412L43.8373 51.608H43.2226V53.9912H42.0268ZM43.8962 49.0901H43.2226V50.6144H43.8962C44.4015 50.6144 44.6963 50.3196 44.6963 49.8396C44.6963 49.3933 44.4015 49.0901 43.8962 49.0901ZM0.867372 61.9912V56.0964H4.30318V57.0901H2.06317V58.488H3.96633V59.4817H2.06317V60.9975H4.30318V61.9912H0.867372ZM5.33608 57.1828V56.0964H10.1698V57.1828H8.35083V61.9912H7.15503V57.1828H5.33608ZM13.6582 61.9912V56.0964H15.974C17.8435 56.0964 19.1067 57.4522 19.1067 59.0438C19.1067 60.6354 17.8435 61.9912 15.974 61.9912H13.6582ZM15.9909 57.1828H14.854V60.9049H15.9909C17.0856 60.9049 17.8772 60.088 17.8772 59.0438C17.8772 57.9912 17.0856 57.1828 15.9909 57.1828ZM20.3862 61.9912V56.0964H23.822V57.0901H21.582V58.488H23.4852V59.4817H21.582V60.9975H23.822V61.9912H20.3862ZM27.6497 61.9912V56.0964H28.8455V60.9049H31.0855V61.9912H27.6497ZM31.7781 61.9912L34.0097 56.0964H35.576L37.8076 61.9912H36.536L35.9718 60.4586H33.6139L33.0497 61.9912H31.7781ZM33.9844 59.4396H35.6013L34.7929 57.2249L33.9844 59.4396ZM41.156 61.9912V56.0964H42.9582C44.255 56.0964 45.055 56.7617 45.055 57.8565C45.055 58.5722 44.7097 59.1028 44.1034 59.3807L45.9476 61.9912H44.5413L42.9666 59.608H42.3518V61.9912H41.156ZM43.0255 57.0901H42.3518V58.6144H43.0255C43.5308 58.6144 43.8255 58.3196 43.8255 57.8396C43.8255 57.3933 43.5308 57.0901 43.0255 57.0901ZM46.8314 61.9912V56.0964H50.2672V57.0901H48.0272V58.488H49.9304V59.4817H48.0272V60.9975H50.2672V61.9912H46.8314ZM54.2789 61.0396C54.9525 61.0396 55.4831 60.7112 55.8199 60.2312L56.7631 60.9554C56.2241 61.6881 55.3483 62.1596 54.2789 62.1596C52.4178 62.1596 51.1462 60.728 51.1462 59.0438C51.1462 57.3596 52.4178 55.928 54.2789 55.928C55.3483 55.928 56.2241 56.408 56.7631 57.1238L55.8199 57.8565C55.4831 57.3765 54.9525 57.048 54.2789 57.048C53.1673 57.048 52.3757 57.9154 52.3757 59.0438C52.3757 60.1723 53.1673 61.0396 54.2789 61.0396ZM57.9272 61.9912V56.0964H59.123V58.4459H62.0956V56.0964H63.2914V61.9912H62.0956V59.5323H59.123V61.9912H57.9272ZM65.0663 61.9912V56.0964H68.5021V57.0901H66.2621V58.488H68.1653V59.4817H66.2621V60.9975H68.5021V61.9912H65.0663ZM70.018 61.9912V56.0964H71.8201C73.117 56.0964 73.917 56.7617 73.917 57.8565C73.917 58.5722 73.5717 59.1028 72.9654 59.3807L74.8096 61.9912H73.4033L71.8285 59.608H71.2138V61.9912H70.018ZM71.8875 57.0901H71.2138V58.6144H71.8875C72.3928 58.6144 72.6875 58.3196 72.6875 57.8396C72.6875 57.3933 72.3928 57.0901 71.8875 57.0901ZM78.2303 61.0396C78.904 61.0396 79.4345 60.7112 79.7713 60.2312L80.7145 60.9554C80.1756 61.6881 79.2998 62.1596 78.2303 62.1596C76.3692 62.1596 75.0976 60.728 75.0976 59.0438C75.0976 57.3596 76.3692 55.928 78.2303 55.928C79.2998 55.928 80.1756 56.408 80.7145 57.1238L79.7713 57.8565C79.4345 57.3765 78.904 57.048 78.2303 57.048C77.1187 57.048 76.3271 57.9154 76.3271 59.0438C76.3271 60.1723 77.1187 61.0396 78.2303 61.0396ZM81.8786 61.9912V56.0964H83.0744V58.4459H86.047V56.0964H87.2428V61.9912H86.047V59.5323H83.0744V61.9912H81.8786ZM89.0178 61.9912V56.0964H92.4536V57.0901H90.2136V58.488H92.1167V59.4817H90.2136V60.9975H92.4536V61.9912H89.0178Z" fill="black"/>
<path fill-rule="evenodd" clip-rule="evenodd" d="M21.8808 77.457L21.0975 78.1728H20.8954L21.3586 77.356H21.8808V77.457ZM21.3165 80.2271H21.1481C20.9375 80.4797 20.7017 80.6818 20.4743 80.6818C20.2385 80.6818 20.1206 80.5387 20.1206 80.2271C20.1206 80.1008 20.1374 79.9661 20.1627 79.8482L21.5355 79.3935C21.805 78.7535 21.485 78.4756 21.106 78.4756C20.4574 78.4756 19.7163 79.6124 19.7163 80.5218C19.7163 80.9513 19.9184 81.1871 20.2385 81.1871C20.609 81.1786 20.9965 80.8166 21.3165 80.2271ZM20.8454 78.8464C21.0307 78.8464 21.1907 78.9895 21.1065 79.3179L20.2558 79.5453C20.3906 79.1411 20.6433 78.8464 20.8454 78.8464ZM18.1675 78.863H18.6223L17.898 80.8503C17.8306 81.0187 17.9232 81.1871 18.1001 81.1871C18.6139 81.1871 19.2287 80.7492 19.4645 80.1261H19.3382C19.1529 80.3871 18.7486 80.6734 18.4454 80.7239L19.1108 78.863H19.793L19.8772 78.5767H19.2119L19.4645 77.8609H19.2034L18.7318 78.5767L18.1675 78.6525V78.863ZM17.5354 78.4845C17.628 78.4845 17.7543 78.5856 17.6954 78.7708L16.8784 80.7497C17.089 80.716 17.308 80.5139 17.4343 80.3287H17.569C17.3753 80.8255 16.9374 81.1876 16.5584 81.1876C16.4657 81.1876 16.331 81.0865 16.3983 80.9013L17.1564 78.9224C16.9458 78.9561 16.7268 79.1582 16.6005 79.3434H16.4741C16.6679 78.8382 17.1395 78.4845 17.5354 78.4845ZM17.7717 77.9791C17.9402 77.9791 18.0834 77.8444 18.0834 77.6675C18.0834 77.4991 17.9402 77.356 17.7717 77.356C17.5949 77.356 17.4601 77.4991 17.4601 77.6675C17.4601 77.8359 17.6033 77.9791 17.7717 77.9791ZM14.0911 79.6213C14.2764 79.2171 14.209 79.0319 14.0911 79.0319C13.99 79.0319 13.8721 79.1413 13.7542 79.3434H13.6278C13.8216 78.914 14.0742 78.4845 14.3522 78.4845C14.588 78.4845 14.6722 78.7203 14.6722 78.9814V79.3519C14.7101 79.3078 14.747 79.2645 14.7831 79.2222L14.7837 79.2214L14.7843 79.2208C15.1401 78.8033 15.4118 78.4845 15.725 78.4845C15.9692 78.4845 16.0956 78.6361 16.0956 78.8635C16.0956 78.9982 16.0535 79.1666 15.9608 79.3434L15.2618 80.7497C15.4723 80.716 15.6913 80.5139 15.8176 80.3287H15.944C15.7503 80.8339 15.2786 81.1876 14.8828 81.1876C14.7059 81.1876 14.6048 81.0023 14.6806 80.8507L15.4892 79.2929C15.5818 79.1161 15.5987 78.9982 15.4555 78.9982C15.2618 78.9982 14.807 79.3182 14.5627 79.6129L14.0321 81.0107C13.9732 81.1539 13.9142 81.1876 13.7794 81.1876C13.5605 81.1876 13.451 81.0444 13.552 80.817L14.0911 79.6213ZM13.543 79.0819C13.6356 78.7619 13.5851 78.4756 13.3409 78.4756C13.0363 78.4756 12.9409 78.6768 12.6457 79.2992L12.625 79.343V78.9724C12.625 78.7114 12.5407 78.4756 12.3049 78.4756C12.027 78.4756 11.7743 78.9051 11.5806 79.3345H11.7069C11.8417 79.1409 11.968 79.023 12.0691 79.023C12.187 79.023 12.2544 79.2082 12.0691 79.6124L11.5301 80.8081C11.429 81.0355 11.5385 81.1786 11.7575 81.1786C11.8922 81.1786 11.9512 81.145 12.0101 81.0018L12.5407 79.604C12.6923 79.4187 12.8271 79.2587 12.9955 79.0819H13.543ZM10.8817 79.3179C10.966 78.9895 10.8059 78.8464 10.6207 78.8464C10.4185 78.8464 10.1658 79.1411 10.0311 79.5453L10.8817 79.3179ZM11.0918 80.2271H10.9233C10.7128 80.4797 10.477 80.6818 10.2495 80.6818C10.0137 80.6818 9.89581 80.5387 9.89581 80.2271C9.89581 80.1008 9.91266 79.9661 9.93792 79.8482L11.3108 79.3935C11.5803 78.7535 11.2602 78.4756 10.8812 78.4756C10.2327 78.4756 9.49154 79.6124 9.49154 80.5218C9.49154 80.9513 9.69368 81.1871 10.0137 81.1871C10.3843 81.1786 10.7717 80.8166 11.0918 80.2271ZM8.39756 78.863H7.94275V78.6525L8.50705 78.5767L8.9787 77.8609H9.23979L8.98712 78.5767H9.65248L9.56826 78.863H8.88605L8.22069 80.7239C8.52389 80.6734 8.92816 80.3871 9.11345 80.1261H9.23979C9.00396 80.7492 8.38913 81.1871 7.87537 81.1871C7.6985 81.1871 7.60586 81.0187 7.67324 80.8503L8.39756 78.863ZM5.53439 80.4042C5.53439 79.7894 6.2166 78.9642 6.59561 78.9642C6.67983 78.9642 6.76405 78.9726 6.83143 78.9979L6.43558 80.0589C6.20818 80.3368 5.85444 80.6736 5.686 80.6736C5.59335 80.6736 5.53439 80.5894 5.53439 80.4042ZM7.41278 78.3495L7.62334 78.3664L6.8906 80.0505C6.71373 80.4547 6.78953 80.6399 6.8906 80.6399C6.99166 80.6399 7.118 80.5221 7.25276 80.3284H7.37909C7.18538 80.7578 6.93271 81.1873 6.65477 81.1873C6.41895 81.1873 6.27577 80.9347 6.31788 80.48L6.33472 80.32L6.28886 80.384C5.98716 80.8057 5.71417 81.1873 5.43354 81.1873C5.18929 81.1873 5.06296 81.0357 5.06296 80.8084C5.06296 79.8316 6.13259 78.5853 7.13484 78.5853H7.17696L7.41278 78.3495ZM5.48355 79.0819C5.57619 78.7619 5.52566 78.4756 5.28141 78.4756C4.9768 78.4756 4.88142 78.6768 4.58624 79.2992L4.56551 79.343V78.9724C4.56551 78.7114 4.48129 78.4756 4.24547 78.4756C3.96753 78.4756 3.71486 78.9051 3.52115 79.3345H3.64748C3.78224 79.1409 3.90857 79.023 4.00122 79.023C4.11913 79.023 4.18651 79.2082 4.00122 79.6124L3.46219 80.8166C3.36112 81.0439 3.47061 81.1871 3.68959 81.1871C3.82435 81.1871 3.88331 81.1534 3.94226 81.0102L4.47287 79.6124C4.62447 79.4272 4.75923 79.2672 4.92767 79.0903H5.48355V79.0819ZM2.01293 80.9339L1.9624 81.0855H0L0.0505339 80.9255C0.65694 80.816 0.758008 80.7655 1.01068 80.0835L1.55813 78.6183C1.80237 77.9362 1.75184 77.8857 1.22123 77.7762L1.27177 77.6246H3.82373L3.67213 78.4414H3.48684C3.48684 77.953 3.4363 77.8267 2.97308 77.8267H2.85516C2.40036 77.8267 2.3414 77.8941 2.21507 78.2478L1.85291 79.233H2.38351C2.73725 79.233 2.87201 79.014 3.03203 78.7277H3.21732L2.77936 79.9235H2.59407C2.63618 79.5614 2.63618 79.4182 2.30771 79.4182H1.77711L1.53286 80.0919C1.26884 80.793 1.34428 80.8073 1.97299 80.9264C1.98606 80.9288 1.99938 80.9314 2.01293 80.9339Z" fill="black"/>
<path fill-rule="evenodd" clip-rule="evenodd" d="M3.68055 71.0152L2.89725 71.5797V71.5881H2.69511L3.15835 70.9141H3.68055V71.0152ZM9.15598 74.9665L10.4109 71.6301L10.3688 71.5796L9.5013 71.6807V71.7818L9.66975 71.9082C9.81357 72.0201 9.77549 72.1244 9.65616 72.4512L9.63606 72.5064L8.67589 75.0676C8.60009 75.2193 8.70116 75.4047 8.87803 75.4047C9.27389 75.4047 9.69502 75.0424 9.88874 74.5453H9.7624C9.62764 74.7306 9.35812 74.9328 9.15598 74.9665ZM14.908 72.3968L15.6913 71.6807V71.5796H15.1691L14.7059 72.3968H14.908ZM14.958 74.4442H15.1264C14.8148 75.0424 14.4274 75.4046 14.0568 75.4046C13.7367 75.4046 13.5346 75.1687 13.5346 74.739C13.5346 73.8291 14.2758 72.6917 14.9243 72.6917C15.2949 72.6917 15.6234 72.9697 15.3538 73.6101L13.9725 74.065C13.9473 74.183 13.9304 74.3178 13.9304 74.4442C13.9304 74.7559 14.0483 74.8991 14.2842 74.8991C14.5116 74.8991 14.7474 74.6969 14.958 74.4442ZM14.9155 73.5343C14.9997 73.2141 14.8397 73.0709 14.6544 73.0709C14.4606 73.0709 14.208 73.3658 14.0648 73.7617L14.9155 73.5343ZM12.4392 73.0875H11.9844V72.8769L12.5487 72.8011L13.0204 72.0849H13.2815L13.0288 72.8011H13.6942L13.61 73.0875H12.9277L12.2623 74.9495C12.5656 74.8989 12.9698 74.6125 13.1551 74.3513H13.2815C13.0456 74.9748 12.4308 75.4129 11.917 75.4129C11.7401 75.4129 11.6475 75.2444 11.7149 75.0759L12.4392 73.0875ZM11.5127 72.9864C11.5632 72.801 11.4453 72.6999 11.3442 72.6999C10.9484 72.6999 10.4767 73.0622 10.283 73.5593H10.4093C10.5357 73.374 10.7547 73.1718 10.9652 73.1381L10.2072 75.118C10.1398 75.3033 10.2746 75.4044 10.3672 75.4044C10.7462 75.4044 11.1842 75.0422 11.3779 74.5451H11.2516C11.1252 74.7304 10.9063 74.9326 10.6957 74.9663L11.5127 72.9864ZM11.9007 71.8913C11.9007 72.0598 11.7576 72.2031 11.5891 72.2031C11.4207 72.2031 11.2775 72.0598 11.2775 71.8913C11.2775 71.7228 11.4122 71.5796 11.5891 71.5796C11.7576 71.5796 11.9007 71.7228 11.9007 71.8913ZM7.64823 73.1888C7.26921 73.1888 6.58698 74.0145 6.58698 74.6295C6.58698 74.8149 6.64594 74.8991 6.74701 74.8991C6.90704 74.8991 7.26079 74.5621 7.4882 74.2841L7.88406 73.2225C7.80826 73.1972 7.73245 73.1888 7.64823 73.1888ZM8.67599 72.5906L8.46543 72.5738L8.2296 72.8097H8.18748C7.1852 72.8097 6.11553 74.0566 6.11553 75.034C6.11553 75.2614 6.24187 75.4131 6.48612 75.4131C6.76676 75.4131 7.03977 75.0313 7.34147 74.6094L7.38734 74.5453L7.37049 74.7054C7.32838 75.1603 7.47156 75.4131 7.7074 75.4131C7.98534 75.4131 8.23802 74.9834 8.43174 74.5537H8.3054C8.17064 74.7475 8.0443 74.8654 7.94323 74.8654C7.84216 74.8654 7.76635 74.6801 7.94323 74.2757L8.67599 72.5906ZM4.43054 75.3205C4.06837 75.4637 3.8157 75.6322 3.8157 75.8934C3.8157 76.1377 4.04311 76.2388 4.51477 76.2388C5.14646 76.2388 5.49179 76.0535 5.49179 75.8092C5.49179 75.6996 5.3486 75.6491 4.96959 75.5227C4.72533 75.4469 4.54846 75.3795 4.43054 75.3205ZM4.85112 74.2841C4.68267 74.2841 4.62371 74.1409 4.62371 73.9893C4.62371 73.5006 4.85954 72.894 5.23856 72.894C5.40701 72.894 5.46597 73.0372 5.46597 73.1889C5.45754 73.686 5.22171 74.2841 4.85112 74.2841ZM5.17203 75.0761C5.63527 75.2193 5.92163 75.3288 5.92163 75.649C5.92163 76.0618 5.1636 76.5505 4.24554 76.5421C3.71492 76.5421 3.2601 76.3988 3.2601 76.0534C3.2601 75.7248 3.56332 75.4552 4.3045 75.2361C4.20343 75.1687 4.16132 75.0845 4.16132 74.9665C4.16132 74.7643 4.34661 74.6042 4.66667 74.4526C4.35504 74.4105 4.1529 74.1746 4.1529 73.8291C4.1529 73.2983 4.59087 72.6917 5.28152 72.6917C5.4247 72.6917 5.55104 72.7254 5.65211 72.7928H6.41014L6.32592 73.0793H5.87952C5.90479 73.1551 5.92163 73.2394 5.92163 73.332C5.92163 73.846 5.50893 74.4357 4.85197 74.4694C4.68352 74.5621 4.59929 74.6885 4.59929 74.7896C4.59929 74.9086 4.73707 74.9488 5.04157 75.0377C5.08208 75.0495 5.12554 75.0622 5.17203 75.0761ZM2.5015 73.6354C2.82998 73.6354 2.8384 73.7786 2.78787 74.1409H2.97317L3.41114 72.9445H3.22584C3.06581 73.231 2.93105 73.45 2.57731 73.45H1.85296L2.20671 72.4643C2.33305 72.1104 2.39201 72.043 2.84683 72.043H3.16688C3.63013 72.043 3.68066 72.1694 3.68066 72.6581H3.86596L4.01756 71.8408H1.27181L1.22127 71.9925C1.75189 72.102 1.80243 72.1526 1.55817 72.835L1.01071 74.3094C0.758031 74.9919 0.65696 75.0424 0.0421128 75.1519L0 75.312H3.04897L3.59644 74.4442H3.38587C3.03212 74.7897 2.67838 75.1098 1.98773 75.1098C1.22806 75.1098 1.24159 75.0726 1.46953 74.4463C1.4842 74.406 1.49976 74.3632 1.51606 74.3178L1.76874 73.6438H2.5015V73.6354Z" fill="black"/>
<path fill-rule="evenodd" clip-rule="evenodd" d="M5.01732 66.4212C5.1857 66.4212 5.32884 66.2781 5.32884 66.1098C5.32884 65.9414 5.1857 65.7983 5.01732 65.7983C4.84051 65.7983 4.7058 65.9414 4.7058 66.1098C4.7058 66.2865 4.84051 66.4212 5.01732 66.4212ZM7.51037 67.4816C7.51037 67.0776 7.40934 66.926 7.12308 66.926C6.76946 66.926 6.4411 67.3048 6.11274 67.7594L6.81998 65.8655L6.77788 65.8065L5.91068 65.9075V66.0086L6.07907 66.1348C6.22568 66.2488 6.18318 66.3628 6.05829 66.6978L6.04539 66.7324L5.27922 68.7358C5.21186 68.9041 5.13609 69.1061 5.13609 69.1566C5.13609 69.3923 5.45603 69.6196 5.75071 69.6196C6.40742 69.628 7.51037 68.4159 7.51037 67.4816ZM14.81 66.623L15.5931 65.9075V65.8065H15.071L14.608 66.623H14.81ZM14.8607 68.6685H15.0291C14.7092 69.2661 14.3219 69.628 13.9514 69.6196C13.6315 69.6196 13.4294 69.3923 13.4294 68.9631C13.4294 68.054 14.1704 66.9176 14.8187 66.9176C15.1891 66.9176 15.5175 67.1954 15.248 67.8351L13.8757 68.2897C13.8504 68.4075 13.8336 68.5422 13.8336 68.6685C13.8336 68.9799 13.9514 69.123 14.1872 69.123C14.4145 69.123 14.6503 68.921 14.8607 68.6685ZM14.8178 67.7594C14.902 67.4395 14.7421 67.2964 14.5568 67.2964C14.3548 67.2964 14.1022 67.5911 13.9675 67.9867L14.8178 67.7594ZM12.3332 67.3138H11.8785V67.1033L12.4426 67.0276L12.9141 66.3121H13.1751L12.9225 67.0276H13.5877L13.5035 67.3138H12.8215L12.1564 69.174C12.4595 69.1235 12.8636 68.8373 13.0488 68.5764H13.1751C12.9394 69.1992 12.3247 69.637 11.8112 69.637C11.6343 69.637 11.5417 69.4686 11.6091 69.3003L12.3332 67.3138ZM11.6444 67.5326C11.737 67.2127 11.6865 66.9265 11.4423 66.9265C11.1378 66.9265 11.0424 67.1276 10.7474 67.7498L10.7266 67.7935V67.4232C10.7266 67.1622 10.6424 66.9265 10.4067 66.9265C10.1289 66.9265 9.87627 67.3558 9.68263 67.7851H9.80892C9.94363 67.5915 10.0699 67.4737 10.1625 67.4737C10.2804 67.4737 10.3478 67.6589 10.1625 68.0629L9.62369 69.2582C9.52266 69.4854 9.63211 69.6285 9.85101 69.6285C9.98573 69.6285 10.0447 69.5948 10.1036 69.4518L10.634 68.0545C10.7856 67.8693 10.9203 67.7094 11.0887 67.5326H11.6444ZM8.97558 67.7594C9.05978 67.4395 8.89981 67.2964 8.71458 67.2964C8.51251 67.2964 8.26835 67.5911 8.12522 67.9867L8.97558 67.7594ZM9.18555 68.6685H9.01716C8.80667 68.921 8.57093 69.123 8.3436 69.123C8.10786 69.123 7.98999 68.9799 7.98999 68.6685C7.98999 68.5422 8.00683 68.4075 8.03208 68.2897L9.40446 67.8351C9.67388 67.1954 9.35394 66.9176 8.97506 66.9176C8.32677 66.9176 7.58585 68.054 7.58585 68.9631C7.58585 69.3923 7.78792 69.6196 8.10786 69.6196C8.47832 69.628 8.86561 69.2661 9.18555 68.6685ZM5.65 68.9886C5.65 69.098 5.84365 69.2243 5.97836 69.2243C6.52563 69.2243 7.03921 68.2395 7.0308 67.6923C7.0308 67.5072 6.93818 67.4314 6.81189 67.4314C6.60982 67.4314 6.23937 67.7344 6.00362 68.0206L5.78472 68.6098C5.70894 68.8034 5.65 68.9549 5.65 68.9886ZM4.76611 66.9265C4.86715 66.9265 4.98502 67.0276 4.9345 67.2127L4.12624 69.1908C4.33672 69.1571 4.55563 68.9551 4.68192 68.7699H4.80821C4.61456 69.2666 4.17675 69.6285 3.79788 69.6285C3.69684 69.6285 3.56213 69.5275 3.62949 69.3423L4.38724 67.3642C4.17675 67.3979 3.95785 67.5999 3.83155 67.7851H3.70526C3.89891 67.2885 4.3704 66.9265 4.76611 66.9265ZM1.27134 66.0511H3.08152L3.031 66.211C2.41638 66.3205 2.31535 66.371 2.06277 67.0528L1.52392 68.5342C1.26292 69.2413 1.33027 69.3255 1.79334 69.3255C2.36546 69.3255 2.74061 68.9097 3.06818 68.5467C3.09251 68.5198 3.11659 68.4931 3.14046 68.4669H3.35094L2.75316 69.5275H0L0.0505167 69.376C0.656717 69.2665 0.757751 69.216 1.01033 68.5342L1.5576 67.0444C1.80176 66.3625 1.75125 66.312 1.22082 66.2026L1.27134 66.0511Z" fill="black"/>
</svg>
