<svg width="56" height="56" viewBox="0 0 56 56" fill="none" xmlns="http://www.w3.org/2000/svg">
    <path fill-rule="evenodd" clip-rule="evenodd" d="M6.9998 5.59995C6.61382 5.59995 6.2998 5.28593 6.2998 4.89995C6.2998 4.51394 6.61382 4.19995 6.9998 4.19995C7.38578 4.19995 7.6998 4.51394 7.6998 4.89995C7.6998 5.28593 7.38578 5.59995 6.9998 5.59995Z" fill="#ECECFE"/>
    <path fill-rule="evenodd" clip-rule="evenodd" d="M11.1998 49.7C10.8138 49.7 10.4998 49.3859 10.4998 49C10.4998 48.6139 10.8138 48.2999 11.1998 48.2999C11.5858 48.2999 11.8998 48.6139 11.8998 49C11.8998 49.3859 11.5858 49.7 11.1998 49.7Z" fill="#ECECFE"/>
    <path fill-rule="evenodd" clip-rule="evenodd" d="M44.7998 42.7C44.4138 42.7 44.0998 42.3859 44.0998 42C44.0998 41.6139 44.4138 41.2999 44.7998 41.2999C45.1858 41.2999 45.4998 41.6139 45.4998 42C45.4998 42.3859 45.1858 42.7 44.7998 42.7Z" fill="#ECECFE"/>
    <path fill-rule="evenodd" clip-rule="evenodd" d="M48.9998 5.59995C48.6138 5.59995 48.2998 5.28593 48.2998 4.89995C48.2998 4.51394 48.6138 4.19995 48.9998 4.19995C49.3858 4.19995 49.6998 4.51394 49.6998 4.89995C49.6998 5.28593 49.3858 5.59995 48.9998 5.59995Z" fill="#ECECFE"/>
    <path d="M26.6004 46.9V41.3C26.6004 40.9134 26.9138 40.6 27.3004 40.6C27.687 40.6 28.0004 40.9134 28.0004 41.3V46.9C28.0004 47.2865 27.687 47.5999 27.3004 47.5999C26.9138 47.5999 26.6004 47.2865 26.6004 46.9Z" fill="#E1000F"/>
    <path d="M45.5004 30.1H44.1004C43.7138 30.1 43.4004 30.4134 43.4004 30.8C43.4004 31.1866 43.7138 31.5 44.1004 31.5H45.5004C45.887 31.5 46.2004 31.8134 46.2004 32.2V33.6C46.2004 33.9865 46.5138 34.3 46.9004 34.3C47.287 34.3 47.6004 33.9865 47.6004 33.6V32.2C47.6004 31.0402 46.6602 30.1 45.5004 30.1Z" fill="#E1000F"/>
    <path d="M9.10039 30.1H10.5004C10.887 30.1 11.2004 30.4134 11.2004 30.8C11.2004 31.1866 10.887 31.5 10.5004 31.5H9.10039C8.71379 31.5 8.40039 31.8134 8.40039 32.2V33.6C8.40039 33.9865 8.08699 34.3 7.70039 34.3C7.31379 34.3 7.00039 33.9865 7.00039 33.6V32.2C7.00039 31.0402 7.94059 30.1 9.10039 30.1Z" fill="#E1000F"/>
    <path d="M9.10039 23.1H10.5004C10.887 23.1 11.2004 22.7866 11.2004 22.4C11.2004 22.0134 10.887 21.7 10.5004 21.7H9.10039C8.71379 21.7 8.40039 21.3866 8.40039 21V19.6C8.40039 19.2134 8.08699 18.9 7.70039 18.9C7.31379 18.9 7.00039 19.2134 7.00039 19.6V21C7.00039 22.1597 7.94059 23.1 9.10039 23.1Z" fill="#E1000F"/>
    <path d="M45.5004 23.1H44.1004C43.7138 23.1 43.4004 22.7866 43.4004 22.4C43.4004 22.0134 43.7138 21.7 44.1004 21.7H45.5004C45.887 21.7 46.2004 21.3866 46.2004 21V19.6C46.2004 19.2134 46.5138 18.9 46.9004 18.9C47.287 18.9 47.6004 19.2134 47.6004 19.6V21C47.6004 22.1597 46.6602 23.1 45.5004 23.1Z" fill="#E1000F"/>
    <path d="M28.7004 49C28.7004 48.2268 28.0736 47.5999 27.3004 47.5999C26.5272 47.5999 25.9004 48.2268 25.9004 49C25.9004 49.7731 26.5272 50.4 27.3004 50.4C28.0736 50.4 28.7004 49.7731 28.7004 49ZM30.1004 49C30.1004 50.5463 28.8468 51.7999 27.3004 51.7999C25.754 51.7999 24.5004 50.5463 24.5004 49C24.5004 47.4536 25.754 46.2 27.3004 46.2C28.8468 46.2 30.1004 47.4536 30.1004 49Z" fill="#E1000F"/>
    <path d="M46.9004 37.1C46.1272 37.1 45.5004 36.4732 45.5004 35.7C45.5004 34.9268 46.1272 34.3 46.9004 34.3C47.6736 34.3 48.3004 34.9268 48.3004 35.7C48.3004 36.4732 47.6736 37.1 46.9004 37.1ZM46.9004 38.5C48.4468 38.5 49.7004 37.2463 49.7004 35.7C49.7004 34.1536 48.4468 32.9 46.9004 32.9C45.354 32.9 44.1004 34.1536 44.1004 35.7C44.1004 37.2463 45.354 38.5 46.9004 38.5Z" fill="#E1000F"/>
    <path d="M7.70039 37.1C8.47359 37.1 9.10039 36.4732 9.10039 35.7C9.10039 34.9268 8.47359 34.3 7.70039 34.3C6.92719 34.3 6.30039 34.9268 6.30039 35.7C6.30039 36.4732 6.92719 37.1 7.70039 37.1ZM7.70039 38.5C6.15399 38.5 4.90039 37.2463 4.90039 35.7C4.90039 34.1536 6.15399 32.9 7.70039 32.9C9.24679 32.9 10.5004 34.1536 10.5004 35.7C10.5004 37.2463 9.24679 38.5 7.70039 38.5Z" fill="#E1000F"/>
    <path d="M7.70039 16.1C8.47359 16.1 9.10039 16.7268 9.10039 17.5C9.10039 18.2731 8.47359 18.9 7.70039 18.9C6.92719 18.9 6.30039 18.2731 6.30039 17.5C6.30039 16.7268 6.92719 16.1 7.70039 16.1ZM7.70039 14.7C6.15399 14.7 4.90039 15.9536 4.90039 17.5C4.90039 19.0463 6.15399 20.3 7.70039 20.3C9.24679 20.3 10.5004 19.0463 10.5004 17.5C10.5004 15.9536 9.24679 14.7 7.70039 14.7Z" fill="#E1000F"/>
    <path d="M46.9004 16.1C46.1272 16.1 45.5004 16.7268 45.5004 17.5C45.5004 18.2731 46.1272 18.9 46.9004 18.9C47.6736 18.9 48.3004 18.2731 48.3004 17.5C48.3004 16.7268 47.6736 16.1 46.9004 16.1ZM46.9004 14.7C48.4468 14.7 49.7004 15.9536 49.7004 17.5C49.7004 19.0463 48.4468 20.3 46.9004 20.3C45.354 20.3 44.1004 19.0463 44.1004 17.5C44.1004 15.9536 45.354 14.7 46.9004 14.7Z" fill="#E1000F"/>
    <path d="M12.5998 36.4V19.6C12.5998 18.0536 13.8534 16.8 15.3998 16.8H28.6998C29.0864 16.8 29.3998 17.1134 29.3998 17.5C29.3998 17.8866 29.0864 18.2 28.6998 18.2H15.3998C14.6266 18.2 13.9998 18.8268 13.9998 19.6V36.4C13.9998 37.1732 14.6266 37.8 15.3998 37.8H16.7998C17.1864 37.8 17.4998 38.1134 17.4998 38.5C17.4998 38.8866 17.1864 39.2 16.7998 39.2H15.3998C13.8534 39.2 12.5998 37.9464 12.5998 36.4ZM40.5998 36.4V19.6C40.5998 18.8268 39.973 18.2 39.1998 18.2H31.4998C31.1132 18.2 30.7998 17.8866 30.7998 17.5C30.7998 17.1134 31.1132 16.8 31.4998 16.8H39.1998C40.7462 16.8 41.9998 18.0536 41.9998 19.6V36.4C41.9998 37.9464 40.7462 39.2 39.1998 39.2H19.5998C19.2132 39.2 18.8998 38.8866 18.8998 38.5C18.8998 38.1134 19.2132 37.8 19.5998 37.8H39.1998C39.973 37.8 40.5998 37.1732 40.5998 36.4Z" fill="#000091"/>
    <path d="M35.6998 16.8V13.3C35.6998 8.66081 31.939 4.9 27.2998 4.9C22.6606 4.9 18.8998 8.66081 18.8998 13.3V16.8C18.8998 17.1866 18.5864 17.5 18.1998 17.5C17.8132 17.5 17.4998 17.1866 17.4998 16.8V13.3C17.4998 7.88761 21.8874 3.5 27.2998 3.5C32.7122 3.5 37.0998 7.88761 37.0998 13.3V16.8C37.0998 17.1866 36.7864 17.5 36.3998 17.5C36.0132 17.5 35.6998 17.1866 35.6998 16.8Z" fill="#000091"/>
    <path d="M32.8998 16.8V13.3C32.8997 10.2072 30.3925 7.7 27.2998 7.7C24.207 7.7 21.6998 10.2072 21.6998 13.3V14.7C21.6998 15.0866 21.3864 15.4 20.9998 15.4C20.6132 15.4 20.2998 15.0866 20.2998 14.7V13.3C20.2998 9.43401 23.4338 6.3 27.2998 6.3C31.1658 6.3 34.2997 9.43408 34.2998 13.3V16.8C34.2998 17.1866 33.9864 17.5 33.5998 17.5C33.2132 17.5 32.8998 17.1866 32.8998 16.8Z" fill="#000091"/>
    <path d="M46.8998 27.3H44.0998C43.7132 27.3 43.3998 26.9866 43.3998 26.6C43.3998 26.2134 43.7132 25.9 44.0998 25.9H46.8998C47.2864 25.9 47.5998 26.2134 47.5998 26.6C47.5998 26.9866 47.2864 27.3 46.8998 27.3Z" fill="#000091"/>
    <path d="M7.6998 25.9H10.4998C10.8864 25.9 11.1998 26.2134 11.1998 26.6C11.1998 26.9866 10.8864 27.3 10.4998 27.3H7.6998C7.31321 27.3 6.9998 26.9866 6.9998 26.6C6.9998 26.2134 7.31321 25.9 7.6998 25.9Z" fill="#000091"/>
    <path d="M30.7998 42.7V41.3C30.7998 40.9134 31.1132 40.6 31.4998 40.6C31.8864 40.6 32.1998 40.9134 32.1998 41.3V42.7C32.1998 43.0866 32.5132 43.4 32.8998 43.4H35.6998C36.0864 43.4 36.3998 43.7134 36.3998 44.1C36.3998 44.4866 36.0864 44.8 35.6998 44.8H32.8998C31.74 44.8 30.7998 43.8598 30.7998 42.7Z" fill="#000091"/>
    <path d="M23.7998 42.7V41.3C23.7998 40.9134 23.4864 40.6 23.0998 40.6C22.7132 40.6 22.3998 40.9134 22.3998 41.3V42.7C22.3998 43.0866 22.0864 43.4 21.6998 43.4H18.8998C18.5132 43.4 18.1998 43.7134 18.1998 44.1C18.1998 44.4866 18.5132 44.8 18.8998 44.8H21.6998C22.8596 44.8 23.7998 43.8598 23.7998 42.7Z" fill="#000091"/>
    <path d="M48.9998 25.2C48.2266 25.2 47.5998 25.8268 47.5998 26.6C47.5998 27.3732 48.2266 28 48.9998 28C49.773 28 50.3998 27.3732 50.3998 26.6C50.3998 25.8268 49.773 25.2 48.9998 25.2ZM48.9998 23.8C50.5462 23.8 51.7998 25.0536 51.7998 26.6C51.7998 28.1464 50.5462 29.4 48.9998 29.4C47.4534 29.4 46.1998 28.1464 46.1998 26.6C46.1998 25.0536 47.4534 23.8 48.9998 23.8Z" fill="#000091"/>
    <path d="M5.5998 25.2C6.373 25.2 6.9998 25.8268 6.9998 26.6C6.9998 27.3732 6.373 28 5.5998 28C4.82661 28 4.1998 27.3732 4.1998 26.6C4.1998 25.8268 4.82661 25.2 5.5998 25.2ZM5.5998 23.8C4.05341 23.8 2.7998 25.0536 2.7998 26.6C2.7998 28.1464 4.05341 29.4 5.5998 29.4C7.1462 29.4 8.3998 28.1464 8.3998 26.6C8.3998 25.0536 7.1462 23.8 5.5998 23.8Z" fill="#000091"/>
    <path d="M39.1998 44.1C39.1998 43.3268 38.573 42.7 37.7998 42.7C37.0266 42.7 36.3998 43.3268 36.3998 44.1C36.3998 44.8732 37.0266 45.5 37.7998 45.5C38.573 45.5 39.1998 44.8732 39.1998 44.1ZM40.5998 44.1C40.5998 45.6464 39.3462 46.9 37.7998 46.9C36.2534 46.9 34.9998 45.6464 34.9998 44.1C34.9998 42.5536 36.2534 41.3 37.7998 41.3C39.3462 41.3 40.5998 42.5536 40.5998 44.1Z" fill="#000091"/>
    <path d="M15.3998 44.1C15.3998 43.3268 16.0266 42.7 16.7998 42.7C17.573 42.7 18.1998 43.3268 18.1998 44.1C18.1998 44.8732 17.573 45.5 16.7998 45.5C16.0266 45.5 15.3998 44.8732 15.3998 44.1ZM13.9998 44.1C13.9998 45.6464 15.2534 46.9 16.7998 46.9C18.3462 46.9 19.5998 45.6464 19.5998 44.1C19.5998 42.5536 18.3462 41.3 16.7998 41.3C15.2534 41.3 13.9998 42.5536 13.9998 44.1Z" fill="#000091"/>
    <path d="M29.3998 25.2C29.3998 24.0402 28.4596 23.1 27.2998 23.1C26.14 23.1 25.1998 24.0402 25.1998 25.2C25.1998 25.9764 25.621 26.6556 26.2505 27.0197C26.4666 27.1449 26.5998 27.3756 26.5998 27.6254V30.8C26.5998 31.1866 26.9132 31.5 27.2998 31.5C27.6864 31.5 27.9998 31.1866 27.9998 30.8V30.1C27.9998 29.7134 28.3132 29.4 28.6998 29.4C29.0864 29.4 29.3998 29.7134 29.3998 30.1V30.8C29.3998 31.9598 28.4596 32.9 27.2998 32.9C26.14 32.9 25.1998 31.9598 25.1998 30.8V27.9986C24.3511 27.3608 23.7998 26.3455 23.7998 25.2C23.7998 23.267 25.3668 21.7 27.2998 21.7C29.2328 21.7 30.7998 23.267 30.7998 25.2C30.7998 26.4963 30.0947 27.6269 29.0505 28.2311C28.7159 28.4246 28.2878 28.3105 28.0941 27.9761C27.9006 27.6415 28.0147 27.2134 28.3491 27.0197C28.9786 26.6556 29.3998 25.9764 29.3998 25.2Z" fill="#000091"/>
</svg>
