<svg width="56" height="56" viewBox="0 0 56 56" fill="none" xmlns="http://www.w3.org/2000/svg">
    <path fill-rule="evenodd" clip-rule="evenodd" d="M10.4998 11.9C10.1138 11.9 9.7998 11.5859 9.7998 11.2C9.7998 10.8139 10.1138 10.5 10.4998 10.5C10.8858 10.5 11.1998 10.8139 11.1998 11.2C11.1998 11.5859 10.8858 11.9 10.4998 11.9Z" fill="#ECECFE"/>
    <path fill-rule="evenodd" clip-rule="evenodd" d="M11.1998 49.7C10.8138 49.7 10.4998 49.3859 10.4998 49C10.4998 48.6139 10.8138 48.2999 11.1998 48.2999C11.5858 48.2999 11.8998 48.6139 11.8998 49C11.8998 49.3859 11.5858 49.7 11.1998 49.7Z" fill="#ECECFE"/>
    <path fill-rule="evenodd" clip-rule="evenodd" d="M51.0998 40.5999C50.7138 40.5999 50.3998 40.2859 50.3998 39.9C50.3998 39.5139 50.7138 39.2 51.0998 39.2C51.4858 39.2 51.7998 39.5139 51.7998 39.9C51.7998 40.2859 51.4858 40.5999 51.0998 40.5999Z" fill="#ECECFE"/>
    <path fill-rule="evenodd" clip-rule="evenodd" d="M48.9998 5.59995C48.6138 5.59995 48.2998 5.28593 48.2998 4.89995C48.2998 4.51394 48.6138 4.19995 48.9998 4.19995C49.3858 4.19995 49.6998 4.51394 49.6998 4.89995C49.6998 5.28593 49.3858 5.59995 48.9998 5.59995Z" fill="#ECECFE"/>
    <path d="M22.191 28.4327C22.191 26.6194 22.558 24.7411 23.4693 23.292C24.4031 21.8073 25.899 20.799 28.0159 20.799C29.6867 20.799 30.8477 21.3562 31.6629 22.2831C32.4407 23.1676 32.8482 24.3322 33.1695 25.4194C33.5065 26.5595 33.7493 27.6067 34.1737 28.5195C34.5823 29.398 35.1161 30.0438 35.9641 30.3884C36.3219 30.5341 36.4944 30.9423 36.3489 31.3003C36.2033 31.6584 35.7945 31.8307 35.4363 31.6852C34.1505 31.1626 33.4029 30.1823 32.9043 29.1101C32.4216 28.0722 32.1306 26.8432 31.827 25.8159C31.5077 24.7356 31.1679 23.8406 30.6115 23.208C30.0926 22.6178 29.3328 22.199 28.0159 22.199C26.4227 22.199 25.3557 22.9233 24.6547 24.0378C23.9313 25.1881 23.591 26.777 23.591 28.4327C23.5911 30.8729 24.3905 32.692 25.1845 33.9007C25.5823 34.5064 25.9787 34.9586 26.2721 35.2563C26.4186 35.405 26.539 35.5147 26.62 35.5851C26.6604 35.6203 26.6911 35.6455 26.7103 35.661C26.7197 35.6686 26.7265 35.6739 26.7301 35.6767L26.7321 35.6788C27.039 35.913 27.0985 36.3516 26.8647 36.659C26.6307 36.9667 26.1915 37.0263 25.8838 36.7923L26.3076 36.2352C25.9094 36.7586 25.8848 36.7899 25.8831 36.7917L25.8811 36.7903C25.8799 36.7894 25.8785 36.788 25.877 36.7869C25.8739 36.7845 25.87 36.7816 25.8653 36.778C25.856 36.7706 25.8432 36.7604 25.8277 36.7479C25.7968 36.7228 25.754 36.6871 25.7013 36.6413C25.5955 36.5493 25.4489 36.4154 25.2754 36.2393C24.9282 35.887 24.4704 35.3636 24.0142 34.6691C23.1001 33.2774 22.1911 31.1955 22.191 28.4327ZM28.7063 26.8091C28.7062 26.8099 28.7065 26.8112 28.7063 26.8125C28.7056 26.8179 28.704 26.8282 28.7022 26.8426C28.6987 26.8719 28.6935 26.9193 28.6886 26.9828C28.6786 27.1103 28.6695 27.3029 28.6756 27.5474C28.6878 28.0374 28.7608 28.7312 29.0058 29.5264C29.4909 31.1012 30.6641 33.1212 33.4915 34.76C33.8258 34.9539 33.9396 35.382 33.7458 35.7164C33.552 36.0507 33.1239 36.165 32.7895 35.9713C29.6405 34.1461 28.2511 31.8316 27.668 29.9386C27.3788 29 27.2911 28.1762 27.2763 27.5823C27.2689 27.2853 27.2794 27.0446 27.2927 26.8741C27.2993 26.7887 27.3065 26.7204 27.3125 26.6717C27.3155 26.6476 27.3186 26.6282 27.3207 26.6136C27.3218 26.6063 27.3227 26.5999 27.3234 26.5952C27.3238 26.5928 27.3238 26.5907 27.3241 26.589C27.3242 26.5883 27.3247 26.5876 27.3248 26.587V26.5856C27.3262 26.5854 27.3546 26.5895 27.953 26.6875L27.3248 26.5856C27.3872 26.2041 27.7472 25.9448 28.1287 26.0073C28.5099 26.0697 28.7682 26.428 28.7063 26.8091ZM31.1324 29.5346C31.4817 29.3691 31.8992 29.5176 32.0648 29.8668C32.6658 31.1337 33.4219 32.2518 35.128 32.9943C35.4823 33.1486 35.6445 33.5607 35.4903 33.9151C35.3361 34.2694 34.9239 34.432 34.5695 34.2781C32.4384 33.3507 31.481 31.9037 30.7995 30.467C30.6338 30.1177 30.7831 29.7003 31.1324 29.5346ZM20.5989 22.9516C20.7519 22.5968 21.1634 22.4331 21.5184 22.5859C21.8733 22.7387 22.0374 23.1503 21.8848 23.5053C20.4323 26.8784 21.0225 30.0143 21.8526 32.5479C21.973 32.9153 21.7729 33.3107 21.4056 33.4311C21.0382 33.5514 20.6427 33.3514 20.5224 32.984C19.6492 30.3191 18.9483 26.7847 20.5989 22.9516ZM29.8705 28.4327C29.8705 27.6406 29.7067 26.664 29.353 25.9129C28.9952 25.1531 28.5414 24.7987 28.0105 24.7987C27.4476 24.7988 27.023 25.0607 26.7007 25.634C26.3572 26.2451 26.1511 27.1923 26.1511 28.4327C26.1512 30.7985 27.3195 32.8092 28.5478 34.2637C29.1574 34.9856 29.7686 35.5544 30.2267 35.9419C30.4552 36.1353 30.6446 36.2832 30.7749 36.3808C30.8398 36.4294 30.8903 36.4654 30.9232 36.4888C30.9397 36.5005 30.952 36.5096 30.9595 36.5148C30.9632 36.5174 30.9663 36.5186 30.9677 36.5196L30.9684 36.5203C31.2885 36.737 31.3717 37.1722 31.155 37.4923C30.9518 37.7924 30.5568 37.8848 30.2444 37.7166L30.1829 37.6796L30.1809 37.6776C30.1797 37.6768 30.1778 37.6761 30.1761 37.6749C30.1726 37.6724 30.1676 37.6693 30.1617 37.6653C30.1499 37.6571 30.1334 37.6453 30.1125 37.6304C30.0704 37.6005 30.0104 37.5574 29.9355 37.5012C29.7855 37.3889 29.5747 37.2241 29.323 37.0111C28.8202 36.5858 28.15 35.9624 27.4786 35.1674C26.1448 33.5879 24.7512 31.2649 24.7511 28.4327C24.7511 27.0739 24.9705 25.8537 25.4798 24.9477C26.0102 24.0041 26.8654 23.3988 28.0105 23.3987C29.3345 23.3987 30.1614 24.3435 30.6197 25.3168C31.0822 26.2991 31.2705 27.4902 31.2705 28.4327C31.2703 28.8191 30.957 29.1327 30.5705 29.1327C30.1841 29.1326 29.8707 28.8191 29.8705 28.4327ZM28.0159 18.2C30.3656 18.2 32.2649 19.1656 33.672 20.8325C35.0612 22.4784 35.95 24.7796 36.3906 27.4538C36.4535 27.8352 36.1951 28.1955 35.8137 28.2583C35.4324 28.321 35.0726 28.0627 35.0098 27.6814C34.5938 25.1569 33.774 23.1238 32.6021 21.7355C31.4483 20.3686 29.9338 19.6 28.0159 19.6C26.2556 19.6 23.9527 20.3607 22.5684 21.9577C22.3151 22.2498 21.8727 22.2813 21.5806 22.0281C21.2888 21.7749 21.2573 21.333 21.5102 21.041C23.2192 19.0695 25.9487 18.2 28.0159 18.2Z" fill="#E1000F"/>
    <path d="M38.5002 17.5V17.15C38.5002 16.5701 38.0301 16.1 37.4502 16.1C37.0636 16.1 36.7502 15.7866 36.7502 15.4C36.7502 15.0134 37.0636 14.7 37.4502 14.7C38.8033 14.7 39.9002 15.7969 39.9002 17.15V17.5C39.9002 17.8866 39.5868 18.2 39.2002 18.2C38.8136 18.2 38.5002 17.8866 38.5002 17.5Z" fill="#E1000F"/>
    <path d="M14.7002 38.85V36.75C14.7002 36.3634 15.0136 36.05 15.4002 36.05C15.7868 36.05 16.1002 36.3634 16.1002 36.75V38.85C16.1002 39.4298 16.5703 39.9 17.1502 39.9C17.3874 39.9 17.6044 39.8219 17.7798 39.6901C18.0889 39.458 18.5279 39.5205 18.7601 39.8295C18.9922 40.1387 18.9297 40.5776 18.6206 40.8098C18.2111 41.1174 17.7009 41.3 17.1502 41.3C15.7971 41.3 14.7002 40.203 14.7002 38.85Z" fill="#E1000F"/>
    <path d="M14.7002 17.15V19.25C14.7002 19.6366 15.0136 19.95 15.4002 19.95C15.7868 19.95 16.1002 19.6366 16.1002 19.25V17.15C16.1002 16.5701 16.5703 16.1 17.1502 16.1C17.3874 16.1 17.6044 16.178 17.7798 16.3098C18.0889 16.5419 18.5279 16.4794 18.7601 16.1704C18.9922 15.8612 18.9297 15.4223 18.6206 15.1901C18.2111 14.8825 17.7009 14.7 17.1502 14.7C15.7971 14.7 14.7002 15.7969 14.7002 17.15Z" fill="#E1000F"/>
    <path d="M39.9002 28.0001C39.9002 21.4279 34.5724 16.1001 28.0002 16.1001C21.428 16.1001 16.1002 21.4279 16.1002 28.0001C16.1002 34.5723 21.428 39.9001 28.0002 39.9001C34.5724 39.9001 39.9002 34.5723 39.9002 28.0001ZM40.7697 38.8897C40.2505 38.3705 39.4091 38.3705 38.8898 38.8897C38.3706 39.409 38.3706 40.2503 38.8898 40.7696L44.6307 46.5104C45.1499 47.0296 45.9913 47.0297 46.5105 46.5104C47.0298 45.9912 47.0297 45.1498 46.5105 44.6305L40.7697 38.8897ZM41.3002 28.0001C41.3002 31.4209 40.0083 34.5398 37.8863 36.8964L38.4585 37.4685C39.5032 36.8608 40.8653 37.0049 41.7603 37.8999L47.5004 43.64C48.5664 44.706 48.5664 46.4343 47.5004 47.5003C46.4344 48.5663 44.7061 48.5663 43.6401 47.5003L37.9 41.7601C37.0051 40.8652 36.861 39.5031 37.4687 38.4584L36.8965 37.8862C34.5399 40.0082 31.421 41.3001 28.0002 41.3001C20.6548 41.3001 14.7002 35.3455 14.7002 28.0001C14.7002 20.6547 20.6548 14.7001 28.0002 14.7001C35.3456 14.7001 41.3002 20.6547 41.3002 28.0001Z" fill="#000091"/>
    <path d="M25.2002 8.75006C25.2002 8.17017 24.7301 7.70006 24.1502 7.70006C23.5703 7.70006 23.1002 8.17017 23.1002 8.75006V10.8501C23.1002 11.43 23.5703 11.9001 24.1502 11.9001C24.7301 11.9001 25.2002 11.43 25.2002 10.8501V8.75006ZM26.6002 10.8501C26.6002 12.2032 25.5033 13.3001 24.1502 13.3001C22.7971 13.3001 21.7002 12.2032 21.7002 10.8501V8.75006C21.7002 7.39697 22.7971 6.30006 24.1502 6.30006C25.5033 6.30006 26.6002 7.39697 26.6002 8.75006V10.8501Z" fill="#000091"/>
    <path d="M31.5002 45.1501C31.5002 44.5702 31.0301 44.1001 30.4502 44.1001C29.8703 44.1001 29.4002 44.5702 29.4002 45.1501V47.2501C29.4002 47.83 29.8703 48.3001 30.4502 48.3001C31.0301 48.3001 31.5002 47.83 31.5002 47.2501V45.1501ZM32.9002 47.2501C32.9002 48.6032 31.8033 49.7001 30.4502 49.7001C29.0971 49.7001 28.0002 48.6032 28.0002 47.2501V45.1501C28.0002 43.797 29.0971 42.7001 30.4502 42.7001C31.8033 42.7001 32.9002 43.797 32.9002 45.1501V47.2501Z" fill="#000091"/>
    <path d="M38.5002 8.75006C38.5002 8.17017 38.0301 7.70006 37.4502 7.70006C36.8703 7.70006 36.4002 8.17017 36.4002 8.75006V10.8501C36.4002 11.43 36.8703 11.9001 37.4502 11.9001C38.0301 11.9001 38.5002 11.43 38.5002 10.8501V8.75006ZM39.9002 10.8501C39.9002 12.2032 38.8033 13.3001 37.4502 13.3001C36.0971 13.3001 35.0002 12.2032 35.0002 10.8501V8.75006C35.0002 7.39697 36.0971 6.30006 37.4502 6.30006C38.8033 6.30006 39.9002 7.39697 39.9002 8.75006V10.8501Z" fill="#000091"/>
    <path d="M45.5002 17.1501C45.5002 16.5702 45.0301 16.1001 44.4502 16.1001C43.8703 16.1001 43.4002 16.5702 43.4002 17.1501V19.2501C43.4002 19.83 43.8703 20.3001 44.4502 20.3001C45.0301 20.3001 45.5002 19.83 45.5002 19.2501V17.1501ZM46.9002 19.2501C46.9002 20.6032 45.8033 21.7001 44.4502 21.7001C43.0971 21.7001 42.0002 20.6032 42.0002 19.2501V17.1501C42.0002 15.797 43.0971 14.7001 44.4502 14.7001C45.8033 14.7001 46.9002 15.797 46.9002 17.1501V19.2501Z" fill="#000091"/>
    <path d="M18.2002 45.1501C18.2002 44.5702 17.7301 44.1001 17.1502 44.1001C16.5703 44.1001 16.1002 44.5702 16.1002 45.1501V47.2501C16.1002 47.83 16.5703 48.3001 17.1502 48.3001C17.7301 48.3001 18.2002 47.83 18.2002 47.2501V45.1501ZM19.6002 47.2501C19.6002 48.6032 18.5033 49.7001 17.1502 49.7001C15.7971 49.7001 14.7002 48.6032 14.7002 47.2501V45.1501C14.7002 43.797 15.7971 42.7001 17.1502 42.7001C18.5033 42.7001 19.6002 43.797 19.6002 45.1501V47.2501Z" fill="#000091"/>
    <path d="M18.2002 8.75006C18.2002 8.17017 17.7301 7.70006 17.1502 7.70006C16.5703 7.70006 16.1002 8.17017 16.1002 8.75006V10.8501C16.1002 11.43 16.5703 11.9001 17.1502 11.9001C17.7301 11.9001 18.2002 11.43 18.2002 10.8501V8.75006ZM19.6002 10.8501C19.6002 12.2032 18.5033 13.3001 17.1502 13.3001C15.7971 13.3001 14.7002 12.2032 14.7002 10.8501V8.75006C14.7002 7.39697 15.7971 6.30006 17.1502 6.30006C18.5033 6.30006 19.6002 7.39697 19.6002 8.75006V10.8501Z" fill="#000091"/>
    <path d="M11.2002 26.9501C11.2002 26.3702 10.7301 25.9001 10.1502 25.9001C9.5703 25.9001 9.1002 26.3702 9.1002 26.9501V29.0501C9.1002 29.63 9.5703 30.1001 10.1502 30.1001C10.7301 30.1001 11.2002 29.63 11.2002 29.0501V26.9501ZM12.6002 29.0501C12.6002 30.4032 11.5033 31.5001 10.1502 31.5001C8.7971 31.5001 7.7002 30.4032 7.7002 29.0501V26.9501C7.7002 25.597 8.7971 24.5001 10.1502 24.5001C11.5033 24.5001 12.6002 25.597 12.6002 26.9501V29.0501Z" fill="#000091"/>
    <path d="M30.8002 12.6001V8.30778L29.7885 8.98249C29.4668 9.19693 29.0322 9.11002 28.8178 8.78835C28.6033 8.46668 28.6902 8.03209 29.0119 7.81764L31.1119 6.41764C31.3267 6.27447 31.6028 6.26105 31.8304 6.38278C32.058 6.50459 32.2002 6.74191 32.2002 7.00006V12.6001C32.2002 12.9867 31.8868 13.3001 31.5002 13.3001C31.1136 13.3001 30.8002 12.9867 30.8002 12.6001Z" fill="#000091"/>
    <path d="M23.8002 49.0001V44.7078L22.7885 45.3825C22.4668 45.5969 22.0322 45.51 21.8178 45.1883C21.6033 44.8667 21.6902 44.4321 22.0119 44.2176L24.1119 42.8176C24.3267 42.6745 24.6028 42.661 24.8304 42.7828C25.058 42.9046 25.2002 43.1419 25.2002 43.4001V49.0001C25.2002 49.3867 24.8868 49.7001 24.5002 49.7001C24.1136 49.7001 23.8002 49.3867 23.8002 49.0001Z" fill="#000091"/>
    <path d="M44.8002 30.8001V26.5078L43.7885 27.1825C43.4668 27.3969 43.0322 27.31 42.8178 26.9883C42.6033 26.6667 42.6902 26.2321 43.0119 26.0176L45.1119 24.6176C45.3267 24.4745 45.6028 24.461 45.8304 24.5828C46.058 24.7046 46.2002 24.9419 46.2002 25.2001V30.8001C46.2002 31.1867 45.8868 31.5001 45.5002 31.5001C45.1136 31.5001 44.8002 31.1867 44.8002 30.8001Z" fill="#000091"/>
    <path d="M10.5002 40.6001V36.3078L9.48848 36.9825C9.16681 37.1969 8.73222 37.11 8.51777 36.7883C8.30333 36.4667 8.39024 36.0321 8.71191 35.8176L10.8119 34.4176C11.0267 34.2745 11.3028 34.261 11.5304 34.3828C11.758 34.5046 11.9002 34.7419 11.9002 35.0001V40.6001C11.9002 40.9867 11.5868 41.3001 11.2002 41.3001C10.8136 41.3001 10.5002 40.9867 10.5002 40.6001Z" fill="#000091"/>
    <path d="M10.5002 21.0001V16.7078L9.48848 17.3825C9.16681 17.5969 8.73222 17.51 8.51777 17.1883C8.30333 16.8667 8.39024 16.4321 8.71191 16.2176L10.8119 14.8176C11.0267 14.6745 11.3028 14.661 11.5304 14.7828C11.758 14.9046 11.9002 15.1419 11.9002 15.4001V21.0001C11.9002 21.3867 11.5868 21.7001 11.2002 21.7001C10.8136 21.7001 10.5002 21.3867 10.5002 21.0001Z" fill="#000091"/>
</svg>
