<svg width="56" height="56" viewBox="0 0 56 56" fill="none" xmlns="http://www.w3.org/2000/svg">
    <path fill-rule="evenodd" clip-rule="evenodd" d="M9.10039 10.15C8.71441 10.15 8.40039 9.83593 8.40039 9.44995C8.40039 9.06394 8.71441 8.74995 9.10039 8.74995C9.48637 8.74995 9.80039 9.06394 9.80039 9.44995C9.80039 9.83593 9.48637 10.15 9.10039 10.15Z" fill="#ECECFE"/>
    <path fill-rule="evenodd" clip-rule="evenodd" d="M11.2004 49.7C10.8144 49.7 10.5004 49.3859 10.5004 49C10.5004 48.6139 10.8144 48.2999 11.2004 48.2999C11.5864 48.2999 11.9004 48.6139 11.9004 49C11.9004 49.3859 11.5864 49.7 11.2004 49.7Z" fill="#ECECFE"/>
    <path fill-rule="evenodd" clip-rule="evenodd" d="M45.8504 44.7999C45.4644 44.7999 45.1504 44.4859 45.1504 44.0999C45.1504 43.7139 45.4644 43.4 45.8504 43.4C46.2364 43.4 46.5504 43.7139 46.5504 44.0999C46.5504 44.4859 46.2364 44.7999 45.8504 44.7999Z" fill="#ECECFE"/>
    <path fill-rule="evenodd" clip-rule="evenodd" d="M49.0004 5.59995C48.6144 5.59995 48.3004 5.28593 48.3004 4.89995C48.3004 4.51394 48.6144 4.19995 49.0004 4.19995C49.3864 4.19995 49.7004 4.51394 49.7004 4.89995C49.7004 5.28593 49.3864 5.59995 49.0004 5.59995Z" fill="#ECECFE"/>
    <path d="M12.3968 38.1467C12.735 37.9595 13.1612 38.0819 13.3484 38.4202C15.577 42.4471 18.6083 45.5727 22.4251 47.9659C22.7527 48.1713 22.852 48.6036 22.6466 48.9311C22.4412 49.2586 22.0089 49.3573 21.6814 49.1519C17.6712 46.6375 14.4711 43.3396 12.1234 39.0976C11.9363 38.7594 12.0587 38.3339 12.3968 38.1467ZM10.6037 33.9946C10.9656 33.8587 11.3695 34.0422 11.5054 34.4041C11.7592 35.08 12.03 35.735 12.3182 36.3694C12.478 36.7213 12.3227 37.1364 11.9709 37.2964C11.6189 37.4563 11.2039 37.3004 11.044 36.9484C10.7424 36.2846 10.4588 35.6008 10.1943 34.8963C10.0583 34.5343 10.2418 34.1305 10.6037 33.9946ZM35.7518 8.06111C35.8978 7.70319 36.3064 7.531 36.6644 7.67693L44.7144 10.9589C45.0722 11.1049 45.2438 11.5135 45.0979 11.8715C44.9519 12.2293 44.5432 12.4016 44.1853 12.2556L36.1353 8.9737C35.7774 8.82768 35.6059 8.41902 35.7518 8.06111ZM31.5518 6.3487C31.6978 5.99092 32.1065 5.81931 32.4644 5.96521L34.2144 6.6782C34.5722 6.82419 34.7438 7.23286 34.5979 7.59079C34.4519 7.94879 34.0433 8.12091 33.6853 7.97497L31.9353 7.2613C31.5775 7.11525 31.4059 6.70659 31.5518 6.3487Z" fill="#E1000F"/>
    <path d="M34.3993 28.0994C34.3993 24.62 31.5787 21.7994 28.0993 21.7994C24.6199 21.7994 21.7993 24.62 21.7993 28.0994C21.7993 31.5788 24.6199 34.3994 28.0993 34.3994C31.5787 34.3994 34.3993 31.5788 34.3993 28.0994ZM35.7993 28.0994C35.7993 32.352 32.3519 35.7994 28.0993 35.7994C23.8467 35.7994 20.3993 32.352 20.3993 28.0994C20.3993 23.8468 23.8467 20.3994 28.0993 20.3994C32.3519 20.3994 35.7993 23.8468 35.7993 28.0994Z" fill="#E1000F"/>
    <path d="M33.6723 31.705C33.9457 31.4318 34.3888 31.4317 34.6622 31.705L40.6873 37.7302C41.5039 38.5468 41.5039 39.8708 40.6873 40.6874C39.8708 41.504 38.5467 41.504 37.7301 40.6874L31.7049 34.6622C31.4316 34.3889 31.4317 33.9458 31.7049 33.6724C31.9783 33.399 32.4214 33.399 32.6948 33.6724L38.72 39.6976C38.9898 39.9675 39.4276 39.9675 39.6975 39.6976C39.9674 39.4277 39.9674 38.9899 39.6975 38.7201L39.6968 38.7194C39.6968 38.7194 39.6951 38.7183 39.6941 38.7173L39.6496 38.6729C39.6184 38.6416 39.5723 38.5948 39.5129 38.5355L33.6723 32.6949C33.3989 32.4215 33.3989 31.9784 33.6723 31.705Z" fill="#E1000F"/>
    <path d="M23.1002 18.2V14C23.1002 13.6134 23.4136 13.3 23.8002 13.3C24.1868 13.3 24.5002 13.6134 24.5002 14V18.2C24.5002 18.5866 24.1868 18.9 23.8002 18.9C23.4136 18.9 23.1002 18.5866 23.1002 18.2Z" fill="#000091"/>
    <path d="M37.1002 18.2V14C37.1002 13.6134 37.4136 13.3 37.8002 13.3C38.1868 13.3 38.5002 13.6134 38.5002 14V18.2C38.5002 18.5866 38.1868 18.9 37.8002 18.9C37.4136 18.9 37.1002 18.5866 37.1002 18.2Z" fill="#000091"/>
    <path d="M36.4002 31.5V30.8C36.4002 30.4134 36.7136 30.1 37.1002 30.1C37.4868 30.1 37.8002 30.4134 37.8002 30.8V31.5C37.8002 31.8866 37.4868 32.2 37.1002 32.2C36.7136 32.2 36.4002 31.8866 36.4002 31.5Z" fill="#000091"/>
    <path d="M27.7671 7.05334C27.9391 6.98211 28.1326 6.98243 28.3044 7.05402L45.1044 14.054L45.1946 14.0998C45.3958 14.2203 45.5255 14.4352 45.5344 14.674C45.8745 23.8559 44.9877 31.119 42.4493 36.6905C42.289 37.0422 41.8734 37.1974 41.5217 37.0371C41.17 36.8768 41.0149 36.4612 41.1751 36.1095C43.5417 30.9148 44.4417 24.0503 44.1501 15.1724L28.0344 8.45744L11.9453 15.1211C11.6416 24.3087 12.9107 31.265 15.6142 36.4868C18.3118 41.6975 22.4676 45.2391 28.0556 47.5508C31.7372 46.2762 34.6854 44.5126 37.0011 42.2044C37.2749 41.9315 37.718 41.932 37.9909 42.2058C38.2638 42.4796 38.2627 42.9227 37.9889 43.1956C35.4433 45.7329 32.2196 47.6269 28.2586 48.9631C28.1001 49.0166 27.9277 49.0115 27.7726 48.9487C21.7947 46.5314 17.2807 42.7509 14.3707 37.1301C11.4715 31.5298 10.1956 24.1637 10.561 14.6207L10.5727 14.5196C10.6154 14.2888 10.7721 14.0922 10.9931 14.0007L27.7671 7.05334Z" fill="#000091"/>
    <path d="M28.7002 15.4C28.7002 15.0134 28.3868 14.7 28.0002 14.7C27.6136 14.7 27.3002 15.0134 27.3002 15.4V16.8C27.3002 17.1866 27.6136 17.5 28.0002 17.5C28.3868 17.5 28.7002 17.1866 28.7002 16.8V15.4ZM30.1002 16.8C30.1002 17.9598 29.16 18.9 28.0002 18.9C26.8404 18.9 25.9002 17.9598 25.9002 16.8V15.4C25.9002 14.2402 26.8404 13.3 28.0002 13.3C29.16 13.3 30.1002 14.2402 30.1002 15.4V16.8Z" fill="#000091"/>
    <path d="M20.3002 15.4C20.3002 15.0134 19.9868 14.7 19.6002 14.7C19.2136 14.7 18.9002 15.0134 18.9002 15.4V16.8C18.9002 17.1866 19.2136 17.5 19.6002 17.5C19.9868 17.5 20.3002 17.1866 20.3002 16.8V15.4ZM21.7002 16.8C21.7002 17.9598 20.76 18.9 19.6002 18.9C18.4404 18.9 17.5002 17.9598 17.5002 16.8V15.4C17.5002 14.2402 18.4404 13.3 19.6002 13.3C20.76 13.3 21.7002 14.2402 21.7002 15.4V16.8Z" fill="#000091"/>
    <path d="M17.5002 25.2V23.8C17.5002 22.6402 18.4404 21.7 19.6002 21.7C19.9868 21.7 20.3002 22.0134 20.3002 22.4C20.3002 22.7624 20.0249 23.0607 19.672 23.0966L19.5284 23.1034C19.1755 23.1394 18.9002 23.4376 18.9002 23.8V25.2C18.9002 25.5866 18.5868 25.9 18.2002 25.9C17.8136 25.9 17.5002 25.5866 17.5002 25.2Z" fill="#000091"/>
    <path d="M17.5002 32.2V30.8C17.5002 30.4134 17.8136 30.1 18.2002 30.1C18.5868 30.1 18.9002 30.4134 18.9002 30.8V32.2C18.9002 32.5624 19.1755 32.8607 19.5284 32.8966L19.672 32.9034C20.0249 32.9394 20.3002 33.2376 20.3002 33.6C20.3002 33.9866 19.9868 34.3 19.6002 34.3C18.4404 34.3 17.5002 33.3598 17.5002 32.2Z" fill="#000091"/>
    <path d="M28.7002 39.2C28.7002 38.8134 28.3868 38.5 28.0002 38.5C27.6136 38.5 27.3002 38.8134 27.3002 39.2V40.6C27.3002 40.9866 27.6136 41.3 28.0002 41.3C28.3868 41.3 28.7002 40.9866 28.7002 40.6V39.2ZM30.1002 40.6C30.1002 41.7598 29.16 42.7 28.0002 42.7C26.8404 42.7 25.9002 41.7598 25.9002 40.6V39.2C25.9002 38.0402 26.8404 37.1 28.0002 37.1C29.16 37.1 30.1002 38.0402 30.1002 39.2V40.6Z" fill="#000091"/>
    <path d="M20.3002 40.6V39.2C20.3002 38.8376 20.0249 38.5394 19.672 38.5034L19.5284 38.4966C19.1755 38.4607 18.9002 38.1624 18.9002 37.8C18.9002 37.4134 19.2136 37.1 19.6002 37.1C20.76 37.1 21.7002 38.0402 21.7002 39.2V40.6C21.7002 40.9866 21.3868 41.3 21.0002 41.3C20.6136 41.3 20.3002 40.9866 20.3002 40.6Z" fill="#000091"/>
    <path d="M23.1002 42V37.8C23.1002 37.4134 23.4136 37.1 23.8002 37.1C24.1868 37.1 24.5002 37.4134 24.5002 37.8V42C24.5002 42.3866 24.1868 42.7 23.8002 42.7C23.4136 42.7 23.1002 42.3866 23.1002 42Z" fill="#000091"/>
    <path d="M31.5002 42V37.8C31.5002 37.4134 31.8136 37.1 32.2002 37.1C32.5868 37.1 32.9002 37.4134 32.9002 37.8V42C32.9002 42.3866 32.5868 42.7 32.2002 42.7C31.8136 42.7 31.5002 42.3866 31.5002 42Z" fill="#000091"/>
    <path d="M34.3002 41.3V40.6C34.3002 40.2134 34.6136 39.9 35.0002 39.9C35.3868 39.9 35.7002 40.2134 35.7002 40.6V41.3C35.7002 41.6866 35.3868 42 35.0002 42C34.6136 42 34.3002 41.6866 34.3002 41.3Z" fill="#000091"/>
    <path d="M34.3002 15.4C34.3002 15.0134 33.9868 14.7 33.6002 14.7C33.2136 14.7 32.9002 15.0134 32.9002 15.4V16.8C32.9002 17.1866 33.2136 17.5 33.6002 17.5C33.9868 17.5 34.3002 17.1866 34.3002 16.8V15.4ZM35.7002 16.8C35.7002 17.9598 34.76 18.9 33.6002 18.9C32.4404 18.9 31.5002 17.9598 31.5002 16.8V15.4C31.5002 14.2402 32.4404 13.3 33.6002 13.3C34.76 13.3 35.7002 14.2402 35.7002 15.4V16.8Z" fill="#000091"/>
    <path d="M36.4002 25.2V23.8C36.4002 23.4376 36.1249 23.1394 35.772 23.1034L35.6284 23.0966C35.2755 23.0607 35.0002 22.7624 35.0002 22.4C35.0002 22.0134 35.3136 21.7 35.7002 21.7C36.86 21.7 37.8002 22.6402 37.8002 23.8V25.2C37.8002 25.5866 37.4868 25.9 37.1002 25.9C36.7136 25.9 36.4002 25.5866 36.4002 25.2Z" fill="#000091"/>
    <path d="M27.3002 26.95C27.3002 26.3701 26.8301 25.9 26.2502 25.9C25.6703 25.9 25.2002 26.3701 25.2002 26.95V29.05C25.2002 29.6299 25.6703 30.1 26.2502 30.1C26.8301 30.1 27.3002 29.6299 27.3002 29.05V26.95ZM28.7002 29.05C28.7002 30.4031 27.6033 31.5 26.2502 31.5C24.8971 31.5 23.8002 30.4031 23.8002 29.05V26.95C23.8002 25.5969 24.8971 24.5 26.2502 24.5C27.6033 24.5 28.7002 25.5969 28.7002 26.95V29.05Z" fill="#000091"/>
    <path d="M30.1094 30.8012L30.1002 25.2012C30.0996 24.8146 30.4124 24.5007 30.799 24.5C31.1856 24.4994 31.4996 24.8123 31.5002 25.1989L31.5094 30.7989C31.5101 31.1855 31.1972 31.4994 30.8106 31.5C30.424 31.5007 30.1101 31.1878 30.1094 30.8012Z" fill="#000091"/>
</svg>
