<svg width="56" height="56" viewBox="0 0 56 56" fill="none" xmlns="http://www.w3.org/2000/svg">
    <path fill-rule="evenodd" clip-rule="evenodd" d="M9.10039 10.15C8.71441 10.15 8.40039 9.83593 8.40039 9.44995C8.40039 9.06394 8.71441 8.74995 9.10039 8.74995C9.48637 8.74995 9.80039 9.06394 9.80039 9.44995C9.80039 9.83593 9.48637 10.15 9.10039 10.15Z" fill="#ECECFE"/>
    <path fill-rule="evenodd" clip-rule="evenodd" d="M11.2004 49.7C10.8144 49.7 10.5004 49.3859 10.5004 49C10.5004 48.6139 10.8144 48.2999 11.2004 48.2999C11.5864 48.2999 11.9004 48.6139 11.9004 49C11.9004 49.3859 11.5864 49.7 11.2004 49.7Z" fill="#ECECFE"/>
    <path fill-rule="evenodd" clip-rule="evenodd" d="M45.8504 44.7999C45.4644 44.7999 45.1504 44.4859 45.1504 44.0999C45.1504 43.7139 45.4644 43.4 45.8504 43.4C46.2364 43.4 46.5504 43.7139 46.5504 44.0999C46.5504 44.4859 46.2364 44.7999 45.8504 44.7999Z" fill="#ECECFE"/>
    <path fill-rule="evenodd" clip-rule="evenodd" d="M49.0004 5.59995C48.6144 5.59995 48.3004 5.28593 48.3004 4.89995C48.3004 4.51394 48.6144 4.19995 49.0004 4.19995C49.3864 4.19995 49.7004 4.51394 49.7004 4.89995C49.7004 5.28593 49.3864 5.59995 49.0004 5.59995Z" fill="#ECECFE"/>
    <path d="M40.6 17.5C40.6 16.3402 39.6598 15.4 38.5 15.4H17.5C16.3402 15.4 15.4 16.3402 15.4 17.5V38.5C15.4 39.6598 16.3402 40.6 17.5 40.6H38.5C39.6598 40.6 40.6 39.6598 40.6 38.5V17.5ZM42 38.5C42 40.433 40.433 42 38.5 42H17.5C15.567 42 14 40.433 14 38.5V17.5C14 15.567 15.567 14 17.5 14H38.5C40.433 14 42 15.567 42 17.5V38.5Z" fill="#E1000F"/>
    <path d="M35.2188 37.8C35.6053 37.8 35.9187 38.1134 35.9187 38.5C35.9187 38.8866 35.6053 39.2 35.2188 39.2H32.9219C32.5353 39.2 32.2219 38.8866 32.2219 38.5C32.2219 38.1134 32.5353 37.8 32.9219 37.8H35.2188ZM38.5 37.8C38.8866 37.8 39.2 38.1134 39.2 38.5C39.2 38.8866 38.8866 39.2 38.5 39.2H37.8438C37.4572 39.2 37.1437 38.8866 37.1437 38.5C37.1437 38.1134 37.4572 37.8 37.8438 37.8H38.5ZM16.8 18.8125C16.8 17.701 17.701 16.8 18.8125 16.8H20.7812C21.1678 16.8 21.4812 17.1134 21.4812 17.5C21.4812 17.8866 21.1678 18.2 20.7812 18.2H18.8125C18.4742 18.2 18.2 18.4742 18.2 18.8125C18.2 19.1991 17.8866 19.5125 17.5 19.5125C17.1134 19.5125 16.8 19.1991 16.8 18.8125ZM24.0625 16.8C24.4491 16.8 24.7625 17.1134 24.7625 17.5C24.7625 17.8866 24.4491 18.2 24.0625 18.2H23.4062C23.0197 18.2 22.7063 17.8866 22.7063 17.5C22.7063 17.1134 23.0197 16.8 23.4062 16.8H24.0625Z" fill="#E1000F"/>
    <path d="M28.7 28C28.7 27.6134 28.3866 27.3 28 27.3C27.6376 27.3 27.3393 27.5753 27.3034 27.9282L27.2966 28.0718C27.2606 28.4247 26.9624 28.7 26.6 28.7C26.2134 28.7 25.9 28.3866 25.9 28C25.9 26.8402 26.8402 25.9 28 25.9C29.1598 25.9 30.1 26.8402 30.1 28C30.1 29.1598 29.1598 30.1 28 30.1C27.6134 30.1 27.3 29.7866 27.3 29.4C27.3 29.0376 27.5753 28.7394 27.9282 28.7034L28.0718 28.6966C28.4247 28.6606 28.7 28.3624 28.7 28Z" fill="#E1000F"/>
    <path d="M34.9996 7.7001C34.9996 8.0867 35.313 8.4001 35.6996 8.4001C36.0862 8.4001 36.3996 8.0867 36.3996 7.7001C36.3996 7.3135 36.0862 7.0001 35.6996 7.0001C35.313 7.0001 34.9996 7.3135 34.9996 7.7001ZM33.5996 7.7001C33.5996 6.5403 34.5398 5.6001 35.6996 5.6001C36.8594 5.6001 37.7996 6.5403 37.7996 7.7001C37.7996 8.8599 36.8594 9.8001 35.6996 9.8001C34.5398 9.8001 33.5996 8.8599 33.5996 7.7001Z" fill="#000091"/>
    <path d="M28.5725 21.7869C28.5725 21.7391 28.5335 21.7001 28.4856 21.7001H27.5136C27.4658 21.7001 27.4268 21.7391 27.4268 21.7869C27.4266 22.4958 26.938 23.0455 26.3528 23.2484C26.1652 23.3135 25.9822 23.3894 25.8053 23.4754C25.2477 23.7464 24.513 23.7032 24.0115 23.202C23.9776 23.168 23.9224 23.168 23.8885 23.202L23.2015 23.889C23.1675 23.9229 23.1675 23.9781 23.2015 24.012C23.7027 24.5135 23.7459 25.2481 23.4749 25.8058C23.3889 25.9826 23.313 26.1657 23.2479 26.3533C23.045 26.9385 22.4953 27.4271 21.7864 27.4272C21.7386 27.4272 21.6996 27.4663 21.6996 27.5141V28.4861C21.6996 28.5339 21.7386 28.5729 21.7864 28.5729C22.4953 28.5731 23.045 29.0617 23.2479 29.6469C23.313 29.8345 23.3889 30.0175 23.4749 30.1944C23.7459 30.752 23.7027 31.4867 23.2015 31.9882C23.1675 32.0221 23.1675 32.0773 23.2015 32.1112L23.8885 32.7982C23.9224 32.8322 23.9776 32.8322 24.0115 32.7982C24.513 32.297 25.2477 32.2538 25.8053 32.5248C25.9822 32.6108 26.1652 32.6867 26.3528 32.7518C26.938 32.9547 27.4266 33.5044 27.4268 34.2133C27.4268 34.2611 27.4658 34.3001 27.5136 34.3001H28.4856C28.5335 34.3001 28.5725 34.2611 28.5725 34.2133C28.5726 33.5044 29.0612 32.9547 29.6464 32.7518C29.834 32.6867 30.0171 32.6108 30.1939 32.5248C30.7516 32.2538 31.4862 32.297 31.9877 32.7982C32.0216 32.8322 32.0768 32.8322 32.1107 32.7982L32.7978 32.1112C32.8317 32.0773 32.8317 32.0221 32.7978 31.9882C32.2965 31.4867 32.2533 30.752 32.5243 30.1944C32.6103 30.0175 32.6862 29.8345 32.7513 29.6469C32.9542 29.0617 33.5039 28.5731 34.2128 28.5729C34.2606 28.5729 34.2996 28.5339 34.2996 28.4861V27.5141C34.2996 27.4663 34.2606 27.4272 34.2128 27.4272C33.5039 27.4271 32.9542 26.9385 32.7513 26.3533C32.6862 26.1657 32.6103 25.9826 32.5243 25.8058C32.2533 25.2481 32.2965 24.5135 32.7978 24.012C32.8317 23.9781 32.8317 23.9229 32.7978 23.889L32.1107 23.202C32.0768 23.168 32.0216 23.168 31.9877 23.202C31.4862 23.7032 30.7516 23.7464 30.1939 23.4754C30.0171 23.3894 29.834 23.3135 29.6464 23.2484C29.0612 23.0455 28.5726 22.4958 28.5725 21.7869ZM29.9725 21.7869C29.9725 21.8033 29.9771 21.8252 29.9978 21.8519C30.0199 21.8805 30.057 21.909 30.1051 21.9257C30.3454 22.009 30.5794 22.1062 30.8058 22.2162C30.8514 22.2384 30.8977 22.244 30.9336 22.2395C30.9669 22.2352 30.9862 22.2237 30.9979 22.2121C31.5785 21.6315 32.5199 21.6315 33.1006 22.2121L33.7876 22.8991C34.3682 23.4798 34.3682 24.4212 33.7876 25.0019C33.776 25.0135 33.7645 25.0328 33.7603 25.0661C33.7557 25.102 33.7613 25.1483 33.7835 25.1939C33.8935 25.4203 33.9907 25.6543 34.074 25.8946C34.0907 25.9427 34.1192 25.9798 34.1479 26.002C34.1745 26.0226 34.1964 26.0272 34.2128 26.0272C35.0338 26.0272 35.6996 26.6931 35.6996 27.5141V28.4861C35.6996 29.3071 35.0338 29.9729 34.2128 29.9729C34.1964 29.973 34.1745 29.9776 34.1479 29.9982C34.1192 30.0204 34.0907 30.0575 34.074 30.1056C33.9907 30.3459 33.8935 30.5799 33.7835 30.8062C33.7613 30.8519 33.7557 30.8982 33.7603 30.9341C33.7645 30.9674 33.776 30.9866 33.7876 30.9983C34.3682 31.579 34.3682 32.5204 33.7876 33.1011L33.1006 33.7881C32.5199 34.3687 31.5785 34.3687 30.9979 33.7881C30.9862 33.7765 30.9669 33.765 30.9336 33.7607C30.8977 33.7562 30.8514 33.7618 30.8058 33.784C30.5794 33.894 30.3454 33.9912 30.1051 34.0745C30.057 34.0912 30.0199 34.1196 29.9978 34.1483C29.9771 34.175 29.9725 34.1969 29.9725 34.2133C29.9725 35.0343 29.3067 35.7001 28.4856 35.7001H27.5136C26.6926 35.7001 26.0268 35.0343 26.0268 34.2133C26.0267 34.1969 26.0221 34.175 26.0015 34.1483C25.9793 34.1196 25.9422 34.0912 25.8941 34.0745C25.6538 33.9912 25.4198 33.894 25.1935 33.784C25.1478 33.7618 25.1016 33.7562 25.0656 33.7607C25.0323 33.765 25.0131 33.7765 25.0014 33.7881C24.4207 34.3687 23.4793 34.3687 22.8986 33.7881L22.2116 33.1011C21.631 32.5204 21.631 31.579 22.2116 30.9983C22.2232 30.9866 22.2347 30.9674 22.239 30.9341C22.2435 30.8982 22.2379 30.8519 22.2157 30.8062C22.1057 30.5799 22.0085 30.3459 21.9252 30.1056C21.9085 30.0575 21.8801 30.0204 21.8514 29.9982C21.8247 29.9776 21.8028 29.973 21.7864 29.9729C20.9654 29.9729 20.2996 29.3071 20.2996 28.4861V27.5141C20.2996 26.6931 20.9654 26.0272 21.7864 26.0272C21.8028 26.0272 21.8247 26.0226 21.8514 26.002C21.8801 25.9798 21.9085 25.9427 21.9252 25.8946C22.0085 25.6543 22.1057 25.4203 22.2157 25.1939C22.2379 25.1483 22.2435 25.102 22.239 25.0661C22.2347 25.0328 22.2232 25.0135 22.2116 25.0019C21.631 24.4212 21.631 23.4798 22.2116 22.8991L22.8986 22.2121C23.4793 21.6315 24.4207 21.6315 25.0014 22.2121C25.0131 22.2237 25.0323 22.2352 25.0656 22.2395C25.1016 22.244 25.1478 22.2384 25.1935 22.2162C25.4198 22.1062 25.6538 22.009 25.8941 21.9257C25.9422 21.909 25.9793 21.8805 26.0015 21.8519C26.0221 21.8252 26.0267 21.8033 26.0268 21.7869C26.0268 20.9659 26.6926 20.3001 27.5136 20.3001H28.4856C29.3067 20.3001 29.9725 20.9659 29.9725 21.7869Z" fill="#000091"/>
    <path d="M27.2996 46.9001V44.1001C27.2996 43.7135 27.613 43.4001 27.9996 43.4001C28.3862 43.4001 28.6996 43.7135 28.6996 44.1001V46.9001C28.6996 47.2867 28.3862 47.6001 27.9996 47.6001C27.613 47.6001 27.2996 47.2867 27.2996 46.9001Z" fill="#000091"/>
    <path d="M27.2996 9.1001V11.9001C27.2996 12.2867 27.613 12.6001 27.9996 12.6001C28.3862 12.6001 28.6996 12.2867 28.6996 11.9001V9.1001C28.6996 8.7135 28.3862 8.4001 27.9996 8.4001C27.613 8.4001 27.2996 8.7135 27.2996 9.1001Z" fill="#000091"/>
    <path d="M46.8996 27.3001H44.0996C43.713 27.3001 43.3996 27.6135 43.3996 28.0001C43.3996 28.3867 43.713 28.7001 44.0996 28.7001H46.8996C47.2862 28.7001 47.5996 28.3867 47.5996 28.0001C47.5996 27.6135 47.2862 27.3001 46.8996 27.3001Z" fill="#000091"/>
    <path d="M9.09961 27.3001H11.8996C12.2862 27.3001 12.5996 27.6135 12.5996 28.0001C12.5996 28.3867 12.2862 28.7001 11.8996 28.7001H9.09961C8.71301 28.7001 8.39961 28.3867 8.39961 28.0001C8.39961 27.6135 8.71301 27.3001 9.09961 27.3001Z" fill="#000091"/>
    <path d="M23.0996 44.1001C23.0996 43.7135 22.7862 43.4001 22.3996 43.4001C22.013 43.4001 21.6996 43.7135 21.6996 44.1001V45.2103L20.5047 46.4052C20.2313 46.6785 20.2313 47.1217 20.5047 47.395C20.7781 47.6684 21.2212 47.6684 21.4945 47.395L22.8945 45.995C23.0258 45.8637 23.0996 45.6857 23.0996 45.5001V44.1001Z" fill="#000091"/>
    <path d="M23.0996 11.9001C23.0996 12.2867 22.7862 12.6001 22.3996 12.6001C22.013 12.6001 21.6996 12.2867 21.6996 11.9001V10.7899L20.5047 9.59502C20.2313 9.32165 20.2313 8.87854 20.5047 8.60518C20.7781 8.33181 21.2212 8.33181 21.4945 8.60518L22.8945 10.0052C23.0258 10.1365 23.0996 10.3144 23.0996 10.5001V11.9001Z" fill="#000091"/>
    <path d="M44.0996 23.1001C43.713 23.1001 43.3996 22.7867 43.3996 22.4001C43.3996 22.0135 43.713 21.7001 44.0996 21.7001H45.4224L46.3575 20.5571C46.6022 20.258 47.0434 20.2135 47.3426 20.458C47.6417 20.7027 47.6862 21.1439 47.4417 21.4431L46.296 22.8431C46.163 23.0056 45.9639 23.1001 45.7539 23.1001H44.0996Z" fill="#000091"/>
    <path d="M11.8996 23.1001C12.2862 23.1001 12.5996 22.7867 12.5996 22.4001C12.5996 22.0135 12.2862 21.7001 11.8996 21.7001H10.7895L9.59453 20.5052C9.32116 20.2318 8.87805 20.2318 8.60469 20.5052C8.33132 20.7785 8.33132 21.2217 8.60469 21.495L10.0047 22.895C10.136 23.0263 10.314 23.1001 10.4996 23.1001H11.8996Z" fill="#000091"/>
    <path d="M32.8996 44.1001C32.8996 43.7135 33.213 43.4001 33.5996 43.4001C33.9862 43.4001 34.2996 43.7135 34.2996 44.1001V45.2103L35.4945 46.4052C35.7679 46.6785 35.7679 47.1217 35.4945 47.395C35.2212 47.6684 34.7781 47.6684 34.5047 47.395L33.1047 45.995C32.9734 45.8637 32.8996 45.6857 32.8996 45.5001V44.1001Z" fill="#000091"/>
    <path d="M32.1996 11.9001C32.1996 12.2867 32.513 12.6001 32.8996 12.6001C33.2862 12.6001 33.5996 12.2867 33.5996 11.9001V10.7899L34.7945 9.59502C35.0679 9.32165 35.0679 8.87854 34.7945 8.60518C34.5212 8.33181 34.0781 8.33181 33.8047 8.60518L32.4047 10.0052C32.2734 10.1365 32.1996 10.3144 32.1996 10.5001V11.9001Z" fill="#000091"/>
    <path d="M44.0996 32.9001C43.713 32.9001 43.3996 33.2135 43.3996 33.6001C43.3996 33.9867 43.713 34.3001 44.0996 34.3001H45.2098L46.4047 35.495C46.6781 35.7684 47.1212 35.7684 47.3945 35.495C47.6679 35.2217 47.6679 34.7785 47.3945 34.5052L45.9945 33.1052C45.8633 32.9739 45.6853 32.9001 45.4996 32.9001H44.0996Z" fill="#000091"/>
    <path d="M11.8996 32.9001C12.2862 32.9001 12.5996 33.2135 12.5996 33.6001C12.5996 33.9867 12.2862 34.3001 11.8996 34.3001H10.7895L9.59453 35.495C9.32116 35.7684 8.87805 35.7684 8.60469 35.495C8.33132 35.2217 8.33132 34.7785 8.60469 34.5052L10.0047 33.1052C10.136 32.9739 10.314 32.9001 10.4996 32.9001H11.8996Z" fill="#000091"/>
    <path d="M28.6996 48.3001C28.6996 47.9135 28.3862 47.6001 27.9996 47.6001C27.613 47.6001 27.2996 47.9135 27.2996 48.3001C27.2996 48.6867 27.613 49.0001 27.9996 49.0001C28.3862 49.0001 28.6996 48.6867 28.6996 48.3001ZM30.0996 48.3001C30.0996 49.4599 29.1594 50.4001 27.9996 50.4001C26.8398 50.4001 25.8996 49.4599 25.8996 48.3001C25.8996 47.1403 26.8398 46.2001 27.9996 46.2001C29.1594 46.2001 30.0996 47.1403 30.0996 48.3001Z" fill="#000091"/>
    <path d="M28.6996 7.7001C28.6996 8.0867 28.3862 8.4001 27.9996 8.4001C27.613 8.4001 27.2996 8.0867 27.2996 7.7001C27.2996 7.3135 27.613 7.0001 27.9996 7.0001C28.3862 7.0001 28.6996 7.3135 28.6996 7.7001ZM30.0996 7.7001C30.0996 6.5403 29.1594 5.6001 27.9996 5.6001C26.8398 5.6001 25.8996 6.5403 25.8996 7.7001C25.8996 8.8599 26.8398 9.8001 27.9996 9.8001C29.1594 9.8001 30.0996 8.8599 30.0996 7.7001Z" fill="#000091"/>
    <path d="M48.2996 28.7001C47.913 28.7001 47.5996 28.3867 47.5996 28.0001C47.5996 27.6135 47.913 27.3001 48.2996 27.3001C48.6862 27.3001 48.9996 27.6135 48.9996 28.0001C48.9996 28.3867 48.6862 28.7001 48.2996 28.7001ZM48.2996 30.1001C49.4594 30.1001 50.3996 29.1599 50.3996 28.0001C50.3996 26.8403 49.4594 25.9001 48.2996 25.9001C47.1398 25.9001 46.1996 26.8403 46.1996 28.0001C46.1996 29.1599 47.1398 30.1001 48.2996 30.1001Z" fill="#000091"/>
    <path d="M7.69961 28.7001C8.08621 28.7001 8.39961 28.3867 8.39961 28.0001C8.39961 27.6135 8.08621 27.3001 7.69961 27.3001C7.31301 27.3001 6.99961 27.6135 6.99961 28.0001C6.99961 28.3867 7.31301 28.7001 7.69961 28.7001ZM7.69961 30.1001C6.53981 30.1001 5.59961 29.1599 5.59961 28.0001C5.59961 26.8403 6.53981 25.9001 7.69961 25.9001C8.85941 25.9001 9.79961 26.8403 9.79961 28.0001C9.79961 29.1599 8.85941 30.1001 7.69961 30.1001Z" fill="#000091"/>
    <path d="M20.2996 48.3001C20.2996 47.9135 19.9862 47.6001 19.5996 47.6001C19.213 47.6001 18.8996 47.9135 18.8996 48.3001C18.8996 48.6867 19.213 49.0001 19.5996 49.0001C19.9862 49.0001 20.2996 48.6867 20.2996 48.3001ZM21.6996 48.3001C21.6996 49.4599 20.7594 50.4001 19.5996 50.4001C18.4398 50.4001 17.4996 49.4599 17.4996 48.3001C17.4996 47.1403 18.4398 46.2001 19.5996 46.2001C20.7594 46.2001 21.6996 47.1403 21.6996 48.3001Z" fill="#000091"/>
    <path d="M20.2996 7.7001C20.2996 8.0867 19.9862 8.4001 19.5996 8.4001C19.213 8.4001 18.8996 8.0867 18.8996 7.7001C18.8996 7.3135 19.213 7.0001 19.5996 7.0001C19.9862 7.0001 20.2996 7.3135 20.2996 7.7001ZM21.6996 7.7001C21.6996 6.5403 20.7594 5.6001 19.5996 5.6001C18.4398 5.6001 17.4996 6.5403 17.4996 7.7001C17.4996 8.8599 18.4398 9.8001 19.5996 9.8001C20.7594 9.8001 21.6996 8.8599 21.6996 7.7001Z" fill="#000091"/>
    <path d="M48.2996 20.3001C47.913 20.3001 47.5996 19.9867 47.5996 19.6001C47.5996 19.2135 47.913 18.9001 48.2996 18.9001C48.6862 18.9001 48.9996 19.2135 48.9996 19.6001C48.9996 19.9867 48.6862 20.3001 48.2996 20.3001ZM48.2996 21.7001C49.4594 21.7001 50.3996 20.7599 50.3996 19.6001C50.3996 18.4403 49.4594 17.5001 48.2996 17.5001C47.1398 17.5001 46.1996 18.4403 46.1996 19.6001C46.1996 20.7599 47.1398 21.7001 48.2996 21.7001Z" fill="#000091"/>
    <path d="M7.69961 20.3001C8.08621 20.3001 8.39961 19.9867 8.39961 19.6001C8.39961 19.2135 8.08621 18.9001 7.69961 18.9001C7.31301 18.9001 6.99961 19.2135 6.99961 19.6001C6.99961 19.9867 7.31301 20.3001 7.69961 20.3001ZM7.69961 21.7001C6.53981 21.7001 5.59961 20.7599 5.59961 19.6001C5.59961 18.4403 6.53981 17.5001 7.69961 17.5001C8.85941 17.5001 9.79961 18.4403 9.79961 19.6001C9.79961 20.7599 8.85941 21.7001 7.69961 21.7001Z" fill="#000091"/>
    <path d="M35.6996 48.3001C35.6996 47.9135 36.013 47.6001 36.3996 47.6001C36.7862 47.6001 37.0996 47.9135 37.0996 48.3001C37.0996 48.6867 36.7862 49.0001 36.3996 49.0001C36.013 49.0001 35.6996 48.6867 35.6996 48.3001ZM34.2996 48.3001C34.2996 49.4599 35.2398 50.4001 36.3996 50.4001C37.5594 50.4001 38.4996 49.4599 38.4996 48.3001C38.4996 47.1403 37.5594 46.2001 36.3996 46.2001C35.2398 46.2001 34.2996 47.1403 34.2996 48.3001Z" fill="#000091"/>
    <path d="M48.2996 35.7001C47.913 35.7001 47.5996 36.0135 47.5996 36.4001C47.5996 36.7867 47.913 37.1001 48.2996 37.1001C48.6862 37.1001 48.9996 36.7867 48.9996 36.4001C48.9996 36.0135 48.6862 35.7001 48.2996 35.7001ZM48.2996 34.3001C49.4594 34.3001 50.3996 35.2403 50.3996 36.4001C50.3996 37.5599 49.4594 38.5001 48.2996 38.5001C47.1398 38.5001 46.1996 37.5599 46.1996 36.4001C46.1996 35.2403 47.1398 34.3001 48.2996 34.3001Z" fill="#000091"/>
    <path d="M7.69961 35.7001C8.08621 35.7001 8.39961 36.0135 8.39961 36.4001C8.39961 36.7867 8.08621 37.1001 7.69961 37.1001C7.31301 37.1001 6.99961 36.7867 6.99961 36.4001C6.99961 36.0135 7.31301 35.7001 7.69961 35.7001ZM7.69961 34.3001C6.53981 34.3001 5.59961 35.2403 5.59961 36.4001C5.59961 37.5599 6.53981 38.5001 7.69961 38.5001C8.85941 38.5001 9.79961 37.5599 9.79961 36.4001C9.79961 35.2403 8.85941 34.3001 7.69961 34.3001Z" fill="#000091"/>
</svg>
