<svg width="56" height="56" viewBox="0 0 56 56" fill="none" xmlns="http://www.w3.org/2000/svg">
    <path fill-rule="evenodd" clip-rule="evenodd" d="M47.5998 9.09998C47.2138 9.09998 46.8998 8.78596 46.8998 8.39998C46.8998 8.01396 47.2138 7.69998 47.5998 7.69998C47.9858 7.69998 48.2998 8.01396 48.2998 8.39998C48.2998 8.78596 47.9858 9.09998 47.5998 9.09998Z" fill="#ECECFE"/>
    <path fill-rule="evenodd" clip-rule="evenodd" d="M20.9998 56C20.6138 56 20.2998 55.686 20.2998 55.3C20.2998 54.914 20.6138 54.6 20.9998 54.6C21.3858 54.6 21.6998 54.914 21.6998 55.3C21.6998 55.686 21.3858 56 20.9998 56Z" fill="#ECECFE"/>
    <path fill-rule="evenodd" clip-rule="evenodd" d="M10.4998 6.99998C10.1138 6.99998 9.7998 6.68596 9.7998 6.29998C9.7998 5.91396 10.1138 5.59998 10.4998 5.59998C10.8858 5.59998 11.1998 5.91396 11.1998 6.29998C11.1998 6.68596 10.8858 6.99998 10.4998 6.99998Z" fill="#ECECFE"/>
    <path fill-rule="evenodd" clip-rule="evenodd" d="M37.8004 24.5C31.2282 24.5 25.9004 29.8278 25.9004 36.4C25.9004 36.4446 25.9007 36.4891 25.9011 36.5336C25.8746 38.8528 26.5545 41.1901 27.9692 43.2191C30.12 46.3036 33.569 48.1014 37.188 48.2845C37.3456 48.2925 37.504 48.2974 37.6631 48.2992C39.2285 48.3171 40.8164 48.0323 42.3363 47.4186C42.3808 47.4006 42.4228 47.3783 42.4619 47.3523C44.1741 46.6226 45.6803 45.5032 46.8691 44.1055C46.9536 44.063 47.033 44.0005 47.1023 43.9155C48.8292 41.7983 49.7291 39.1832 49.6997 36.529C49.7002 36.4861 49.7004 36.4431 49.7004 36.4C49.7004 29.8278 44.3726 24.5 37.8004 24.5ZM41.1758 26.4543C40.1165 26.0949 38.9812 25.9 37.8004 25.9C34.9596 25.9 32.3822 27.0282 30.492 28.861C30.6155 29.018 30.719 29.189 30.799 29.3689C30.8709 29.5262 30.9301 29.6879 30.9778 29.8547C31.0725 30.1853 31.1165 30.4654 31.1354 30.8423L31.1451 31.1455C31.1471 31.2541 31.1479 31.3711 31.1479 31.4988L31.1483 31.6388L31.1523 31.8753L31.1613 32.0584L31.176 32.1971C31.1879 32.2768 31.204 32.333 31.2254 32.3776C31.2289 32.3848 31.2456 32.3955 31.2755 32.4092L31.3533 32.4406L31.4667 32.4793L31.6161 32.5245L31.9082 32.6026L32.2825 32.6907L33.1351 32.8732L33.4339 32.9477C33.9594 33.0898 34.3479 33.3276 34.7983 33.7573L34.8926 33.8492L34.8851 33.8335C34.4677 32.8649 34.4107 31.5967 34.6738 30.7502L34.7236 30.6053C35.0857 29.6442 35.8989 29.2713 37.0135 29.2455C37.0476 29.2447 37.0812 29.2442 37.1147 29.244L37.3182 29.2459C37.3533 29.2467 37.3892 29.2479 37.4266 29.2493L38.1844 29.2913L38.4029 29.2979L38.5081 29.2959L38.5924 29.2891C38.7107 29.2746 38.8534 29.1334 39.0132 28.8205L39.2505 28.2883L39.3387 28.1022C39.3809 28.0169 39.4189 27.9473 39.4463 27.9105C39.6779 27.6007 40.0446 27.2726 40.5831 26.8743L40.894 26.6498L41.1758 26.4543ZM38.1443 46.8945C38.0301 46.8981 37.9155 46.9 37.8004 46.9C32.0464 46.9 27.3734 42.2716 27.3013 36.5347C27.3299 34.3126 28.098 32.1099 29.5737 30.298L29.6286 30.2309L29.6319 30.2401C29.6836 30.4206 29.7134 30.5886 29.7298 30.8077L29.7421 31.0462L29.7473 31.333L29.75 31.8151C29.7593 32.3731 29.8035 32.6505 29.9638 32.9844C30.2144 33.5044 30.5831 33.7221 31.4749 33.9436L31.7744 34.014L32.1114 34.0867L32.7112 34.2128L32.9033 34.257L33.0683 34.2992C33.4423 34.4002 33.7601 34.6595 34.3007 35.2631L34.6722 35.6779C34.8835 35.9059 35.0262 36.0411 35.186 36.1321C35.4195 36.2652 35.7087 36.2528 35.9299 36.1002C36.1967 35.9162 36.4804 35.5045 36.6144 35.0351C36.7466 34.5714 36.7194 34.1092 36.4751 33.7632L36.403 33.6718C35.9207 33.1155 35.7948 31.7301 36.0333 31.0998C36.1494 30.7918 36.4387 30.6592 37.0458 30.6451L37.2082 30.6442L37.4874 30.6535L38.0554 30.6867L38.277 30.6963C38.31 30.6972 38.3413 30.6979 38.3712 30.6983L38.5371 30.6966L38.687 30.6869C38.7116 30.6845 38.7362 30.6819 38.7612 30.6789C39.4073 30.5999 39.8481 30.2011 40.1886 29.5911L40.2884 29.4001L40.3512 29.2654L40.5048 28.9111L40.5676 28.7527C40.5689 28.7484 40.569 28.7469 40.5678 28.7485C40.6656 28.6176 40.8422 28.4514 41.0922 28.2508L41.3245 28.0705L41.5921 27.8736C41.6396 27.8394 41.6885 27.8045 41.7389 27.769L42.058 27.5474L42.2825 27.3952L42.4249 27.4613C45.1908 28.7844 47.2296 31.2315 47.9839 34.1604L48.0468 34.4187C48.2074 35.1181 48.2908 35.8257 48.2996 36.5303C48.2812 38.0414 47.9437 39.4757 47.3512 40.7688C47.2462 39.8676 46.9322 39.4091 46.126 38.9586C45.8496 38.8063 45.6307 38.6969 45.3704 38.5776L45.1659 38.4855C44.588 38.2301 44.452 38.1327 44.1426 37.6904L43.9827 37.4588C43.1948 36.2874 42.586 35.9119 41.1415 36.1351C38.5798 36.5323 37.8365 37.0243 37.6382 38.3327L37.5702 38.8007C37.563 38.8542 37.5563 38.9062 37.5501 38.9568L37.5196 39.2434C37.4447 40.1005 37.5797 40.4981 38.0838 41.0152L38.4522 41.3963L38.7979 41.761L39.1208 42.1091L39.4207 42.4402L39.6975 42.7541L39.9509 43.0505L40.1809 43.3291L40.3873 43.5897L40.5698 43.8318C40.5983 43.8706 40.6257 43.9087 40.6522 43.9459L40.7988 44.16C40.9333 44.3645 41.0317 44.5404 41.093 44.6864L41.1575 44.8498C41.3019 45.238 41.4011 45.6731 41.415 46.1072L41.4152 46.2612C40.3903 46.637 39.2905 46.8576 38.1443 46.8945ZM42.7852 45.6436C43.9937 44.9905 45.0596 44.1074 45.9242 43.0528C45.9719 42.7422 45.997 42.4111 45.997 42.0595L45.997 41.7627L45.9952 41.4846L45.9895 41.2474L45.9783 41.0465C45.9377 40.5247 45.8131 40.3875 45.4469 40.1828L45.2741 40.0895C45.0525 39.9725 44.8584 39.8808 44.5989 39.7655L44.4467 39.697C43.7633 39.3824 43.4414 39.1304 42.9929 38.4893L42.754 38.1414L42.6235 37.9567C42.3155 37.5385 42.1271 37.4379 41.6673 37.4787L41.468 37.5021L41.171 37.5476L40.6772 37.6298L40.2675 37.7069L40.0371 37.7569L39.838 37.8068C39.2853 37.9574 39.1221 38.118 39.0518 38.3919L39.0314 38.4876L38.9825 38.81L38.9319 39.1663L38.9103 39.3524L38.8986 39.504L38.8973 39.6267C38.9018 39.7552 38.9279 39.8362 38.9776 39.9103L39.0259 39.9729C39.044 39.9939 39.064 40.0152 39.086 40.0378L39.2941 40.2521L39.6908 40.6667L40.0614 41.063L40.406 41.441L40.7246 41.8009L41.0172 42.1428L41.2839 42.4668L41.5245 42.773C41.9418 43.3181 42.2283 43.7743 42.3841 44.1449C42.5762 44.6042 42.7229 45.1119 42.7852 45.6436Z" fill="#E1000F"/>
    <path d="M46.8955 12.5184C46.855 12.1703 46.5592 11.9 46.2002 11.9H8.4002L8.31856 11.9047C7.97042 11.9452 7.7002 12.241 7.7002 12.6V44.8L7.7049 44.8817C7.74534 45.2298 8.04121 45.5 8.4002 45.5H25.2002L25.2818 45.4953C25.63 45.4549 25.9002 45.159 25.9002 44.8L25.8955 44.7184C25.855 44.3703 25.5592 44.1 25.2002 44.1H9.1002V18.9H35.0002L35.0818 18.8953C35.43 18.8549 35.7002 18.559 35.7002 18.2C35.7002 17.8134 35.3868 17.5 35.0002 17.5H9.1002V13.3H45.5002V17.5H39.2002L39.1186 17.5047C38.7704 17.5452 38.5002 17.841 38.5002 18.2C38.5002 18.5866 38.8136 18.9 39.2002 18.9H45.5002V23.8L45.5049 23.8817C45.5453 24.2298 45.8412 24.5 46.2002 24.5C46.5868 24.5 46.9002 24.1866 46.9002 23.8V12.6L46.8955 12.5184Z" fill="#000091"/>
    <path d="M11.2002 16.1C10.8142 16.1 10.5002 15.786 10.5002 15.4C10.5002 15.014 10.8142 14.7 11.2002 14.7C11.5862 14.7 11.9002 15.014 11.9002 15.4C11.9002 15.786 11.5862 16.1 11.2002 16.1Z" fill="#000091"/>
    <path d="M13.3002 15.4C13.3002 15.786 13.6142 16.1 14.0002 16.1C14.3862 16.1 14.7002 15.786 14.7002 15.4C14.7002 15.014 14.3862 14.7 14.0002 14.7C13.6142 14.7 13.3002 15.014 13.3002 15.4Z" fill="#000091"/>
    <path d="M16.8002 16.1C16.4142 16.1 16.1002 15.786 16.1002 15.4C16.1002 15.014 16.4142 14.7 16.8002 14.7C17.1862 14.7 17.5002 15.014 17.5002 15.4C17.5002 15.786 17.1862 16.1 16.8002 16.1Z" fill="#000091"/>
    <path d="M43.4002 14.7C43.7868 14.7 44.1002 15.0134 44.1002 15.4C44.1002 15.759 43.83 16.0549 43.4818 16.0953L43.4002 16.1H22.4002C22.0136 16.1 21.7002 15.7866 21.7002 15.4C21.7002 15.041 21.9704 14.7452 22.3186 14.7047L22.4002 14.7H43.4002Z" fill="#000091"/>
    <path d="M27.3002 23.8C27.3002 23.4134 26.9868 23.1 26.6002 23.1H14.0002L13.9186 23.1047C13.5704 23.1452 13.3002 23.441 13.3002 23.8C13.3002 24.1866 13.6136 24.5 14.0002 24.5H26.6002L26.6818 24.4953C27.03 24.4549 27.3002 24.159 27.3002 23.8Z" fill="#000091"/>
    <path d="M23.8002 27.3C24.1868 27.3 24.5002 27.6134 24.5002 28C24.5002 28.359 24.23 28.6549 23.8818 28.6953L23.8002 28.7H14.0002C13.6136 28.7 13.3002 28.3866 13.3002 28C13.3002 27.641 13.5704 27.3452 13.9186 27.3047L14.0002 27.3H23.8002Z" fill="#000091"/>
    <path d="M23.1002 32.2C23.1002 31.8134 22.7868 31.5 22.4002 31.5H14.0002L13.9186 31.5047C13.5704 31.5452 13.3002 31.841 13.3002 32.2C13.3002 32.5866 13.6136 32.9 14.0002 32.9H22.4002L22.4818 32.8953C22.83 32.8549 23.1002 32.559 23.1002 32.2Z" fill="#000091"/>
</svg>
