<svg width="56" height="56" viewBox="0 0 56 56" fill="none" xmlns="http://www.w3.org/2000/svg">
    <path fill-rule="evenodd" clip-rule="evenodd" d="M6.9998 5.59995C6.61382 5.59995 6.2998 5.28593 6.2998 4.89995C6.2998 4.51394 6.61382 4.19995 6.9998 4.19995C7.38578 4.19995 7.6998 4.51394 7.6998 4.89995C7.6998 5.28593 7.38578 5.59995 6.9998 5.59995Z" fill="#ECECFE"/>
    <path fill-rule="evenodd" clip-rule="evenodd" d="M11.1998 49.7C10.8138 49.7 10.4998 49.3859 10.4998 49C10.4998 48.6139 10.8138 48.2999 11.1998 48.2999C11.5858 48.2999 11.8998 48.6139 11.8998 49C11.8998 49.3859 11.5858 49.7 11.1998 49.7Z" fill="#ECECFE"/>
    <path fill-rule="evenodd" clip-rule="evenodd" d="M44.7998 42.7C44.4138 42.7 44.0998 42.3859 44.0998 42C44.0998 41.6139 44.4138 41.2999 44.7998 41.2999C45.1858 41.2999 45.4998 41.6139 45.4998 42C45.4998 42.3859 45.1858 42.7 44.7998 42.7Z" fill="#ECECFE"/>
    <path fill-rule="evenodd" clip-rule="evenodd" d="M48.9998 5.59995C48.6138 5.59995 48.2998 5.28593 48.2998 4.89995C48.2998 4.51394 48.6138 4.19995 48.9998 4.19995C49.3858 4.19995 49.6998 4.51394 49.6998 4.89995C49.6998 5.28593 49.3858 5.59995 48.9998 5.59995Z" fill="#ECECFE"/>
    <path d="M31.5 30.1C31.5 28.1671 29.933 26.6 28 26.6C26.067 26.6 24.5 28.1671 24.5 30.1C24.5 30.4866 24.1866 30.8 23.8 30.8C23.4134 30.8 23.1 30.4866 23.1 30.1C23.1 27.3939 25.2938 25.2 28 25.2C30.7062 25.2 32.9 27.3939 32.9 30.1C32.9 32.8062 30.7062 35 28 35C27.6134 35 27.3 34.6866 27.3 34.3001C27.3 33.9135 27.6134 33.6 28 33.6C29.933 33.6 31.5 32.033 31.5 30.1Z" fill="#E1000F"/>
    <path d="M27.3 30.1C27.3 30.4866 27.6134 30.8 28 30.8C28.3624 30.8 28.6607 30.5247 28.6966 30.1718L28.7034 30.0283C28.7393 29.6754 29.0376 29.4 29.4 29.4C29.7866 29.4001 30.1 29.7135 30.1 30.1C30.1 31.2598 29.1598 32.2001 28 32.2001C26.8402 32.2 25.9 31.2598 25.9 30.1C25.9 28.9403 26.8402 28 28 28C28.3866 28 28.7 28.3134 28.7 28.7C28.7 29.0624 28.4247 29.3607 28.0718 29.3966L27.9282 29.4035C27.5753 29.4394 27.3 29.7377 27.3 30.1Z" fill="#E1000F"/>
    <path d="M10.5 29.9415C10.5 24.9901 12.7937 20.5693 16.383 17.6566C16.6832 17.413 17.1245 17.4589 17.3681 17.7591C17.6115 18.0593 17.5656 18.4999 17.2655 18.7435C13.9865 21.4043 11.9 25.4336 11.9 29.9415C11.9001 36.0802 15.7721 41.3351 21.2516 43.4465C21.6122 43.5855 21.7924 43.9909 21.6535 44.3516C21.5145 44.7123 21.1091 44.8924 20.7484 44.7536C14.7555 42.4444 10.5001 36.6874 10.5 29.9415Z" fill="#E1000F"/>
    <path d="M16.8 20.3V18.2H14.7C14.3134 18.2 14 17.8866 14 17.5C14 17.1134 14.3134 16.8 14.7 16.8H17.5C17.8866 16.8 18.2 17.1134 18.2 17.5V20.3C18.2 20.6866 17.8866 21 17.5 21C17.1134 21 16.8 20.6866 16.8 20.3Z" fill="#E1000F"/>
    <path d="M37.1 41.3001V43.4001H39.2C39.5866 43.4001 39.9 43.7135 39.9 44.1C39.9 44.4867 39.5866 44.8001 39.2 44.8001H36.4C36.0134 44.8001 35.7 44.4867 35.7 44.1V41.3001C35.7 40.9135 36.0134 40.6 36.4 40.6C36.7866 40.6 37.1 40.9135 37.1 41.3001Z" fill="#E1000F"/>
    <path d="M45.5 30.1C45.5 25.0884 43.2093 20.611 39.6204 17.6593C39.3218 17.4138 38.8809 17.4571 38.6354 17.7557C38.3898 18.0543 38.4325 18.4952 38.7311 18.7408C42.0105 21.4379 44.1 25.5247 44.1 30.1C44.1 35.5132 41.1745 40.2438 36.8149 42.7958C36.4814 42.991 36.3689 43.4199 36.5641 43.7535C36.7593 44.087 37.1882 44.1995 37.5218 44.0043C42.2928 41.2116 45.5 36.0307 45.5 30.1Z" fill="#E1000F"/>
    <path d="M27.3002 9.09995V16.1C27.3002 16.4866 27.6136 16.8 28.0002 16.8C28.3868 16.8 28.7002 16.4866 28.7002 16.1V9.09995C28.7002 8.71335 28.3868 8.39995 28.0002 8.39995C27.6136 8.39995 27.3002 8.71335 27.3002 9.09995Z" fill="#000091"/>
    <path d="M27.3002 46.9V44.0999C27.3002 43.7134 27.6136 43.4 28.0002 43.4C28.3868 43.4 28.7002 43.7134 28.7002 44.0999V46.9C28.7002 47.2865 28.3868 47.5999 28.0002 47.5999C27.6136 47.5999 27.3002 47.2865 27.3002 46.9Z" fill="#000091"/>
    <path d="M29.4337 20.0853C29.4336 19.8173 29.2163 19.6001 28.9483 19.6H27.0521C26.7841 19.6001 26.5668 19.8173 26.5667 20.0853C26.5667 20.9704 25.9608 21.6772 25.2057 21.9447C24.8811 22.0596 24.5658 22.1941 24.2609 22.3466C23.5293 22.7128 22.5777 22.6506 21.9381 22.011C21.7453 21.8182 21.4329 21.8182 21.2401 22.011L19.9639 23.2866C19.742 23.5085 19.7421 23.8685 19.9639 24.0905C20.606 24.7326 20.6885 25.6811 20.3542 26.4311C20.2452 26.6756 20.1471 26.9262 20.0616 27.1824C19.7893 27.9983 19.0376 28.6665 18.0833 28.6665C17.7613 28.6665 17.5003 28.9276 17.5002 29.2496V30.841C17.5002 31.2232 17.8104 31.5334 18.1927 31.5334C19.1505 31.5336 19.9189 32.1756 20.2435 32.9758C20.3062 33.1306 20.3735 33.2831 20.4451 33.4332C20.8345 34.2488 20.7693 35.3039 20.0589 36.0144C19.7846 36.2888 19.7846 36.7333 20.0589 37.0077L21.0364 37.9852C21.3416 38.2904 21.8366 38.2904 22.1418 37.9852C22.8536 37.2736 23.903 37.186 24.7367 37.5395C24.8246 37.5768 24.9132 37.6132 25.0026 37.6475C25.8628 37.9777 26.5666 38.7903 26.5667 39.8159C26.5667 40.2488 26.9179 40.5999 27.3508 40.5999H28.6496C29.0825 40.5999 29.4337 40.2488 29.4337 39.8159C29.4338 38.7903 30.1376 37.9777 30.9978 37.6475C31.0872 37.6132 31.1758 37.5768 31.2637 37.5395C32.0974 37.186 33.1468 37.2736 33.8586 37.9852C34.1638 38.2904 34.6588 38.2904 34.964 37.9852L35.9415 37.0077C36.2158 36.7333 36.2158 36.2888 35.9415 36.0144C35.231 35.304 35.1659 34.2488 35.5553 33.4332C35.6269 33.2831 35.6942 33.1306 35.7569 32.9758C36.0815 32.1756 36.8499 31.5336 37.8077 31.5334C38.19 31.5334 38.5002 31.2232 38.5002 30.841V29.2496C38.5 28.9276 38.239 28.6665 37.9171 28.6665C36.9627 28.6665 36.2104 27.9983 35.9381 27.1824C35.8526 26.9262 35.7552 26.6756 35.6462 26.4311C35.3119 25.6811 35.3944 24.7326 36.0365 24.0905C36.2583 23.8685 36.2584 23.5085 36.0365 23.2866L34.7603 22.011C34.5675 21.8182 34.2551 21.8182 34.0623 22.011C33.4227 22.6506 32.471 22.7128 31.7395 22.3466C31.4346 22.1941 31.1193 22.0596 30.7947 21.9447C30.0396 21.6772 29.4337 20.9704 29.4337 20.0853ZM30.8337 20.0853C30.8337 20.2955 30.9844 20.5264 31.2616 20.6247C31.6411 20.7591 32.0101 20.916 32.3663 21.0943C32.6381 21.2303 32.9186 21.175 33.0725 21.0211C33.812 20.2816 35.0106 20.2816 35.7501 21.0211L37.0264 22.2967C37.7951 23.0655 37.7951 24.3123 37.0264 25.081C36.8541 25.2533 36.7906 25.559 36.9252 25.861C37.0525 26.1467 37.1664 26.4399 37.2663 26.7394C37.3786 27.0757 37.6567 27.2665 37.9171 27.2665C39.0122 27.2665 39.9 28.1544 39.9002 29.2496V30.841C39.9002 31.9964 38.9632 32.9334 37.8077 32.9334C37.5113 32.9336 37.2013 33.1401 37.0544 33.5022C36.9811 33.683 36.9022 33.8609 36.8186 34.0361C36.6399 34.4103 36.7095 34.8027 36.9313 35.0246C37.7523 35.8457 37.7523 37.1764 36.9313 37.9975L35.9538 38.9757C35.1019 39.8275 33.7206 39.8275 32.8687 38.9757C32.6294 38.7364 32.2152 38.6573 31.8105 38.8288C31.7079 38.8723 31.6039 38.9138 31.4995 38.9539C31.0799 39.1149 30.8338 39.4706 30.8337 39.8159C30.8337 41.022 29.8557 42 28.6496 42H27.3508C26.1447 42 25.1667 41.022 25.1667 39.8159C25.1666 39.4706 24.9205 39.1149 24.5009 38.9539C24.3964 38.9138 24.2925 38.8723 24.1898 38.8288C23.7852 38.6573 23.371 38.7364 23.1316 38.9757C22.2798 39.8275 20.8985 39.8275 20.0466 38.9757L19.069 37.9975C18.2481 37.1764 18.248 35.8457 19.069 35.0246C19.2909 34.8027 19.3605 34.4103 19.1818 34.0361C19.0982 33.8609 19.0193 33.683 18.946 33.5022C18.7991 33.1401 18.4891 32.9336 18.1927 32.9334C17.0372 32.9334 16.1002 31.9964 16.1002 30.841V29.2496C16.1003 28.1544 16.9881 27.2665 18.0833 27.2665C18.3437 27.2665 18.6218 27.0757 18.7341 26.7394C18.834 26.4399 18.9478 26.1467 19.0752 25.861C19.2098 25.559 19.1463 25.2533 18.974 25.081C18.2053 24.3123 18.2053 23.0655 18.974 22.2967L20.2503 21.0211C20.9898 20.2816 22.1884 20.2816 22.9279 21.0211C23.0818 21.175 23.3623 21.2303 23.6341 21.0943C23.9903 20.916 24.3593 20.7591 24.7388 20.6247C25.016 20.5264 25.1667 20.2955 25.1667 20.0853C25.1668 19.0441 26.0109 18.2001 27.0521 18.2H28.9483C29.9895 18.2001 30.8336 19.0441 30.8337 20.0853Z" fill="#000091"/>
    <path d="M27.3002 16.1C27.3002 14.5536 28.5538 13.3 30.1002 13.3H37.1002C37.4868 13.3 37.8002 12.9866 37.8002 12.6V11.2C37.8002 10.8134 38.1136 10.5 38.5002 10.5C38.8868 10.5 39.2002 10.8134 39.2002 11.2V12.6C39.2002 13.7597 38.26 14.7 37.1002 14.7H30.1002C29.327 14.7 28.7002 15.3268 28.7002 16.1C28.7002 16.4866 28.3868 16.8 28.0002 16.8C27.6136 16.8 27.3002 16.4866 27.3002 16.1Z" fill="#000091"/>
    <path d="M28.7002 16.1C28.7002 14.5536 27.4466 13.3 25.9002 13.3H18.9002C18.5136 13.3 18.2002 12.9866 18.2002 12.6V11.2C18.2002 10.8134 17.8868 10.5 17.5002 10.5C17.1136 10.5 16.8002 10.8134 16.8002 11.2V12.6C16.8002 13.7597 17.7404 14.7 18.9002 14.7H25.9002C26.6734 14.7 27.3002 15.3268 27.3002 16.1C27.3002 16.4866 27.6136 16.8 28.0002 16.8C28.3868 16.8 28.7002 16.4866 28.7002 16.1Z" fill="#000091"/>
    <path d="M29.4002 6.99995C29.4002 7.77315 28.7734 8.39995 28.0002 8.39995C27.227 8.39995 26.6002 7.77315 26.6002 6.99995C26.6002 6.22675 27.227 5.59995 28.0002 5.59995C28.7734 5.59995 29.4002 6.22675 29.4002 6.99995ZM30.8002 6.99995C30.8002 5.45355 29.5466 4.19995 28.0002 4.19995C26.4538 4.19995 25.2002 5.45355 25.2002 6.99995C25.2002 8.54635 26.4538 9.79995 28.0002 9.79995C29.5466 9.79995 30.8002 8.54635 30.8002 6.99995Z" fill="#000091"/>
    <path d="M39.9002 9.09995C39.9002 9.87315 39.2734 10.5 38.5002 10.5C37.727 10.5 37.1002 9.87315 37.1002 9.09995C37.1002 8.32675 37.727 7.69995 38.5002 7.69995C39.2734 7.69995 39.9002 8.32675 39.9002 9.09995ZM41.3002 9.09995C41.3002 7.55355 40.0466 6.29995 38.5002 6.29995C36.9538 6.29995 35.7002 7.55355 35.7002 9.09995C35.7002 10.6463 36.9538 11.9 38.5002 11.9C40.0466 11.9 41.3002 10.6463 41.3002 9.09995Z" fill="#000091"/>
    <path d="M16.1002 9.09995C16.1002 9.87315 16.727 10.5 17.5002 10.5C18.2734 10.5 18.9002 9.87315 18.9002 9.09995C18.9002 8.32675 18.2734 7.69995 17.5002 7.69995C16.727 7.69995 16.1002 8.32675 16.1002 9.09995ZM14.7002 9.09995C14.7002 7.55355 15.9538 6.29995 17.5002 6.29995C19.0466 6.29995 20.3002 7.55355 20.3002 9.09995C20.3002 10.6463 19.0466 11.9 17.5002 11.9C15.9538 11.9 14.7002 10.6463 14.7002 9.09995Z" fill="#000091"/>
    <path d="M26.6002 49C26.6002 48.2268 27.227 47.5999 28.0002 47.5999C28.7734 47.5999 29.4002 48.2268 29.4002 49C29.4002 49.7731 28.7734 50.4 28.0002 50.4C27.227 50.4 26.6002 49.7731 26.6002 49ZM25.2002 49C25.2002 50.5463 26.4538 51.7999 28.0002 51.7999C29.5466 51.7999 30.8002 50.5463 30.8002 49C30.8002 47.4536 29.5466 46.2 28.0002 46.2C26.4538 46.2 25.2002 47.4536 25.2002 49Z" fill="#000091"/>
</svg>
