<svg width="56" height="56" viewBox="0 0 56 56" fill="none" xmlns="http://www.w3.org/2000/svg">
    <path fill-rule="evenodd" clip-rule="evenodd" d="M5.60039 16.1C5.21441 16.1 4.90039 15.7859 4.90039 15.4C4.90039 15.0139 5.21441 14.7 5.60039 14.7C5.98637 14.7 6.30039 15.0139 6.30039 15.4C6.30039 15.7859 5.98637 16.1 5.60039 16.1Z" fill="#ECECFE"/>
    <path fill-rule="evenodd" clip-rule="evenodd" d="M11.2004 49.7C10.8144 49.7 10.5004 49.3859 10.5004 49C10.5004 48.6139 10.8144 48.2999 11.2004 48.2999C11.5864 48.2999 11.9004 48.6139 11.9004 49C11.9004 49.3859 11.5864 49.7 11.2004 49.7Z" fill="#ECECFE"/>
    <path fill-rule="evenodd" clip-rule="evenodd" d="M51.1004 40.5999C50.7144 40.5999 50.4004 40.2859 50.4004 39.9C50.4004 39.5139 50.7144 39.2 51.1004 39.2C51.4864 39.2 51.8004 39.5139 51.8004 39.9C51.8004 40.2859 51.4864 40.5999 51.1004 40.5999Z" fill="#ECECFE"/>
    <path fill-rule="evenodd" clip-rule="evenodd" d="M49.0004 5.59995C48.6144 5.59995 48.3004 5.28593 48.3004 4.89995C48.3004 4.51394 48.6144 4.19995 49.0004 4.19995C49.3864 4.19995 49.7004 4.51394 49.7004 4.89995C49.7004 5.28593 49.3864 5.59995 49.0004 5.59995Z" fill="#ECECFE"/>
    <path d="M30.0997 27.3C30.0997 26.1402 29.1595 25.2 27.9997 25.2C26.8399 25.2 25.8997 26.1402 25.8997 27.3C25.8997 27.6866 25.5863 28 25.1997 28C24.8131 28 24.4997 27.6866 24.4997 27.3C24.4997 25.367 26.0667 23.8 27.9997 23.8C29.9327 23.8 31.4997 25.367 31.4997 27.3C31.4997 29.233 29.9327 30.8 27.9997 30.8C27.6131 30.8 27.2997 30.4866 27.2997 30.1C27.2997 29.7134 27.6131 29.4 27.9997 29.4C29.1595 29.4 30.0997 28.4598 30.0997 27.3Z" fill="#E1000F"/>
    <path d="M15.1606 36.5353C15.4723 36.3069 15.9102 36.3742 16.1389 36.6857C18.8151 40.3337 23.1313 42.7 27.9999 42.7C28.3864 42.7001 28.6999 43.0135 28.6999 43.4C28.6999 43.7865 28.3864 44.0999 27.9999 44.1C22.6667 44.1 17.9389 41.5062 15.0102 37.5142C14.7816 37.2025 14.8489 36.764 15.1606 36.5353ZM13.1727 32.2362C13.5392 32.1133 13.9364 32.3107 14.0594 32.6771C14.2516 33.2503 14.4783 33.8079 14.7368 34.3471C14.904 34.6957 14.7566 35.1138 14.408 35.2809C14.0594 35.448 13.6414 35.3013 13.4742 34.9528C13.1909 34.362 12.9425 33.751 12.7318 33.1228C12.6089 32.7564 12.8063 32.3592 13.1727 32.2362Z" fill="#E1000F"/>
    <path d="M35.403 8.32957C35.5513 7.97257 35.9613 7.80325 36.3183 7.95154C39.3913 9.22801 42.107 11.1899 44.2747 13.6459C44.5305 13.9357 44.5029 14.3785 44.2131 14.6344C43.9233 14.8902 43.4805 14.8626 43.2247 14.5728C41.1956 12.274 38.6547 10.4386 35.781 9.2449C35.424 9.09659 35.2547 8.68658 35.403 8.32957Z" fill="#E1000F"/>
    <path d="M15.3996 18.2C15.7862 18.2 16.0996 18.5134 16.0996 18.9C16.0996 19.2866 15.7862 19.6 15.3996 19.6H9.79961C9.41301 19.6 9.09961 19.2866 9.09961 18.9C9.09961 18.5134 9.41301 18.2 9.79961 18.2H15.3996Z" fill="#000091"/>
    <path d="M9.09961 28C9.09961 27.6134 9.41301 27.3 9.79961 27.3C10.1862 27.3 10.4996 27.6134 10.4996 28C10.4996 37.665 18.3346 45.5 27.9996 45.5C37.6646 45.5 45.4996 37.665 45.4996 28C45.4996 18.335 37.6646 10.5 27.9996 10.5H9.79961C9.41301 10.5 9.09961 10.1866 9.09961 9.8C9.09961 9.4134 9.41301 9.1 9.79961 9.1H27.9996C38.4378 9.1 46.8996 17.5618 46.8996 28C46.8996 38.4382 38.4378 46.9 27.9996 46.9C17.5614 46.9 9.09961 38.4382 9.09961 28Z" fill="#000091"/>
    <path d="M12.1047 6.50507C12.3781 6.23171 12.8212 6.23171 13.0945 6.50507C13.3679 6.77844 13.3679 7.22155 13.0945 7.49492L10.7895 9.8L13.0945 12.1051C13.3679 12.3784 13.3679 12.8216 13.0945 13.0949C12.8212 13.3683 12.3781 13.3683 12.1047 13.0949L9.30469 10.2949C9.03132 10.0216 9.03132 9.57844 9.30469 9.30507L12.1047 6.50507Z" fill="#000091"/>
    <path d="M12.1047 15.6051C12.3781 15.3317 12.8212 15.3317 13.0945 15.6051C13.3679 15.8784 13.3679 16.3216 13.0945 16.5949L10.7895 18.9L13.0945 21.2051C13.3679 21.4784 13.3679 21.9216 13.0945 22.1949C12.8212 22.4683 12.3781 22.4683 12.1047 22.1949L9.30469 19.3949C9.03132 19.1216 9.03132 18.6784 9.30469 18.4051L12.1047 15.6051Z" fill="#000091"/>
    <path d="M29.1665 18.537C29.1663 18.3509 29.015 18.2 28.8288 18.2H27.1704C26.9842 18.2 26.8329 18.3509 26.8327 18.537C26.8327 19.3536 26.2743 20.0021 25.5838 20.2467C25.3032 20.3461 25.0304 20.462 24.7669 20.5939C24.0981 20.9287 23.2234 20.8742 22.6334 20.2843C22.4989 20.1497 22.2805 20.1497 22.146 20.2843L21.0297 21.4006C20.8697 21.5607 20.8697 21.8202 21.0297 21.9803C21.6209 22.5715 21.6942 23.4412 21.3893 24.1254C21.295 24.3368 21.2102 24.5533 21.1363 24.7748C20.8881 25.5186 20.201 26.1329 19.3228 26.1331C19.0892 26.1331 18.8996 26.3227 18.8996 26.5562V27.9487C18.8997 28.2348 19.1317 28.4669 19.4178 28.4669C20.2974 28.4669 20.9984 29.0559 21.2936 29.7835C21.3478 29.9172 21.406 30.049 21.4679 30.1786C21.8218 30.9198 21.7652 31.8848 21.1131 32.537C20.9072 32.7429 20.9072 33.0769 21.1131 33.2828L21.9683 34.138C22.2011 34.3708 22.579 34.3708 22.8118 34.138C23.4642 33.4857 24.4221 33.4085 25.1784 33.7292C25.2544 33.7614 25.3309 33.7925 25.4081 33.8222C26.1884 34.1217 26.8327 34.8619 26.8327 35.8019C26.8328 36.1322 27.1011 36.4 27.4315 36.4H28.5677C28.8981 36.4 29.1664 36.1322 29.1665 35.8019C29.1665 34.8619 29.8109 34.1217 30.5911 33.8222C30.6683 33.7925 30.7449 33.7614 30.8208 33.7292C31.5771 33.4085 32.535 33.4857 33.1874 34.138C33.4203 34.3708 33.7981 34.3708 34.031 34.138L34.8861 33.2828C35.0921 33.0769 35.0921 32.7429 34.8861 32.537C34.234 31.8848 34.1775 30.9198 34.5313 30.1786C34.5932 30.049 34.6514 29.9172 34.7057 29.7835C35.0008 29.0559 35.7019 28.4669 36.5814 28.4669C36.8675 28.4669 37.0995 28.2348 37.0996 27.9487V26.5562C37.0996 26.3227 36.91 26.1331 36.6765 26.1331C35.7982 26.1329 35.1111 25.5186 34.8629 24.7748C34.789 24.5533 34.7042 24.3368 34.61 24.1254C34.305 23.4412 34.3783 22.5715 34.9695 21.9803C35.1296 21.8202 35.1295 21.5607 34.9695 21.4006L33.8532 20.2843C33.7187 20.1497 33.5004 20.1497 33.3658 20.2843C32.7758 20.8742 31.9012 20.9287 31.2323 20.5939C30.9688 20.462 30.696 20.3461 30.4154 20.2467C29.7249 20.0021 29.1665 19.3536 29.1665 18.537ZM30.5665 18.537C30.5665 18.6788 30.6701 18.8513 30.883 18.9267C31.2184 19.0455 31.5444 19.1847 31.8592 19.3423C32.0682 19.4468 32.2718 19.3979 32.376 19.2937C33.0573 18.6127 34.1619 18.6126 34.8431 19.2937L35.9594 20.4107C36.666 21.1176 36.6661 22.2634 35.9594 22.9701C35.838 23.0915 35.7836 23.319 35.889 23.5553C36.0015 23.8079 36.1021 24.0671 36.1904 24.3318C36.2786 24.596 36.492 24.7329 36.6765 24.7331C37.6832 24.7331 38.4996 25.5495 38.4996 26.5562V27.9487C38.4995 29.008 37.6407 29.8669 36.5814 29.8669C36.3633 29.8669 36.1206 30.0203 36.0031 30.3099C35.9383 30.4698 35.8686 30.6273 35.7946 30.7822C35.6515 31.082 35.7131 31.3836 35.8767 31.5472C36.629 32.2998 36.6291 33.5201 35.8767 34.2727L35.0208 35.1278C34.2412 35.9074 32.9772 35.9074 32.1976 35.1278C32.0176 34.948 31.6949 34.8797 31.3677 35.0185C31.2769 35.0569 31.1852 35.0937 31.0929 35.1292C30.7532 35.2596 30.5665 35.5422 30.5665 35.8019C30.5664 36.9054 29.6713 37.8 28.5677 37.8H27.4315C26.3279 37.8 25.4328 36.9054 25.4327 35.8019C25.4327 35.5422 25.246 35.2596 24.9063 35.1292C24.814 35.0937 24.7223 35.0569 24.6315 35.0185C24.3044 34.8797 23.9816 34.948 23.8017 35.1278C23.0221 35.9074 21.758 35.9074 20.9784 35.1278L20.1226 34.2727C19.3701 33.5201 19.3702 32.2998 20.1226 31.5472C20.2861 31.3836 20.3477 31.082 20.2046 30.7822C20.1306 30.6273 20.0609 30.4698 19.9961 30.3099C19.8786 30.0203 19.6359 29.8669 19.4178 29.8669C18.3585 29.8669 17.4997 29.008 17.4996 27.9487V26.5562C17.4996 25.5495 18.316 24.7331 19.3228 24.7331C19.5072 24.7329 19.7206 24.596 19.8088 24.3318C19.8971 24.0671 19.9977 23.8079 20.1103 23.5553C20.2156 23.319 20.1613 23.0915 20.0398 22.9701C19.3331 22.2634 19.3332 21.1176 20.0398 20.4107L21.1562 19.2937C21.8373 18.6126 22.942 18.6127 23.6232 19.2937C23.7274 19.3979 23.931 19.4468 24.14 19.3423C24.4548 19.1847 24.7808 19.0455 25.1162 18.9267C25.3291 18.8513 25.4327 18.6788 25.4327 18.537C25.4329 17.5777 26.211 16.8 27.1704 16.8H28.8288C29.7882 16.8 30.5663 17.5777 30.5665 18.537Z" fill="#000091"/>
</svg>
