<svg width="80" height="80" viewBox="0 0 80 80" fill="none" xmlns="http://www.w3.org/2000/svg">
    <path fill-rule="evenodd" clip-rule="evenodd" d="M6 34C6.55 34 7 33.55 7 33C7 32.45 6.55 32 6 32C5.45 32 5 32.45 5 33C5 33.55 5.45 34 6 34Z" fill="#ECECFE"/>
    <path fill-rule="evenodd" clip-rule="evenodd" d="M46 6C46.55 6 47 5.55 47 5C47 4.45 46.55 4 46 4C45.45 4 45 4.45 45 5C45 5.55 45.45 6 46 6Z" fill="#ECECFE"/>
    <path fill-rule="evenodd" clip-rule="evenodd" d="M66 62C66.55 62 67 61.55 67 61C67 60.45 66.55 60 66 60C65.45 60 65 60.45 65 61C65 61.55 65.45 62 66 62Z" fill="#ECECFE"/>
    <path fill-rule="evenodd" clip-rule="evenodd" d="M74 30C74.55 30 75 29.55 75 29C75 28.45 74.55 28 74 28C73.45 28 73 28.45 73 29C73 29.55 73.45 30 74 30Z" fill="#ECECFE"/>
    <path fill-rule="evenodd" clip-rule="evenodd" d="M36 73C36.55 73 37 72.55 37 72C37 71.45 36.55 71 36 71C35.45 71 35 71.45 35 72C35 72.55 35.45 73 36 73Z" fill="#ECECFE"/>
    <path fill-rule="evenodd" clip-rule="evenodd" d="M39.481 26.6079C33.5938 26.6079 28.824 31.3777 28.824 37.2649C28.824 37.6526 28.8483 38.054 28.8897 38.4434C28.8911 38.4566 28.8923 38.4697 28.8931 38.4827C29.4956 43.7895 34.0061 47.9219 39.481 47.9219C45.3682 47.9219 50.138 43.1521 50.138 37.2649C50.138 31.3777 45.3682 26.6079 39.481 26.6079ZM26.8972 38.6192C26.8982 38.6353 26.8996 38.6515 26.9014 38.6677C27.5988 44.9927 32.9628 49.9219 39.481 49.9219C46.4728 49.9219 52.138 44.2567 52.138 37.2649C52.138 30.2732 46.4728 24.6079 39.481 24.6079C32.4893 24.6079 26.824 30.2732 26.824 37.2649C26.824 37.721 26.8517 38.181 26.8972 38.6192Z" fill="#E1000F"/>
    <path fill-rule="evenodd" clip-rule="evenodd" d="M39.481 49.9219C30.3827 49.9219 23 57.2965 23 66.403C23 66.9553 22.5523 67.403 22 67.403C21.4477 67.403 21 66.9553 21 66.403C21 56.1912 29.2788 47.9219 39.481 47.9219C49.6836 47.9219 57.9622 56.2005 57.9622 66.403C57.9622 66.9553 57.5144 67.403 56.9622 67.403C56.4099 67.403 55.9622 66.9553 55.9622 66.403C55.9622 57.3051 48.579 49.9219 39.481 49.9219Z" fill="#E1000F"/>
    <path d="M56.8751 22C57.9797 22 58.8751 21.1046 58.8751 20C58.8751 18.8954 57.9797 18 56.8751 18C55.7705 18 54.8751 18.8954 54.8751 20C54.8751 21.1046 55.7705 22 56.8751 22Z" fill="#E1000F"/>
    <path fill-rule="evenodd" clip-rule="evenodd" d="M64.0446 34.2884C64.5969 34.2929 65.0409 34.7442 65.0364 35.2965L64.9651 44.0906C64.9606 44.6428 64.5093 45.0869 63.957 45.0824C63.4048 45.0779 62.9607 44.6266 62.9652 44.0743L63.0365 35.2803C63.041 34.728 63.4923 34.2839 64.0446 34.2884Z" fill="#000091"/>
    <path fill-rule="evenodd" clip-rule="evenodd" d="M14.5775 12.2941C14.7665 12.1044 15.0238 11.9985 15.2916 12L64.2029 12.2854C64.4684 12.287 64.7224 12.3941 64.9089 12.5831C65.0954 12.7721 65.1991 13.0275 65.1971 13.293L65.0633 30.89C65.0591 31.4423 64.608 31.8866 64.0557 31.8824C63.5034 31.8782 63.0591 31.4271 63.0633 30.8748L63.1895 14.2795L16.295 14.0059L16.5711 44.0732C16.5762 44.6255 16.1326 45.0773 15.5803 45.0824C15.0281 45.0875 14.5763 44.6439 14.5712 44.0916L14.2858 13.0092C14.2833 12.7414 14.3884 12.4838 14.5775 12.2941Z" fill="#000091"/>
    <path fill-rule="evenodd" clip-rule="evenodd" d="M14.8546 43.3848C15.0429 43.1915 15.3013 43.0824 15.5711 43.0824H24.3652C24.9174 43.0824 25.3652 43.5301 25.3652 44.0824C25.3652 44.6347 24.9174 45.0824 24.3652 45.0824H15.9932L9.36939 51.8854H19.103C19.6553 51.8854 20.103 52.3331 20.103 52.8854C20.103 53.4377 19.6553 53.8854 19.103 53.8854H7.00003C6.59799 53.8854 6.23505 53.6446 6.07872 53.2742C5.92239 52.9038 6.00308 52.4758 6.28355 52.1878L14.8546 43.3848Z" fill="#000091"/>
    <path d="M19.9949 52.8854C19.9949 53.378 19.5956 53.7773 19.103 53.7773C18.6104 53.7773 18.2111 53.378 18.2111 52.8854C18.2111 52.3929 18.6104 51.9935 19.103 51.9935C19.5956 51.9935 19.9949 52.3929 19.9949 52.8854Z" fill="#000091"/>
    <path d="M19.9949 52.8854C19.9949 53.378 19.5956 53.7773 19.103 53.7773C18.6104 53.7773 18.2111 53.378 18.2111 52.8854C18.2111 52.3929 18.6104 51.9935 19.103 51.9935C19.5956 51.9935 19.9949 52.3929 19.9949 52.8854Z" fill="#000091"/>
    <path d="M19.9949 52.8854C19.9949 53.378 19.5956 53.7773 19.103 53.7773C18.6104 53.7773 18.2111 53.378 18.2111 52.8854C18.2111 52.3929 18.6104 51.9935 19.103 51.9935C19.5956 51.9935 19.9949 52.3929 19.9949 52.8854Z" fill="#000091"/>
    <path d="M19.9949 52.8854C19.9949 53.378 19.5956 53.7773 19.103 53.7773C18.6104 53.7773 18.2111 53.378 18.2111 52.8854C18.2111 52.3929 18.6104 51.9935 19.103 51.9935C19.5956 51.9935 19.9949 52.3929 19.9949 52.8854Z" fill="#000091"/>
    <path d="M19.9949 52.8854C19.9949 53.378 19.5956 53.7773 19.103 53.7773C18.6104 53.7773 18.2111 53.378 18.2111 52.8854C18.2111 52.3929 18.6104 51.9935 19.103 51.9935C19.5956 51.9935 19.9949 52.3929 19.9949 52.8854Z" fill="#000091"/>
    <path fill-rule="evenodd" clip-rule="evenodd" d="M22.5 52.8854C22.5 52.3331 22.9477 51.8854 23.5 51.8854H24.5971C25.1493 51.8854 25.5971 52.3331 25.5971 52.8854C25.5971 53.4376 25.1493 53.8854 24.5971 53.8854H23.5C22.9477 53.8854 22.5 53.4376 22.5 52.8854Z" fill="#000091"/>
    <path fill-rule="evenodd" clip-rule="evenodd" d="M54.1711 44.0824C54.1711 43.5301 54.6188 43.0824 55.1711 43.0824H63.9652C64.2259 43.0824 64.4763 43.1842 64.663 43.3662L73.6979 52.1691C73.9893 52.453 74.0796 52.8852 73.9264 53.262C73.7731 53.6389 73.4069 53.8854 73 53.8854H55.403C54.8507 53.8854 54.403 53.4377 54.403 52.8854C54.403 52.3331 54.8507 51.8854 55.403 51.8854H70.5407L63.5585 45.0824H55.1711C54.6188 45.0824 54.1711 44.6347 54.1711 44.0824Z" fill="#000091"/>
    <path fill-rule="evenodd" clip-rule="evenodd" d="M19.2001 17.6824C19.2001 17.1301 19.6478 16.6824 20.2001 16.6824H46.6001C47.1523 16.6824 47.6001 17.1301 47.6001 17.6824C47.6001 18.2347 47.1523 18.6824 46.6001 18.6824H20.2001C19.6478 18.6824 19.2001 18.2347 19.2001 17.6824Z" fill="#000091"/>
    <path fill-rule="evenodd" clip-rule="evenodd" d="M19.2001 22.0884C19.2001 21.5361 19.6478 21.0884 20.2001 21.0884H29.003C29.5553 21.0884 30.003 21.5361 30.003 22.0884C30.003 22.6407 29.5553 23.0884 29.003 23.0884H20.2001C19.6478 23.0884 19.2001 22.6407 19.2001 22.0884Z" fill="#000091"/>
    <path fill-rule="evenodd" clip-rule="evenodd" d="M19.2001 26.4854C19.2001 25.9331 19.6478 25.4854 20.2001 25.4854H24.5971C25.1494 25.4854 25.5971 25.9331 25.5971 26.4854C25.5971 27.0377 25.1494 27.4854 24.5971 27.4854H20.2001C19.6478 27.4854 19.2001 27.0377 19.2001 26.4854Z" fill="#000091"/>
</svg>
