<svg width="284" height="121" viewBox="0 0 284 121" fill="none" xmlns="http://www.w3.org/2000/svg">
<path d="M29.1682 36.7671H0V47.354H29.1682V36.7671Z" fill="white"/>
<path d="M9.42295 46.0753C9.4496 46.0576 9.47626 46.0309 9.50291 45.9954C9.50291 45.9954 9.50291 45.9954 9.49402 45.9954C9.46737 46.022 9.44072 46.0487 9.41406 46.0842L9.42295 46.0753Z" fill="#000091"/>
<path d="M13.3212 44.7601L13.2588 44.8136C13.2588 44.8136 13.3212 44.7958 13.3212 44.7601Z" fill="#000091"/>
<path fill-rule="evenodd" clip-rule="evenodd" d="M12.0562 46.1012C12.1711 45.9865 12.286 45.8718 12.392 45.7394C12.6042 45.5012 12.8075 45.2719 13.055 45.0601C13.1345 44.9895 13.2052 44.9366 13.2671 44.8837C13.2759 44.8748 13.2848 44.8572 13.2848 44.8396C13.2848 44.8219 13.2936 44.8131 13.3024 44.8043C13.2494 44.8219 13.2141 44.8484 13.1787 44.8837C13.1345 44.9101 13.0992 44.9454 13.0461 44.9631C13.0284 44.9631 13.0019 44.9454 13.0284 44.919C13.0992 44.866 13.1699 44.8131 13.2406 44.7602H13.2229C13.2229 44.7602 13.2052 44.7425 13.2052 44.716C12.9489 44.6719 12.7544 44.8484 12.5777 45.0072H12.5688C12.5688 45.0072 12.5158 45.016 12.4981 45.0072C12.4893 45.0072 12.4804 44.9984 12.4716 44.9984C12.3125 45.0513 12.1799 45.1483 12.0473 45.2454C11.9236 45.3336 11.7998 45.4218 11.6584 45.4836V45.4395C11.6142 45.4571 11.5612 45.4748 11.517 45.5012C11.4463 45.5365 11.3756 45.563 11.3049 45.5806C11.1723 45.6159 11.0485 45.6071 10.9248 45.6071C10.8894 45.6071 10.8453 45.6071 10.8099 45.6071C10.5889 45.6247 10.3768 45.6777 10.1558 45.7218L10.0851 45.7394C10.0851 45.7394 10.0851 45.7394 10.0763 45.7394C10.0763 45.7394 10.0763 45.7394 10.0674 45.7394C9.93485 45.7747 9.81995 45.8188 9.6962 45.8894H9.67852C9.67852 45.8894 9.66969 45.9071 9.66085 45.9159C9.66085 45.9159 9.65201 45.9247 9.64317 45.9335C9.59898 45.9776 9.56362 46.0218 9.51059 46.057C9.4222 46.1012 9.35149 46.1629 9.28078 46.2335C9.24542 46.26 9.21891 46.2864 9.18355 46.3129C9.18355 46.3129 9.16587 46.3217 9.15703 46.3217C9.05097 46.4276 8.9449 46.5246 8.83884 46.6305C8.83884 46.6305 8.80348 46.6393 8.77696 46.6305V46.6129L8.83884 46.5335C8.84767 46.5158 8.85651 46.4982 8.86535 46.4893C8.87419 46.4717 8.88303 46.4541 8.89187 46.4452C8.91839 46.4011 8.9449 46.3658 8.98026 46.3217C8.98026 46.3129 8.98026 46.3041 8.98026 46.2953C8.98026 46.2953 8.96258 46.2864 8.95374 46.2864C9.05097 46.1894 9.16587 46.11 9.28962 46.0394C9.28962 46.0394 9.25426 46.0306 9.2631 46.0129C9.27194 46.0041 9.28078 45.9865 9.28962 45.9688V45.9512H9.29846L9.28078 45.9688C9.28078 45.9688 9.22775 46.0041 9.21007 46.0218C9.19239 46.0306 9.18355 46.0482 9.16587 46.0747C9.13052 46.1188 9.104 46.1541 9.05097 46.1541C9.05097 46.1541 9.03329 46.1541 9.02445 46.1541C9.01561 46.1541 9.00677 46.1541 9.00677 46.1541C9.00677 46.1541 9.00677 46.1364 9.01561 46.1276C9.01561 46.1276 9.02445 46.11 9.03329 46.1012C9.03329 46.1012 9.03329 46.0835 9.05097 46.0747C9.05097 46.0747 9.05097 46.057 9.06865 46.057C9.06865 46.057 9.06865 46.0482 9.07749 46.0394C9.07749 46.0394 9.07748 46.0306 9.08632 46.0218C9.09516 46.0041 9.08632 45.9865 9.06865 45.9865C9.104 45.9424 9.1482 45.8982 9.20123 45.863C9.24542 45.8365 9.29846 45.81 9.34265 45.7836C9.36917 45.7659 9.39568 45.7483 9.43104 45.7394C9.43988 45.7306 9.44872 45.7218 9.46639 45.713C9.35149 45.7483 9.25426 45.8012 9.1482 45.8718C9.1482 45.8718 9.12168 45.8806 9.11284 45.8894C9.11284 45.8894 9.09516 45.8894 9.06865 45.8718C9.06865 45.8718 9.06865 45.8718 9.06865 45.8541C9.07749 45.8277 9.104 45.81 9.13052 45.8012C9.1482 45.7924 9.16587 45.7747 9.18355 45.7571C9.20123 45.7571 9.21891 45.7571 9.21891 45.7747C9.61665 45.4659 10.1028 45.3954 10.5889 45.3248C10.8894 45.2807 11.19 45.2366 11.4728 45.1395C11.4993 45.1219 11.5347 45.0954 11.5612 45.0778C11.5877 45.0601 11.6231 45.0425 11.6496 45.016C11.7026 44.9984 11.7468 44.9631 11.791 44.919C11.8352 44.8837 11.8882 44.8396 11.9501 44.8131C12.1092 44.6896 12.2241 44.5572 12.286 44.3543C12.286 44.3367 12.2683 44.3102 12.2683 44.3102C12.012 44.5925 11.7115 44.8131 11.3933 44.9719C11.0927 45.1307 10.7657 45.1572 10.4387 45.1748C10.3149 45.1836 10.2 45.1925 10.0763 45.2101C10.094 45.166 10.1381 45.166 10.1735 45.166C10.1735 45.1131 10.2 45.0954 10.2265 45.0689C10.2265 45.0689 10.2442 45.0513 10.253 45.0425H10.3149C10.3149 45.0425 10.3326 45.0336 10.3326 45.0248C10.3326 45.016 10.3414 45.0072 10.3503 45.0072C10.3945 45.0072 10.4475 44.9895 10.4298 44.9895C10.3945 44.9454 10.3503 44.9631 10.3061 44.9895C10.2619 45.0072 10.2089 45.0248 10.1558 44.9895C10.1735 44.9719 10.1823 44.9454 10.1823 44.9278C10.1823 44.9013 10.1912 44.8837 10.2089 44.8748H10.2884L10.3326 44.7954C10.5094 44.6896 10.6862 44.5925 10.8541 44.5043C10.969 44.4425 11.0751 44.3808 11.19 44.319C11.1634 44.319 11.1458 44.3279 11.1281 44.3367C11.1016 44.3543 11.0662 44.3631 11.0309 44.3367C11.0485 44.3367 11.0485 44.319 11.0485 44.3102C11.0485 44.3014 11.0485 44.2837 11.0662 44.2837C11.1988 44.2485 11.3049 44.1955 11.4286 44.1338C11.5082 44.0897 11.5966 44.0544 11.6849 44.0191C11.6584 44.0191 11.6319 44.0191 11.6054 44.0367C11.5612 44.0544 11.517 44.0632 11.464 44.0191C11.4816 44.0191 11.4905 44.0014 11.4993 43.9926C11.517 43.975 11.5435 43.9573 11.5877 43.9573V43.8956C11.5877 43.8956 11.6054 43.8779 11.6319 43.8779C11.6142 43.8779 11.5877 43.8603 11.5877 43.8603C11.5966 43.8426 11.6231 43.8338 11.6407 43.825C11.6584 43.825 11.6849 43.8162 11.7026 43.7985C11.6849 43.7985 11.6407 43.7985 11.6407 43.7809C11.7026 43.7015 11.7998 43.6838 11.8971 43.6574C11.8882 43.6397 11.8706 43.6397 11.8529 43.6397C11.8352 43.6397 11.8175 43.6397 11.8175 43.6221C11.8175 43.6044 11.8352 43.6044 11.8617 43.6044H11.8175C11.8175 43.6044 11.791 43.5603 11.791 43.5427C11.791 43.5427 11.791 43.5338 11.791 43.525C11.8706 43.428 11.8971 43.3221 11.9236 43.2074C11.9324 43.1545 11.9501 43.1015 11.9678 43.0486C11.9501 43.0486 11.9236 43.0486 11.9236 43.031C11.7291 43.2427 11.4286 43.3221 11.1369 43.4015H11.1104H11.0132C10.916 43.4456 10.7745 43.4456 10.6773 43.3839C10.6331 43.3574 10.5978 43.3309 10.5624 43.2956C10.5359 43.2692 10.5094 43.2515 10.4829 43.2251C10.3238 43.128 10.1647 43.0486 9.98788 42.9869C9.49291 42.8281 8.97142 42.7486 8.45877 42.7663C8.60019 42.6869 8.75929 42.6516 8.90955 42.6251C8.9891 42.6075 9.06865 42.5898 9.1482 42.5722C9.20123 42.5546 9.24542 42.5457 9.29846 42.5281C9.5813 42.4399 9.8553 42.3605 10.1647 42.3781C10.1293 42.3605 10.0763 42.3693 10.0232 42.3781C10.0056 42.3781 9.97905 42.3781 9.96137 42.3781C9.73156 42.3605 9.50175 42.4134 9.2631 42.4663C9.21007 42.4752 9.15703 42.4928 9.11284 42.5016C9.01561 42.5193 8.92722 42.5457 8.83884 42.581C8.74161 42.6163 8.64438 42.6428 8.53832 42.6604C8.49412 42.6781 8.45877 42.7045 8.42341 42.731C8.36154 42.7751 8.30851 42.8104 8.22012 42.8016V42.7398C8.41457 42.5016 8.66206 42.2634 8.98026 42.2458C9.28962 42.1928 9.5813 42.2281 9.88182 42.2722C9.93485 42.2722 9.98788 42.2811 10.0321 42.2899C10.2796 42.3075 10.5094 42.3693 10.7657 42.4222H10.7922C10.8453 42.4222 10.8806 42.4752 10.9071 42.5193C10.9336 42.5546 10.9513 42.5898 10.9867 42.6075C11.0397 42.6251 11.0839 42.6251 11.1369 42.634C11.2076 42.634 11.2784 42.6428 11.3491 42.6869C11.3491 42.6692 11.3491 42.6604 11.3491 42.6428C11.3491 42.6163 11.3402 42.5898 11.3491 42.5634C11.3933 42.5193 11.4463 42.5281 11.4905 42.5457C11.5258 42.5546 11.57 42.5634 11.6054 42.5457C11.7115 42.4752 11.6054 42.3781 11.5082 42.2722C11.4551 42.2193 11.4109 42.1752 11.3844 42.1311C11.3844 42.1134 11.4021 42.087 11.4021 42.087C11.4463 42.1311 11.4905 42.1664 11.5347 42.2105C11.6407 42.3164 11.738 42.4134 11.8794 42.484C11.9766 42.5281 12.2153 42.581 12.1799 42.4663C12.1092 42.3075 11.9855 42.1752 11.8706 42.0429C11.8175 41.9899 11.7733 41.9282 11.7203 41.8752V41.7958C11.7203 41.7958 11.6849 41.787 11.6761 41.7694C11.6761 41.7694 11.6761 41.7605 11.6673 41.7517V41.6723C11.6142 41.6458 11.6054 41.6017 11.5966 41.5664C11.5966 41.54 11.5877 41.5223 11.57 41.4959C11.5347 41.4429 11.5347 41.3724 11.5347 41.3018C11.5347 41.2488 11.5347 41.1871 11.5082 41.1342C11.464 41.0106 11.4463 40.9136 11.4286 40.7901C11.4021 40.6666 11.3844 40.5519 11.3579 40.4372C11.3137 40.2343 11.2784 40.0402 11.2518 39.8373C11.2165 39.5461 11.3667 39.2991 11.517 39.0432C11.5612 38.9727 11.6054 38.8933 11.6496 38.8139C11.791 38.5757 11.9501 38.3375 12.2064 38.1786C12.2595 37.9404 12.4186 37.7464 12.5688 37.5523V37.5346C12.7279 37.3493 12.9843 37.2347 13.1699 37.1464H13.1875C13.4615 37.0141 13.7179 36.9347 13.7179 36.9347H0V47.5216H9.75807C10.0232 47.3363 10.2796 47.2128 10.5889 47.0716C10.7303 47.0099 10.8806 46.9393 11.0485 46.8511C11.0839 46.8334 11.1281 46.8158 11.1723 46.7893C11.4551 46.6481 11.8971 46.4364 12.065 46.2688L12.0562 46.1012ZM8.96258 44.6719C8.96258 44.6719 8.88303 44.6719 8.90071 44.6455C8.91839 44.5749 8.9891 44.5572 9.05981 44.5308C9.08632 44.5308 9.12168 44.5131 9.13936 44.5043H9.1482V44.4955C9.18355 44.4778 9.23658 44.4514 9.27194 44.4602C9.29846 44.4955 9.32497 44.5043 9.35149 44.5131C9.36917 44.5131 9.39568 44.5219 9.41336 44.5396C9.34265 44.6102 9.25426 44.619 9.16587 44.6278C9.104 44.6278 9.05097 44.6366 8.9891 44.6631C8.98026 44.6631 8.96258 44.6631 8.95374 44.6631L8.96258 44.6719ZM5.93086 44.1955L5.94854 44.2396C6.42583 43.7015 6.85894 43.2427 7.47766 42.8545C7.49533 42.8545 7.48649 42.8545 7.47766 42.8633C7.46882 42.881 7.45114 42.9075 7.49533 42.8898C7.69863 42.8457 7.78701 42.6692 7.88424 42.5016C7.91076 42.4575 7.92844 42.4134 7.95495 42.3693C8.05218 42.2193 8.18476 42.1223 8.31734 42.0252C8.41457 41.9546 8.5118 41.8841 8.59135 41.787C8.59135 41.8047 8.59135 41.8311 8.57367 41.8488C8.59135 41.8664 8.61787 41.8664 8.63554 41.8664C8.6709 41.8399 8.71509 41.8311 8.75045 41.8135C8.79464 41.7958 8.84767 41.787 8.87419 41.7429C8.71509 41.6811 8.5118 41.6635 8.36154 41.7253C7.94611 41.9282 7.58372 42.2458 7.24785 42.6075C7.04455 42.828 6.83242 43.031 6.56726 43.1721C6.39048 43.5338 6.18719 43.8514 5.93086 44.1867V44.1955ZM7.6014 42.9163C7.6014 42.9163 7.58372 42.9516 7.56604 42.9604C7.55721 42.9692 7.54837 42.978 7.53953 42.9957C7.52185 43.0398 7.49533 43.0574 7.45998 43.0751C7.4423 43.0751 7.41578 43.0751 7.41578 43.0574C7.43346 42.978 7.49533 42.8986 7.57488 42.881C7.59256 42.881 7.59256 42.9075 7.59256 42.9251L7.6014 42.9163ZM8.47644 45.9688C8.47644 45.9688 8.5118 45.9335 8.52064 45.9071C8.53832 45.863 8.43225 45.8806 8.41457 45.8894C8.39689 45.8982 8.38805 45.9159 8.37922 45.9335C8.37922 45.9335 8.3527 45.9688 8.33502 45.9865C8.32618 45.9953 8.30851 46.0041 8.29967 46.0218C8.25547 46.0659 8.20244 46.1188 8.14941 46.1629C8.11405 46.1894 8.22896 46.207 8.24663 46.1894C8.27315 46.1717 8.29967 46.1453 8.32618 46.1188C8.33502 46.1188 8.34386 46.1188 8.3527 46.1188C8.40573 46.1012 8.44993 46.057 8.49412 46.0218H8.50296C8.50296 46.0218 8.50296 45.9865 8.47644 45.9776V45.9688ZM8.16708 45.7394C8.14941 45.7571 8.12289 45.7659 8.10521 45.7836C8.05218 45.8188 7.99915 45.863 7.94611 45.8894C7.89308 45.9159 7.84005 45.9424 7.77818 45.9688C7.74282 45.9865 7.7163 45.9953 7.68095 46.0129C7.68095 46.0041 7.66327 45.9953 7.64559 46.0129C7.56604 46.057 7.50417 46.11 7.45114 46.1717C7.4423 46.1717 7.43346 46.1894 7.42462 46.1982L7.39811 46.2335C7.39811 46.2335 7.37159 46.26 7.35391 46.2864C7.35391 46.2864 7.35391 46.2864 7.34507 46.2953C7.34507 46.2953 7.33623 46.3041 7.32739 46.3129C7.30972 46.3129 7.2832 46.3129 7.2832 46.2953C7.2832 46.2953 7.25668 46.3041 7.24785 46.3129C7.24785 46.3129 7.23901 46.3129 7.23017 46.3129C7.23017 46.3129 7.22133 46.3129 7.21249 46.3129C7.21249 46.3129 7.20365 46.3129 7.19481 46.3129C7.18597 46.3129 7.18597 46.3129 7.17713 46.3129C7.17713 46.3129 7.15946 46.3305 7.15062 46.3305C7.13294 46.3394 7.11526 46.357 7.10642 46.3747C7.06223 46.4099 7.02687 46.4541 6.99152 46.4982V46.507C6.99152 46.507 6.99152 46.5246 6.97384 46.5335C6.97384 46.5335 6.965 46.5335 6.95616 46.5335C6.95616 46.5335 6.95616 46.5335 6.95616 46.5246C6.95616 46.5246 6.95616 46.5158 6.95616 46.507C6.95616 46.507 6.95616 46.4982 6.95616 46.4893L7.01804 46.4188C7.01804 46.4188 7.01804 46.4099 7.02687 46.4011C7.02687 46.4011 7.02687 46.4011 7.03571 46.3923C7.03571 46.3923 7.04455 46.3747 7.05339 46.3747C7.05339 46.3747 7.06223 46.357 7.07107 46.357C7.08875 46.3305 7.11526 46.3041 7.13294 46.2688C7.13294 46.2688 7.13294 46.26 7.13294 46.2511C7.14178 46.2335 7.15062 46.2247 7.15946 46.207L7.17713 46.1629C7.17713 46.1629 7.17713 46.1453 7.18597 46.1364C7.18597 46.1364 7.18597 46.1188 7.19481 46.11V46.0923C7.19481 46.0923 7.19481 46.0923 7.19481 46.0835C7.19481 46.0747 7.19481 46.0835 7.19481 46.0747V46.057C7.19481 46.057 7.19481 46.0482 7.19481 46.0394C7.19481 46.0394 7.19481 46.0306 7.19481 46.0218C7.21249 45.9865 7.23901 45.9512 7.27436 45.9159C7.25668 45.9247 7.24785 45.9424 7.23017 45.9512C7.22133 45.96 7.21249 45.9688 7.19481 45.9776C7.17713 45.9953 7.13294 45.9688 7.15946 45.9424C7.17713 45.9247 7.18597 45.9159 7.20365 45.8982C7.22133 45.8894 7.23017 45.8718 7.24785 45.8541C7.26552 45.8365 7.29204 45.81 7.30972 45.7924C7.33623 45.7747 7.35391 45.7571 7.37159 45.7483C7.37159 45.7483 7.37159 45.7483 7.38043 45.7483C7.39811 45.7306 7.40694 45.713 7.42462 45.6953C7.53953 45.5806 7.70746 45.5453 7.8754 45.5012C7.98147 45.4748 8.08753 45.4483 8.18476 45.4042C8.23779 45.3777 8.29967 45.3865 8.36154 45.4042C8.40573 45.4042 8.45877 45.4218 8.50296 45.4042C8.56483 45.4042 8.6267 45.4042 8.67974 45.4483C8.54715 45.5189 8.41457 45.5983 8.29083 45.6865C8.25547 45.713 8.22012 45.7306 8.17592 45.7571L8.16708 45.7394ZM8.60019 44.3455C8.60019 44.3455 8.57367 44.3455 8.58251 44.3543C8.64438 44.4161 8.75929 44.3896 8.83884 44.3543C8.90071 44.3102 8.96258 44.3102 9.03329 44.3102C9.05097 44.3102 9.05097 44.2749 9.05097 44.2485C9.11284 44.2661 9.1482 44.2661 9.21007 44.2661C9.68736 44.1691 10.147 44.0632 10.5801 43.8426C10.1381 43.4986 9.59014 43.3486 9.05097 43.1986C8.96258 43.1721 8.87419 43.1457 8.7858 43.128C8.80348 43.128 8.82116 43.128 8.84768 43.1368C8.88303 43.1457 8.92722 43.1633 8.97142 43.128C8.91839 43.0839 8.85651 43.0751 8.79464 43.0663C8.74161 43.0663 8.69741 43.0486 8.65322 43.0221C8.65322 43.0221 8.66206 43.0221 8.6709 43.0221C8.68858 43.0221 8.71509 43.031 8.73277 42.9957C8.6267 42.9427 8.52064 42.9251 8.42341 42.9075C8.37038 42.8986 8.31734 42.8898 8.26431 42.8722C8.36154 42.8545 8.42341 42.7751 8.42341 42.6692C8.42341 42.6516 8.37922 42.6516 8.36154 42.6516C8.12289 42.7751 7.96379 42.9957 7.86656 43.2515C7.95495 43.3045 8.05218 43.2956 8.14941 43.2956C8.20244 43.2956 8.25547 43.2956 8.30851 43.2956C8.26431 43.3397 8.20244 43.3486 8.14057 43.3574C8.11405 43.3574 8.09637 43.3574 8.06986 43.375C8.00799 43.3927 7.94611 43.4368 7.97263 43.4721C7.99031 43.4897 7.99915 43.4986 8.01682 43.4986C7.97263 43.5162 7.92844 43.5338 7.89308 43.5691C7.94611 43.6132 8.00799 43.6044 8.06102 43.5956C8.08753 43.5956 8.10521 43.5956 8.13173 43.5956C8.13173 43.6221 8.14941 43.6309 8.16708 43.6397C8.17592 43.6397 8.18476 43.6485 8.1936 43.6574C8.09637 43.6926 8.01682 43.7809 7.99915 43.8338C7.97263 43.8956 7.92844 43.9308 7.88424 43.9661C7.85773 43.9926 7.82237 44.0191 7.80469 44.0455V44.1073C7.74282 44.1691 7.67211 44.222 7.6014 44.2661C7.45998 44.372 7.32739 44.4778 7.22133 44.619C7.23901 44.619 7.23901 44.6366 7.23901 44.6631C7.22133 44.6896 7.19481 44.7072 7.1683 44.7337C7.14178 44.7513 7.10642 44.7778 7.09759 44.8043C7.09759 44.8219 7.09759 44.8484 7.11526 44.8484C7.23901 44.8043 7.35391 44.7337 7.45998 44.6719C7.5572 44.6102 7.65443 44.5484 7.75166 44.5131C7.84005 44.4955 7.91076 44.4514 7.98147 44.4161C8.04334 44.3808 8.10521 44.3543 8.16708 44.3367C8.22012 44.3279 8.27315 44.3102 8.32618 44.3014C8.37922 44.2837 8.43225 44.2749 8.48528 44.2661C8.48528 44.2837 8.48528 44.3102 8.50296 44.3102H8.66206C8.66206 44.3102 8.61786 44.3367 8.60019 44.3367V44.3455Z" fill="#000091"/>
<path d="M29.1678 36.7671H17.7657C17.7657 36.7671 17.7834 36.7671 17.8718 36.8112C17.969 36.8553 18.0839 36.9259 18.1546 36.9612C18.3049 37.0406 18.4463 37.1288 18.5347 37.2788C18.5789 37.3405 18.6319 37.4552 18.5966 37.5346C18.5524 37.6317 18.5347 37.7993 18.4375 37.8346C18.3137 37.8964 18.1546 37.8964 18.0132 37.8787C17.9337 37.8787 17.8541 37.8611 17.7746 37.8346C18.0751 37.9581 18.3579 38.0993 18.5612 38.3728C18.5789 38.4169 18.6584 38.4345 18.738 38.4345C18.7557 38.4345 18.7557 38.4786 18.7557 38.4963C18.7115 38.5404 18.6761 38.558 18.6938 38.6198H18.7557C18.8529 38.5757 18.8352 38.3816 18.9766 38.4433C19.0739 38.5051 19.1181 38.6463 19.0562 38.7433C18.9766 38.8227 18.8971 38.8845 18.8175 38.9462C18.7999 38.9903 18.7999 39.0433 18.8175 39.0874C18.8794 39.1668 18.8971 39.2462 18.9148 39.3256C18.9766 39.4667 18.9943 39.6255 19.0562 39.7667C19.1357 40.0667 19.2153 40.3666 19.1976 40.6666C19.1976 40.8254 19.1181 40.9665 19.1799 41.1254C19.2241 41.2842 19.3214 41.4077 19.4009 41.5488C19.4805 41.6723 19.56 41.7517 19.6219 41.8664C19.7456 42.0693 19.9666 42.2634 19.8605 42.5105C19.7987 42.6516 19.5777 42.634 19.4363 42.7134C19.3125 42.8104 19.4186 42.9781 19.4805 43.0751C19.5777 43.2515 19.3567 43.3751 19.2153 43.4368C19.2595 43.4986 19.339 43.4809 19.3567 43.5162C19.3744 43.6133 19.4805 43.675 19.4186 43.7809C19.339 43.9044 19.1004 43.9573 19.2153 44.1426C19.2948 44.2838 19.2418 44.4426 19.1976 44.5837C19.1357 44.7602 18.9766 44.8396 18.8352 44.8837C18.7115 44.9278 18.5701 44.9278 18.4551 44.9013C18.411 44.8837 18.3756 44.8572 18.3314 44.8572C17.9867 44.8131 17.6508 44.7161 17.3149 44.7161C17.2177 44.7337 17.1116 44.7514 17.0321 44.7955C16.9437 44.8572 16.8553 44.9366 16.7934 45.0072C16.7934 45.0072 16.7581 45.0425 16.7493 45.0601C16.7493 45.069 16.7316 45.0778 16.7227 45.0954C16.7227 45.0954 16.7139 45.1131 16.7051 45.1131C16.6432 45.1837 16.599 45.2631 16.546 45.3425C16.546 45.3425 16.546 45.3513 16.5371 45.3601C16.5371 45.3689 16.5283 45.3777 16.5194 45.3866C16.4576 45.5101 16.4045 45.6336 16.3692 45.7571C16.2278 46.2159 16.2896 46.6041 16.3869 46.7011C16.4134 46.7276 17.0498 46.9217 17.4917 47.1246C17.695 47.2216 17.8453 47.2834 17.9602 47.3628H29.159V36.7671H29.1678Z" fill="#E1000F"/>
<path d="M18.4379 40.6223C18.5175 40.64 18.6412 40.64 18.6412 40.6841C18.597 40.8429 18.3584 40.887 18.2435 41.0458H18.1816C18.1197 41.0899 18.1374 41.187 18.0844 41.187C18.0225 41.1693 17.9606 41.187 17.9076 41.2046C17.9871 41.284 18.0844 41.3458 18.2081 41.3281C18.2258 41.3281 18.27 41.3722 18.27 41.4075C18.27 41.4075 18.2877 41.4075 18.3142 41.3899C18.3319 41.3899 18.3584 41.3899 18.3584 41.4075V41.4869C18.2965 41.5663 18.1993 41.531 18.1197 41.5487C18.2788 41.5928 18.4379 41.5928 18.5793 41.5487C18.7031 41.5046 18.5793 41.3105 18.6589 41.2046C18.6147 41.2046 18.6589 41.1429 18.6147 41.1429C18.6589 41.0987 18.6943 41.0458 18.7384 41.0193C18.7826 41.0193 18.8357 41.0017 18.8622 40.9576C18.8622 40.9135 18.7826 40.8958 18.8003 40.8605C18.9241 40.7811 19.0213 40.6576 18.9771 40.5429C18.9594 40.4812 18.8003 40.4812 18.6942 40.4459C18.597 40.4106 18.4733 40.4459 18.3495 40.4635C18.2523 40.4635 18.1462 40.5253 18.049 40.5429C17.9076 40.587 17.7839 40.6664 17.6689 40.7458C17.8104 40.6841 17.9518 40.6664 18.1109 40.6223C18.2346 40.6223 18.3319 40.5959 18.4556 40.6223H18.4379Z" fill="#808080"/>
<path d="M4.50815 59.3877C5.20642 59.3877 5.8163 59.1406 6.24056 58.7436V57.4556H4.34905V56.1763H7.74316V59.2906C7.05373 60.2081 5.89584 60.8081 4.50815 60.8081C2.10398 60.8081 0.459961 59.0083 0.459961 56.8909C0.459961 54.7736 2.05979 52.9738 4.40208 52.9738C5.74558 52.9738 6.85044 53.5737 7.53103 54.4736L6.34663 55.3911C5.92236 54.7912 5.25061 54.3765 4.40208 54.3765C3.00555 54.3765 2.00676 55.4705 2.00676 56.8821C2.00676 58.2937 3.05858 59.3877 4.50815 59.3877ZM12.9669 52.965C15.3004 52.965 16.9002 54.7647 16.9002 56.8821C16.9002 58.9995 15.3004 60.7992 12.9669 60.7992C10.6335 60.7992 9.02479 58.9995 9.02479 56.8821C9.02479 54.7647 10.6246 52.965 12.9669 52.965ZM12.9669 59.3877C14.3546 59.3877 15.3534 58.2937 15.3534 56.8821C15.3534 55.4705 14.3546 54.3765 12.9669 54.3765C11.5792 54.3765 10.5716 55.4705 10.5716 56.8821C10.5716 58.2937 11.5704 59.3877 12.9669 59.3877ZM22.8841 57.8173V53.1767H24.3867V57.6849C24.3867 59.6347 23.2376 60.7992 21.3726 60.7992C19.5077 60.7992 18.3674 59.6347 18.3674 57.6849V53.1767H19.87V57.8173C19.87 58.8142 20.4357 59.3965 21.3726 59.3965C22.3096 59.3965 22.8664 58.8142 22.8664 57.8173H22.8841ZM25.4915 53.1767H27.0914L29.2834 58.9642L31.4754 53.1767H33.0753L30.2645 60.5875H28.2935L25.4827 53.1767H25.4915ZM34.3923 60.5875V53.1767H38.7233V54.4295H35.9037V56.1851H38.299V57.4379H35.9037V59.3436H38.7233V60.5963H34.3923V60.5875ZM40.6236 60.5875V53.1767H42.8952C44.5304 53.1767 45.538 54.0148 45.538 55.3911C45.538 56.291 45.1049 56.9615 44.3359 57.3056L46.6606 60.5875H44.8928L42.9129 57.5879H42.1351V60.5875H40.6325H40.6236ZM42.9836 54.4295H42.1351V56.3439H42.9836C43.62 56.3439 43.9912 55.9734 43.9912 55.3735C43.9912 54.8088 43.62 54.4295 42.9836 54.4295ZM47.7742 60.5875V53.1767H49.7011L53.0245 58.5319V53.1767H54.5271V60.5875H52.6003L49.2768 55.2323V60.5875H47.7742ZM56.7633 60.5875V53.1767H61.0944V54.4295H58.2748V56.1851H60.6701V57.4379H58.2748V59.3436H61.0944V60.5963H56.7633V60.5875ZM63.0036 60.5875V53.1767H64.8774L66.6894 56.291L68.5013 53.1767H70.3752V60.5875H68.8726V55.2764L67.2197 58.0467H66.159L64.5062 55.2764V60.5875H63.0036ZM72.6114 60.5875V53.1767H76.9424V54.4295H74.1228V56.1851H76.5181V57.4379H74.1228V59.3436H76.9424V60.5963H72.6114V60.5875ZM78.8516 60.5875V53.1767H80.7785L84.1019 58.5319V53.1767H85.6045V60.5875H83.6776L80.3542 55.2323V60.5875H78.8516ZM87.0806 54.5442V53.1767H93.1705V54.5442H90.8812V60.5875H89.3786V54.5442H87.0894H87.0806Z" fill="black"/>
<path fill-rule="evenodd" clip-rule="evenodd" d="M27.5595 79.6527L26.5695 80.5526H26.3132L26.8966 79.5292H27.5506V79.6527H27.5595ZM26.8524 83.1375H26.6402C26.3751 83.4551 26.0746 83.711 25.7917 83.711C25.5089 83.711 25.3498 83.5345 25.3498 83.1375C25.3498 82.9787 25.3675 82.8111 25.4028 82.6611L27.1352 82.0877C27.4711 81.2848 27.0734 80.9319 26.5961 80.9319C25.7829 80.9319 24.846 82.3612 24.846 83.5081C24.846 84.0462 25.1023 84.3462 25.5 84.3462C25.9685 84.3374 26.4546 83.8786 26.8612 83.1375H26.8524ZM26.2513 81.3995C26.4811 81.3995 26.6844 81.576 26.5784 81.9906L25.5089 82.2729C25.6768 81.7612 25.995 81.3907 26.2513 81.3907V81.3995ZM22.8837 81.426H23.4583L22.5479 83.9227C22.4595 84.1345 22.5832 84.3462 22.8042 84.3462C23.4494 84.3462 24.2272 83.7992 24.5189 83.014H24.3598C24.13 83.3404 23.6174 83.7022 23.2373 83.7639L24.077 81.426H24.9344L25.0404 81.0643H24.2007L24.5189 80.1644H24.1919L23.5997 81.0643L22.8926 81.1613V81.426H22.8837ZM22.0882 80.9496C22.2032 80.9496 22.3623 81.0731 22.2915 81.3113L21.2662 83.7992C21.5314 83.7551 21.8054 83.4992 21.9645 83.2699H22.1324C21.885 83.8963 21.3369 84.3462 20.8596 84.3462C20.7447 84.3462 20.5768 84.2227 20.6564 83.9845L21.611 81.4966C21.3458 81.5407 21.0718 81.7965 20.9127 82.0259H20.7536C21.0011 81.3907 21.5933 80.9496 22.0882 80.9496ZM22.3799 80.3144C22.5921 80.3144 22.7688 80.1467 22.7688 79.9262C22.7688 79.7056 22.5921 79.538 22.3799 79.538C22.159 79.538 21.991 79.7144 21.991 79.9262C21.991 80.1379 22.1678 80.3144 22.3799 80.3144ZM17.7484 82.3788C17.9782 81.8671 17.8986 81.6377 17.7484 81.6377C17.6246 81.6377 17.4744 81.7789 17.3241 82.0259H17.165C17.4125 81.4877 17.7307 80.9496 18.0754 80.9496C18.3759 80.9496 18.482 81.2495 18.482 81.576V82.0436C18.5262 81.9906 18.5792 81.9377 18.6234 81.8848C19.0742 81.3642 19.4101 80.9584 19.8078 80.9584C20.1172 80.9584 20.2763 81.1525 20.2763 81.4348C20.2763 81.6024 20.2233 81.8142 20.1083 82.0347L19.2245 83.7992C19.4896 83.7551 19.7636 83.4992 19.9227 83.2699H20.0818C19.8343 83.9051 19.2421 84.3462 18.7472 84.3462C18.5262 84.3462 18.3936 84.1168 18.4908 83.9227L19.5073 81.9642C19.6222 81.7436 19.6487 81.5936 19.4631 81.5936C19.2156 81.5936 18.6499 81.9994 18.3406 82.37L17.6688 84.1256C17.5981 84.3021 17.5186 84.3462 17.3506 84.3462C17.0766 84.3462 16.9352 84.1698 17.0678 83.8786L17.7484 82.3788ZM17.059 81.6995C17.1739 81.2937 17.112 80.9408 16.8026 80.9408C16.4226 80.9408 16.2988 81.1966 15.9276 81.973L15.9011 82.0259V81.5583C15.9011 81.2319 15.795 80.9319 15.4945 80.9319C15.1409 80.9319 14.8227 81.4701 14.5841 82.0083H14.7432C14.9111 81.7612 15.0702 81.6201 15.2028 81.6201C15.3531 81.6201 15.4326 81.8495 15.2028 82.3612L14.5222 83.861C14.3985 84.1433 14.531 84.3286 14.805 84.3286C14.973 84.3286 15.0525 84.2844 15.1232 84.108L15.795 82.3523C15.9895 82.123 16.1574 81.92 16.3695 81.6995H17.059ZM13.709 81.9994C13.8151 81.5848 13.6118 81.4083 13.382 81.4083C13.1257 81.4083 12.8075 81.7789 12.6395 82.2906L13.709 82.0083V81.9994ZM13.9742 83.1375H13.7621C13.4969 83.4551 13.1964 83.711 12.9135 83.711C12.6307 83.711 12.4716 83.5345 12.4716 83.1375C12.4716 82.9787 12.4893 82.8111 12.5246 82.6611L14.257 82.0877C14.5929 81.2848 14.1952 80.9319 13.7179 80.9319C12.9047 80.9319 11.9678 82.3612 11.9678 83.5081C11.9678 84.0462 12.2241 84.3462 12.6219 84.3462C13.0903 84.3374 13.5765 83.8786 13.983 83.1375H13.9742ZM10.5801 81.426H10.0056V81.1613L10.7127 81.0643L11.3049 80.1644H11.6319L11.3137 81.0643H12.1534L12.0473 81.426H11.19L10.3503 83.7639C10.7303 83.7022 11.243 83.3404 11.4728 83.014H11.6319C11.3314 83.7992 10.5624 84.3462 9.91717 84.3462C9.6962 84.3462 9.5813 84.1345 9.66085 83.9227L10.5712 81.426H10.5801ZM6.97384 83.3581C6.97384 82.5817 7.83121 81.5495 8.3085 81.5495C8.41457 81.5495 8.52064 81.5583 8.60903 81.5936L8.11405 82.9258C7.83121 83.2787 7.38043 83.7022 7.16829 83.7022C7.05339 83.7022 6.97384 83.5963 6.97384 83.3669V83.3581ZM9.33381 80.782L9.59897 80.7996L8.67974 82.917C8.45877 83.4287 8.55599 83.6581 8.67974 83.6581C8.80348 83.6581 8.96258 83.5081 9.13936 83.2699H9.29845C9.05097 83.808 8.73277 84.3462 8.38805 84.3462C8.08753 84.3462 7.91076 84.0286 7.96379 83.4551L7.98147 83.2522L7.9196 83.3316C7.53953 83.861 7.19481 84.3374 6.84126 84.3374C6.5319 84.3374 6.3728 84.1433 6.3728 83.861C6.3728 82.6347 7.7163 81.0643 8.98026 81.0643H9.03329L9.33381 80.7643V80.782ZM6.90313 81.6995C7.01803 81.2937 6.95616 80.9408 6.6468 80.9408C6.26673 80.9408 6.14299 81.1966 5.77176 81.973L5.74524 82.0259V81.5583C5.74524 81.2319 5.63918 80.9319 5.33866 80.9319C4.9851 80.9319 4.6669 81.4701 4.42826 82.0083H4.58736C4.75529 81.7612 4.91439 81.6201 5.0293 81.6201C5.17956 81.6201 5.25911 81.8495 5.0293 82.3612L4.34871 83.8786C4.22496 84.1609 4.35755 84.3462 4.63155 84.3462C4.79949 84.3462 4.87904 84.3021 4.94975 84.1256L5.6215 82.37C5.81595 82.1406 5.98389 81.9377 6.19602 81.7171H6.89429L6.90313 81.6995ZM2.53675 84.0286L2.47487 84.2227H0L0.0618718 84.0198C0.822012 83.8786 0.954594 83.8169 1.27279 82.9611L1.96222 81.1172C2.27158 80.2614 2.20971 80.1997 1.53796 80.0585L1.59983 79.8644H4.81716L4.62271 80.8878H4.3929C4.3929 80.2703 4.33103 80.1115 3.74767 80.1115H3.59741C3.02288 80.1115 2.95217 80.1997 2.79307 80.6408L2.33345 81.8759H3.0052C3.44715 81.8759 3.62392 81.6024 3.81838 81.2407H4.04819L3.50018 82.7405H3.27037C3.3234 82.2818 3.3234 82.1053 2.90798 82.1053H2.23623L1.92687 82.9523C1.59099 83.8345 1.68822 83.8521 2.48371 84.0021C2.50139 84.0021 2.51907 84.0021 2.53675 84.0109V84.0286Z" fill="black"/>
<path fill-rule="evenodd" clip-rule="evenodd" d="M4.63155 71.5538L3.6416 72.2596L3.38527 72.2685L3.96864 71.4215H4.62271V71.545L4.63155 71.5538ZM11.5347 76.5209L13.1168 72.3302L13.0638 72.2685L11.9678 72.392V72.5155L12.1799 72.6743C12.3567 72.8154 12.3125 72.9478 12.1622 73.3536L12.1357 73.4242L10.9248 76.6444C10.8276 76.8385 10.9602 77.0678 11.1811 77.0678C11.6761 77.0678 12.2064 76.6091 12.4539 75.9915H12.2948C12.1269 76.2209 11.7822 76.4767 11.5347 76.5209ZM18.7737 73.2919L19.7636 72.392V72.2685H19.1096L18.5262 73.2919H18.7825H18.7737ZM18.8356 75.868H19.0477C18.6588 76.6179 18.1638 77.0767 17.7042 77.0767C17.2976 77.0767 17.0501 76.7767 17.0501 76.2385C17.0501 75.0916 17.987 73.6624 18.8002 73.6624C19.2687 73.6624 19.6841 74.0153 19.3394 74.8181L17.5981 75.3916C17.5628 75.5416 17.5451 75.7092 17.5451 75.868C17.5451 76.2562 17.6953 76.4415 17.987 76.4415C18.2787 76.4415 18.5704 76.1856 18.8356 75.868ZM18.7825 74.7211C18.8886 74.3153 18.6853 74.1388 18.4555 74.1388C18.2257 74.1388 17.8898 74.5093 17.713 75.0034L18.7825 74.7211ZM15.6713 74.1653H15.0967V73.9006L15.8038 73.8036L16.396 72.9037H16.7231L16.4049 73.8036H17.2446L17.1385 74.1653H16.2811L15.4414 76.5032C15.8215 76.4415 16.3342 76.0797 16.564 75.7533H16.7231C16.4226 76.5385 15.6536 77.0855 15.0083 77.0855C14.7874 77.0855 14.6725 76.8737 14.752 76.662L15.6624 74.1653H15.6713ZM14.5045 74.0329C14.5664 73.8036 14.4161 73.6712 14.2924 73.6712C13.7974 73.6712 13.1964 74.13 12.9577 74.7476H13.1168C13.2759 74.5182 13.5499 74.2623 13.8151 74.2182L12.8605 76.7061C12.7721 76.9355 12.9489 77.0678 13.0638 77.0678C13.5411 77.0678 14.0891 76.6091 14.3366 75.9915H14.1775C14.0184 76.2209 13.7444 76.4767 13.4792 76.5209L14.5045 74.0329ZM14.9907 72.6566C14.9907 72.8684 14.8139 73.0448 14.6018 73.0448C14.3896 73.0448 14.2128 72.8684 14.2128 72.6566C14.2128 72.4449 14.3808 72.2685 14.6018 72.2685C14.8227 72.2685 14.9907 72.4449 14.9907 72.6566ZM9.63433 74.2888C9.15703 74.2888 8.29967 75.3298 8.29967 76.0974C8.29967 76.3268 8.37038 76.4326 8.50296 76.4326C8.70625 76.4326 9.14819 76.0092 9.43988 75.6563L9.93485 74.3241C9.83762 74.2888 9.7404 74.28 9.63433 74.28V74.2888ZM10.9248 73.5389L10.6596 73.5212L10.3591 73.8212H10.3061C9.04213 73.8212 7.69863 75.3916 7.69863 76.6179C7.69863 76.9002 7.85772 77.0943 8.16708 77.0943C8.52064 77.0943 8.86535 76.6179 9.24542 76.0797L9.30729 76.0003L9.28962 76.2032C9.23658 76.7767 9.41336 77.0943 9.71388 77.0943C10.0674 77.0943 10.3856 76.5561 10.6243 76.018H10.4652C10.2972 76.265 10.1381 76.4062 10.0056 76.4062C9.87298 76.4062 9.78459 76.1768 10.0056 75.6651L10.9248 73.5477V73.5389ZM5.5773 76.9708C5.11769 77.1472 4.79949 77.359 4.79949 77.6942C4.79949 78.003 5.08233 78.1265 5.68337 78.1265C6.47887 78.1265 6.91197 77.8971 6.91197 77.5884C6.91197 77.4472 6.73519 77.3854 6.25789 77.2266C5.94854 77.1296 5.72756 77.0502 5.5773 76.9708ZM6.10763 75.6651C5.8955 75.6651 5.82479 75.4886 5.82479 75.2945C5.82479 74.677 6.12531 73.9182 6.60261 73.9182C6.81474 73.9182 6.88545 74.0947 6.88545 74.2888C6.87661 74.9152 6.57609 75.6651 6.10763 75.6651ZM6.51422 76.662C7.09758 76.8385 7.45998 76.9796 7.45998 77.3854C7.45998 77.906 6.50538 78.5147 5.3475 78.5059C4.67574 78.5059 4.11006 78.3294 4.11006 77.8883C4.11006 77.4472 4.49013 77.1384 5.42704 76.8649C5.3033 76.7767 5.25027 76.6708 5.25027 76.5297C5.25027 76.2738 5.48008 76.0709 5.88666 75.8856C5.49776 75.8327 5.24143 75.5327 5.24143 75.1004C5.24143 74.4299 5.78944 73.6712 6.66448 73.6712C6.84126 73.6712 7.00036 73.7153 7.13294 73.7947H8.08753L7.98147 74.1565H7.41578C7.45114 74.2535 7.46882 74.3594 7.46882 74.4741C7.46882 75.1181 6.94732 75.8592 6.12531 75.9033C5.91318 76.018 5.80711 76.1768 5.80711 76.3091C5.80711 76.4591 5.98389 76.512 6.36396 76.6179C6.41699 76.6355 6.47003 76.6444 6.5319 76.662H6.51422ZM3.14663 74.8534C3.56205 74.8534 3.57089 75.0299 3.50902 75.4886H3.73883L4.28683 73.9888H4.05703C3.85373 74.3505 3.68579 74.624 3.24385 74.624H2.33345L2.77539 73.3889C2.93449 72.9478 3.0052 72.8596 3.57973 72.8596H3.98631C4.56968 72.8596 4.63155 73.0184 4.63155 73.6359H4.86136L5.05581 72.6125H1.59983L1.53796 72.8066C2.20971 72.9478 2.27158 73.0095 1.96222 73.8653L1.27279 75.718C0.954594 76.5738 0.83085 76.6355 0.053033 76.7767L0 76.9796H3.83605L4.52548 75.8856H4.26032C3.81838 76.3179 3.3676 76.7238 2.50139 76.7238C1.5468 76.7238 1.56447 76.6797 1.84732 75.8856C1.86499 75.8327 1.88267 75.7798 1.90919 75.7268L2.22739 74.8799H3.14663V74.8534Z" fill="black"/>
<path fill-rule="evenodd" clip-rule="evenodd" d="M6.31977 65.7841C6.5319 65.7841 6.70868 65.6076 6.70868 65.3959C6.70868 65.1841 6.5319 65.0077 6.31977 65.0077C6.0988 65.0077 5.93086 65.1841 5.93086 65.3959C5.93086 65.6164 6.0988 65.7841 6.31977 65.7841ZM9.45755 67.1162C9.45755 66.6045 9.33381 66.4193 8.97142 66.4193C8.52947 66.4193 8.11405 66.8957 7.69862 67.4691L8.59135 65.0871L8.53831 65.0165L7.4423 65.14V65.2635L7.65443 65.4223C7.84005 65.5635 7.78701 65.7047 7.62791 66.1281L7.61024 66.1722L6.6468 68.6866C6.55841 68.8984 6.47003 69.1542 6.47003 69.216C6.47003 69.5159 6.87661 69.7983 7.24784 69.7983C8.07869 69.8071 9.46639 68.2808 9.46639 67.1074L9.45755 67.1162ZM18.6499 66.0399L19.6399 65.14V65.0165H18.9858L18.4025 66.0399H18.6588H18.6499ZM18.7207 68.6072H18.9328C18.5262 69.3571 18.0401 69.8159 17.5716 69.8071C17.165 69.8071 16.9175 69.5248 16.9175 68.9778C16.9175 67.8309 17.8544 66.4105 18.6676 66.4105C19.1361 66.4105 19.5515 66.7633 19.2068 67.5662L17.4744 68.1396C17.439 68.2896 17.4213 68.4572 17.4213 68.616C17.4213 69.0042 17.5716 69.1895 17.8633 69.1895C18.155 69.1895 18.4466 68.9337 18.7118 68.616L18.7207 68.6072ZM18.6676 67.4603C18.7737 67.0545 18.5704 66.878 18.3406 66.878C18.0843 66.878 17.7661 67.2486 17.5981 67.7426L18.6676 67.4603ZM15.5298 66.9045H14.9553V66.6398L15.6624 66.5428L16.2546 65.6429H16.5817L16.2635 66.5428H17.1031L16.9971 66.9045H16.1397L15.3 69.2424C15.6801 69.1807 16.1927 68.819 16.4226 68.4925H16.5817C16.2811 69.2777 15.5122 69.8247 14.8669 69.8247C14.6459 69.8247 14.531 69.613 14.6106 69.4012L15.521 66.9045H15.5298ZM14.6636 67.178C14.7785 66.7722 14.7167 66.4193 14.4073 66.4193C14.0272 66.4193 13.9035 66.6751 13.5323 67.4515L13.5057 67.5044V67.0368C13.5057 66.7104 13.3997 66.4105 13.0992 66.4105C12.7456 66.4105 12.4274 66.9486 12.1888 67.4868H12.3479C12.5158 67.2398 12.6749 67.0986 12.7898 67.0986C12.9401 67.0986 13.0196 67.328 12.7898 67.8397L12.1092 69.3395C11.9855 69.6218 12.118 69.8071 12.392 69.8071C12.56 69.8071 12.6395 69.763 12.7102 69.5865L13.382 67.8309C13.5764 67.6015 13.7444 67.3986 13.9565 67.178H14.6548H14.6636ZM11.3049 67.4603C11.4109 67.0545 11.2076 66.878 10.9778 66.878C10.7215 66.878 10.4121 67.2486 10.2354 67.7426L11.3049 67.4603ZM11.57 68.6072H11.3579C11.0927 68.9248 10.7922 69.1807 10.5094 69.1807C10.2265 69.1807 10.0674 69.0042 10.0674 68.6072C10.0674 68.4484 10.0851 68.2808 10.1205 68.1308L11.8529 67.5574C12.1888 66.7545 11.791 66.4016 11.3137 66.4016C10.5005 66.4016 9.56362 67.8309 9.56362 68.9689C9.56362 69.5071 9.81995 69.7983 10.2177 69.7983C10.6862 69.8071 11.1723 69.3571 11.5789 68.5984L11.57 68.6072ZM7.11526 69.0131C7.11526 69.1542 7.36275 69.313 7.53069 69.313C8.22012 69.313 8.86535 68.0779 8.85651 67.3897C8.85651 67.1604 8.74161 67.0633 8.58251 67.0633C8.32618 67.0633 7.85772 67.4427 7.56604 67.8044L7.29204 68.5455C7.19481 68.7925 7.1241 68.9778 7.1241 69.0219L7.11526 69.0131ZM6.00157 66.4193C6.12531 66.4193 6.27557 66.5428 6.2137 66.781L5.19723 69.2689C5.4624 69.2248 5.7364 68.9689 5.8955 68.7396H6.0546C5.80711 69.366 5.25911 69.8159 4.78181 69.8159C4.65807 69.8159 4.48129 69.6924 4.56968 69.4542L5.52427 66.9663C5.25911 67.0104 4.9851 67.2662 4.826 67.4956H4.6669C4.91439 66.8692 5.50659 66.4193 6.00157 66.4193ZM1.59983 65.3165H3.88025L3.81838 65.5194C3.04056 65.6605 2.91682 65.7223 2.59862 66.5781L1.91803 68.4396C1.59099 69.3307 1.67054 69.4365 2.2539 69.4365C2.97869 69.4365 3.44715 68.916 3.86257 68.4572C3.88909 68.422 3.92444 68.3867 3.95096 68.3602H4.21612L3.46482 69.6924H0L0.0618718 69.4983C0.822012 69.3571 0.954594 69.2954 1.27279 68.4396L1.96222 66.5693C2.27158 65.7135 2.20971 65.6517 1.53796 65.5106L1.59983 65.3165Z" fill="black"/>
<path d="M120.209 44.7073H118.441V76.4679H120.209V44.7073Z" fill="#161616"/>
<path d="M135.534 57.9409V49.9126H138.69C141.244 49.9126 142.968 51.7564 142.968 53.9268C142.968 56.0971 141.244 57.9409 138.69 57.9409H135.534ZM138.716 51.3947H137.161V56.4676H138.716C140.21 56.4676 141.288 55.356 141.288 53.9356C141.288 52.5152 140.21 51.4036 138.716 51.4036V51.3947ZM145.08 51.1477C144.559 51.1477 144.126 50.7154 144.126 50.1949C144.126 49.6744 144.559 49.2421 145.08 49.2421C145.602 49.2421 146.026 49.6744 146.026 50.1949C146.026 50.7154 145.602 51.1477 145.08 51.1477ZM144.347 57.9409V52.1623H145.805V57.9409H144.347ZM147.555 57.9409V52.1623H149.014V52.7357C149.394 52.3475 149.889 52.0476 150.543 52.0476C150.737 52.0476 150.914 52.0829 151.047 52.127V53.5562C150.861 53.5121 150.666 53.4768 150.401 53.4768C149.685 53.4768 149.226 53.865 149.014 54.2355V57.9409H147.555ZM157.304 56.9969C156.765 57.7204 155.873 58.1703 154.776 58.1703C152.717 58.1703 151.559 56.7411 151.559 55.0472C151.559 53.3533 152.637 51.9241 154.538 51.9241C156.147 51.9241 157.207 53.018 157.207 54.5267C157.207 54.8443 157.163 55.1442 157.119 55.3383H153.062C153.203 56.4147 153.866 56.8558 154.776 56.8558C155.404 56.8558 155.961 56.5823 156.27 56.1676L157.313 56.9969H157.304ZM154.502 53.1239C153.751 53.1239 153.265 53.5386 153.097 54.2973H155.766C155.74 53.715 155.316 53.1239 154.502 53.1239ZM161.37 56.794C161.945 56.794 162.404 56.5294 162.678 56.1324L163.819 57.0058C163.279 57.7204 162.431 58.1791 161.37 58.1791C159.373 58.1791 158.179 56.7499 158.179 55.056C158.179 53.3621 159.373 51.9329 161.37 51.9329C162.431 51.9329 163.279 52.3917 163.819 53.1063L162.678 53.9797C162.404 53.5827 161.945 53.318 161.344 53.318C160.389 53.318 159.691 54.0503 159.691 55.0648C159.691 56.0794 160.389 56.8117 161.37 56.8117V56.794ZM165.33 55.8324V53.468H164.252V52.1623H165.33V50.7154H166.797V52.1623H168.565V53.468H166.797V55.8324C166.797 56.4764 167.142 56.7235 167.717 56.7235C168.114 56.7235 168.379 56.6793 168.574 56.5999V57.8704C168.291 57.9939 167.946 58.0556 167.46 58.0556C166.011 58.0556 165.321 57.244 165.321 55.8324H165.33ZM170.607 51.1477C170.094 51.1477 169.652 50.7154 169.652 50.1949C169.652 49.6744 170.085 49.2421 170.607 49.2421C171.128 49.2421 171.553 49.6744 171.553 50.1949C171.553 50.7154 171.128 51.1477 170.607 51.1477ZM169.873 57.9409V52.1623H171.332V57.9409H169.873ZM175.839 51.9329C177.722 51.9329 179.013 53.318 179.013 55.056C179.013 56.794 177.722 58.1791 175.839 58.1791C173.957 58.1791 172.666 56.794 172.666 55.056C172.666 53.318 173.957 51.9329 175.839 51.9329ZM175.866 56.794C176.794 56.794 177.501 56.053 177.501 55.0472C177.501 54.0414 176.803 53.3004 175.866 53.3004C174.929 53.3004 174.187 54.0326 174.187 55.0472C174.187 56.0618 174.903 56.794 175.866 56.794ZM180.347 57.9409V52.1623H181.806V52.621C182.212 52.2329 182.751 51.9329 183.52 51.9329C184.776 51.9329 185.774 52.7975 185.774 54.5002V57.9409H184.307V54.5531C184.307 53.7856 183.874 53.3004 183.158 53.3004C182.442 53.3004 182.035 53.7944 181.814 54.1561V57.9321H180.356L180.347 57.9409ZM191.254 51.1477C190.742 51.1477 190.3 50.7154 190.3 50.1949C190.3 49.6744 190.733 49.2421 191.254 49.2421C191.776 49.2421 192.2 49.6744 192.2 50.1949C192.2 50.7154 191.776 51.1477 191.254 51.1477ZM190.521 57.9409V52.1623H191.979V57.9409H190.521ZM193.729 57.9409V52.1623H195.188V52.621C195.594 52.2329 196.133 51.9329 196.902 51.9329C198.158 51.9329 199.156 52.7975 199.156 54.5002V57.9409H197.689V54.5531C197.689 53.7856 197.256 53.3004 196.54 53.3004C195.824 53.3004 195.417 53.7944 195.196 54.1561V57.9321H193.738L193.729 57.9409ZM201.18 55.8324V53.468H200.102V52.1623H201.18V50.7154H202.648V52.1623H204.415V53.468H202.648V55.8324C202.648 56.4764 202.992 56.7235 203.567 56.7235C203.973 56.7235 204.23 56.6793 204.433 56.5999V57.8704C204.15 57.9939 203.806 58.0556 203.319 58.0556C201.87 58.0556 201.18 57.244 201.18 55.8324ZM210.947 56.9969C210.408 57.7204 209.515 58.1703 208.419 58.1703C206.36 58.1703 205.202 56.7411 205.202 55.0472C205.202 53.3533 206.28 51.9241 208.181 51.9241C209.789 51.9241 210.85 53.018 210.85 54.5267C210.85 54.8443 210.806 55.1442 210.762 55.3383H206.705C206.846 56.4147 207.509 56.8558 208.419 56.8558C209.047 56.8558 209.604 56.5823 209.913 56.1676L210.956 56.9969H210.947ZM208.145 53.1239C207.403 53.1239 206.908 53.5386 206.74 54.2973H209.409C209.383 53.715 208.959 53.1239 208.145 53.1239ZM212.264 57.9409V52.1623H213.723V52.7357C214.103 52.3475 214.598 52.0476 215.252 52.0476C215.446 52.0476 215.623 52.0829 215.756 52.127V53.5562C215.57 53.5121 215.376 53.4768 215.11 53.4768C214.394 53.4768 213.935 53.865 213.723 54.2355V57.9409H212.264ZM216.931 57.9409V52.1623H218.39V52.5946C218.779 52.2152 219.273 51.9329 219.989 51.9329C220.705 51.9329 221.368 52.2505 221.748 52.8769C222.164 52.374 222.712 51.9329 223.693 51.9329C224.886 51.9329 225.832 52.7622 225.832 54.3855V57.9409H224.365V54.4385C224.365 53.7415 223.985 53.3004 223.331 53.3004C222.676 53.3004 222.358 53.7327 222.128 54.1297C222.137 54.2091 222.137 54.2885 222.137 54.3855V57.9409H220.67V54.4385C220.67 53.7415 220.29 53.3004 219.636 53.3004C218.982 53.3004 218.628 53.7944 218.407 54.1561V57.9321H216.949L216.931 57.9409ZM228.227 51.1477C227.715 51.1477 227.273 50.7154 227.273 50.1949C227.273 49.6744 227.706 49.2421 228.227 49.2421C228.749 49.2421 229.173 49.6744 229.173 50.1949C229.173 50.7154 228.749 51.1477 228.227 51.1477ZM227.494 57.9409V52.1623H228.952V57.9409H227.494ZM230.702 57.9409V52.1623H232.161V52.621C232.567 52.2329 233.106 51.9329 233.875 51.9329C235.13 51.9329 236.129 52.7975 236.129 54.5002V57.9409H234.662V54.5531C234.662 53.7856 234.229 53.3004 233.513 53.3004C232.797 53.3004 232.39 53.7944 232.169 54.1561V57.9321H230.711L230.702 57.9409ZM238.524 51.1477C238.003 51.1477 237.57 50.7154 237.57 50.1949C237.57 49.6744 238.003 49.2421 238.524 49.2421C239.046 49.2421 239.47 49.6744 239.47 50.1949C239.47 50.7154 239.046 51.1477 238.524 51.1477ZM237.782 57.9409V52.1623H239.24V57.9409H237.782ZM240.407 57.1028L241.371 56.2294C241.724 56.6793 242.148 56.9969 242.705 56.9969C243.174 56.9969 243.421 56.7235 243.421 56.3794C243.421 55.3736 240.655 55.7442 240.655 53.715C240.655 52.6916 241.521 51.9241 242.723 51.9241C243.607 51.9241 244.411 52.3475 244.827 52.9122L243.863 53.7591C243.563 53.3886 243.183 53.0975 242.741 53.0975C242.299 53.0975 242.06 53.3533 242.06 53.6444C242.06 54.6325 244.827 54.2885 244.827 56.2823C244.8 57.4998 243.828 58.1615 242.732 58.1615C241.698 58.1615 240.964 57.7469 240.407 57.094V57.1028ZM246.621 55.8324V53.468H245.542V52.1623H246.621V50.7154H248.088V52.1623H249.856V53.468H248.088V55.8324C248.088 56.4764 248.433 56.7235 249.007 56.7235C249.414 56.7235 249.67 56.6793 249.874 56.5999V57.8704C249.582 57.9939 249.246 58.0556 248.76 58.0556C247.31 58.0556 246.621 57.244 246.621 55.8324ZM254.426 51.2447H253.02L254.213 49.3391H255.796L254.417 51.2447H254.426ZM256.388 56.9969C255.849 57.7204 254.956 58.1703 253.86 58.1703C251.8 58.1703 250.643 56.7411 250.643 55.0472C250.643 53.3533 251.721 51.9241 253.621 51.9241C255.23 51.9241 256.291 53.018 256.291 54.5267C256.291 54.8443 256.246 55.1442 256.202 55.3383H252.145C252.287 56.4147 252.949 56.8558 253.86 56.8558C254.487 56.8558 255.044 56.5823 255.354 56.1676L256.397 56.9969H256.388ZM253.586 53.1239C252.835 53.1239 252.348 53.5386 252.18 54.2973H254.85C254.823 53.715 254.399 53.1239 253.586 53.1239ZM257.714 57.9409V52.1623H259.172V52.7357C259.552 52.3475 260.047 52.0476 260.701 52.0476C260.896 52.0476 261.072 52.0829 261.205 52.127V53.5562C261.019 53.5121 260.825 53.4768 260.56 53.4768C259.844 53.4768 259.384 53.865 259.172 54.2355V57.9409H257.714ZM263.114 51.1477C262.593 51.1477 262.16 50.7154 262.16 50.1949C262.16 49.6744 262.593 49.2421 263.114 49.2421C263.636 49.2421 264.06 49.6744 264.06 50.1949C264.06 50.7154 263.636 51.1477 263.114 51.1477ZM262.38 57.9409V52.1623H263.839V57.9409H262.38ZM270.919 56.9969C270.38 57.7204 269.487 58.1703 268.391 58.1703C266.331 58.1703 265.174 56.7411 265.174 55.0472C265.174 53.3533 266.252 51.9241 268.152 51.9241C269.761 51.9241 270.822 53.018 270.822 54.5267C270.822 54.8443 270.777 55.1442 270.733 55.3383H266.676C266.818 56.4147 267.48 56.8558 268.391 56.8558C269.018 56.8558 269.575 56.5823 269.885 56.1676L270.928 56.9969H270.919ZM268.117 53.1239C267.366 53.1239 266.879 53.5386 266.712 54.2973H269.381C269.354 53.715 268.93 53.1239 268.117 53.1239ZM272.245 57.9409V49.3391H273.703V57.9409H272.245ZM275.453 57.9409V49.3391H276.912V57.9409H275.453ZM283.991 56.9969C283.452 57.7204 282.56 58.1703 281.464 58.1703C279.404 58.1703 278.246 56.7411 278.246 55.0472C278.246 53.3533 279.325 51.9241 281.225 51.9241C282.834 51.9241 283.894 53.018 283.894 54.5267C283.894 54.8443 283.85 55.1442 283.806 55.3383H279.749C279.89 56.4147 280.553 56.8558 281.464 56.8558C282.091 56.8558 282.648 56.5823 282.957 56.1676L284 56.9969H283.991ZM281.19 53.1239C280.438 53.1239 279.952 53.5386 279.784 54.2973H282.453C282.427 53.715 282.003 53.1239 281.19 53.1239ZM134.81 70.9275C134.81 69.2424 135.923 67.8044 137.753 67.8044C138.531 67.8044 139.096 68.0426 139.547 68.4925V65.2106H141.014V73.8124H139.547V73.3537C139.096 73.8036 138.54 74.0418 137.753 74.0418C135.923 74.0418 134.81 72.6126 134.81 70.9187V70.9275ZM136.339 70.9275C136.339 71.9333 136.975 72.6743 137.956 72.6743C138.61 72.6743 139.149 72.4008 139.538 71.8715V69.9923C139.149 69.463 138.61 69.1895 137.956 69.1895C136.966 69.1895 136.339 69.9218 136.339 70.9363V70.9275ZM146.583 71.3245V68.0426H148.05V71.2539C148.05 72.9831 147.043 74.0506 145.337 74.0506C143.631 74.0506 142.641 72.9831 142.641 71.2539V68.0426H144.108V71.3245C144.108 72.1626 144.541 72.6743 145.345 72.6743C146.15 72.6743 146.574 72.1626 146.574 71.3245H146.583ZM152.761 73.8213V68.0426H154.22V68.5013C154.626 68.1132 155.165 67.8132 155.934 67.8132C157.189 67.8132 158.188 68.669 158.188 70.3805V73.8213H156.721V70.4335C156.721 69.6659 156.288 69.1807 155.572 69.1807C154.856 69.1807 154.449 69.6747 154.228 70.0453V73.8213H152.77H152.761ZM163.66 71.3245V68.0426H165.127V71.2539C165.127 72.9831 164.119 74.0506 162.413 74.0506C160.707 74.0506 159.717 72.9831 159.717 71.2539V68.0426H161.185V71.3245C161.185 72.1626 161.618 72.6743 162.422 72.6743C163.226 72.6743 163.651 72.1626 163.651 71.3245H163.66ZM166.744 73.8213V68.0426H168.203V68.4749C168.592 68.0955 169.087 67.8132 169.803 67.8132C170.518 67.8132 171.181 68.1308 171.561 68.7572C171.977 68.2543 172.525 67.8132 173.506 67.8132C174.699 67.8132 175.645 68.6425 175.645 70.2658V73.8213H174.178V70.3188C174.178 69.6218 173.798 69.1807 173.144 69.1807C172.49 69.1807 172.171 69.613 171.933 70.01C171.942 70.0894 171.942 70.1688 171.942 70.2658V73.8213H170.474V70.3188C170.474 69.6218 170.094 69.1807 169.44 69.1807C168.786 69.1807 168.432 69.6747 168.212 70.0453V73.8213H166.753H166.744ZM180.665 67.1251H179.26L180.453 65.2194H182.035L180.657 67.1251H180.665ZM182.637 72.8773C182.097 73.6007 181.205 74.0506 180.109 74.0506C178.049 74.0506 176.891 72.6214 176.891 70.9275C176.891 69.2336 177.97 67.8044 179.87 67.8044C181.479 67.8044 182.539 68.8895 182.539 70.407C182.539 70.7246 182.495 71.0246 182.451 71.2186H178.394C178.535 72.295 179.198 72.7361 180.109 72.7361C180.736 72.7361 181.293 72.4626 181.602 72.048L182.645 72.8773H182.637ZM179.835 69.0042C179.083 69.0042 178.597 69.4189 178.429 70.1776H181.099C181.072 69.5953 180.648 69.0042 179.835 69.0042ZM183.953 73.8213V68.0426H185.412V68.616C185.792 68.2279 186.287 67.9279 186.941 67.9279C187.135 67.9279 187.312 67.9632 187.445 68.0073V69.4365C187.259 69.3924 187.065 69.3571 186.8 69.3571C186.084 69.3571 185.624 69.7453 185.412 70.1158V73.8213H183.953ZM189.363 67.028C188.841 67.028 188.408 66.5957 188.408 66.0752C188.408 65.5547 188.841 65.1224 189.363 65.1224C189.884 65.1224 190.309 65.5547 190.309 66.0752C190.309 66.5957 189.884 67.028 189.363 67.028ZM188.62 73.8213V68.0426H190.079V73.8213H188.62ZM191.422 70.9275C191.422 69.2424 192.527 67.8044 194.366 67.8044C195.143 67.8044 195.709 68.0602 196.16 68.5013V68.0338H197.627V76.6356H196.16V73.3448C195.709 73.7948 195.152 74.0418 194.366 74.0418C192.527 74.0418 191.422 72.6126 191.422 70.9187V70.9275ZM192.934 70.9275C192.934 71.9333 193.561 72.6743 194.551 72.6743C195.232 72.6743 195.789 72.3744 196.151 71.845V70.01C195.762 69.4718 195.205 69.1807 194.551 69.1807C193.561 69.1807 192.934 69.9129 192.934 70.9275ZM203.187 71.3245V68.0426H204.654V71.2539C204.654 72.9831 203.646 74.0506 201.941 74.0506C200.235 74.0506 199.236 72.9831 199.236 71.2539V68.0426H200.703V71.3245C200.703 72.1626 201.136 72.6743 201.941 72.6743C202.745 72.6743 203.169 72.1626 203.169 71.3245H203.187ZM211.61 72.8773C211.071 73.6007 210.178 74.0506 209.082 74.0506C207.023 74.0506 205.865 72.6214 205.865 70.9275C205.865 69.2336 206.943 67.8044 208.844 67.8044C210.452 67.8044 211.513 68.8895 211.513 70.407C211.513 70.7246 211.469 71.0246 211.425 71.2186H207.368C207.509 72.295 208.172 72.7361 209.082 72.7361C209.71 72.7361 210.267 72.4626 210.576 72.048L211.619 72.8773H211.61ZM208.808 69.0042C208.057 69.0042 207.571 69.4189 207.403 70.1776H210.072C210.046 69.5953 209.621 69.0042 208.808 69.0042Z" fill="#161616"/>
</svg>
