<svg width="143" height="40" viewBox="0 0 143 40" fill="none" xmlns="http://www.w3.org/2000/svg">
<path d="M64.3154 11.195C64.2185 12.8616 63.5731 14.2138 62.4436 15.1887C61.3141 16.1635 59.7972 16.6667 57.9255 16.6667C55.8599 16.6981 54.2464 16.0378 53.0523 14.6855C51.8583 13.3333 51.2451 11.5094 51.2451 9.15093V8.20753C51.2451 6.69811 51.5032 5.37734 52.0196 4.24527C52.5682 3.1132 53.3105 2.20125 54.3109 1.60376C55.3114 0.974829 56.4731 0.660365 57.8286 0.660365C59.6682 0.660365 61.1849 1.10062 62.3144 2.07546C63.4439 3.01886 64.1217 4.37106 64.3154 6.13206L61.0236 6.16351C60.9268 5.15722 60.6363 4.43395 60.1522 3.99369C59.6682 3.55345 58.8936 3.33332 57.8931 3.33332C56.7959 3.33332 55.9891 3.74213 55.4404 4.49685C54.8918 5.28301 54.6337 6.47798 54.6337 8.08175V9.24527C54.6337 10.9434 54.9241 12.1698 55.4404 12.9245C55.9568 13.7107 56.7959 14.088 57.9255 14.088C58.9582 14.088 59.7004 13.8365 60.2168 13.3962C60.7009 12.9245 60.9912 12.2327 61.0558 11.2893L64.3154 11.195Z" fill="#2E3192"/>
<path d="M75.5462 13.0818L69.7694 13.1132L68.7044 16.3522L65.1868 16.3836L71.0281 0.723262L74.0938 0.691815L80.2256 16.2579L76.7079 16.2893L75.5462 13.0818ZM70.6408 10.5346L74.6425 10.5031L72.5771 4.68553L70.6408 10.5346Z" fill="#2E3192"/>
<path d="M85.8732 0.628935L90.0687 11.9182L94.0704 0.566042L98.4271 0.534597L98.5562 16.1321L95.2322 16.1635L95.1999 11.8868L95.4581 4.52831L91.2304 16.1949L88.9714 16.2265L84.5501 4.65409L84.9374 12.0126L84.9696 16.2893L81.6778 16.3207L81.5488 0.723275L85.8732 0.628935Z" fill="#2E3192"/>
<path d="M104.688 10.566L104.72 16.0692L101.428 16.1006L101.299 0.503137L107.56 0.440244C108.754 0.440244 109.819 0.628922 110.723 1.06917C111.627 1.50942 112.337 2.10691 112.853 2.89307C113.337 3.67924 113.595 4.55974 113.627 5.59747C113.627 7.13835 113.111 8.33333 112.046 9.21382C110.981 10.0943 109.497 10.566 107.592 10.566H104.688ZM104.656 7.98741L107.592 7.95597C108.464 7.95597 109.141 7.73584 109.593 7.32704C110.045 6.91824 110.271 6.35219 110.271 5.59747C110.271 4.84275 110.013 4.21382 109.561 3.74213C109.109 3.27044 108.464 3.05031 107.657 3.01886L104.623 3.05031L104.656 7.98741Z" fill="#2E3192"/>
<path d="M127.957 0.283024L128.053 10.566C128.053 12.2641 127.537 13.6164 126.439 14.6226C125.343 15.6289 123.858 16.1321 121.953 16.1635C120.081 16.1635 118.598 15.7233 117.5 14.7485C116.403 13.8051 115.822 12.4842 115.79 10.7862L115.693 0.377364L118.985 0.345916L119.081 10.6604C119.081 11.6667 119.339 12.4214 119.855 12.8931C120.372 13.3648 121.05 13.5849 121.953 13.5849C123.793 13.5849 124.728 12.6101 124.761 10.7233L124.665 0.345916L127.957 0.283024Z" fill="#2E3192"/>
<path d="M139.058 11.6981C139.058 11.1006 138.832 10.6289 138.38 10.3145C137.928 10 137.154 9.65409 135.992 9.30818C134.831 8.96227 133.926 8.61635 133.281 8.27044C131.441 7.32705 130.538 6.03774 130.506 4.43397C130.506 3.58491 130.732 2.83019 131.215 2.16981C131.7 1.50944 132.378 0.974842 133.313 0.597485C134.217 0.220126 135.25 0.0314466 136.379 0C137.508 0 138.541 0.188679 139.445 0.566038C140.348 0.974842 141.059 1.54088 141.543 2.26415C142.059 2.98742 142.285 3.83648 142.318 4.77987L139.026 4.81132C139.026 4.08805 138.8 3.55346 138.315 3.14466C137.864 2.76729 137.186 2.54716 136.379 2.57861C135.572 2.57861 134.959 2.76729 134.507 3.08176C134.055 3.42767 133.83 3.86793 133.863 4.40252C133.863 4.90566 134.12 5.34592 134.668 5.66038C135.185 6.00629 135.96 6.32075 136.992 6.60378C138.864 7.13837 140.252 7.79874 141.124 8.61635C141.994 9.43397 142.414 10.4403 142.446 11.6352C142.446 12.9874 141.93 14.0566 140.898 14.8113C139.865 15.5975 138.445 15.9748 136.67 16.0062C135.444 16.0062 134.314 15.8176 133.313 15.3774C132.313 14.9371 131.506 14.3396 130.99 13.5849C130.441 12.8302 130.183 11.9496 130.183 10.9434L133.507 10.912C133.507 12.6415 134.572 13.4906 136.703 13.4592C137.477 13.4592 138.09 13.3019 138.541 12.9874C138.832 12.7044 139.058 12.2641 139.058 11.6981Z" fill="#2E3192"/>
<path d="M64.509 34.0252C64.4122 35.6918 63.7668 37.044 62.6372 38.0188C61.5077 38.9938 59.9909 39.4968 58.1191 39.4968C56.0537 39.5284 54.4401 38.8679 53.2459 37.5158C52.0519 36.1635 51.4388 34.3396 51.4388 31.9812V31.0378C51.4388 29.5284 51.6969 28.2075 52.2132 27.0755C52.7619 25.9434 53.5042 25.0314 54.5046 24.434C55.505 23.8051 56.6669 23.4906 58.0223 23.4906C59.8618 23.4906 61.3785 23.9308 62.5081 24.9056C63.6376 25.8491 64.3154 27.2013 64.509 28.9622L61.2172 28.9308C61.1204 27.9245 60.8299 27.2013 60.3458 26.7611C59.8618 26.3207 59.0872 26.1006 58.0868 26.1006C56.9896 26.1006 56.1828 26.5094 55.6342 27.2641C55.0855 28.0504 54.8274 29.2453 54.8274 30.8491V32.0126C54.8274 33.7107 55.1178 34.9371 55.6342 35.6918C56.1505 36.478 56.9896 36.8553 58.1191 36.8553C59.1518 36.8553 59.8941 36.6038 60.4104 36.1635C60.8945 35.6918 61.185 35 61.2495 34.0566L64.509 34.0252Z" fill="#2E3192"/>
<path d="M72.1898 30.566L75.4494 23.522L79.0638 23.4906L73.9002 33.4906L73.9325 39.1509L70.5762 39.1824L70.5439 33.522L65.1868 23.5849L68.8012 23.5534L72.1898 30.566Z" fill="#2E3192"/>
<path d="M80.6451 39.088L80.5161 23.4906L86.1314 23.4591C88.0677 23.4591 89.5523 23.8051 90.5527 24.4968C91.5531 25.2201 92.0695 26.2579 92.1018 27.6729C92.1018 28.4276 91.9082 29.1195 91.5209 29.6855C91.1336 30.2831 90.5527 30.6918 89.8428 30.9748C90.6495 31.1635 91.3272 31.5724 91.779 32.1698C92.2631 32.7673 92.489 33.522 92.5214 34.4025C92.5214 35.912 92.0372 37.044 91.0691 37.8302C90.1009 38.6164 88.6809 39.0252 86.8737 39.0566L80.6451 39.088ZM83.8723 30L86.325 29.9686C88.0032 29.9371 88.8101 29.2767 88.8101 28.0188C88.8101 27.3271 88.5841 26.7925 88.1645 26.5094C87.745 26.1949 87.0672 26.0378 86.1637 26.0692L83.8401 26.1006L83.8723 30ZM83.9046 32.2641L83.9369 36.478L86.7769 36.4466C87.5514 36.4466 88.1645 36.2579 88.5841 35.8805C89.0036 35.5032 89.2296 35.0314 89.2296 34.3711C89.2296 32.956 88.455 32.2327 86.9382 32.2013L83.9046 32.2641Z" fill="#2E3192"/>
<path d="M104.623 32.1069L98.2981 32.1698L98.3303 36.3836L105.753 36.3207L105.785 38.8994L95.0385 38.9938L94.9095 23.3962L105.624 23.3019L105.656 25.912L98.2335 25.9748L98.2658 29.6855L104.591 29.6227L104.623 32.1069Z" fill="#2E3192"/>
<path d="M113.595 33.1132L110.981 33.1447L111.013 38.8679L107.722 38.8994L107.56 23.2705L113.498 23.2075C115.402 23.2075 116.855 23.5849 117.887 24.4025C118.92 25.2201 119.437 26.3836 119.468 27.8616C119.468 28.9308 119.243 29.8113 118.791 30.5346C118.339 31.2579 117.597 31.8239 116.661 32.2641L120.179 38.6164V38.7735L116.629 38.8051L113.595 33.1132ZM110.949 30.5346L113.595 30.5032C114.434 30.5032 115.047 30.2831 115.499 29.8742C115.951 29.4654 116.177 28.8994 116.177 28.1761C116.177 27.4528 115.951 26.8553 115.531 26.4466C115.112 26.0378 114.434 25.8176 113.563 25.8176L110.917 25.8491L110.949 30.5346Z" fill="#2E3192"/>
<path d="M8.58058 31.1951C6.61197 29.4969 3.61065 29.5285 1.67432 31.258C-0.584743 33.2706 -0.55247 36.7296 1.73886 38.7108C3.70747 40.4089 6.70879 40.3775 8.64512 38.6479C10.9042 36.6668 10.8719 33.1762 8.58058 31.1951Z" fill="#C1272D"/>
<path d="M35.2704 29.7168C34.754 29.654 31.3331 29.2451 28.5254 26.8551C28.4932 26.8237 28.4932 26.8237 28.4609 26.7923C25.3627 23.3961 25.2659 18.2703 28.235 14.7797C28.4286 14.5596 28.6223 14.3395 28.8482 14.1194C31.6882 11.3206 35.4639 10.786 36.0126 10.7231H36.0449C36.0449 10.7231 36.0449 10.7231 36.0126 10.7231H36.0449H36.0771H36.1094C37.3358 10.5973 38.5621 10.0313 39.4334 9.025C41.1116 7.1382 41.1116 4.30801 39.4334 2.42122C37.4326 0.188516 33.9472 0.125623 31.8818 2.20109C31.0104 3.05015 30.5263 4.15078 30.4294 5.25141V5.28285V5.3143V5.34575C30.4294 5.34575 30.4294 5.34575 30.4294 5.3143V5.34575C30.365 5.91178 29.9131 9.59103 27.0732 12.3897C26.8796 12.5784 26.6537 12.7985 26.4277 12.9558C23.1037 15.7545 18.1983 15.9433 14.6484 13.3961C14.616 13.3647 14.5838 13.3647 14.5838 13.3331C14.1965 13.0502 13.8093 12.7042 13.5189 12.2955C11.4534 9.71682 11.0339 6.82374 11.0016 6.35204V6.3206C10.8725 5.12562 10.2916 3.93065 9.25889 3.05015C7.32255 1.41494 4.41804 1.41494 2.48172 3.05015C0.190383 4.99983 0.125838 8.39607 2.25581 10.4086C3.12716 11.2577 4.25669 11.7294 5.41849 11.8237H5.45076C5.54757 11.8237 5.74121 11.8551 6.03166 11.8867C10.6466 12.6414 14.2933 16.132 15.1324 20.5974C15.197 20.8803 15.197 21.069 15.2292 21.1634L15.2616 21.132C15.3584 22.2955 15.8747 23.4589 16.7783 24.3395C17.6819 25.1885 18.8114 25.6916 20.0056 25.7545C20.1024 25.7545 20.296 25.786 20.5865 25.8175C25.2014 26.5722 28.8804 30.0628 29.7194 34.5596C29.784 34.8425 29.784 35.0312 29.8163 35.1256C29.9131 36.2891 30.4618 37.4212 31.3977 38.3017C33.3663 40.1256 36.4966 40.1256 38.4653 38.3017C40.5952 36.3205 40.6276 33.0502 38.5622 31.069C37.5939 30.2829 36.4321 29.8111 35.2704 29.7168Z" fill="#2E3192"/>
</svg>
