<svg width="100" height="76" viewBox="0 0 100 76" fill="none" xmlns="http://www.w3.org/2000/svg">
<rect width="31.7233" height="11.5357" transform="translate(0 0.312744)" fill="white"/>
<path d="M10.2439 10.4543C10.2478 10.4543 10.2516 10.4487 10.2516 10.4487C10.2822 10.4261 10.3128 10.3978 10.3396 10.3639C10.3358 10.3639 10.332 10.3639 10.3282 10.3582C10.3014 10.3865 10.2707 10.4204 10.2439 10.4543Z" fill="#000091"/>
<path d="M14.4864 9.02498L14.4194 9.08266C14.4577 9.07305 14.4864 9.06344 14.4864 9.02498Z" fill="#000091"/>
<path fill-rule="evenodd" clip-rule="evenodd" d="M13.1148 10.4851C13.2377 10.3615 13.3606 10.2304 13.4834 10.0956H13.4797C13.7106 9.8334 13.934 9.58246 14.2021 9.354C14.284 9.27909 14.3622 9.21542 14.4367 9.16298C14.4476 9.15198 14.4532 9.13559 14.4587 9.11953C14.4644 9.10279 14.47 9.0864 14.4814 9.07684C14.4283 9.09709 14.386 9.12911 14.3435 9.16133C14.2995 9.19465 14.2552 9.22818 14.1984 9.24913C14.176 9.24913 14.1537 9.22666 14.176 9.20418C14.2542 9.148 14.3324 9.08808 14.4069 9.02815H14.392C14.3697 9.02815 14.3697 9.00568 14.3697 8.98321C14.0925 8.93918 13.8795 9.12876 13.689 9.29846L13.6771 9.30905C13.6474 9.32397 13.6194 9.30917 13.5973 9.29754C13.5862 9.29166 13.5766 9.28658 13.5691 9.28658C13.4004 9.34312 13.255 9.44735 13.1086 9.55227C12.9738 9.64891 12.8382 9.74613 12.6828 9.80718V9.76224C12.6301 9.78043 12.578 9.80414 12.5257 9.8279C12.4488 9.86287 12.3717 9.89796 12.2919 9.9158C12.1461 9.94962 12.0109 9.94526 11.8799 9.94103C11.8369 9.93965 11.7943 9.93827 11.7519 9.93827C11.5134 9.96192 11.278 10.013 11.0428 10.064L10.9662 10.0806C10.9625 10.0825 10.9588 10.0834 10.9551 10.0843C10.9513 10.0853 10.9476 10.0862 10.9439 10.0881C10.8024 10.1255 10.6721 10.178 10.5417 10.2529L10.5268 10.2604C10.5217 10.2672 10.5166 10.2733 10.5118 10.279C10.5062 10.2856 10.5011 10.2917 10.497 10.2978C10.4524 10.3503 10.4114 10.3952 10.3481 10.4289C10.2546 10.4759 10.1738 10.5484 10.0943 10.6198C10.0598 10.6507 10.0255 10.6815 9.99062 10.7098C9.98318 10.7173 9.96828 10.721 9.95711 10.721C9.84169 10.8334 9.72623 10.9458 9.60709 11.0544C9.59964 11.0619 9.56612 11.0656 9.54006 11.0619C9.54006 11.0619 9.54378 11.0619 9.54378 11.0581L9.55495 11.0357L9.61081 10.9458C9.62198 10.9289 9.63222 10.9121 9.64246 10.8952C9.6527 10.8784 9.66294 10.8615 9.67411 10.8446C9.70387 10.7997 9.73372 10.7547 9.7672 10.7136C9.77465 10.7023 9.77465 10.6911 9.7672 10.6836C9.75976 10.6761 9.74858 10.6724 9.73741 10.6724C9.8454 10.5675 9.97201 10.4776 10.1023 10.3989V10.3952C10.0874 10.3989 10.0651 10.3877 10.0763 10.3727C10.0872 10.359 10.0961 10.3432 10.1045 10.3284L10.1135 10.3128C10.1154 10.3091 10.1163 10.3062 10.1172 10.3034C10.1182 10.3006 10.1191 10.2978 10.121 10.2941C10.1191 10.2903 10.1163 10.2875 10.1135 10.2847C10.1107 10.2819 10.1079 10.2791 10.1061 10.2754L10.0835 10.2903C10.0565 10.3079 10.0287 10.3261 10.0055 10.3465C9.98908 10.3607 9.97374 10.3801 9.95801 10.4C9.92384 10.4432 9.88776 10.4888 9.83423 10.4888C9.83051 10.4888 9.81189 10.4888 9.80072 10.4851C9.78954 10.4851 9.7821 10.4813 9.77837 10.4776C9.77837 10.4757 9.77837 10.4748 9.77884 10.4743C9.77931 10.4739 9.78024 10.4739 9.7821 10.4739C9.7821 10.4739 9.78582 10.4701 9.78582 10.4664C9.78582 10.4664 9.78582 10.4626 9.78954 10.4626C9.79141 10.4589 9.79327 10.4561 9.79513 10.4533C9.79699 10.4504 9.79886 10.4476 9.80072 10.4439C9.80258 10.4401 9.80444 10.4373 9.8063 10.4345C9.80816 10.4317 9.81002 10.4289 9.81189 10.4252C9.81375 10.4233 9.81468 10.4205 9.81561 10.4177C9.81654 10.4149 9.81747 10.4121 9.81933 10.4102L9.82353 10.4025C9.82723 10.3959 9.83163 10.3881 9.83423 10.3802C9.83609 10.3765 9.83795 10.3737 9.83981 10.3709C9.84167 10.3681 9.84354 10.3652 9.8454 10.3615C9.85099 10.354 9.85564 10.3456 9.8603 10.3371C9.86495 10.3287 9.8696 10.3203 9.87519 10.3128C9.87891 10.3053 9.88264 10.2978 9.89008 10.2903C9.89381 10.2828 9.89753 10.2763 9.90126 10.2697C9.90498 10.2632 9.9087 10.2566 9.91243 10.2491C9.9236 10.2304 9.91243 10.2154 9.89753 10.2117C9.93849 10.1592 9.9869 10.1143 10.0465 10.0806H10.039C10.0904 10.0547 10.1433 10.0245 10.1958 9.99438C10.2268 9.97663 10.2582 9.95867 10.2885 9.94201C10.2997 9.93078 10.3109 9.91954 10.3258 9.91205C10.2029 9.95325 10.0912 10.0094 9.98318 10.0843C9.98318 10.0843 9.95339 10.0956 9.94594 10.1031C9.94594 10.1031 9.9236 10.1106 9.89381 10.0843C9.89008 10.0806 9.89008 10.0768 9.89008 10.0694C9.90303 10.0433 9.92972 10.0261 9.95858 10.0074C9.97953 9.99391 10.0016 9.97965 10.0204 9.96074C10.0428 9.96074 10.0614 9.96074 10.0614 9.98321C10.4902 9.64695 11.019 9.56915 11.5496 9.49109C11.876 9.44308 12.203 9.39498 12.5078 9.28658C12.5395 9.26411 12.5721 9.24257 12.6046 9.22104C12.6372 9.1995 12.6698 9.17797 12.7015 9.15549C12.7558 9.13289 12.8044 9.09418 12.856 9.05318C12.9069 9.01266 12.9606 8.96991 13.0254 8.93826C13.1967 8.80718 13.327 8.65736 13.3941 8.43639C13.3941 8.41392 13.3717 8.39144 13.3717 8.39144C13.0887 8.69482 12.7648 8.93452 12.4185 9.11055C12.0882 9.28478 11.7344 9.3106 11.3842 9.33616C11.2526 9.34577 11.1215 9.35533 10.9923 9.37272C11.0146 9.32778 11.0593 9.32778 11.1003 9.32778C11.1003 9.2746 11.1258 9.25172 11.1585 9.22236C11.1672 9.21451 11.1765 9.20617 11.1859 9.19669H11.2492C11.2604 9.19669 11.266 9.18546 11.2716 9.17422C11.2772 9.16298 11.2827 9.15175 11.2939 9.15175C11.3386 9.15175 11.4019 9.12928 11.3796 9.12928C11.3454 9.08538 11.2958 9.10276 11.241 9.12193C11.1883 9.14038 11.1309 9.1605 11.0779 9.12928C11.0976 9.10767 11.1035 9.08174 11.1089 9.05814C11.1148 9.03264 11.12 9.00986 11.1412 8.99819H11.2269C11.2269 8.95324 11.2716 8.91205 11.2716 8.91205C11.4658 8.79529 11.6533 8.69335 11.8373 8.5933C11.9602 8.52648 12.0817 8.46043 12.2025 8.39144C12.1781 8.39144 12.1564 8.40149 12.1354 8.41124C12.1019 8.42675 12.0701 8.44151 12.0312 8.41392C12.0535 8.41392 12.0535 8.398 12.0535 8.38208C12.0535 8.36616 12.0535 8.35025 12.0759 8.35025C12.2156 8.31292 12.3399 8.25244 12.4669 8.19066C12.5566 8.14705 12.6475 8.1028 12.7461 8.0656C12.7169 8.0656 12.6898 8.07348 12.6634 8.08115C12.6125 8.09593 12.5642 8.10997 12.5078 8.0656C12.5226 8.05816 12.5346 8.04866 12.5463 8.03929C12.5702 8.02036 12.5933 8.00193 12.6382 8.00193V7.93826C12.6382 7.91579 12.6605 7.91579 12.6828 7.91579C12.6605 7.91579 12.6382 7.89331 12.6382 7.89331C12.65 7.86952 12.6733 7.86462 12.6992 7.85917C12.7223 7.85432 12.7475 7.84903 12.7685 7.82964C12.7461 7.82964 12.7052 7.82964 12.7052 7.80717C12.7685 7.72103 12.8765 7.69856 12.9845 7.67608C12.9733 7.65361 12.9519 7.65361 12.9333 7.65361C12.9146 7.65361 12.8988 7.65361 12.8988 7.63114C12.8988 7.60867 12.9212 7.60867 12.9435 7.60867H12.8988C12.8637 7.59103 12.87 7.55956 12.8743 7.53778C12.8754 7.5318 12.8765 7.52656 12.8765 7.52253C12.9639 7.41946 12.9927 7.29783 13.0213 7.17689C13.0353 7.11765 13.0493 7.05857 13.0701 7.00192C13.0478 7.00192 13.0254 7.00192 13.0254 6.97945C12.816 7.21183 12.4842 7.29989 12.1689 7.38354L12.1392 7.39144H12.0312C11.9232 7.43638 11.7705 7.43638 11.6626 7.36897C11.6112 7.34202 11.5746 7.30834 11.535 7.27197C11.5086 7.24767 11.4809 7.22218 11.4466 7.19668C11.2716 7.08807 11.1003 7.00192 10.9066 6.93451C10.3667 6.76222 9.80444 6.67233 9.24216 6.6948C9.39918 6.60844 9.5659 6.5741 9.73486 6.53929C9.82234 6.52127 9.91042 6.50313 9.99807 6.47757C10.0534 6.46129 10.1081 6.44449 10.1626 6.42778C10.4715 6.3331 10.7711 6.24124 11.1003 6.26035C11.0572 6.24505 11.002 6.25058 10.9512 6.25567C10.9274 6.25805 10.9045 6.26035 10.8843 6.26035C10.6354 6.2418 10.384 6.29722 10.1216 6.35505C10.0661 6.36729 10.01 6.37965 9.95339 6.39143C9.85064 6.41281 9.75294 6.44352 9.6551 6.47428C9.54727 6.50817 9.43926 6.54212 9.32409 6.56372C9.27413 6.58095 9.23402 6.61028 9.19495 6.63885C9.1321 6.68482 9.07193 6.72882 8.97778 6.71728V6.64986C9.19376 6.38769 9.45441 6.12926 9.80072 6.10679C10.1355 6.05227 10.4511 6.0911 10.7804 6.13161C10.8357 6.13841 10.8914 6.14527 10.9476 6.15173C11.2175 6.17345 11.4701 6.23365 11.7422 6.29853L11.7705 6.30529C11.8301 6.30529 11.8636 6.35773 11.8961 6.40853C11.9225 6.4498 11.9481 6.48997 11.9865 6.50005C12.0395 6.51833 12.0925 6.52174 12.1456 6.52515C12.2229 6.53012 12.3002 6.53509 12.3775 6.58619C12.3775 6.57107 12.375 6.55637 12.3725 6.54181C12.3675 6.5131 12.3627 6.48492 12.3775 6.4551C12.4255 6.40678 12.4806 6.41974 12.5348 6.43251C12.5773 6.4425 12.6192 6.45236 12.6568 6.43263C12.7749 6.35935 12.6641 6.24685 12.5532 6.13425C12.4998 6.07996 12.4463 6.02565 12.4185 5.9757C12.4185 5.95323 12.4408 5.93075 12.4408 5.93075C12.4897 5.97459 12.5353 6.01996 12.5804 6.06493C12.6935 6.17749 12.8041 6.28761 12.9584 6.36521C13.0664 6.41016 13.327 6.47383 13.2824 6.34274C13.2059 6.17297 13.0752 6.02574 12.9433 5.8771C12.889 5.81588 12.8344 5.75442 12.7834 5.69105V5.60491C12.7494 5.60491 12.7413 5.59194 12.7312 5.57586C12.728 5.57077 12.7246 5.56537 12.7201 5.55997V5.47382C12.6655 5.44518 12.6533 5.39979 12.641 5.35416C12.634 5.3282 12.6269 5.30215 12.6121 5.27907C12.5748 5.21858 12.5721 5.14416 12.5693 5.06744C12.5671 5.00639 12.5649 4.94389 12.5451 4.88581C12.5004 4.75472 12.4818 4.6461 12.4594 4.51502C12.4352 4.38091 12.4085 4.25268 12.3824 4.12714C12.3363 3.90559 12.2919 3.69239 12.2658 3.47007C12.2313 3.15229 12.3918 2.88353 12.5559 2.6088C12.6045 2.52735 12.6535 2.44537 12.6977 2.36145C12.8504 2.09927 13.0217 1.84084 13.3047 1.66481C13.3664 1.40911 13.5344 1.19616 13.7016 0.984259L13.7143 0.968179C13.8793 0.762546 14.1548 0.636836 14.3579 0.54419L14.3808 0.533719C14.6825 0.398887 14.9543 0.312744 14.958 0.312744H0V11.8446H10.6125C10.8963 11.6389 11.1784 11.5091 11.5142 11.3546C11.6674 11.2841 11.8317 11.2084 12.0126 11.1181C12.0509 11.0988 12.0964 11.0764 12.1469 11.0516C12.45 10.9024 12.9329 10.6649 13.1148 10.4851ZM9.74733 8.92926C9.70523 8.93348 9.66059 8.93797 9.67744 8.90414C9.69307 8.82834 9.7707 8.80561 9.84649 8.78342C9.87896 8.77392 9.91108 8.76451 9.93785 8.75108L9.9501 8.74475L9.95904 8.74002C10.001 8.71772 10.0524 8.69041 10.0904 8.70628C10.116 8.74266 10.1477 8.75205 10.1785 8.76118C10.2014 8.76798 10.2239 8.77462 10.2429 8.79215C10.1624 8.87291 10.0685 8.88087 9.97327 8.88895C9.91002 8.89431 9.84619 8.89973 9.78532 8.92654C9.7744 8.92654 9.76098 8.92789 9.74733 8.92926ZM6.45293 8.40258C6.45293 8.42505 6.47527 8.44752 6.47527 8.44752C6.99659 7.8595 7.4695 7.35763 8.13976 6.94189C8.1577 6.93437 8.15103 6.94376 8.14216 6.95624C8.12894 6.97484 8.11085 7.00029 8.1621 6.98684C8.384 6.93625 8.48365 6.74616 8.58061 6.56122C8.60568 6.5134 8.63057 6.46592 8.65735 6.42129C8.75903 6.25591 8.90346 6.14995 9.04899 6.04318C9.15394 5.96618 9.25946 5.88876 9.34995 5.78833C9.34995 5.8108 9.34995 5.83327 9.32761 5.85575C9.34995 5.87822 9.37229 5.87822 9.39464 5.87822C9.43392 5.84858 9.4768 5.83632 9.5179 5.82456C9.5703 5.80957 9.61982 5.79541 9.65529 5.74713C9.48401 5.67971 9.26431 5.65724 9.09302 5.72466C8.63873 5.94189 8.25147 6.2902 7.88282 6.68347C7.6594 6.91942 7.42854 7.1404 7.14554 7.29396C6.9519 7.68347 6.73593 8.03179 6.45293 8.40258ZM8.27083 7.00963C8.25916 7.03305 8.24749 7.04525 8.23635 7.05689C8.2262 7.06751 8.21646 7.07769 8.20759 7.09549C8.18527 7.14029 8.16294 7.15896 8.12202 7.18136C8.0997 7.18136 8.07738 7.18136 8.07738 7.15896C8.0997 7.07309 8.16294 6.98723 8.24851 6.96483C8.27083 6.96856 8.27083 6.99096 8.27083 7.00963ZM9.22304 10.3357C9.24164 10.317 9.26396 10.2945 9.27512 10.2721C9.29372 10.2271 9.17839 10.2384 9.15979 10.2496C9.14291 10.2632 9.13216 10.2768 9.1192 10.2932L9.11515 10.2983C9.09963 10.3161 9.08147 10.3327 9.06303 10.3494C9.05053 10.3608 9.03789 10.3723 9.02587 10.3844C8.97378 10.4369 8.9217 10.4893 8.8659 10.538C8.8287 10.5717 8.94774 10.5867 8.97378 10.5642C9.00355 10.5417 9.02959 10.5155 9.05563 10.4893C9.06555 10.4893 9.07547 10.4876 9.08208 10.4865L9.08663 10.4858L9.08911 10.4856C9.15078 10.4649 9.19667 10.4219 9.24132 10.3802L9.2528 10.3694C9.26768 10.3545 9.24908 10.3395 9.22304 10.3357ZM8.88637 10.0922C8.88595 10.0922 8.88565 10.0924 8.88545 10.0926C8.88498 10.093 8.88498 10.094 8.88498 10.0958C8.86214 10.1115 8.83959 10.1275 8.81709 10.1434C8.75888 10.1846 8.70099 10.2255 8.63922 10.2606C8.58015 10.2939 8.51958 10.3227 8.45847 10.3517C8.42327 10.3684 8.38788 10.3852 8.35249 10.403C8.35249 10.403 8.35249 10.3992 8.34877 10.3992C8.34132 10.388 8.32643 10.3842 8.31153 10.3917C8.22961 10.4367 8.15886 10.4966 8.09556 10.5603C8.08439 10.5678 8.07322 10.579 8.06577 10.5902L8.03226 10.6239V10.6277C8.01736 10.6427 8.00247 10.6576 7.98385 10.6801C7.97998 10.684 7.977 10.6879 7.97415 10.6916C7.96876 10.6987 7.96379 10.7052 7.95406 10.7101C7.93917 10.7176 7.90193 10.7176 7.90565 10.6951V10.6914C7.89448 10.6988 7.87959 10.7063 7.86842 10.7101C7.86283 10.7138 7.85725 10.7166 7.85166 10.7194C7.84607 10.7223 7.84049 10.7251 7.8349 10.7288C7.83118 10.7251 7.82373 10.7251 7.82001 10.7251C7.81628 10.7251 7.80884 10.7251 7.80511 10.7288C7.79643 10.7363 7.78774 10.7434 7.77905 10.7504C7.76167 10.7646 7.74429 10.7787 7.72692 10.7962C7.68223 10.8374 7.64127 10.8824 7.60031 10.9311C7.60031 10.9311 7.60031 10.9348 7.59659 10.9348C7.59659 10.9367 7.59566 10.9376 7.59473 10.9385C7.5938 10.9395 7.59286 10.9404 7.59286 10.9423L7.58542 10.9498C7.58399 10.9512 7.58312 10.9526 7.58236 10.9539C7.58115 10.9558 7.58027 10.9573 7.57797 10.9573L7.57425 10.961C7.57052 10.9685 7.5668 10.976 7.55935 10.9835C7.55563 10.9872 7.54818 10.991 7.54073 10.991C7.53701 10.9872 7.53329 10.9835 7.53329 10.9797C7.53142 10.9779 7.53049 10.976 7.52956 10.9741C7.52863 10.9723 7.5277 10.9704 7.52584 10.9685C7.52211 10.9629 7.51932 10.9573 7.51653 10.9517C7.51374 10.946 7.51094 10.9404 7.50722 10.9348V10.9311C7.50722 10.9292 7.50629 10.9273 7.50536 10.9254C7.50443 10.9236 7.5035 10.9217 7.5035 10.9198L7.57052 10.8412L7.57425 10.8374C7.57797 10.8337 7.58169 10.829 7.58541 10.8243C7.58913 10.8196 7.59286 10.815 7.59659 10.8112C7.60217 10.8037 7.60869 10.7962 7.6152 10.7887C7.62172 10.7812 7.62824 10.7738 7.63382 10.7663C7.63569 10.7625 7.63755 10.7597 7.63941 10.7569C7.64127 10.7541 7.64313 10.7513 7.645 10.7475C7.66734 10.7176 7.68968 10.6876 7.71202 10.6539V10.6502C7.71575 10.6464 7.71947 10.6427 7.71947 10.6352C7.73064 10.6202 7.74181 10.6052 7.74926 10.5902L7.7716 10.5453V10.5415L7.77532 10.5378C7.77532 10.5359 7.77626 10.535 7.77719 10.5341C7.77812 10.5331 7.77905 10.5322 7.77905 10.5303C7.78277 10.5209 7.78649 10.5125 7.79021 10.5041C7.79393 10.4957 7.79767 10.4872 7.80139 10.4779V10.4741L7.80511 10.4591C7.80698 10.4554 7.80791 10.4517 7.80884 10.4479C7.80977 10.4442 7.8107 10.4404 7.81256 10.4367V10.4329C7.81442 10.4273 7.81535 10.4217 7.81628 10.4161C7.81722 10.4105 7.81815 10.4048 7.82001 10.3992C7.82001 10.3955 7.82001 10.388 7.81628 10.3842C7.83863 10.343 7.86842 10.3056 7.90193 10.2681C7.90007 10.2681 7.89821 10.2691 7.89634 10.27C7.89528 10.2705 7.89421 10.2711 7.89314 10.2714C7.89235 10.2717 7.89155 10.2719 7.89076 10.2719C7.87418 10.2823 7.85992 10.2962 7.84539 10.3103C7.8338 10.3216 7.82205 10.3331 7.80884 10.343C7.7865 10.3618 7.74181 10.3318 7.7716 10.3093C7.79021 10.2944 7.80511 10.2794 7.82 10.2644C7.82 10.2644 7.82001 10.2606 7.82373 10.2606C7.83858 10.2472 7.85283 10.232 7.86719 10.2166C7.88886 10.1935 7.91082 10.17 7.93544 10.152C7.96151 10.1333 7.98013 10.1183 8.00247 10.0996C8.00619 10.0958 8.00992 10.0921 8.01364 10.0921C8.02853 10.0734 8.04343 10.0546 8.06205 10.0359C8.06205 10.0359 8.06577 10.0359 8.06577 10.0322C8.19365 9.90815 8.37333 9.86441 8.55674 9.81976C8.67242 9.7916 8.78957 9.76307 8.89615 9.71382C8.95634 9.68877 9.02348 9.69863 9.08982 9.70837C9.14249 9.71611 9.19466 9.72377 9.24245 9.71382C9.30576 9.71382 9.37278 9.71382 9.43608 9.75877C9.28885 9.83717 9.14832 9.92683 9.00931 10.0155C8.96906 10.0412 8.92883 10.0669 8.8887 10.0921C8.88766 10.0921 8.88691 10.0921 8.88637 10.0922ZM9.35169 8.56568C9.33426 8.56768 9.32296 8.56898 9.33264 8.57872C9.39595 8.64239 9.52628 8.61992 9.61565 8.57123C9.67895 8.52628 9.74597 8.52628 9.83162 8.52628C9.85396 8.52628 9.85396 8.48509 9.85396 8.46261C9.91726 8.48509 9.96195 8.48509 10.0252 8.48509C10.5428 8.37647 11.0418 8.26786 11.5184 8.02815C11.0362 7.65552 10.4416 7.48953 9.85924 7.32694C9.76262 7.29997 9.66634 7.27309 9.57096 7.24538C9.59193 7.24538 9.61289 7.25236 9.63399 7.25939C9.6766 7.27358 9.71976 7.28796 9.76459 7.24538C9.70551 7.19825 9.63974 7.18923 9.57459 7.18031C9.52068 7.17292 9.46719 7.1656 9.41829 7.13676C9.42339 7.13676 9.42946 7.13793 9.43606 7.13921C9.45836 7.14351 9.48669 7.14897 9.50393 7.11429C9.39082 7.05741 9.27771 7.03809 9.16353 7.01858C9.1048 7.00855 9.04579 6.99847 8.98634 6.9832C9.09433 6.96073 9.16136 6.87459 9.16136 6.76597C9.16136 6.7435 9.11667 6.7435 9.09433 6.7435C8.8374 6.87459 8.66238 7.11429 8.5544 7.39519C8.65175 7.45251 8.75668 7.44587 8.85952 7.43935C8.91795 7.43565 8.97571 7.43199 9.03103 7.44014C8.9822 7.48652 8.91164 7.49911 8.84381 7.51122C8.81853 7.51573 8.79363 7.52018 8.77037 7.52628C8.70334 7.54126 8.64004 7.58995 8.66238 7.63489C8.67728 7.65362 8.69217 7.66111 8.71079 7.66486C8.66238 7.67984 8.6177 7.70231 8.57674 7.74351C8.63804 7.79176 8.70125 7.78245 8.76364 7.77326C8.78841 7.76961 8.81306 7.76598 8.8374 7.76598C8.8374 7.79318 8.85525 7.80242 8.87382 7.81203C8.88337 7.81697 8.89311 7.82202 8.9007 7.82965C8.79271 7.87085 8.70707 7.96074 8.68473 8.02441C8.65803 8.08929 8.60876 8.13145 8.55991 8.17324C8.52698 8.20142 8.49424 8.22942 8.46875 8.26411V8.33153C8.39682 8.3953 8.32288 8.45224 8.24996 8.50841C8.10018 8.62377 7.95465 8.73586 7.83945 8.89707C7.86179 8.89707 7.86179 8.91955 7.86179 8.94202C7.84119 8.9731 7.81188 8.99463 7.78408 9.01505C7.75159 9.03892 7.72116 9.06126 7.70912 9.09558C7.70912 9.11805 7.70912 9.14052 7.73146 9.14052C7.86811 9.09536 7.98633 9.01933 8.10223 8.94479C8.20741 8.87713 8.31068 8.81072 8.42407 8.76973C8.51673 8.74744 8.59741 8.70543 8.67612 8.66444C8.7429 8.62965 8.80828 8.59561 8.87836 8.57497C8.93235 8.56374 8.99193 8.54782 9.05151 8.5319C9.11109 8.51598 9.17066 8.50007 9.22466 8.48883C9.22466 8.5113 9.22466 8.53377 9.247 8.53377H9.41829C9.40774 8.55924 9.37447 8.56306 9.35169 8.56568Z" fill="#000091"/>
<path d="M31.7236 0.312744H19.3194C19.3194 0.312744 19.3419 0.316494 19.4357 0.365248C19.5369 0.417751 19.6681 0.489005 19.7469 0.530258C19.9081 0.612763 20.0619 0.71777 20.1631 0.87903C20.2081 0.942784 20.2719 1.07404 20.2306 1.1603C20.1856 1.26906 20.1631 1.44532 20.0544 1.48657C19.9231 1.55407 19.7506 1.55407 19.5969 1.53157C19.5107 1.53157 19.4244 1.50907 19.3344 1.48657C19.6606 1.61783 19.9681 1.77159 20.1856 2.07536C20.2081 2.12036 20.2944 2.13911 20.3806 2.13911C20.4031 2.13911 20.4031 2.18411 20.4031 2.20287C20.3581 2.24787 20.3169 2.27037 20.3394 2.33412H20.4031C20.5118 2.28912 20.4893 2.07161 20.6431 2.13911C20.7518 2.20287 20.7968 2.35663 20.7293 2.46538C20.6431 2.55164 20.5568 2.61914 20.4668 2.6829C20.4443 2.7279 20.4443 2.79165 20.4668 2.83666C20.5306 2.92291 20.5531 3.00917 20.5756 3.09917C20.6431 3.25293 20.6618 3.42544 20.7293 3.5792C20.8156 3.90547 20.9018 4.23175 20.8831 4.56177C20.8831 4.73428 20.7968 4.88804 20.8606 5.0643C20.9056 5.23681 21.0143 5.36807 21.1005 5.52183C21.1868 5.65309 21.273 5.73934 21.3405 5.8706C21.4718 6.08811 21.7118 6.30563 21.603 6.56814C21.5393 6.7219 21.2993 6.6994 21.1455 6.78566C21.0143 6.89442 21.123 7.07068 21.1905 7.17943C21.2993 7.37445 21.0593 7.5057 20.9056 7.57321C20.9506 7.64071 21.0368 7.61821 21.0593 7.65946C21.0818 7.76822 21.1905 7.83198 21.123 7.94448C21.0368 8.07574 20.7743 8.1395 20.9056 8.33826C20.9918 8.49202 20.9356 8.66078 20.8831 8.81829C20.8193 9.0133 20.6431 9.09956 20.4893 9.14456C20.3581 9.18956 20.2044 9.18956 20.0769 9.16706C20.0319 9.14456 19.9906 9.12206 19.9456 9.12206C19.5744 9.07705 19.2032 8.97205 18.8357 8.97205C18.727 8.99455 18.6182 9.0133 18.532 9.0583C18.4345 9.12956 18.3445 9.20831 18.2695 9.29082C18.2695 9.29082 18.2695 9.29082 18.2657 9.29457C18.2507 9.31332 18.232 9.32832 18.217 9.34707C18.2095 9.35832 18.1982 9.36957 18.1907 9.38082C18.1832 9.38833 18.1795 9.39583 18.172 9.40333C18.1082 9.48208 18.052 9.56834 17.9995 9.65459C17.9958 9.66209 17.992 9.66584 17.9883 9.66959C17.9845 9.68084 17.977 9.68835 17.9695 9.6996C17.8983 9.83085 17.8458 9.96586 17.8045 10.1009C17.6545 10.5997 17.722 11.0272 17.827 11.1322C17.857 11.1622 18.547 11.376 19.0269 11.5897C19.2519 11.691 19.4094 11.766 19.5407 11.8485H31.7198V0.312744H31.7236Z" fill="#E1000F"/>
<path d="M20.056 4.5182C20.142 4.54067 20.2729 4.54067 20.2729 4.58562C20.228 4.7579 19.97 4.80285 19.8391 4.97888H19.7718C19.7082 5.02382 19.7269 5.13244 19.6633 5.13244C19.5997 5.10996 19.5324 5.13244 19.4688 5.15491C19.5548 5.24105 19.6633 5.30847 19.7942 5.28599C19.8166 5.28599 19.8578 5.33094 19.8578 5.37214C19.8578 5.37214 19.8802 5.37214 19.9027 5.34967C19.9251 5.34967 19.9475 5.34967 19.9475 5.37214V5.45828C19.884 5.54442 19.7718 5.50322 19.6857 5.52195C19.8615 5.5669 20.0336 5.5669 20.1869 5.52195C20.3178 5.47701 20.1869 5.25978 20.2729 5.15116C20.228 5.15116 20.2729 5.08375 20.228 5.08375C20.2729 5.0388 20.3141 4.97513 20.3589 4.95266C20.4038 4.95266 20.4674 4.93019 20.4898 4.88524C20.4898 4.8403 20.4038 4.82157 20.4225 4.77663C20.5534 4.69049 20.6619 4.5594 20.617 4.42831C20.5946 4.3609 20.4225 4.3609 20.3141 4.3197C20.2056 4.2785 20.0747 4.3197 19.9438 4.34217C19.8353 4.34217 19.7269 4.40958 19.6184 4.42831C19.4651 4.47326 19.3342 4.5594 19.207 4.64554C19.3604 4.58187 19.51 4.5594 19.6857 4.51445C19.8166 4.5182 19.9251 4.48824 20.056 4.5182" fill="#808080"/>
<path d="M1.18818 26.6937V18.6187H3.23001L5.20262 22.0102L7.17523 18.6187H9.21705V26.6937H7.57898V20.9028L5.77941 23.9251H4.62583L2.82626 20.9028V26.6937H1.18818ZM11.6438 26.6937V18.6187H13.2819V26.6937H11.6438ZM15.7119 26.6937V18.6187H17.8115L21.4221 24.4558V18.6187H23.0602V26.6937H20.9607L17.35 20.8566V26.6937H15.7119ZM25.4916 26.6937V18.6187H27.1297V26.6937H25.4916ZM28.833 25.5748L30.0212 24.4789C30.5057 25.1018 31.1517 25.4709 31.8093 25.4709C32.4553 25.4709 32.8475 25.1249 32.8475 24.5481C32.8475 23.06 29.1791 23.4637 29.1791 20.7297C29.1791 19.4493 30.2404 18.388 31.7862 18.388C32.9974 18.388 33.9203 18.9302 34.6124 19.7492L33.4127 20.8336C32.9398 20.2222 32.4091 19.8184 31.7977 19.8184C31.2209 19.8184 30.8403 20.1876 30.8403 20.6721C30.8403 22.1371 34.5086 21.7218 34.5086 24.4904C34.4855 26.0131 33.3089 26.9244 31.8208 26.9244C30.4596 26.9244 29.5483 26.4284 28.833 25.5748ZM35.5123 20.1068V18.6187H42.1338V20.1068H39.6421V26.6937H38.004V20.1068H35.5123ZM45.3721 17.9266L43.884 16.3692H45.5682L46.8718 17.9266H45.3721ZM43.7456 26.6937V18.6187H48.4522V19.9799H45.3837V21.8949H47.9907V23.2561H45.3837V25.3325H48.4522V26.6937H43.7456ZM50.5287 26.6937V18.6187H52.9973C54.7738 18.6187 55.8697 19.53 55.8697 21.0297C55.8697 22.0102 55.3968 22.737 54.5662 23.1176L57.0925 26.6937H55.1661L53.0089 23.4291H52.1668V26.6937H50.5287ZM53.0896 19.9799H52.1668V22.0679H53.0896C53.7818 22.0679 54.1855 21.6641 54.1855 21.0066C54.1855 20.3952 53.7818 19.9799 53.0896 19.9799ZM58.3032 26.6937V18.6187H63.0097V19.9799H59.9412V21.8949H62.5483V23.2561H59.9412V25.3325H63.0097V26.6937H58.3032ZM1.18818 37.6937V29.6187H4.36051C6.92144 29.6187 8.6518 31.476 8.6518 33.6562C8.6518 35.8365 6.92144 37.6937 4.36051 37.6937H1.18818ZM4.38358 31.1068H2.82626V36.2056H4.38358C5.88323 36.2056 6.96759 35.0866 6.96759 33.6562C6.96759 32.2142 5.88323 31.1068 4.38358 31.1068ZM10.4046 37.6937V29.6187H15.1112V30.9799H12.0427V32.8949H14.6498V34.2561H12.0427V36.3325H15.1112V37.6937H10.4046ZM20.3546 37.6937V29.6187H21.9927V36.2056H25.0612V37.6937H20.3546ZM26.2454 32.941H24.8842L25.9224 29.6187H27.5836L26.2454 32.941ZM32.1117 28.9266H30.6236L31.9271 27.3692H33.6114L32.1117 28.9266ZM29.0317 37.6937V29.6187H33.7382V30.9799H30.6697V32.8949H33.2768V34.2561H30.6697V36.3325H33.7382V37.6937H29.0317ZM35.8148 37.6937V29.6187H38.9871C41.548 29.6187 43.2784 31.476 43.2784 33.6562C43.2784 35.8365 41.548 37.6937 38.9871 37.6937H35.8148ZM39.0102 31.1068H37.4528V36.2056H39.0102C40.5098 36.2056 41.5942 35.0866 41.5942 33.6562C41.5942 32.2142 40.5098 31.1068 39.0102 31.1068ZM49.7933 34.6714V29.6187H51.4314V34.5329C51.4314 36.6555 50.1855 37.9244 48.1552 37.9244C46.1365 37.9244 44.8906 36.6555 44.8906 34.5329V29.6187H46.5287V34.6714C46.5287 35.7557 47.1401 36.3902 48.1668 36.3902C49.1704 36.3902 49.7933 35.7557 49.7933 34.6714ZM57.3286 36.3902C58.2514 36.3902 58.9782 35.9403 59.4396 35.2828L60.7316 36.2748C59.9933 37.2784 58.7936 37.9244 57.3286 37.9244C54.7792 37.9244 53.0373 35.9634 53.0373 33.6562C53.0373 31.3491 54.7792 29.388 57.3286 29.388C58.7936 29.388 59.9933 30.0455 60.7316 31.0261L59.4396 32.0297C58.9782 31.3721 58.2514 30.9222 57.3286 30.9222C55.8058 30.9222 54.7215 32.1104 54.7215 33.6562C54.7215 35.202 55.8058 36.3902 57.3286 36.3902ZM61.2548 37.6937L64.3117 29.6187H66.4574L69.5144 37.6937H67.7725L66.9996 35.5942H63.7696L62.9967 37.6937H61.2548ZM64.2771 34.1984H66.492L65.3846 31.1645L64.2771 34.1984ZM69.2927 31.1068V29.6187H75.9142V31.1068H73.4224V37.6937H71.7844V31.1068H69.2927ZM77.5259 37.6937V29.6187H79.164V37.6937H77.5259ZM85.1932 29.388C87.7311 29.388 89.473 31.3491 89.473 33.6562C89.473 35.9634 87.7311 37.9244 85.1932 37.9244C82.6438 37.9244 80.9019 35.9634 80.9019 33.6562C80.9019 31.3491 82.6438 29.388 85.1932 29.388ZM85.1932 36.3902C86.7044 36.3902 87.7888 35.202 87.7888 33.6562C87.7888 32.1104 86.7044 30.9222 85.1932 30.9222C83.6705 30.9222 82.5862 32.1104 82.5862 33.6562C82.5862 35.202 83.6705 36.3902 85.1932 36.3902ZM91.2161 37.6937V29.6187H93.3156L96.9262 35.4558V29.6187H98.5643V37.6937H96.4648L92.8541 31.8566V37.6937H91.2161ZM1.18818 49.6937V41.6187H3.28769L6.89837 47.4558V41.6187H8.53645V49.6937H6.43694L2.82626 43.8566V49.6937H1.18818ZM9.95273 49.6937L13.0097 41.6187H15.1553L18.2123 49.6937H16.4704L15.6975 47.5942H12.4675L11.6946 49.6937H9.95273ZM12.9751 46.1984H15.19L14.0825 43.1645L12.9751 46.1984ZM17.9906 43.1068V41.6187H24.6121V43.1068H22.1204V49.6937H20.4823V43.1068H17.9906ZM26.2239 49.6937V41.6187H27.862V49.6937H26.2239ZM33.8912 41.388C36.429 41.388 38.1709 43.3491 38.1709 45.6562C38.1709 47.9634 36.429 49.9244 33.8912 49.9244C31.3418 49.9244 29.5999 47.9634 29.5999 45.6562C29.5999 43.3491 31.3418 41.388 33.8912 41.388ZM33.8912 48.3902C35.4024 48.3902 36.4867 47.202 36.4867 45.6562C36.4867 44.1104 35.4024 42.9222 33.8912 42.9222C32.3685 42.9222 31.2841 44.1104 31.2841 45.6562C31.2841 47.202 32.3685 48.3902 33.8912 48.3902ZM39.914 49.6937V41.6187H42.0135L45.6242 47.4558V41.6187H47.2623V49.6937H45.1628L41.5521 43.8566V49.6937H39.914ZM48.6786 49.6937L51.7355 41.6187H53.8812L56.9381 49.6937H55.1963L54.4234 47.5942H51.1934L50.4205 49.6937H48.6786ZM51.7009 46.1984H53.9158L52.8084 43.1645L51.7009 46.1984ZM58.3581 49.6937V41.6187H59.9962V48.2056H63.0647V49.6937H58.3581ZM64.6794 49.6937V41.6187H69.3859V42.9799H66.3174V44.8949H68.9245V46.2561H66.3174V48.3325H69.3859V49.6937H64.6794Z" fill="black"/>
<path fill-rule="evenodd" clip-rule="evenodd" d="M29.9737 70.5101L28.9007 71.4906H28.6238L29.2584 70.3717H29.9737V70.5101ZM29.2007 74.3048H28.97C28.6815 74.6509 28.3585 74.9277 28.047 74.9277C27.7239 74.9277 27.5624 74.7316 27.5624 74.3048C27.5624 74.1318 27.5855 73.9472 27.6201 73.7857L29.5007 73.1628C29.8699 72.2862 29.4315 71.9055 28.9123 71.9055C28.0239 71.9055 27.0086 73.4627 27.0086 74.7085C27.0086 75.2968 27.2855 75.6198 27.7239 75.6198C28.2316 75.6083 28.7623 75.1123 29.2007 74.3048ZM28.5553 72.4134C28.8092 72.4134 29.0284 72.6095 28.913 73.0593L27.7477 73.3708C27.9323 72.8171 28.2784 72.4134 28.5553 72.4134ZM24.887 72.4361H25.51L24.5178 75.1584C24.4255 75.3891 24.5524 75.6198 24.7947 75.6198C25.4985 75.6198 26.3407 75.02 26.6637 74.1664H26.4907C26.2368 74.524 25.6831 74.9162 25.2677 74.9854L26.1792 72.4361H27.1137L27.2291 72.0439H26.3176L26.6637 71.0635H26.3061L25.66 72.0439L24.887 72.1478V72.4361ZM24.021 71.9177C24.1479 71.9177 24.321 72.0561 24.2402 72.3099L23.1211 75.0206C23.4096 74.9745 23.7095 74.6977 23.8826 74.4439H24.0672C23.8018 75.1245 23.2019 75.6205 22.6827 75.6205C22.5558 75.6205 22.3712 75.482 22.4635 75.2283L23.5018 72.5175C23.2134 72.5637 22.9134 72.8405 22.7404 73.0943H22.5673C22.8327 72.4022 23.4788 71.9177 24.021 71.9177ZM24.3448 71.2253C24.5756 71.2253 24.7717 71.0407 24.7717 70.7985C24.7717 70.5678 24.5756 70.3717 24.3448 70.3717C24.1026 70.3717 23.918 70.5678 23.918 70.7985C23.918 71.0292 24.1141 71.2253 24.3448 71.2253ZM19.3028 73.4749C19.5567 72.9213 19.4644 72.6675 19.3028 72.6675C19.1644 72.6675 19.0029 72.8174 18.8413 73.0943H18.6683C18.9336 72.506 19.2798 71.9177 19.6605 71.9177C19.9835 71.9177 20.0989 72.2407 20.0989 72.5983V73.1058C20.1508 73.0454 20.2014 72.9861 20.2508 72.9282L20.2517 72.9271L20.2524 72.9263C20.7398 72.3543 21.112 71.9177 21.5411 71.9177C21.8757 71.9177 22.0487 72.1253 22.0487 72.4368C22.0487 72.6213 21.9911 72.852 21.8641 73.0943L20.9065 75.0206C21.195 74.9745 21.4949 74.6977 21.668 74.4439H21.8411C21.5757 75.136 20.9296 75.6205 20.3874 75.6205C20.1451 75.6205 20.0066 75.3667 20.1105 75.1591L21.218 73.0251C21.345 72.7828 21.368 72.6213 21.1719 72.6213C20.9065 72.6213 20.2835 73.0597 19.9489 73.4634L19.2221 75.3782C19.1413 75.5743 19.0606 75.6205 18.876 75.6205C18.576 75.6205 18.426 75.4244 18.5644 75.1129L19.3028 73.4749ZM18.5521 72.736C18.679 72.2977 18.6097 71.9055 18.2752 71.9055C17.8579 71.9055 17.7272 72.181 17.3229 73.0337L17.2945 73.0936V72.5861C17.2945 72.2285 17.1791 71.9055 16.8561 71.9055C16.4753 71.9055 16.1292 72.4938 15.8638 73.0821H16.0369C16.2215 72.8168 16.3946 72.6553 16.533 72.6553C16.6945 72.6553 16.7868 72.9091 16.533 73.4627L15.7946 75.1007C15.6562 75.4122 15.8061 75.6083 16.1061 75.6083C16.2907 75.6083 16.3715 75.5621 16.4522 75.366L17.1791 73.4512C17.3868 73.1974 17.5714 72.9783 17.8021 72.736H18.5521ZM14.9065 73.0593C15.0219 72.6095 14.8027 72.4134 14.5488 72.4134C14.2719 72.4134 13.9258 72.8171 13.7412 73.3708L14.9065 73.0593ZM15.1942 74.3048H14.9635C14.675 74.6509 14.352 74.9277 14.0405 74.9277C13.7174 74.9277 13.5559 74.7316 13.5559 74.3048C13.5559 74.1318 13.579 73.9472 13.6136 73.7857L15.4942 73.1628C15.8634 72.2862 15.425 71.9055 14.9058 71.9055C14.0174 71.9055 13.0021 73.4627 13.0021 74.7085C13.0021 75.2968 13.279 75.6198 13.7174 75.6198C14.2251 75.6083 14.7558 75.1123 15.1942 74.3048ZM11.5035 72.4361H10.8805V72.1478L11.6535 72.0439L12.2996 71.0635H12.6572L12.3111 72.0439H13.2226L13.1072 72.4361H12.1727L11.2612 74.9854C11.6766 74.9162 12.2304 74.524 12.4842 74.1664H12.6572C12.3342 75.02 11.492 75.6198 10.7882 75.6198C10.5459 75.6198 10.419 75.3891 10.5113 75.1584L11.5035 72.4361ZM7.58136 74.5473C7.58136 73.7053 8.51589 72.5748 9.03508 72.5748C9.15045 72.5748 9.26582 72.5864 9.35812 72.621L8.81586 74.0744C8.50435 74.455 8.01978 74.9164 7.78904 74.9164C7.66212 74.9164 7.58136 74.8011 7.58136 74.5473ZM10.1545 71.7328L10.4429 71.7558L9.43917 74.0629C9.19689 74.6165 9.30072 74.8703 9.43917 74.8703C9.57762 74.8703 9.75068 74.7088 9.93528 74.4435H10.1083C9.84298 75.0318 9.49686 75.6201 9.11613 75.6201C8.79308 75.6201 8.59694 75.274 8.65463 74.6512L8.6777 74.432L8.61487 74.5197C8.20159 75.0974 7.82763 75.6201 7.4432 75.6201C7.10862 75.6201 6.93556 75.4125 6.93556 75.101C6.93556 73.763 8.40081 72.0558 9.77376 72.0558H9.83145L10.1545 71.7328ZM7.51171 72.736C7.63862 72.2977 7.56939 71.9055 7.23481 71.9055C6.81754 71.9055 6.68688 72.181 6.28253 73.0337L6.25413 73.0936V72.5861C6.25413 72.2285 6.13875 71.9055 5.81571 71.9055C5.43497 71.9055 5.08885 72.4938 4.82349 73.0821H4.99655C5.18115 72.8168 5.35421 72.6553 5.48112 72.6553C5.64265 72.6553 5.73494 72.9091 5.48112 73.4627L4.74273 75.1123C4.60428 75.4237 4.75426 75.6198 5.05424 75.6198C5.23884 75.6198 5.3196 75.5737 5.40036 75.3776L6.12722 73.4627C6.33489 73.209 6.51949 72.9898 6.75024 72.7476H7.51171V72.736ZM2.75744 75.273L2.68822 75.4807H0L0.0692245 75.2615C0.899918 75.1116 1.03837 75.0423 1.38449 74.108L2.13442 72.1009C2.46901 71.1666 2.39978 71.0973 1.67292 70.9474L1.74215 70.7398H5.23798L5.03031 71.8587H4.77649C4.77649 71.1896 4.70726 71.0166 4.07271 71.0166H3.91118C3.28816 71.0166 3.2074 71.1089 3.03434 71.5934L2.53823 72.943H3.26509C3.74966 72.943 3.93426 72.643 4.15347 72.2509H4.40729L3.80735 73.8888H3.55352C3.61121 73.3928 3.61121 73.1967 3.16125 73.1967H2.43439L2.09981 74.1195C1.73813 75.08 1.84149 75.0996 2.70272 75.2627C2.72063 75.2661 2.73887 75.2695 2.75744 75.273Z" fill="black"/>
<path fill-rule="evenodd" clip-rule="evenodd" d="M5.04185 61.6854L3.96884 62.4586V62.4702H3.69193L4.32651 61.5469H5.04185V61.6854ZM12.5424 67.0982L14.2616 62.5278L14.2039 62.4586L13.0155 62.5971V62.7356L13.2462 62.9087C13.4432 63.062 13.3911 63.2048 13.2276 63.6526L13.2001 63.7281L11.8848 67.2367C11.7809 67.4445 11.9194 67.6984 12.1617 67.6984C12.704 67.6984 13.2808 67.2021 13.5462 66.5211H13.3732C13.1885 66.7751 12.8193 67.052 12.5424 67.0982ZM20.4219 63.5781L21.4949 62.5971V62.4586H20.7796L20.145 63.5781H20.4219ZM20.4904 66.3826H20.7211C20.2942 67.2021 19.7635 67.6984 19.2558 67.6984C18.8174 67.6984 18.5405 67.3752 18.5405 66.7866C18.5405 65.5401 19.5558 63.982 20.4442 63.982C20.9519 63.982 21.4019 64.3629 21.0327 65.24L19.1405 65.8633C19.1059 66.0248 19.0828 66.2095 19.0828 66.3826C19.0828 66.8097 19.2443 67.0059 19.5674 67.0059C19.8789 67.0059 20.2019 66.7289 20.4904 66.3826ZM20.4321 65.1362C20.5475 64.6976 20.3283 64.5014 20.0745 64.5014C19.8091 64.5014 19.463 64.9054 19.2668 65.4478L20.4321 65.1362ZM17.04 64.5242H16.417V64.2357L17.19 64.1318L17.8361 63.1508H18.1938L17.8477 64.1318H18.7591L18.6438 64.5242H17.7092L16.7977 67.0749C17.2131 67.0056 17.7669 66.6132 18.0207 66.2554H18.1938C17.8707 67.1095 17.0285 67.7096 16.3247 67.7096C16.0824 67.7096 15.9555 67.4788 16.0478 67.248L17.04 64.5242ZM15.7708 64.3857C15.84 64.1318 15.6785 63.9933 15.54 63.9933C14.9978 63.9933 14.3517 64.4896 14.0863 65.1705H14.2593C14.4324 64.9166 14.7324 64.6396 15.0208 64.5934L13.9824 67.3057C13.8901 67.5596 14.0747 67.6981 14.2017 67.6981C14.7209 67.6981 15.3208 67.2018 15.5862 66.5209H15.4131C15.2401 66.7748 14.9401 67.0518 14.6516 67.0979L15.7708 64.3857ZM16.3024 62.8856C16.3024 63.1164 16.1062 63.3126 15.8755 63.3126C15.6447 63.3126 15.4486 63.1164 15.4486 62.8856C15.4486 62.6548 15.6332 62.4586 15.8755 62.4586C16.1062 62.4586 16.3024 62.6548 16.3024 62.8856ZM10.477 64.663C9.95782 64.663 9.02327 65.794 9.02327 66.6366C9.02327 66.8905 9.10403 67.0059 9.24248 67.0059C9.4617 67.0059 9.94629 66.5442 10.2578 66.1634L10.8001 64.7091C10.6962 64.6745 10.5924 64.663 10.477 64.663ZM11.8849 63.8435L11.5965 63.8205L11.2734 64.1436H11.2157C9.84274 64.1436 8.37744 65.8518 8.37744 67.1906C8.37744 67.5022 8.55051 67.7099 8.8851 67.7099C9.26954 67.7099 9.64352 67.1869 10.0568 66.609L10.1196 66.5212L10.0966 66.7404C10.0389 67.3637 10.235 67.7099 10.5581 67.7099C10.9388 67.7099 11.285 67.1213 11.5503 66.5327H11.3773C11.1927 66.7982 11.0196 66.9597 10.8811 66.9597C10.7427 66.9597 10.6388 66.7058 10.8811 66.1518L11.8849 63.8435ZM6.06924 67.5831C5.57311 67.7793 5.22698 68.0101 5.22698 68.3679C5.22698 68.7026 5.5385 68.8411 6.18462 68.8411C7.04995 68.8411 7.523 68.5872 7.523 68.2525C7.523 68.1024 7.32685 68.0332 6.80765 67.8601C6.47306 67.7562 6.23077 67.6639 6.06924 67.5831ZM6.64537 66.1634C6.41461 66.1634 6.33385 65.9672 6.33385 65.7595C6.33385 65.0901 6.65691 64.2591 7.17611 64.2591C7.40686 64.2591 7.48763 64.4553 7.48763 64.663C7.47609 65.344 7.15303 66.1634 6.64537 66.1634ZM7.08497 67.2482C7.71954 67.4444 8.11183 67.5945 8.11183 68.0331C8.11183 68.5986 7.07343 69.268 5.81581 69.2564C5.08893 69.2564 4.46589 69.0602 4.46589 68.587C4.46589 68.1369 4.88125 67.7676 5.89658 67.4675C5.75812 67.3752 5.70043 67.2598 5.70043 67.0982C5.70043 66.8212 5.95427 66.6019 6.3927 66.3942C5.9658 66.3365 5.6889 66.0133 5.6889 65.5401C5.6889 64.813 6.28886 63.982 7.23496 63.982C7.4311 63.982 7.60417 64.0282 7.74262 64.1205H8.78102L8.66564 64.5129H8.05414C8.08875 64.6168 8.11183 64.7322 8.11183 64.8592C8.11183 65.5632 7.54648 66.3711 6.64653 66.4173C6.41578 66.5442 6.3004 66.7173 6.3004 66.8558C6.3004 67.0188 6.48913 67.0739 6.90625 67.1957C6.96175 67.2119 7.02129 67.2293 7.08497 67.2482ZM3.42671 65.2747C3.87669 65.2747 3.88823 65.4709 3.819 65.9672H4.07283L4.67279 64.3283H4.41896C4.19974 64.7207 4.01514 65.0208 3.53055 65.0208H2.53831L3.02289 63.6705C3.19596 63.1857 3.27672 63.0934 3.89976 63.0934H4.3382C4.97277 63.0934 5.042 63.2665 5.042 63.9359H5.29583L5.50351 62.8164H1.7422L1.67298 63.0242C2.39985 63.1742 2.46908 63.2434 2.13449 64.1783L1.38453 66.1981C1.0384 67.1329 0.899945 67.2022 0.0576888 67.3522L0 67.5715H4.17667L4.92662 66.3827H4.63818C4.15359 66.8559 3.66901 67.2945 2.72291 67.2945C1.68228 67.2945 1.70081 67.2435 2.01305 66.3855C2.03315 66.3303 2.05447 66.2717 2.0768 66.2096L2.42293 65.2863H3.42671V65.2747Z" fill="black"/>
<path fill-rule="evenodd" clip-rule="evenodd" d="M6.87303 55.3922C7.1037 55.3922 7.29977 55.1962 7.29977 54.9656C7.29977 54.735 7.1037 54.5389 6.87303 54.5389C6.63083 54.5389 6.44629 54.735 6.44629 54.9656C6.44629 55.2077 6.63083 55.3922 6.87303 55.3922ZM10.2882 56.8448C10.2882 56.2913 10.1498 56.0837 9.75764 56.0837C9.27323 56.0837 8.82343 56.6026 8.37362 57.2253L9.34243 54.6309L9.28477 54.5502L8.09682 54.6885V54.8269L8.32749 54.9999C8.52832 55.156 8.4701 55.3122 8.29902 55.7711L8.28135 55.8185L7.2318 58.5628C7.13954 58.7934 7.03573 59.0702 7.03573 59.1394C7.03573 59.4622 7.47401 59.7735 7.87768 59.7735C8.77729 59.7851 10.2882 58.1247 10.2882 56.8448ZM20.2877 55.6686L21.3603 54.6885V54.5502H20.6453L20.0109 55.6686H20.2877ZM20.3572 58.4706H20.5879C20.1496 59.2893 19.619 59.7851 19.1116 59.7736C18.6733 59.7736 18.3965 59.4622 18.3965 58.8742C18.3965 57.6289 19.4114 56.0722 20.2995 56.0722C20.807 56.0722 21.2568 56.4527 20.8877 57.3291L19.0078 57.9517C18.9732 58.1132 18.9501 58.2976 18.9501 58.4706C18.9501 58.8972 19.1116 59.0933 19.4345 59.0933C19.7459 59.0933 20.0689 58.8165 20.3572 58.4706ZM20.2984 57.2253C20.4137 56.7872 20.1946 56.5911 19.9409 56.5911C19.6641 56.5911 19.3181 56.9947 19.1335 57.5367L20.2984 57.2253ZM16.8947 56.6149H16.2719V56.3266L17.0447 56.2228L17.6905 55.2427H18.0481L17.7021 56.2228H18.6132L18.4979 56.6149H17.5637L16.6525 59.1631C17.0677 59.0939 17.6213 58.7019 17.8751 58.3445H18.0481C17.7251 59.1977 16.8832 59.7973 16.1797 59.7973C15.9375 59.7973 15.8106 59.5667 15.9029 59.3361L16.8947 56.6149ZM15.9512 56.9146C16.078 56.4765 16.0088 56.0844 15.6744 56.0844C15.2572 56.0844 15.1266 56.3599 14.7224 57.2122L14.694 57.2721V56.7647C14.694 56.4073 14.5787 56.0844 14.2557 56.0844C13.8751 56.0844 13.5291 56.6725 13.2639 57.2606H13.4369C13.6214 56.9953 13.7944 56.8339 13.9213 56.8339C14.0827 56.8339 14.175 57.0876 13.9213 57.6411L13.1831 59.2784C13.0447 59.5897 13.1947 59.7858 13.4945 59.7858C13.6791 59.7858 13.7598 59.7396 13.8405 59.5436L14.5672 57.6295C14.7748 57.3759 14.9593 57.1568 15.19 56.9146H15.9512ZM12.2953 57.2253C12.4107 56.7872 12.1915 56.5911 11.9378 56.5911C11.661 56.5911 11.3265 56.9947 11.1304 57.5367L12.2953 57.2253ZM12.5829 58.4706H12.3523C12.0639 58.8165 11.741 59.0933 11.4296 59.0933C11.1067 59.0933 10.9452 58.8972 10.9452 58.4706C10.9452 58.2976 10.9683 58.1132 11.0029 57.9517L12.8828 57.3291C13.2519 56.4527 12.8136 56.0722 12.2946 56.0722C11.4065 56.0722 10.3916 57.6289 10.3916 58.8742C10.3916 59.4622 10.6684 59.7736 11.1067 59.7736C11.6141 59.7851 12.1447 59.2893 12.5829 58.4706ZM7.73973 58.9092C7.73973 59.0591 8.005 59.232 8.18954 59.232C8.93922 59.232 9.64276 57.8829 9.63123 57.1335C9.63123 56.8798 9.50436 56.776 9.33135 56.776C9.05455 56.776 8.54708 57.1911 8.22414 57.5831L7.92427 58.3903C7.82047 58.6555 7.73973 58.863 7.73973 58.9092ZM6.52892 56.0844C6.66732 56.0844 6.82879 56.2228 6.75959 56.4765L5.65238 59.1862C5.94071 59.14 6.24058 58.8633 6.41359 58.6096H6.58659C6.32132 59.2899 5.72158 59.7858 5.20257 59.7858C5.06417 59.7858 4.87963 59.6474 4.9719 59.3937L6.00991 56.684C5.72158 56.7301 5.42171 57.0069 5.2487 57.2606H5.0757C5.34097 56.5802 5.98685 56.0844 6.52892 56.0844ZM1.74156 54.8852H4.22126L4.15206 55.1043C3.31011 55.2542 3.17171 55.3234 2.82571 56.2573L2.08756 58.2867C1.73002 59.2553 1.82229 59.3706 2.45664 59.3706C3.24036 59.3706 3.75426 58.8011 4.20298 58.3039C4.23632 58.2669 4.26929 58.2304 4.30199 58.1945H4.59033L3.77145 59.6473H0L0.069201 59.4398C0.899613 59.2899 1.03801 59.2207 1.38402 58.2867L2.1337 56.2458C2.46817 55.3118 2.39897 55.2426 1.67236 55.0927L1.74156 54.8852Z" fill="black"/>
</svg>
