<svg width="600" height="459" viewBox="0 0 600 459" fill="none" xmlns="http://www.w3.org/2000/svg">
<path fill-rule="evenodd" clip-rule="evenodd" d="M338.868 72.9311C413.411 77.5443 482.805 119.562 503.316 191.377C522.013 256.843 475.635 317.251 419.756 356.146C368.027 392.152 303.482 400.247 249.163 368.281C168.836 321.011 69.9532 255.416 97.0399 166.234C124.801 74.8329 243.528 67.0308 338.868 72.9311Z" fill="#FDDFDB"/>
<path d="M384.762 149.617C384.536 149.617 384.311 149.505 384.199 149.392C383.861 149.054 383.861 148.492 384.199 148.154L393.094 139.034L370.462 141.961C370.012 141.961 369.561 141.736 369.561 141.173C369.561 141.06 369.561 140.835 369.674 140.723L393.431 90.5057L357.627 131.039C357.289 131.377 356.726 131.377 356.388 131.152C356.275 131.039 356.163 130.927 356.163 130.702L349.745 103.679L347.268 127.662C347.268 128.112 346.818 128.45 346.367 128.45C345.917 128.45 345.579 127.999 345.579 127.549V127.436L348.619 98.4999C348.619 98.0495 349.069 97.7117 349.52 97.7117C349.858 97.7117 350.195 98.0495 350.308 98.3873L357.289 128.788L396.021 84.9887C396.359 84.6509 396.809 84.6509 397.259 84.8761C397.597 85.1012 397.597 85.5516 397.485 85.8894L371.813 140.047L395.345 137.007C395.796 136.894 396.246 137.232 396.246 137.683C396.246 137.908 396.246 138.245 396.021 138.358L385.437 149.28C385.325 149.505 385.099 149.617 384.762 149.617Z" fill="#CE614A"/>
<path d="M408.518 288.22C408.293 288.22 408.068 288.108 407.955 287.995L396.471 278.087C396.133 277.749 396.133 277.186 396.358 276.849C396.583 276.511 397.259 276.511 397.597 276.736L407.167 285.068L402.663 262.437C402.551 261.986 402.889 261.536 403.339 261.423H403.789L455.02 281.803L412.459 248.588C412.234 248.362 412.121 248.137 412.121 247.799C412.234 247.462 412.347 247.236 412.684 247.124L438.919 238.679L415.049 237.891C414.598 237.891 414.148 237.553 414.148 236.99C414.148 236.427 414.486 236.09 415.049 236.09L443.76 237.103C444.211 237.103 444.548 237.553 444.548 238.004C444.548 238.341 444.323 238.679 443.985 238.792L414.711 248.137L460.649 284.055C460.987 284.28 461.1 284.843 460.874 285.18C460.649 285.518 460.199 285.743 459.861 285.518L404.69 263.45L409.419 286.982C409.532 287.32 409.307 287.658 408.969 287.883C408.744 288.22 408.631 288.22 408.518 288.22Z" fill="#CE614A"/>
<path d="M307.634 399.125C307.296 399.125 306.959 398.899 306.846 398.562L285.228 342.715L271.379 362.306C271.154 362.644 270.816 362.757 270.478 362.644C270.141 362.532 269.915 362.194 269.915 361.856L269.352 346.543C269.352 346.093 269.69 345.755 270.141 345.643C270.591 345.643 271.041 345.98 271.041 346.431L271.492 359.266L284.778 340.463C285.003 340.238 285.228 340.125 285.566 340.125C285.904 340.125 286.129 340.351 286.241 340.688L306.283 392.482L301.442 338.324C301.442 337.986 301.554 337.761 301.779 337.536C302.005 337.311 302.342 337.311 302.68 337.536L326.55 351.272L310.9 333.032C310.562 332.694 310.674 332.131 311.012 331.794C311.35 331.456 311.913 331.568 312.251 331.906L331.054 353.862C331.392 354.2 331.279 354.763 330.941 355.1C330.716 355.326 330.266 355.326 329.928 355.213L303.243 339.788L308.422 398.336C308.422 398.787 308.197 399.125 307.747 399.237C307.747 399.162 307.709 399.125 307.634 399.125Z" fill="#CE614A"/>
<path d="M216.771 166.732C216.658 166.732 216.546 166.732 216.433 166.619L190.649 153.784C190.312 153.558 190.086 153.221 190.199 152.77C190.311 152.432 190.649 152.095 191.1 152.207L221.613 155.81L194.365 104.017C194.14 103.679 194.252 103.116 194.59 102.891C194.928 102.666 195.378 102.666 195.716 103.004L237.15 146.015L242.442 122.595C242.555 122.145 243.005 121.807 243.456 121.92C243.681 122.032 243.906 122.145 244.019 122.37L250.437 136.219C250.662 136.669 250.437 137.12 250.099 137.345C249.648 137.57 249.198 137.345 248.973 137.007V136.895L243.568 125.41L238.502 147.929C238.389 148.379 237.939 148.717 237.488 148.604C237.376 148.604 237.15 148.492 237.038 148.379L198.643 108.521L223.864 156.486C224.09 156.936 223.864 157.387 223.527 157.612C223.414 157.724 223.189 157.724 223.076 157.724L195.829 154.459L217.221 165.156C217.672 165.381 217.784 165.831 217.672 166.281C217.447 166.507 217.109 166.732 216.771 166.732Z" fill="#CE614A"/>
<path d="M156.984 291.373C156.646 291.373 156.421 291.26 156.196 290.922C155.97 290.585 156.083 290.134 156.308 289.909L173.197 273.808L117.801 259.058C117.351 258.946 117.126 258.495 117.238 258.045C117.351 257.707 117.689 257.482 118.026 257.482L177.251 255.793L162.726 237.666C162.388 237.328 162.501 236.765 162.839 236.427C163.064 236.202 163.402 236.202 163.627 236.314L201.008 250.952C201.458 251.064 201.683 251.627 201.458 252.078C201.346 252.528 200.783 252.753 200.445 252.528H200.332L165.879 239.017L179.502 256.131C179.728 256.356 179.728 256.694 179.615 257.032C179.502 257.369 179.165 257.482 178.827 257.482L123.656 259.058L174.886 272.682C175.224 272.795 175.449 273.02 175.449 273.245C175.562 273.583 175.449 273.808 175.224 274.033L159.799 288.671L197.855 277.524C198.306 277.411 198.756 277.636 198.869 278.087C198.981 278.537 198.756 278.987 198.306 279.1L156.871 291.26C157.096 291.26 156.984 291.373 156.984 291.373Z" fill="#CE614A"/>
<path d="M241.766 67.5362L306.958 54.8131L326.775 148.153C326.775 148.153 392.98 187.111 384.761 194.429C376.541 201.748 333.981 177.991 333.981 177.991L366.633 228.207L249.761 243.07L268.113 159.863L241.766 67.5362Z" fill="white"/>
<path d="M249.648 243.858C249.423 243.858 249.198 243.745 248.973 243.633C248.747 243.407 248.747 243.182 248.747 242.844L267.1 159.863L240.753 67.7612C240.641 67.536 240.753 67.3108 240.866 67.0856C240.978 66.8604 241.204 66.7478 241.429 66.7478L306.621 54.0248C307.071 53.9122 307.521 54.2499 307.634 54.7003L327.338 147.703C334.656 151.981 385.098 182.156 386.112 192.628C386.224 193.641 385.886 194.542 385.098 195.217C381.495 198.483 371.587 196.794 355.711 189.925C347.717 186.435 340.173 182.607 336.233 180.468L367.083 227.869C367.309 228.207 367.196 228.77 366.858 228.995C366.746 229.108 366.633 229.108 366.52 229.108L249.648 243.97V243.858ZM242.78 68.2116L268.902 159.638V160.088L250.774 242.056L365.169 227.532L333.193 178.441C332.967 178.103 333.08 177.54 333.418 177.315C333.643 177.09 334.093 177.09 334.319 177.315C346.028 183.845 377.892 199.608 384.198 193.866C384.535 193.528 384.648 193.191 384.648 192.74C383.747 184.408 342.313 158.287 326.324 148.941C326.099 148.829 325.987 148.603 325.874 148.378L306.283 55.9388L242.78 68.2116Z" fill="#1E1E1E"/>
<path d="M330.94 138.696L285.903 147.929L261.695 152.883L258.768 142.862L254.264 127.324L251.449 117.416L247.171 102.553L244.356 92.8702L239.965 77.67L237.262 68.0996L233.885 56.3898L261.02 50.3098L279.823 46.1438L281.512 45.806L307.859 39.9512L310.561 39.3882L310.899 41.0771L313.263 52.3365L315.74 64.2714L317.992 75.3056L320.582 87.6909L322.834 98.3873L325.649 112.236L327.788 122.482L330.94 138.696Z" fill="white"/>
<path d="M261.695 153.67C261.358 153.67 261.02 153.445 260.907 152.994L232.871 56.7268C232.759 56.5016 232.871 56.2765 232.984 56.0513C233.097 55.8261 233.322 55.7135 233.547 55.7135L279.485 45.4675H279.598L281.174 45.1297H281.287L310.336 38.5992C310.561 38.5992 310.786 38.5992 311.011 38.7118C311.237 38.8244 311.349 39.0496 311.349 39.2748L331.841 138.582C331.954 139.033 331.616 139.483 331.166 139.596L286.128 148.828H286.016L261.808 153.67H261.695ZM234.785 57.0646L262.258 151.756L285.678 147.027H285.79L330.04 138.02L309.885 40.2881L281.624 46.5934H281.512L279.823 46.9312H279.71L234.785 57.0646Z" fill="#1E1E1E"/>
<path d="M279.71 46.1436C274.981 47.4947 272.279 51.0977 268 57.0651C264.06 62.5822 259.556 68.7749 251.787 73.729C248.184 75.9809 244.131 77.332 239.965 77.6698L237.262 68.0993C240.64 67.9867 243.905 67.086 246.833 65.3971C253.025 61.4563 256.741 56.277 260.344 51.3229L261.02 50.3095L279.71 46.1436Z" fill="#1E1E1E"/>
<path d="M313.151 52.2225C306.17 49.4077 292.772 44.6788 282.526 45.6921C282.075 45.6921 281.738 45.8047 281.4 45.8047L307.747 39.9498C308.76 40.2876 309.886 40.6254 310.787 40.9632L313.151 52.2225Z" fill="#1E1E1E"/>
<path d="M317.88 75.0794C310.561 72.4897 300.202 69.5623 291.983 70.3504C285.453 71.026 282.525 74.7416 277.458 81.7224C273.518 87.2395 269.014 93.4321 261.245 98.3863C256.966 100.976 252.125 102.44 247.171 102.552L244.356 92.8692C248.522 93.0944 252.575 92.1936 256.178 90.1669C262.371 86.2261 266.086 81.0468 269.689 76.0927C274.756 68.9993 279.935 61.7933 291.195 60.6674C299.076 59.8792 308.196 61.7933 315.74 64.0452L317.88 75.0794Z" fill="#1E1E1E"/>
<path d="M322.609 98.2742C315.966 96.2475 307.972 94.446 301.442 95.1216C294.911 95.7971 291.984 99.5127 286.917 106.494C282.976 112.011 278.472 118.203 270.703 123.157C265.862 126.085 260.345 127.436 254.715 127.323H254.377L251.562 117.415C256.404 117.866 261.583 117.415 265.749 114.825C271.942 110.885 275.658 105.705 279.261 100.751C284.327 93.6579 289.507 86.4519 300.766 85.3259C307.071 84.7629 314.165 85.7763 320.582 87.4652L322.609 98.2742Z" fill="#1E1E1E"/>
<path d="M327.563 122.369C323.284 121.356 318.781 121.018 314.389 121.356C307.859 121.919 304.932 125.747 299.752 132.728C296.262 137.682 292.208 143.199 285.791 147.815L261.583 152.769L258.656 142.749C264.51 143.987 272.617 144.775 278.472 141.06C284.665 137.119 288.38 131.94 291.983 126.986C297.05 120.005 302.229 112.686 313.489 111.56C317.429 111.222 321.483 111.448 325.424 112.011L327.563 122.369Z" fill="#1E1E1E"/>
<path d="M124.444 211.769L148.989 148.604L229.607 187.561C240.416 183.846 251.675 181.706 263.16 181.256C283.989 180.468 308.084 184.859 308.422 188.349C309.661 201.523 289.394 192.853 277.346 195.668C265.299 198.483 259.782 203.099 259.782 203.099L331.391 230.797L304.594 292.499L221.5 238.341L124.444 211.769Z" fill="white"/>
<path d="M304.482 293.398C304.369 293.398 304.144 293.398 304.032 293.286L221.05 239.241L124.219 212.669C123.769 212.556 123.544 212.218 123.544 211.768C123.544 211.655 123.544 211.543 123.656 211.43L148.089 148.378C148.314 147.927 148.765 147.702 149.215 147.927L229.495 186.772C240.304 183.169 251.563 181.03 262.935 180.58C273.068 180.242 283.314 180.917 293.335 182.606C300.316 183.732 308.76 185.759 308.986 188.461C309.323 190.6 308.76 192.852 307.297 194.541C304.369 197.581 298.064 197.018 291.421 196.568C286.467 196.117 281.4 195.78 277.234 196.68C271.605 197.919 266.313 200.058 261.359 203.098L331.504 230.233C331.73 230.346 331.842 230.459 331.955 230.684C332.067 230.909 332.067 231.134 331.955 231.359L305.157 293.061C305.045 293.286 304.82 293.511 304.482 293.398C304.595 293.511 304.482 293.511 304.482 293.398ZM125.571 211.205L221.613 237.665L221.838 237.777L304.032 291.372L330.041 231.472L259.332 204.112C259.107 203.999 258.881 203.774 258.769 203.436C258.769 203.098 258.881 202.873 259.107 202.648C259.332 202.423 264.849 197.919 277.009 195.104C281.4 194.091 286.58 194.541 291.759 194.879C297.951 195.329 303.806 195.892 306.283 193.415C307.409 192.064 307.86 190.375 307.522 188.686C306.959 186.209 285.228 181.593 263.16 182.381C251.788 182.831 240.641 184.971 229.945 188.574C229.72 188.686 229.495 188.686 229.269 188.574L149.553 149.954L125.571 211.205Z" fill="#1E1E1E"/>
<path d="M197.067 234.85L214.744 178.215L108.343 122.706L84.4734 206.476L197.067 234.85Z" fill="#1E1E1E"/>
<path d="M241.542 329.655L258.206 318.17L337.134 299.142L291.759 210.981L249.761 240.931C249.761 240.931 253.477 201.523 242.668 201.298C231.859 201.073 219.699 279.213 219.699 279.213L206.638 296.102L241.542 329.655Z" fill="white"/>
<path d="M241.542 330.442C241.317 330.442 241.204 330.33 240.979 330.217L206.075 296.552C205.737 296.214 205.737 295.764 205.962 295.426L218.911 278.762C219.249 276.51 222.176 258.045 226.342 239.917C235.237 200.284 240.867 200.397 242.668 200.397C244.244 200.397 245.595 201.185 246.609 202.311C252.464 208.954 251.225 232.261 250.662 239.016L291.196 210.192C291.421 210.08 291.646 209.967 291.871 210.08C292.097 210.192 292.322 210.305 292.434 210.53L337.81 298.578C337.922 298.804 337.922 299.141 337.81 299.367C337.697 299.592 337.472 299.817 337.247 299.817L258.544 318.845L242.105 330.33C241.88 330.442 241.767 330.442 241.542 330.442ZM207.764 295.876L241.655 328.528L257.756 317.382C257.868 317.269 257.981 317.269 257.981 317.269L335.896 298.466L291.421 212.219L250.212 241.493C249.874 241.719 249.311 241.719 249.086 241.268C248.973 241.156 248.861 240.93 248.973 240.705C248.973 240.367 251.788 210.53 245.37 203.437C244.695 202.648 243.794 202.086 242.668 202.086C235.349 202.086 225.216 249.375 220.6 279.325C220.6 279.437 220.487 279.55 220.487 279.775L207.764 295.876Z" fill="#1E1E1E"/>
<path d="M223.64 351.498L247.172 330.218L207.764 287.883L186.596 307.812L223.64 351.498Z" fill="#1E1E1E"/>
<path d="M178.602 409.371L234.449 352.736L186.371 297.903L122.305 347.669L178.602 409.371Z" fill="#3558A2"/>
<path d="M460.087 348.568L412.46 394.957L342.426 322.109C342.426 322.109 305.496 319.857 283.427 315.916C270.592 313.664 265.412 309.836 268.227 308.26C282.189 300.716 311.351 299.815 311.351 299.815C311.351 299.815 259.557 242.956 264.512 229.782C269.466 216.609 343.777 196.454 349.295 199.945C354.812 203.435 371.926 277.522 376.542 281.463C381.159 285.403 386.901 282.701 387.126 290.245C387.351 297.789 460.087 348.568 460.087 348.568Z" fill="white"/>
<path d="M412.459 395.859C412.234 395.859 412.009 395.746 411.896 395.633L342.088 323.01C338.373 322.785 304.144 320.533 283.314 316.818C273.631 315.129 267.101 312.314 266.65 309.724C266.538 308.824 266.988 308.035 267.889 307.585C280.049 300.942 302.906 299.366 309.549 299.141C301.554 290.246 259.107 242.056 263.836 229.558C266.65 222.239 287.931 214.132 300.316 209.966C320.695 203.098 346.254 197.131 349.857 199.383C352.897 201.297 357.964 218.411 365.282 244.42C369.899 260.746 375.191 279.324 377.105 281.013C378.569 282.139 380.257 282.927 382.059 283.265C384.874 284.166 387.801 284.954 388.026 290.358C388.252 295.538 432.614 328.528 460.537 348.006C460.875 348.231 460.987 348.794 460.762 349.132C460.762 349.245 460.649 349.245 460.649 349.357L413.135 395.633C412.91 395.746 412.684 395.859 412.459 395.859ZM347.155 200.508C341.413 200.508 323.51 203.886 300.879 211.543C280.162 218.523 267.213 225.279 265.412 230.121C261.471 240.479 297.726 283.603 312.026 299.253C312.251 299.478 312.363 299.816 312.138 300.154C312.026 300.492 311.688 300.604 311.35 300.717C311.012 300.717 282.188 301.73 268.564 309.049C268.452 309.049 268.227 309.274 268.227 309.387C268.339 310.4 272.505 313.215 283.539 315.129C305.383 318.957 342.088 321.209 342.539 321.322C342.764 321.322 342.989 321.434 343.102 321.547L412.572 393.719L458.848 348.569C455.02 345.867 439.144 334.72 423.268 322.785C386.563 295.312 386.45 291.597 386.338 290.133C386.225 285.967 384.311 285.404 381.609 284.616C379.582 284.166 377.668 283.265 376.091 282.026C373.84 280.112 369.899 266.601 363.706 244.645C358.302 225.729 351.659 202.31 348.956 200.621C348.393 200.508 347.718 200.396 347.155 200.508Z" fill="#1E1E1E"/>
<path d="M234.222 242.508C230.732 233.613 280.161 222.692 282.3 221.903C280.273 222.354 238.951 222.129 238.276 213.797C237.938 209.406 269.126 207.604 300.54 201.637C309.885 199.948 331.053 197.808 349.856 189.476C368.659 181.145 385.211 166.958 390.953 163.13L420.79 214.472C407.617 220.215 395.006 227.083 383.071 234.964C381.495 236.09 364.944 243.521 362.804 249.489C356.387 267.616 339.498 303.534 333.868 301.395C329.252 299.593 335.332 261.086 335.332 261.086C335.332 261.086 247.734 305.898 243.23 295.765C240.978 290.811 292.321 262.437 292.321 262.437C292.321 262.437 232.196 276.737 227.692 271.895C222.287 264.689 280.724 242.846 282.638 242.058C282.75 242.17 237.713 251.516 234.222 242.508Z" fill="white"/>
<path d="M334.431 302.52C334.206 302.52 333.868 302.52 333.643 302.408C329.026 300.606 332.742 273.471 334.318 262.775C323.734 268.179 263.609 298.242 246.946 298.242C246.045 298.242 245.257 298.129 244.468 297.904C243.68 297.679 242.892 297.116 242.554 296.215C241.991 294.976 240.865 292.499 266.537 276.624C274.081 272.007 281.85 267.504 286.804 264.689C270.14 268.517 231.182 276.849 227.242 272.57C226.679 271.895 226.566 270.994 226.791 270.206C228.142 265.252 243.793 256.92 274.418 244.534C260.795 246.899 236.249 249.939 233.547 242.845C233.209 241.832 233.209 240.819 233.772 239.805C237.037 233.5 257.98 227.308 275.207 222.916C264.51 222.691 245.594 221.453 239.627 217.062C238.501 216.386 237.713 215.147 237.488 213.796C237.15 210.306 246.045 208.955 267.775 205.915C277.796 204.564 289.056 202.875 300.428 200.735C302.116 200.398 304.256 200.06 306.733 199.722C317.767 198.033 334.318 195.331 349.631 188.688C364.268 182.27 377.442 172.249 385.323 166.282C387.575 164.593 389.377 163.242 390.728 162.341C390.953 162.228 391.178 162.116 391.403 162.228C391.628 162.341 391.854 162.454 391.966 162.679L421.804 214.022C422.029 214.472 421.916 214.922 421.466 215.147H421.353C406.153 221.453 387.35 232.937 383.747 235.527C382.846 236.09 381.945 236.54 381.045 236.991C376.316 239.468 365.282 245.21 363.705 249.714C359.764 260.298 355.261 270.769 350.194 280.902C345.803 289.572 339.835 300.156 335.782 302.07C335.332 302.408 334.881 302.52 334.431 302.52ZM335.444 260.41C335.669 260.41 335.782 260.523 335.895 260.523C336.12 260.748 336.232 260.973 336.232 261.311C332.517 284.73 332.292 300.043 334.206 300.719C334.431 300.831 334.769 300.719 334.994 300.606C341.074 297.791 355.598 267.504 362.016 249.263C363.818 244.197 374.852 238.454 380.144 235.64C381.27 235.077 382.396 234.514 382.621 234.288C394.443 226.519 406.829 219.764 419.664 214.022L390.728 164.368C389.602 165.268 388.025 166.394 386.224 167.745C378.342 173.826 364.944 183.846 350.194 190.264C334.769 197.02 317.992 199.61 306.845 201.411C304.368 201.749 302.342 202.087 300.54 202.424C289.056 204.564 277.796 206.14 267.775 207.604C254.827 209.405 238.726 211.657 238.951 213.684C239.064 214.472 239.627 215.26 240.302 215.598C247.734 221.115 279.935 221.453 281.962 221.002C282.413 220.89 282.863 221.228 282.975 221.565C283.088 222.016 282.863 222.466 282.413 222.579C282.075 222.691 281.287 222.916 279.485 223.367C252.35 230.122 237.488 235.865 235.123 240.481C234.785 240.931 234.785 241.607 235.011 242.057C237.375 248.137 264.735 244.872 282.525 241.157C282.975 241.044 283.313 241.269 283.538 241.72C283.651 242.17 283.538 242.508 283.088 242.733C282.863 242.846 282.075 243.183 280.273 243.859C238.951 260.185 229.268 267.391 228.368 270.431C228.255 270.769 228.368 271.107 228.48 271.332C230.056 273.021 248.747 271.895 292.208 261.536C292.659 261.423 293.109 261.761 293.222 262.212C293.334 262.549 293.109 262.887 292.771 263.112C261.695 280.227 243.68 292.95 244.131 295.314C244.356 295.652 244.694 295.99 245.031 295.99C254.489 299.255 308.084 274.034 335.106 260.185C335.219 260.298 335.332 260.298 335.444 260.41Z" fill="#1E1E1E"/>
<path d="M513.568 176.867L502.084 182.271C495.215 185.536 485.87 189.815 475.624 194.544C468.418 197.922 460.649 201.412 453.105 204.902C439.031 211.32 425.407 217.4 415.949 221.341L381.721 162.567C389.49 156.037 400.749 147.48 412.459 138.81C419.102 133.856 425.97 129.014 432.501 124.285C451.867 110.436 468.418 99.1769 468.418 99.1769L483.055 124.398L495.441 145.903L507.826 167.296L513.568 176.867Z" fill="#3558A2"/>
<path d="M416.061 222.128C415.724 222.128 415.499 222.015 415.386 221.678L381.157 162.904C380.932 162.566 381.045 162.116 381.383 161.89C388.363 156.035 398.722 148.041 412.233 138.133C417.976 133.855 424.619 129.126 432.275 123.608C451.416 109.872 468.08 98.6127 468.192 98.3875C468.418 98.2749 468.643 98.1623 468.868 98.2749C469.093 98.2749 469.318 98.5001 469.431 98.7253L514.468 176.528C514.694 176.978 514.581 177.428 514.131 177.653L502.646 183.058C495.778 186.323 486.433 190.602 476.187 195.331C468.981 198.709 461.212 202.199 453.668 205.689C437.454 213.008 424.956 218.638 416.512 222.128H416.061ZM382.846 162.679L416.287 220.214C424.731 216.611 437.004 211.206 452.767 204.113C460.311 200.623 467.967 197.132 475.286 193.754C485.532 189.025 494.877 184.634 501.745 181.482L512.442 176.528L468.305 100.414C464.927 102.779 450.065 113.025 433.176 125.072C425.519 130.589 418.989 135.318 413.134 139.597C399.961 149.055 389.827 156.824 382.846 162.679Z" fill="#1E1E1E"/>
<path d="M406.942 180.018C413.782 180.018 419.327 174.422 419.327 167.52C419.327 160.617 413.782 155.022 406.942 155.022C400.102 155.022 394.557 160.617 394.557 167.52C394.557 174.422 400.102 180.018 406.942 180.018Z" fill="#1E1E1E"/>
<path d="M434.527 130.928C434.527 137.796 429.122 143.313 422.254 143.426H422.142C418.426 143.426 414.823 141.737 412.571 138.809C419.214 133.855 426.082 129.014 432.613 124.285C433.851 126.199 434.527 128.563 434.527 130.928Z" fill="#1E1E1E"/>
<path d="M443.535 174.839C450.375 174.839 455.92 169.243 455.92 162.341C455.92 155.439 450.375 149.843 443.535 149.843C436.694 149.843 431.149 155.439 431.149 162.341C431.149 169.243 436.694 174.839 443.535 174.839Z" fill="#1E1E1E"/>
<path d="M428.785 207.152C435.625 207.152 441.17 201.557 441.17 194.654C441.17 187.752 435.625 182.156 428.785 182.156C421.945 182.156 416.4 187.752 416.4 194.654C416.4 201.557 421.945 207.152 428.785 207.152Z" fill="#1E1E1E"/>
<path d="M456.37 137.795C463.21 137.795 468.755 132.2 468.755 125.297C468.755 118.395 463.21 112.8 456.37 112.8C449.53 112.8 443.985 118.395 443.985 125.297C443.985 132.2 449.53 137.795 456.37 137.795Z" fill="#1E1E1E"/>
<path d="M481.028 177.765C487.868 177.765 493.413 172.17 493.413 165.268C493.413 158.365 487.868 152.77 481.028 152.77C474.188 152.77 468.643 158.365 468.643 165.268C468.643 172.17 474.188 177.765 481.028 177.765Z" fill="#1E1E1E"/>
<path d="M475.623 194.542C468.417 197.92 460.648 201.411 453.105 204.901C452.429 203.325 452.091 201.636 452.091 199.947C451.979 193.191 457.383 187.562 464.251 187.449C469.093 187.336 473.597 190.151 475.623 194.542Z" fill="#1E1E1E"/>
<path d="M495.553 145.79C493.864 146.578 492.063 147.029 490.149 147.029C483.281 146.916 477.763 141.174 477.876 134.306C477.989 130.365 479.903 126.649 483.055 124.285L495.553 145.79Z" fill="#1E1E1E"/>
<path d="M513.568 176.865L502.083 182.27C500.169 176.527 502.646 170.11 507.938 167.182L513.568 176.865Z" fill="#1E1E1E"/>
</svg>
