<svg width="588" height="330" viewBox="0 0 588 330" fill="none" xmlns="http://www.w3.org/2000/svg">
<path fill-rule="evenodd" clip-rule="evenodd" d="M300.069 60.8022C346.528 60.2824 391.239 8.39919 431.07 32.2805C471.724 56.655 479.686 116.596 470.646 163.073C462.672 204.064 424.402 229.97 388.461 251.324C361.851 267.134 330.385 258.121 300.069 264.42C252.942 274.212 207.52 320.643 165.216 297.711C121.191 273.845 111.825 213.073 113.112 163.073C114.366 114.317 129.13 58.6149 171.972 35.1795C211.674 13.4615 254.801 61.3087 300.069 60.8022Z" fill="#F3F6FE"/>
<path d="M271.603 60.0223C271.522 59.6106 271.477 59.1304 271.751 58.8216C272.346 58.1927 273.295 59.1075 273.661 59.8851C275.102 62.9612 276.52 66.0488 277.961 69.1249C277.103 62.2065 276.726 55.2423 276.863 48.2667C276.863 47.8894 276.897 47.4663 277.194 47.2261C277.858 46.6887 278.635 47.7522 278.83 48.5755C280.076 53.9158 280.671 59.4048 280.568 64.8938C280.396 60.2396 280.236 55.5854 280.065 50.9312C280.008 49.4103 279.196 43.9327 280.133 43.5325C281.071 43.1323 282.089 48.5641 282.375 49.9249C283.141 53.6642 283.655 57.4722 283.85 61.2688C283.335 55.7569 282.283 45.385 283.941 44.6989C285.599 44.0242 286.652 49.1701 286.812 51.7888C286.972 54.4075 286.709 57.0606 287.326 59.6221C287.143 55.8484 287.292 52.0633 287.784 48.3125C287.875 47.6835 288.001 46.9631 288.561 46.6315C289.156 46.277 289.979 46.6315 290.379 47.1804C290.78 47.7293 290.883 48.4726 290.974 49.1587C292.289 60.0338 292.129 71.0803 290.494 81.9096C290.391 82.5729 281.734 81.8182 280.854 81.6466C278.658 81.2235 276.829 80.3659 275.674 78.3875C272.746 73.4017 272.677 65.5913 271.625 60.0223H271.603Z" fill="white"/>
<path d="M288.286 83.0427C285.233 83.0427 280.75 82.5167 280.693 82.5053C278.943 82.1622 276.439 81.4189 274.929 78.8345C272.734 75.1066 272.082 69.8806 271.51 65.2607C271.293 63.4768 271.076 61.7958 270.801 60.2749C270.801 60.2406 270.778 60.2177 270.778 60.1834C270.71 59.8289 270.527 58.9026 271.133 58.2394C271.487 57.8506 271.968 57.6905 272.471 57.7705C273.34 57.9078 274.083 58.754 274.449 59.5201C275.158 61.041 275.867 62.562 276.576 64.0829C276.107 58.7997 275.913 53.4937 276.016 48.2563C276.016 47.959 276.016 47.1013 276.656 46.5753C277.068 46.2437 277.582 46.1522 278.063 46.3123C278.371 46.4152 278.646 46.621 278.886 46.8726C278.737 44.231 278.943 43.1218 279.801 42.7559C280.11 42.6187 280.453 42.6415 280.761 42.8016C281.299 43.0875 281.768 43.7965 282.385 46.0836C282.603 44.8028 283.014 44.1624 283.62 43.9223C284.123 43.7164 284.649 43.7622 285.118 44.0595C286.033 44.6313 286.639 46.1522 287.028 47.696C287.154 47.0899 287.417 46.3352 288.137 45.912C289.166 45.2945 290.47 45.8434 291.088 46.6896C291.636 47.4444 291.751 48.3821 291.831 49.0682C293.157 60.0576 292.997 71.1499 291.351 82.0478C291.316 82.2766 291.133 82.5624 290.939 82.6997C290.584 82.9512 289.567 83.0427 288.297 83.0427H288.286ZM272.425 59.7832C272.425 59.7832 272.448 59.8518 272.448 59.8861C272.745 61.4756 272.963 63.2138 273.191 65.0549C273.752 69.5032 274.381 74.5462 276.393 77.9768C277.285 79.5092 278.703 80.3897 281.002 80.8357C281.882 81.0072 288 81.4875 289.704 81.316C291.259 70.7383 291.396 59.9661 290.104 49.2969C290.036 48.7709 289.955 48.1191 289.67 47.7188C289.487 47.4673 289.132 47.33 288.983 47.4101C288.743 47.5473 288.652 48.1762 288.618 48.4736C288.137 52.11 287.989 55.8608 288.16 59.6231C288.183 60.069 287.863 60.4464 287.428 60.515C286.994 60.5722 286.571 60.2978 286.479 59.8632C286.045 58.0335 286.022 56.1696 285.999 54.3628C285.999 53.5394 285.999 52.7047 285.93 51.8813C285.759 49.0568 284.878 46.0836 284.261 45.5804C283.632 46.7011 283.895 51.8699 284.226 56.0781C284.444 57.8163 284.592 59.543 284.684 61.2583C284.707 61.7272 284.352 62.1274 283.895 62.1617C283.449 62.196 283.026 61.853 282.98 61.3841L282.9 60.5722C282.751 59.017 282.625 57.599 282.523 56.3068C282.271 54.2484 281.928 52.1901 281.505 50.1317L281.448 49.8458C281.07 47.9933 280.773 46.7468 280.521 45.912C280.556 47.0785 280.693 48.4964 280.761 49.2969C280.83 49.983 280.876 50.5662 280.899 50.9207L281.139 57.6447C281.356 60.069 281.448 62.5048 281.402 64.9291C281.402 65.3979 281.013 65.7639 280.556 65.7753C280.098 65.7753 279.721 65.4094 279.698 64.952L279.435 57.7591C279.161 54.7516 278.669 51.7555 277.983 48.7938C277.925 48.565 277.823 48.3478 277.708 48.1877V48.2792C277.582 55.1747 277.948 62.1503 278.806 69.0344C278.863 69.4575 278.6 69.8463 278.188 69.9606C277.777 70.075 277.354 69.8806 277.171 69.5032C276.45 67.9595 275.73 66.4271 275.021 64.8833C274.312 63.3396 273.591 61.8072 272.871 60.2634C272.745 59.989 272.551 59.7603 272.391 59.6231C272.391 59.6688 272.391 59.726 272.414 59.7832H272.425Z" fill="#292929"/>
<path d="M227.987 76.7747C227.987 76.7747 229.302 77.3464 231.567 78.3184C258.748 88.0728 263.837 112.579 265.29 111.984C266.993 111.298 270.481 78.5929 270.481 78.5929L294.61 82.6524C294.61 82.6524 281.139 151.848 268 151.23C254.86 150.613 235.855 113.242 235.855 113.242" fill="#3558A2"/>
<path d="M202.154 74.913C202.154 74.913 173.108 82.7348 168.58 93.1981C164.051 103.662 166.03 182.223 166.03 182.223C166.03 182.223 178.094 187.3 189.084 187.666C223.87 190.605 246.501 188.924 246.501 188.924C246.501 188.924 251.143 101.798 246.306 89.8933C241.469 77.9776 216.437 71.3337 202.143 74.9244L202.154 74.913Z" fill="#3558A2"/>
<path d="M245.392 112.033C245.392 112.033 247.622 108.843 251.11 105.367C259.492 96.9844 264.741 90.6378 265.21 88.2135C265.919 84.5999 256.633 93.165 256.633 93.165C256.633 93.165 268.881 78.2876 266.548 78.0245C263.037 77.6243 253.397 90.5005 253.397 90.5005C253.397 90.5005 264.261 74.0107 262.923 72.3983C261.585 70.7859 249.772 88.2135 249.772 88.2135C249.772 88.2135 257.663 76.7438 254.724 74.308C252.94 72.8214 242.339 91.6441 242.339 91.6441C242.339 91.6441 244.992 80.2887 241.962 80.0143C240.075 79.8428 240.052 85.5376 238.154 92.7762C236.599 98.6768 235.295 104.783 235.295 104.783" fill="white"/>
<path d="M245.391 112.892C245.22 112.892 245.048 112.846 244.9 112.732C244.511 112.458 244.419 111.92 244.694 111.543C244.785 111.405 247.015 108.261 250.503 104.762C259.743 95.5217 263.642 90.2843 264.294 88.3289C262.933 88.9464 259.766 91.4507 257.216 93.8064C256.884 94.1152 256.369 94.1152 256.049 93.8064C255.718 93.4977 255.695 92.9831 255.981 92.64C260.292 87.4026 264.923 81.1474 265.838 78.9976C263.311 79.8781 257.65 86.2934 254.094 91.039C253.819 91.405 253.293 91.4965 252.916 91.222C252.539 90.959 252.436 90.433 252.699 90.0442C256.838 83.7547 261.172 76.3675 262.041 73.6573C259.972 75.4984 255.1 81.9594 250.858 88.1916C250.732 88.386 250.606 88.5576 250.503 88.7177C250.24 89.1065 249.703 89.2094 249.314 88.9349C248.925 88.6719 248.822 88.1345 249.085 87.7457C249.199 87.5741 249.314 87.414 249.428 87.2311C252.687 82.371 255.317 76.7219 254.38 75.1782C252.687 76.2417 247.335 84.5666 243.116 92.0797C242.91 92.4456 242.453 92.6171 242.052 92.457C241.652 92.2969 241.435 91.8738 241.526 91.4622C242.35 87.9286 243.081 82.371 242.121 81.0445C242.018 80.9073 241.949 80.8959 241.904 80.8959C241.4 81.1589 240.897 83.8919 240.486 86.099C240.12 88.043 239.674 90.4558 238.999 93.0288C237.467 98.838 236.163 104.933 236.152 104.99C236.049 105.459 235.591 105.745 235.134 105.653C234.676 105.551 234.379 105.093 234.471 104.636C234.471 104.579 235.797 98.4377 237.341 92.5943C238.004 90.0785 238.427 87.8028 238.805 85.7902C239.594 81.5591 240.04 79.009 242.064 79.192C242.647 79.2492 243.15 79.5465 243.516 80.0496C244.477 81.3876 244.397 84.3379 244.076 86.9909C247.461 81.2504 252.218 73.7945 254.254 73.4171C254.643 73.3485 255.009 73.44 255.294 73.6801C256.392 74.595 256.438 76.2531 255.946 78.1742C258.771 74.5035 261.424 71.5303 262.647 71.4731C263.002 71.4502 263.368 71.6103 263.608 71.8848C264.374 72.811 263.231 75.9787 260.177 81.319C262.602 78.9175 265.072 77.0421 266.673 77.2137C267.119 77.2594 267.473 77.5339 267.633 77.9341C268.079 79.0319 266.25 82.2795 262.201 87.6084C264.523 86.1447 265.186 86.5106 265.472 86.6707C265.792 86.8423 266.284 87.3111 266.067 88.4089C265.38 91.931 256.781 100.942 251.727 105.997C248.33 109.393 246.123 112.526 246.1 112.549C245.929 112.789 245.666 112.915 245.391 112.915V112.892Z" fill="#292929"/>
<path d="M277.938 68.4509C281.186 68.7254 284.239 70.7837 285.715 73.6998L277.938 68.4509Z" fill="white"/>
<path d="M285.715 74.5564C285.406 74.5564 285.098 74.3849 284.949 74.0875C283.611 71.4345 280.832 69.5477 277.87 69.3076C277.402 69.2618 277.047 68.8501 277.093 68.3813C277.127 67.9124 277.573 67.5694 278.019 67.6037C281.564 67.901 284.88 70.1538 286.481 73.3214C286.699 73.7445 286.527 74.2591 286.104 74.4763C285.978 74.5335 285.852 74.5678 285.715 74.5678V74.5564Z" fill="#292929"/>
<path d="M227.907 20.42C244.454 30.1515 242.362 43.8969 240.132 46.527C238.199 48.8255 235.741 51.1126 233.522 53.1367C230.583 55.824 225.826 56.5215 222.018 57.242C218.645 57.8709 215.065 58.9916 211.692 59.3461C208.433 59.6891 204.259 60.2495 201.126 59.186C197.02 57.8023 194.333 52.9994 192.743 49.3859C190.731 44.8117 189.873 39.5972 191.417 34.7714C192 32.9532 192.926 31.2036 194.379 29.9457C196.174 28.4019 198.015 28.4134 200.188 28.219C199.833 25.6117 200.611 24.1251 202.807 22.2954C208.021 17.9157 217.535 16.9094 224.076 18.5675C225.391 18.8991 226.649 19.5852 227.884 20.4315H227.907V20.42Z" fill="#292929"/>
<path d="M227.415 70.6325L228.753 85.0182C228.753 85.0182 222.612 92.2682 213.269 90.2213C203.938 88.1629 202.429 81.7934 202.429 81.7934L201.994 55.5721C201.994 55.5721 211.897 56.9786 209.564 42.0783C209.564 42.0783 220.668 44.171 234.676 38.9336C234.676 38.9336 235.214 55.8465 234.242 63.0622C233.27 70.278 227.404 70.621 227.404 70.621L227.415 70.6325Z" fill="white"/>
<path d="M216.62 91.4561C215.5 91.4561 214.31 91.3418 213.075 91.0673C203.321 88.9175 201.651 82.2849 201.594 81.9991C201.594 81.9419 201.571 81.8733 201.571 81.8161L201.137 55.5948C201.137 55.3432 201.24 55.103 201.423 54.9429C201.606 54.7714 201.869 54.7028 202.109 54.7371C202.132 54.7371 204.956 55.0916 206.946 53.0561C208.924 51.032 209.519 47.3842 208.707 42.2268C208.661 41.9523 208.753 41.6779 208.959 41.4835C209.164 41.2891 209.439 41.209 209.713 41.2548C209.816 41.2777 220.771 43.2331 234.368 38.1558C234.631 38.0643 234.917 38.0872 235.146 38.2473C235.374 38.3959 235.511 38.659 235.523 38.9334C235.546 39.631 236.049 55.995 235.077 63.2107C234.254 69.2943 230.148 70.9296 228.319 71.3642L229.577 84.9723C229.599 85.201 229.531 85.4297 229.382 85.6012C229.153 85.8757 224.305 91.479 216.609 91.479V91.4561H216.62ZM203.287 81.6903C203.492 82.4222 205.253 87.591 213.453 89.3977C221.172 91.0902 226.683 85.9557 227.861 84.7321L226.558 70.7238C226.535 70.4951 226.615 70.2664 226.763 70.0834C226.912 69.9119 227.129 69.7975 227.358 69.7861C227.575 69.7861 232.527 69.363 233.396 62.9706C234.196 57.0013 233.956 44.1251 233.853 40.1684C222.75 44.0679 213.704 43.4961 210.571 43.1188C211.2 48.2647 210.388 52.0269 208.158 54.2911C206.363 56.1094 204.133 56.4639 202.863 56.4982L203.287 81.7017V81.6903Z" fill="#292929"/>
<path d="M207.436 55.0251C206.339 50.5538 198.62 47.5806 196.561 52.8409C195.132 58.7073 201.341 64.8366 207.093 61.9435" fill="white"/>
<path d="M204.041 63.5203C202.291 63.5203 200.541 62.9028 199.02 61.6906C196.219 59.4607 194.927 55.9043 195.727 52.6224C195.727 52.5881 195.75 52.5423 195.761 52.508C196.653 50.2324 198.609 49.0202 201.102 49.1803C204.349 49.3976 207.574 51.9248 208.272 54.8065C208.386 55.264 208.1 55.7328 207.643 55.8472C207.185 55.9615 206.716 55.6756 206.602 55.2182C206.065 53.0455 203.492 51.0672 200.976 50.8956C199.764 50.8156 198.163 51.1358 197.374 53.0798C196.768 55.6642 197.854 58.5688 200.084 60.3413C202.108 61.9537 204.521 62.251 206.705 61.1532C207.128 60.9359 207.643 61.1074 207.86 61.5305C208.077 61.9537 207.906 62.4682 207.483 62.6855C206.385 63.2459 205.207 63.5089 204.041 63.5089V63.5203Z" fill="#292929"/>
<path d="M227.748 77.7902C227.748 77.7902 222.35 78.7508 218.176 74.8856C214.014 71.0204 214.311 68.7219 214.311 68.7219C214.311 68.7219 220.978 72.1983 227.05 70.8603L227.759 77.7902H227.748Z" fill="#292929"/>
<path d="M226.18 78.754C224.121 78.754 220.588 78.2851 217.58 75.5063C213.212 71.4582 213.407 68.8853 213.441 68.5994C213.475 68.3249 213.647 68.0848 213.898 67.9476C214.15 67.8103 214.447 67.8218 214.687 67.9476C214.756 67.9819 221.171 71.2638 226.843 70.0174C227.083 69.9602 227.335 70.0174 227.529 70.1546C227.724 70.3032 227.861 70.5205 227.884 70.7607L228.593 77.6905C228.638 78.1365 228.33 78.5482 227.884 78.6168C227.804 78.6168 227.163 78.7426 226.168 78.7426L226.18 78.754ZM215.556 70.2232C215.991 71.1495 216.894 72.5217 218.747 74.2485C221.663 76.9472 225.242 77.0959 226.797 77.0158L226.271 71.8699C222.063 72.4874 217.809 71.1266 215.545 70.2232H215.556Z" fill="#292929"/>
<path d="M223.905 47.2249C223.905 47.2249 229.165 54.2119 228.09 55.5269C227.015 56.842 223.733 56.2016 223.733 56.2016" fill="white"/>
<path d="M225.438 57.2224C224.511 57.2224 223.734 57.0851 223.562 57.0508C223.093 56.9593 222.796 56.5134 222.888 56.0445C222.979 55.5757 223.437 55.2783 223.894 55.3698C225.015 55.5871 226.913 55.6214 227.427 54.9925C227.542 54.3292 225.598 50.8986 223.231 47.7424C222.945 47.3651 223.025 46.8276 223.402 46.5417C223.78 46.2558 224.317 46.3359 224.603 46.7132C227.187 50.1439 230 54.5579 228.765 56.0788C228.011 57.0051 226.604 57.2224 225.449 57.2224H225.438Z" fill="#292929"/>
<path d="M217.892 50.1242C218.55 50.0459 218.995 49.2301 218.884 48.3019C218.774 47.3737 218.151 46.6847 217.492 46.763C216.834 46.8413 216.389 47.6572 216.5 48.5854C216.61 49.5136 217.233 50.2025 217.892 50.1242Z" fill="#292929"/>
<path d="M229.663 50.2327C230.325 50.2057 230.831 49.4268 230.793 48.4928C230.755 47.5589 230.187 46.8236 229.525 46.8506C228.862 46.8776 228.356 47.6565 228.394 48.5905C228.432 49.5244 229 50.2596 229.663 50.2327Z" fill="#292929"/>
<path d="M201.961 27.1003C201.961 27.1003 203.448 29.7419 204.465 32.212L201.961 27.1003Z" fill="white"/>
<path d="M204.465 33.0673C204.133 33.0673 203.813 32.8729 203.676 32.5412C202.692 30.1512 201.229 27.544 201.217 27.5211C200.988 27.1094 201.126 26.5834 201.549 26.3547C201.961 26.126 202.487 26.2746 202.715 26.6863C202.772 26.8007 204.236 29.3965 205.265 31.8894C205.448 32.324 205.242 32.8271 204.796 33.0101C204.694 33.0558 204.579 33.0787 204.465 33.0787V33.0673Z" fill="#292929"/>
<path d="M226.453 64.5846H226.385L220.918 64.4245C219.855 64.3902 218.974 63.6697 218.746 62.6177C218.517 61.5885 218.986 60.5707 219.924 60.1019C220.816 59.6559 221.89 59.3815 223.126 59.29C224.772 59.1756 226.305 59.5301 227.665 60.342C228.557 60.8795 228.958 61.9087 228.66 62.915C228.363 63.9213 227.482 64.5731 226.453 64.5731V64.5846ZM226.43 62.8693C226.853 62.8693 226.979 62.5491 227.002 62.4347C227.036 62.3089 227.094 62.0002 226.762 61.8172C225.71 61.1883 224.521 60.9138 223.228 61.0053C222.222 61.0739 221.364 61.2912 220.678 61.6342C220.335 61.8058 220.37 62.126 220.392 62.2517C220.415 62.3547 220.53 62.7092 220.941 62.7206L226.407 62.8807H226.43V62.8693Z" fill="#292929"/>
<path d="M262.829 119.186C262.669 119.186 262.498 119.14 262.349 119.038C261.96 118.775 261.846 118.248 262.109 117.848C262.166 117.757 265.036 113.263 266.489 102.673C266.557 102.205 266.992 101.873 267.449 101.942C267.918 102.01 268.25 102.433 268.181 102.902C266.672 113.995 263.664 118.603 263.538 118.797C263.378 119.049 263.104 119.175 262.829 119.175V119.186Z" fill="#292929"/>
<path d="M184.979 100.149C184.979 100.149 193.922 128.086 203.985 131.448C208.982 133.118 234.723 95.1178 234.723 95.1178L254.838 113.563C254.838 113.563 225.22 161.066 206.215 164.416C188.73 167.504 176.277 152.695 168.775 135.359C159.833 114.684 166.179 96.3185 168.592 93.208C171.005 90.0976 182.738 88.977 184.979 100.161V100.149Z" fill="#3558A2"/>
<path d="M201.639 165.684C197.134 165.684 192.788 164.506 188.683 162.151C188.272 161.91 188.134 161.396 188.363 160.984C188.592 160.572 189.118 160.424 189.529 160.664C194.698 163.614 200.256 164.598 206.065 163.569C223.332 160.527 250.217 119.211 253.728 113.71L234.871 96.42C228.158 106.289 208.775 133.928 203.709 132.258C195.281 129.445 187.86 110.886 185.07 103.041C184.91 102.595 185.138 102.103 185.584 101.943C186.03 101.783 186.522 102.012 186.682 102.458C188.798 108.393 196.322 127.982 204.258 130.623C207.014 131.527 221.811 112.647 234.013 94.6361C234.15 94.4302 234.379 94.293 234.619 94.2701C234.859 94.2473 235.111 94.3159 235.294 94.4874L255.409 112.933C255.717 113.207 255.775 113.665 255.557 114.019C254.334 115.974 225.517 161.888 206.362 165.261C204.773 165.547 203.195 165.684 201.639 165.684Z" fill="#292929"/>
<path d="M169.896 228.628L187.415 218.382C187.415 218.382 189.931 206.535 190.606 205.128C192.31 201.56 191.395 211.246 192.47 214.7C194.711 214.917 209.977 201.835 212.665 204.351C213.82 205.437 202.499 215.146 202.499 215.146C202.499 215.146 217.685 204.808 220.509 207.369C223.334 209.931 205.678 219.457 205.678 219.457C205.678 219.457 219.583 213.693 220.749 216.243C222.442 219.937 206.169 224.282 206.169 224.282C206.169 224.282 221.356 220.6 220.578 224.271C220.624 226.261 211.716 228.754 203.574 230.949C197.158 234.105 168.078 250.732 168.078 250.732L168.661 230.732C168.684 229.863 169.164 229.062 169.908 228.628H169.896Z" fill="white"/>
<path d="M168.066 251.587C167.918 251.587 167.757 251.541 167.62 251.461C167.357 251.301 167.197 251.015 167.209 250.695L167.792 230.695C167.826 229.517 168.455 228.465 169.461 227.87L186.66 217.807C187.14 215.543 189.187 206.097 189.828 204.725C190.034 204.302 190.514 203.295 191.406 203.478C192.481 203.696 192.538 205.011 192.675 208.51C192.744 210.282 192.835 212.249 193.087 213.622C194.288 213.061 196.838 211.334 198.942 209.905C206.283 204.942 211.235 201.82 213.236 203.696C213.476 203.913 213.602 204.222 213.591 204.565C213.568 205.514 211.921 207.469 209.783 209.608C214.322 207.126 219.262 205.079 221.069 206.715C221.515 207.115 221.71 207.664 221.641 208.27C221.401 210.214 217.604 213.141 213.762 215.646C217.479 214.616 220.772 214.25 221.504 215.874C221.79 216.492 221.767 217.155 221.469 217.807C220.795 219.248 218.485 220.631 215.866 221.809C218.096 221.695 220.051 221.889 220.886 222.701C221.332 223.136 221.515 223.719 221.412 224.348C221.309 226.646 216.095 228.43 203.859 231.747C197.387 234.948 168.764 251.301 168.478 251.473C168.341 251.553 168.203 251.587 168.055 251.587H168.066ZM170.33 229.368C169.827 229.665 169.519 230.18 169.507 230.763L168.97 249.231C174.745 245.938 197.604 232.924 203.184 230.18C203.23 230.157 203.287 230.134 203.333 230.123C208.079 228.842 219.182 225.834 219.708 224.245C219.708 224.176 219.708 224.154 219.708 224.096C219.731 223.993 219.708 223.971 219.686 223.948C218.634 222.93 211.944 223.753 206.34 225.114C205.883 225.228 205.426 224.943 205.311 224.497C205.197 224.039 205.471 223.582 205.917 223.456C210.777 222.152 218.874 219.282 219.914 217.086C220.029 216.846 219.994 216.709 219.949 216.606C219.16 215.794 212.63 217.498 205.986 220.254C205.563 220.426 205.083 220.243 204.888 219.831C204.694 219.419 204.854 218.928 205.254 218.71C213.408 214.319 220.269 209.322 219.949 208.041C218.542 206.76 210.034 211.06 202.978 215.863C202.601 216.114 202.087 216.034 201.812 215.68C201.538 215.314 201.595 214.799 201.938 214.502C206.18 210.866 210.857 206.383 211.749 204.839C209.897 204.599 202.99 209.276 199.925 211.357C195.305 214.479 193.441 215.657 192.389 215.554C192.046 215.52 191.749 215.28 191.646 214.959C191.166 213.416 191.063 210.866 190.971 208.624C190.948 208.133 190.926 207.584 190.903 207.058C190.194 209.733 189.004 215.062 188.261 218.573C188.215 218.813 188.067 219.008 187.861 219.133L170.342 229.379H170.319L170.33 229.368Z" fill="#292929"/>
<path d="M177.146 194.572C176.791 195.361 176.402 196.173 175.991 196.997C173.692 201.719 170.879 206.785 170.936 209.77C171.039 214.596 171.039 219.318 170.959 223.813V224.281C170.936 225.311 170.925 226.317 170.89 227.312C170.845 229.382 170.787 231.394 170.707 233.338C170.353 242.841 167.734 263.093 167.323 267.759H85.834C85.914 267.427 88.0182 254.665 88.1211 254.311C88.7272 251.932 89.4933 249.028 90.4425 245.483C87.2634 233.613 78.5268 219.33 74.8332 206.682C73.5181 202.188 69.367 200.393 66.371 197.957C64.7128 196.608 63.3978 195.064 63.1348 192.754C73.1636 167.665 78.2752 163.079 85.7997 152.158C90.2366 145.732 107.996 144.005 120.357 143.593C121.135 143.57 121.89 143.548 122.61 143.536C128.568 143.399 132.811 143.559 132.811 143.559C132.811 143.559 133.428 143.41 134.514 143.205C135.544 142.999 137.019 142.736 138.757 142.507C141.936 142.072 146.03 141.729 150.204 141.958C156.996 142.335 163.949 144.245 167.323 149.78C170.307 154.674 176.905 168.946 178.884 188.077C179.055 189.712 178.266 192.022 177.123 194.584H177.146V194.572Z" fill="#3558A2"/>
<path d="M165 196.857C164.955 197.406 164.898 197.978 164.852 198.561C164.783 199.361 164.715 200.185 164.646 201.031C164.372 204.244 164.063 207.789 163.72 211.529C163.148 217.91 162.485 224.816 161.844 231.415C161.73 232.695 161.604 233.976 161.478 235.223C160.712 243.193 157.968 262.851 157.476 267.756H124.416C124.897 264.051 127.481 247.356 128.041 242.827C128.933 235.76 129.871 228.03 130.671 220.803C132.261 206.68 133.37 194.41 132.707 192.443C127.881 178.126 120.563 166.233 118.024 156.696C115.485 147.159 120.437 145.775 120.437 145.775L136.115 145.981L150.192 146.164L152.273 152.03C152.273 152.03 162.622 166.679 165.595 186.073C165.721 186.897 165.469 190.979 165.012 196.834V196.857H165Z" fill="#292929"/>
<path d="M185.745 195.154L170.662 233.508L150.387 237.327L165.459 198.973L185.745 195.154Z" fill="white"/>
<path d="M150.386 238.186C150.135 238.186 149.895 238.072 149.723 237.877C149.529 237.637 149.472 237.306 149.586 237.02L164.658 198.677C164.761 198.402 165.012 198.197 165.298 198.151L185.573 194.331C185.882 194.274 186.191 194.389 186.396 194.629C186.591 194.869 186.648 195.2 186.534 195.486L171.462 233.829C171.359 234.104 171.107 234.31 170.821 234.355L150.546 238.175C150.546 238.175 150.444 238.186 150.386 238.186ZM166.087 199.74L151.747 236.208L170.032 232.766L184.372 196.298L166.087 199.74Z" fill="#292929"/>
<path d="M185.744 195.153L183.228 193.415L162.953 197.246L165.457 198.972L185.744 195.153Z" fill="white"/>
<path d="M165.458 199.831C165.286 199.831 165.115 199.773 164.966 199.682L162.462 197.944C162.176 197.749 162.039 197.395 162.107 197.063C162.176 196.72 162.45 196.469 162.782 196.4L183.057 192.581C183.286 192.535 183.514 192.581 183.709 192.718L186.213 194.456C186.499 194.65 186.636 195.005 186.568 195.337C186.499 195.68 186.224 195.931 185.893 196L165.618 199.819C165.618 199.819 165.515 199.831 165.458 199.831ZM165.126 197.704L165.652 198.07L183.56 194.696L183.034 194.33L165.126 197.704Z" fill="#292929"/>
<path d="M147.882 235.589L150.386 237.327L165.458 198.973L162.954 197.246L147.882 235.589Z" fill="white"/>
<path d="M150.386 238.185C150.215 238.185 150.043 238.127 149.894 238.036L147.39 236.298C147.058 236.069 146.933 235.646 147.081 235.28L162.153 196.937C162.245 196.697 162.451 196.503 162.702 196.434C162.954 196.354 163.228 196.4 163.434 196.548L165.938 198.287C166.27 198.515 166.396 198.938 166.247 199.304L151.175 237.647C151.084 237.887 150.878 238.082 150.626 238.15C150.546 238.173 150.466 238.185 150.375 238.185H150.386ZM148.922 235.269L149.986 236L164.417 199.293L163.354 198.561L148.922 235.269Z" fill="#292929"/>
<path d="M141.58 135.392C139.899 136.719 138.504 138.514 136.628 139.68C129.904 143.866 120.939 143.889 113.883 140.275C97.039 131.641 97.4164 111.961 100.87 95.9515C102.276 89.4333 107.034 75.8595 115.827 82.6178C113.243 80.6395 123.878 74.0299 125.387 73.4238C136.583 68.8496 148.487 75.2763 155.051 84.4932C158.516 89.3304 162.644 95.677 164.851 101.223C167.447 107.753 164.645 116.73 160.963 122.287C158.115 126.587 154.033 130.052 149.367 132.27C147.195 133.299 144.404 133.551 142.415 134.82C142.117 135.003 141.843 135.198 141.568 135.426V135.404L141.58 135.392Z" fill="#292929"/>
<path d="M124.896 143.762C121.008 143.762 117.063 142.859 113.495 141.041C99.6126 133.928 95.0842 118.696 100.036 95.768C100.505 93.5724 103.169 82.4801 109.127 80.2959C110.934 79.6327 112.832 79.8385 114.787 80.902C116.171 77.6658 124.096 73.023 125.079 72.6228C137.109 67.717 149.414 75.07 155.76 83.9896C160.506 90.6221 163.834 96.3055 165.652 100.902C168.362 107.718 165.492 117.004 161.684 122.756C158.768 127.158 154.64 130.715 149.745 133.036C148.739 133.516 147.618 133.836 146.543 134.145C145.183 134.534 143.902 134.888 142.884 135.54C142.61 135.712 142.369 135.883 142.118 136.089C142.072 136.123 142.026 136.158 141.969 136.181C141.375 136.661 140.803 137.21 140.208 137.793C139.248 138.719 138.264 139.68 137.075 140.412C133.496 142.642 129.23 143.762 124.885 143.762H124.896ZM111.254 81.6224C110.728 81.6224 110.225 81.7139 109.721 81.8969C105.765 83.3492 102.94 90.462 101.717 96.1225C96.9481 118.193 101.179 132.784 114.273 139.508C121.271 143.088 129.871 142.87 136.171 138.948C137.201 138.308 138.081 137.461 139.007 136.558C139.648 135.929 140.323 135.289 141.043 134.717C141.089 134.683 141.134 134.648 141.18 134.625C141.432 134.431 141.683 134.248 141.958 134.077C143.181 133.299 144.645 132.887 146.063 132.487C147.127 132.19 148.121 131.904 149.002 131.481C153.61 129.297 157.498 125.946 160.243 121.795C163.811 116.409 166.532 107.764 164.051 101.52C162.278 97.0602 159.019 91.4912 154.354 84.973C148.384 76.5909 136.869 69.6496 125.708 74.2009C124.164 74.8298 116.548 79.7928 116.285 81.7711C116.274 81.8626 116.285 81.874 116.343 81.9312C116.72 82.2171 116.789 82.7545 116.503 83.1319C116.217 83.5093 115.679 83.5779 115.302 83.292C113.85 82.1713 112.512 81.6224 111.231 81.6224H111.254Z" fill="#292929"/>
<path d="M154.069 97.6093C154.069 97.6093 160.69 111.972 159.101 123.453C157.511 134.934 147.551 137.45 147.551 137.45L149.312 157.393C149.312 157.393 150.296 167.594 137.671 167.125C125.046 166.656 119.786 156.238 119.786 156.238L115.132 119.68C115.132 119.68 128.58 110.28 126.19 97.2205C126.19 97.2205 133.6 101.817 142.051 101.955C150.513 102.08 154.058 97.6093 154.058 97.6093H154.069Z" fill="white"/>
<path d="M138.505 168.004C138.219 168.004 137.933 168.004 137.636 167.993C124.645 167.512 119.248 157.083 119.019 156.637C118.973 156.546 118.95 156.454 118.939 156.363L114.285 119.804C114.239 119.484 114.388 119.175 114.639 118.992C114.765 118.901 127.607 109.741 125.343 97.3793C125.285 97.0476 125.423 96.7046 125.697 96.5216C125.983 96.3272 126.349 96.3272 126.635 96.4987C126.703 96.5445 133.953 100.981 142.061 101.096H142.404C150.1 101.096 153.348 97.1048 153.382 97.0705C153.565 96.8418 153.862 96.716 154.16 96.7503C154.457 96.7846 154.709 96.9676 154.834 97.242C155.109 97.8367 161.547 111.971 159.946 123.566C158.551 133.664 150.844 137.197 148.454 138.055L150.157 157.324C150.157 157.495 150.535 161.635 147.607 164.757C145.572 166.918 142.507 168.004 138.493 168.004H138.505ZM120.62 155.986C121.249 157.118 126.475 165.854 137.704 166.277C141.649 166.426 144.554 165.511 146.372 163.579C148.774 161.029 148.465 157.518 148.465 157.484L146.704 137.529C146.67 137.106 146.944 136.728 147.344 136.625C147.733 136.523 156.778 134.087 158.265 123.338C159.546 114.075 155.269 102.685 153.782 99.106C152.159 100.501 148.419 102.903 142.05 102.822C135.657 102.72 129.917 100.181 127.275 98.8201C128.27 110.198 118.298 118.397 116.057 120.09L120.62 155.986Z" fill="#292929"/>
<path d="M121.798 116.501C121.798 116.501 114.4 103.202 108.236 112.556C102.072 121.91 113.039 130.567 119.122 129.206C119.122 129.206 119.237 132.831 121.112 134.1" fill="white"/>
<path d="M121.112 134.96C120.952 134.96 120.781 134.914 120.632 134.811C119.043 133.736 118.517 131.483 118.345 130.18C114.674 130.454 110.123 128.041 107.561 124.313C106.018 122.072 103.948 117.498 107.527 112.077C109.208 109.527 111.152 108.292 113.348 108.361C118.311 108.544 122.382 115.771 122.553 116.08C122.782 116.491 122.633 117.017 122.222 117.246C121.81 117.475 121.284 117.326 121.055 116.915C120.015 115.051 116.595 110.202 113.279 110.076C111.781 110.019 110.283 111.002 108.957 113.015C105.938 117.601 107.676 121.454 108.979 123.341C111.369 126.806 115.829 129.059 118.94 128.361C119.191 128.304 119.454 128.361 119.649 128.521C119.855 128.682 119.969 128.91 119.98 129.173C120.015 130.065 120.358 132.558 121.593 133.381C121.982 133.644 122.084 134.182 121.821 134.571C121.661 134.811 121.387 134.948 121.112 134.948V134.96Z" fill="#292929"/>
<path d="M147.538 137.459C147.538 137.459 137.006 139.746 130.751 138.717C130.751 138.717 138.824 153.834 148.945 152.862L147.538 137.459Z" fill="#292929"/>
<path d="M147.986 153.77C137.922 153.77 130.318 139.738 129.986 139.121C129.838 138.835 129.86 138.481 130.043 138.218C130.238 137.955 130.558 137.817 130.878 137.875C136.905 138.869 147.242 136.651 147.345 136.628C147.585 136.582 147.837 136.628 148.031 136.777C148.226 136.925 148.351 137.143 148.374 137.394L149.781 152.798C149.827 153.267 149.484 153.678 149.015 153.724C148.672 153.758 148.317 153.77 147.986 153.77ZM132.365 139.773C134.56 143.306 140.747 152.054 147.997 152.054L146.762 138.503C144.292 138.984 137.545 140.173 132.353 139.773H132.365Z" fill="#292929"/>
<path d="M153.88 112.572C154.524 112.48 154.915 111.488 154.753 110.356C154.59 109.225 153.937 108.382 153.293 108.475C152.649 108.567 152.258 109.559 152.421 110.691C152.583 111.822 153.237 112.665 153.88 112.572Z" fill="#292929"/>
<path d="M140.958 113.81C141.602 113.718 141.992 112.726 141.83 111.594C141.667 110.463 141.014 109.62 140.37 109.712C139.726 109.805 139.336 110.797 139.498 111.928C139.66 113.06 140.314 113.902 140.958 113.81Z" fill="#292929"/>
<path d="M67.617 195.062C67.617 195.062 57.9427 235.68 68.7148 245.801C78.7779 257.979 143.296 236.709 143.296 236.709C149.643 235.337 164.543 231.644 172.823 226.143C176.528 223.673 176.745 221.741 176.711 221.535C176.573 220.711 170.49 225.045 170.65 224.245C170.856 223.239 177.648 220.174 178.449 218.744C179.741 216.434 171.587 219.168 172.445 218.699C175.739 216.903 180.164 213.701 180.884 211.666C181.182 210.808 173.051 215.131 173.257 214.205C173.68 212.375 181.788 210.202 181.994 207.961C182.611 206.268 160.106 212.867 156.641 212.958C156.95 211.391 158.963 206.92 159.695 204.942C152.799 210.968 144.428 218.516 135.314 220.22C129.311 221.34 105.011 221.42 94.4101 222.312C94.4101 222.312 94.2271 217.281 95.2449 203.41" fill="white"/>
<path d="M82.3588 250.374C75.7034 250.374 70.466 249.254 68.0646 246.338C57.1324 236.08 66.395 196.536 66.7953 194.855C66.9096 194.398 67.3671 194.112 67.8245 194.215C68.2819 194.329 68.5678 194.787 68.4649 195.244C68.3734 195.644 59.0307 235.497 69.3225 245.16C78.974 256.835 142.406 236.091 143.046 235.886C147.826 234.845 163.813 231.106 172.367 225.411C173.796 224.462 174.654 223.604 175.157 222.952C174.654 223.227 174.128 223.535 173.716 223.776C171.429 225.102 170.823 225.457 170.194 225.011C169.92 224.816 169.771 224.393 169.84 224.061C170 223.272 170.994 222.621 173.808 220.974C174.94 220.311 176.701 219.281 177.421 218.652C176.701 218.675 175.397 218.927 173.545 219.384C172.481 219.647 171.898 219.796 171.612 219.053C171.452 218.652 171.681 218.149 172.058 217.943C174.425 216.651 177.112 214.787 178.713 213.209C178.359 213.358 178.004 213.518 177.684 213.655C174.128 215.21 173.373 215.473 172.767 214.959C172.515 214.753 172.378 214.318 172.458 214.01C172.733 212.82 174.334 211.974 176.918 210.682C177.981 210.156 179.708 209.287 180.612 208.578C178.119 208.887 172.104 210.362 167.884 211.391C162.704 212.66 158.221 213.758 156.712 213.804C156.426 213.827 156.197 213.701 156.037 213.507C155.865 213.312 155.797 213.049 155.843 212.786C156.037 211.78 156.792 209.882 157.592 207.949C151.257 213.438 143.664 219.533 135.51 221.054C132.046 221.706 123 221.992 113.417 222.312C106.385 222.54 99.1002 222.781 94.5261 223.169C94.2974 223.192 94.0572 223.112 93.8857 222.952C93.7142 222.792 93.5998 222.575 93.5998 222.346C93.5998 222.14 93.4169 217.109 94.4346 203.352C94.4689 202.883 94.8806 202.529 95.3494 202.563C95.8183 202.597 96.1728 203.009 96.1385 203.478C95.3723 213.953 95.2923 219.407 95.2923 221.386C99.935 221.042 106.751 220.814 113.36 220.596C122.451 220.299 131.863 219.99 135.19 219.373C143.755 217.772 151.897 210.648 158.45 204.919L159.159 204.29C159.456 204.027 159.891 204.004 160.211 204.232C160.531 204.45 160.668 204.873 160.531 205.239C160.28 205.902 159.891 206.863 159.468 207.88C158.919 209.218 158.267 210.785 157.867 211.94C159.936 211.574 163.756 210.648 167.472 209.733C180.349 206.577 181.938 206.439 182.647 207.229C182.864 207.469 182.944 207.8 182.876 208.12C182.739 209.104 181.801 209.939 180.52 210.716C180.978 210.636 181.241 210.716 181.481 210.945C181.732 211.174 181.824 211.62 181.721 211.94C181.183 213.461 179.056 215.359 176.781 216.983C178.016 216.857 178.793 217.006 179.205 217.555C179.399 217.806 179.662 218.355 179.205 219.156C178.919 219.659 178.279 220.196 177.284 220.848C177.421 220.997 177.536 221.191 177.57 221.374C177.57 221.397 177.913 223.776 173.304 226.84C164.739 232.535 149.599 236.217 143.481 237.532C141.514 238.184 104.258 250.363 82.3474 250.363L82.3588 250.374Z" fill="#292929"/>
<path d="M147.549 111.404C147.549 111.404 151.311 120.643 150.682 121.581C150.053 122.519 146.405 122.816 146.405 122.816" fill="white"/>
<path d="M146.407 123.67C145.961 123.67 145.595 123.327 145.549 122.881C145.515 122.412 145.858 122 146.327 121.954C147.836 121.829 149.449 121.463 149.895 121.142C149.895 120.045 148.294 115.493 146.75 111.72C146.567 111.285 146.784 110.782 147.219 110.599C147.653 110.416 148.156 110.633 148.339 111.068C152.273 120.731 151.633 121.691 151.381 122.046C150.604 123.201 147.688 123.555 146.464 123.658H146.395H146.407V123.67Z" fill="#292929"/>
<path d="M138.344 127.845C138.344 127.845 140.093 130.978 145.182 130.898C150.271 130.818 151.815 127.856 151.815 127.856" fill="white"/>
<path d="M144.988 131.766C139.59 131.766 137.669 128.416 137.589 128.267C137.36 127.856 137.509 127.329 137.92 127.101C138.344 126.872 138.858 127.021 139.087 127.432C139.155 127.558 140.699 130.097 145.17 130.051C149.768 129.983 150.991 127.604 151.048 127.501C151.254 127.078 151.769 126.906 152.192 127.101C152.615 127.307 152.798 127.798 152.603 128.233C152.535 128.37 150.945 131.686 145.205 131.766H144.988Z" fill="#292929"/>
<path d="M112.351 114.487C112.351 114.487 108.223 119.724 115.988 124.973L112.351 114.487Z" fill="white"/>
<path d="M115.978 125.829C115.818 125.829 115.646 125.783 115.498 125.68C112.547 123.679 110.855 121.426 110.466 118.979C110.02 116.086 111.598 114.039 111.667 113.959C111.964 113.581 112.501 113.524 112.867 113.81C113.233 114.107 113.302 114.645 113.016 115.011C112.982 115.045 111.827 116.612 112.17 118.739C112.49 120.694 113.931 122.547 116.458 124.262C116.847 124.525 116.95 125.062 116.687 125.451C116.527 125.691 116.252 125.829 115.978 125.829Z" fill="#292929"/>
<path d="M115.075 118.968C115.075 118.968 113.188 120.386 113.291 122.684L115.075 118.968Z" fill="white"/>
<path d="M113.291 123.543C112.833 123.543 112.456 123.188 112.433 122.719C112.307 119.998 114.469 118.351 114.56 118.282C114.937 117.997 115.475 118.077 115.761 118.454C116.047 118.831 115.967 119.369 115.589 119.655C115.555 119.678 114.068 120.855 114.148 122.639C114.171 123.108 113.805 123.508 113.325 123.531H113.291V123.543Z" fill="#292929"/>
<path d="M98.9731 204.884C98.8931 204.884 98.8016 204.873 98.7101 204.85L66.3937 194.684C65.9477 194.546 65.6961 194.055 65.8334 193.609C65.9706 193.163 66.4509 192.9 66.9083 193.048L99.2247 203.214C99.6707 203.352 99.9222 203.843 99.785 204.289C99.6707 204.655 99.3276 204.884 98.9617 204.884H98.9731Z" fill="#292929"/>
<path d="M178.256 183.811C177.844 183.811 177.478 183.502 177.41 183.079C174.997 167.161 169.485 154.937 166.615 150.225C164.499 146.749 160.634 144.462 155.134 143.398C154.665 143.307 154.367 142.861 154.459 142.392C154.55 141.923 154.996 141.626 155.465 141.717C161.457 142.872 165.711 145.434 168.09 149.333C171.029 154.159 176.666 166.635 179.114 182.827C179.182 183.296 178.862 183.731 178.393 183.799H178.256V183.811Z" fill="#292929"/>
<path d="M416.339 157.053C416.225 157.053 416.11 157.03 415.996 156.984C415.733 156.87 415.55 156.641 415.493 156.356L405.944 107.435C405.853 107 406.127 106.566 406.562 106.44L433.412 98.9842C433.778 98.8813 434.155 99.0299 434.361 99.3501C434.716 99.899 442.961 112.787 445.728 124.405C448.598 136.469 418.1 156.092 416.797 156.916C416.659 157.007 416.499 157.053 416.339 157.053ZM407.785 107.892L416.934 154.789C422.331 151.187 446.38 134.525 444.058 124.817C441.668 114.788 434.842 103.398 433.252 100.825L407.785 107.904V107.892Z" fill="#292929"/>
<path d="M415.231 110.519L437.564 102.389C436.764 101.222 423.133 76.0185 412.59 70.7468C403.293 64.5946 386.151 65.7724 366.676 67.0875C360.456 67.3848 354.303 68.6999 348.437 70.8955C326.538 79.6093 323.394 108.461 323.394 108.461L343.531 115.413C343.531 115.413 340.238 154.671 337.162 175.175C337.162 175.175 362.423 190.041 417.495 180.961C417.495 180.892 415.3 116.294 415.22 110.508L415.231 110.519Z" fill="white"/>
<path d="M383.932 184.737C352.176 184.737 336.921 176.034 336.726 175.92C336.429 175.737 336.258 175.394 336.315 175.051C339.128 156.263 342.17 121.27 342.627 116.01L323.118 109.275C322.741 109.149 322.501 108.772 322.547 108.371C322.581 108.074 326.011 78.9023 348.128 70.0971C354.2 67.8214 360.421 66.5178 366.641 66.2319C386.482 64.8825 403.543 63.739 413.069 70.0399C419.324 73.1618 427.592 83.4879 437.552 100.675C437.941 101.35 438.193 101.785 438.273 101.91C438.421 102.128 438.467 102.402 438.387 102.654C438.307 102.905 438.113 103.111 437.861 103.202L416.099 111.127C416.179 114.775 416.637 129.824 418.261 178.15C418.318 179.945 418.352 180.975 418.352 180.975C418.352 181.398 418.043 181.752 417.632 181.821C404.836 183.936 393.606 184.737 383.92 184.737H383.932ZM338.099 174.719C341.895 176.663 367.19 188.247 416.614 180.254C416.603 179.785 416.58 179.088 416.545 178.207C414.796 126.473 414.396 112.854 414.373 110.533C414.373 110.167 414.59 109.835 414.933 109.721L436.294 101.945C436.226 101.819 436.146 101.682 436.054 101.533C423.864 80.4918 416.351 73.5963 412.2 71.5265C403.063 65.4886 386.276 66.6321 366.824 67.9472H366.699C360.661 68.2331 354.611 69.491 348.722 71.698C329.419 79.3826 324.971 103.523 324.319 107.88L343.794 114.604C344.159 114.729 344.4 115.095 344.365 115.484C344.331 115.873 341.095 154.239 338.076 174.697L338.099 174.719Z" fill="#292929"/>
<path d="M369.9 83.4996C369.9 83.4996 370.93 103.123 377.882 107.377C384.835 111.631 394.429 76.6956 394.429 76.6956L369.9 83.511V83.4996Z" fill="#292929"/>
<path d="M379.105 108.592C378.521 108.592 377.961 108.432 377.435 108.112C370.174 103.675 369.087 84.3718 369.041 83.5485C369.019 83.1482 369.282 82.7823 369.67 82.6794L394.199 75.8639C394.485 75.7838 394.817 75.8639 395.034 76.0812C395.251 76.2984 395.343 76.6186 395.251 76.9159C394.451 79.8434 387.189 105.63 380.362 108.329C379.939 108.5 379.505 108.581 379.093 108.581L379.105 108.592ZM370.802 84.1431C371.065 87.5966 372.541 103.114 378.327 106.648C378.773 106.922 379.219 106.945 379.745 106.751C384.559 104.841 390.723 86.5102 393.193 77.9337L370.802 84.1545V84.1431Z" fill="#292929"/>
<path d="M393.996 15.2431C393.779 15.0945 393.63 15.0259 393.413 14.9458C391.881 14.2826 390.268 13.6993 388.656 13.3334L385.649 12.5329C384.402 12.167 383.453 11.7325 382.138 11.8697C381.337 11.9383 378.764 13.7794 378.33 13.6307C376.134 12.9675 373.721 13.9281 372.612 15.9064C368.736 13.2648 363.453 14.374 360.822 18.2506C360.239 19.0511 359.873 20.0117 359.656 20.9608C357.46 20.3776 355.185 20.5263 353.138 21.2581C348.815 23.0192 347.42 29.3887 348.964 33.4826C349.913 36.0441 352.04 38.0224 354.682 38.7543C348.747 47.1021 360.765 50.6128 366.106 53.0371C370.943 55.164 376.134 56.6964 381.406 56.3304C386.529 55.9645 391.366 53.6203 394.877 49.8123C397.073 47.3994 401.83 43.8087 399.931 40.0693C399.634 39.6348 399.417 39.1202 399.497 38.537C399.646 38.1711 399.863 37.8051 400.229 37.5879C403.305 34.5804 402.722 28.7941 399.2 26.3812C400.881 25.5007 400.732 22.9391 399.863 21.2581C398.468 18.6966 396.489 16.5696 394.008 15.2546H393.996V15.2431Z" fill="white"/>
<path d="M379.851 57.2445C375.608 57.2445 370.977 56.1238 365.751 53.8253C365.11 53.5394 364.39 53.2306 363.601 52.9105C359.393 51.1608 353.618 48.7708 352.429 44.6084C351.948 42.9159 352.257 41.1091 353.355 39.2109C350.965 38.216 349.067 36.2491 348.152 33.7905C346.436 29.2049 348.095 22.3894 352.806 20.4683C354.853 19.7364 356.991 19.5649 359.038 19.9537C359.301 19.1189 359.667 18.387 360.125 17.7581C361.52 15.7112 363.635 14.2932 366.082 13.8015C368.255 13.3669 370.451 13.6985 372.36 14.7506C373.756 12.9781 376.146 12.1776 378.398 12.7723C378.673 12.6579 379.279 12.3263 379.69 12.0861C380.8 11.4572 381.509 11.0798 382.058 11.0341C383.281 10.8969 384.23 11.1942 385.225 11.5144C385.442 11.583 385.66 11.6516 385.9 11.7202L388.885 12.5207C390.337 12.8523 391.949 13.3898 393.756 14.1674C393.973 14.236 394.179 14.3389 394.442 14.5104C396.958 15.8598 399.096 18.044 400.617 20.8456C401.555 22.6296 401.669 24.9738 400.549 26.3689C401.955 27.7069 402.87 29.6509 403.053 31.7664C403.27 34.2708 402.458 36.615 400.834 38.2046C400.789 38.2503 400.732 38.296 400.674 38.3303C400.549 38.4104 400.446 38.5476 400.343 38.7535C400.343 39.0165 400.434 39.2909 400.652 39.6111C402.573 43.3619 399.222 46.6896 396.775 49.1139C396.318 49.5713 395.883 50.0059 395.517 50.4061C391.823 54.4085 386.838 56.8214 381.474 57.1987C380.948 57.233 380.411 57.2559 379.862 57.2559L379.851 57.2445ZM356.877 21.4517C355.722 21.4517 354.556 21.6576 353.423 22.0578C349.673 23.5787 348.346 29.3993 349.764 33.1844C350.622 35.5058 352.543 37.2783 354.899 37.9301C355.173 38.0102 355.379 38.2046 355.482 38.4676C355.573 38.7306 355.539 39.0279 355.367 39.2566C354.075 41.0748 353.652 42.6644 354.075 44.1281C355.047 47.5015 360.365 49.7085 364.264 51.3209C365.065 51.6526 365.808 51.9613 366.448 52.2472C372.155 54.7515 376.889 55.7807 381.337 55.472C386.266 55.1175 390.851 52.899 394.236 49.2283C394.614 48.8166 395.071 48.3592 395.551 47.8789C397.736 45.7062 400.457 43.0074 399.153 40.4573C398.73 39.8284 398.536 39.1308 398.627 38.4218C398.627 38.3532 398.65 38.2732 398.685 38.216C398.913 37.6328 399.245 37.1982 399.68 36.9124C400.892 35.6888 401.498 33.8705 401.326 31.9151C401.155 29.9025 400.171 28.1071 398.708 27.0894C398.456 26.9178 398.319 26.6319 398.342 26.3346C398.364 26.0373 398.536 25.7629 398.799 25.6256C400 24.9967 399.737 22.8811 399.096 21.6576C397.736 19.1532 395.837 17.1978 393.596 16.0085C393.573 16.0085 393.55 15.9856 393.527 15.9627C393.356 15.8484 393.276 15.8141 393.15 15.7683C391.366 15.0022 389.857 14.499 388.473 14.1788L385.442 13.3669C385.179 13.2869 384.939 13.2182 384.711 13.1382C383.819 12.8523 383.121 12.6236 382.241 12.7265C381.966 12.7723 381.074 13.2754 380.548 13.5727C379.199 14.3275 378.638 14.6362 378.067 14.4418C376.271 13.9044 374.282 14.682 373.378 16.3172C373.264 16.5231 373.058 16.6832 372.829 16.7403C372.589 16.7975 372.349 16.7403 372.143 16.6146C368.69 14.2703 363.933 15.2194 361.543 18.7301C361.062 19.3934 360.719 20.1938 360.502 21.1544C360.445 21.3831 360.308 21.5775 360.113 21.6919C359.919 21.8062 359.679 21.852 359.45 21.7833C358.615 21.5661 357.757 21.4517 356.9 21.4517H356.877Z" fill="#292929"/>
<path d="M370.485 68.7836L369.902 83.5009C369.902 83.5009 375.837 91.8488 384.916 87.9722C393.996 84.0956 394.442 76.6168 394.442 76.6168L392.83 61.1676L391.8 51.642C391.732 50.9101 391.869 49.3663 391.503 48.7145C391.069 47.834 389.674 47.3194 388.942 46.5189C388.21 45.7184 387.627 44.7579 387.261 43.6601C386.529 41.5331 386.826 39.1888 387.993 37.2105C386.46 37.0618 384.985 36.2614 384.116 34.9349C383.235 33.6198 382.95 31.9274 383.384 30.395C382.95 30.9096 382.504 31.4242 382.069 32.0074C381.406 32.9565 380.457 33.5398 379.359 33.7685C377.895 33.9171 376.5 33.1853 375.699 31.9388C375.551 33.6198 373.938 34.8663 372.257 35.1636C370.576 35.4609 368.884 34.8663 367.283 34.3631C366.483 38.2397 363.544 41.3959 359.736 42.4937C358.055 48.3486 358.341 56.4791 360.319 62.2654C362.514 69.4469 370.496 68.7836 370.496 68.7836H370.485Z" fill="white"/>
<path d="M380.161 89.8469C373.448 89.8469 369.251 84.0721 369.205 83.992C369.091 83.8319 369.045 83.6489 369.045 83.466L369.594 69.6406C367.261 69.5491 361.384 68.7029 359.485 62.5163C357.438 56.5242 357.187 48.1764 358.891 42.2529C358.971 41.967 359.188 41.7497 359.474 41.6696C362.95 40.6633 365.683 37.7244 366.415 34.1909C366.461 33.9508 366.61 33.7449 366.827 33.6191C367.033 33.4933 367.284 33.4705 367.524 33.5391L367.788 33.6191C369.228 34.0766 370.715 34.5568 372.099 34.3167C373.345 34.0994 374.717 33.1732 374.832 31.8695C374.866 31.5036 375.118 31.1948 375.484 31.1148C375.838 31.0233 376.215 31.172 376.41 31.4807C377.062 32.487 378.171 33.0359 379.269 32.9216C380.092 32.75 380.847 32.2698 381.361 31.5265C381.83 30.8975 382.288 30.3715 382.734 29.8455C382.997 29.5367 383.443 29.4567 383.786 29.6511C384.14 29.8455 384.312 30.2571 384.209 30.6459C383.843 31.9153 384.083 33.3447 384.826 34.4768C385.535 35.5403 386.747 36.2378 388.074 36.3636C388.371 36.3865 388.623 36.5695 388.76 36.8325C388.897 37.0955 388.886 37.4042 388.737 37.6558C387.674 39.4397 387.433 41.5324 388.074 43.385C388.394 44.3341 388.897 45.1917 389.583 45.9465C389.823 46.2095 390.201 46.4611 390.59 46.7241C391.241 47.1701 391.928 47.6275 392.282 48.3365C392.625 48.954 392.637 49.9374 392.637 50.8065C392.637 51.0924 392.637 51.3669 392.659 51.5613L395.301 76.5247V76.6619C395.278 76.9935 394.718 84.7124 385.261 88.7491C383.443 89.5267 381.739 89.8469 380.172 89.8469H380.161ZM370.772 83.2258C371.778 84.5066 376.97 90.4187 384.575 87.1825C392.682 83.7176 393.506 77.3823 393.574 76.6276L390.944 51.7328C390.921 51.4812 390.921 51.161 390.91 50.8065C390.91 50.3148 390.91 49.3885 390.75 49.1255C390.578 48.7825 390.087 48.4623 389.618 48.1421C389.16 47.8333 388.68 47.5131 388.303 47.09C387.456 46.1523 386.827 45.0888 386.439 43.9224C385.764 41.9555 385.867 39.7942 386.713 37.8274C385.352 37.4271 384.163 36.5695 383.397 35.4145C382.894 34.6712 382.573 33.825 382.413 32.9444C381.682 33.7907 380.687 34.3739 379.52 34.6026C378.228 34.7284 377.004 34.351 376.044 33.5848C375.289 34.8885 373.814 35.7576 372.396 35.9977C370.829 36.2721 369.286 35.8833 367.879 35.4374C366.815 39.0624 364.048 41.9441 360.435 43.1562C358.959 48.7481 359.222 56.3984 361.132 61.9675C363.11 68.4056 370.12 67.9253 370.429 67.9024C370.669 67.8795 370.909 67.971 371.092 68.1426C371.264 68.3141 371.367 68.5542 371.355 68.7944L370.784 83.203V83.2258H370.772Z" fill="#292929"/>
<path d="M370.187 76.5501C373.629 76.6187 376.853 75.0864 378.9 72.3076C382.411 67.6191 381.542 64.2571 381.542 64.2571C381.542 64.2571 377.002 69.0142 370.552 68.7969L370.187 76.5616V76.5501Z" fill="#292929"/>
<path d="M370.427 77.4055H370.164C369.935 77.4055 369.718 77.3026 369.558 77.1311C369.398 76.9595 369.318 76.7308 369.329 76.5021L369.695 68.7375C369.718 68.2686 370.072 67.9027 370.576 67.9256C376.556 68.12 380.868 63.6945 380.913 63.6487C381.131 63.42 381.451 63.3285 381.748 63.4086C382.045 63.4886 382.285 63.7173 382.366 64.0261C382.411 64.1748 383.303 67.857 379.587 72.8085C377.437 75.7359 374.098 77.4055 370.427 77.4055ZM371.376 69.6409L371.09 75.6673C373.949 75.4844 376.511 74.1007 378.214 71.7907C380.021 69.3779 380.593 67.3881 380.742 66.0845C378.958 67.4682 375.619 69.5265 371.376 69.6409Z" fill="#292929"/>
<path d="M371.652 45.3516C371.652 45.3516 367.627 53.4821 368.942 54.5799C370.257 55.6777 373.482 54.4313 373.482 54.4313" fill="white"/>
<path d="M370.576 55.8841C369.776 55.8841 368.987 55.724 368.392 55.2323C367.169 54.2145 368.015 50.761 370.885 44.9633C371.091 44.5402 371.606 44.3687 372.029 44.5745C372.452 44.7803 372.623 45.2949 372.418 45.718C370.599 49.4002 369.261 53.2654 369.559 53.9972C370.119 54.4432 372.063 54.0544 373.172 53.6199C373.618 53.4484 374.11 53.6656 374.282 54.1116C374.453 54.5576 374.236 55.0493 373.79 55.2208C373.401 55.3695 371.972 55.8841 370.565 55.8841H370.576Z" fill="#292929"/>
<path d="M378.022 45.7343C378.695 45.5884 379.073 44.6997 378.867 43.7491C378.661 42.7986 377.949 42.1463 377.276 42.2921C376.603 42.4379 376.225 43.3267 376.431 44.2772C376.637 45.2278 377.349 45.8801 378.022 45.7343Z" fill="#292929"/>
<path d="M367.215 45.7146C367.298 44.7456 366.809 43.9123 366.123 43.8534C365.438 43.7944 364.814 44.5322 364.731 45.5013C364.648 46.4703 365.136 47.3036 365.822 47.3625C366.508 47.4215 367.131 46.6837 367.215 45.7146Z" fill="#292929"/>
<path d="M372.979 57.0627C373.665 57.0627 374.351 57.2571 374.831 57.7031C376.489 59.2126 376.341 62.1515 376.341 62.243C376.341 62.3916 376.192 62.5403 376.043 62.586C368.519 63.4666 368.427 63.4208 368.279 63.2722C368.233 63.2264 368.176 63.1235 368.176 63.032C368.176 61.8542 368.473 60.7335 368.953 59.6586C369.594 58.3435 370.806 57.4172 372.27 57.1657C372.51 57.0627 372.704 57.0627 372.956 57.0627H372.979Z" fill="white"/>
<path d="M368.678 64.1957C368.015 64.1957 367.889 64.0699 367.683 63.8641C367.466 63.6468 367.34 63.3266 367.34 63.0179C367.34 61.7943 367.626 60.5478 368.197 59.2899C368.952 57.7347 370.393 56.6369 372.074 56.3282C372.429 56.2024 372.726 56.2024 372.978 56.2024C373.927 56.2024 374.796 56.5111 375.402 57.06C377.163 58.661 377.22 61.4284 377.197 62.2403C377.197 62.7549 376.831 63.2237 376.317 63.3952C376.259 63.4181 376.202 63.4296 376.145 63.4296C371.525 63.967 369.581 64.1957 368.666 64.1957H368.678ZM372.978 57.9177C372.76 57.9177 372.692 57.9177 372.612 57.952C372.554 57.9749 372.497 57.9977 372.429 57.9977C371.239 58.1921 370.256 58.9355 369.741 60.0104C369.364 60.8452 369.135 61.6571 369.067 62.4575C370.05 62.3889 372.303 62.1374 375.482 61.7714C375.448 60.9023 375.253 59.2328 374.247 58.3179C373.961 58.0549 373.492 57.9063 372.966 57.9063H372.978V57.9177Z" fill="#292929"/>
<path d="M345.683 99.8865C345.751 100.767 343.602 115.439 343.602 115.439L345.683 99.8865Z" fill="white"/>
<path d="M343.611 116.285H343.486C343.017 116.216 342.697 115.781 342.765 115.313C343.577 109.789 344.858 100.744 344.835 99.9435C344.835 99.4746 345.189 99.0744 345.647 99.0515C346.127 99.0515 346.504 99.3603 346.55 99.8177C346.63 100.721 344.972 112.099 344.469 115.564C344.412 115.987 344.034 116.296 343.623 116.296H343.611V116.285Z" fill="#292929"/>
<path d="M323.392 108.475L319.219 129.276L304.787 112.363C304.787 112.363 302.294 108.258 300.762 107.674C298.852 106.942 291.099 106.508 288.537 104.381C285.976 102.254 284.512 101.819 284.295 103.432C284.078 105.044 291.11 109.287 291.11 109.287C291.11 109.287 285.473 110.899 284.295 110.453C283.117 110.007 280.19 103.866 279.023 103.866C278.44 103.866 277.114 105.181 278.291 107.823C277.262 105.261 275.798 102.403 274.632 102.334C273.466 102.265 273.466 104.53 274.197 107.388C274.197 107.388 271.121 102.334 269.875 105.479C268.777 108.338 276.908 118.446 278.806 118.881C280.704 119.316 293.157 115.588 293.157 115.588C293.157 115.588 308.321 158.871 330.288 164.508C335.777 165.903 343.473 115.439 343.473 115.439L323.404 108.486H323.392V108.475Z" fill="white"/>
<path d="M330.505 165.389C330.345 165.389 330.196 165.366 330.071 165.332C309.27 159.991 294.838 122.689 292.62 116.628C289.406 117.578 280.452 120.128 278.6 119.704C276.782 119.281 272.15 113.632 270.149 109.87C269.017 107.732 268.663 106.188 269.051 105.159C269.532 103.935 270.286 103.626 270.824 103.581C271.51 103.512 272.207 103.878 272.814 104.393C272.779 103.42 272.916 102.563 273.351 102.025C273.683 101.625 274.152 101.431 274.655 101.465C275.032 101.488 275.981 101.545 277.422 104.027C277.422 104.027 277.422 104.004 277.445 103.992C277.845 103.386 278.44 102.997 278.989 102.997C280.029 102.997 280.933 104.324 282.557 106.851C283.22 107.88 284.215 109.436 284.592 109.664C285.038 109.79 286.936 109.447 288.937 108.955C286.01 107.046 283.208 104.804 283.414 103.306C283.551 102.277 284.089 101.877 284.512 101.705C285.518 101.305 286.891 101.911 289.063 103.718C290.596 104.987 294.564 105.65 297.468 106.119C299.069 106.382 300.339 106.6 301.059 106.863C302.74 107.503 304.958 111.002 305.473 111.848L318.715 127.366L322.546 108.303C322.592 108.063 322.74 107.846 322.958 107.732C323.175 107.617 323.427 107.583 323.667 107.663L343.736 114.616C344.125 114.753 344.365 115.142 344.308 115.553C343.599 120.231 337.183 161.329 331.637 165.011C331.214 165.297 330.825 165.377 330.505 165.377V165.389ZM293.146 114.719C293.5 114.719 293.832 114.936 293.958 115.29C294.106 115.725 309.212 158.207 330.494 163.662C330.528 163.674 330.619 163.628 330.688 163.582C334.37 161.146 339.722 134.067 342.501 115.999L324.044 109.596L320.065 129.436C319.996 129.756 319.756 130.019 319.436 130.099C319.115 130.179 318.784 130.076 318.567 129.825L304.135 112.912C304.135 112.912 304.078 112.843 304.055 112.798C303.083 111.197 301.322 108.795 300.453 108.464C299.904 108.246 298.589 108.029 297.194 107.8C293.935 107.263 289.864 106.588 287.977 105.021C286.044 103.421 285.324 103.295 285.164 103.295C285.164 103.318 285.141 103.398 285.118 103.523C285.267 104.187 288.263 106.565 291.522 108.532C291.819 108.704 291.979 109.047 291.934 109.378C291.888 109.721 291.648 109.996 291.316 110.087C289.544 110.59 285.267 111.723 283.975 111.242C283.197 110.956 282.431 109.79 281.127 107.766C280.498 106.794 279.492 105.227 278.977 104.77C278.932 104.838 278.84 104.964 278.771 105.147C278.657 105.445 278.531 106.074 278.897 107.08C278.954 107.206 279 107.343 279.057 107.48C279.229 107.915 279.023 108.406 278.6 108.589C278.165 108.772 277.674 108.578 277.479 108.143C277.411 107.995 277.353 107.835 277.296 107.697C275.958 104.473 274.975 103.398 274.62 103.192C274.472 103.569 274.403 104.838 274.998 107.137C275.101 107.549 274.895 107.972 274.506 108.143C274.117 108.303 273.66 108.166 273.443 107.8C272.642 106.485 271.464 105.273 270.995 105.273H270.972C270.972 105.273 270.801 105.365 270.652 105.765C270.607 105.879 270.424 106.588 271.441 108.635C273.488 112.74 277.959 117.726 278.977 118.023C280.029 118.264 286.879 116.548 292.894 114.742C292.974 114.719 293.054 114.707 293.146 114.707V114.719Z" fill="#292929"/>
<path d="M280.99 112.479C280.727 112.479 280.452 112.353 280.292 112.124L277.582 108.316C277.308 107.927 277.399 107.39 277.788 107.115C278.177 106.841 278.714 106.933 278.989 107.321L281.699 111.129C281.973 111.518 281.882 112.056 281.493 112.33C281.344 112.433 281.173 112.49 281.001 112.49H280.99V112.479Z" fill="#292929"/>
<path d="M274.176 107.376C275.125 108.84 276.154 110.304 277.252 111.619L274.176 107.376Z" fill="white"/>
<path d="M277.252 112.477C277.012 112.477 276.76 112.374 276.588 112.168C275.605 110.979 274.576 109.572 273.455 107.834C273.192 107.434 273.306 106.908 273.707 106.645C274.107 106.382 274.633 106.496 274.896 106.896C275.982 108.566 276.966 109.927 277.915 111.059C278.224 111.425 278.166 111.962 277.801 112.271C277.64 112.408 277.446 112.465 277.252 112.465V112.477Z" fill="#292929"/>
<path d="M415.597 124.052C415.151 124.052 414.774 123.709 414.739 123.263L412.795 96.973C412.761 96.5042 413.115 96.0925 413.584 96.0582C414.076 96.0239 414.465 96.3784 414.499 96.8472L416.443 123.137C416.477 123.606 416.123 124.018 415.654 124.052H415.585H415.597Z" fill="#292929"/>
<path d="M388.977 210.719L385.032 222.715C385.032 222.715 361.109 209.416 359.233 205.208C357.358 201.011 349.319 188.5 345.705 186.739C342.092 184.978 346.003 197.98 346.003 197.98C346.003 197.98 327.077 185.253 326.562 189.335C325.956 194.047 325.568 203.835 330.588 208.192C335.951 212.858 350.165 219.971 350.165 219.971C350.165 219.971 396.032 264.683 402.814 262.636C409.595 260.601 411.619 220.165 411.619 220.165" fill="white"/>
<path d="M402.436 263.538C394.111 263.538 357.392 228.203 349.673 220.679C348.186 219.935 335.219 213.349 330.038 208.843C324.504 204.029 325.178 193.531 325.727 189.231C325.807 188.614 326.15 188.122 326.711 187.882C329.512 186.613 339.484 192.696 344.573 196.001C343.555 192.17 342.652 187.344 344.127 186.087C344.424 185.835 345.087 185.48 346.105 185.972C350.016 187.882 358.089 200.507 360.033 204.863C361.291 207.677 375.048 216.127 384.562 221.468L388.187 210.467C388.336 210.021 388.816 209.769 389.274 209.918C389.72 210.067 389.971 210.547 389.823 211.004L385.877 223C385.797 223.24 385.614 223.435 385.374 223.526C385.134 223.617 384.871 223.606 384.642 223.48C382.172 222.108 360.422 209.918 358.478 205.572C356.443 201.01 348.518 189.06 345.362 187.527C345.293 187.493 345.247 187.482 345.213 187.47C344.71 188.362 345.453 193.074 346.86 197.762C346.963 198.105 346.837 198.483 346.551 198.7C346.254 198.917 345.865 198.917 345.568 198.723C336.945 192.925 328.643 188.694 327.431 189.46C327.054 192.605 326.139 203.182 331.193 207.562C336.419 212.102 350.451 219.146 350.599 219.226C350.679 219.261 350.748 219.318 350.817 219.375C368.416 236.528 398.022 263.195 402.619 261.835C407.136 260.474 410.052 235.545 410.818 220.141C410.841 219.672 411.241 219.318 411.721 219.329C412.19 219.352 412.556 219.752 412.533 220.233C412.19 227.082 410.12 261.377 403.111 263.481C402.928 263.538 402.71 263.561 402.482 263.561L402.436 263.538Z" fill="#292929"/>
<path d="M480.538 121.982C483.488 129.278 484.415 138.277 484.575 144.727C484.826 154.447 488.68 164.59 490.99 174.013C491.973 178.05 492.98 182.109 493.083 186.26C493.437 200.131 483.443 212.733 471.012 218.92C458.102 225.358 442.115 225.815 429.319 219.171C416.5 212.539 407.5 198.656 407.66 184.225C407.695 179.982 408.529 175.682 410.611 171.989C412.875 167.986 416.488 164.91 418.901 161.011C424.733 151.531 422.378 139.421 423.373 128.34C423.784 123.834 424.859 119.192 427.718 115.692C430.874 111.85 435.734 109.872 440.537 108.557C451 105.664 464.723 105.32 473.791 112.296C476.764 114.595 478.96 118.048 480.561 121.993H480.538V121.982Z" fill="#292929"/>
<path d="M414.866 271.411L423.763 170.723L470.705 172.793L468.875 274.064L414.866 271.411Z" fill="#292929"/>
<path d="M511.472 211.373L483.192 220.681L488.681 276.577L456.811 281.129L459.807 177.547L433.151 177.433C433.185 178.45 428.371 255.788 426.404 278.041L400.697 276.783L408.164 219.206L385.202 208.823C385.202 208.823 395.837 166.317 432.773 167.095C466.794 167.827 454.958 168.273 454.26 168.307C454.935 168.296 481.225 167.461 493.804 183.196C506.532 199.171 511.46 211.396 511.46 211.396V211.361H511.472V211.373Z" fill="#3558A2"/>
<path d="M436.41 162.203L433.951 178.853C433.951 178.853 434.1 188.459 444.723 187.292C455.347 186.126 460.173 177.538 460.173 177.538C460.173 177.538 465.456 136.714 465.787 133.74C463.969 134.278 458.858 135.41 457.177 134.415C455.496 133.42 456.044 127.737 456.113 125.884C454.203 128.034 452.74 130.561 451.825 133.283C449.503 133.009 447.193 132.734 444.872 132.46C444.357 129.864 444.357 127.176 444.906 124.604C443.077 126.593 441.716 129.006 440.973 131.602C439.029 131.328 431.939 129.04 430.498 130.447C428.371 132.517 424.734 148.458 428.325 154.804C431.916 161.151 436.421 162.203 436.421 162.203H436.41Z" fill="white"/>
<path d="M442.985 188.248C440.241 188.248 437.999 187.493 436.295 185.984C433.185 183.239 433.082 179.042 433.082 178.86V178.722L435.438 162.793C433.928 162.198 430.44 160.346 427.547 155.234C423.796 148.613 427.387 132.26 429.869 129.836C431.184 128.544 434.591 129.241 438.914 130.282C439.452 130.408 439.943 130.534 440.355 130.614C441.167 128.189 442.505 125.925 444.254 124.015C444.517 123.73 444.94 123.661 445.284 123.832C445.627 124.015 445.81 124.393 445.73 124.77C445.249 127 445.204 129.367 445.592 131.666L451.23 132.34C452.202 129.733 453.62 127.366 455.461 125.296C455.701 125.022 456.09 124.93 456.422 125.067C456.753 125.205 456.971 125.536 456.959 125.891C456.959 126.131 456.936 126.417 456.913 126.76C456.685 130.934 456.913 133.255 457.599 133.655C458.754 134.33 463.02 133.633 465.536 132.889C465.81 132.809 466.107 132.866 466.325 133.061C466.542 133.244 466.656 133.53 466.622 133.816C466.29 136.766 461.053 177.224 460.996 177.625C460.984 177.739 460.95 177.842 460.893 177.933C460.687 178.299 455.724 186.91 444.792 188.122C444.163 188.191 443.557 188.225 442.974 188.225V188.248H442.985ZM434.809 178.894C434.832 179.386 435.095 182.633 437.45 184.703C439.143 186.19 441.556 186.773 444.62 186.43C453.94 185.401 458.674 178.311 459.338 177.247C459.692 174.537 463.877 142.095 464.781 134.879C462.688 135.382 458.503 136.194 456.73 135.153C455.244 134.284 455.038 131.551 455.118 128.521C454.066 130.065 453.231 131.746 452.614 133.553C452.488 133.93 452.099 134.181 451.699 134.124L444.746 133.301C444.38 133.255 444.083 132.981 444.003 132.615C443.671 130.98 443.545 129.31 443.625 127.652C442.814 128.956 442.185 130.362 441.761 131.826C441.647 132.237 441.235 132.5 440.812 132.443C440.286 132.375 439.497 132.18 438.502 131.94C436.673 131.506 431.801 130.328 431.058 131.06C429.331 132.752 425.535 148.19 429.034 154.388C432.053 159.717 435.746 161.112 436.467 161.341C436.913 161.375 437.244 161.752 437.244 162.198C437.244 162.278 437.244 162.335 437.222 162.404L434.786 178.894H434.809Z" fill="#292929"/>
<path d="M461.738 145.159C462.195 143.981 463.053 142.941 464.139 142.278C465.145 141.649 466.323 141.351 467.49 141.1C468.119 140.974 468.782 140.837 469.422 141.008C469.88 141.123 470.269 141.363 470.634 141.637C471.504 142.266 472.27 143.124 472.51 144.176C472.704 145.022 472.51 145.914 472.304 146.749C472.064 147.675 471.732 148.578 471.263 149.39C470.303 151.026 468.668 152.238 466.838 152.707C465.008 153.175 462.984 152.867 461.36 151.895" fill="white"/>
<path d="M465.089 153.78C463.636 153.78 462.184 153.391 460.926 152.625C460.515 152.385 460.389 151.859 460.629 151.447C460.869 151.047 461.395 150.91 461.807 151.15C463.236 152.008 465.032 152.271 466.621 151.859C468.234 151.447 469.686 150.35 470.521 148.932C470.898 148.28 471.207 147.479 471.47 146.507C471.664 145.741 471.824 144.986 471.676 144.346C471.47 143.431 470.715 142.734 470.132 142.311C469.857 142.105 469.549 141.899 469.217 141.819C468.748 141.704 468.176 141.819 467.673 141.922C466.564 142.173 465.478 142.436 464.609 142.985C463.682 143.546 462.939 144.449 462.55 145.444C462.379 145.89 461.887 146.107 461.441 145.936C460.995 145.764 460.778 145.272 460.949 144.826C461.475 143.454 462.447 142.288 463.705 141.522C464.803 140.824 466.038 140.515 467.319 140.229C467.993 140.092 468.805 139.921 469.64 140.138C470.258 140.298 470.749 140.618 471.15 140.915C472.327 141.773 473.094 142.825 473.357 143.957C473.597 144.975 473.379 145.981 473.139 146.93C472.842 148.063 472.476 149 472.019 149.789C470.944 151.619 469.148 152.98 467.067 153.506C466.427 153.666 465.763 153.757 465.1 153.757V153.78H465.089Z" fill="#292929"/>
<path d="M435.723 168.811C435.723 168.811 442.264 171.795 447.364 167.999C452.464 164.214 452.567 159.548 452.567 159.548C452.567 159.548 442.984 164.763 436.409 162.544L435.734 168.811H435.723Z" fill="#292929"/>
<path d="M441.235 170.792C438.067 170.792 435.54 169.671 435.368 169.591C435.037 169.442 434.831 169.088 434.865 168.722L435.54 162.455C435.574 162.192 435.711 161.963 435.929 161.826C436.146 161.689 436.42 161.655 436.66 161.735C442.801 163.805 452.041 158.853 452.144 158.796C452.418 158.647 452.739 158.659 453.002 158.819C453.265 158.979 453.425 159.265 453.413 159.573C453.413 159.779 453.242 164.708 447.867 168.699C445.694 170.311 443.316 170.803 441.223 170.803H441.235V170.792ZM436.649 168.253C438.273 168.825 443.064 170.14 446.861 167.315C449.834 165.108 450.989 162.627 451.435 161.06C448.576 162.375 442.287 164.811 437.152 163.633L436.649 168.241V168.253Z" fill="#292929"/>
<path d="M437.815 135.701C437.815 135.701 431.126 142.849 432.178 144.449C433.23 146.05 436.958 145.707 436.958 145.707" fill="white"/>
<path d="M436.112 146.602C434.774 146.602 432.418 146.385 431.458 144.921C430.28 143.125 433.928 138.597 437.187 135.121C437.507 134.778 438.056 134.755 438.399 135.086C438.742 135.407 438.765 135.955 438.445 136.299C435.357 139.592 432.784 143.217 432.933 144.052C433.482 144.864 435.837 144.955 436.889 144.864C437.358 144.818 437.781 145.172 437.816 145.641C437.861 146.11 437.507 146.533 437.038 146.568C436.924 146.568 436.581 146.602 436.112 146.602Z" fill="#292929"/>
<path d="M447.961 138.125C448.346 137.15 448.097 136.137 447.404 135.863C446.711 135.589 445.836 136.157 445.451 137.132C445.065 138.107 445.315 139.12 446.008 139.394C446.701 139.668 447.575 139.099 447.961 138.125Z" fill="#292929"/>
<path d="M433.2 136.025C433.585 135.05 433.336 134.037 432.643 133.763C431.95 133.489 431.075 134.058 430.69 135.033C430.305 136.007 430.554 137.02 431.247 137.294C431.94 137.568 432.814 137 433.2 136.025Z" fill="#292929"/>
<path d="M507.88 211.04C507.88 211.04 525.857 244.088 523.787 256.507C521.717 268.926 477.714 309.407 469.892 313.227C462.07 317.046 450.246 321.792 444.551 313.73C440.515 308.012 457.553 300.671 457.553 300.671C457.553 300.671 449.606 296.279 452.842 294.404C456.078 292.529 469.195 293.775 469.195 293.775C469.195 293.775 497.188 260.738 497.509 254.14C497.829 247.53 476.696 213.785 476.696 213.785" fill="white"/>
<path d="M453.654 319.002C449.8 319.002 446.312 317.733 443.842 314.234C443.076 313.159 442.882 311.969 443.236 310.7C444.449 306.389 452.339 302.204 455.701 300.591C453.837 299.402 451.218 297.412 451.195 295.571C451.195 295.022 451.39 294.256 452.396 293.673C455.541 291.855 466.221 292.655 468.817 292.895C476.753 283.507 496.388 259.23 496.64 254.106C496.891 248.903 481.785 223.574 475.953 214.243C475.701 213.842 475.827 213.316 476.227 213.065C476.628 212.813 477.154 212.939 477.405 213.339C479.578 216.816 498.675 247.508 498.355 254.187C498.035 260.888 472.728 290.94 469.847 294.336C469.664 294.553 469.401 294.656 469.115 294.633C465.547 294.29 455.735 293.719 453.265 295.148C452.911 295.354 452.922 295.491 452.922 295.548C452.922 296.509 455.541 298.59 457.965 299.928C458.251 300.088 458.423 300.397 458.411 300.717C458.4 301.049 458.194 301.335 457.897 301.46C454.649 302.867 445.981 307.338 444.894 311.158C444.677 311.924 444.792 312.587 445.249 313.239C450.464 320.626 461.602 316.338 469.515 312.461C477.051 308.779 520.963 268.309 522.941 256.371C524.931 244.386 507.309 211.784 507.126 211.452C506.897 211.041 507.057 210.515 507.469 210.286C507.892 210.057 508.407 210.217 508.635 210.629C509.379 211.99 526.726 244.089 524.633 256.645C522.461 269.704 477.371 310.529 470.27 314.005C465.295 316.441 459.12 319.002 453.665 319.002H453.654Z" fill="#292929"/>
<path d="M342.57 209.326C342.227 209.326 341.896 209.108 341.77 208.765C339.975 203.963 345.189 197.982 345.406 197.73C345.715 197.376 346.264 197.341 346.619 197.65C346.973 197.959 347.007 198.508 346.699 198.862C346.653 198.92 341.942 204.329 343.371 208.171C343.542 208.617 343.314 209.108 342.868 209.28C342.765 209.314 342.673 209.337 342.57 209.337V209.326Z" fill="#292929"/>
<path d="M511.471 211.369L476.41 224.566L465.443 197.658" fill="#3558A2"/>
<path d="M476.411 225.426C476.067 225.426 475.747 225.22 475.61 224.888L469.149 208.764C468.978 208.33 469.183 207.827 469.629 207.644C470.064 207.472 470.567 207.678 470.75 208.124L476.902 223.47L511.174 210.571C511.62 210.4 512.112 210.628 512.283 211.074C512.455 211.52 512.226 212.012 511.78 212.184L476.719 225.38C476.616 225.414 476.513 225.437 476.422 225.437H476.411V225.426Z" fill="#292929"/>
<path d="M385.202 209.691C385.122 209.691 385.054 209.691 384.974 209.657C384.516 209.531 384.253 209.062 384.379 208.605C396.992 163.115 432.511 166.214 432.865 166.248C433.334 166.294 433.677 166.717 433.631 167.186C433.585 167.655 433.162 167.998 432.694 167.952C431.287 167.815 398.239 165.002 386.026 209.062C385.923 209.439 385.58 209.691 385.202 209.691Z" fill="#292929"/>
<path d="M443.865 151.861C444.322 152.582 443.91 153.542 443.076 153.748C440.651 154.331 435.597 155.258 433.504 153.405C430.954 151.152 441.189 147.562 443.865 151.861Z" fill="white"/>
<path d="M437.575 155.372C435.723 155.372 434.042 155.029 432.944 154.057C432.338 153.52 432.121 152.822 432.327 152.125C432.83 150.478 435.551 149.403 437.861 149.106C440.972 148.694 443.419 149.54 444.597 151.416C444.951 151.999 445.008 152.685 444.757 153.325C444.505 153.966 443.945 154.435 443.282 154.595C441.521 155.018 439.462 155.384 437.575 155.384V155.372ZM433.962 152.639C433.962 152.639 433.985 152.685 434.076 152.765C435.346 153.886 438.639 153.943 442.881 152.914C443.064 152.868 443.144 152.719 443.167 152.662C443.19 152.594 443.224 152.456 443.144 152.308C442.07 150.581 439.211 150.421 436.866 151.027C434.865 151.541 433.985 152.376 433.962 152.628V152.639Z" fill="#292929"/>
<path d="M408.072 222.349H407.981C407.512 222.304 407.169 221.869 407.226 221.4L409.524 200.21C409.57 199.742 410.005 199.399 410.474 199.456C410.942 199.501 411.286 199.936 411.24 200.405L408.941 221.595C408.896 222.029 408.518 222.361 408.084 222.361H408.072V222.349Z" fill="#292929"/>
</svg>
