<svg width="588" height="330" viewBox="0 0 588 330" fill="none" xmlns="http://www.w3.org/2000/svg">
<path d="M102.809 42.0555C135.215 17.4376 178.685 15.6805 218.649 23.2225C251.562 29.4342 272.274 57.0878 297.772 78.8494C301.431 81.9725 305.34 84.9461 309.388 87.8338C329.414 68.7922 351.12 50.8654 378.534 49.1668C409.937 47.2213 438.924 62.5335 462.786 83.0858C488.97 105.638 514.89 132.945 515.959 167.53C517.049 202.794 496.223 236.059 468.172 257.373C443.096 276.427 409.458 277.786 378.534 271.949C358.62 268.19 344.478 254.286 329.825 240.348C324.745 245.154 319.674 249.87 314.851 254.537C287.049 281.434 257.22 308.676 218.649 311.065C178.067 313.579 140.606 293.795 109.769 267.241C75.9312 238.103 42.4341 202.821 41.0528 158.136C39.6446 112.574 66.5587 69.5933 102.809 42.0555Z" fill="#F3F6FE"/>
<path d="M528.175 23.7666H232.213V244.449H528.175V23.7666Z" fill="white"/>
<path d="M528.176 245.219H232.213C231.775 245.219 231.445 244.89 231.445 244.451V23.7684C231.445 23.3295 231.775 23.0002 232.213 23.0002H528.176C528.615 23.0002 528.944 23.3295 528.944 23.7684V244.451C528.944 244.89 528.505 245.219 528.176 245.219ZM232.982 243.683H527.408V24.5366H232.982V243.683Z" fill="#292929"/>
<path d="M369.605 64.5366H274.682C274.243 64.5366 273.914 64.2074 273.914 63.7684C273.914 63.3295 274.243 63.0002 274.682 63.0002H369.605C370.044 63.0002 370.373 63.3295 370.373 63.7684C370.373 64.2074 370.044 64.5366 369.605 64.5366Z" fill="#CECECE"/>
<path d="M369.605 78.0327H274.682C274.243 78.0327 273.914 77.7034 273.914 77.2645C273.914 76.8255 274.243 76.4963 274.682 76.4963H369.605C370.044 76.4963 370.373 76.8255 370.373 77.2645C370.373 77.7034 370.044 78.0327 369.605 78.0327Z" fill="#CECECE"/>
<path d="M369.605 91.4213H274.682C274.243 91.4213 273.914 91.0921 273.914 90.6532C273.914 90.2142 274.243 89.885 274.682 89.885H369.605C370.044 89.885 370.373 90.2142 370.373 90.6532C370.373 91.0921 370.044 91.4213 369.605 91.4213Z" fill="#CECECE"/>
<path d="M510.618 232.16H249.662C249.223 232.16 248.894 231.831 248.894 231.392V36.827C248.894 36.3881 249.223 36.0588 249.662 36.0588H510.618C511.057 36.0588 511.386 36.3881 511.386 36.827V231.392C511.386 231.831 511.057 232.16 510.618 232.16ZM250.43 230.624H509.85V37.5952H250.43V230.624Z" fill="#CECECE"/>
<path d="M499.424 232.159H455.638C455.199 232.159 454.87 231.829 454.87 231.39V213.174C454.87 212.735 455.199 212.406 455.638 212.406H499.424C499.863 212.406 500.192 212.735 500.192 213.174V231.39C500.192 231.829 499.863 232.159 499.424 232.159ZM456.297 230.622H498.546V213.942H456.297V230.622Z" fill="#CECECE"/>
<path d="M499.314 222.283H455.528V231.391H499.314V222.283Z" fill="#CECECE"/>
<path d="M499.424 232.161H455.638C455.199 232.161 454.87 231.831 454.87 231.393V222.284C454.87 221.845 455.199 221.516 455.638 221.516H499.424C499.863 221.516 500.192 221.845 500.192 222.284V231.393C500.192 231.831 499.863 232.161 499.424 232.161ZM456.297 230.624H498.546V223.052H456.297V230.624Z" fill="#CECECE"/>
<g clip-path="url(#clip0_1504_69780)">
<path d="M437.224 165.883H436.32C436.035 165.74 435.749 165.549 435.416 165.407C421.903 159.269 411.53 150.323 404.678 138.285C401.348 132.433 399.064 126.057 397.874 119.395C397.208 115.684 396.923 111.925 397.018 108.166C397.065 107.595 397.256 107.31 397.922 107.167C398.874 107.024 399.778 106.786 400.729 106.548C405.345 105.311 409.008 102.98 411.483 99.2207C413.338 96.4609 414.195 93.1302 413.957 89.7995C413.909 89.2285 414.1 88.9906 414.766 88.8955C419.048 88.1817 423.33 87.4204 427.613 86.7543C432.561 85.993 437.605 85.7075 442.601 86.3736C448.073 87.1349 453.497 88.0866 458.922 88.943C459.492 89.0382 459.588 89.2761 459.588 89.7044C459.54 90.9415 459.635 92.131 459.778 93.3681C460.492 97.5077 462.823 101.172 466.249 103.551C468.866 105.454 471.959 106.501 475.242 107.119C476.289 107.31 476.479 107.738 476.527 108.547C476.669 114.494 475.861 120.394 474.052 126.104C469.342 141.473 459.54 153.606 444.314 162.219C442.078 163.551 439.603 164.645 437.224 165.883Z" fill="#292929"/>
<path d="M417.954 113.824H455.591C457.59 113.824 459.207 115.442 459.207 117.44V138.852C459.207 140.85 457.59 142.468 455.591 142.468H417.954C415.956 142.468 414.338 140.85 414.338 138.852V117.44C414.338 115.442 415.956 113.824 417.954 113.824Z" fill="white"/>
<path d="M448.026 118.915H425.567C424.711 118.915 423.997 118.201 423.997 117.345V108.447C423.997 101.357 429.707 95.6477 436.796 95.6477C443.886 95.6477 449.596 101.357 449.596 108.447V117.345C449.596 118.201 448.93 118.915 448.026 118.915ZM427.137 115.775H446.455V108.447C446.455 103.118 442.126 98.7881 436.796 98.7881C431.467 98.7881 427.137 103.118 427.137 108.447V115.775Z" fill="white"/>
<path d="M436.79 127.96C439.155 127.96 441.073 126.043 441.073 123.678C441.073 121.313 439.155 119.396 436.79 119.396C434.425 119.396 432.508 121.313 432.508 123.678C432.508 126.043 434.425 127.96 436.79 127.96Z" fill="#292929"/>
<path d="M437.984 124.53H435.605V134.57H437.984V124.53Z" fill="#292929"/>
</g>
<path d="M333.719 153.478C329.659 154.026 314.186 165.329 310.125 166.097C310.125 166.097 303.212 173.011 294.981 180.254C299.371 187.825 302.992 195.836 305.845 204.176C312.978 196.275 319.343 188.374 321.209 186.07C322.745 183.875 324.501 181.9 326.257 179.924C329.11 177.291 332.841 175.425 335.914 173.23C339.315 170.816 342.498 167.963 344.473 164.342C345.351 162.915 345.68 161.269 345.571 159.623C345.022 155.563 337.34 153.039 333.719 153.478Z" fill="white"/>
<path d="M305.957 204.943H305.847C305.627 204.943 305.298 204.724 305.298 204.394C302.445 196.164 298.824 188.153 294.434 180.581C294.215 180.252 294.324 179.813 294.544 179.594C302.664 172.351 309.578 165.437 309.688 165.437C309.797 165.328 309.907 165.218 310.127 165.218C311.992 164.889 316.711 162.036 321.21 159.182C326.477 155.89 331.525 152.818 333.72 152.598C337.561 152.159 345.682 154.683 346.45 159.402C346.669 161.267 346.23 163.023 345.352 164.56C343.158 168.73 339.317 171.802 336.573 173.778C335.476 174.546 334.269 175.314 333.062 176.082C330.867 177.399 328.892 178.825 327.026 180.472C325.819 181.679 324.612 183.105 323.624 184.532C323.076 185.19 322.527 185.958 321.978 186.617L320.771 188.153C318.137 191.336 312.651 198.139 306.725 204.724C306.286 204.943 306.176 204.943 305.957 204.943ZM296.08 180.472C300.14 187.604 303.542 195.067 306.286 202.748C311.882 196.493 316.93 190.238 319.454 187.166L320.661 185.629C321.21 184.971 321.759 184.312 322.198 183.654C323.295 182.118 324.502 180.801 325.819 179.484C327.794 177.728 329.879 176.192 332.184 174.985C333.281 174.216 334.488 173.558 335.586 172.79C338.219 170.924 341.841 168.071 343.926 164.121C344.694 162.804 345.023 161.377 344.913 159.841C344.365 156.22 337.122 153.915 333.94 154.244C332.074 154.464 326.697 157.756 321.978 160.719C317.26 163.682 312.76 166.315 310.566 166.864C309.468 167.852 303.323 173.997 296.08 180.472Z" fill="#292929"/>
<path d="M317.149 179.048L374.652 102.78L375.859 103.438L320.332 180.694L317.149 179.048Z" fill="#292929"/>
<path d="M320.33 181.462C320.221 181.462 320.111 181.462 320.001 181.353L316.819 179.597C316.599 179.487 316.49 179.268 316.38 179.048C316.38 178.829 316.38 178.609 316.49 178.39L373.992 102.122C374.212 101.793 374.651 101.683 374.98 101.903L376.187 102.561C376.516 102.78 376.736 103.219 376.516 103.658L320.989 181.023C320.769 181.353 320.55 181.462 320.33 181.462ZM318.245 178.719L320.001 179.706L370.261 109.694L318.245 178.719Z" fill="#292929"/>
<path d="M308.919 167.304C313.199 162.695 317.588 155.671 319.783 152.928C320.222 152.379 320.661 151.831 321.319 151.392C322.087 151.062 322.856 150.843 323.734 150.843C328.891 150.514 333.939 150.953 338.987 152.16C340.523 152.379 342.06 153.147 343.157 154.245C343.486 154.574 343.706 155.013 343.706 155.452C343.706 156.33 342.938 156.878 342.169 157.317C339.755 158.415 337.122 159.073 334.488 159.183C330.757 159.622 329.44 158.744 325.599 158.744C326.038 158.744 327.026 162.695 326.148 165.219C325.27 167.742 323.404 169.608 321.539 171.583" fill="white"/>
<path d="M321.429 172.353C321.209 172.353 321.099 172.243 320.88 172.133C320.551 171.804 320.551 171.365 320.88 171.036L320.99 170.926C322.855 169.28 324.282 167.195 325.269 165C325.818 163.135 325.708 161.159 325.05 159.404C324.831 159.294 324.721 158.965 324.721 158.745C324.721 158.306 325.05 157.977 325.489 157.977C326.806 157.977 328.123 158.087 329.439 158.306C331.086 158.526 332.732 158.635 334.378 158.416C336.902 158.306 339.426 157.648 341.73 156.66C342.059 156.441 342.827 156.002 342.827 155.563C342.827 155.234 342.608 155.014 342.498 154.795C341.401 153.807 340.084 153.149 338.657 153.039C333.719 151.832 328.671 151.393 323.623 151.722C322.855 151.722 322.197 151.832 321.538 152.161C320.99 152.49 320.66 152.929 320.222 153.478C319.563 154.356 318.685 155.563 317.698 157.099C315.174 160.94 312.43 164.561 309.357 167.963C309.138 168.292 308.699 168.402 308.26 168.183C307.821 167.963 307.821 167.524 308.041 167.085C308.041 166.976 308.15 166.976 308.26 166.866C311.223 163.464 313.966 159.952 316.381 156.111C317.368 154.575 318.356 153.368 319.014 152.49C319.453 151.832 320.002 151.283 320.66 150.844C321.538 150.405 322.416 150.186 323.404 150.186C328.562 149.856 333.829 150.295 338.877 151.503C340.633 151.722 342.279 152.6 343.486 153.807C343.925 154.246 344.254 154.904 344.254 155.563C344.254 156.221 343.925 157.209 342.279 158.087C339.755 159.294 337.121 159.952 334.268 160.062C332.512 160.282 330.756 160.172 329.001 159.952C328.232 159.843 327.464 159.733 326.477 159.733C327.025 161.708 327.025 163.793 326.477 165.659C325.379 168.073 323.843 170.377 321.868 172.133L321.758 172.243C321.868 172.243 321.648 172.353 321.429 172.353Z" fill="#292929"/>
<path d="M228.152 137.347C228.152 137.347 249.99 211.31 256.684 207.799C263.378 204.287 302.993 169.61 302.993 169.61L320.332 192.655C320.332 192.655 267.438 276.824 250.539 267.825C233.639 258.827 216.081 211.31 216.081 211.31L228.152 137.347Z" fill="#3558A2"/>
<path d="M117.686 200.769L93.5 194.5C94.5 191 108.568 146.308 122.912 137.322C135.143 127.241 159.939 126.255 187.849 125.159C196.744 124.611 205.751 125.488 214.424 127.679C247.004 136.555 232.882 202.084 232.882 202.084C232.882 202.084 236.44 233.424 242 295.445C242 295.445 196.188 304.212 116.129 299.719C116.24 299.938 118.464 208.987 117.686 200.769Z" fill="#3558A2"/>
<path d="M202.694 221.075L194.573 236.878L178.003 223.599L181.844 162.915L178.003 158.196L182.941 150.734L189.635 157.647L185.136 162.805L202.694 221.075Z" fill="#292929"/>
<path d="M191.499 120.118L195.669 140.748C195.669 140.748 189.195 154.466 175.368 152.161C161.541 149.857 158.907 139.541 158.907 139.541L153.201 100.036C153.201 100.036 141.459 85.2212 147.385 69.1995C153.31 53.1778 190.621 52.5194 193.913 74.6864C193.913 74.6864 201.814 97.9508 200.937 108.595C200.059 119.24 191.499 120.118 191.499 120.118Z" fill="white"/>
<path d="M178.331 153.149C177.234 153.149 176.246 153.039 175.149 152.929C160.993 150.625 158.139 140.2 158.03 139.761L152.433 100.365C151.116 98.609 140.911 84.2333 146.617 68.9798C149.251 61.9566 159.237 55.5918 173.283 57.0184C182.501 58.006 193.036 63.054 194.682 74.5764C195.011 75.4543 202.583 97.9505 201.705 108.595C200.937 117.703 194.682 120.118 192.378 120.666L196.328 140.638C196.328 140.748 196.328 140.968 196.218 141.077C196.218 141.187 190.402 153.149 178.331 153.149ZM169.662 58.3353C160.663 58.3353 150.787 61.9566 147.934 69.4188C142.227 84.782 153.53 99.3771 153.64 99.4869C153.75 99.5966 153.75 99.7063 153.75 99.8161L159.456 139.322C159.566 139.651 162.2 149.088 175.259 151.283C187.549 153.368 193.694 142.285 194.572 140.529L190.512 120.118C190.512 119.898 190.512 119.679 190.622 119.459C190.732 119.24 190.951 119.13 191.17 119.13C191.5 119.13 199.072 118.142 199.949 108.266C200.827 97.9505 193.036 74.9056 192.926 74.6862C191.5 65.4682 184.038 59.4326 172.844 58.3353C171.966 58.3353 170.759 58.3353 169.662 58.3353Z" fill="#292929"/>
<path d="M201.157 105.304C201.157 105.304 199.73 101.133 184.367 103.767C169.004 106.401 169.552 123.3 160.444 115.838C151.336 108.376 156.164 95.0979 155.287 82.8073C154.079 67.0051 150.678 67.5538 147.276 69.1998C135.424 75.0159 139.155 99.8166 155.396 121.984C161.103 129.775 196.877 144.37 201.596 123.081C204.229 111.229 201.157 105.304 201.157 105.304Z" fill="#CECECE"/>
<path d="M185.794 134.932C173.394 134.932 158.469 127.36 154.848 122.422C143.435 106.729 137.509 88.7323 140.363 77.539C141.46 73.2593 143.764 70.1866 147.057 68.5405C148.483 67.8821 150.129 67.2237 151.666 68.1016C154.08 69.4184 155.397 74.0274 156.055 82.8064C156.275 86.5375 156.165 90.2686 155.836 93.8899C155.287 102.23 154.848 110.241 160.993 115.179C162.53 116.496 163.846 117.045 164.944 116.935C166.59 116.715 168.126 114.96 169.882 112.765C172.735 109.253 176.686 104.425 184.367 102.998C199.401 100.364 201.706 104.205 201.925 104.973C202.145 105.742 204.998 111.667 202.364 123.19C201.267 129.006 196.658 133.395 190.952 134.383C189.196 134.712 187.44 134.932 185.794 134.932ZM149.91 69.199C149.142 69.3087 148.373 69.5282 147.605 69.8574C144.642 71.284 142.667 74.0274 141.679 77.8682C139.046 88.6225 144.752 106.181 155.945 121.544C159.896 126.921 178.332 135.481 190.513 132.957C196.109 131.749 199.511 128.457 200.828 122.97C203.352 111.558 200.499 105.742 200.389 105.742V105.632C200.279 105.522 198.414 102.23 184.477 104.644C177.344 105.851 173.833 110.241 170.979 113.862C169.004 116.276 167.358 118.361 165.054 118.581C163.517 118.691 161.871 118.142 160.006 116.496C153.312 111.009 153.751 102.669 154.299 93.8899C154.629 90.2686 154.738 86.5375 154.519 82.9162C153.86 75.0151 152.653 70.5158 150.897 69.4184C150.568 69.199 150.239 69.199 149.91 69.199Z" fill="#292929"/>
<path d="M157.481 98.4996C156.494 95.8659 154.409 93.7808 151.775 92.5737C149.69 91.5861 147.386 91.3666 145.191 92.1348C141.679 93.4516 140.801 96.7437 141.46 100.036C141.679 101.462 142.228 102.779 142.777 104.096C145.52 109.364 151.995 111.449 157.262 108.705C157.262 108.705 157.372 108.705 157.372 108.595" fill="white"/>
<path d="M152.433 110.682C148.153 110.682 144.202 108.267 142.227 104.427C141.569 103.11 141.13 101.683 140.801 100.147C139.923 95.9768 141.569 92.6847 144.971 91.3679C147.275 90.5997 149.909 90.8192 152.104 91.9165C154.957 93.1237 157.152 95.4281 158.249 98.2813C158.359 98.7203 158.139 99.1592 157.81 99.269C157.371 99.3787 156.932 99.1592 156.822 98.83C155.835 96.4158 153.969 94.4405 151.555 93.4529C149.689 92.4652 147.604 92.3555 145.629 93.0139C142.886 94.0016 141.679 96.6353 142.337 100.037C142.556 101.354 142.995 102.671 143.654 103.878C146.178 108.816 152.213 110.682 157.152 108.158C157.152 108.158 157.261 108.158 157.261 108.048C157.59 107.829 158.139 107.938 158.359 108.267C158.578 108.597 158.468 109.145 158.139 109.365C158.139 109.365 158.029 109.365 158.029 109.475C156.164 110.133 154.298 110.682 152.433 110.682Z" fill="#292929"/>
<path d="M193.475 99.2673C193.036 99.2673 192.707 99.2673 192.268 99.1575C185.135 98.4991 179.868 92.2441 180.416 85.1111C181.075 77.9782 187.33 72.7108 194.463 73.2595C201.596 73.9179 206.863 80.1729 206.314 87.3059C205.766 94.1096 200.169 99.1575 193.475 99.2673ZM182.062 85.2209C181.514 91.4759 186.123 97.0725 192.487 97.6212C198.852 98.1699 204.339 93.5609 204.888 87.1961C205.436 80.9411 200.827 75.3445 194.463 74.7958C188.208 74.2471 182.611 78.8561 182.062 85.2209Z" fill="#292929"/>
<path d="M167.796 100.363C167.357 100.363 167.028 100.363 166.589 100.253C159.456 99.5951 154.189 93.34 154.737 86.2071C155.396 79.0741 161.651 73.8067 168.784 74.3554C175.917 75.0138 181.184 81.2689 180.636 88.4018C180.087 95.2056 174.49 100.363 167.796 100.363ZM167.796 75.8917C161.541 76.221 156.603 81.4884 156.932 87.8531C157.261 94.2179 162.529 99.0464 168.894 98.7172C175.149 98.388 180.087 93.1205 179.758 86.7558C179.538 80.8299 174.819 76.1112 168.894 75.8917C168.455 76.0015 168.125 75.8917 167.796 75.8917Z" fill="#292929"/>
<path d="M236.602 245.219C236.163 245.219 235.834 244.89 235.834 244.56L227.384 150.844C227.384 150.406 227.603 150.076 228.042 149.967C228.481 149.857 228.81 150.186 228.92 150.625L237.37 244.341C237.37 244.78 237.15 245.219 236.602 245.219C236.675 245.219 236.675 245.219 236.602 245.219Z" fill="#292929"/>
<path d="M181.623 103.109C180.965 103.109 180.306 103.109 179.648 102.999C179.209 102.999 178.88 102.561 178.88 102.231C178.88 101.792 179.319 101.463 179.648 101.463H179.758C180.855 101.573 184.367 101.792 185.354 100.476C186.013 99.5976 183.489 95.0984 180.087 90.5991C179.868 90.2699 179.868 89.831 180.197 89.5018C180.526 89.1725 180.965 89.2823 181.294 89.6115C183.489 92.3549 188.208 99.0489 186.562 101.244C185.684 102.78 183.379 103.109 181.623 103.109Z" fill="#292929"/>
<path d="M170.823 91.7959C171.792 91.7733 172.552 90.6254 172.519 89.2318C172.487 87.8382 171.675 86.7268 170.706 86.7493C169.736 86.7718 168.976 87.9198 169.009 89.3133C169.041 90.7069 169.853 91.8184 170.823 91.7959Z" fill="#292929"/>
<path d="M188.132 89.9157C189.052 89.6085 189.439 88.2877 188.998 86.9655C188.556 85.6434 187.452 84.8206 186.533 85.1278C185.613 85.435 185.225 86.7559 185.667 88.078C186.108 89.4002 187.212 90.2229 188.132 89.9157Z" fill="#292929"/>
<path d="M186.342 119.348C182.83 119.239 179.428 118.031 176.575 115.727C176.246 115.398 176.246 114.959 176.575 114.63C176.904 114.3 177.343 114.3 177.672 114.52C178.002 114.849 186.671 122.421 196.218 113.203C196.547 112.874 196.986 112.874 197.315 113.203C197.645 113.532 197.645 113.971 197.315 114.3C193.365 118.141 189.634 119.348 186.342 119.348Z" fill="#292929"/>
<path d="M195.779 248.62C195.779 248.62 218.495 245.767 224.531 247.193C233.419 249.169 242.857 255.643 248.124 262.886C249.331 264.312 250.099 265.959 250.538 267.824C250.868 269.69 249.99 271.555 248.453 272.543C246.368 273.53 244.064 272.323 241.979 271.665C237.15 270.019 231.883 271.006 226.725 271.665C224.75 271.994 222.775 272.104 220.69 271.884C216.19 271.336 212.13 268.592 207.96 266.836C200.279 263.544 191.39 263.874 183.379 265.19" fill="white"/>
<path d="M246.699 273.64C245.272 273.53 243.955 273.201 242.748 272.652C242.419 272.542 242.09 272.433 241.651 272.323C237.481 270.896 232.762 271.555 228.263 272.103L226.726 272.323C224.641 272.652 222.556 272.762 220.581 272.542C217.399 271.994 214.216 270.896 211.363 269.25C210.156 268.592 208.839 268.043 207.632 267.495C201.267 264.861 193.366 264.312 183.49 265.848C183.051 265.958 182.612 265.739 182.612 265.3C182.502 264.861 182.722 264.422 183.161 264.422H183.27C193.476 262.776 201.706 263.324 208.291 266.178C209.607 266.726 210.924 267.385 212.131 268.043C214.985 269.47 217.728 270.896 220.801 271.226C222.776 271.335 224.641 271.335 226.617 271.006L228.153 270.787C232.872 270.128 237.7 269.47 242.199 271.006L243.297 271.445C245.053 272.103 246.699 272.652 248.125 271.994C249.442 271.116 250.101 269.58 249.881 268.043C249.552 266.397 248.784 264.751 247.686 263.434C242.199 256.082 232.872 249.936 224.532 248.071C218.716 246.754 196.219 249.498 196 249.607C195.561 249.607 195.232 249.388 195.122 248.949C195.012 248.51 195.342 248.181 195.78 248.071C196.768 247.961 218.716 245.218 224.861 246.644C233.64 248.62 243.297 254.984 248.893 262.666C250.21 264.202 251.088 265.958 251.417 267.933C251.856 270.128 250.759 272.323 248.893 273.42C248.125 273.53 247.467 273.64 246.699 273.64Z" fill="#292929"/>
<path d="M93.5 194.5C93.5 194.5 68.8135 268.593 80.9944 276.933C93.1752 285.273 190.842 281.322 190.842 281.322L196.987 246.316C196.987 246.316 129.828 254.985 131.474 249.937C133.12 244.89 141.35 188.484 141.35 188.484L93.5 194.5Z" fill="#3558A2"/>
<path d="M196.987 247.082L125.219 241.814C124.78 241.814 124.451 241.375 124.56 241.046V240.936L140.582 176.85C140.692 176.411 141.131 176.191 141.46 176.301C141.899 176.411 142.118 176.85 142.009 177.289L126.206 240.388L196.987 245.545C197.426 245.545 197.755 245.984 197.646 246.423C197.646 246.752 197.426 246.972 196.987 247.082Z" fill="#292929"/>
<path d="M163.517 282.091C163.078 282.091 162.749 281.761 162.749 281.322C162.749 280.993 162.968 280.664 163.298 280.664C163.517 280.664 183.599 274.958 192.268 270.788C192.598 270.568 193.146 270.788 193.256 271.117C193.476 271.446 193.256 271.995 192.927 272.104C184.148 276.384 164.505 281.761 163.737 281.981C163.627 281.981 163.517 281.981 163.517 282.091Z" fill="#292929"/>
<path d="M65.1926 281.322H462.772C465.735 281.322 468.149 283.736 468.149 286.699V300.965C468.149 303.928 465.735 306.342 462.772 306.342H65.1926C62.2297 306.342 59.8154 303.928 59.8154 300.965V286.699C59.9252 283.627 62.2297 281.322 65.1926 281.322Z" fill="white"/>
<path d="M460.686 307.001H67.3866C62.8873 307.001 59.1562 303.27 59.1562 298.77V288.784C59.1562 284.285 62.8873 280.554 67.3866 280.554H460.686C465.185 280.554 468.917 284.285 468.917 288.784V298.77C468.917 303.27 465.185 307.001 460.686 307.001ZM67.3866 282.09C63.6555 282.09 60.6926 285.053 60.6926 288.784V298.77C60.6926 302.501 63.6555 305.464 67.3866 305.464H460.686C464.417 305.464 467.38 302.501 467.38 298.77V288.784C467.38 285.053 464.417 282.09 460.686 282.09H67.3866Z" fill="#292929"/>
<path d="M218.934 275.176H378.054C379.261 275.176 380.249 276.163 380.249 277.371V279.236C380.249 280.443 379.261 281.431 378.054 281.431H218.934C217.727 281.431 216.849 280.443 216.849 279.236V277.371C216.739 276.163 217.727 275.176 218.934 275.176Z" fill="white"/>
<path d="M377.176 282.089H219.702C217.617 282.089 215.861 280.334 215.861 278.249C215.861 276.164 217.617 274.408 219.702 274.408H377.066C379.151 274.408 380.907 276.164 380.907 278.249C380.907 280.334 379.261 282.089 377.176 282.089ZM219.702 275.944C218.385 275.944 217.398 276.932 217.398 278.249C217.398 279.565 218.385 280.553 219.702 280.553H377.066C378.273 280.553 379.261 279.565 379.261 278.358C379.261 277.151 378.383 276.054 377.066 276.054L219.702 275.944Z" fill="#292929"/>
<path d="M319.564 198.908H415.804L377.286 278.248H280.937L319.564 198.908Z" fill="white"/>
<path d="M377.286 279.017H281.046C280.827 279.017 280.498 278.907 280.388 278.687C280.278 278.468 280.278 278.139 280.388 277.919L318.906 198.579C319.016 198.359 319.345 198.14 319.564 198.14H415.804C416.024 198.14 416.353 198.25 416.463 198.469C416.572 198.689 416.572 199.018 416.463 199.237L377.945 278.578C377.835 278.797 377.506 279.017 377.286 279.017ZM282.254 277.48H376.847L414.597 199.676H320.003L282.254 277.48Z" fill="#292929"/>
<defs>
<clipPath id="clip0_1504_69780">
<rect width="79.5422" height="79.88" fill="white" transform="translate(397 86.0002)"/>
</clipPath>
</defs>
</svg>
