<svg width="600" height="336" viewBox="0 0 600 336" fill="none" xmlns="http://www.w3.org/2000/svg">
<rect width="600" height="335.58" transform="translate(0 0.0791016)" fill="#A6D7D4"/>
<g clip-path="url(#clip0_374_33140)">
<path d="M447.303 214.836C442.585 195.975 425.64 182.754 406.209 182.754C404.487 182.754 398.276 182.875 388.961 183.094C392.212 177.09 394.068 170.224 394.068 162.923C394.068 139.525 375.097 120.555 351.7 120.555C325.5 120.555 248.418 125.928 236.944 127.832C213.861 131.677 198.275 153.51 202.12 176.58C202.848 180.971 204.243 185.083 206.147 188.843C195.849 189.34 188.717 189.813 186.328 190.202C163.258 194.059 147.671 215.892 151.516 238.962C155.264 261.462 176.103 276.842 198.53 274.04C207.785 273.288 263.41 271.323 315.263 269.746C315.724 270.801 316.221 271.832 316.767 272.863C324.396 287.152 339.037 295.291 354.174 295.291C360.906 295.291 367.735 293.677 374.09 290.293L426.15 262.505C443.301 253.347 452.01 233.71 447.303 214.848V214.836ZM198.845 274.003C199.318 273.943 199.803 273.87 200.276 273.785C199.949 273.846 199.464 273.931 198.845 274.003Z" fill="white"/>
<path d="M242.946 142.011H257.295V146.159H247.931V151.994H255.888V156.142H247.931V166.622H242.934V141.999L242.946 142.011ZM278.752 157.767C278.752 163.08 274.81 167.337 269.036 167.337C263.262 167.337 259.32 163.08 259.32 157.767C259.32 152.455 263.262 148.197 269.036 148.197C274.81 148.197 278.752 152.455 278.752 157.767ZM274.118 157.767C274.118 154.674 271.971 152.418 269.121 152.418C266.271 152.418 263.99 154.674 263.99 157.767C263.99 160.86 266.173 163.116 269.121 163.116C272.068 163.116 274.118 160.824 274.118 157.767ZM282.827 148.913H287.291V150.672C288.455 149.471 289.971 148.561 291.973 148.561C292.567 148.561 293.101 148.67 293.525 148.804V153.194C292.967 153.049 292.361 152.952 291.56 152.952C289.377 152.952 287.97 154.153 287.303 155.281V166.646H282.839V148.913H282.827ZM297.116 148.913H301.579V150.247C302.78 149.083 304.284 148.209 306.467 148.209C308.651 148.209 310.688 149.192 311.853 151.096C313.114 149.543 314.812 148.209 317.796 148.209C321.459 148.209 324.346 150.744 324.346 155.742V166.646H319.846V155.911C319.846 153.765 318.682 152.43 316.68 152.43C314.679 152.43 313.684 153.765 312.981 154.965C313.017 155.208 313.017 155.463 313.017 155.742V166.646H308.517V155.911C308.517 153.765 307.353 152.43 305.351 152.43C303.35 152.43 302.258 153.946 301.591 155.074V166.646H297.128V148.913H297.116ZM338.028 167.337C331.733 167.337 328.179 162.934 328.179 157.767C328.179 152.6 331.49 148.197 337.288 148.197C342.213 148.197 345.451 151.533 345.451 156.178C345.451 157.161 345.306 158.083 345.172 158.677H332.752C333.176 161.988 335.214 163.322 337.992 163.322C339.932 163.322 341.618 162.473 342.564 161.212L345.766 163.747C344.117 165.967 341.376 167.337 338.028 167.337ZM332.885 155.451H341.048C340.975 153.655 339.678 151.86 337.179 151.86C334.886 151.86 333.382 153.122 332.885 155.451ZM349.806 148.913H354.269V150.672C355.434 149.471 356.938 148.561 358.951 148.561C359.545 148.561 360.079 148.67 360.504 148.804V153.194C359.946 153.049 359.339 152.952 358.539 152.952C356.355 152.952 354.948 154.153 354.281 155.281V166.646H349.818V148.913H349.806ZM272.493 200.657C272.493 197.988 274.567 195.975 278.364 195.344L283.785 194.434V193.973C283.785 192.105 282.378 190.917 280.341 190.917C278.618 190.917 277.284 191.729 276.326 193.027L273.051 190.529C274.64 188.345 277.235 187.011 280.474 187.011C285.605 187.011 288.249 190.068 288.249 193.973V205.448H283.785V203.725C282.657 205.096 280.547 205.981 278.473 205.981C274.919 205.981 272.493 203.944 272.493 200.669V200.657ZM274.142 179.054H278.994L282.621 184.889H278.364L274.142 179.054ZM279.382 202.415C281.42 202.415 282.9 201.469 283.785 200.062V197.564L279.564 198.267C277.696 198.583 276.92 199.359 276.92 200.451C276.92 201.651 277.866 202.415 279.382 202.415ZM302.853 179.054H307.316V205.436H302.853V179.054ZM311.671 200.657C311.671 197.988 313.745 195.975 317.541 195.344L322.963 194.434V193.973C322.963 192.105 321.556 190.917 319.519 190.917C317.796 190.917 316.462 191.729 315.504 193.027L312.229 190.529C313.806 188.345 316.413 187.011 319.652 187.011C324.795 187.011 327.427 190.068 327.427 193.973V205.448H322.963V203.725C321.835 205.096 319.725 205.981 317.651 205.981C314.097 205.981 311.671 203.944 311.671 200.669V200.657ZM318.572 202.415C320.61 202.415 322.09 201.469 322.975 200.062V197.564L318.754 198.267C316.886 198.583 316.11 199.359 316.11 200.451C316.11 201.651 317.056 202.415 318.572 202.415Z" fill="#273375"/>
<path d="M197.918 238.076L202.285 241.387C200.635 243.57 197.991 244.941 194.716 244.941C188.457 244.941 184.867 240.538 184.867 235.371C184.867 230.204 188.457 225.801 194.716 225.801C197.991 225.801 200.623 227.171 202.285 229.355L197.918 232.666C197.288 231.756 196.196 231.053 194.643 231.053C192.351 231.053 190.665 232.775 190.665 235.383C190.665 237.991 192.351 239.713 194.741 239.713C196.148 239.713 197.276 239.01 197.906 238.1L197.918 238.076ZM207.343 253.031C205.827 253.031 204.881 252.825 203.935 252.437V247.622C204.468 247.804 205.342 247.973 206.045 247.973C207.804 247.973 208.617 247.415 209.211 245.936L209.878 244.25L202.6 226.516H208.798L212.85 236.899L216.998 226.516H222.869L214.208 248.082C213.007 251.042 211.042 253.043 207.343 253.043V253.031ZM235.519 244.941C233.336 244.941 231.796 244.347 230.595 243.255V244.237H225.003V217.856H230.595V227.499C231.796 226.407 233.336 225.813 235.519 225.813C241.184 225.813 244.459 230.204 244.459 235.383C244.459 240.562 241.184 244.953 235.519 244.953V244.941ZM230.595 233.115V237.615C231.65 238.949 232.984 239.689 234.707 239.689C237.169 239.689 238.685 237.967 238.685 235.359C238.685 232.751 237.169 231.029 234.707 231.029C232.912 231.029 231.541 231.805 230.595 233.103V233.115ZM256.843 244.941C250.329 244.941 246.885 240.538 246.885 235.371C246.885 230.204 250.087 225.801 256.103 225.801C261.137 225.801 264.436 229.136 264.436 233.964C264.436 235.165 264.254 236.281 264.084 236.923H252.61C253.143 239.313 254.684 239.944 256.794 239.944C258.48 239.944 259.96 239.277 260.773 238.258L264.715 241.387C263.029 243.607 260.251 244.941 256.831 244.941H256.843ZM252.646 232.981H259.014C258.941 231.781 258.032 230.313 255.957 230.313C254.162 230.313 253.071 231.186 252.646 232.981ZM268.232 226.504H273.824V227.948C274.916 226.929 276.286 226.153 278.118 226.153C278.749 226.153 279.319 226.262 279.731 226.395V231.914C279.137 231.768 278.47 231.671 277.548 231.671C275.51 231.671 274.176 232.872 273.824 233.467V244.237H268.232V226.504ZM285.08 238.221C286.026 239.446 287.227 240.502 288.816 240.502C289.835 240.502 290.332 239.98 290.332 239.277C290.332 236.851 282.133 237.833 282.133 231.611C282.133 228.227 284.983 225.801 288.889 225.801C291.703 225.801 294.383 227.171 295.718 228.894L292.055 232.169C291.205 231.186 290.15 230.228 288.889 230.228C287.906 230.228 287.445 230.725 287.445 231.32C287.445 233.612 295.645 232.69 295.645 238.888C295.572 242.903 292.297 244.941 288.889 244.941C285.48 244.941 283.224 243.607 281.429 241.569L285.092 238.221H285.08ZM308.053 244.941C301.54 244.941 298.095 240.538 298.095 235.371C298.095 230.204 301.297 225.801 307.313 225.801C312.347 225.801 315.658 229.136 315.658 233.964C315.658 235.165 315.476 236.281 315.307 236.923H303.832C304.366 239.313 305.906 239.944 308.017 239.944C309.703 239.944 311.183 239.277 311.995 238.258L315.937 241.387C314.251 243.607 311.474 244.941 308.053 244.941ZM303.869 232.981H310.236C310.164 231.781 309.254 230.313 307.18 230.313C305.385 230.313 304.293 231.186 303.869 232.981ZM305.13 223.69L308.757 217.856H314.736L310.443 223.69H305.13ZM331.269 238.076L335.635 241.387C333.986 243.57 331.342 244.941 328.067 244.941C321.808 244.941 318.218 240.538 318.218 235.371C318.218 230.204 321.808 225.801 328.067 225.801C331.342 225.801 333.974 227.171 335.635 229.355L331.269 232.666C330.638 231.756 329.546 231.053 327.994 231.053C325.714 231.053 324.015 232.775 324.015 235.383C324.015 237.991 325.701 239.713 328.091 239.713C329.498 239.713 330.626 239.01 331.257 238.1L331.269 238.076ZM349.596 226.504H355.224V236.22C355.224 241.533 352.059 244.941 346.6 244.941C341.142 244.941 338.013 241.533 338.013 236.22V226.504H343.641V236.535C343.641 238.403 344.55 239.701 346.637 239.701C348.723 239.701 349.596 238.403 349.596 236.535V226.504ZM359.445 226.504H365.037V227.948C366.129 226.929 367.499 226.153 369.331 226.153C369.962 226.153 370.532 226.262 370.944 226.395V231.914C370.35 231.768 369.683 231.671 368.761 231.671C366.723 231.671 365.377 232.872 365.025 233.467V244.237H359.433V226.504H359.445ZM373.224 221.01C373.224 219.105 374.838 217.492 376.778 217.492C378.719 217.492 380.259 219.105 380.259 221.01C380.259 222.914 378.646 224.564 376.778 224.564C374.91 224.564 373.224 222.914 373.224 221.01ZM373.928 226.504H379.519V244.237H373.928V226.504ZM385.329 231.502H382.018V226.504H385.329V222.065H390.957V226.504H395.809V231.502H390.957V237.348C390.957 238.755 391.697 239.531 393.177 239.531C394.475 239.531 395.324 239.349 395.846 239.143V243.958C394.9 244.383 393.808 244.589 392.146 244.589C387.331 244.589 385.317 241.702 385.317 237.336V231.489L385.329 231.502ZM407.914 244.941C401.401 244.941 397.956 240.538 397.956 235.371C397.956 230.204 401.158 225.801 407.174 225.801C412.208 225.801 415.507 229.136 415.507 233.964C415.507 235.165 415.338 236.281 415.156 236.923H403.681C404.215 239.313 405.755 239.944 407.866 239.944C409.552 239.944 411.032 239.277 411.844 238.258L415.786 241.387C414.1 243.607 411.323 244.941 407.902 244.941H407.914ZM403.73 232.981H410.098C410.025 231.781 409.115 230.313 407.041 230.313C405.246 230.313 404.154 231.186 403.73 232.981ZM404.991 223.69L408.618 217.856H414.598L410.304 223.69H404.991Z" fill="#E30613"/>
</g>
<path d="M165.791 69.5976L170.303 73.0262C168.225 75.7836 164.893 77.5707 160.793 77.5707C153.653 77.5707 148.785 72.1286 148.785 65.7243C148.785 59.32 153.653 53.8779 160.793 53.8779C164.893 53.8779 168.225 55.6731 170.303 58.3901L165.791 61.851C164.731 60.3146 163.033 59.2229 160.793 59.2229C157.203 59.2229 154.648 61.9804 154.648 65.7243C154.648 69.4682 157.211 72.2256 160.793 72.2256C163.001 72.2256 164.731 71.134 165.791 69.5976ZM185.481 67.8429V76.9399H179.78V67.8429L170.432 54.5248H177.378L182.658 62.2715L187.939 54.5248H194.853L185.472 67.8429H185.481ZM197.521 54.5167H204.92C209.885 54.5167 212.893 56.8213 212.893 60.7917C212.893 62.4898 212.092 63.9938 210.685 65.0531C212.893 66.1771 214.179 67.9965 214.179 70.2122C214.179 74.4413 210.815 76.9399 205.373 76.9399H197.529V54.5167H197.521ZM203.222 59.2229V62.9669H205.082C206.327 62.9669 207.039 62.2957 207.039 61.0423C207.039 59.886 206.335 59.2149 205.082 59.2149H203.222V59.2229ZM203.222 67.6812V72.2256H205.72C207.322 72.2256 208.316 71.3604 208.316 69.9534C208.316 68.5464 207.322 67.6812 205.72 67.6812H203.222ZM218.78 54.5167H232.615V59.2229H224.481V63.1609H231.33V67.8671H224.481V72.2256H232.615V76.9318H218.78V54.5167ZM237.928 54.5167H245.456C250.704 54.5167 253.939 57.1124 253.939 61.4952C253.939 64.2202 252.661 66.2661 250.413 67.4224L257.262 76.9318H250.599L244.963 68.4494H243.621V76.9318H237.92V54.5167H237.928ZM243.629 59.2229V63.7351H245.804C247.243 63.7351 248.076 62.8052 248.076 61.4305C248.076 60.1529 247.243 59.2229 245.804 59.2229H243.629Z" fill="#253473"/>
<path d="M322.957 54.5166H334.997V57.0799H325.965V64.2525H333.712V66.7834H325.965V74.3684H334.997V76.9317H322.957V54.5166ZM340.989 54.5166H344.927L357.607 73.2444V54.5166H360.615V76.9317H356.677L343.997 58.2039V76.9317H340.989V54.5166Z" fill="#253473"/>
<path d="M374.434 82.7619C373.601 82.7619 372.93 82.7619 372.453 82.6649V77.6352C372.744 77.6999 373.092 77.7322 373.545 77.7322C375.469 77.7322 376.205 76.8347 376.205 75.1689V54.5166H381.906V74.8454C381.906 79.9398 379.634 82.7538 374.442 82.7538L374.434 82.7619ZM387.954 54.5166H401.79V59.2228H393.655V63.1608H400.504V67.867H393.655V72.2255H401.79V76.9317H387.954V54.5166ZM419.329 54.5166H425.03V67.9317C425.03 73.8913 421.569 77.5705 415.65 77.5705C409.731 77.5705 406.302 73.8913 406.302 67.9317V54.5166H412.003V68.4735C412.003 70.7781 413.313 72.2174 415.682 72.2174C418.052 72.2174 419.329 70.7781 419.329 68.4735V54.5166ZM427.787 76.9317L435.502 65.4088L428.232 54.5247H434.992L439.504 61.2201L443.984 54.5247H450.768L443.467 65.4088L451.181 76.9317H444.429L439.496 69.5975L434.564 76.9317H427.779H427.787Z" fill="#E20917"/>
<path d="M298.935 54.7909L310.086 64.5914C309.908 53.4971 300.86 44.5537 289.725 44.5537C278.59 44.5537 269.355 53.675 269.355 64.9311C269.355 76.1871 278.477 85.3003 289.725 85.3003C290.283 85.3003 290.833 85.2761 291.374 85.2276L280.547 75.7181L298.935 54.7909Z" fill="#4CBAB6"/>
<path d="M310.098 64.9312C310.098 64.818 310.098 64.7048 310.09 64.5916L298.939 54.791L280.551 75.7182L291.378 85.2277C301.858 84.3867 310.098 75.6212 310.098 64.9312Z" fill="#00939C"/>
<path d="M278.976 59.8527L297.647 54.54L299.385 55.7934L300.558 59.4403L302.555 68.7152L301.423 71.2058L282.323 75.6209L280.755 74.2462L277.391 61.0252L278.976 59.8527Z" fill="white"/>
<path d="M302.807 69.8801C303.001 68.9583 302.985 67.8181 302.677 66.403C302.613 66.1038 302.548 65.7965 302.483 65.4812C302.451 65.3437 302.427 65.2063 302.394 65.0607C302.321 64.7049 302.241 64.3168 302.152 63.9044L302.127 63.775C302.079 63.5324 302.022 63.2817 301.966 63.0068V62.9583C301.796 62.1982 301.61 61.341 301.392 60.3302C301.359 60.1766 301.327 60.0149 301.286 59.8532C301.262 59.7319 301.23 59.6025 301.206 59.465L301.173 59.3356L301.125 59.1335C300.583 56.8774 299.734 55.4704 298.772 54.6133L298.747 54.5809C298.666 54.5162 298.594 54.4515 298.513 54.3868L298.375 54.2817C298.157 54.1281 297.939 53.9906 297.72 53.8855C297.591 53.8127 297.454 53.7561 297.324 53.6995C297.09 53.6106 296.855 53.5378 296.621 53.4812C296.548 53.465 296.475 53.4488 296.394 53.4408C296.216 53.4084 296.047 53.3841 295.877 53.368C295.117 53.3033 294.413 53.3841 293.863 53.4812H293.839C292.683 53.6914 288.842 54.5971 285.381 55.4947C283.982 55.8585 282.648 56.2143 281.58 56.5216H281.564C281.338 56.5863 281.127 56.651 280.933 56.7076L280.885 56.7238C280.796 56.748 280.707 56.7804 280.626 56.8046L280.569 56.8208C280.489 56.8451 280.416 56.8693 280.343 56.8855L280.303 56.9017L280.1 56.9664L280.044 56.9825L279.866 57.0472L279.817 57.0634L279.672 57.12H279.656C277.4 57.9691 276.049 60.7669 276.599 63.6941C276.72 64.3329 276.866 65.0445 277.028 65.7965L277.052 65.8936C277.157 66.3707 277.278 66.872 277.4 67.3734C277.424 67.4785 277.448 67.5836 277.48 67.6887C277.537 67.9151 277.602 68.1496 277.666 68.3841C277.966 69.5 278.313 70.6483 278.718 71.7723C278.831 72.0957 278.96 72.4192 279.082 72.7426C279.13 72.872 279.187 73.0014 279.243 73.1308C279.454 73.6402 279.672 74.1335 279.914 74.6106C280.262 75.306 280.707 75.8235 281.216 76.1955C281.346 76.2925 281.475 76.3734 281.613 76.4461L281.815 76.5513L282.001 76.6321C283.982 77.465 286.642 76.7858 288.955 76.244C289.691 76.0742 290.556 75.8639 291.478 75.6213C291.575 75.5971 291.664 75.5728 291.761 75.5486C294.171 74.9098 296.912 74.1254 298.715 73.5351C298.861 73.4947 298.941 73.4704 298.949 73.4623C299.346 73.3248 299.693 73.1955 299.985 73.0823C301.303 72.5647 302.443 71.6267 302.815 69.8801H302.807ZM299.071 60.9691C299.807 60.8316 300.599 61.6564 300.858 62.8127C301.109 63.961 300.737 65.0445 300.009 65.2305C299.265 65.4165 298.432 64.5998 298.173 63.403C297.906 62.1982 298.319 61.1065 299.079 60.9691H299.071ZM297.979 55.996C298.731 55.9151 299.532 56.7804 299.782 57.9367C300.033 59.093 299.653 60.1281 298.909 60.2575C298.149 60.3868 297.308 59.5216 297.049 58.3248C296.782 57.12 297.211 56.0769 297.979 55.996ZM294.187 56.4084C295.028 56.3195 295.909 57.2332 296.176 58.4461C296.443 59.6672 296.006 60.7669 295.173 60.9124C294.324 61.058 293.402 60.1523 293.119 58.8828C292.844 57.6133 293.33 56.5054 294.187 56.4084ZM296.321 66.1604C295.489 66.3707 294.575 65.5216 294.292 64.2521C294.017 62.9825 294.486 61.8181 295.335 61.6645C296.16 61.5108 297.025 62.3761 297.3 63.589C297.567 64.81 297.138 65.9583 296.321 66.1604ZM297.47 71.3761C296.653 71.651 295.747 70.8505 295.472 69.5809C295.197 68.3114 295.658 67.0984 296.483 66.8801C297.292 66.6618 298.157 67.4785 298.424 68.6995C298.691 69.9124 298.27 71.1092 297.47 71.3761ZM301.084 70.1631C300.348 70.4138 299.532 69.6375 299.265 68.4408C298.998 67.2359 299.402 66.1038 300.146 65.9098C300.874 65.7157 301.658 66.492 301.909 67.6483C302.16 68.7965 301.796 69.9286 301.076 70.1631H301.084Z" fill="#E20613"/>
<path d="M289.109 61.5265C289.109 61.5265 288.131 61.6074 286.61 61.4133C285.115 61.2192 284.419 60.9281 284.411 60.9281H284.395L284.371 60.912L284.298 60.8958H284.282L284.201 60.8877H284.104L284.079 60.9039L284.015 60.9281L283.982 60.9443L283.926 60.9686L283.893 60.9928L283.845 61.0332H283.837C283.837 61.0332 283.311 61.5912 282.017 62.3675C280.699 63.1599 279.778 63.4753 279.77 63.4753C279.527 63.5562 279.381 63.8068 279.438 64.0575C279.454 64.1384 279.858 66.0629 280.885 68.0359C282.284 70.7368 284.177 72.2085 286.352 72.2974H286.473L286.578 72.257H286.594C288.551 71.3028 289.699 69.2004 289.902 66.1599C290.055 63.9443 289.659 62.0198 289.643 61.9389C289.586 61.6882 289.36 61.5103 289.101 61.5346L289.109 61.5265Z" fill="#273375"/>
<path d="M289.111 61.5265L289.095 61.3244C289.095 61.3244 288.901 61.3405 288.553 61.3405C288.124 61.3405 287.461 61.3163 286.636 61.2112C285.901 61.1141 285.359 60.9928 285.003 60.8958C284.825 60.8554 284.696 60.8149 284.615 60.7826L284.518 60.7502L284.494 60.7341H284.453L284.429 60.7179L284.356 60.6936H284.308V60.6855H284.211H284.178H284.089L284.073 60.6936L284.033 60.7098L283.96 60.7341H283.944L283.903 60.7583L283.847 60.7907H283.83L283.79 60.8311L283.741 60.8796H283.733V60.8958L283.636 60.9928C283.434 61.1788 282.909 61.6155 281.954 62.1977C281.308 62.5858 280.75 62.8527 280.361 63.0306C280.167 63.1195 280.014 63.1842 279.909 63.2246L279.787 63.2651L279.755 63.2812H279.747C279.456 63.3783 279.262 63.6532 279.262 63.9524L279.278 64.0979C279.294 64.1869 279.706 66.1276 280.75 68.1249C282.173 70.8661 284.122 72.4106 286.394 72.4996H286.547L286.515 72.2974V72.4996H286.564L286.572 72.4915L286.685 72.451H286.701L286.717 72.443H286.725C288.771 71.4484 289.944 69.2489 290.154 66.1761C290.178 65.8122 290.186 65.4645 290.186 65.1249C290.186 63.354 289.903 61.9713 289.887 61.8904C289.814 61.5589 289.523 61.3324 289.192 61.3324H289.127L289.143 61.5346L289.159 61.7368H289.184C289.321 61.7368 289.45 61.8338 289.483 61.9793C289.491 62.0359 289.774 63.3944 289.774 65.1249C289.774 65.4564 289.766 65.7961 289.741 66.1438C289.539 69.1438 288.423 71.1653 286.547 72.071L286.636 72.257L286.572 72.0629H286.556L286.45 72.1033L286.515 72.2974L286.467 72.0953L286.507 72.2974V72.0872H286.475H286.418H286.402H286.378V72.2893L286.394 72.0872C284.316 72.0063 282.488 70.5993 281.097 67.9308C280.087 65.982 279.682 64.0737 279.666 64.009V63.9443C279.666 63.8149 279.739 63.7017 279.868 63.6613C279.868 63.6613 280.822 63.3378 282.157 62.5373C283.467 61.7529 284 61.195 284.025 61.1788L283.879 61.0333L284.008 61.1869H284.016L284.057 61.1465L284.073 61.1303L284.113 61.1141H284.122L284.17 61.0899H284.235H284.243L284.227 60.8877L284.211 61.0899H284.299L284.324 60.8958L284.275 61.0899L284.34 61.106H284.364L284.38 61.1222L284.445 60.9281L284.364 61.1141C284.364 61.1141 285.1 61.4133 286.612 61.6155C287.453 61.7206 288.132 61.7448 288.577 61.7448C288.941 61.7448 289.143 61.7287 289.159 61.7287L289.143 61.5265H289.111Z" fill="white"/>
<path d="M287.596 68.0685C287.661 68.3757 287.467 68.6749 287.16 68.7315L284.435 69.3057C284.136 69.3623 283.836 69.1682 283.772 68.869L283.262 66.435C283.206 66.1682 283.351 65.9175 283.578 65.8043L283.497 65.4C283.327 64.5833 283.853 63.7827 284.669 63.6129C285.486 63.4431 286.286 63.9687 286.456 64.7854L286.537 65.1898C286.796 65.1898 287.022 65.3757 287.079 65.6345L287.588 68.0685H287.596Z" fill="white"/>
<path d="M284.806 64.2517C284.345 64.3487 284.046 64.8096 284.143 65.2705L284.224 65.6587L285.898 65.311L285.817 64.9147C285.72 64.4538 285.267 64.1546 284.806 64.2517Z" fill="#273375"/>
<defs>
<clipPath id="clip0_374_33140">
<rect width="297.643" height="174.724" fill="white" transform="translate(150.934 120.555)"/>
</clipPath>
</defs>
</svg>
