<svg width="600" height="339" viewBox="0 0 600 339" fill="none" xmlns="http://www.w3.org/2000/svg">
<rect width="600" height="337.5" transform="translate(0 0.579102)" fill="#A6D7D4"/>
<path d="M165.791 70.0966L170.303 73.5252C168.225 76.2826 164.893 78.0697 160.793 78.0697C153.653 78.0697 148.785 72.6276 148.785 66.2233C148.785 59.819 153.653 54.377 160.793 54.377C164.893 54.377 168.225 56.1721 170.303 58.8891L165.791 62.35C164.731 60.8136 163.033 59.722 160.793 59.722C157.203 59.722 154.648 62.4794 154.648 66.2233C154.648 69.9672 157.211 72.7247 160.793 72.7247C163.001 72.7247 164.731 71.633 165.791 70.0966ZM185.481 68.3419V77.4389H179.78V68.3419L170.432 55.0239H177.378L182.658 62.7705L187.939 55.0239H194.853L185.472 68.3419H185.481ZM197.521 55.0158H204.92C209.885 55.0158 212.893 57.3203 212.893 61.2907C212.893 62.9888 212.092 64.4929 210.685 65.5522C212.893 66.6761 214.179 68.4956 214.179 70.7112C214.179 74.9403 210.815 77.4389 205.373 77.4389H197.529V55.0158H197.521ZM203.222 59.722V63.4659H205.082C206.327 63.4659 207.039 62.7947 207.039 61.5414C207.039 60.385 206.335 59.7139 205.082 59.7139H203.222V59.722ZM203.222 68.1802V72.7247H205.72C207.322 72.7247 208.316 71.8594 208.316 70.4524C208.316 69.0454 207.322 68.1802 205.72 68.1802H203.222ZM218.78 55.0158H232.615V59.722H224.481V63.66H231.33V68.3662H224.481V72.7247H232.615V77.4309H218.78V55.0158ZM237.928 55.0158H245.456C250.704 55.0158 253.939 57.6115 253.939 61.9942C253.939 64.7193 252.661 66.7651 250.413 67.9214L257.262 77.4309H250.599L244.963 68.9484H243.621V77.4309H237.92V55.0158H237.928ZM243.629 59.722V64.2341H245.804C247.243 64.2341 248.076 63.3042 248.076 61.9295C248.076 60.6519 247.243 59.722 245.804 59.722H243.629Z" fill="#253473"/>
<path d="M322.957 55.0156H334.997V57.579H325.965V64.7515H333.712V67.2825H325.965V74.8674H334.997V77.4307H322.957V55.0156ZM340.989 55.0156H344.927L357.607 73.7434V55.0156H360.615V77.4307H356.677L343.997 58.703V77.4307H340.989V55.0156Z" fill="#253473"/>
<path d="M374.434 83.2609C373.601 83.2609 372.93 83.2609 372.453 83.1639V78.1342C372.744 78.1989 373.092 78.2313 373.545 78.2313C375.469 78.2313 376.205 77.3337 376.205 75.6679V55.0156H381.906V75.3445C381.906 80.4388 379.634 83.2528 374.442 83.2528L374.434 83.2609ZM387.954 55.0156H401.79V59.7218H393.655V63.6598H400.504V68.366H393.655V72.7245H401.79V77.4307H387.954V55.0156ZM419.329 55.0156H425.03V68.4307C425.03 74.3903 421.569 78.0695 415.65 78.0695C409.731 78.0695 406.302 74.3903 406.302 68.4307V55.0156H412.003V68.9725C412.003 71.2771 413.313 72.7164 415.682 72.7164C418.052 72.7164 419.329 71.2771 419.329 68.9725V55.0156ZM427.787 77.4307L435.502 65.9078L428.232 55.0237H434.992L439.504 61.7191L443.984 55.0237H450.768L443.467 65.9078L451.181 77.4307H444.429L439.496 70.0965L434.564 77.4307H427.779H427.787Z" fill="#E20917"/>
<path d="M298.935 55.2909L310.086 65.0914C309.908 53.9971 300.86 45.0537 289.725 45.0537C278.59 45.0537 269.355 54.175 269.355 65.4311C269.355 76.6871 278.477 85.8003 289.725 85.8003C290.283 85.8003 290.833 85.7761 291.374 85.7276L280.547 76.2181L298.935 55.2909Z" fill="#4CBAB6"/>
<path d="M310.098 65.4312C310.098 65.318 310.098 65.2048 310.09 65.0916L298.939 55.291L280.551 76.2182L291.378 85.7277C301.858 84.8867 310.098 76.1212 310.098 65.4312Z" fill="#00939C"/>
<path d="M278.976 60.3527L297.647 55.04L299.385 56.2934L300.558 59.9403L302.555 69.2152L301.423 71.7058L282.323 76.1209L280.755 74.7462L277.391 61.5252L278.976 60.3527Z" fill="white"/>
<path d="M302.807 70.3791C303.001 69.4573 302.985 68.3171 302.677 66.902C302.613 66.6028 302.548 66.2956 302.483 65.9802C302.451 65.8427 302.427 65.7053 302.394 65.5597C302.321 65.2039 302.241 64.8158 302.152 64.4034L302.127 64.274C302.079 64.0314 302.022 63.7807 301.966 63.5058V63.4573C301.796 62.6972 301.61 61.84 301.392 60.8293C301.359 60.6756 301.327 60.5139 301.286 60.3522C301.262 60.2309 301.23 60.1015 301.206 59.964L301.173 59.8347L301.125 59.6325C300.583 57.3764 299.734 55.9694 298.772 55.1123L298.747 55.0799C298.666 55.0152 298.594 54.9506 298.513 54.8859L298.375 54.7807C298.157 54.6271 297.939 54.4896 297.72 54.3845C297.591 54.3117 297.454 54.2551 297.324 54.1985C297.09 54.1096 296.855 54.0368 296.621 53.9802C296.548 53.964 296.475 53.9479 296.394 53.9398C296.216 53.9074 296.047 53.8832 295.877 53.867C295.117 53.8023 294.413 53.8832 293.863 53.9802H293.839C292.683 54.1904 288.842 55.0961 285.381 55.9937C283.982 56.3576 282.648 56.7134 281.58 57.0206H281.564C281.338 57.0853 281.127 57.15 280.933 57.2066L280.885 57.2228C280.796 57.2471 280.707 57.2794 280.626 57.3037L280.569 57.3198C280.489 57.3441 280.416 57.3683 280.343 57.3845L280.303 57.4007L280.1 57.4654L280.044 57.4816L279.866 57.5462L279.817 57.5624L279.672 57.619H279.656C277.4 58.4681 276.049 61.2659 276.599 64.1931C276.72 64.832 276.866 65.5435 277.028 66.2956L277.052 66.3926C277.157 66.8697 277.278 67.371 277.4 67.8724C277.424 67.9775 277.448 68.0826 277.48 68.1878C277.537 68.4142 277.602 68.6487 277.666 68.8832C277.966 69.9991 278.313 71.1473 278.718 72.2713C278.831 72.5948 278.96 72.9182 279.082 73.2417C279.13 73.371 279.187 73.5004 279.243 73.6298C279.454 74.1392 279.672 74.6325 279.914 75.1096C280.262 75.805 280.707 76.3225 281.216 76.6945C281.346 76.7915 281.475 76.8724 281.613 76.9452L281.815 77.0503L282.001 77.1311C283.982 77.964 286.642 77.2848 288.955 76.743C289.691 76.5732 290.556 76.363 291.478 76.1204C291.575 76.0961 291.664 76.0719 291.761 76.0476C294.171 75.4088 296.912 74.6244 298.715 74.0341C298.861 73.9937 298.941 73.9694 298.949 73.9613C299.346 73.8239 299.693 73.6945 299.985 73.5813C301.303 73.0638 302.443 72.1258 302.815 70.3791H302.807ZM299.071 61.4681C299.807 61.3306 300.599 62.1554 300.858 63.3117C301.109 64.46 300.737 65.5435 300.009 65.7295C299.265 65.9155 298.432 65.0988 298.173 63.902C297.906 62.6972 298.319 61.6055 299.079 61.4681H299.071ZM297.979 56.495C298.731 56.4142 299.532 57.2794 299.782 58.4357C300.033 59.5921 299.653 60.6271 298.909 60.7565C298.149 60.8859 297.308 60.0206 297.049 58.8239C296.782 57.619 297.211 56.5759 297.979 56.495ZM294.187 56.9074C295.028 56.8185 295.909 57.7322 296.176 58.9452C296.443 60.1662 296.006 61.2659 295.173 61.4115C294.324 61.557 293.402 60.6514 293.119 59.3818C292.844 58.1123 293.33 57.0045 294.187 56.9074ZM296.321 66.6595C295.489 66.8697 294.575 66.0206 294.292 64.7511C294.017 63.4816 294.486 62.3171 295.335 62.1635C296.16 62.0099 297.025 62.8751 297.3 64.088C297.567 65.309 297.138 66.4573 296.321 66.6595ZM297.47 71.8751C296.653 72.15 295.747 71.3495 295.472 70.0799C295.197 68.8104 295.658 67.5975 296.483 67.3791C297.292 67.1608 298.157 67.9775 298.424 69.1985C298.691 70.4115 298.27 71.6082 297.47 71.8751ZM301.084 70.6621C300.348 70.9128 299.532 70.1365 299.265 68.9398C298.998 67.7349 299.402 66.6028 300.146 66.4088C300.874 66.2147 301.658 66.991 301.909 68.1473C302.16 69.2956 301.796 70.4276 301.076 70.6621H301.084Z" fill="#E20613"/>
<path d="M289.109 62.0265C289.109 62.0265 288.131 62.1074 286.61 61.9133C285.115 61.7192 284.419 61.4281 284.411 61.4281H284.395L284.371 61.412L284.298 61.3958H284.282L284.201 61.3877H284.104L284.079 61.4039L284.015 61.4281L283.982 61.4443L283.926 61.4686L283.893 61.4928L283.845 61.5332H283.837C283.837 61.5332 283.311 62.0912 282.017 62.8675C280.699 63.6599 279.778 63.9753 279.77 63.9753C279.527 64.0562 279.381 64.3068 279.438 64.5575C279.454 64.6384 279.858 66.5629 280.885 68.5359C282.284 71.2368 284.177 72.7085 286.352 72.7974H286.473L286.578 72.757H286.594C288.551 71.8028 289.699 69.7004 289.902 66.6599C290.055 64.4443 289.659 62.5198 289.643 62.4389C289.586 62.1882 289.36 62.0103 289.101 62.0346L289.109 62.0265Z" fill="#273375"/>
<path d="M289.111 62.0265L289.095 61.8244C289.095 61.8244 288.901 61.8405 288.553 61.8405C288.124 61.8405 287.461 61.8163 286.636 61.7112C285.901 61.6141 285.359 61.4928 285.003 61.3958C284.825 61.3554 284.696 61.3149 284.615 61.2826L284.518 61.2502L284.494 61.2341H284.453L284.429 61.2179L284.356 61.1936H284.308V61.1855H284.211H284.178H284.089L284.073 61.1936L284.033 61.2098L283.96 61.2341H283.944L283.903 61.2583L283.847 61.2907H283.83L283.79 61.3311L283.741 61.3796H283.733V61.3958L283.636 61.4928C283.434 61.6788 282.909 62.1155 281.954 62.6977C281.308 63.0858 280.75 63.3527 280.361 63.5306C280.167 63.6195 280.014 63.6842 279.909 63.7246L279.787 63.7651L279.755 63.7812H279.747C279.456 63.8783 279.262 64.1532 279.262 64.4524L279.278 64.5979C279.294 64.6869 279.706 66.6276 280.75 68.6249C282.173 71.3661 284.122 72.9106 286.394 72.9996H286.547L286.515 72.7974V72.9996H286.564L286.572 72.9915L286.685 72.951H286.701L286.717 72.943H286.725C288.771 71.9484 289.944 69.7489 290.154 66.6761C290.178 66.3122 290.186 65.9645 290.186 65.6249C290.186 63.854 289.903 62.4713 289.887 62.3904C289.814 62.0589 289.523 61.8324 289.192 61.8324H289.127L289.143 62.0346L289.159 62.2368H289.184C289.321 62.2368 289.45 62.3338 289.483 62.4793C289.491 62.5359 289.774 63.8944 289.774 65.6249C289.774 65.9564 289.766 66.2961 289.741 66.6438C289.539 69.6438 288.423 71.6653 286.547 72.571L286.636 72.757L286.572 72.5629H286.556L286.45 72.6033L286.515 72.7974L286.467 72.5953L286.507 72.7974V72.5872H286.475H286.418H286.402H286.378V72.7893L286.394 72.5872C284.316 72.5063 282.488 71.0993 281.097 68.4308C280.087 66.482 279.682 64.5737 279.666 64.509V64.4443C279.666 64.3149 279.739 64.2017 279.868 64.1613C279.868 64.1613 280.822 63.8378 282.157 63.0373C283.467 62.2529 284 61.695 284.025 61.6788L283.879 61.5333L284.008 61.6869H284.016L284.057 61.6465L284.073 61.6303L284.113 61.6141H284.122L284.17 61.5899H284.235H284.243L284.227 61.3877L284.211 61.5899H284.299L284.324 61.3958L284.275 61.5899L284.34 61.606H284.364L284.38 61.6222L284.445 61.4281L284.364 61.6141C284.364 61.6141 285.1 61.9133 286.612 62.1155C287.453 62.2206 288.132 62.2448 288.577 62.2448C288.941 62.2448 289.143 62.2287 289.159 62.2287L289.143 62.0265H289.111Z" fill="white"/>
<path d="M287.596 68.5685C287.661 68.8757 287.467 69.1749 287.16 69.2315L284.435 69.8057C284.136 69.8623 283.836 69.6682 283.772 69.369L283.262 66.935C283.206 66.6682 283.351 66.4175 283.578 66.3043L283.497 65.9C283.327 65.0833 283.853 64.2827 284.669 64.1129C285.486 63.9431 286.286 64.4687 286.456 65.2854L286.537 65.6898C286.796 65.6898 287.022 65.8757 287.079 66.1345L287.588 68.5685H287.596Z" fill="white"/>
<path d="M284.806 64.7517C284.345 64.8487 284.046 65.3096 284.143 65.7705L284.224 66.1587L285.898 65.811L285.817 65.4147C285.72 64.9538 285.267 64.6546 284.806 64.7517Z" fill="#273375"/>
<path d="M393.579 119.055C416.125 118.486 434.864 136.301 435.433 158.847C435.672 168.307 432.672 177.096 427.446 184.154C446.882 183.616 464.028 196.868 468.377 215.856C472.756 234.973 462.925 254.503 444.962 262.375L372.994 293.911C352.338 302.963 328.254 293.555 319.203 272.899C318.777 271.927 318.391 270.948 318.047 269.963L181.039 275.079C158.502 275.92 139.55 258.332 138.709 235.795C137.919 214.639 153.368 196.643 173.907 193.82C166.632 186.656 162.017 176.774 161.739 165.761C161.169 143.216 178.985 124.477 201.53 123.907L393.579 119.055Z" fill="white"/>
<path d="M186.604 167.965L195.818 143.625H202.285L211.5 167.965H206.249L203.919 161.636H194.184L191.854 167.965H186.604ZM195.714 157.429H202.39L199.052 148.284L195.714 157.429Z" fill="#253473"/>
<path d="M223.421 164.488C225.16 164.488 226.55 163.688 227.385 162.471L230.827 165.114C229.193 167.269 226.62 168.66 223.421 168.66C217.371 168.66 213.755 164.314 213.755 159.202C213.755 154.091 217.371 149.745 223.421 149.745C226.62 149.745 229.193 151.136 230.827 153.291L227.385 155.934C226.55 154.717 225.16 153.917 223.352 153.917C220.466 153.917 218.345 156.143 218.345 159.202C218.345 162.297 220.466 164.488 223.421 164.488Z" fill="#253473"/>
<path d="M241.859 164.488C243.598 164.488 244.989 163.688 245.823 162.471L249.265 165.114C247.631 167.269 245.058 168.66 241.859 168.66C235.809 168.66 232.193 164.314 232.193 159.202C232.193 154.091 235.809 149.745 241.859 149.745C245.058 149.745 247.631 151.136 249.265 153.291L245.823 155.934C244.989 154.717 243.598 153.917 241.79 153.917C238.904 153.917 236.783 156.143 236.783 159.202C236.783 162.297 238.904 164.488 241.859 164.488Z" fill="#253473"/>
<path d="M264.106 160.385V150.44H268.556V160.176C268.556 165.426 265.497 168.66 260.35 168.66C255.204 168.66 252.179 165.426 252.179 160.176V150.44H256.63V160.385C256.63 162.923 257.951 164.488 260.385 164.488C262.784 164.488 264.106 162.923 264.106 160.385Z" fill="#253473"/>
<path d="M273.445 167.965V141.887H277.861V167.965H273.445Z" fill="#253473"/>
<path d="M284.269 161.567V154.404H281V150.44H284.269V146.059H288.719V150.44H294.074V154.404H288.719V161.567C288.719 163.514 289.763 164.279 291.501 164.279C292.718 164.279 293.518 164.14 294.109 163.897V167.756C293.24 168.139 292.197 168.312 290.736 168.312C286.355 168.312 284.269 165.844 284.269 161.567Z" fill="#253473"/>
<path d="M309.539 160.385V150.44H313.989V160.176C313.989 165.426 310.93 168.66 305.784 168.66C300.637 168.66 297.612 165.426 297.612 160.176V150.44H302.063V160.385C302.063 162.923 303.384 164.488 305.818 164.488C308.217 164.488 309.539 162.923 309.539 160.385Z" fill="#253473"/>
<path d="M318.878 167.965V150.44H323.294V152.179C324.441 150.997 325.936 150.092 327.918 150.092C328.509 150.092 329.031 150.197 329.448 150.336V154.682C328.892 154.543 328.301 154.439 327.501 154.439C325.345 154.439 323.954 155.621 323.294 156.734V167.965H318.878Z" fill="#253473"/>
<path d="M337.092 168.486C333.58 168.486 331.181 166.47 331.181 163.236C331.181 160.593 333.232 158.611 336.988 157.985L342.342 157.081V156.629C342.342 154.787 340.952 153.604 338.935 153.604C337.231 153.604 335.91 154.404 334.971 155.691L331.737 153.222C333.302 151.066 335.875 149.745 339.074 149.745C344.15 149.745 346.758 152.77 346.758 156.629V167.965H342.342V166.261C341.23 167.617 339.143 168.486 337.092 168.486ZM335.562 163.027C335.562 164.209 336.501 164.974 337.996 164.974C340.013 164.974 341.473 164.036 342.342 162.645V160.176L338.17 160.871C336.327 161.184 335.562 161.949 335.562 163.027Z" fill="#253473"/>
<path d="M352.928 161.567V154.404H349.659V150.44H352.928V146.059H357.378V150.44H362.733V154.404H357.378V161.567C357.378 163.514 358.422 164.279 360.16 164.279C361.377 164.279 362.177 164.14 362.768 163.897V167.756C361.899 168.139 360.855 168.312 359.395 168.312C355.014 168.312 352.928 165.844 352.928 161.567Z" fill="#253473"/>
<path d="M368.913 147.38C367.348 147.38 366.027 146.059 366.027 144.494C366.027 142.93 367.348 141.608 368.913 141.608C370.478 141.608 371.764 142.93 371.764 144.494C371.764 146.059 370.478 147.38 368.913 147.38ZM366.688 167.965V150.44H371.104V167.965H366.688Z" fill="#253473"/>
<path d="M384.744 149.745C390.447 149.745 394.341 153.952 394.341 159.202C394.341 164.453 390.447 168.66 384.744 168.66C379.042 168.66 375.147 164.453 375.147 159.202C375.147 153.952 379.042 149.745 384.744 149.745ZM384.814 164.488C387.63 164.488 389.751 162.228 389.751 159.202C389.751 156.143 387.63 153.917 384.814 153.917C381.893 153.917 379.737 156.143 379.737 159.202C379.737 162.262 381.893 164.488 384.814 164.488Z" fill="#253473"/>
<path d="M398.369 167.965V150.44H402.785V151.831C404.002 150.649 405.636 149.745 407.965 149.745C411.755 149.745 414.78 152.353 414.78 157.533V167.965H410.33V157.707C410.33 155.378 409.009 153.917 406.853 153.917C404.627 153.917 403.445 155.412 402.785 156.525V167.965H398.369Z" fill="#253473"/>
<path d="M218.908 207.3C215.396 207.3 212.997 205.284 212.997 202.05C212.997 199.407 215.049 197.425 218.804 196.8L224.159 195.895V195.443C224.159 193.601 222.768 192.418 220.751 192.418C219.047 192.418 217.726 193.218 216.787 194.505L213.554 192.036C215.118 189.88 217.691 188.559 220.89 188.559C225.967 188.559 228.575 191.584 228.575 195.443V206.779H224.159V205.075C223.046 206.431 220.96 207.3 218.908 207.3ZM217.378 201.841C217.378 203.023 218.317 203.788 219.812 203.788C221.829 203.788 223.289 202.85 224.159 201.459V198.99L219.986 199.685C218.143 199.998 217.378 200.763 217.378 201.841Z" fill="#253473"/>
<path d="M245.175 199.199V189.254H249.626V198.99C249.626 204.24 246.566 207.474 241.42 207.474C236.274 207.474 233.249 204.24 233.249 198.99V189.254H237.7V199.199C237.7 201.737 239.021 203.302 241.455 203.302C243.854 203.302 245.175 201.737 245.175 199.199Z" fill="#253473"/>
<path d="M257.169 206.779H252.093L258.282 197.773L252.44 189.254H257.482L261.098 194.644L264.714 189.254H269.791L263.915 197.773L270.104 206.779H265.062L261.098 200.902L257.169 206.779Z" fill="#253473"/>
<path d="M299.037 203.962C297.368 206.153 294.621 207.474 291.248 207.474C284.815 207.474 281.408 203.128 281.408 198.016C281.408 192.94 284.572 188.559 290.518 188.559C295.49 188.559 298.759 191.862 298.759 196.626C298.759 197.808 298.585 198.921 298.411 199.546H287.076C287.597 201.911 289.127 202.537 291.213 202.537C292.882 202.537 294.343 201.876 295.142 200.868L299.037 203.962ZM290.379 193.009C288.605 193.009 287.528 193.879 287.11 195.652H293.404C293.334 194.47 292.43 193.009 290.379 193.009Z" fill="#E30613"/>
<path d="M302.519 206.779V189.254H308.048V190.228C309.195 189.254 310.655 188.559 312.707 188.559C316.427 188.559 319.487 191.167 319.487 196.487V206.779H313.924V196.73C313.924 194.957 312.985 193.74 311.212 193.74C309.265 193.74 308.395 195.27 308.048 195.861V206.779H302.519Z" fill="#E30613"/>
<path d="M326.521 187.342C324.643 187.342 323.044 185.708 323.044 183.83C323.044 181.952 324.643 180.353 326.521 180.353C328.398 180.353 329.998 181.952 329.998 183.83C329.998 185.708 328.398 187.342 326.521 187.342ZM329.372 208.378C329.372 212.655 327.425 215.471 322.626 215.471C320.992 215.471 319.914 215.263 319.01 214.846V210.082C319.532 210.291 320.366 210.464 321.653 210.464C323.113 210.464 323.843 209.7 323.843 208.378V189.254H329.372V208.378Z" fill="#E30613"/>
<path d="M350.48 203.962C348.811 206.153 346.064 207.474 342.691 207.474C336.259 207.474 332.851 203.128 332.851 198.016C332.851 192.94 336.015 188.559 341.961 188.559C346.933 188.559 350.202 191.862 350.202 196.626C350.202 197.808 350.028 198.921 349.854 199.546H338.519C339.04 201.911 340.57 202.537 342.657 202.537C344.326 202.537 345.786 201.876 346.586 200.868L350.48 203.962ZM341.822 193.009C340.049 193.009 338.971 193.879 338.554 195.652H344.847C344.778 194.47 343.874 193.009 341.822 193.009Z" fill="#E30613"/>
<path d="M364.884 199.164V189.254H370.448V198.851C370.448 204.101 367.318 207.474 361.929 207.474C356.47 207.474 353.445 204.101 353.445 198.851V189.254H359.008V199.164C359.008 201.007 359.912 202.293 361.964 202.293C363.946 202.293 364.884 201.007 364.884 199.164Z" fill="#E30613"/>
<path d="M378.657 206.779H372.329L378.31 197.808L372.607 189.254H378.901L381.787 193.809L384.742 189.254H391.001L385.298 197.843L391.244 206.779H384.986L381.787 201.841L378.657 206.779Z" fill="#E30613"/>
<path d="M161.391 236.831C161.391 231.719 164.659 227.373 170.222 227.373C172.378 227.373 173.873 227.964 175.056 229.007V219.515H180.619V245.593H175.056V244.654C173.873 245.697 172.378 246.288 170.222 246.288C164.659 246.288 161.391 241.942 161.391 236.831ZM167.128 236.831C167.128 239.404 168.588 241.107 171.022 241.107C172.726 241.107 174.047 240.412 175.056 239.091V234.57C174.047 233.249 172.726 232.554 171.022 232.554C168.588 232.554 167.128 234.257 167.128 236.831Z" fill="#E30613"/>
<path d="M201.736 242.776C200.067 244.967 197.32 246.288 193.947 246.288C187.515 246.288 184.107 241.942 184.107 236.831C184.107 231.754 187.271 227.373 193.217 227.373C198.189 227.373 201.458 230.676 201.458 235.44C201.458 236.622 201.284 237.735 201.11 238.36H189.775C190.296 240.725 191.826 241.351 193.913 241.351C195.582 241.351 197.042 240.69 197.842 239.682L201.736 242.776ZM193.078 231.823C191.305 231.823 190.227 232.693 189.81 234.466H196.103C196.034 233.284 195.13 231.823 193.078 231.823Z" fill="#E30613"/>
<path d="M223.318 241.107C224.708 241.107 225.821 240.412 226.447 239.508L230.759 242.776C229.124 244.932 226.517 246.288 223.283 246.288C217.094 246.288 213.547 241.942 213.547 236.831C213.547 231.719 217.094 227.373 223.283 227.373C226.517 227.373 229.124 228.729 230.759 230.885L226.447 234.153C225.821 233.249 224.743 232.554 223.213 232.554C220.953 232.554 219.284 234.257 219.284 236.831C219.284 239.438 220.953 241.107 223.318 241.107Z" fill="#E30613"/>
<path d="M242.545 249.383C241.363 252.304 239.415 254.285 235.764 254.285C234.269 254.285 233.331 254.077 232.392 253.694V248.931C232.913 249.105 233.783 249.278 234.478 249.278C236.216 249.278 237.016 248.722 237.607 247.262L238.268 245.593L231.07 228.068H237.19L241.189 238.326L245.292 228.068H251.098L242.545 249.383Z" fill="#E30613"/>
<path d="M272.46 236.831C272.46 241.942 269.227 246.288 263.628 246.288C261.473 246.288 259.943 245.697 258.761 244.619V245.593H253.232V219.515H258.761V229.042C259.943 227.964 261.473 227.373 263.628 227.373C269.227 227.373 272.46 231.719 272.46 236.831ZM262.829 232.554C261.055 232.554 259.699 233.319 258.761 234.605V239.056C259.804 240.377 261.125 241.107 262.829 241.107C265.263 241.107 266.758 239.404 266.758 236.831C266.758 234.257 265.263 232.554 262.829 232.554Z" fill="#E30613"/>
<path d="M292.5 242.776C290.831 244.967 288.084 246.288 284.712 246.288C278.279 246.288 274.871 241.942 274.871 236.831C274.871 231.754 278.036 227.373 283.981 227.373C288.954 227.373 292.222 230.676 292.222 235.44C292.222 236.622 292.048 237.735 291.874 238.36H280.539C281.061 240.725 282.591 241.351 284.677 241.351C286.346 241.351 287.806 240.69 288.606 239.682L292.5 242.776ZM283.842 231.823C282.069 231.823 280.991 232.693 280.574 234.466H286.867C286.798 233.284 285.894 231.823 283.842 231.823Z" fill="#E30613"/>
<path d="M295.982 245.593V228.068H301.511V229.494C302.589 228.485 303.945 227.721 305.753 227.721C306.379 227.721 306.935 227.825 307.353 227.964V233.423C306.761 233.284 306.101 233.18 305.197 233.18C303.18 233.18 301.859 234.362 301.511 234.953V245.593H295.982Z" fill="#E30613"/>
<path d="M309.025 242.95L312.642 239.647C313.58 240.864 314.763 241.907 316.327 241.907C317.336 241.907 317.822 241.385 317.822 240.69C317.822 238.291 309.721 239.264 309.721 233.11C309.721 229.772 312.537 227.373 316.397 227.373C319.178 227.373 321.821 228.729 323.142 230.433L319.526 233.666C318.692 232.693 317.649 231.754 316.397 231.754C315.423 231.754 314.971 232.241 314.971 232.832C314.971 235.092 323.073 234.188 323.073 240.308C323.003 244.271 319.77 246.288 316.397 246.288C313.024 246.288 310.799 244.967 309.025 242.95Z" fill="#E30613"/>
<path d="M337.704 225.287H332.454L336.035 219.515H341.946L337.704 225.287ZM343.129 242.776C341.46 244.967 338.713 246.288 335.34 246.288C328.907 246.288 325.5 241.942 325.5 236.831C325.5 231.754 328.664 227.373 334.61 227.373C339.582 227.373 342.85 230.676 342.85 235.44C342.85 236.622 342.677 237.735 342.503 238.36H331.167C331.689 240.725 333.219 241.351 335.305 241.351C336.974 241.351 338.434 240.69 339.234 239.682L343.129 242.776ZM334.471 231.823C332.697 231.823 331.619 232.693 331.202 234.466H337.496C337.426 233.284 336.522 231.823 334.471 231.823Z" fill="#E30613"/>
<path d="M355.169 241.107C356.559 241.107 357.672 240.412 358.298 239.508L362.609 242.776C360.975 244.932 358.367 246.288 355.134 246.288C348.945 246.288 345.398 241.942 345.398 236.831C345.398 231.719 348.945 227.373 355.134 227.373C358.367 227.373 360.975 228.729 362.609 230.885L358.298 234.153C357.672 233.249 356.594 232.554 355.064 232.554C352.804 232.554 351.135 234.257 351.135 236.831C351.135 239.438 352.804 241.107 355.169 241.107Z" fill="#E30613"/>
<path d="M376.412 237.978V228.068H381.976V237.665C381.976 242.915 378.846 246.288 373.457 246.288C367.998 246.288 364.973 242.915 364.973 237.665V228.068H370.536V237.978C370.536 239.821 371.44 241.107 373.492 241.107C375.474 241.107 376.412 239.821 376.412 237.978Z" fill="#E30613"/>
<path d="M386.136 245.593V228.068H391.664V229.494C392.742 228.485 394.098 227.721 395.906 227.721C396.532 227.721 397.088 227.825 397.506 227.964V233.423C396.915 233.284 396.254 233.18 395.35 233.18C393.333 233.18 392.012 234.362 391.664 234.953V245.593H386.136Z" fill="#E30613"/>
<path d="M403.281 226.156C401.369 226.156 399.77 224.522 399.77 222.644C399.77 220.766 401.369 219.167 403.281 219.167C405.124 219.167 406.724 220.766 406.724 222.644C406.724 224.522 405.124 226.156 403.281 226.156ZM400.465 245.593V228.068H405.994V245.593H400.465Z" fill="#E30613"/>
<path d="M411.733 238.778V233.006H408.464V228.068H411.733V223.687H417.296V228.068H422.095V233.006H417.296V238.778C417.296 240.169 418.026 240.933 419.487 240.933C420.773 240.933 421.608 240.76 422.129 240.551V245.315C421.191 245.732 420.113 245.94 418.478 245.94C413.715 245.94 411.733 243.089 411.733 238.778Z" fill="#E30613"/>
<path d="M436.414 225.287H431.164L434.745 219.515H440.656L436.414 225.287ZM441.839 242.776C440.169 244.967 437.423 246.288 434.05 246.288C427.617 246.288 424.21 241.942 424.21 236.831C424.21 231.754 427.374 227.373 433.32 227.373C438.292 227.373 441.56 230.676 441.56 235.44C441.56 236.622 441.386 237.735 441.213 238.36H429.877C430.399 240.725 431.929 241.351 434.015 241.351C435.684 241.351 437.144 240.69 437.944 239.682L441.839 242.776ZM433.181 231.823C431.407 231.823 430.329 232.693 429.912 234.466H436.206C436.136 233.284 435.232 231.823 433.181 231.823Z" fill="#E30613"/>
</svg>
