<svg width="600" height="336" viewBox="0 0 600 336" fill="none" xmlns="http://www.w3.org/2000/svg">
<rect width="600" height="335.58" transform="translate(0 0.237305)" fill="#8BC79E"/>
<path d="M401.061 199.782C398.441 193.196 394.268 187.568 389.089 183.177C389.32 181.37 389.465 179.526 389.465 177.646C389.465 154.249 370.495 135.278 347.097 135.278C321.152 135.278 259.475 139.56 248.158 141.44C225.536 145.212 210.12 166.257 213.14 188.83C201.229 198.072 194.631 213.392 197.287 229.305C201.096 252.169 222.553 267.683 245.392 264.238C251.408 263.522 278.154 261.715 305.081 260.211C306.294 261.97 307.665 263.644 309.169 265.245C317.501 274.038 328.709 278.478 339.929 278.478C350.384 278.478 360.864 274.633 369.063 266.87L390.836 246.238C403.426 234.315 407.477 215.914 401.049 199.807L401.061 199.782Z" fill="white"/>
<path d="M274.212 183.116L278.154 186.148C275.898 189.204 272.247 191.182 267.771 191.182C259.996 191.182 254.684 185.202 254.684 178.167C254.684 171.132 259.996 165.152 267.771 165.152C272.235 165.152 275.898 167.153 278.154 170.149L274.212 173.206C272.805 171.204 270.585 169.822 267.771 169.822C263.126 169.822 259.814 173.448 259.814 178.167C259.814 182.885 263.126 186.512 267.771 186.512C270.585 186.512 272.805 185.141 274.212 183.128V183.116ZM281.878 172.745H286.341V174.504C287.506 173.303 289.01 172.393 291.023 172.393C291.618 172.393 292.151 172.502 292.576 172.636V177.027C292.018 176.881 291.411 176.784 290.611 176.784C288.428 176.784 287.021 177.985 286.353 179.113V190.478H281.89V172.745H281.878ZM304.038 191.182C297.743 191.182 294.189 186.779 294.189 181.612C294.189 176.444 297.5 172.041 303.298 172.041C308.223 172.041 311.461 175.377 311.461 180.023C311.461 181.005 311.316 181.927 311.182 182.521H298.762C299.186 185.833 301.224 187.167 304.002 187.167C305.93 187.167 307.628 186.318 308.574 185.056L311.777 187.591C310.127 189.811 307.374 191.182 304.038 191.182ZM298.895 179.283H307.058C306.985 177.488 305.688 175.692 303.189 175.692C300.909 175.692 299.392 176.954 298.895 179.283ZM301.467 169.931L305.13 164.097H309.981L305.76 169.931H301.467ZM324.294 191.182C317.999 191.182 314.445 186.779 314.445 181.612C314.445 176.444 317.756 172.041 323.554 172.041C328.479 172.041 331.717 175.377 331.717 180.023C331.717 181.005 331.572 181.927 331.438 182.521H319.018C319.442 185.833 321.48 187.167 324.258 187.167C326.186 187.167 327.884 186.318 328.83 185.056L332.033 187.591C330.383 189.811 327.63 191.182 324.294 191.182ZM319.163 179.283H327.326C327.254 177.488 325.956 175.692 323.457 175.692C321.177 175.692 319.661 176.954 319.163 179.283ZM336.072 172.745H340.535V174.504C341.7 173.303 343.216 172.393 345.217 172.393C345.812 172.393 346.345 172.502 346.77 172.636V177.027C346.212 176.881 345.605 176.784 344.805 176.784C342.622 176.784 341.215 177.985 340.547 179.113V190.478H336.084V172.745H336.072Z" fill="#273375"/>
<path d="M262.142 211.536H267.77V221.252C267.77 226.564 264.604 229.973 259.146 229.973C253.688 229.973 250.559 226.564 250.559 221.252V211.536H256.187V221.567C256.187 223.435 257.096 224.733 259.183 224.733C261.269 224.733 262.142 223.435 262.142 221.567V211.536ZM271.991 211.536H277.583V212.519C278.747 211.536 280.227 210.833 282.301 210.833C286.061 210.833 289.166 213.465 289.166 218.85V229.269H283.538V219.105C283.538 217.31 282.592 216.073 280.797 216.073C278.832 216.073 277.947 217.625 277.595 218.219V229.269H272.003V211.536H271.991ZM301.817 238.075C300.168 238.075 299.076 237.869 298.154 237.444V232.629C298.676 232.835 299.525 233.017 300.823 233.017C302.303 233.017 303.042 232.241 303.042 230.907V211.56H308.634V230.907C308.634 235.237 306.669 238.087 301.805 238.087L301.817 238.075ZM302.242 206.054C302.242 204.149 303.855 202.536 305.759 202.536C307.664 202.536 309.277 204.149 309.277 206.054C309.277 207.958 307.664 209.608 305.759 209.608C303.855 209.608 302.242 207.958 302.242 206.054ZM322.11 229.973C315.596 229.973 312.152 225.57 312.152 220.403C312.152 215.236 315.354 210.833 321.37 210.833C326.404 210.833 329.715 214.168 329.715 218.996C329.715 220.197 329.533 221.312 329.363 221.955H317.889C318.422 224.345 319.963 224.975 322.073 224.975C323.759 224.975 325.239 224.308 326.052 223.289L329.994 226.419C328.308 228.639 325.53 229.973 322.11 229.973ZM317.925 218.013H324.293C324.22 216.812 323.311 215.345 321.236 215.345C319.441 215.345 318.35 216.218 317.925 218.013ZM344.549 211.536H350.177V221.252C350.177 226.564 347.011 229.973 341.553 229.973C336.095 229.973 332.966 226.564 332.966 221.252V211.536H338.594V221.567C338.594 223.435 339.503 224.733 341.59 224.733C343.676 224.733 344.549 223.435 344.549 221.567V211.536Z" fill="#E30613"/>
<path d="M165.791 69.7558L170.303 73.1844C168.225 75.9418 164.893 77.7289 160.793 77.7289C153.653 77.7289 148.785 72.2868 148.785 65.8825C148.785 59.4782 153.653 54.0361 160.793 54.0361C164.893 54.0361 168.225 55.8313 170.303 58.5483L165.791 62.0092C164.731 60.4728 163.033 59.3811 160.793 59.3811C157.203 59.3811 154.648 62.1386 154.648 65.8825C154.648 69.6264 157.211 72.3838 160.793 72.3838C163.001 72.3838 164.731 71.2922 165.791 69.7558ZM185.481 68.0011V77.0981H179.78V68.0011L170.432 54.683H177.378L182.658 62.4297L187.939 54.683H194.853L185.472 68.0011H185.481ZM197.521 54.6749H204.92C209.885 54.6749 212.893 56.9795 212.893 60.9499C212.893 62.648 212.092 64.152 210.685 65.2113C212.893 66.3353 214.179 68.1547 214.179 70.3704C214.179 74.5995 210.815 77.0981 205.373 77.0981H197.529V54.6749H197.521ZM203.222 59.3811V63.1251H205.082C206.327 63.1251 207.039 62.4539 207.039 61.2006C207.039 60.0442 206.335 59.3731 205.082 59.3731H203.222V59.3811ZM203.222 67.8394V72.3838H205.72C207.322 72.3838 208.316 71.5186 208.316 70.1116C208.316 68.7046 207.322 67.8394 205.72 67.8394H203.222ZM218.78 54.6749H232.615V59.3811H224.481V63.3192H231.33V68.0254H224.481V72.3838H232.615V77.09H218.78V54.6749ZM237.928 54.6749H245.456C250.704 54.6749 253.939 57.2706 253.939 61.6534C253.939 64.3785 252.661 66.4243 250.413 67.5806L257.262 77.09H250.599L244.963 68.6076H243.621V77.09H237.92V54.6749H237.928ZM243.629 59.3811V63.8933H245.804C247.243 63.8933 248.076 62.9634 248.076 61.5887C248.076 60.3111 247.243 59.3811 245.804 59.3811H243.629Z" fill="#253473"/>
<path d="M322.957 54.6748H334.997V57.2381H325.965V64.4107H333.712V66.9417H325.965V74.5266H334.997V77.0899H322.957V54.6748ZM340.989 54.6748H344.927L357.607 73.4026V54.6748H360.615V77.0899H356.677L343.997 58.3621V77.0899H340.989V54.6748Z" fill="#253473"/>
<path d="M374.434 82.9201C373.601 82.9201 372.93 82.9201 372.453 82.8231V77.7934C372.744 77.8581 373.092 77.8904 373.545 77.8904C375.469 77.8904 376.205 76.9929 376.205 75.3271V54.6748H381.906V75.0036C381.906 80.098 379.634 82.912 374.442 82.912L374.434 82.9201ZM387.954 54.6748H401.79V59.381H393.655V63.319H400.504V68.0252H393.655V72.3837H401.79V77.0899H387.954V54.6748ZM419.329 54.6748H425.03V68.0899C425.03 74.0495 421.569 77.7287 415.65 77.7287C409.731 77.7287 406.302 74.0495 406.302 68.0899V54.6748H412.003V68.6317C412.003 70.9363 413.313 72.3756 415.682 72.3756C418.052 72.3756 419.329 70.9363 419.329 68.6317V54.6748ZM427.787 77.0899L435.502 65.567L428.232 54.6829H434.992L439.504 61.3783L443.984 54.6829H450.768L443.467 65.567L451.181 77.0899H444.429L439.496 69.7557L434.564 77.0899H427.779H427.787Z" fill="#E20917"/>
<path d="M298.853 54.9491L310.004 64.7497C309.826 53.6553 300.777 44.7119 289.643 44.7119C278.508 44.7119 269.273 53.8332 269.273 65.0893C269.273 76.3453 278.395 85.4585 289.643 85.4585C290.201 85.4585 290.751 85.4343 291.292 85.3858L280.465 75.8763L298.853 54.9491Z" fill="#49B170"/>
<path d="M310.098 65.0894C310.098 64.9762 310.098 64.863 310.09 64.7498L298.939 54.9492L280.551 75.8764L291.378 85.3859C301.858 84.5449 310.098 75.7794 310.098 65.0894Z" fill="#006E38"/>
<path d="M278.976 60.0109L297.647 54.6982L299.385 55.9516L300.558 59.5985L302.555 68.8734L301.423 71.364L282.323 75.7791L280.755 74.4044L277.391 61.1834L278.976 60.0109Z" fill="white"/>
<path d="M302.807 70.0383C303.001 69.1165 302.985 67.9763 302.677 66.5612C302.613 66.262 302.548 65.9547 302.483 65.6394C302.451 65.5019 302.427 65.3645 302.394 65.2189C302.321 64.8631 302.241 64.475 302.152 64.0626L302.127 63.9332C302.079 63.6906 302.022 63.4399 301.966 63.165V63.1165C301.796 62.3564 301.61 61.4992 301.392 60.4884C301.359 60.3348 301.327 60.1731 301.286 60.0114C301.262 59.8901 301.23 59.7607 301.206 59.6232L301.173 59.4938L301.125 59.2917C300.583 57.0356 299.734 55.6286 298.772 54.7715L298.747 54.7391C298.666 54.6744 298.594 54.6097 298.513 54.545L298.375 54.4399C298.157 54.2863 297.939 54.1488 297.72 54.0437C297.591 53.9709 297.454 53.9143 297.324 53.8577C297.09 53.7688 296.855 53.696 296.621 53.6394C296.548 53.6232 296.475 53.607 296.394 53.599C296.216 53.5666 296.047 53.5424 295.877 53.5262C295.117 53.4615 294.413 53.5424 293.863 53.6394H293.839C292.683 53.8496 288.842 54.7553 285.381 55.6529C283.982 56.0167 282.648 56.3725 281.58 56.6798H281.564C281.338 56.7445 281.127 56.8092 280.933 56.8658L280.885 56.882C280.796 56.9062 280.707 56.9386 280.626 56.9628L280.569 56.979C280.489 57.0033 280.416 57.0275 280.343 57.0437L280.303 57.0599L280.1 57.1246L280.044 57.1407L279.866 57.2054L279.817 57.2216L279.672 57.2782H279.656C277.4 58.1273 276.049 60.9251 276.599 63.8523C276.72 64.4911 276.866 65.2027 277.028 65.9548L277.052 66.0518C277.157 66.5289 277.278 67.0302 277.4 67.5316C277.424 67.6367 277.448 67.7418 277.48 67.8469C277.537 68.0733 277.602 68.3078 277.666 68.5423C277.966 69.6583 278.313 70.8065 278.718 71.9305C278.831 72.2539 278.96 72.5774 279.082 72.9008C279.13 73.0302 279.187 73.1596 279.243 73.289C279.454 73.7984 279.672 74.2917 279.914 74.7688C280.262 75.4642 280.707 75.9817 281.216 76.3537C281.346 76.4507 281.475 76.5316 281.613 76.6043L281.815 76.7095L282.001 76.7903C283.982 77.6232 286.642 76.944 288.955 76.4022C289.691 76.2324 290.556 76.0221 291.478 75.7795C291.575 75.7553 291.664 75.731 291.761 75.7068C294.171 75.068 296.912 74.2836 298.715 73.6933C298.861 73.6529 298.941 73.6286 298.949 73.6205C299.346 73.4831 299.693 73.3537 299.985 73.2405C301.303 72.7229 302.443 71.7849 302.815 70.0383H302.807ZM299.071 61.1273C299.807 60.9898 300.599 61.8146 300.858 62.9709C301.109 64.1192 300.737 65.2027 300.009 65.3887C299.265 65.5747 298.432 64.758 298.173 63.5612C297.906 62.3564 298.319 61.2647 299.079 61.1273H299.071ZM297.979 56.1542C298.731 56.0733 299.532 56.9386 299.782 58.0949C300.033 59.2512 299.653 60.2863 298.909 60.4157C298.149 60.545 297.308 59.6798 297.049 58.4831C296.782 57.2782 297.211 56.2351 297.979 56.1542ZM294.187 56.5666C295.028 56.4777 295.909 57.3914 296.176 58.6043C296.443 59.8254 296.006 60.9251 295.173 61.0707C294.324 61.2162 293.402 60.3105 293.119 59.041C292.844 57.7715 293.33 56.6636 294.187 56.5666ZM296.321 66.3186C295.489 66.5289 294.575 65.6798 294.292 64.4103C294.017 63.1407 294.486 61.9763 295.335 61.8227C296.16 61.669 297.025 62.5343 297.3 63.7472C297.567 64.9682 297.138 66.1165 296.321 66.3186ZM297.47 71.5343C296.653 71.8092 295.747 71.0087 295.472 69.7391C295.197 68.4696 295.658 67.2566 296.483 67.0383C297.292 66.82 298.157 67.6367 298.424 68.8577C298.691 70.0707 298.27 71.2674 297.47 71.5343ZM301.084 70.3213C300.348 70.572 299.532 69.7957 299.265 68.599C298.998 67.3941 299.402 66.262 300.146 66.068C300.874 65.8739 301.658 66.6502 301.909 67.8065C302.16 68.9547 301.796 70.0868 301.076 70.3213H301.084Z" fill="#E20613"/>
<path d="M289.109 61.6847C289.109 61.6847 288.131 61.7656 286.61 61.5715C285.115 61.3774 284.419 61.0863 284.411 61.0863H284.395L284.371 61.0702L284.298 61.054H284.282L284.201 61.0459H284.104L284.079 61.0621L284.015 61.0863L283.982 61.1025L283.926 61.1268L283.893 61.151L283.845 61.1914H283.837C283.837 61.1914 283.311 61.7494 282.017 62.5257C280.699 63.3181 279.778 63.6335 279.77 63.6335C279.527 63.7144 279.381 63.965 279.438 64.2157C279.454 64.2966 279.858 66.2211 280.885 68.1941C282.284 70.895 284.177 72.3667 286.352 72.4556H286.473L286.578 72.4152H286.594C288.551 71.461 289.699 69.3586 289.902 66.3181C290.055 64.1025 289.659 62.178 289.643 62.0971C289.586 61.8464 289.36 61.6685 289.101 61.6928L289.109 61.6847Z" fill="#273375"/>
<path d="M289.111 61.6847L289.095 61.4826C289.095 61.4826 288.901 61.4987 288.553 61.4987C288.124 61.4987 287.461 61.4745 286.636 61.3694C285.901 61.2723 285.359 61.151 285.003 61.054C284.825 61.0136 284.696 60.9731 284.615 60.9408L284.518 60.9084L284.494 60.8923H284.453L284.429 60.8761L284.356 60.8518H284.308V60.8438H284.211H284.178H284.089L284.073 60.8518L284.033 60.868L283.96 60.8923H283.944L283.903 60.9165L283.847 60.9489H283.83L283.79 60.9893L283.741 61.0378H283.733V61.054L283.636 61.151C283.434 61.337 282.909 61.7737 281.954 62.3559C281.308 62.744 280.75 63.0109 280.361 63.1888C280.167 63.2777 280.014 63.3424 279.909 63.3828L279.787 63.4233L279.755 63.4394H279.747C279.456 63.5365 279.262 63.8114 279.262 64.1106L279.278 64.2561C279.294 64.3451 279.706 66.2858 280.75 68.2831C282.173 71.0243 284.122 72.5688 286.394 72.6578H286.547L286.515 72.4556V72.6578H286.564L286.572 72.6497L286.685 72.6092H286.701L286.717 72.6012H286.725C288.771 71.6066 289.944 69.4071 290.154 66.3343C290.178 65.9704 290.186 65.6227 290.186 65.2831C290.186 63.5122 289.903 62.1295 289.887 62.0486C289.814 61.7171 289.523 61.4906 289.192 61.4906H289.127L289.143 61.6928L289.159 61.895H289.184C289.321 61.895 289.45 61.992 289.483 62.1375C289.491 62.1942 289.774 63.5526 289.774 65.2831C289.774 65.6146 289.766 65.9543 289.741 66.302C289.539 69.302 288.423 71.3235 286.547 72.2292L286.636 72.4152L286.572 72.2211H286.556L286.45 72.2615L286.515 72.4556L286.467 72.2535L286.507 72.4556V72.2454H286.475H286.418H286.402H286.378V72.4475L286.394 72.2454C284.316 72.1645 282.488 70.7575 281.097 68.089C280.087 66.1402 279.682 64.2319 279.666 64.1672V64.1025C279.666 63.9731 279.739 63.8599 279.868 63.8195C279.868 63.8195 280.822 63.496 282.157 62.6955C283.467 61.9111 284 61.3532 284.025 61.337L283.879 61.1915L284.008 61.3451H284.016L284.057 61.3047L284.073 61.2885L284.113 61.2723H284.122L284.17 61.2481H284.235H284.243L284.227 61.0459L284.211 61.2481H284.299L284.324 61.054L284.275 61.2481L284.34 61.2642H284.364L284.38 61.2804L284.445 61.0863L284.364 61.2723C284.364 61.2723 285.1 61.5715 286.612 61.7737C287.453 61.8788 288.132 61.903 288.577 61.903C288.941 61.903 289.143 61.8869 289.159 61.8869L289.143 61.6847H289.111Z" fill="white"/>
<path d="M287.596 68.2267C287.661 68.5339 287.467 68.8331 287.16 68.8897L284.435 69.4639C284.136 69.5205 283.836 69.3264 283.772 69.0272L283.262 66.5932C283.206 66.3264 283.351 66.0757 283.578 65.9625L283.497 65.5582C283.327 64.7415 283.853 63.9409 284.669 63.7711C285.486 63.6013 286.286 64.1269 286.456 64.9436L286.537 65.348C286.796 65.348 287.022 65.5339 287.079 65.7927L287.588 68.2267H287.596Z" fill="white"/>
<path d="M284.806 64.4099C284.345 64.5069 284.046 64.9678 284.143 65.4287L284.224 65.8169L285.898 65.4692L285.817 65.073C285.72 64.612 285.267 64.3128 284.806 64.4099Z" fill="#273375"/>
</svg>
