<svg width="600" height="336" viewBox="0 0 600 336" fill="none" xmlns="http://www.w3.org/2000/svg">
<rect width="600" height="335.58" fill="#B8C2E2"/>
<path d="M448.733 208.743C446.817 201.466 443.056 195.061 438.059 189.955C440.024 185.079 441.104 179.754 441.104 174.175C441.104 150.777 422.133 131.807 398.736 131.807C388.535 131.807 212.016 136.416 197.509 138.83C174.439 142.675 158.853 164.495 162.698 187.578C162.916 188.875 163.195 190.161 163.523 191.41C153.249 200.774 147.779 214.99 150.229 229.715C153.953 252.069 174.536 267.389 196.794 264.842C206.424 264.223 262.45 263.374 314.97 262.755C315.831 265.327 316.947 267.862 318.342 270.3C326.141 284.042 340.478 291.757 355.228 291.757C362.311 291.757 369.492 289.974 376.102 286.226L428.683 256.388C445.41 246.89 453.645 227.326 448.733 208.731V208.743Z" fill="white"/>
<path d="M203.998 164.264H208.996V179.256C208.996 185.733 205.199 189.602 199.001 189.602C192.803 189.602 189.043 185.733 189.043 179.256V164.264H194.04V179.68C194.04 182.991 195.908 184.92 199.038 184.92C202.167 184.92 203.998 182.979 203.998 179.68V164.264ZM215.703 175.168H212.392V171.153H215.703V166.714H220.203V171.153H225.625V175.168H220.203V182.421C220.203 184.386 221.259 185.163 223.017 185.163C224.255 185.163 225.055 185.017 225.662 184.775V188.68C224.776 189.068 223.721 189.238 222.253 189.238C217.826 189.238 215.703 186.739 215.703 182.409V175.156V175.168ZM228.961 165.137C228.961 163.56 230.295 162.214 231.884 162.214C233.473 162.214 234.771 163.548 234.771 165.137C234.771 166.726 233.473 168.06 231.884 168.06C230.295 168.06 228.961 166.726 228.961 165.137ZM229.628 171.165H234.091V188.899H229.628V171.165ZM239.441 162.505H243.904V188.886H239.441V162.505ZM248.586 165.137C248.586 163.56 249.92 162.214 251.509 162.214C253.098 162.214 254.396 163.548 254.396 165.137C254.396 166.726 253.098 168.06 251.509 168.06C249.92 168.06 248.586 166.726 248.586 165.137ZM249.253 171.165H253.717V188.899H249.253V171.165ZM260.267 183.646C261.358 185.017 262.656 186 264.342 186C265.786 186 266.525 185.151 266.525 184.095C266.525 181.002 258.047 182.167 258.047 175.932C258.047 172.803 260.691 170.45 264.379 170.45C267.083 170.45 269.546 171.748 270.819 173.47L267.86 176.078C266.95 174.95 265.786 174.04 264.415 174.04C263.044 174.04 262.341 174.816 262.341 175.726C262.341 178.758 270.819 177.691 270.819 183.816C270.746 187.54 267.763 189.59 264.415 189.59C261.249 189.59 258.993 188.328 257.307 186.315L260.267 183.634V183.646ZM273.839 184.107C273.839 181.439 275.914 179.425 279.71 178.795L285.132 177.885V177.424C285.132 175.556 283.725 174.368 281.687 174.368C279.965 174.368 278.631 175.18 277.672 176.478L274.397 173.979C275.986 171.796 278.582 170.462 281.821 170.462C286.951 170.462 289.596 173.518 289.596 177.424V188.899H285.132V187.176C284.004 188.547 281.893 189.432 279.819 189.432C276.265 189.432 273.839 187.394 273.839 184.12V184.107ZM280.741 185.866C282.779 185.866 284.259 184.92 285.144 183.513V181.014L280.923 181.718C279.055 182.033 278.279 182.81 278.279 183.901C278.279 185.102 279.225 185.866 280.741 185.866ZM295.83 175.168H292.519V171.153H295.83V166.714H300.33V171.153H305.752V175.168H300.33V182.421C300.33 184.386 301.385 185.163 303.144 185.163C304.381 185.163 305.182 185.017 305.788 184.775V188.68C304.915 189.068 303.848 189.238 302.38 189.238C297.941 189.238 295.83 186.739 295.83 182.409V175.156V175.168ZM309.087 165.137C309.087 163.56 310.422 162.214 312.011 162.214C313.6 162.214 314.897 163.548 314.897 165.137C314.897 166.726 313.6 168.06 312.011 168.06C310.422 168.06 309.087 166.726 309.087 165.137ZM309.755 171.165H314.218V188.899H309.755V171.165ZM337.725 180.02C337.725 185.332 333.783 189.59 328.009 189.59C322.236 189.59 318.294 185.332 318.294 180.02C318.294 174.707 322.236 170.45 328.009 170.45C333.783 170.45 337.725 174.707 337.725 180.02ZM333.079 180.02C333.079 176.927 330.932 174.671 328.082 174.671C325.232 174.671 322.951 176.927 322.951 180.02C322.951 183.113 325.135 185.369 328.082 185.369C331.03 185.369 333.079 183.076 333.079 180.02ZM341.8 171.165H346.264V172.572C347.501 171.372 349.151 170.462 351.504 170.462C355.337 170.462 358.406 173.094 358.406 178.346V188.899H353.906V178.516C353.906 176.163 352.571 174.683 350.388 174.683C348.205 174.683 346.943 176.199 346.276 177.327V188.899H341.813V171.165H341.8ZM380.711 170.462C383.101 170.462 384.823 171.202 386.206 172.572V162.505H390.706V188.886H386.206V187.479C384.835 188.85 383.113 189.59 380.711 189.59C375.12 189.59 371.699 185.187 371.699 180.02C371.699 174.853 375.108 170.45 380.711 170.45V170.462ZM381.342 185.369C383.344 185.369 385.005 184.52 386.194 182.907V177.133C384.993 175.52 383.344 174.671 381.342 174.671C378.31 174.671 376.381 176.927 376.381 180.02C376.381 183.113 378.322 185.369 381.342 185.369ZM404.631 189.59C398.335 189.59 394.782 185.187 394.782 180.02C394.782 174.853 398.093 170.45 403.891 170.45C408.815 170.45 412.054 173.785 412.054 178.431C412.054 179.413 411.908 180.335 411.775 180.93H399.354C399.779 184.241 401.817 185.575 404.594 185.575C406.535 185.575 408.221 184.726 409.167 183.465L412.369 186C410.72 188.219 407.978 189.59 404.631 189.59ZM399.488 177.703H407.651C407.578 175.908 406.28 174.113 403.782 174.113C401.489 174.113 399.985 175.374 399.488 177.703Z" fill="#273375"/>
<path d="M210.961 219.634L215.922 223.394C213.629 226.427 209.978 228.392 205.466 228.392C197.619 228.392 192.27 222.412 192.27 215.377C192.27 208.342 197.619 202.362 205.466 202.362C209.966 202.362 213.629 204.327 215.922 207.323L210.961 211.119C209.796 209.433 207.941 208.233 205.466 208.233C201.524 208.233 198.71 211.265 198.71 215.377C198.71 219.489 201.524 222.521 205.466 222.521C207.892 222.521 209.796 221.32 210.961 219.634ZM219.427 236.482C217.911 236.482 216.965 236.276 216.019 235.888V231.072C216.553 231.254 217.426 231.424 218.129 231.424C219.888 231.424 220.701 230.866 221.295 229.386L221.962 227.7L214.685 209.967H220.883L224.934 220.35L229.082 209.967H234.953L226.292 231.533C225.092 234.493 223.127 236.494 219.427 236.494V236.482ZM247.604 228.392C245.42 228.392 243.88 227.797 242.679 226.706V227.688H237.088V201.307H242.679V210.949C243.88 209.858 245.42 209.264 247.604 209.264C253.268 209.264 256.543 213.654 256.543 218.834C256.543 224.013 253.268 228.404 247.604 228.404V228.392ZM242.679 216.578V221.078C243.734 222.412 245.069 223.152 246.791 223.152C249.253 223.152 250.77 221.429 250.77 218.821C250.77 216.214 249.253 214.491 246.791 214.491C244.996 214.491 243.625 215.268 242.679 216.565V216.578ZM268.927 228.392C262.414 228.392 258.969 223.989 258.969 218.821C258.969 213.654 262.171 209.251 268.187 209.251C273.221 209.251 276.52 212.587 276.52 217.414C276.52 218.615 276.338 219.731 276.168 220.374H264.694C265.228 222.764 266.768 223.394 268.879 223.394C270.565 223.394 272.044 222.727 272.857 221.708L276.799 224.838C275.113 227.057 272.336 228.392 268.915 228.392H268.927ZM264.743 216.432H271.111C271.038 215.231 270.128 213.764 268.054 213.764C266.259 213.764 265.167 214.637 264.743 216.432ZM280.317 209.955H285.908V211.398C287 210.379 288.371 209.603 290.202 209.603C290.833 209.603 291.403 209.712 291.815 209.846V215.365C291.221 215.219 290.554 215.122 289.632 215.122C287.594 215.122 286.248 216.323 285.896 216.917V227.688H280.305V209.955H280.317ZM295.624 203.065H310.822V208.233H301.883V212.563H309.415V217.73H301.883V222.521H310.822V227.688H295.624V203.065ZM315.528 209.955H321.12V210.937C322.284 209.955 323.764 209.251 325.838 209.251C329.598 209.251 332.704 211.883 332.704 217.269V227.688H327.075V217.524C327.075 215.728 326.129 214.491 324.334 214.491C322.369 214.491 321.484 216.044 321.132 216.638V227.688H315.54V209.955H315.528ZM336.633 234.092C335.724 234.092 334.984 234.092 334.45 233.983V228.464C334.766 228.537 335.154 228.573 335.651 228.573C337.761 228.573 338.574 227.591 338.574 225.759V203.065H344.833V225.408C344.833 230.999 342.334 234.104 336.633 234.104V234.092ZM359.073 228.392C352.559 228.392 349.115 223.989 349.115 218.821C349.115 213.654 352.317 209.251 358.333 209.251C363.367 209.251 366.666 212.587 366.666 217.414C366.666 218.615 366.496 219.731 366.314 220.374H354.84C355.373 222.764 356.914 223.394 359.024 223.394C360.71 223.394 362.19 222.727 363.003 221.708L366.945 224.838C365.259 227.057 362.481 228.392 359.061 228.392H359.073ZM354.888 216.432H361.256C361.183 215.231 360.274 213.764 358.199 213.764C356.404 213.764 355.313 214.637 354.888 216.432ZM381.549 209.955H387.177V219.671C387.177 224.983 384.011 228.392 378.553 228.392C373.094 228.392 369.965 224.983 369.965 219.671V209.955H375.593V219.986C375.593 221.854 376.503 223.152 378.589 223.152C380.675 223.152 381.549 221.854 381.549 219.986V209.955ZM389.081 227.688L395.133 218.615L389.36 209.955H395.728L398.651 214.564L401.647 209.955H407.978L402.205 218.64L408.221 227.688H401.889L398.651 222.691L395.485 227.688H389.081Z" fill="#E30613"/>
<path d="M165.791 69.5185L170.303 72.9471C168.225 75.7045 164.893 77.4916 160.793 77.4916C153.653 77.4916 148.785 72.0495 148.785 65.6452C148.785 59.2409 153.653 53.7988 160.793 53.7988C164.893 53.7988 168.225 55.594 170.303 58.311L165.791 61.7719C164.731 60.2355 163.033 59.1438 160.793 59.1438C157.203 59.1438 154.648 61.9013 154.648 65.6452C154.648 69.3891 157.211 72.1465 160.793 72.1465C163.001 72.1465 164.731 71.0549 165.791 69.5185ZM185.481 67.7638V76.8608H179.78V67.7638L170.432 54.4457H177.378L182.658 62.1924L187.939 54.4457H194.853L185.472 67.7638H185.481ZM197.521 54.4376H204.92C209.885 54.4376 212.893 56.7422 212.893 60.7126C212.893 62.4107 212.092 63.9147 210.685 64.974C212.893 66.098 214.179 67.9174 214.179 70.1331C214.179 74.3622 210.815 76.8608 205.373 76.8608H197.529V54.4376H197.521ZM203.222 59.1438V62.8878H205.082C206.327 62.8878 207.039 62.2166 207.039 60.9632C207.039 59.8069 206.335 59.1358 205.082 59.1358H203.222V59.1438ZM203.222 67.6021V72.1465H205.72C207.322 72.1465 208.316 71.2813 208.316 69.8743C208.316 68.4673 207.322 67.6021 205.72 67.6021H203.222ZM218.78 54.4376H232.615V59.1438H224.481V63.0818H231.33V67.788H224.481V72.1465H232.615V76.8527H218.78V54.4376ZM237.928 54.4376H245.456C250.704 54.4376 253.939 57.0333 253.939 61.4161C253.939 64.1411 252.661 66.187 250.413 67.3433L257.262 76.8527H250.599L244.963 68.3703H243.621V76.8527H237.92V54.4376H237.928ZM243.629 59.1438V63.656H245.804C247.243 63.656 248.076 62.7261 248.076 61.3514C248.076 60.0738 247.243 59.1438 245.804 59.1438H243.629Z" fill="#253473"/>
<path d="M322.957 54.4375H334.997V57.0008H325.965V64.1733H333.712V66.7043H325.965V74.2892H334.997V76.8526H322.957V54.4375ZM340.989 54.4375H344.927L357.607 73.1653V54.4375H360.615V76.8526H356.677L343.997 58.1248V76.8526H340.989V54.4375Z" fill="#253473"/>
<path d="M374.434 82.6828C373.601 82.6828 372.93 82.6828 372.453 82.5857V77.5561C372.744 77.6208 373.092 77.6531 373.545 77.6531C375.469 77.6531 376.205 76.7556 376.205 75.0898V54.4375H381.906V74.7663C381.906 79.8607 379.634 82.6747 374.442 82.6747L374.434 82.6828ZM387.954 54.4375H401.79V59.1437H393.655V63.0817H400.504V67.7879H393.655V72.1464H401.79V76.8526H387.954V54.4375ZM419.329 54.4375H425.03V67.8526C425.03 73.8122 421.569 77.4914 415.65 77.4914C409.731 77.4914 406.302 73.8122 406.302 67.8526V54.4375H412.003V68.3944C412.003 70.699 413.313 72.1383 415.682 72.1383C418.052 72.1383 419.329 70.699 419.329 68.3944V54.4375ZM427.787 76.8526L435.502 65.3297L428.232 54.4456H434.992L439.504 61.141L443.984 54.4456H450.768L443.467 65.3297L451.181 76.8526H444.429L439.496 69.5184L434.564 76.8526H427.779H427.787Z" fill="#E20917"/>
<path d="M298.853 54.7118L310.004 64.5123C309.826 53.418 300.777 44.4746 289.643 44.4746C278.508 44.4746 269.273 53.5959 269.273 64.852C269.273 76.108 278.395 85.2212 289.643 85.2212C290.201 85.2212 290.751 85.197 291.292 85.1485L280.465 75.639L298.853 54.7118Z" fill="#879CCD"/>
<path d="M310.098 64.8521C310.098 64.7389 310.098 64.6257 310.09 64.5125L298.939 54.7119L280.551 75.6391L291.378 85.1486C301.858 84.3076 310.098 75.5421 310.098 64.8521Z" fill="#3C57A3"/>
<path d="M278.976 59.7736L297.647 54.4609L299.385 55.7143L300.558 59.3612L302.555 68.6361L301.423 71.1267L282.323 75.5418L280.755 74.1671L277.391 60.9461L278.976 59.7736Z" fill="white"/>
<path d="M302.807 69.801C303.001 68.8792 302.985 67.739 302.677 66.3239C302.613 66.0247 302.548 65.7174 302.483 65.4021C302.451 65.2646 302.427 65.1271 302.394 64.9816C302.321 64.6258 302.241 64.2377 302.152 63.8253L302.127 63.6959C302.079 63.4533 302.022 63.2026 301.966 62.9277V62.8792C301.796 62.1191 301.61 61.2619 301.392 60.2511C301.359 60.0975 301.327 59.9358 301.286 59.774C301.262 59.6528 301.23 59.5234 301.206 59.3859L301.173 59.2565L301.125 59.0544C300.583 56.7983 299.734 55.3913 298.772 54.5342L298.747 54.5018C298.666 54.4371 298.594 54.3724 298.513 54.3077L298.375 54.2026C298.157 54.049 297.939 53.9115 297.72 53.8064C297.591 53.7336 297.454 53.677 297.324 53.6204C297.09 53.5315 296.855 53.4587 296.621 53.4021C296.548 53.3859 296.475 53.3697 296.394 53.3616C296.216 53.3293 296.047 53.305 295.877 53.2889C295.117 53.2242 294.413 53.305 293.863 53.4021H293.839C292.683 53.6123 288.842 54.518 285.381 55.4156C283.982 55.7794 282.648 56.1352 281.58 56.4425H281.564C281.338 56.5072 281.127 56.5719 280.933 56.6285L280.885 56.6447C280.796 56.6689 280.707 56.7013 280.626 56.7255L280.569 56.7417C280.489 56.766 280.416 56.7902 280.343 56.8064L280.303 56.8226L280.1 56.8873L280.044 56.9034L279.866 56.9681L279.817 56.9843L279.672 57.0409H279.656C277.4 57.89 276.049 60.6878 276.599 63.615C276.72 64.2538 276.866 64.9654 277.028 65.7174L277.052 65.8145C277.157 66.2916 277.278 66.7929 277.4 67.2943C277.424 67.3994 277.448 67.5045 277.48 67.6096C277.537 67.836 277.602 68.0705 277.666 68.305C277.966 69.4209 278.313 70.5692 278.718 71.6932C278.831 72.0166 278.96 72.3401 279.082 72.6635C279.13 72.7929 279.187 72.9223 279.243 73.0517C279.454 73.5611 279.672 74.0544 279.914 74.5315C280.262 75.2269 280.707 75.7444 281.216 76.1164C281.346 76.2134 281.475 76.2943 281.613 76.367L281.815 76.4722L282.001 76.553C283.982 77.3859 286.642 76.7067 288.955 76.1649C289.691 75.9951 290.556 75.7848 291.478 75.5422C291.575 75.518 291.664 75.4937 291.761 75.4695C294.171 74.8307 296.912 74.0463 298.715 73.456C298.861 73.4156 298.941 73.3913 298.949 73.3832C299.346 73.2457 299.693 73.1164 299.985 73.0032C301.303 72.4856 302.443 71.5476 302.815 69.801H302.807ZM299.071 60.89C299.807 60.7525 300.599 61.5773 300.858 62.7336C301.109 63.8819 300.737 64.9654 300.009 65.1514C299.265 65.3374 298.432 64.5207 298.173 63.3239C297.906 62.1191 298.319 61.0274 299.079 60.89H299.071ZM297.979 55.9169C298.731 55.836 299.532 56.7013 299.782 57.8576C300.033 59.0139 299.653 60.049 298.909 60.1784C298.149 60.3077 297.308 59.4425 297.049 58.2457C296.782 57.0409 297.211 55.9978 297.979 55.9169ZM294.187 56.3293C295.028 56.2404 295.909 57.1541 296.176 58.367C296.443 59.5881 296.006 60.6878 295.173 60.8333C294.324 60.9789 293.402 60.0732 293.119 58.8037C292.844 57.5342 293.33 56.4263 294.187 56.3293ZM296.321 66.0813C295.489 66.2916 294.575 65.4425 294.292 64.173C294.017 62.9034 294.486 61.739 295.335 61.5854C296.16 61.4317 297.025 62.297 297.3 63.5099C297.567 64.7309 297.138 65.8792 296.321 66.0813ZM297.47 71.297C296.653 71.5719 295.747 70.7714 295.472 69.5018C295.197 68.2323 295.658 67.0193 296.483 66.801C297.292 66.5827 298.157 67.3994 298.424 68.6204C298.691 69.8333 298.27 71.0301 297.47 71.297ZM301.084 70.084C300.348 70.3347 299.532 69.5584 299.265 68.3616C298.998 67.1568 299.402 66.0247 300.146 65.8307C300.874 65.6366 301.658 66.4129 301.909 67.5692C302.16 68.7174 301.796 69.8495 301.076 70.084H301.084Z" fill="#E20613"/>
<path d="M289.109 61.4474C289.109 61.4474 288.131 61.5283 286.61 61.3342C285.115 61.1401 284.419 60.849 284.411 60.849H284.395L284.371 60.8329L284.298 60.8167H284.282L284.201 60.8086H284.104L284.079 60.8248L284.015 60.849L283.982 60.8652L283.926 60.8895L283.893 60.9137L283.845 60.9541H283.837C283.837 60.9541 283.311 61.5121 282.017 62.2884C280.699 63.0808 279.778 63.3962 279.77 63.3962C279.527 63.4771 279.381 63.7277 279.438 63.9784C279.454 64.0593 279.858 65.9838 280.885 67.9568C282.284 70.6576 284.177 72.1293 286.352 72.2183H286.473L286.578 72.1779H286.594C288.551 71.2237 289.699 69.1213 289.902 66.0808C290.055 63.8652 289.659 61.9407 289.643 61.8598C289.586 61.6091 289.36 61.4312 289.101 61.4555L289.109 61.4474Z" fill="#273375"/>
<path d="M289.111 61.4474L289.095 61.2453C289.095 61.2453 288.901 61.2614 288.553 61.2614C288.124 61.2614 287.461 61.2372 286.636 61.1321C285.901 61.035 285.359 60.9137 285.003 60.8167C284.825 60.7763 284.696 60.7358 284.615 60.7035L284.518 60.6711L284.494 60.655H284.453L284.429 60.6388L284.356 60.6145H284.308V60.6064H284.211H284.178H284.089L284.073 60.6145L284.033 60.6307L283.96 60.655H283.944L283.903 60.6792L283.847 60.7116H283.83L283.79 60.752L283.741 60.8005H283.733V60.8167L283.636 60.9137C283.434 61.0997 282.909 61.5364 281.954 62.1186C281.308 62.5067 280.75 62.7736 280.361 62.9515C280.167 63.0404 280.014 63.1051 279.909 63.1455L279.787 63.186L279.755 63.2021H279.747C279.456 63.2992 279.262 63.5741 279.262 63.8733L279.278 64.0188C279.294 64.1078 279.706 66.0485 280.75 68.0458C282.173 70.787 284.122 72.3315 286.394 72.4205H286.547L286.515 72.2183V72.4205H286.564L286.572 72.4124L286.685 72.3719H286.701L286.717 72.3639H286.725C288.771 71.3692 289.944 69.1698 290.154 66.097C290.178 65.7331 290.186 65.3854 290.186 65.0458C290.186 63.2749 289.903 61.8922 289.887 61.8113C289.814 61.4798 289.523 61.2533 289.192 61.2533H289.127L289.143 61.4555L289.159 61.6577H289.184C289.321 61.6577 289.45 61.7547 289.483 61.9002C289.491 61.9568 289.774 63.3153 289.774 65.0458C289.774 65.3773 289.766 65.717 289.741 66.0647C289.539 69.0647 288.423 71.0862 286.547 71.9919L286.636 72.1779L286.572 71.9838H286.556L286.45 72.0242L286.515 72.2183L286.467 72.0161L286.507 72.2183V72.0081H286.475H286.418H286.402H286.378V72.2102L286.394 72.0081C284.316 71.9272 282.488 70.5202 281.097 67.8517C280.087 65.9029 279.682 63.9946 279.666 63.9299V63.8652C279.666 63.7358 279.739 63.6226 279.868 63.5822C279.868 63.5822 280.822 63.2587 282.157 62.4582C283.467 61.6738 284 61.1159 284.025 61.0997L283.879 60.9542L284.008 61.1078H284.016L284.057 61.0674L284.073 61.0512L284.113 61.035H284.122L284.17 61.0108H284.235H284.243L284.227 60.8086L284.211 61.0108H284.299L284.324 60.8167L284.275 61.0108L284.34 61.0269H284.364L284.38 61.0431L284.445 60.849L284.364 61.035C284.364 61.035 285.1 61.3342 286.612 61.5364C287.453 61.6415 288.132 61.6657 288.577 61.6657C288.941 61.6657 289.143 61.6496 289.159 61.6496L289.143 61.4474H289.111Z" fill="white"/>
<path d="M287.596 67.9894C287.661 68.2966 287.467 68.5958 287.16 68.6524L284.435 69.2266C284.136 69.2832 283.836 69.0891 283.772 68.7899L283.262 66.3559C283.206 66.0891 283.351 65.8384 283.578 65.7252L283.497 65.3209C283.327 64.5042 283.853 63.7036 284.669 63.5338C285.486 63.364 286.286 63.8896 286.456 64.7063L286.537 65.1107C286.796 65.1107 287.022 65.2966 287.079 65.5554L287.588 67.9894H287.596Z" fill="white"/>
<path d="M284.806 64.1726C284.345 64.2696 284.046 64.7305 284.143 65.1914L284.224 65.5796L285.898 65.2319L285.817 64.8356C285.72 64.3747 285.267 64.0755 284.806 64.1726Z" fill="#273375"/>
</svg>
