<svg width="600" height="337" viewBox="0 0 600 337" fill="none" xmlns="http://www.w3.org/2000/svg">
<rect width="600" height="335.58" transform="translate(0 0.658203)" fill="#F9C5B8"/>
<path d="M450.85 163.511C450.85 140.114 431.88 121.144 408.482 121.144C385.085 121.144 197.759 132.472 184.914 134.607C161.844 138.452 146.245 160.285 150.09 183.367C153.268 202.459 168.757 216.42 187.073 218.494C184.744 225.056 183.98 232.273 185.205 239.623C189.001 262.414 210.337 277.892 233.092 274.58C239.629 273.84 276.915 271.196 314.516 268.831C316.105 276.121 319.647 283.095 325.154 288.905C333.486 297.699 344.694 302.138 355.914 302.138C366.369 302.138 376.849 298.293 385.036 290.53L424.554 253.099C437.144 241.176 441.195 222.776 434.779 206.656C433.748 204.072 432.462 201.658 430.995 199.378C442.918 191.882 450.838 178.625 450.838 163.499L450.85 163.511Z" fill="white"/>
<path d="M190.893 145.693H197.443L206.77 170.316H201.458L199.105 163.912H189.256L186.903 170.316H181.59L190.917 145.693H190.893ZM197.54 159.666L194.168 150.412L190.796 159.666H197.552H197.54ZM222.83 164.761L226.311 167.429C224.661 169.612 222.053 171.02 218.815 171.02C212.69 171.02 209.039 166.617 209.039 161.449C209.039 156.282 212.702 151.879 218.815 151.879C222.053 151.879 224.661 153.286 226.311 155.47L222.83 158.15C221.981 156.913 220.574 156.112 218.754 156.112C215.831 156.112 213.684 158.369 213.684 161.462C213.684 164.555 215.831 166.811 218.815 166.811C220.574 166.811 221.981 165.998 222.83 164.773V164.761ZM241.509 164.761L244.99 167.429C243.341 169.612 240.733 171.02 237.494 171.02C231.369 171.02 227.718 166.617 227.718 161.449C227.718 156.282 231.381 151.879 237.494 151.879C240.733 151.879 243.341 153.286 244.99 155.47L241.509 158.15C240.66 156.913 239.253 156.112 237.434 156.112C234.51 156.112 232.363 158.369 232.363 161.462C232.363 164.555 234.51 166.811 237.494 166.811C239.253 166.811 240.66 165.998 241.509 164.773V164.761ZM265.816 161.462C265.816 166.774 261.874 171.032 256.101 171.032C250.327 171.032 246.385 166.774 246.385 161.462C246.385 156.149 250.327 151.891 256.101 151.891C261.874 151.891 265.816 156.149 265.816 161.462ZM261.171 161.462C261.171 158.369 259.024 156.112 256.173 156.112C253.323 156.112 251.043 158.369 251.043 161.462C251.043 164.555 253.226 166.811 256.173 166.811C259.121 166.811 261.171 164.518 261.171 161.462ZM269.892 152.595H274.355V153.929C275.556 152.765 277.06 151.891 279.243 151.891C281.427 151.891 283.465 152.874 284.629 154.778C285.89 153.226 287.589 151.891 290.572 151.891C294.235 151.891 297.122 154.427 297.122 159.424V170.328H292.622V159.594C292.622 157.447 291.458 156.112 289.456 156.112C287.455 156.112 286.46 157.447 285.757 158.648C285.793 158.89 285.793 159.145 285.793 159.424V170.328H281.293V159.594C281.293 157.447 280.129 156.112 278.128 156.112C276.126 156.112 275.035 157.629 274.367 158.757V170.328H269.904V152.595H269.892ZM302.217 152.595H306.68V154.038C308.051 152.668 309.773 151.891 312.199 151.891C317.827 151.891 321.211 156.282 321.211 161.462C321.211 166.641 317.839 171.032 312.199 171.032C309.773 171.032 308.051 170.255 306.68 168.885V178.989H302.217V152.607V152.595ZM306.692 158.672V164.227C307.893 165.913 309.543 166.798 311.58 166.798C314.601 166.798 316.578 164.542 316.578 161.449C316.578 158.356 314.613 156.1 311.58 156.1C309.506 156.1 307.82 157.01 306.692 158.672ZM323.916 165.537C323.916 162.869 325.99 160.855 329.787 160.224L335.208 159.315V158.854C335.208 156.986 333.801 155.797 331.764 155.797C330.041 155.797 328.707 156.61 327.749 157.908L324.474 155.409C326.063 153.226 328.659 151.891 331.897 151.891C337.028 151.891 339.672 154.948 339.672 158.854V170.328H335.208V168.606C334.08 169.976 331.97 170.862 329.896 170.862C326.342 170.862 323.916 168.824 323.916 165.549V165.537ZM330.818 167.296C332.855 167.296 334.335 166.35 335.221 164.943V162.444L331 163.148C329.132 163.463 328.355 164.239 328.355 165.331C328.355 166.532 329.301 167.296 330.818 167.296ZM345.482 169.091C344.779 168.387 344.39 167.441 344.39 166.52C344.39 165.112 344.985 163.984 346.331 163.002C344.779 161.838 343.942 160.079 343.942 158.114C343.942 154.669 346.61 151.891 351.049 151.891C352.42 151.891 353.621 152.134 354.64 152.595H361.117V156.391H357.987C358.169 156.949 358.23 157.52 358.23 158.114C358.23 161.595 355.622 164.409 351.049 164.409C350.455 164.409 349.885 164.373 349.363 164.263C348.975 164.615 348.769 165.003 348.769 165.391C348.769 166.095 349.157 166.447 349.97 166.447H354.434C358.897 166.447 361.335 168.836 361.335 172.148C361.335 176.09 357.575 179.11 352.044 179.11C346.513 179.11 343.032 177.145 343.032 173.409C343.032 171.65 343.917 170.243 345.494 169.079L345.482 169.091ZM351.995 175.532C355.234 175.532 356.884 174.331 356.884 172.572C356.884 171.238 356.071 170.28 353.924 170.28H348.442C347.774 170.91 347.241 171.687 347.241 172.778C347.241 174.464 348.854 175.52 351.995 175.52V175.532ZM354.179 158.114C354.179 156.355 352.978 155.227 351.122 155.227C349.266 155.227 348.029 156.391 348.029 158.114C348.029 159.836 349.194 161.037 351.122 161.037C353.051 161.037 354.179 159.873 354.179 158.114ZM364.404 152.595H368.867V154.002C370.105 152.801 371.754 151.891 374.107 151.891C377.94 151.891 381.009 154.524 381.009 159.776V170.328H376.509V159.945C376.509 157.592 375.175 156.112 372.991 156.112C370.808 156.112 369.547 157.629 368.88 158.757V170.328H364.416V152.595H364.404ZM394.667 171.032C388.372 171.032 384.818 166.629 384.818 161.462C384.818 156.294 388.129 151.891 393.927 151.891C398.851 151.891 402.09 155.227 402.09 159.873C402.09 160.855 401.944 161.777 401.811 162.371H389.39C389.815 165.683 391.853 167.017 394.63 167.017C396.571 167.017 398.257 166.168 399.203 164.906L402.405 167.441C400.756 169.661 398.002 171.032 394.667 171.032ZM389.524 159.133H397.687C397.614 157.338 396.316 155.542 393.818 155.542C391.525 155.542 390.021 156.804 389.524 159.133ZM406.444 152.595H410.908V154.354C412.072 153.153 413.576 152.243 415.59 152.243C416.184 152.243 416.718 152.352 417.142 152.486V156.877C416.584 156.731 415.978 156.634 415.177 156.634C412.994 156.634 411.587 157.835 410.92 158.963V170.328H406.456V152.595H406.444Z" fill="#273375"/>
<path d="M214.496 182.737H220.088V209.118H214.496V182.737ZM223.035 204.121C223.035 201.416 225.109 199.342 228.979 198.699L233.976 197.85C233.939 196.515 232.775 195.497 231.125 195.497C229.646 195.497 228.554 196.2 227.754 197.365L223.678 194.272C225.291 192.015 228.008 190.681 231.307 190.681C236.935 190.681 239.543 194.053 239.543 197.922V209.106H233.988V207.772C233.006 208.863 230.992 209.639 229.136 209.639C225.546 209.639 223.047 207.565 223.047 204.121H223.035ZM230.361 205.321C232.156 205.321 233.285 204.472 233.988 203.417V201.658L230.507 202.253C229.063 202.495 228.566 203.029 228.566 203.842C228.566 204.751 229.27 205.321 230.361 205.321ZM264.093 202.968L268.46 206.28C266.81 208.463 264.166 209.834 260.891 209.834C254.632 209.834 251.042 205.431 251.042 200.263C251.042 195.096 254.632 190.693 260.891 190.693C264.166 190.693 266.798 192.064 268.46 194.247L264.093 197.559C263.462 196.649 262.371 195.945 260.818 195.945C258.526 195.945 256.84 197.668 256.84 200.276C256.84 202.883 258.526 204.606 260.915 204.606C262.322 204.606 263.45 203.902 264.081 202.993L264.093 202.968ZM270.485 191.385H276.077V192.828C277.169 191.809 278.539 191.033 280.371 191.033C281.001 191.033 281.572 191.142 281.984 191.276V196.794C281.39 196.649 280.723 196.552 279.801 196.552C277.763 196.552 276.429 197.753 276.077 198.347V209.118H270.485V191.385ZM292.694 209.821C286.181 209.821 282.736 205.418 282.736 200.251C282.736 195.084 285.938 190.681 291.954 190.681C296.988 190.681 300.287 194.017 300.287 198.844C300.287 200.045 300.105 201.161 299.935 201.804H288.461C288.995 204.193 290.535 204.824 292.646 204.824C294.332 204.824 295.811 204.157 296.624 203.138L300.566 206.268C298.88 208.487 296.103 209.821 292.682 209.821H292.694ZM288.497 197.862H294.865C294.793 196.661 293.883 195.193 291.809 195.193C290.014 195.193 288.922 196.067 288.497 197.862ZM289.771 188.571L293.398 182.737H299.377L295.084 188.571H289.771ZM302.082 204.121C302.082 201.416 304.156 199.342 308.026 198.699L313.023 197.85C312.987 196.515 311.822 195.497 310.173 195.497C308.693 195.497 307.601 196.2 306.801 197.365L302.725 194.272C304.338 192.015 307.055 190.681 310.355 190.681C315.983 190.681 318.59 194.053 318.59 197.922V209.106H313.035V207.772C312.053 208.863 310.039 209.639 308.183 209.639C304.593 209.639 302.094 207.565 302.094 204.121H302.082ZM309.396 205.321C311.192 205.321 312.32 204.472 313.023 203.417V201.658L309.542 202.253C308.099 202.495 307.601 203.029 307.601 203.842C307.601 204.751 308.305 205.321 309.396 205.321ZM323.539 196.382H320.228V191.385H323.539V186.945H329.167V191.385H334.019V196.382H329.167V202.228C329.167 203.635 329.907 204.412 331.387 204.412C332.685 204.412 333.534 204.23 334.055 204.024V208.839C333.109 209.263 332.018 209.47 330.356 209.47C325.541 209.47 323.527 206.583 323.527 202.216V196.37L323.539 196.382ZM336.202 185.902C336.202 183.998 337.816 182.385 339.756 182.385C341.697 182.385 343.237 183.998 343.237 185.902C343.237 187.807 341.624 189.456 339.756 189.456C337.888 189.456 336.202 187.807 336.202 185.902ZM336.906 191.385H342.497V209.118H336.906V191.385ZM364.937 200.251C364.937 205.673 360.958 209.821 355.161 209.821C349.363 209.821 345.348 205.673 345.348 200.251C345.348 194.83 349.326 190.681 355.161 190.681C360.995 190.681 364.937 194.83 364.937 200.251ZM359.163 200.251C359.163 197.571 357.441 195.921 355.185 195.921C352.929 195.921 351.134 197.607 351.134 200.251C351.134 202.896 352.856 204.582 355.185 204.582C357.514 204.582 359.163 202.859 359.163 200.251ZM367.751 191.385H373.342V192.367C374.507 191.385 375.987 190.681 378.061 190.681C381.821 190.681 384.926 193.313 384.926 198.699V209.118H379.298V198.953C379.298 197.158 378.352 195.921 376.557 195.921C374.592 195.921 373.706 197.474 373.355 198.068V209.118H367.763V191.385H367.751ZM247.731 229.483C249.914 229.483 251.43 230.077 252.619 231.133V221.526H258.247V247.908H252.619V246.962C251.418 248.017 249.914 248.611 247.731 248.611C242.103 248.611 238.791 244.208 238.791 239.041C238.791 233.874 242.103 229.471 247.731 229.471V229.483ZM248.543 243.383C250.266 243.383 251.6 242.68 252.619 241.346V236.773C251.6 235.439 250.266 234.735 248.543 234.735C246.081 234.735 244.601 236.458 244.601 239.065C244.601 241.673 246.081 243.396 248.543 243.396V243.383ZM271.723 248.623C265.209 248.623 261.764 244.22 261.764 239.053C261.764 233.886 264.966 229.483 270.983 229.483C276.016 229.483 279.315 232.819 279.315 237.646C279.315 238.847 279.134 239.963 278.964 240.606H267.489C268.023 242.995 269.563 243.626 271.674 243.626C273.36 243.626 274.84 242.959 275.652 241.94L279.594 245.069C277.908 247.289 275.131 248.623 271.71 248.623H271.723ZM267.538 236.664H273.906C273.833 235.463 272.923 233.995 270.849 233.995C269.054 233.995 267.962 234.869 267.538 236.664ZM291.384 256.714C289.735 256.714 288.643 256.507 287.721 256.083V251.268C288.255 251.474 289.092 251.656 290.39 251.656C291.869 251.656 292.609 250.879 292.609 249.545V230.199H298.201V249.545C298.201 253.875 296.236 256.726 291.372 256.726L291.384 256.714ZM291.809 224.704C291.809 222.8 293.422 221.187 295.326 221.187C297.231 221.187 298.844 222.8 298.844 224.704C298.844 226.608 297.231 228.258 295.326 228.258C293.422 228.258 291.809 226.608 291.809 224.704ZM311.689 248.623C305.175 248.623 301.731 244.22 301.731 239.053C301.731 233.886 304.933 229.483 310.949 229.483C315.983 229.483 319.282 232.819 319.282 237.646C319.282 238.847 319.1 239.963 318.93 240.606H307.456C307.989 242.995 309.53 243.626 311.64 243.626C313.326 243.626 314.806 242.959 315.619 241.94L319.561 245.069C317.875 247.289 315.097 248.623 311.677 248.623H311.689ZM307.492 236.664H313.86C313.787 235.463 312.877 233.995 310.803 233.995C309.008 233.995 307.917 234.869 307.492 236.664ZM334.128 230.187H339.756V239.902C339.756 245.215 336.59 248.623 331.132 248.623C325.674 248.623 322.545 245.215 322.545 239.902V230.187H328.173V240.218C328.173 242.086 329.082 243.383 331.169 243.383C333.255 243.383 334.128 242.086 334.128 240.218V230.187ZM341.648 247.92L347.701 238.847L341.927 230.187H348.295L351.218 234.796L354.214 230.187H360.546L354.772 238.871L360.789 247.92H354.457L351.218 242.922L348.053 247.92H341.648Z" fill="#E30613"/>
<path d="M165.791 70.1767L170.303 73.6053C168.225 76.3627 164.893 78.1498 160.793 78.1498C153.653 78.1498 148.785 72.7077 148.785 66.3034C148.785 59.8991 153.653 54.457 160.793 54.457C164.893 54.457 168.225 56.2522 170.303 58.9692L165.791 62.4301C164.731 60.8937 163.033 59.802 160.793 59.802C157.203 59.802 154.648 62.5595 154.648 66.3034C154.648 70.0473 157.211 72.8047 160.793 72.8047C163.001 72.8047 164.731 71.7131 165.791 70.1767ZM185.481 68.422V77.519H179.78V68.422L170.432 55.1039H177.378L182.658 62.8506L187.939 55.1039H194.853L185.472 68.422H185.481ZM197.521 55.0958H204.92C209.885 55.0958 212.893 57.4004 212.893 61.3708C212.893 63.0689 212.092 64.5729 210.685 65.6322C212.893 66.7562 214.179 68.5756 214.179 70.7913C214.179 75.0204 210.815 77.519 205.373 77.519H197.529V55.0958H197.521ZM203.222 59.802V63.546H205.082C206.327 63.546 207.039 62.8748 207.039 61.6215C207.039 60.4651 206.335 59.794 205.082 59.794H203.222V59.802ZM203.222 68.2603V72.8047H205.72C207.322 72.8047 208.316 71.9395 208.316 70.5325C208.316 69.1255 207.322 68.2603 205.72 68.2603H203.222ZM218.78 55.0958H232.615V59.802H224.481V63.7401H231.33V68.4462H224.481V72.8047H232.615V77.5109H218.78V55.0958ZM237.928 55.0958H245.456C250.704 55.0958 253.939 57.6915 253.939 62.0743C253.939 64.7993 252.661 66.8452 250.413 68.0015L257.262 77.5109H250.599L244.963 69.0285H243.621V77.5109H237.92V55.0958H237.928ZM243.629 59.802V64.3142H245.804C247.243 64.3142 248.076 63.3843 248.076 62.0096C248.076 60.732 247.243 59.802 245.804 59.802H243.629Z" fill="#253473"/>
<path d="M322.957 55.0957H334.997V57.659H325.965V64.8316H333.712V67.3625H325.965V74.9475H334.997V77.5108H322.957V55.0957ZM340.989 55.0957H344.927L357.607 73.8235V55.0957H360.615V77.5108H356.677L343.997 58.783V77.5108H340.989V55.0957Z" fill="#253473"/>
<path d="M374.434 83.341C373.601 83.341 372.93 83.341 372.453 83.244V78.2143C372.744 78.279 373.092 78.3113 373.545 78.3113C375.469 78.3113 376.205 77.4138 376.205 75.748V55.0957H381.906V75.4245C381.906 80.5189 379.634 83.3329 374.442 83.3329L374.434 83.341ZM387.954 55.0957H401.79V59.8019H393.655V63.7399H400.504V68.4461H393.655V72.8046H401.79V77.5108H387.954V55.0957ZM419.329 55.0957H425.03V68.5108C425.03 74.4704 421.569 78.1496 415.65 78.1496C409.731 78.1496 406.302 74.4704 406.302 68.5108V55.0957H412.003V69.0526C412.003 71.3572 413.313 72.7965 415.682 72.7965C418.052 72.7965 419.329 71.3572 419.329 69.0526V55.0957ZM427.787 77.5108L435.502 65.9879L428.232 55.1038H434.992L439.504 61.7992L443.984 55.1038H450.768L443.467 65.9879L451.181 77.5108H444.429L439.496 70.1766L434.564 77.5108H427.779H427.787Z" fill="#E20917"/>
<path d="M298.935 55.37L310.086 65.1705C309.908 54.0762 300.86 45.1328 289.725 45.1328C278.59 45.1328 269.355 54.2541 269.355 65.5102C269.355 76.7662 278.477 85.8794 289.725 85.8794C290.283 85.8794 290.833 85.8552 291.374 85.8067L280.547 76.2972L298.935 55.37Z" fill="#E7B2A9"/>
<path d="M310.098 65.5103C310.098 65.3971 310.098 65.2839 310.09 65.1707L298.939 55.3701L280.551 76.2973L291.378 85.8068C301.858 84.9658 310.098 76.2003 310.098 65.5103Z" fill="#DA847B"/>
<path d="M278.976 60.4318L297.647 55.1191L299.385 56.3725L300.558 60.0194L302.555 69.2943L301.423 71.7849L282.323 76.2L280.755 74.8253L277.391 61.6043L278.976 60.4318Z" fill="white"/>
<path d="M302.807 70.4592C303.001 69.5374 302.985 68.3972 302.677 66.9821C302.613 66.6829 302.548 66.3756 302.483 66.0603C302.451 65.9228 302.427 65.7854 302.394 65.6398C302.321 65.284 302.241 64.8959 302.152 64.4835L302.127 64.3541C302.079 64.1115 302.022 63.8608 301.966 63.5859V63.5374C301.796 62.7773 301.61 61.9201 301.392 60.9093C301.359 60.7557 301.327 60.594 301.286 60.4323C301.262 60.311 301.23 60.1816 301.206 60.0441L301.173 59.9147L301.125 59.7126C300.583 57.4565 299.734 56.0495 298.772 55.1924L298.747 55.16C298.666 55.0953 298.594 55.0306 298.513 54.9659L298.375 54.8608C298.157 54.7072 297.939 54.5697 297.72 54.4646C297.591 54.3918 297.454 54.3352 297.324 54.2786C297.09 54.1897 296.855 54.1169 296.621 54.0603C296.548 54.0441 296.475 54.0279 296.394 54.0199C296.216 53.9875 296.047 53.9632 295.877 53.9471C295.117 53.8824 294.413 53.9632 293.863 54.0603H293.839C292.683 54.2705 288.842 55.1762 285.381 56.0738C283.982 56.4376 282.648 56.7934 281.58 57.1007H281.564C281.338 57.1654 281.127 57.2301 280.933 57.2867L280.885 57.3029C280.796 57.3271 280.707 57.3595 280.626 57.3837L280.569 57.3999C280.489 57.4242 280.416 57.4484 280.343 57.4646L280.303 57.4808L280.1 57.5455L280.044 57.5616L279.866 57.6263L279.817 57.6425L279.672 57.6991H279.656C277.4 58.5482 276.049 61.346 276.599 64.2732C276.72 64.912 276.866 65.6236 277.028 66.3756L277.052 66.4727C277.157 66.9498 277.278 67.4511 277.4 67.9525C277.424 68.0576 277.448 68.1627 277.48 68.2678C277.537 68.4942 277.602 68.7287 277.666 68.9632C277.966 70.0792 278.313 71.2274 278.718 72.3514C278.831 72.6748 278.96 72.9983 279.082 73.3217C279.13 73.4511 279.187 73.5805 279.243 73.7099C279.454 74.2193 279.672 74.7126 279.914 75.1897C280.262 75.8851 280.707 76.4026 281.216 76.7746C281.346 76.8716 281.475 76.9525 281.613 77.0252L281.815 77.1304L282.001 77.2112C283.982 78.0441 286.642 77.3649 288.955 76.8231C289.691 76.6533 290.556 76.443 291.478 76.2004C291.575 76.1762 291.664 76.1519 291.761 76.1277C294.171 75.4889 296.912 74.7045 298.715 74.1142C298.861 74.0738 298.941 74.0495 298.949 74.0414C299.346 73.9039 299.693 73.7746 299.985 73.6614C301.303 73.1438 302.443 72.2058 302.815 70.4592H302.807ZM299.071 61.5482C299.807 61.4107 300.599 62.2355 300.858 63.3918C301.109 64.5401 300.737 65.6236 300.009 65.8096C299.265 65.9956 298.432 65.1789 298.173 63.9821C297.906 62.7773 298.319 61.6856 299.079 61.5482H299.071ZM297.979 56.5751C298.731 56.4942 299.532 57.3595 299.782 58.5158C300.033 59.6721 299.653 60.7072 298.909 60.8366C298.149 60.9659 297.308 60.1007 297.049 58.904C296.782 57.6991 297.211 56.656 297.979 56.5751ZM294.187 56.9875C295.028 56.8986 295.909 57.8123 296.176 59.0252C296.443 60.2463 296.006 61.346 295.173 61.4916C294.324 61.6371 293.402 60.7314 293.119 59.4619C292.844 58.1924 293.33 57.0845 294.187 56.9875ZM296.321 66.7395C295.489 66.9498 294.575 66.1007 294.292 64.8312C294.017 63.5616 294.486 62.3972 295.335 62.2436C296.16 62.0899 297.025 62.9552 297.3 64.1681C297.567 65.3891 297.138 66.5374 296.321 66.7395ZM297.47 71.9552C296.653 72.2301 295.747 71.4296 295.472 70.16C295.197 68.8905 295.658 67.6775 296.483 67.4592C297.292 67.2409 298.157 68.0576 298.424 69.2786C298.691 70.4916 298.27 71.6883 297.47 71.9552ZM301.084 70.7422C300.348 70.9929 299.532 70.2166 299.265 69.0199C298.998 67.815 299.402 66.6829 300.146 66.4889C300.874 66.2948 301.658 67.0711 301.909 68.2274C302.16 69.3756 301.796 70.5077 301.076 70.7422H301.084Z" fill="#E20613"/>
<path d="M289.109 62.1056C289.109 62.1056 288.131 62.1865 286.61 61.9924C285.115 61.7983 284.419 61.5072 284.411 61.5072H284.395L284.371 61.4911L284.298 61.4749H284.282L284.201 61.4668H284.104L284.079 61.483L284.015 61.5072L283.982 61.5234L283.926 61.5477L283.893 61.5719L283.845 61.6123H283.837C283.837 61.6123 283.311 62.1703 282.017 62.9466C280.699 63.739 279.778 64.0544 279.77 64.0544C279.527 64.1353 279.381 64.3859 279.438 64.6366C279.454 64.7175 279.858 66.642 280.885 68.615C282.284 71.3159 284.177 72.7876 286.352 72.8765H286.473L286.578 72.8361H286.594C288.551 71.8819 289.699 69.7795 289.902 66.739C290.055 64.5234 289.659 62.5989 289.643 62.518C289.586 62.2673 289.36 62.0894 289.101 62.1137L289.109 62.1056Z" fill="#273375"/>
<path d="M289.111 62.1056L289.095 61.9035C289.095 61.9035 288.901 61.9196 288.553 61.9196C288.124 61.9196 287.461 61.8954 286.636 61.7903C285.901 61.6932 285.359 61.5719 285.003 61.4749C284.825 61.4345 284.696 61.394 284.615 61.3617L284.518 61.3293L284.494 61.3132H284.453L284.429 61.297L284.356 61.2727H284.308V61.2646H284.211H284.178H284.089L284.073 61.2727L284.033 61.2889L283.96 61.3132H283.944L283.903 61.3374L283.847 61.3698H283.83L283.79 61.4102L283.741 61.4587H283.733V61.4749L283.636 61.5719C283.434 61.7579 282.909 62.1946 281.954 62.7768C281.308 63.1649 280.75 63.4318 280.361 63.6097C280.167 63.6986 280.014 63.7633 279.909 63.8037L279.787 63.8442L279.755 63.8603H279.747C279.456 63.9574 279.262 64.2323 279.262 64.5315L279.278 64.677C279.294 64.766 279.706 66.7067 280.75 68.704C282.173 71.4452 284.122 72.9897 286.394 73.0787H286.547L286.515 72.8765V73.0787H286.564L286.572 73.0706L286.685 73.0301H286.701L286.717 73.0221H286.725C288.771 72.0275 289.944 69.828 290.154 66.7552C290.178 66.3913 290.186 66.0436 290.186 65.704C290.186 63.9331 289.903 62.5504 289.887 62.4695C289.814 62.138 289.523 61.9115 289.192 61.9115H289.127L289.143 62.1137L289.159 62.3159H289.184C289.321 62.3159 289.45 62.4129 289.483 62.5584C289.491 62.6151 289.774 63.9735 289.774 65.704C289.774 66.0355 289.766 66.3752 289.741 66.7229C289.539 69.7229 288.423 71.7444 286.547 72.6501L286.636 72.8361L286.572 72.642H286.556L286.45 72.6824L286.515 72.8765L286.467 72.6744L286.507 72.8765V72.6663H286.475H286.418H286.402H286.378V72.8684L286.394 72.6663C284.316 72.5854 282.488 71.1784 281.097 68.5099C280.087 66.5611 279.682 64.6528 279.666 64.5881V64.5234C279.666 64.394 279.739 64.2808 279.868 64.2404C279.868 64.2404 280.822 63.9169 282.157 63.1164C283.467 62.332 284 61.7741 284.025 61.7579L283.879 61.6124L284.008 61.766H284.016L284.057 61.7256L284.073 61.7094L284.113 61.6932H284.122L284.17 61.669H284.235H284.243L284.227 61.4668L284.211 61.669H284.299L284.324 61.4749L284.275 61.669L284.34 61.6851H284.364L284.38 61.7013L284.445 61.5072L284.364 61.6932C284.364 61.6932 285.1 61.9924 286.612 62.1946C287.453 62.2997 288.132 62.3239 288.577 62.3239C288.941 62.3239 289.143 62.3078 289.159 62.3078L289.143 62.1056H289.111Z" fill="white"/>
<path d="M287.596 68.6476C287.661 68.9548 287.467 69.254 287.16 69.3106L284.435 69.8848C284.136 69.9414 283.836 69.7473 283.772 69.4481L283.262 67.0141C283.206 66.7473 283.351 66.4966 283.578 66.3834L283.497 65.9791C283.327 65.1624 283.853 64.3618 284.669 64.192C285.486 64.0222 286.286 64.5478 286.456 65.3645L286.537 65.7689C286.796 65.7689 287.022 65.9548 287.079 66.2136L287.588 68.6476H287.596Z" fill="white"/>
<path d="M284.806 64.8308C284.345 64.9278 284.046 65.3887 284.143 65.8496L284.224 66.2378L285.898 65.8901L285.817 65.4939C285.72 65.0329 285.267 64.7337 284.806 64.8308Z" fill="#273375"/>
</svg>
