<svg width="588" height="330" viewBox="0 0 588 330" fill="none" xmlns="http://www.w3.org/2000/svg">
<path fill-rule="evenodd" clip-rule="evenodd" d="M333.861 2.55322C411.269 7.34368 483.328 50.9753 504.627 125.55C524.043 193.531 475.883 256.26 417.857 296.649C364.14 334.039 297.116 342.445 240.71 309.251C157.297 260.164 54.615 192.05 82.7423 99.4412C111.57 4.52814 234.858 -3.57372 333.861 2.55322Z" fill="#F3F6FE"/>
<path d="M542.373 314.87H46.0847C45.6081 314.87 45.2129 314.474 45.2129 313.998C45.2129 313.521 45.6081 313.126 46.0847 313.126H542.385C542.861 313.126 543.256 313.521 543.256 313.998C543.256 314.474 542.861 314.87 542.385 314.87H542.373Z" fill="#292929"/>
<path d="M369.901 286.914V292.715C369.901 308.174 375.166 322.96 375.166 322.96H379.188V328.365H166.566C165.729 328.365 164.986 327.83 164.718 327.028C163.3 322.657 159.034 308.197 159.034 293.191V286.449C159.034 271.443 163.3 256.983 164.718 252.613C164.974 251.811 165.718 251.276 166.566 251.276H379.188V256.681H375.166C375.166 256.681 369.901 271.478 369.901 286.926V286.914Z" fill="white"/>
<path d="M379.188 329.237H166.566C165.346 329.237 164.265 328.458 163.893 327.296C162.544 323.134 158.174 308.384 158.174 293.192V286.45C158.174 271.246 162.556 256.495 163.893 252.334C164.265 251.172 165.346 250.393 166.566 250.393H379.188C379.665 250.393 380.06 250.788 380.06 251.265V256.67C380.06 257.146 379.665 257.541 379.188 257.541H375.794C374.841 260.413 370.772 273.501 370.772 286.915V292.715C370.772 306.14 374.841 319.217 375.794 322.088H379.188C379.665 322.088 380.06 322.483 380.06 322.96V328.365C380.06 328.842 379.665 329.237 379.188 329.237ZM166.566 252.136C166.101 252.136 165.694 252.427 165.555 252.869C164.23 256.96 159.917 271.49 159.917 286.438V293.18C159.917 308.116 164.23 322.646 165.555 326.749C165.694 327.191 166.101 327.482 166.566 327.482H378.316V323.82H375.166C374.794 323.82 374.469 323.588 374.341 323.239C374.294 323.088 369.029 308.128 369.029 292.703V286.903C369.029 271.478 374.294 256.507 374.341 256.367C374.469 256.019 374.794 255.786 375.166 255.786H378.316V252.125H166.566V252.136Z" fill="#292929"/>
<path d="M493.066 286.914V292.715C493.066 308.174 498.331 322.96 498.331 322.96H502.353V328.365H350.454C350.012 328.365 349.628 328.086 349.489 327.679C348.361 324.308 343.596 309.058 343.596 293.191V286.449C343.596 270.583 348.361 255.333 349.489 251.962C349.628 251.543 350.012 251.276 350.454 251.276H502.353V256.681H498.331C498.331 256.681 493.066 271.478 493.066 286.926V286.914Z" fill="white"/>
<path d="M502.353 329.237H350.453C349.64 329.237 348.919 328.725 348.663 327.947C347.675 324.971 342.724 309.302 342.724 293.192V286.45C342.724 270.328 347.675 254.659 348.663 251.683C348.919 250.916 349.64 250.393 350.453 250.393H502.353C502.829 250.393 503.225 250.788 503.225 251.265V256.67C503.225 257.146 502.829 257.541 502.353 257.541H498.959C498.006 260.413 493.937 273.501 493.937 286.915V292.715C493.937 306.14 498.006 319.217 498.959 322.088H502.353C502.829 322.088 503.225 322.483 503.225 322.96V328.365C503.225 328.842 502.829 329.237 502.353 329.237ZM350.442 252.136C350.442 252.136 350.326 252.171 350.302 252.229C349.326 255.159 344.456 270.583 344.456 286.45V293.192C344.456 309.035 349.326 324.471 350.302 327.4C350.326 327.458 350.372 327.493 350.442 327.493H501.469V323.832H498.319C497.947 323.832 497.622 323.599 497.494 323.251C497.448 323.099 492.182 308.14 492.182 292.715V286.915C492.182 271.49 497.448 256.519 497.494 256.379C497.622 256.03 497.947 255.798 498.319 255.798H501.469V252.136H350.442Z" fill="#292929"/>
<path d="M493.066 292.716C493.066 308.176 498.332 322.961 498.332 322.961H357.533C357.533 322.961 352.268 308.164 352.268 292.716V286.916C352.268 271.457 357.533 256.671 357.533 256.671H498.332C498.332 256.671 493.066 271.468 493.066 286.916V292.716Z" fill="white"/>
<path d="M498.333 323.833H357.534C357.162 323.833 356.836 323.601 356.709 323.252C356.662 323.101 351.396 308.141 351.396 292.717V286.916C351.396 271.492 356.662 256.52 356.709 256.381C356.836 256.032 357.162 255.8 357.534 255.8H498.333C498.611 255.8 498.879 255.939 499.042 256.172C499.204 256.404 499.251 256.695 499.146 256.962C499.1 257.113 493.939 271.794 493.939 286.916V292.717C493.939 307.839 499.1 322.532 499.146 322.671C499.239 322.938 499.204 323.229 499.042 323.461C498.879 323.694 498.611 323.833 498.333 323.833ZM358.15 322.09H497.112C495.891 318.277 492.184 305.654 492.184 292.717V286.916C492.184 273.968 495.891 261.356 497.112 257.543H358.15C357.197 260.414 353.128 273.503 353.128 286.916V292.717C353.128 306.142 357.197 319.219 358.15 322.09Z" fill="#292929"/>
<path d="M318.628 328.354H200.415C199.985 328.354 199.589 328.086 199.45 327.668C198.334 324.297 193.557 309.047 193.557 293.192V286.438C193.557 270.572 198.322 255.322 199.45 251.951C199.589 251.532 199.985 251.265 200.415 251.265H318.628C318.198 251.265 317.803 251.532 317.664 251.951C316.548 255.322 311.77 270.572 311.77 286.438V293.192C311.77 309.047 316.536 324.297 317.664 327.668C317.803 328.086 318.198 328.354 318.628 328.354Z" fill="white"/>
<path d="M318.629 329.226H200.415C199.602 329.226 198.881 328.714 198.625 327.947C197.23 323.751 192.686 308.861 192.686 293.18V286.427C192.686 270.746 197.23 255.856 198.614 251.66C198.881 250.893 199.602 250.382 200.415 250.382H318.629C319.106 250.382 319.501 250.777 319.501 251.253C319.501 251.73 319.106 252.125 318.629 252.125C318.559 252.125 318.501 252.16 318.49 252.218C317.513 255.147 312.643 270.595 312.643 286.427V293.18C312.643 309 317.513 324.448 318.49 327.389C318.501 327.436 318.571 327.482 318.629 327.482C319.106 327.482 319.501 327.877 319.501 328.354C319.501 328.83 319.106 329.226 318.629 329.226ZM200.404 252.137C200.334 252.137 200.276 252.172 200.264 252.23C198.893 256.345 194.429 271.014 194.429 286.439V293.192C194.429 309 199.299 324.46 200.276 327.401C200.276 327.447 200.346 327.494 200.415 327.494H316.688C315.142 322.751 310.911 308.349 310.911 293.204V286.45C310.911 271.281 315.154 256.879 316.688 252.148H200.404V252.137Z" fill="#292929"/>
<path d="M484.453 266.759H371.947C371.47 266.759 371.075 266.364 371.075 265.888C371.075 265.411 371.47 265.016 371.947 265.016H484.453C484.93 265.016 485.325 265.411 485.325 265.888C485.325 266.364 484.93 266.759 484.453 266.759Z" fill="#292929"/>
<path d="M494.054 275.432H379.2C378.723 275.432 378.328 275.037 378.328 274.56C378.328 274.083 378.723 273.688 379.2 273.688H494.054C494.531 273.688 494.926 274.083 494.926 274.56C494.926 275.037 494.531 275.432 494.054 275.432Z" fill="#292929"/>
<path d="M479.222 285.682H366.716C366.239 285.682 365.844 285.287 365.844 284.81C365.844 284.334 366.239 283.938 366.716 283.938H479.222C479.699 283.938 480.094 284.334 480.094 284.81C480.094 285.287 479.699 285.682 479.222 285.682Z" fill="#292929"/>
<path d="M491.694 297.517H379.187C378.711 297.517 378.315 297.122 378.315 296.645C378.315 296.169 378.711 295.773 379.187 295.773H491.694C492.17 295.773 492.565 296.169 492.565 296.645C492.565 297.122 492.17 297.517 491.694 297.517Z" fill="#292929"/>
<path d="M362.659 209.815V215.616C362.659 231.075 367.924 245.861 367.924 245.861H371.946V251.266H159.324C158.487 251.266 157.743 250.731 157.476 249.929C156.058 245.559 151.792 231.099 151.792 216.092V209.351C151.792 194.344 156.058 179.884 157.476 175.514C157.732 174.712 158.476 174.177 159.324 174.177H371.946V179.582H367.924C367.924 179.582 362.659 194.379 362.659 209.827V209.815Z" fill="white"/>
<path d="M371.946 252.138H159.324C158.104 252.138 157.023 251.359 156.651 250.197C155.302 246.035 150.932 231.297 150.932 216.093V209.351C150.932 194.147 155.314 179.396 156.651 175.235C157.023 174.073 158.104 173.294 159.324 173.294H371.946C372.422 173.294 372.818 173.689 372.818 174.166V179.571C372.818 180.047 372.422 180.443 371.946 180.443H368.552C367.599 183.314 363.53 196.402 363.53 209.816V215.616C363.53 229.042 367.599 242.118 368.552 244.989H371.946C372.422 244.989 372.818 245.385 372.818 245.861V251.266C372.818 251.743 372.422 252.138 371.946 252.138ZM159.312 175.038C158.847 175.038 158.441 175.328 158.301 175.77C156.976 179.873 152.664 194.403 152.664 209.339V216.081C152.664 231.018 156.976 245.547 158.301 249.65C158.441 250.092 158.847 250.383 159.312 250.383H371.062V246.721H367.912C367.54 246.721 367.215 246.489 367.087 246.14C367.041 245.989 361.775 231.029 361.775 215.604V209.804C361.775 194.379 367.041 179.408 367.087 179.269C367.215 178.92 367.54 178.687 367.912 178.687H371.062V175.026H159.312V175.038Z" fill="#292929"/>
<path d="M485.812 209.815V215.616C485.812 231.075 491.077 245.861 491.077 245.861H495.099V251.266H343.2C342.758 251.266 342.375 250.987 342.235 250.58C341.108 247.209 336.342 231.959 336.342 216.092V209.351C336.342 193.484 341.108 178.234 342.235 174.863C342.375 174.444 342.758 174.177 343.2 174.177H495.099V179.582H491.077C491.077 179.582 485.812 194.379 485.812 209.827V209.815Z" fill="white"/>
<path d="M495.1 252.138H343.2C342.387 252.138 341.666 251.627 341.41 250.848C340.422 247.872 335.471 232.203 335.471 216.093V209.351C335.471 193.229 340.422 177.56 341.41 174.584C341.666 173.817 342.387 173.294 343.2 173.294H495.1C495.576 173.294 495.972 173.689 495.972 174.166V179.571C495.972 180.047 495.576 180.443 495.1 180.443H491.706C490.753 183.314 486.684 196.402 486.684 209.816V215.616C486.684 229.042 490.753 242.118 491.706 244.989H495.1C495.576 244.989 495.972 245.385 495.972 245.861V251.266C495.972 251.743 495.576 252.138 495.1 252.138ZM343.2 175.038C343.2 175.038 343.084 175.072 343.073 175.131C342.096 178.06 337.226 193.496 337.226 209.351V216.093C337.226 231.936 342.096 247.372 343.073 250.301C343.096 250.36 343.142 250.394 343.2 250.394H494.228V246.733H491.078C490.706 246.733 490.381 246.5 490.253 246.152C490.206 246.001 484.941 231.041 484.941 215.616V209.816C484.941 194.391 490.206 179.42 490.253 179.28C490.381 178.931 490.706 178.699 491.078 178.699H494.228V175.038H343.2Z" fill="#292929"/>
<path d="M320.464 251.266H295.066C294.636 251.266 294.241 250.998 294.101 250.58C292.985 247.209 288.208 231.959 288.208 216.104V209.351C288.208 193.484 292.974 178.234 294.101 174.863C294.241 174.444 294.636 174.177 295.066 174.177H320.464C320.034 174.177 319.639 174.444 319.499 174.863C318.383 178.234 313.606 193.484 313.606 209.351V216.104C313.606 231.959 318.372 247.209 319.499 250.58C319.639 250.998 320.034 251.266 320.464 251.266Z" fill="white"/>
<path d="M320.464 252.138H295.066C294.252 252.138 293.531 251.627 293.276 250.859C291.881 246.663 287.336 231.785 287.336 216.093V209.339C287.336 193.647 291.881 178.757 293.264 174.573C293.531 173.805 294.252 173.294 295.054 173.294H320.452C320.929 173.294 321.324 173.689 321.324 174.166C321.324 174.642 320.929 175.038 320.452 175.038C320.382 175.038 320.324 175.072 320.313 175.131C318.941 179.245 314.477 193.914 314.477 209.339V216.093C314.477 231.506 318.953 246.175 320.324 250.301C320.336 250.348 320.394 250.394 320.464 250.394C320.94 250.394 321.335 250.79 321.335 251.266C321.335 251.743 320.94 252.138 320.464 252.138ZM295.054 175.049C294.984 175.049 294.926 175.084 294.915 175.142C293.938 178.071 289.08 193.519 289.08 209.351V216.104C289.08 231.924 293.95 247.372 294.926 250.313C294.926 250.36 294.996 250.406 295.066 250.406H318.523C316.977 245.652 312.745 231.25 312.745 216.116V209.362C312.745 194.217 316.988 179.792 318.523 175.061H295.054V175.049Z" fill="#292929"/>
<path d="M213.108 251.09H187.71C187.279 251.09 186.884 250.823 186.745 250.404C185.629 247.033 180.852 231.783 180.852 215.928V209.175C180.852 193.308 185.617 178.058 186.745 174.687C186.884 174.269 187.279 174.001 187.71 174.001H213.108C212.677 174.001 212.282 174.269 212.143 174.687C211.027 178.058 206.249 193.308 206.249 209.175V215.928C206.249 231.783 211.015 247.033 212.143 250.404C212.282 250.823 212.677 251.09 213.108 251.09Z" fill="white"/>
<path d="M213.107 252.138H187.709C186.896 252.138 186.175 251.627 185.919 250.859C184.524 246.663 179.979 231.761 179.979 216.093V209.339C179.979 193.659 184.524 178.769 185.908 174.573C186.175 173.805 186.896 173.294 187.698 173.294H213.096C213.572 173.294 213.967 173.689 213.967 174.166C213.967 174.642 213.572 175.038 213.096 175.038C213.026 175.038 212.968 175.072 212.956 175.131C211.98 178.06 207.109 193.508 207.109 209.339V216.093C207.109 231.913 211.98 247.361 212.956 250.301C212.956 250.348 213.026 250.394 213.096 250.394C213.572 250.394 213.967 250.79 213.967 251.266C213.967 251.743 213.572 252.138 213.096 252.138H213.107ZM187.709 175.049C187.64 175.049 187.581 175.084 187.57 175.142C186.198 179.257 181.735 193.926 181.735 209.351V216.104C181.735 231.517 186.21 246.187 187.581 250.313C187.581 250.36 187.651 250.406 187.721 250.406H211.178C209.632 245.664 205.401 231.262 205.401 216.116V209.362C205.401 194.193 209.643 179.792 211.178 175.061H187.709V175.049Z" fill="#292929"/>
<path d="M485.812 215.616C485.812 231.075 491.078 245.861 491.078 245.861H350.279C350.279 245.861 345.014 231.064 345.014 215.616V209.816C345.014 194.356 350.279 179.571 350.279 179.571H491.078C491.078 179.571 485.812 194.368 485.812 209.816V215.616Z" fill="white"/>
<path d="M491.078 246.733H350.279C349.907 246.733 349.581 246.5 349.454 246.151C349.407 246 344.142 231.041 344.142 215.616V209.816C344.142 194.391 349.407 179.419 349.454 179.28C349.581 178.931 349.907 178.699 350.279 178.699H491.078C491.357 178.699 491.624 178.838 491.787 179.071C491.949 179.303 491.996 179.594 491.891 179.861C491.845 180.012 486.684 194.693 486.684 209.816V215.616C486.684 230.738 491.845 245.431 491.891 245.57C491.984 245.838 491.949 246.128 491.787 246.361C491.624 246.593 491.357 246.733 491.078 246.733ZM350.907 244.989H489.869C488.648 241.176 484.94 228.553 484.94 215.616V209.816C484.94 196.867 488.648 184.255 489.869 180.442H350.907C349.953 183.313 345.885 196.402 345.885 209.816V215.616C345.885 229.053 349.953 242.118 350.907 244.989Z" fill="#292929"/>
<path d="M451.301 196.064H368.26C367.784 196.064 367.389 195.669 367.389 195.192C367.389 194.716 367.784 194.32 368.26 194.32H451.301C451.777 194.32 452.172 194.716 452.172 195.192C452.172 195.669 451.777 196.064 451.301 196.064Z" fill="#292929"/>
<path d="M485.986 205.806H404.62C404.143 205.806 403.748 205.41 403.748 204.934C403.748 204.457 404.143 204.062 404.62 204.062H485.986C486.463 204.062 486.858 204.457 486.858 204.934C486.858 205.41 486.463 205.806 485.986 205.806Z" fill="#292929"/>
<path d="M472.655 216.837H353.407C352.93 216.837 352.535 216.442 352.535 215.965C352.535 215.488 352.93 215.093 353.407 215.093H472.655C473.132 215.093 473.527 215.488 473.527 215.965C473.527 216.442 473.132 216.837 472.655 216.837Z" fill="#292929"/>
<path d="M481.639 228.842H374.433C373.957 228.842 373.562 228.447 373.562 227.97C373.562 227.494 373.957 227.099 374.433 227.099H481.639C482.116 227.099 482.511 227.494 482.511 227.97C482.511 228.447 482.116 228.842 481.639 228.842Z" fill="#292929"/>
<path d="M242.027 130.445C242.027 130.445 185.454 127.748 169.332 140.36C153.21 152.972 160.963 173.534 160.963 173.534L252.024 173.29L260.056 127.144L242.027 130.445Z" fill="#292929"/>
<path d="M251.385 161.668C251.292 161.644 251.071 161.598 250.711 161.54L248.409 161.179C245.55 160.738 242.772 160.261 239.924 159.75C233.554 158.599 223.604 156.53 212.306 153.217C211.178 152.88 210.062 152.555 208.97 152.218C204.866 150.985 200.996 149.835 197.334 148.951C192.452 147.789 188.256 147.161 184.885 147.08C180.631 146.94 177.818 147.417 176.516 147.708C175.83 147.824 175.296 147.975 174.866 148.103C174.633 148.172 174.435 148.231 174.261 148.265C173.831 148.358 173.378 148.103 173.285 147.661C173.18 147.219 173.459 146.778 173.889 146.685C174.04 146.65 174.215 146.603 174.412 146.545C174.889 146.406 175.482 146.231 176.214 146.115C178.539 145.592 181.654 145.348 184.943 145.452C188.419 145.545 192.72 146.185 197.718 147.37C201.426 148.265 205.32 149.428 209.435 150.66C210.527 150.985 211.643 151.323 212.771 151.648C223.988 154.949 233.891 156.995 240.214 158.146C243.051 158.657 245.805 159.122 248.653 159.575L250.966 159.936C251.873 160.087 252.094 160.122 252.303 160.436L251.629 160.9L251.373 161.668H251.385Z" fill="white"/>
<path d="M199.055 149.158C198.834 149.158 198.613 149.065 198.45 148.891C198.369 148.798 198.311 148.693 198.276 148.577C198.148 148.38 197.741 147.891 197.067 147.252C196.404 146.624 194.986 145.392 192.917 144.3C190.837 143.219 189.023 142.742 188.128 142.568C187.687 142.475 187.396 142.045 187.489 141.603C187.582 141.161 188.024 140.882 188.454 140.964C189.43 141.161 191.418 141.673 193.673 142.858C195.928 144.044 197.474 145.381 198.195 146.078C199.892 147.694 199.88 148.147 199.88 148.345C199.88 148.565 199.775 148.798 199.613 148.949C199.462 149.089 199.264 149.158 199.066 149.158H199.055Z" fill="white"/>
<path d="M244.817 256.298L245.189 280.196L234.286 304.397C232.694 313.963 240.423 312.975 242.155 313.289C243.12 313.463 244.108 313.173 244.817 312.487C249.304 308.105 265.856 288.484 265.67 286.322C265.449 283.811 266.588 258.46 266.588 258.46L244.817 256.309V256.298Z" fill="#292929"/>
<path d="M260.056 127.145C260.056 127.145 235.588 173.396 235.251 181.44C234.914 189.483 235.251 263.887 235.251 263.887H273.122C274.133 263.887 279.782 230.376 278.631 222.658C277.481 214.951 273.401 173.477 273.401 173.477H295.184C295.184 173.477 301.158 167.096 300.937 158.983C300.821 154.507 297.892 145.359 294.986 140.512C293.126 137.409 281.165 121.112 281.165 121.112L260.045 127.145H260.056Z" fill="#292929"/>
<path d="M250.501 146.034C250.362 146.069 249.537 143.465 248.537 140.257C247.526 137.049 246.712 134.433 246.852 134.387" fill="white"/>
<path d="M250.397 146.604C249.955 146.604 249.711 145.825 248.014 140.42C246.7 136.201 246.247 134.027 246.665 133.876L246.851 134.388L247.386 134.434C247.409 134.841 248.293 137.631 249.06 140.095C249.839 142.559 250.711 145.349 250.92 145.698L250.49 145.953L250.652 146.558C250.559 146.581 250.478 146.604 250.408 146.604H250.397Z" fill="#292929"/>
<path d="M227.533 61.145C238.785 68.5842 264.81 57.9019 268.844 56.1816L268.646 53.6476C268.623 53.3222 268.797 53.0083 269.076 52.8572C269.367 52.7061 269.716 52.741 269.971 52.9502L273.133 55.5307C276.632 54.3451 279.538 50.0326 280.514 48.4402C272.168 41.9425 271.401 34.6311 270.657 27.5406C270.029 21.5195 269.367 15.2892 264.252 9.04723C258.685 2.27058 251.896 4.72319 251.827 4.74644C251.536 4.85105 251.199 4.79293 250.978 4.57208C250.653 4.25824 242.876 -2.96012 232.066 3.44458C217.211 12.2438 219.745 31.2138 220.977 40.3268C221.198 42.0122 221.384 43.349 221.419 44.3254C221.64 49.5677 218.466 52.741 216.862 54.008L222.895 59.413L224.708 57.3905C224.894 57.1812 225.173 57.0883 225.452 57.1348C225.731 57.1813 225.964 57.3672 226.068 57.623L227.545 61.1566H227.533V61.145Z" fill="#292929"/>
<path d="M223.895 55.1697C223.895 55.1697 209.83 64.1548 184.479 101.711C195.382 105.256 204.378 112.312 204.378 112.312C210.923 104.234 230.846 88.5066 230.846 88.5066L223.895 55.1813V55.1697Z" fill="#3558A2"/>
<path d="M253.698 49.1829C253.698 49.1829 277.189 47.265 290.347 57.4823C297.263 70.0708 293.195 85.3561 291.754 92.9464C290.312 100.537 276.806 127.144 276.806 127.144C276.806 127.144 258.382 130.898 246.572 131.189C234.762 131.479 224.173 130.235 224.173 130.235C224.173 130.235 225.394 125.423 225.394 108.174C225.394 95.678 214.339 93.6787 220.093 80.8461C226.033 69.0596 224.522 59.1329 223.871 55.1692C231.694 49.4968 242.678 48.7064 253.686 49.1829H253.698Z" fill="#3558A2"/>
<path d="M262.776 59.7967C256.313 66.7245 242.98 70.1302 235.355 73.8615L234.111 57.9137C233.891 55.9957 234.03 54.2057 235.774 53.3688C241.295 50.7069 253.779 49.7422 260.962 52.2878C264.101 53.4036 265.054 57.379 262.776 59.82V59.7967Z" fill="#292929"/>
<path d="M238.75 50.1949L239.32 63.3762C239.32 63.3762 240.726 65.9102 249.537 63.9342C257.79 62.086 258.661 56.9134 258.65 56.8902C258.255 54.7398 257.778 48.6838 257.418 43.5926C256.999 37.6645 255.965 28.0284 253.942 28.1795C249.374 33.352 249.409 20.8914 248.7 18.3806C240.54 20.2404 238.134 20.3334 234.914 20.1939C234.624 19.2989 234.159 14.568 234.182 13.394C234.031 14.7424 232.938 19.1711 232.694 20.2404C231.543 20.7751 229.428 20.9262 227.463 20.8565C227.126 23.9949 227.94 40.8261 229.439 46.9402C230.59 51.6246 238.727 50.1949 238.727 50.1949H238.75Z" fill="white"/>
<path d="M243.701 65.5033C239.83 65.5033 238.807 64.1317 238.598 63.7714C238.54 63.6551 238.505 63.5389 238.493 63.411L237.959 51.1247C235.645 51.3688 229.729 51.5316 228.648 47.1494C227.079 40.7679 226.323 23.8786 226.649 20.7751C226.695 20.3566 227.044 20.0428 227.462 20.0428H227.486C229.38 20.1009 231.019 19.9614 231.996 19.6359L232.089 19.2407C232.461 17.6599 233.239 14.3704 233.367 13.301C233.414 12.8709 233.809 12.5571 234.227 12.5803C234.657 12.6036 234.995 12.9755 234.995 13.4056C234.971 14.382 235.308 17.9389 235.564 19.4035C238.272 19.4965 240.772 19.3453 248.513 17.5785C248.943 17.4855 249.361 17.7296 249.478 18.1481C249.652 18.7642 249.768 19.7987 249.919 21.1122C250.164 23.2393 250.745 28.2259 251.895 28.5862C252.116 28.656 252.605 28.4351 253.325 27.6331C253.465 27.4704 253.662 27.3774 253.883 27.3541C254.162 27.3309 254.592 27.389 255.022 27.761C256.87 29.365 257.789 37.2227 258.23 43.5228C258.719 50.6017 259.137 55.0419 259.451 56.7274C259.602 57.1923 258.916 58.5756 258.661 59.0173C257.545 60.9584 255.08 63.5156 249.71 64.7129C247.188 65.2825 245.223 65.4917 243.701 65.4917V65.5033ZM240.121 63.0623C240.539 63.411 242.585 64.6548 249.361 63.1321C256.371 61.5629 257.661 57.5178 257.824 56.8552C257.487 54.8559 257.091 50.5435 256.615 43.639C255.929 33.8402 254.79 30.0508 254.139 29.1674C253.186 30.0857 252.279 30.4112 251.431 30.1438C249.42 29.5161 248.85 25.9244 248.315 21.2981C248.234 20.5775 248.153 19.88 248.071 19.3453C240.644 21.0075 238.203 21.1354 234.89 20.9959C234.553 20.9959 234.251 20.7634 234.146 20.438C234.053 20.159 233.948 19.6011 233.855 18.9153C233.797 19.1594 233.739 19.4035 233.693 19.6127L233.507 20.4147C233.449 20.6588 233.286 20.8681 233.053 20.9727C231.74 21.5771 229.589 21.6701 228.241 21.6817C228.078 26.029 228.846 41.0469 230.252 46.7426C231.205 50.6365 238.54 49.3928 238.61 49.3812C238.842 49.3347 239.074 49.4044 239.26 49.5439C239.446 49.695 239.551 49.9158 239.563 50.1483L240.121 63.0507V63.0623Z" fill="#292929"/>
<path d="M244.783 53.2159C245.574 52.0419 246.155 50.647 246.538 49.5311C246.771 48.8686 246.108 48.2525 245.469 48.5315C244.144 49.1011 241.97 49.752 238.797 49.8915L239.076 56.982C239.076 56.982 242.586 56.4705 244.783 53.2159Z" fill="#292929"/>
<path d="M238.552 57.5983L238.238 49.3687L238.773 49.3455C241.911 49.206 244.027 48.5551 245.247 48.032C245.747 47.8228 246.294 47.9157 246.689 48.2877C247.084 48.6597 247.223 49.206 247.049 49.7174C246.689 50.7636 246.073 52.263 245.236 53.5184C242.934 56.9358 239.308 57.4937 239.157 57.517L238.564 57.5983H238.552ZM239.366 50.4032L239.598 56.2965C240.644 55.9943 242.83 55.1341 244.341 52.9023C245.12 51.74 245.689 50.3335 246.038 49.3455C246.084 49.206 246.003 49.1014 245.968 49.0665C245.922 49.02 245.829 48.9619 245.689 49.02C244.457 49.5431 242.388 50.194 239.377 50.3916H239.366V50.4032Z" fill="#292929"/>
<path d="M252.373 29.3891C253.954 29.0636 253.954 24.3095 255.012 23.9027C257.081 23.089 259.603 24.3444 260.568 26.3553C261.161 27.599 261.265 31.6092 259.626 34.3059C258.615 35.9797 256.964 37.0259 255.105 37.0956" fill="white"/>
<path d="M255.094 37.9087C254.652 37.9087 254.292 37.56 254.28 37.1183C254.28 36.665 254.617 36.293 255.07 36.2698C256.628 36.2116 258.023 35.3399 258.918 33.8753C260.429 31.3994 260.289 27.6682 259.824 26.6918C259.011 24.9831 256.895 24.0299 255.303 24.6576C255.198 24.8087 254.942 25.7967 254.78 26.4477C254.35 28.1447 253.908 29.8999 252.536 30.1905C252.095 30.2835 251.665 30.0045 251.572 29.5628C251.479 29.1211 251.758 28.6911 252.199 28.5981C252.583 28.5167 253.025 26.7266 253.199 26.0525C253.559 24.6111 253.85 23.4836 254.71 23.1465C257.081 22.2166 260.103 23.5185 261.289 26.006C262.045 27.5984 262.033 31.8876 260.301 34.7354C259.115 36.6882 257.221 37.839 255.117 37.9203H255.094V37.9087Z" fill="#292929"/>
<path d="M252.187 135.201H194.719V141.024H252.187V135.201Z" fill="white"/>
<path d="M252.186 141.85H194.718C194.265 141.85 193.904 141.49 193.904 141.037V135.213C193.904 134.76 194.265 134.4 194.718 134.4H252.186C252.639 134.4 253 134.76 253 135.213V141.037C253 141.49 252.639 141.85 252.186 141.85ZM195.532 140.212H251.372V136.015H195.532V140.212Z" fill="#292929"/>
<path d="M221.627 135.108L206.365 85.7417H126.73L145.77 141.036H220.592L221.627 135.108Z" fill="white"/>
<path d="M220.604 141.85H145.782C145.434 141.85 145.12 141.629 145.015 141.304L125.975 86.0212C125.894 85.7771 125.929 85.4981 126.08 85.2773C126.231 85.0564 126.475 84.9402 126.742 84.9402H206.377C206.737 84.9402 207.051 85.1727 207.156 85.5097L222.418 134.864C222.453 134.992 222.464 135.12 222.441 135.248L221.418 141.176C221.348 141.571 221.011 141.85 220.616 141.85H220.604ZM146.352 140.211H219.907L220.779 135.155L205.761 86.5559H127.87L146.352 140.211Z" fill="#292929"/>
<path d="M220.79 141.036L203.703 85.7417H124.068L143.12 141.036H220.79Z" fill="white"/>
<path d="M220.791 141.85H143.109C142.761 141.85 142.447 141.629 142.342 141.304L123.302 86.0212C123.221 85.7771 123.256 85.4981 123.407 85.2773C123.558 85.0564 123.802 84.9402 124.07 84.9402H203.704C204.064 84.9402 204.378 85.1727 204.483 85.5097L221.57 140.792C221.651 141.036 221.605 141.315 221.442 141.513C221.279 141.711 221.047 141.85 220.779 141.85H220.791ZM143.702 140.211H219.687L203.1 86.5559H125.209L143.691 140.211H143.702Z" fill="#292929"/>
<path d="M254.756 118.474C254.756 118.474 246.759 115.475 243.249 114.627C240.668 113.999 230.114 117.672 223.453 120.718C220.489 122.078 218.2 123.228 218.56 124.635C219.222 127.285 221.791 131.679 226.58 133.539C231.369 135.399 247.445 130.772 249.839 130.772C252.234 130.772 260.615 132.865 260.615 132.865L254.756 118.463V118.474Z" fill="white"/>
<path d="M229.845 134.818C228.404 134.818 227.195 134.666 226.288 134.318C220.918 132.237 218.407 127.39 217.768 124.844C217.222 122.682 220.221 121.311 223.115 119.986C228.625 117.463 240.248 113.058 243.433 113.837C246.955 114.697 254.708 117.591 255.034 117.719C255.243 117.8 255.417 117.963 255.499 118.172L261.357 132.574C261.473 132.853 261.415 133.179 261.218 133.411C261.02 133.643 260.695 133.748 260.404 133.667C258.103 133.086 251.709 131.598 249.826 131.598C249.199 131.598 247.223 132.016 244.921 132.504C239.156 133.725 233.669 134.806 229.834 134.806H229.845V134.818ZM242.469 115.359C239.435 115.359 230.229 118.509 223.789 121.462C222.162 122.206 219.14 123.601 219.349 124.437C219.872 126.518 222.115 130.935 226.869 132.783C230.008 134.004 239.133 132.063 244.584 130.912C247.42 130.307 249.071 129.97 249.826 129.97C251.663 129.97 256.673 131.098 259.242 131.714L254.116 119.114C252.57 118.544 246.06 116.15 243.038 115.417C242.887 115.383 242.689 115.359 242.457 115.359H242.469Z" fill="#292929"/>
<path d="M290.487 57.6922C290.487 57.6922 326.916 112.8 315.339 127.144C303.773 141.488 259.15 139.558 259.15 139.558L253.582 116.427C253.582 116.427 274.307 116.16 290.801 112.556C290.801 112.556 274.563 97.2595 271.297 84.6361C268.03 72.0243 277.109 55.228 290.487 57.6922Z" fill="#3558A2"/>
<path d="M235.111 198.572C234.657 198.572 234.297 198.2 234.297 197.758C234.32 188.75 234.367 183.252 234.436 181.415C234.68 175.406 242.143 160.457 249.768 145.66C249.977 145.265 250.466 145.102 250.872 145.312C251.268 145.521 251.43 146.009 251.221 146.416C245.653 157.226 236.319 175.336 236.064 181.485C235.994 183.298 235.936 188.785 235.924 197.77C235.924 198.223 235.552 198.583 235.111 198.583V198.572Z" fill="white"/>
<path d="M273.399 174.302C273.271 174.302 273.144 174.279 273.027 174.209C272.632 174 272.469 173.512 272.679 173.105L277.177 164.41C277.386 164.015 277.874 163.852 278.281 164.062C278.676 164.271 278.839 164.759 278.63 165.166L274.132 173.86C273.992 174.139 273.701 174.302 273.411 174.302H273.399Z" fill="white"/>
<path d="M225.406 109C224.952 109 224.592 108.64 224.592 108.186C224.592 103.084 222.686 99.8289 220.837 96.6905C218.292 92.3665 215.897 88.2749 219.373 80.5218C220.745 77.8019 221.791 75.0238 222.511 72.2225C222.628 71.7808 223.069 71.525 223.511 71.6413C223.953 71.7575 224.208 72.1992 224.092 72.6409C223.337 75.5585 222.244 78.4412 220.837 81.2309C217.722 88.1703 219.815 91.7388 222.244 95.8652C224.115 99.0385 226.231 102.642 226.231 108.198C226.231 108.651 225.871 109.012 225.417 109.012H225.406V109Z" fill="#292929"/>
<path d="M264.229 140.453C261.113 140.453 259.184 140.372 259.114 140.372C258.754 140.36 258.44 140.104 258.359 139.744L252.791 116.613C252.733 116.369 252.791 116.113 252.942 115.915C253.093 115.718 253.325 115.601 253.57 115.601C253.767 115.601 273.353 115.311 289.371 112.01C287.092 108.976 280.2 99.6769 273.795 89.6805C273.551 89.2969 273.667 88.7971 274.039 88.553C274.411 88.3089 274.922 88.4251 275.166 88.7971C282.896 100.886 291.347 111.94 291.44 112.045C291.614 112.265 291.649 112.556 291.556 112.823C291.463 113.091 291.242 113.277 290.963 113.335C276.654 116.462 258.998 117.089 254.604 117.206L259.788 138.744C263.74 138.861 285.837 139.267 301.425 134.339C301.855 134.2 302.308 134.444 302.447 134.874C302.587 135.304 302.343 135.757 301.913 135.897C289.289 139.884 272.528 140.441 264.217 140.441L264.229 140.453Z" fill="#292929"/>
<path d="M234.914 29.5635C234.914 29.5635 232.566 36.6307 233.356 37.9558C234.158 39.2809 236.808 39.0136 236.808 39.0136" fill="white"/>
<path d="M236.25 39.862C235.262 39.862 233.437 39.676 232.658 38.3741C231.763 36.8863 233.391 31.5393 234.134 29.296C234.274 28.8659 234.739 28.6334 235.169 28.7729C235.599 28.9124 235.832 29.3773 235.692 29.8074C234.518 33.3526 233.774 36.8863 234.065 37.5372C234.46 38.1881 236.029 38.2579 236.738 38.1998C237.18 38.1533 237.587 38.4904 237.633 38.9321C237.68 39.3854 237.354 39.7806 236.901 39.8271C236.82 39.8271 236.587 39.8503 236.25 39.8503V39.862Z" fill="#292929"/>
<path d="M241.865 29.9572C242.506 29.9572 243.027 29.1453 243.027 28.1439C243.027 27.1424 242.506 26.3306 241.865 26.3306C241.223 26.3306 240.702 27.1424 240.702 28.1439C240.702 29.1453 241.223 29.9572 241.865 29.9572Z" fill="#292929"/>
<path d="M230.741 30.7609C231.382 30.7609 231.903 29.949 231.903 28.9476C231.903 27.9461 231.382 27.1343 230.741 27.1343C230.099 27.1343 229.578 27.9461 229.578 28.9476C229.578 29.949 230.099 30.7609 230.741 30.7609Z" fill="#292929"/>
<path d="M233.764 43.8143C233.764 43.8143 239.948 44.9418 244.132 40.9548L233.764 43.8143Z" fill="white"/>
<path d="M235.82 44.7785C234.553 44.7785 233.705 44.6274 233.612 44.6158C233.17 44.5344 232.88 44.116 232.961 43.6627C233.042 43.2209 233.461 42.9304 233.914 43.0001C233.972 43.0001 239.749 43.9997 243.573 40.3499C243.899 40.036 244.422 40.0477 244.724 40.3731C245.038 40.6986 245.026 41.2217 244.701 41.5239C241.83 44.2555 238.145 44.7553 235.832 44.7553V44.7785H235.82Z" fill="#292929"/>
<path d="M220.116 127.493C219.79 127.493 219.488 127.307 219.36 126.993C219.186 126.575 219.384 126.098 219.802 125.924L233.1 120.426C233.518 120.263 233.995 120.449 234.169 120.867C234.343 121.286 234.146 121.762 233.727 121.937L220.43 127.435C220.325 127.481 220.22 127.493 220.116 127.493Z" fill="#292929"/>
<path d="M222.243 131.038C221.93 131.038 221.627 130.852 221.488 130.538C221.313 130.12 221.488 129.643 221.918 129.469L235.215 123.796C235.622 123.622 236.111 123.796 236.285 124.226C236.459 124.657 236.285 125.122 235.855 125.296L222.557 130.968C222.453 131.015 222.348 131.038 222.232 131.038H222.243Z" fill="#292929"/>
<path d="M225.603 134.049C225.277 134.049 224.963 133.852 224.835 133.526C224.673 133.108 224.882 132.631 225.312 132.468L236.482 128.214C236.901 128.051 237.377 128.261 237.54 128.691C237.703 129.109 237.494 129.586 237.064 129.748L225.893 134.003C225.8 134.038 225.696 134.061 225.603 134.061V134.049Z" fill="#292929"/>
<path d="M258.917 284.008C258.708 284.008 258.476 283.973 258.232 283.892C256.976 283.474 256.314 281.986 255.628 280.428C254.431 277.731 253.477 275.965 251.129 276.22C246.771 276.674 246.027 280.196 245.992 280.347C245.91 280.788 245.48 281.067 245.039 280.998C244.597 280.916 244.306 280.486 244.388 280.045C244.702 278.371 246.48 275.07 250.955 274.593C254.663 274.209 256.081 277.418 257.116 279.766C257.639 280.94 258.173 282.148 258.743 282.346C259.08 282.462 259.406 282.044 260.138 280.788C261.126 279.068 262.497 276.72 265.659 276.72C266.112 276.72 266.473 277.08 266.473 277.534C266.473 277.987 266.112 278.347 265.659 278.347C263.427 278.347 262.474 279.998 261.544 281.602C260.882 282.741 260.149 284.008 258.906 284.008H258.917Z" fill="white"/>
<path d="M108.737 295.609C108.737 295.609 120.233 278.708 123.174 261.563C123.174 261.563 99.4964 266.294 98.3805 286.589C96.9857 311.626 108.749 295.609 108.749 295.609H108.737Z" fill="white"/>
<path d="M102.031 301.409C101.67 301.409 101.31 301.351 100.961 301.223C98.2063 300.235 97.1137 295.434 97.6135 286.542C98.7526 265.91 122.779 260.865 123.023 260.818C123.279 260.772 123.523 260.842 123.697 261.016C123.883 261.19 123.953 261.446 123.918 261.69C120.989 278.789 109.481 295.864 109.365 296.027V296.05C108.935 296.643 105.332 301.409 102.031 301.409ZM122.209 262.585C117.583 263.841 100.078 269.676 99.1362 286.623C98.5434 297.131 100.357 299.386 101.473 299.793C103.576 300.537 107.04 296.62 108.11 295.167C108.447 294.667 119.071 278.789 122.209 262.597V262.585Z" fill="#292929"/>
<path d="M99.0429 296.516C99.0429 296.516 106.703 285.241 106.703 269.246C106.703 253.252 99.0429 242.419 99.0429 242.419C99.0429 242.419 87.0937 255.042 83.7228 273.303C80.3403 291.564 87.3726 305.082 93.2078 300.805L99.0545 296.516H99.0429Z" fill="white"/>
<path d="M90.953 302.35C90.1277 302.35 89.3024 302.094 88.4888 301.583C83.7347 298.595 80.3638 287.134 82.9559 273.139C86.3384 254.867 98.3574 241.999 98.4736 241.871C98.6247 241.709 98.8572 241.616 99.078 241.627C99.3105 241.627 99.5081 241.755 99.6476 241.941C99.9614 242.383 107.447 253.135 107.447 269.21C107.447 285.286 99.9731 296.457 99.6592 296.921C99.6127 297.003 99.5546 297.049 99.4849 297.107L93.6381 301.397C92.7779 302.024 91.8597 302.338 90.9414 302.338H90.953V302.35ZM98.9502 243.661C96.4394 246.591 87.3148 258.052 84.467 273.43C82.026 286.623 85.0714 297.642 89.3141 300.304C90.4881 301.048 91.6388 301.001 92.7663 300.188L98.4968 295.992C99.264 294.818 105.959 284.007 105.959 269.245C105.959 256.122 100.67 246.451 98.9618 243.685V243.661H98.9502Z" fill="#292929"/>
<path d="M89.5346 300.793C89.5346 300.793 92.9171 278.476 86.1521 267.201C79.3987 255.926 67.2169 250.974 67.2169 250.974C67.2169 250.974 59.9986 267.654 67.2169 280.289C74.4353 292.912 89.5346 300.805 89.5346 300.805V300.793Z" fill="white"/>
<path d="M89.5348 301.561C89.4186 301.561 89.2907 301.526 89.1861 301.48C88.57 301.154 73.7962 293.343 66.5546 280.673C59.2433 267.864 66.2175 251.381 66.5198 250.684C66.6825 250.3 67.1242 250.114 67.5078 250.277C68.0192 250.486 79.9917 255.461 86.8149 266.818C93.638 278.186 90.4415 299.992 90.302 300.922C90.2671 301.166 90.116 301.375 89.8951 301.491C89.7905 301.549 89.6627 301.573 89.5464 301.573H89.5232H89.5348V301.561ZM67.6356 251.997C66.3919 255.299 61.7773 269.212 67.8914 279.906C73.866 290.367 85.5246 297.609 88.942 299.585C89.4999 294.994 91.2203 277.105 85.513 267.596C79.8755 258.204 70.3091 253.241 67.6473 251.986H67.6356V251.997Z" fill="#292929"/>
<path d="M74.4012 291.551H111.992L108.098 317.902C107.703 320.553 105.425 322.529 102.728 322.529H83.6421C80.957 322.529 78.6787 320.564 78.2719 317.902L74.3779 291.551H74.4012Z" fill="#292929"/>
<path d="M102.74 323.284H83.6537C80.6199 323.284 77.9813 321.017 77.5396 318.006L73.6456 291.655C73.6107 291.434 73.6805 291.214 73.82 291.051C73.9594 290.888 74.1803 290.795 74.4012 290.795H111.992C112.213 290.795 112.422 290.888 112.574 291.051C112.725 291.214 112.783 291.446 112.748 291.655L108.854 318.006C108.412 321.005 105.785 323.284 102.74 323.284ZM75.2846 292.318L79.0507 317.797C79.3877 320.064 81.3638 321.773 83.6537 321.773H102.74C105.041 321.773 107.017 320.064 107.343 317.797L111.109 292.318H75.2846Z" fill="#292929"/>
</svg>
