<svg width="80" height="80" viewBox="0 0 80 80" fill="none" xmlns="http://www.w3.org/2000/svg">
<path fill-rule="evenodd" clip-rule="evenodd" d="M68 13C67.4486 13 67 12.5514 67 12C67 11.4486 67.4486 11 68 11C68.5514 11 69 11.4486 69 12C69 12.5514 68.5514 13 68 13Z" fill="#ECECFE"/>
<path fill-rule="evenodd" clip-rule="evenodd" d="M41 76C40.4486 76 40 75.5514 40 75C40 74.4486 40.4486 74 41 74C41.5514 74 42 74.4486 42 75C42 75.5514 41.5514 76 41 76Z" fill="#ECECFE"/>
<path fill-rule="evenodd" clip-rule="evenodd" d="M15 10C14.4486 10 14 9.5514 14 9C14 8.44855 14.4486 8 15 8C15.5514 8 16 8.44855 16 9C16 9.5514 15.5514 10 15 10Z" fill="#ECECFE"/>
<path fill-rule="evenodd" clip-rule="evenodd" d="M37.339 46.579L30.9569 39.0346L30.8344 38.9028C30.0717 38.166 28.9148 38.1525 28.1534 38.8636C27.3498 39.614 27.278 40.8956 27.9905 41.7377L36.1866 51.425C36.2388 51.4867 36.296 51.5441 36.3575 51.5966C36.9874 52.1347 37.9342 52.0603 38.4723 51.4304L56.0033 30.9071L56.114 30.7646C56.7123 29.9039 56.5987 28.7348 55.8536 28.0322C55.0395 27.2646 53.7782 27.3362 53.0493 28.1894L37.339 46.579Z" fill="#CE614A"/>
<path d="M11.4405 45.036C8.65935 29.2631 19.1912 14.222 34.9642 11.4408C44.9852 9.67379 55.0291 13.2684 61.6736 20.7264C62.041 21.1388 62.0046 21.7709 61.5922 22.1383C61.1798 22.5057 60.5477 22.4692 60.1803 22.0568C53.9924 15.1113 44.6425 11.7651 35.3115 13.4104C20.6263 15.9998 10.8208 30.0035 13.4102 44.6887C15.9995 59.3738 30.0033 69.1794 44.6885 66.59C59.3736 64.0006 69.1792 49.9968 66.5898 35.3117C66.4939 34.7678 66.857 34.2491 67.4009 34.1532C67.9448 34.0573 68.4635 34.4205 68.5594 34.9644C71.3406 50.7373 60.8087 65.7784 45.0358 68.5596C29.2628 71.3408 14.2217 60.8089 11.4405 45.036Z" fill="#000091"/>
<path d="M70.224 46.9245C70.3468 46.3861 70.8829 46.0491 71.4213 46.172C71.9598 46.2948 72.2967 46.8309 72.1739 47.3693C70.8288 53.2656 67.8823 58.6505 63.6928 62.9708C63.3083 63.3673 62.6752 63.3771 62.2788 62.9926C61.8823 62.6081 61.8725 61.975 62.257 61.5785C66.1933 57.5193 68.9609 52.4614 70.224 46.9245Z" fill="#000091"/>
<path d="M72 42.0002C71.4477 42.0002 71 42.4479 71 43.0002C71 43.5525 71.4477 44.0002 72 44.0002C72.5522 44.0002 73 43.5525 73 43.0002C73 42.4479 72.5522 42.0002 72 42.0002Z" fill="#000091"/>
</svg>
