<svg width="588" height="330" viewBox="0 0 588 330" fill="none" xmlns="http://www.w3.org/2000/svg">
<g clip-path="url(#clip0_1504_68078)">
<path fill-rule="evenodd" clip-rule="evenodd" d="M262.05 18.9767C327.205 14.8626 398.096 13.7989 444.091 50.7907C495.095 91.8105 523.705 155.246 498.963 209.514C476.111 259.636 398.355 269.466 335.767 288.38C283.238 304.254 228.354 325.304 177.233 306.74C125.153 287.827 99.5991 242.74 87.4102 198.191C75.3992 154.293 78.3399 107.192 112.924 71.7015C148.01 35.6964 205.011 22.5783 262.05 18.9767Z" fill="#F3F6FE"/>
<path d="M260.043 20.0504C267.567 6.19123 279.545 -3.41118 297.463 2.33047C299.047 2.92443 300.73 3.4194 302.413 3.61739C304.096 3.5184 305.877 3.32041 307.56 3.02343C315.579 2.33047 321.618 10.151 325.478 17.2786C332.804 30.4448 346.069 48.3627 343.495 64.2017C341.515 76.477 329.933 84.9904 318.252 89.2472C305.086 94.0979 290.929 95.3848 277.169 93.1079C270.141 91.92 263.112 89.5442 258.063 84.5945C251.134 77.5659 249.649 66.7755 250.243 56.9751C250.837 45.5908 253.906 31.3357 260.043 20.0504Z" fill="white"/>
<path d="M290.534 94.7906C285.98 94.7906 281.426 94.3946 276.972 93.6027C268.26 92.1178 261.925 89.2469 257.569 84.8912C251.53 78.8526 248.857 69.3491 249.55 56.7769C250.342 43.7097 254.005 29.8505 259.45 19.7532C265.785 7.97287 277.566 -4.69836 297.562 1.73625L298.552 2.03323C299.74 2.5282 301.027 2.82518 302.314 2.92418C303.304 2.92418 304.294 2.82518 305.284 2.62719C305.977 2.5282 306.67 2.42921 307.363 2.33021C313.995 1.73625 320.232 6.68595 325.875 16.8823C327.162 19.2582 328.647 21.733 330.23 24.4059C337.259 36.2851 346.069 51.0352 343.991 64.2014C342.209 74.8928 332.606 84.4952 318.351 89.7419C309.442 93.0087 300.037 94.7906 290.534 94.7906ZM260.539 20.3471C255.193 30.2465 251.53 43.9077 250.837 56.8759C250.144 69.0522 252.718 78.2586 258.46 84.0992C262.618 88.257 268.755 91.0288 277.17 92.5137C290.831 94.8896 304.888 93.6027 317.955 88.752C331.814 83.6043 341.12 74.3978 342.803 64.1024C344.882 51.3322 336.269 36.7801 329.241 25.0988C327.657 22.426 326.172 19.9511 324.885 17.5753C319.539 7.87387 313.698 3.22116 307.561 3.71613C306.967 3.81512 306.274 3.91412 305.581 4.01311C303.106 4.60707 300.532 4.40909 298.156 3.32015L297.265 3.02317C277.962 -3.21345 266.676 8.96281 260.539 20.3471Z" fill="#292929"/>
<path d="M443.973 218.137C443.973 218.137 373.292 116.47 358.64 103.106C337.555 84.0001 262.715 80.0404 247.47 84.0001C220.544 90.9297 201.834 132.903 201.834 132.903L246.48 146.267C246.579 180.816 250.044 216.949 250.044 216.949L443.973 218.137Z" fill="#3558A2"/>
<path d="M215.298 39.0561C215.496 38.5611 215.199 29.6516 212.724 24.8999C210.249 20.1482 210.645 19.2573 212.625 17.6734C214.605 16.0895 216.783 17.6734 219.851 21.5341C222.92 25.3949 223.712 31.3345 222.92 35.6903L215.298 39.0561Z" fill="white"/>
<path d="M215.298 39.7488C215.1 39.7488 215.001 39.6498 214.803 39.5508C214.605 39.3529 214.506 39.1549 214.605 38.8579C214.704 38.0659 214.407 29.6514 212.031 25.0977C209.556 20.346 209.655 18.9601 212.13 17.0792C215.001 14.9013 217.872 17.9702 220.347 21.039C223.613 25.1967 224.306 31.4333 223.613 35.6901C223.613 35.8881 223.415 36.0861 223.217 36.185L215.694 39.5508C215.496 39.7488 215.397 39.7488 215.298 39.7488ZM214.209 17.7722C213.813 17.7722 213.318 17.9702 213.021 18.1681C211.437 19.3561 210.942 19.7521 213.318 24.5038C215.397 28.4635 215.991 35.0961 216.09 37.9669L222.326 35.1951C222.92 31.2354 222.227 25.6917 219.357 22.0289C216.783 18.8611 215.298 17.7722 214.209 17.7722Z" fill="#292929"/>
<path d="M211.041 70.9329C211.338 70.4379 211.833 38.1659 212.922 37.3739C214.011 36.582 226.682 32.7212 232.226 32.7212C237.77 32.7212 239.156 34.9981 237.176 37.1759C237.176 37.1759 243.709 40.1457 239.354 45.6894C239.354 45.6894 243.115 49.5502 239.354 53.2129C242.323 57.2717 239.453 62.3204 236.087 65.0922C232.325 68.161 226.979 68.161 227.078 73.6057C227.177 93.1075 228.86 112.807 227.474 132.309C226.583 144.98 219.159 163.195 205.993 160.126C192.826 157.058 191.935 132.804 195.796 119.935C199.657 107.066 211.041 70.9329 211.041 70.9329Z" fill="white"/>
<path d="M208.863 161.216C207.873 161.216 206.784 161.117 205.794 160.82C202.23 160.028 199.359 157.652 197.181 153.89C192.133 145.08 192.133 129.637 195.103 119.737C198.963 107.066 210.249 71.0324 210.348 70.6365C210.447 70.0425 210.546 65.8847 210.744 61.628C211.437 39.7503 211.833 37.2755 212.526 36.7805C213.713 35.9886 226.583 32.0288 232.225 32.0288C235.591 32.0288 237.868 32.9198 238.561 34.4047C238.858 35.2956 238.759 36.1866 238.264 36.9785C239.749 37.8695 240.937 39.2554 241.432 40.8393C241.729 42.5222 241.333 44.3041 240.244 45.591C242.125 47.7688 242.125 51.0357 240.244 53.3125C242.818 57.2723 240.343 62.5189 236.581 65.6868C235.294 66.6767 234.007 67.4686 232.522 68.0626C229.849 69.3495 227.771 70.3395 227.771 73.6063C227.771 80.3379 227.969 87.1684 228.266 93.9C228.662 106.571 229.157 119.638 228.167 132.409C227.474 141.417 223.613 153.395 216.485 158.543C214.208 160.226 211.536 161.216 208.863 161.216ZM211.635 71.1314C211.14 72.7153 200.151 107.759 196.39 120.232C193.519 129.835 193.42 144.783 198.369 153.296C200.349 156.662 202.923 158.84 206.091 159.533C209.358 160.325 212.922 159.632 215.594 157.553C222.326 152.603 226.088 141.021 226.682 132.409C227.573 119.638 227.177 106.67 226.781 94.098C226.583 87.4654 226.385 80.5359 226.286 73.8043C226.286 69.6465 229.058 68.2606 231.829 66.9737C233.215 66.3797 234.403 65.5878 235.591 64.6968C238.363 62.321 241.531 57.5693 238.66 53.8075C238.462 53.5105 238.462 53.1145 238.759 52.9165C241.927 49.7487 238.858 46.4819 238.759 46.2839C238.561 45.987 238.561 45.69 238.759 45.393C239.749 44.3041 240.244 42.8192 240.046 41.3342C239.551 39.1564 236.977 37.9684 236.878 37.9684C236.68 37.8695 236.482 37.6715 236.482 37.4735C236.482 37.2755 236.482 37.0775 236.68 36.8795C237.076 36.4835 237.571 35.7906 237.274 35.0976C236.977 34.4047 235.393 33.5137 232.225 33.5137C226.88 33.5137 215 37.1765 213.416 37.9684C212.823 39.7503 212.427 54.0055 212.13 61.727C211.833 69.7455 211.833 70.8344 211.635 71.1314Z" fill="#292929"/>
<path d="M226.88 39.75C226.484 39.75 226.188 39.453 226.188 39.057C226.188 38.76 226.385 38.463 226.682 38.364C230.048 37.5721 233.513 36.8791 236.978 36.4832C237.374 36.4832 237.671 36.6811 237.77 37.0771C237.77 37.4731 237.572 37.7701 237.176 37.8691C233.81 38.265 230.444 38.859 227.078 39.651C227.078 39.75 226.979 39.75 226.88 39.75Z" fill="#292929"/>
<path d="M228.266 48.165C227.969 48.165 227.771 47.967 227.672 47.769C227.573 47.3731 227.672 46.9771 228.068 46.8781C231.236 45.4922 239.057 45.0962 239.354 45.0962C239.75 45.0962 240.047 45.3932 240.047 45.6902C240.047 46.0861 239.75 46.3831 239.354 46.3831C239.255 46.3831 231.434 46.7791 228.563 48.066C228.464 48.165 228.365 48.165 228.266 48.165Z" fill="#292929"/>
<path d="M231.038 56.083C230.741 56.083 230.543 55.885 230.444 55.687C230.345 55.291 230.444 54.8951 230.84 54.7961C233.612 53.8061 236.384 53.0142 239.254 52.7172C239.65 52.6182 239.947 52.9152 240.046 53.3111C240.046 53.7071 239.848 54.0041 239.452 54.1031C236.681 54.4991 234.008 55.192 231.335 56.182C231.236 56.083 231.137 56.083 231.038 56.083Z" fill="#292929"/>
<path d="M244.403 187.348C244.007 187.348 243.71 186.952 243.71 186.556L249.749 107.559C249.749 107.163 250.046 106.866 250.442 106.866C250.838 106.866 251.135 107.262 251.135 107.658L245.096 186.556C245.096 187.051 244.799 187.348 244.403 187.348Z" fill="#292929"/>
<path d="M285.286 111.819C290.335 118.055 297.858 122.51 305.778 122.609C306.867 122.708 307.857 122.51 308.846 122.213C310.232 121.619 311.321 120.629 312.212 119.441C315.875 114.492 315.974 107.76 315.083 101.622C314.489 97.3657 313.202 92.812 309.935 89.9412C306.174 86.5754 300.63 86.2784 295.482 86.0804C290.236 85.9814 278.653 84.4965 276.673 90.7331C274.991 96.4748 281.92 107.661 285.286 111.819Z" fill="#292929"/>
<path d="M306.175 123.201H305.779C298.058 123.102 290.237 118.944 284.793 112.212C281.229 107.758 274.299 96.5714 276.18 90.6317C278.061 84.6921 287.663 85.1871 293.405 85.484L295.484 85.583C301.127 85.781 306.472 86.177 310.234 89.5428C313.897 92.8096 315.085 97.9573 315.58 101.521C316.768 109.342 315.778 115.479 312.61 119.736C311.719 121.023 310.432 122.112 309.046 122.706C308.155 123.003 307.165 123.201 306.175 123.201ZM288.752 86.474C283.902 86.474 278.556 87.1669 277.368 90.9287C275.685 96.3734 282.417 107.263 285.783 111.42C291.029 117.954 298.553 121.815 305.878 121.914C306.868 122.013 307.858 121.815 308.749 121.518C310.036 121.023 311.026 120.033 311.818 118.944C314.788 114.885 315.679 109.045 314.59 101.62C314.095 98.1553 313.006 93.3046 309.64 90.3347C306.076 87.1669 301.028 86.771 295.583 86.672L293.405 86.573C292.019 86.573 290.336 86.474 288.752 86.474Z" fill="#292929"/>
<path d="M317.657 47.7677C318.152 46.0848 319.043 44.4019 320.231 43.016C321.419 41.6301 323.498 41.1351 325.18 41.8281C326.368 42.521 327.16 43.8079 327.259 45.1939C327.358 46.5798 327.061 47.8667 326.566 49.1536C325.774 51.5295 324.487 53.7073 322.706 55.5882C320.924 57.3701 318.449 58.3601 315.875 58.2611" fill="white"/>
<path d="M316.371 58.8569H315.777C315.48 58.8569 315.282 58.5599 315.282 58.2629C315.282 57.9659 315.48 57.7679 315.777 57.7679H315.876C318.252 57.8669 320.628 56.976 322.311 55.1941C323.994 53.4122 325.281 51.3333 326.073 49.0565C326.568 47.8685 326.766 46.5816 326.667 45.2947C326.568 44.1068 325.974 43.0178 324.885 42.4239C323.4 41.8299 321.717 42.3249 320.628 43.5128C319.539 44.7997 318.648 46.3836 318.153 48.0665C318.054 48.3635 317.757 48.4625 317.46 48.3635C317.163 48.2645 317.064 47.9675 317.163 47.6705C317.658 45.8886 318.648 44.2058 319.836 42.7208C321.123 41.4339 323.4 40.444 325.38 41.4339C326.766 42.2259 327.656 43.6118 327.755 45.1957C327.854 46.6806 327.557 48.0665 327.063 49.4524C326.271 51.9273 324.885 54.2041 323.004 56.085C321.222 57.6689 318.846 58.7579 316.371 58.8569Z" fill="#292929"/>
<path d="M308.155 71.7249L310.333 93.1076C310.333 93.1076 309.343 105.284 295.978 102.809C287.96 101.324 281.129 96.2754 277.269 89.0488L277.764 50.7381C277.665 49.1542 280.931 43.8086 279.347 30.2464C288.653 29.2565 297.067 24.5047 302.611 16.9812C302.611 16.9812 308.848 24.6037 311.421 26.9796C313.5 28.7615 315.381 30.7414 316.866 33.0182C321.024 39.2548 320.826 49.4512 319.836 56.4798C319.044 62.5184 315.579 71.9228 308.155 71.7249Z" fill="white"/>
<path d="M299.245 103.8C298.057 103.8 296.968 103.701 295.78 103.503C282.317 101.028 276.675 89.5446 276.576 89.4456C276.576 89.3466 276.477 89.2476 276.477 89.1486C276.477 89.1486 276.972 51.036 276.972 50.838C276.972 50.145 277.17 49.452 277.368 48.8581C278.159 46.1852 279.743 40.6416 278.555 30.4452C278.555 30.2472 278.555 30.1482 278.654 29.9502C278.753 29.8512 278.951 29.7523 279.05 29.7523C288.158 28.7623 296.374 24.1096 301.819 16.784C301.918 16.5861 302.116 16.4871 302.314 16.4871C302.512 16.4871 302.71 16.5861 302.809 16.685C302.908 16.784 309.046 24.3076 311.52 26.5844C313.599 28.3663 315.48 30.4452 317.064 32.7221C321.816 39.9486 320.826 51.9269 320.133 56.6786C319.341 62.4203 315.975 71.9237 308.551 72.3197L310.629 93.0094C310.333 96.3752 308.65 99.444 306.076 101.523C304.393 103.107 301.819 103.899 299.245 103.8ZM277.862 88.9506C281.624 95.8802 288.356 100.632 296.077 102.216C300.037 102.909 303.304 102.414 305.68 100.533C309.244 97.7611 309.739 93.0094 309.739 93.0094L307.561 71.7257C307.561 71.5277 307.561 71.3297 307.759 71.2307C307.858 71.1317 308.056 71.0327 308.254 71.0327H308.353C315.282 71.0327 318.45 61.9253 319.242 56.3816C319.935 51.7289 320.925 40.2456 316.371 33.316C314.787 31.1382 313.005 29.1583 310.926 27.4754C308.749 25.4955 304.096 19.9518 302.611 18.071C297.067 25.0995 288.95 29.6533 280.04 30.8412C281.129 40.8396 279.446 46.3832 278.753 49.0561C278.555 49.551 278.456 50.145 278.357 50.64C278.357 50.739 278.357 50.838 277.862 88.9506Z" fill="#292929"/>
<path d="M308.846 78.7537C309.044 78.5557 305.184 80.0406 298.452 77.6648C290.83 74.9919 290.434 69.8442 290.434 69.8442C290.434 69.8442 296.868 73.903 308.154 71.7251L308.846 78.7537Z" fill="#292929"/>
<path d="M305.779 79.6439C303.205 79.6439 300.631 79.1489 298.255 78.258C290.336 75.4862 289.841 70.1405 289.841 69.8435C289.841 69.6455 289.94 69.3485 290.138 69.2495C290.336 69.1505 290.633 69.1505 290.732 69.2495C290.831 69.2495 297.067 73.1103 308.056 71.1304C308.254 71.1304 308.353 71.1304 308.551 71.2294C308.65 71.3284 308.749 71.5264 308.749 71.6254L309.442 78.555C309.541 78.753 309.442 79.0499 309.244 79.2479C309.145 79.3469 308.947 79.4459 308.749 79.3469C307.759 79.6439 306.769 79.6439 305.779 79.6439ZM291.326 71.0314C291.92 72.6153 293.702 75.3872 298.651 77.1691C301.72 78.357 304.987 78.753 308.155 78.258L307.561 72.5163C299.245 73.9023 293.702 72.0214 291.326 71.0314Z" fill="#292929"/>
<path d="M298.849 37.1775C298.849 37.1775 306.768 46.7799 305.283 48.6608C303.798 50.5417 299.146 49.8487 299.146 49.8487" fill="white"/>
<path d="M301.027 50.6396C300.334 50.6396 299.641 50.5406 298.948 50.5406C298.651 50.4416 298.354 50.1446 298.453 49.8476C298.453 49.5507 298.849 49.2537 299.146 49.3527C300.334 49.5507 303.7 49.7486 304.69 48.3627C305.284 47.5708 302.314 42.5221 298.255 37.5724C298.057 37.2754 298.057 36.9784 298.354 36.6814C298.651 36.4835 299.047 36.4835 299.245 36.7804C301.72 39.7503 307.264 46.9768 305.68 49.0557C304.789 50.3426 302.71 50.6396 301.027 50.6396Z" fill="#292929"/>
<path d="M308.752 39.3299C309.402 39.2429 309.8 38.2059 309.641 37.0138C309.481 35.8216 308.825 34.9256 308.175 35.0126C307.524 35.0996 307.126 36.1366 307.286 37.3288C307.445 38.521 308.102 39.4169 308.752 39.3299Z" fill="#292929"/>
<path d="M289.26 39.3523C289.916 39.3446 290.437 38.3634 290.423 37.1607C290.409 35.958 289.865 34.9892 289.209 34.9969C288.553 35.0045 288.033 35.9857 288.047 37.1885C288.061 38.3912 288.604 39.36 289.26 39.3523Z" fill="#292929"/>
<path d="M282.119 45.0958C281.624 43.3139 280.832 41.532 279.743 40.0471C278.456 38.2652 276.377 37.1763 274.199 37.2753C272.813 37.3743 271.625 37.9682 270.833 39.0572C270.338 39.8491 270.041 40.7401 269.942 41.631C269.249 46.3827 270.833 52.5203 275.288 54.9952C276.872 55.8861 278.951 56.1831 280.337 55.0942" fill="white"/>
<path d="M278.06 56.2824C276.972 56.2824 275.883 55.9855 274.992 55.4905C270.339 52.9167 268.656 46.482 269.349 41.5323C269.448 40.5424 269.844 39.5525 270.339 38.7605C271.23 37.5726 272.616 36.7806 274.2 36.6816C276.576 36.6816 278.852 37.7706 280.238 39.7505C281.426 41.3344 282.218 43.1163 282.713 44.9971C282.812 45.2941 282.614 45.5911 282.317 45.6901C282.02 45.7891 281.723 45.5911 281.624 45.2941C281.129 43.5122 280.436 41.8293 279.347 40.4434C278.159 38.7605 276.279 37.7706 274.299 37.8696C273.111 37.8696 272.022 38.4635 271.329 39.4535C270.933 40.1464 270.636 40.9384 270.537 41.7303C269.844 46.3831 271.428 52.2237 275.586 54.5996C276.774 55.2925 278.753 55.6885 280.04 54.6985C280.238 54.5006 280.634 54.5995 280.832 54.7975C281.03 54.9955 280.931 55.3915 280.733 55.5895C279.842 55.9855 278.951 56.2824 278.06 56.2824Z" fill="#292929"/>
<path d="M356.166 209.03C355.77 209.03 355.473 208.733 355.473 208.436C350.721 178.737 341.614 122.212 341.218 120.529C341.119 120.133 341.317 119.737 341.713 119.638C342.109 119.539 342.505 119.737 342.604 120.133C343.197 122.311 356.364 204.674 356.958 208.238C357.057 208.634 356.76 209.03 356.364 209.03H356.166Z" fill="#292929"/>
<path d="M302.116 63.0131C291.821 63.0131 288.653 49.4509 288.455 48.956C288.356 48.659 288.554 48.263 288.95 48.263C289.247 48.164 289.643 48.362 289.643 48.758C289.643 48.857 292.811 61.9242 302.116 61.9242C304.096 62.0232 305.977 61.2312 307.264 59.7463C310.432 56.0835 309.64 49.055 309.541 48.956C309.541 48.659 309.739 48.263 310.036 48.263C310.333 48.263 310.729 48.461 310.729 48.758C310.729 49.055 311.719 56.4795 308.155 60.5383C306.67 62.2212 304.492 63.1121 302.116 63.0131Z" fill="#292929"/>
<path d="M427.343 133.001H160.456C149.269 133.001 140.261 142.603 140.261 154.483V271.296C140.261 283.175 149.368 292.777 160.456 292.777H261.528L289.148 329.504L323.301 292.777H427.343C438.53 292.777 447.637 283.175 447.637 271.296V154.483C447.538 142.603 438.53 133.001 427.343 133.001Z" fill="white"/>
<path d="M289.147 330C288.949 330 288.751 329.901 288.652 329.703L261.231 293.372H160.455C148.972 293.372 139.567 283.473 139.567 271.296V154.483C139.567 142.307 148.972 132.408 160.455 132.408H427.244C438.727 132.408 448.132 142.307 448.132 154.483V271.296C448.132 283.473 438.727 293.372 427.244 293.372H323.597L289.642 329.901C289.543 330 289.345 330 289.147 330ZM160.455 133.596C149.665 133.596 140.854 142.901 140.854 154.384V271.197C140.854 282.681 149.665 291.986 160.455 291.986H261.528C261.726 291.986 261.924 292.085 262.023 292.283L289.246 328.317L322.805 292.184C322.904 292.085 323.102 291.986 323.3 291.986H427.343C438.133 291.986 446.944 282.681 446.944 271.197V154.384C446.944 142.901 438.133 133.596 427.343 133.596H160.455Z" fill="#292929"/>
<path d="M369.432 223.38C369.333 230.607 360.325 232.686 360.325 232.686C360.325 232.686 367.947 233.478 365.076 240.407C363.492 244.367 359.929 247.337 355.672 248.03C355.672 248.03 362.007 251.594 357.454 258.226C352.9 264.859 306.67 264.364 298.948 264.661C293.999 264.859 291.92 264.463 287.366 262.087C284.891 260.8 280.634 257.434 279.051 257.434C274.695 257.434 257.173 258.622 257.173 258.622L261.331 206.849C261.331 206.849 284.594 206.849 288.851 202.988C300.136 192.989 307.264 175.17 306.274 164.578C305.284 153.986 302.314 146.66 309.739 145.868C317.163 145.076 324.885 160.222 325.974 169.924C327.063 179.625 321.915 191.405 324.192 195.266C326.469 199.127 333.101 199.82 343.595 198.83C354.088 197.84 363.69 196.553 367.749 201.206C371.808 205.859 371.61 212.788 362.403 216.649C362.601 216.748 369.531 218.53 369.432 223.38Z" fill="white"/>
<path d="M297.166 265.456C293.404 265.456 291.226 264.961 287.168 262.783C286.277 262.288 285.188 261.595 284 260.803C282.317 259.714 279.941 258.13 279.149 258.13C274.892 258.13 257.469 259.219 257.271 259.318C257.073 259.318 256.875 259.219 256.677 259.12C256.578 259.021 256.479 258.823 256.479 258.625L260.637 206.851C260.637 206.455 260.934 206.257 261.33 206.257C267.765 206.257 285.089 205.564 288.455 202.595C297.562 194.576 306.768 177.054 305.581 164.878C305.383 162.799 305.086 160.918 304.888 159.037C304.195 153.89 303.601 149.831 305.383 147.455C306.471 146.267 308.055 145.475 309.639 145.475C317.46 144.683 325.478 159.829 326.567 170.125C327.062 174.975 326.072 180.321 325.181 184.974C324.29 189.626 323.597 193.487 324.686 195.17C326.666 198.536 332.507 199.526 343.495 198.437L345.277 198.239C355.374 197.249 364.086 196.358 368.244 201.011C370.422 203.288 371.313 206.455 370.719 209.524C370.224 211.603 368.739 214.474 364.185 216.85C366.363 217.741 370.026 219.82 369.927 223.581C369.828 228.828 365.373 231.6 362.502 232.689C363.789 233.184 364.779 233.976 365.472 235.065C366.363 236.55 366.363 238.43 365.472 240.707C363.987 244.469 360.918 247.34 357.057 248.429C358.245 249.419 359.037 250.805 359.433 252.29C359.829 254.567 359.235 256.942 357.849 258.724C354.187 264.07 328.448 265.06 303.898 265.357C301.621 265.357 299.938 265.357 298.849 265.456C298.354 265.357 297.76 265.456 297.166 265.456ZM279.248 256.744C280.337 256.744 282.119 257.833 284.792 259.615C285.881 260.308 286.97 261.001 287.861 261.496C292.315 263.872 294.196 264.169 299.047 263.971C300.037 263.971 301.819 263.872 304.096 263.872C317.559 263.674 353.197 263.278 356.958 257.833C359.136 255.457 359.037 251.696 356.661 249.419C356.265 249.122 355.869 248.825 355.473 248.528C355.176 248.429 355.077 248.132 355.176 247.835C355.275 247.538 355.473 247.34 355.77 247.241C359.73 246.548 363.096 243.776 364.581 240.014C365.274 238.233 365.373 236.748 364.68 235.659C363.492 233.679 360.423 233.283 360.423 233.283C360.027 233.283 359.73 232.887 359.829 232.491C359.829 232.194 360.027 231.897 360.324 231.897C360.423 231.897 368.739 229.917 368.838 223.284C368.937 219.028 362.502 217.345 362.502 217.345C362.106 217.246 361.908 216.85 362.007 216.553C362.106 216.355 362.205 216.157 362.403 216.058C366.462 214.375 369.036 211.9 369.63 209.029C370.125 206.356 369.333 203.684 367.452 201.704C363.789 197.546 355.374 198.437 345.673 199.328L343.891 199.526C332.309 200.615 326.072 199.427 323.795 195.566C322.508 193.388 323.201 189.428 324.191 184.38C325.082 179.826 325.973 174.579 325.478 169.927C324.488 160.621 316.866 145.772 310.035 146.564C308.748 146.564 307.56 147.158 306.669 148.049C305.185 149.93 305.68 153.791 306.372 158.542C306.57 160.324 306.867 162.304 307.164 164.383C308.154 174.777 301.324 192.893 289.543 203.288C285.485 206.851 265.983 207.247 262.122 207.247L258.063 257.635C261.528 257.635 275.387 256.744 279.248 256.744Z" fill="#292929"/>
<path d="M347.752 218.828C347.356 218.828 347.059 218.531 347.059 218.135C347.059 217.739 347.356 217.442 347.752 217.442C358.245 217.244 362.304 216.057 362.403 216.057C362.799 215.958 363.195 216.156 363.294 216.452C363.393 216.848 363.195 217.244 362.898 217.343H362.799C362.601 217.442 358.542 218.63 347.752 218.828Z" fill="#292929"/>
<path d="M349.534 234.569H348.742C348.346 234.569 348.049 234.272 348.049 233.876C348.049 233.48 348.346 233.183 348.742 233.183C356.364 233.282 360.027 231.995 360.126 231.995C360.522 231.896 360.918 232.094 361.017 232.391C361.116 232.787 360.918 233.183 360.621 233.282C360.423 233.381 356.958 234.569 349.534 234.569Z" fill="#292929"/>
<path d="M348.742 249.616C348.346 249.616 348.049 249.319 348.049 248.923C348.049 248.527 348.346 248.23 348.742 248.23C351.019 248.329 353.295 248.032 355.572 247.339C355.869 247.24 356.265 247.339 356.463 247.735C356.562 248.131 356.463 248.527 356.067 248.626C353.691 249.319 351.217 249.715 348.742 249.616Z" fill="#292929"/>
<path d="M274.397 265.158L211.932 267.732V198.832L274.397 201.406V265.158Z" fill="#292929"/>
<path d="M255.192 218.928C258.418 218.928 261.033 216.313 261.033 213.087C261.033 209.862 258.418 207.247 255.192 207.247C251.967 207.247 249.352 209.862 249.352 213.087C249.352 216.313 251.967 218.928 255.192 218.928Z" fill="white"/>
<path d="M255.192 219.523C251.629 219.523 248.758 216.652 248.758 213.088C248.758 209.524 251.629 206.653 255.192 206.653C258.756 206.653 261.627 209.524 261.627 213.088C261.627 216.652 258.756 219.523 255.192 219.523ZM255.192 207.94C252.322 207.94 249.946 210.217 249.946 213.088C249.946 215.959 252.223 218.335 255.093 218.335C257.964 218.335 260.34 216.058 260.34 213.187C260.439 210.217 258.063 207.94 255.192 207.94Z" fill="#292929"/>
<path d="M390.121 56.677C391.606 63.3096 396.754 68.4573 403.386 69.9422C396.754 71.4271 391.606 76.5748 390.121 83.1084C390.121 83.1084 389.824 78.8517 385.469 74.5949C381.113 70.3382 376.955 69.9422 376.955 69.9422C376.955 69.9422 381.113 69.7442 385.469 65.2895C389.824 60.8347 390.121 56.677 390.121 56.677Z" fill="#A94645"/>
<path d="M160.356 73.3079C161.445 78.3566 165.405 82.3163 170.454 83.4052C165.405 84.4942 161.445 88.4539 160.356 93.5026C159.267 88.4539 155.307 84.4942 150.259 83.4052C150.259 83.4052 153.427 83.2073 156.792 79.8415C160.158 76.4757 160.356 73.3079 160.356 73.3079Z" fill="#A94645"/>
<path d="M190.549 31.1353C191.44 35.095 194.509 38.1638 198.568 39.0548C194.608 39.9457 191.539 43.0145 190.549 46.9743C189.658 43.0145 186.59 39.9457 182.63 39.0548C186.59 38.1638 189.658 35.095 190.549 31.1353Z" fill="#A94645"/>
<path d="M391.309 124.192C386.062 122.509 379.925 121.421 375.569 124.687C373.391 126.271 372.005 128.746 370.817 131.122C368.442 135.874 366.363 140.724 364.68 145.773C364.185 147.06 363.888 148.842 365.076 149.634C366.462 150.624 368.145 149.04 369.035 147.654C370.619 145.08 371.807 142.308 372.698 139.437C370.718 143.496 369.332 147.852 368.639 152.406C368.541 153 368.541 153.495 368.639 154.089C369.233 155.078 370.421 155.375 371.411 154.782C372.302 154.188 373.094 153.396 373.49 152.505C375.767 148.743 377.648 144.684 379.034 140.526C377.648 144.882 376.361 149.337 376.46 153.99C376.361 154.782 376.658 155.573 377.153 156.068C377.945 156.563 378.836 156.464 379.529 155.87C380.123 155.276 380.618 154.584 381.014 153.792L386.458 142.407C385.27 146.664 384.578 151.02 384.479 155.474C384.479 155.87 384.479 156.167 384.677 156.563C385.27 157.751 387.151 156.959 387.844 155.87C389.032 153.99 389.824 152.01 390.22 149.832C391.705 144.288 392.992 138.547 394.675 133.003C396.16 128.35 396.655 125.974 391.309 124.192Z" fill="white"/>
<path d="M385.667 157.651H385.568C384.974 157.651 384.479 157.255 384.182 156.76C383.984 156.364 383.885 155.869 383.984 155.375C384.083 152.801 384.281 150.227 384.776 147.653L381.707 153.989C381.311 154.88 380.816 155.672 380.123 156.364C379.232 157.156 377.945 157.255 376.955 156.562C376.263 155.869 375.867 154.979 375.966 153.989C375.966 152.306 376.065 150.722 376.361 149.039C375.669 150.326 374.976 151.613 374.184 152.9C373.689 153.989 372.798 154.88 371.808 155.474C371.115 155.87 370.224 155.869 369.531 155.573C368.937 155.375 368.442 154.979 368.244 154.385C368.046 153.791 367.947 153.098 368.145 152.405C368.343 151.415 368.541 150.326 368.739 149.336C368.145 149.93 367.452 150.425 366.66 150.623C366.066 150.722 365.373 150.623 364.878 150.227C364.086 149.633 363.294 148.445 364.284 145.673C366.066 140.624 368.145 135.675 370.521 130.923C371.709 128.547 373.194 125.973 375.471 124.191C379.232 121.42 384.578 121.222 391.805 123.597C397.744 125.478 397.15 128.448 395.665 133.101C394.576 136.764 393.586 140.624 392.696 144.287C392.201 146.168 391.706 148.049 391.211 149.93C390.716 152.108 389.924 154.286 388.736 156.166C387.746 157.057 386.756 157.552 385.667 157.651ZM386.459 141.614H386.657C386.954 141.713 387.152 142.109 387.053 142.406C385.865 146.564 385.172 150.92 385.073 155.276C385.073 155.573 385.073 155.771 385.172 156.067C385.271 156.166 385.37 156.265 385.568 156.265C386.261 156.166 386.954 155.87 387.35 155.276C388.439 153.494 389.231 151.514 389.726 149.435C390.221 147.554 390.716 145.673 391.211 143.792C392.102 140.129 393.091 136.269 394.279 132.606C395.665 128.151 396.061 126.27 391.211 124.686C384.38 122.41 379.331 122.608 375.966 125.082C373.887 126.666 372.6 129.042 371.412 131.319C369.036 136.071 366.957 140.921 365.274 145.97C364.977 146.861 364.581 148.445 365.373 149.039C365.571 149.237 365.868 149.237 366.165 149.237C367.155 148.841 367.947 148.148 368.442 147.257C368.937 146.564 369.333 145.772 369.729 145.079C370.422 143.099 371.214 141.02 372.105 139.14C372.303 138.843 372.6 138.645 372.996 138.843C373.293 138.942 373.392 139.338 373.293 139.634C372.699 141.713 371.907 143.693 370.917 145.574C370.224 147.851 369.63 150.128 369.234 152.504C369.135 152.9 369.135 153.395 369.234 153.791C369.333 153.989 369.531 154.187 369.828 154.286C370.224 154.385 370.719 154.385 371.115 154.187C371.907 153.692 372.6 152.999 372.996 152.108C375.273 148.346 377.054 144.386 378.44 140.228C378.539 139.931 378.935 139.733 379.232 139.832C379.529 139.931 379.727 140.327 379.628 140.624C378.341 144.881 376.955 149.336 377.054 153.791C376.955 154.385 377.153 154.979 377.549 155.474C378.044 155.771 378.737 155.672 379.133 155.276C379.727 154.781 380.123 154.088 380.42 153.395L385.865 142.01C385.964 141.812 386.261 141.614 386.459 141.614Z" fill="#292929"/>
</g>
<defs>
<clipPath id="clip0_1504_68078">
<rect width="588" height="330" fill="white"/>
</clipPath>
</defs>
</svg>
