<svg width="16" height="16" viewBox="0 0 16 16" fill="none" xmlns="http://www.w3.org/2000/svg">
    <path fill-rule="evenodd" clip-rule="evenodd" d="M5.33331 1.33301V14.6663H2.66665V11.9997H1.33331V10.6663H2.66665V8.66634H1.33331V7.33301H2.66665V5.33301H1.33331V3.99967H2.66665V1.33301H5.33331ZM13.3366 1.33301C14.0713 1.33301 14.6666 1.93167 14.6666 2.65967V13.3397C14.6666 14.0723 14.0713 14.6663 13.3366 14.6663H6.66665V1.33301H13.3366Z" fill="#13142A"/>
    <path fill-rule="evenodd" clip-rule="evenodd" d="M5.33331 1.33301V14.6663H2.66665V11.9997H1.33331V10.6663H2.66665V8.66634H1.33331V7.33301H2.66665V5.33301H1.33331V3.99967H2.66665V1.33301H5.33331ZM13.3366 1.33301C14.0713 1.33301 14.6666 1.93167 14.6666 2.65967V13.3397C14.6666 14.0723 14.0713 14.6663 13.3366 14.6663H6.66665V1.33301H13.3366Z" fill="white" fill-opacity="0.1"/>
</svg>
