<svg width="708" height="717" viewBox="0 0 708 717" fill="none" xmlns="http://www.w3.org/2000/svg">
<g clip-path="url(#clip0_101_22657)">
<path d="M399.992 366.644C399.992 366.644 400.948 374.792 380.571 378.385C360.187 381.978 329.496 370.245 329.496 370.245C329.496 370.245 377.219 357.049 400 366.637L399.992 366.644Z" fill="#252C5E"/>
<path d="M44.3636 385.578C43.408 385.578 10.3136 384.381 0 372.754C0 372.754 10.5487 357.534 39.8059 360.171C69.0631 362.809 44.3636 385.578 44.3636 385.578Z" fill="#252C5E"/>
<path d="M101.08 371.624L97.8192 346.566H42.4444L35.4297 366.773L88.8935 381.288L101.08 371.624Z" fill="#FFB5A1"/>
<path d="M356.706 242.968C350.108 221.396 344.838 201.863 324.211 191.078C303.591 180.292 256.346 165.314 256.346 165.314L170.349 166.512C170.349 166.512 133.811 173.705 100.595 185.923C67.3797 198.149 55.9893 238.655 55.9893 238.655C55.9893 238.655 100.527 325.843 103.227 372.753C103.227 372.753 86.6797 452.203 65.0971 475.215C65.0971 475.215 145.035 502.539 198.408 500.379C251.78 498.219 325.879 466.945 325.879 466.945C325.879 466.945 321.564 444.297 318.326 401.51C315.088 358.731 317.605 373.83 317.605 373.83C317.605 373.83 352.854 363.4 399.977 366.637L356.691 242.968H356.706Z" fill="#50B2E5"/>
<path d="M325.894 466.945C325.894 466.945 305.251 411.182 277.928 391.187C250.605 371.192 290.646 355.563 290.646 355.563C290.646 355.563 304.508 338.6 302.491 320.863C302.491 320.863 305.797 344.11 309.733 367.122C313.662 390.133 318.644 405.391 318.644 405.391C318.644 405.391 321.101 439.022 325.894 466.945Z" fill="#EB5D34"/>
<path d="M251.553 124.688L249.157 162.677L256.353 165.315C256.353 165.315 245.441 192.76 203.838 198.869C162.234 204.979 171.16 166.277 171.16 166.277C171.16 166.277 179.381 157.409 179.616 143.751C179.851 130.092 179.737 120.625 179.737 120.625L188.966 106.247L251.553 124.703V124.688Z" fill="#FED068"/>
<path d="M250.832 135.595C250.832 135.595 235.521 149.67 217.76 157.886C200 166.103 179.744 131.759 179.744 131.759L181.049 109.741L251.552 124.688L250.832 135.595Z" fill="#EB5D34"/>
<path d="M257.658 120.564L239.662 137.747C226.042 150.746 204.33 149.769 191.939 135.595L177.773 119.397C173.329 114.319 170.971 107.747 171.168 101.001L172.684 49.2327C173.519 20.6879 198.044 -1.36879 226.535 0.798975C255.352 2.98948 276.336 29.0482 272.317 57.6537L265.681 104.928C264.847 110.893 262.018 116.403 257.658 120.557V120.564Z" fill="#FED068"/>
<path d="M222.281 111.499C222.281 111.499 210.723 111.726 207.061 107.99" stroke="#13142A" stroke-width="1.69" stroke-linecap="round" stroke-linejoin="round"/>
<path d="M215.19 93.8996C215.19 93.8996 207.834 88.6697 206.4 92.9597L215.19 93.8996Z" fill="#13142A"/>
<path d="M217.769 96.9538L225.511 91.4131L224.859 61.3296L233.08 96.5975L217.769 96.9538Z" fill="#EB5D34"/>
<path d="M220.612 94.4755C220.612 94.4755 228.909 90.9206 229.402 95.4154L220.612 94.4755Z" fill="#13142A"/>
<path d="M186.312 64.968C186.312 64.968 192.212 81.4537 210.518 70.6224C210.518 70.6224 202.032 53.4394 186.312 64.968Z" fill="white"/>
<mask id="mask0_101_22657" style="mask-type:luminance" maskUnits="userSpaceOnUse" x="186" y="60" width="25" height="15">
<path d="M186.312 64.968C186.312 64.968 192.212 81.4536 210.518 70.6224C210.518 70.6224 202.806 53.0528 186.312 64.968Z" fill="white"/>
</mask>
<g mask="url(#mask0_101_22657)">
<path d="M205.607 67.8728C206.118 64.7707 204.032 61.8451 200.949 61.3383C197.866 60.8315 194.953 62.9354 194.443 66.0375C193.932 69.1396 196.018 72.0651 199.101 72.572C202.184 73.0788 205.097 70.9749 205.607 67.8728Z" fill="#13142A"/>
</g>
<path d="M186.35 64.68C186.35 64.68 201.137 52.9694 210.556 70.3343" stroke="#13142A" stroke-width="1.69" stroke-linecap="round" stroke-linejoin="round"/>
<path d="M258.568 72.7294C258.568 72.7294 249.301 87.5854 233.709 73.116C233.709 73.116 243.461 58.0022 258.568 72.7294Z" fill="white"/>
<mask id="mask1_101_22657" style="mask-type:luminance" maskUnits="userSpaceOnUse" x="233" y="66" width="26" height="14">
<path d="M258.568 72.7296C258.568 72.7296 249.301 87.5856 233.709 73.1161C233.709 73.1161 244.978 57.5855 258.568 72.7296Z" fill="white"/>
</mask>
<g mask="url(#mask1_101_22657)">
<path d="M251.706 72.1925C251.866 69.0528 249.467 66.3786 246.346 66.2195C243.226 66.0604 240.567 68.4767 240.406 71.6164C240.246 74.7561 242.646 77.4302 245.766 77.5893C248.887 77.7484 251.546 75.3322 251.706 72.1925Z" fill="#13142A"/>
</g>
<path d="M258.598 72.4338C258.598 72.4338 246.169 58.0022 233.739 72.8204" stroke="#13142A" stroke-width="1.69" stroke-linecap="round" stroke-linejoin="round"/>
<path d="M82.0156 315.231C82.0156 315.231 102.711 340.76 103.333 363.764" stroke="#13142A" stroke-width="1.69" stroke-linecap="round" stroke-linejoin="round"/>
<path d="M290.639 282.154C290.639 282.154 301.119 292.584 302.939 318.824" stroke="#13142A" stroke-width="1.69" stroke-linecap="round" stroke-linejoin="round"/>
<path d="M269.776 391.187C269.776 391.187 241.717 437.824 197.839 474.495" stroke="#13142A" stroke-width="1.69" stroke-linecap="round" stroke-linejoin="round"/>
<path d="M187.768 482.643C187.768 482.643 136.427 468.741 99.5107 467.544C99.5107 467.544 174.352 463.837 252.288 416.435" stroke="#13142A" stroke-width="1.69" stroke-linecap="round" stroke-linejoin="round"/>
<path d="M189.444 500.5C154.522 500.5 85.3677 480.248 85.3677 480.248C85.3677 480.248 80.81 545.44 73.1354 596.488C65.4609 647.537 45.7969 753 45.7969 753L132.128 749.885C132.128 749.885 137.883 751.325 152.034 702.186C166.185 653.055 187.047 589.06 187.047 589.06L216.305 732.148L298.555 720.643C298.555 720.643 313.904 544.242 308.626 512.605C303.955 484.583 305.866 462.382 306.366 457.683C306.427 457.077 306.473 456.758 306.473 456.758C306.473 456.758 234.308 500.5 189.451 500.5H189.444Z" fill="#252C5E"/>
<path d="M268.372 75.6856C268.372 75.6856 271.042 53.7957 268.979 42.6991C266.916 31.6026 264.224 26.5546 264.224 26.5546L265.119 36.5293C265.119 36.5293 213.346 25.7663 188.283 26.8881L192.257 17.4742C192.257 17.4742 185.477 24.5384 181.443 36.3095C177.408 48.0807 173.829 67.9772 173.829 67.9772L169.514 62.3531L173.093 42.1913C177.81 15.6475 202.335 -2.68001 229.143 0.321515C256.11 3.3382 276.024 26.8805 274.515 53.9625L273.415 73.7831L268.357 75.6932L268.372 75.6856Z" fill="#234D9A"/>
<path d="M260.531 64.1492C260.531 64.1492 257.005 55.4251 249.293 53.5226C241.58 51.6201 235.764 59.4347 235.764 59.4347C236.894 60.1927 238.448 60.5565 239.844 60.367C242.953 59.9425 249.71 59.8895 260.531 64.1416V64.1492Z" fill="#13142A"/>
<path d="M185.008 56.888C185.008 56.888 188.534 48.1639 196.247 46.2614C203.959 44.3589 209.776 52.1735 209.776 52.1735C208.646 52.9314 207.091 53.2952 205.696 53.1058C202.586 52.6813 195.829 52.6282 185.008 56.8804V56.888Z" fill="#13142A"/>
<path d="M283.621 91.7379C286.621 82.7562 284.486 73.9514 278.852 72.0718C273.219 70.1923 266.221 75.9497 263.221 84.9315C260.221 93.9132 262.356 102.718 267.989 104.598C273.623 106.477 280.621 100.72 283.621 91.7379Z" fill="#FED068"/>
<path d="M268.373 94.392C268.373 94.392 269.723 86.6305 277.208 80.4683" stroke="#13142A" stroke-width="1.52" stroke-linecap="round" stroke-linejoin="round"/>
<path d="M268.979 92.2092C268.979 92.2092 272.612 90.2915 275.623 94.2405" stroke="#13142A" stroke-width="1.52" stroke-linecap="round" stroke-linejoin="round"/>
<path d="M169.528 93.7528C175.362 92.6405 178.652 84.1987 176.876 74.8975C175.101 65.5962 168.933 58.9578 163.099 60.07C157.265 61.1823 153.975 69.6241 155.75 78.9254C157.526 88.2266 163.694 94.8651 169.528 93.7528Z" fill="#FED068"/>
<path d="M170.501 83.614C170.501 83.614 170.197 75.7464 163.6 68.6367" stroke="#13142A" stroke-width="1.52" stroke-linecap="round" stroke-linejoin="round"/>
<path d="M170.189 81.3704C170.189 81.3704 166.845 78.9828 163.334 82.4922" stroke="#13142A" stroke-width="1.52" stroke-linecap="round" stroke-linejoin="round"/>
<path d="M324.21 191.078C324.21 191.078 319.175 233.372 313.646 254.989C308.118 276.598 298.866 299.944 304.296 333.529C309.726 367.122 310.946 377.354 310.946 377.354C310.946 377.354 367.823 364.674 399.984 366.644C399.984 366.644 354.112 236.282 349.888 222.23C345.664 208.177 335.737 194.163 324.21 191.078Z" fill="#234D9A"/>
<path d="M384.871 366.038C384.871 366.038 396.868 403.315 390.877 416.731C384.879 430.154 278.649 393.719 256.588 381.978C234.528 370.237 201.077 361.422 189.201 352.258C177.333 343.087 185.068 337.698 185.068 337.698C185.068 337.698 179.494 332.127 179.676 326.912C179.858 321.697 187.768 323.858 187.768 323.858C187.768 323.858 180.215 315.77 183.089 312.352C185.963 308.933 208.266 318.999 208.266 318.999L233.807 324.108C233.807 324.108 234.293 316.119 224.555 309.108C220.354 306.083 219.202 299.663 220.203 296.942C220.658 295.714 222.083 295.161 223.236 295.783C228.461 298.602 242.369 306.568 247.298 313.951C253.411 323.122 260.069 341.457 264.384 345.232C268.699 349.007 285.785 356.374 307.906 358.178C330.027 359.974 363.121 367.888 363.121 367.888L384.871 366.023V366.038Z" fill="#FED068"/>
<path d="M210.245 332.907C210.245 332.907 199.454 330.148 187.768 323.857" stroke="#13142A" stroke-width="1.69" stroke-linecap="round" stroke-linejoin="round"/>
<path d="M208.448 349.386C208.448 349.386 189.217 343.526 185.068 337.698" stroke="#13142A" stroke-width="1.69" stroke-linecap="round" stroke-linejoin="round"/>
<path d="M270.679 363.764C270.679 363.764 268.047 353.858 262.041 342.246" stroke="#13142A" stroke-width="1.69" stroke-linecap="round" stroke-linejoin="round"/>
<path d="M85.1783 194.526C85.1783 194.526 96.7204 222.116 97.8579 286.505C97.8579 286.505 99.8903 316.611 101.437 335.007C102.984 353.403 103.333 370.752 103.333 370.752C103.333 370.752 32.0254 359.86 0.0078125 372.753C0.0078125 372.753 48.7546 253.132 55.9286 234.297C63.1102 215.461 75.168 198.923 85.1783 194.526Z" fill="#234D9A"/>
<path d="M95.6807 245.484C95.6807 245.484 98.9188 313.791 101.437 334.999C103.954 356.207 103.234 372.746 103.234 372.746" stroke="#13142A" stroke-width="1.69" stroke-linecap="round" stroke-linejoin="round"/>
<path d="M319.418 223.556C319.418 223.556 311.63 267.025 305.388 287.035C297.865 311.154 308.27 360.171 308.27 360.171" stroke="#13142A" stroke-width="1.69" stroke-linecap="round" stroke-linejoin="round"/>
<path d="M86.5736 370.139C86.5736 370.139 128.594 372.193 146.218 370.139C163.842 368.084 185.068 348.362 185.068 348.362C185.068 348.362 188.299 352.417 193.759 355.214L190.104 360.528C190.104 360.528 211.504 358.178 222.296 357.2C233.087 356.215 251.25 352.44 246.935 358.375C242.62 364.31 229.007 369.949 228.537 369.775C228.067 369.6 245.858 369.699 253.054 369.881C260.251 370.063 262.231 376.354 256.649 379.052C251.075 381.75 246.578 381.925 246.578 381.925C246.578 381.925 254.131 382.107 245.858 386.42C237.584 390.732 230.933 400.26 215.819 404.035C200.713 407.809 160.604 402.238 160.604 402.238C160.604 402.238 124.271 414.638 98.7375 415.897C73.2039 417.155 52.334 417.511 42.4451 401.874C32.5562 386.238 35.4304 366.773 35.4304 366.773C35.4304 366.773 42.2176 365.363 86.5736 370.139Z" fill="#FED068"/>
<path d="M190.104 360.527C190.104 360.527 211.504 358.178 222.296 357.2C233.087 356.215 246.722 355.335 249.49 358.072C255.246 363.764 228.999 369.949 228.529 369.767C228.059 369.585 245.85 369.691 253.047 369.873C260.243 370.055 262.223 376.346 256.641 379.044C251.067 381.743 246.57 381.917 246.57 381.917" stroke="#13142A" stroke-width="1.69" stroke-linecap="round" stroke-linejoin="round"/>
<path d="M210.396 371.624C210.396 371.624 215.804 371.116 228.536 369.774" stroke="#13142A" stroke-width="1.69" stroke-linecap="round" stroke-linejoin="round"/>
<path d="M247.488 382C247.488 382 226.178 384.441 211.019 386.776" stroke="#13142A" stroke-width="1.69" stroke-linecap="round" stroke-linejoin="round"/>
<path d="M238.858 391.187C238.858 391.187 218.519 398.994 210.245 398.994" stroke="#13142A" stroke-width="1.69" stroke-linecap="round" stroke-linejoin="round"/>
<path d="M169.423 382.402C169.423 382.402 171.379 393.249 162.052 399.002" stroke="#13142A" stroke-width="1.69" stroke-linecap="round" stroke-linejoin="round"/>
<path d="M238.123 325.843L230.926 323.857" stroke="#13142A" stroke-width="1.69" stroke-linecap="round" stroke-linejoin="round"/>
<path d="M201.941 359.254C201.941 359.254 184.689 352.584 183.119 345.187" stroke="#13142A" stroke-width="1.69" stroke-linecap="round" stroke-linejoin="round"/>
<path d="M329.109 597.416C329.109 597.416 327.513 619.077 323.79 633.399C320.067 647.713 319.182 653.371 319.886 666.552C320.597 679.741 319.487 687.649 324.385 691.419C329.283 695.188 355.175 705.926 363.338 706.866C371.495 707.806 360.675 693.87 349.863 689.16C339.043 684.45 338.158 678.607 338.158 678.045C338.158 677.482 335.146 665.234 338.688 655.252C342.236 645.269 347.911 662.412 348.266 669.566C348.622 676.727 347.025 688.212 358.019 691.226C358.019 691.226 357.134 667.677 357.308 653.17C357.482 638.663 350.567 609.464 353.404 593.832C356.241 578.2 329.109 597.409 329.109 597.409V597.416Z" fill="#89402D"/>
<path d="M383.562 234.288L378.395 236.022C356.988 243.191 342.57 264.443 342.94 288.277C343.527 326.286 334.479 385.493 334.254 411.671C333.898 453.866 325.386 458.013 325.742 500.963C326.097 543.914 319 599.675 319 599.675C319 599.675 332.338 616.132 363.694 606.081L415.121 331.42L383.562 234.288Z" fill="#E84641"/>
<path d="M369.978 641.33L397.386 883H459.807L473.283 617.003L502.367 883C502.367 883 580.753 877.727 580.753 875.461C580.753 873.195 573.656 529.214 573.656 529.214L551.465 466.669H399.505C373.447 520.442 363.164 581.275 369.971 641.323L369.978 641.33Z" fill="#234C9A"/>
<path d="M411.115 97.0581C411.115 97.0581 390.064 109.761 393.7 124.792C397.335 139.824 413.22 154.076 413.22 154.076" stroke="#234C9A" stroke-width="2.71" stroke-miterlimit="10"/>
<path d="M406.174 144.202C398.46 157.691 398.133 174.318 419.489 183.283C433.074 188.987 416.478 205.12 416.478 205.12" stroke="#234C9A" stroke-width="2.71" stroke-miterlimit="10"/>
<path d="M466.882 43.4009C495.009 44.1871 497.295 63.2728 533.033 76.4693C533.033 76.4693 552.401 101.837 560.579 136.717C560.579 136.717 579.599 135.545 581.435 158.747C583.292 182.265 614.307 186.798 591.492 212.52C591.492 212.52 592.407 212.443 595.955 218.155C612.304 244.471 596.115 267.179 598.807 269.762C601.724 272.56 578.967 250.954 581.732 254.445C586.384 260.334 595.991 265.337 597.965 272.729C604.547 297.419 600.607 308.881 600.164 289.996C600.164 289.996 606.542 311.656 594.489 309.467C585.114 307.763 588.517 294.158 576.587 288.146C576.587 288.146 579.381 314.855 602.188 304.773C602.188 304.773 606.593 310.97 563.358 296.517C529.651 285.255 458.406 292.609 430.026 260.003C424.097 253.189 412.022 252.087 408.271 199.871C407.842 193.874 410.106 186.32 410.063 184.1C409.969 179.783 402.973 173.008 403.191 168.637C403.394 164.536 405.832 156.52 405.484 152.781C405.245 150.176 401.544 145.921 400.571 143.084C398.888 138.166 403.866 133.056 401.892 129.572C396.45 119.952 397.074 110.702 401.79 105.121C404.316 102.13 408.024 98.5612 410.426 94.4142C413.111 89.7661 412.146 77.1014 415.934 72.7231C419.221 68.9229 426.528 71.2508 430.403 67.9363C433.045 65.6777 431.992 56.1503 434.83 54.2233C440.279 50.5233 445.076 53.5912 450.852 51.5639C455.707 49.8604 460.917 43.239 466.897 43.4086L466.882 43.4009Z" fill="#234C9A"/>
<path d="M419.388 96.5415C419.388 96.5415 411.043 97.3663 412.109 104.905C413.176 112.451 412.109 121.085 412.109 121.085" stroke="#234C9A" stroke-width="2.71" stroke-miterlimit="10"/>
<path d="M468.087 128.045C468.087 128.045 498.107 110.802 486.177 141.843C479.436 159.395 494.711 155.849 499.515 163.179C502.142 167.203 500.473 172.661 503.129 176.26C505.814 179.891 514.18 182.473 517.468 185.302C521.575 188.825 522.576 197.073 529.579 197.157C539.941 197.273 549.876 208.766 538.991 218.571C538.991 218.571 551.16 222.672 554.549 213.245C558.184 203.131 551.813 196.04 547.205 189.372C547.205 189.372 557.655 197.196 559.781 200.634C565.92 210.57 557.894 224.599 566.319 231.266C570.085 234.25 554.462 253.767 561.298 259.016C568.032 264.181 565.572 275.797 557.074 275.173C557.074 275.173 565.775 281.355 571.878 277.678C579.381 273.161 576.42 263.402 576.42 263.402C577.378 267.426 587.08 273.068 590.055 282.21C595.164 297.904 608.066 318.886 600.149 289.98C600.149 289.98 612.943 310.484 595.142 313.768C588.082 315.071 599.489 306.969 591.826 302.121C588.996 300.333 581.072 291.645 577.988 289.749C572.182 286.172 564.679 288.77 559.033 283.629C529.913 257.128 471.722 210.994 471.722 210.994L477.194 215.125C477.194 215.125 432.725 277.37 427.522 248.248C427.522 248.248 410.179 253.69 416.986 224.429C418.56 217.661 431.085 214.647 427.863 206.816C426.173 202.707 420.317 197.982 423.219 192.139C428.226 182.08 427.653 178.827 425.933 179.197C420.948 180.261 421.891 185.21 421.891 185.21C414.613 177.247 421.224 175.112 424.504 168.791C431.477 155.325 418.727 127.02 418.727 127.02L468.072 128.037L468.087 128.045Z" fill="#252D5E"/>
<path d="M498.615 227.05L457.586 228.345L453.276 157.174L493.681 155.887L498.615 227.05Z" fill="#89402D"/>
<path d="M453.755 170.41L479.727 169.053L456.056 203.101L453.755 170.41Z" fill="#E84641"/>
<path d="M494.53 151.193C494.53 151.193 496.714 167.18 477.281 177.247C468.137 181.98 457.623 185.587 449.045 188.085C438.857 191.045 428.045 186.173 423.045 176.283C420.36 170.972 417.494 164.682 415.07 157.922C408.249 138.914 415.135 126.981 419.402 111.673C423.662 96.3564 430.904 82.3119 450.25 77.7486C482.208 70.21 495.589 92.7952 494.588 115.473C493.586 138.151 492.759 130.149 494.53 151.193Z" fill="#89402D"/>
<path d="M484.596 118.186L503.361 123.975" stroke="#252D5E" stroke-width="1.63" stroke-linecap="round" stroke-linejoin="round"/>
<path d="M542.989 124.291C542.524 124.985 523.49 134.335 557.473 136.771C604.467 140.139 580.237 171.342 584.867 177.116" stroke="#234C9A" stroke-width="2.71" stroke-miterlimit="10"/>
<path d="M506.502 148.69C500.122 142.582 500.434 131.168 507.199 123.196C513.963 115.224 524.618 113.713 530.998 119.821C537.377 125.929 537.065 137.343 530.301 145.315C523.536 153.287 512.881 154.798 506.502 148.69Z" fill="#89402D"/>
<path d="M511.931 140.787C511.931 140.787 513.034 132.292 523.505 125.648" stroke="#13142A" stroke-width="1.51" stroke-linecap="round" stroke-linejoin="round"/>
<path d="M512.584 138.397C512.584 138.397 517.787 136.355 522.758 140.733" stroke="#13142A" stroke-width="1.51" stroke-linecap="round" stroke-linejoin="round"/>
<path d="M453.603 74.6189C454.684 77.7562 456.128 79.3904 460.504 83.1443C464.567 86.6361 471.896 86.2199 476.679 89.573C480.916 92.5484 480.909 99.5706 484.349 103.101C487.324 106.153 493.26 109.468 495.161 116.259C495.161 116.259 522.482 132.57 535.225 127.544C555.325 119.612 551.284 100.349 531.364 79.8991C509.848 57.8149 504.834 45.1888 477.745 47.2854C461.498 48.5496 450.221 64.7755 453.61 74.6189H453.603Z" fill="#234C9A"/>
<path d="M490.132 82.6279C489.109 85.7882 489.268 88.0237 490.437 93.8665C491.525 99.2931 497.461 103.88 499.188 109.684C500.719 114.833 496.54 120.275 497.12 125.324C497.621 129.687 500.262 136.239 497.708 142.775C497.708 142.775 509.253 173.732 522.119 178.349C542.43 185.649 550.717 167.981 547.379 138.767C543.772 107.217 547.364 94.0515 525.087 77.5558C511.72 67.6584 493.339 72.715 490.132 82.6279Z" fill="#234C9A"/>
<path d="M559.665 140.085C559.665 140.085 564.433 96.6646 548.149 77.3862C544.383 72.9308 532.388 72.6456 527.047 69.1615C523.694 66.98 518.673 55.9418 512.57 54.0147C496.751 49.0121 477.927 58.7168 477.927 58.7168L530.283 80.747L559.672 140.085H559.665Z" fill="#234C9A"/>
<path d="M512.359 87.3146C512.417 55.0402 480.866 24.685 449.88 53.6218" stroke="#234C9A" stroke-width="2.71" stroke-miterlimit="10"/>
<path d="M507.222 59.665C554.81 53.5215 558.751 103.957 553.04 124.507" stroke="#234C9A" stroke-width="2.71" stroke-miterlimit="10"/>
<path d="M477.84 121.154C477.84 121.154 474.567 138.336 456.034 130.234C456.034 130.234 460.569 109.808 477.84 121.154Z" fill="white"/>
<mask id="mask2_101_22657" style="mask-type:luminance" maskUnits="userSpaceOnUse" x="456" y="117" width="22" height="16">
<path d="M477.84 121.154C477.84 121.154 474.567 138.336 456.034 130.234C456.034 130.234 460.569 109.808 477.84 121.154Z" fill="white"/>
</mask>
<g mask="url(#mask2_101_22657)">
<path d="M465.531 131.222C462.308 130.496 460.355 126.596 461.17 122.511C461.985 118.425 465.258 115.701 468.481 116.426C471.704 117.151 473.656 121.051 472.841 125.137C472.026 129.223 468.753 131.947 465.531 131.222Z" fill="#13142A"/>
</g>
<path d="M459.183 114.132L472.527 112.151" stroke="#13142A" stroke-width="1.63" stroke-linecap="round" stroke-linejoin="round"/>
<path d="M477.84 121.154C477.84 121.154 461.164 110.308 456.034 130.234" stroke="#13142A" stroke-width="1.63" stroke-linecap="round" stroke-linejoin="round"/>
<path d="M431.658 112.413L421.514 110.54" stroke="#13142A" stroke-width="1.63" stroke-linecap="round" stroke-linejoin="round"/>
<mask id="mask3_101_22657" style="mask-type:luminance" maskUnits="userSpaceOnUse" x="412" y="76" width="83" height="113">
<path d="M494.53 151.193C494.53 151.193 496.714 167.18 477.281 177.247C468.137 181.98 457.623 185.587 449.045 188.085C438.857 191.045 428.045 186.173 423.045 176.283C420.36 170.972 417.494 164.682 415.07 157.922C408.249 138.914 415.135 126.981 419.402 111.673C423.662 96.3564 430.904 82.3119 450.25 77.7486C482.208 70.21 495.589 92.7952 494.588 115.473C493.586 138.151 492.759 130.149 494.53 151.193Z" fill="white"/>
</mask>
<g mask="url(#mask3_101_22657)">
<path d="M415.723 119.512C415.723 119.512 417.305 135.784 435.207 130.041C435.207 130.041 432.732 110.632 415.723 119.512Z" fill="white"/>
<mask id="mask4_101_22657" style="mask-type:luminance" maskUnits="userSpaceOnUse" x="415" y="117" width="21" height="15">
<path d="M415.723 119.512C415.723 119.512 417.305 135.784 435.207 130.041C435.207 130.041 432.732 110.632 415.723 119.512Z" fill="white"/>
</mask>
<g mask="url(#mask4_101_22657)">
<path d="M424.284 130.439C421.454 129.154 420.329 125.206 421.771 121.62C423.214 118.034 426.678 116.169 429.508 117.454C432.338 118.739 433.463 122.687 432.021 126.273C430.578 129.859 427.114 131.724 424.284 130.439Z" fill="#13142A"/>
</g>
<path d="M415.723 119.512C415.723 119.512 431.332 110.701 435.207 130.041" stroke="#13142A" stroke-width="1.63" stroke-linecap="round" stroke-linejoin="round"/>
</g>
<path d="M447.158 159.834C447.158 159.834 442.318 163.149 436.128 159.04" stroke="#13142A" stroke-width="1.63" stroke-linecap="round" stroke-linejoin="round"/>
<path d="M445.635 115.427L434.177 145.766L444.242 151.424L445.635 115.427Z" fill="#E84641"/>
<path d="M479.799 134.913C485.017 126.758 487.063 116.968 480.321 111.28C473.58 105.591 455.221 107.657 452.398 121.678C449.575 135.699 466.541 155.641 479.806 134.905L479.799 134.913Z" stroke="#252D5E" stroke-width="1.63" stroke-linecap="round" stroke-linejoin="round"/>
<path d="M435.81 133.209C441.027 125.054 443.074 115.265 436.332 109.576C429.591 103.887 411.232 105.953 408.409 119.974C405.586 133.996 422.552 153.937 435.817 133.202L435.81 133.209Z" stroke="#252D5E" stroke-width="1.63" stroke-linecap="round" stroke-linejoin="round"/>
<path d="M452.456 128.777L447.391 127.621C447.391 127.621 443.625 120.838 438.814 127.444" stroke="#252D5E" stroke-width="1.55" stroke-linecap="round" stroke-linejoin="round"/>
<path d="M443.733 213.869L474.363 204.457L486.293 209.167L515.631 218.579L521.553 287.93L399.178 269.453L419.779 235.683L443.733 213.869Z" fill="#89402D"/>
<path d="M426.39 466.677H544.303L513.107 228.345C513.107 228.345 505.756 259.363 480.931 266.902C456.106 274.441 420.012 266.239 426.398 230.82L404.41 276.029L426.398 466.669L426.39 466.677Z" fill="white"/>
<path d="M443.733 213.869L376.849 236.647C376.849 236.647 359.201 397.534 344.891 485.886C332.562 562.028 334.369 552.146 334.369 552.146C334.369 552.146 360.181 583.75 416.935 576.589C416.935 576.589 436.876 523.186 443.733 444.069C450.591 364.951 428.008 263.225 443.733 213.869Z" fill="#E84641"/>
<path d="M513.368 218.016C513.368 218.016 508.404 354.028 529.681 421.09C550.964 488.152 565.151 531.103 571.536 580.836C571.536 580.836 611.615 570.284 622.608 549.186C622.608 549.186 584.838 469.066 579.874 337.957L583.953 235.722L513.368 218.016Z" fill="#E84641"/>
<path d="M369.746 334.434C364.528 431.928 334.37 552.146 334.37 552.146C334.37 552.146 355.784 580.543 416.936 576.589" stroke="#13142A" stroke-width="1.56" stroke-linecap="round" stroke-linejoin="round"/>
<path d="M573.708 502.221C565.761 489.639 563.2 476.673 567.989 473.259C572.778 469.846 583.103 477.279 591.05 489.86C598.997 502.442 601.557 515.408 596.768 518.821C591.979 522.235 581.655 514.802 573.708 502.221Z" fill="#234C9A"/>
<path d="M568.677 473.329C568.677 473.329 560.601 462.306 554.295 455.346C547.989 448.385 546.559 441.717 537.837 443.151C531.182 444.246 511.677 449.433 502.787 451.831C499.747 452.648 499.638 457.242 502.642 458.175C503.549 458.46 504.652 458.599 505.973 458.514C513.026 458.074 521.988 456.317 521.988 456.317L501.314 466.338C495.168 468.881 492.926 473.375 496.612 476.143C496.612 476.143 494.45 478.031 495.458 480.374C496.946 483.82 503.527 481.854 503.52 481.669C503.52 481.669 501.126 486.657 509.355 486.765C515.74 486.842 538.265 487.327 538.265 487.327C538.265 487.327 561.609 503.029 573.249 502.559C597.362 501.58 617.224 477.183 617.224 477.183L597.791 456.325L568.677 473.329Z" fill="#89402D"/>
<path d="M496.612 476.142L522.83 465.312C530.399 462.198 539.005 463.809 539.005 463.809" stroke="#13142A" stroke-width="1.56" stroke-linecap="round" stroke-linejoin="round"/>
<path d="M534.985 453.203C534.985 453.203 529.463 452.062 521.989 456.324" stroke="#13142A" stroke-width="1.56" stroke-linecap="round" stroke-linejoin="round"/>
<path d="M503.049 482.741C503.049 482.741 502.563 480.937 508.165 479.658C512.388 478.694 530.842 474.339 538.679 474.979" stroke="#13142A" stroke-width="1.56" stroke-linecap="round" stroke-linejoin="round"/>
<path d="M583.017 236.447C598.125 240.694 611.15 250.869 619.474 264.921L700.073 389.926C715.072 414.978 706.698 439.189 692.272 450.86L596.71 518.893C601.499 515.478 598.937 502.513 590.984 489.933C583.038 477.353 572.712 469.914 567.923 473.329L634.654 406.021L567.088 336.454L551.458 227.582L583.002 236.454L583.017 236.447Z" fill="#E84641"/>
<path d="M474.124 613.342L468.341 546.002" stroke="#13142A" stroke-width="1.56" stroke-linecap="round" stroke-linejoin="round"/>
<path d="M465.851 472.227L466.933 530.925" stroke="#13142A" stroke-width="1.56" stroke-linecap="round" stroke-linejoin="round"/>
<path d="M458.529 473.799C458.529 473.799 457.027 501.472 460.198 510.46C463.37 519.448 466.933 523.094 466.933 523.094" stroke="#13142A" stroke-width="1.56" stroke-linecap="round" stroke-linejoin="round"/>
<path d="M580.048 349.773L560.318 333.786L584.722 398.798L580.048 349.773Z" fill="#234C9A"/>
<path d="M492.998 110.54C492.998 110.54 496.046 116.953 491.714 137.919C487.382 158.886 483.18 162.2 499.827 177.108C516.473 192.016 501.648 187.9 503.361 210.192C505.073 232.484 507.17 248.733 526.669 243.476C526.669 243.476 517.373 244.116 514.369 233.44C511.372 222.764 531.124 218.956 523.498 203.1C523.498 203.1 538.308 189.526 520.189 176.915C502.069 164.305 517.272 149.644 507.272 142.159C507.272 142.159 524.956 110.524 492.991 110.547L492.998 110.54Z" fill="#234C9A"/>
<path d="M354.586 691.766C354.586 691.766 340.755 686.509 335.951 680.134" stroke="#13142A" stroke-width="1.56" stroke-linecap="round" stroke-linejoin="round"/>
<path d="M341.053 647.304C341.053 647.304 346.017 656.647 348.106 667.916" stroke="#13142A" stroke-width="1.56" stroke-linecap="round" stroke-linejoin="round"/>
<path d="M634.669 406.021L570.419 470.824" stroke="#13142A" stroke-width="1.56" stroke-linecap="round" stroke-linejoin="round"/>
</g>
<defs>
<clipPath id="clip0_101_22657">
<rect width="708" height="717" fill="white"/>
</clipPath>
</defs>
</svg>
