<svg width="244" height="102" viewBox="0 0 244 102" fill="none" xmlns="http://www.w3.org/2000/svg">
    <mask id="mask0_193_39307" style="mask-type:luminance" maskUnits="userSpaceOnUse" x="4" y="8" width="87" height="86">
        <path d="M34.3135 23.0391C34.3135 15.9062 40.1188 10.1108 47.2637 10.1108C54.4087 10.1108 60.214 15.9062 60.214 23.0391V30.0828C60.214 34.4874 63.8043 38.0716 68.2163 38.0716H75.2719C82.4169 38.0716 88.2221 43.8671 88.2221 51C88.2221 58.1328 82.4169 63.9283 75.2719 63.9283H68.2163C63.84 63.9283 60.2497 67.4769 60.214 71.8458C60.214 72.1846 60.214 73.4506 60.214 78.8181V78.9608C60.214 86.0937 54.4087 91.8891 47.2637 91.8891C40.1188 91.8891 34.3135 86.0937 34.3135 78.9608V71.9171C34.3135 67.5125 30.7232 63.9283 26.3112 63.9283H19.2555C12.1106 63.9283 6.30531 58.1328 6.30531 51C6.30531 43.8671 12.1106 38.0716 19.2555 38.0716C26.3112 38.0716 32.1164 43.7958 32.2058 50.8395V50.8573C32.2058 51.2496 32.2058 57.7227 32.2058 58.1328V58.1685C32.2058 61.9311 34.9566 65.9968 39.0649 66.0325C40.9583 66.0503 50.6397 66.1216 55.4626 66.0325C59.1779 65.9611 62.3217 62.359 62.3217 58.1685V43.9027C62.3217 39.516 58.7492 35.9674 54.373 35.9674H47.2637C40.1188 35.9674 34.3135 30.172 34.3135 23.0391ZM32.1879 23.0391C32.1879 31.3311 38.9399 38.0716 47.2459 38.0716H54.3551C57.5703 38.0716 60.1961 40.693 60.1961 43.9027V58.1685C60.1961 60.8968 58.267 63.8569 55.409 63.9283C50.6219 64.0174 40.9583 63.9461 39.0649 63.9283C36.2069 63.9104 34.2956 60.9325 34.2956 58.1685C34.2956 57.4017 34.2956 51.3388 34.2956 50.8038C34.2421 46.8272 32.6523 43.1003 29.8301 40.3006C26.9899 37.501 23.2388 35.9674 19.2377 35.9674C10.9317 35.9674 4.17969 42.708 4.17969 51C4.17969 59.2919 10.9317 66.0325 19.2377 66.0325H26.2933C29.5443 66.0325 32.1879 68.6716 32.1879 71.9171V78.9608C32.1879 87.2527 38.9399 93.9933 47.2459 93.9933C55.5519 93.9933 62.3038 87.2527 62.3038 78.9608V78.8181C62.3038 74.8237 62.3038 72.2916 62.3038 71.9171V71.8636C62.3217 68.6538 64.9653 66.0325 68.1984 66.0325H75.2541C83.5601 66.0325 90.312 59.2919 90.312 51C90.312 42.708 83.5601 35.9674 75.2541 35.9674H68.1984C64.9475 35.9674 62.3038 33.3283 62.3038 30.0828V23.0391C62.3038 14.7472 55.5519 8.00659 47.2459 8.00659C38.9577 8.00659 32.1879 14.7472 32.1879 23.0391Z" fill="white"/>
    </mask>
    <g mask="url(#mask0_193_39307)">
        <path d="M21.1129 -26.1599L124.554 24.8936L73.3961 128.16L-30.0449 77.1062L21.1129 -26.1599Z" fill="url(#paint0_linear_193_39307)"/>
    </g>
    <path d="M121.232 11.3589H114.355V30.4572H111.532V11.3589H104.655V9.05859H121.232V11.3589Z" fill="#00333D"/>
    <path d="M142.399 30.4572H139.559V20.5603H128.752V30.4572H125.93V9.05859H128.752V18.26H139.559V9.05859H142.399V30.4572Z" fill="#00333D"/>
    <path d="M161.047 20.5603H151.759V28.1568H162.548V30.4572H148.937V9.05859H162.405V11.3589H151.759V18.26H161.047V20.5603Z" fill="#00333D"/>
    <path d="M167.567 51.4635C167.567 53.5677 167.21 55.3866 166.513 56.9558C165.799 58.5251 164.798 59.7198 163.512 60.5401C162.208 61.3604 160.708 61.7705 158.975 61.7705C157.278 61.7705 155.796 61.3604 154.492 60.5223C153.188 59.702 152.17 58.5072 151.455 56.9737C150.741 55.4401 150.366 53.6569 150.348 51.6418V50.0904C150.348 48.0397 150.705 46.2209 151.419 44.6338C152.134 43.0646 153.152 41.852 154.456 41.0139C155.76 40.1758 157.26 39.7656 158.957 39.7656C160.672 39.7656 162.19 40.1758 163.494 41.0139C164.798 41.8342 165.816 43.0467 166.513 44.616C167.228 46.1852 167.567 48.0219 167.567 50.1083V51.4635ZM164.763 50.0904C164.763 47.5583 164.245 45.5967 163.226 44.2415C162.208 42.8863 160.779 42.2086 158.939 42.2086C157.153 42.2086 155.742 42.8863 154.724 44.2415C153.706 45.5967 153.17 47.487 153.134 49.8943V51.4635C153.134 53.9244 153.652 55.8502 154.688 57.259C155.724 58.6677 157.153 59.3632 158.957 59.3632C160.779 59.3632 162.19 58.7034 163.191 57.366C164.191 56.0464 164.709 54.1384 164.745 51.6597V50.0904H164.763Z" fill="#00333D"/>
    <path d="M179.642 51.945C177.213 51.2495 175.444 50.3936 174.355 49.3772C173.247 48.3607 172.694 47.1125 172.694 45.6146C172.694 43.9205 173.372 42.5296 174.712 41.424C176.07 40.3184 177.82 39.7656 179.982 39.7656C181.446 39.7656 182.768 40.0509 183.929 40.6216C185.09 41.1922 185.983 41.9768 186.608 42.9754C187.234 43.974 187.555 45.0618 187.555 46.2565H184.697C184.697 44.9548 184.286 43.9384 183.465 43.1894C182.643 42.4404 181.482 42.0838 179.982 42.0838C178.588 42.0838 177.499 42.387 176.713 43.0111C175.927 43.6174 175.534 44.4733 175.534 45.5611C175.534 46.4349 175.909 47.166 176.641 47.7723C177.374 48.3786 178.642 48.9314 180.428 49.4307C182.214 49.93 183.608 50.4828 184.608 51.0891C185.608 51.6953 186.358 52.3908 186.841 53.1932C187.323 53.9957 187.573 54.9408 187.573 56.0286C187.573 57.7583 186.894 59.1492 185.537 60.2013C184.179 61.2534 182.375 61.7705 180.107 61.7705C178.642 61.7705 177.266 61.4852 175.98 60.9324C174.712 60.3618 173.712 59.595 173.033 58.6142C172.336 57.6335 171.997 56.5279 171.997 55.2796H174.837C174.837 56.5814 175.319 57.5978 176.266 58.3467C177.231 59.0957 178.499 59.4702 180.107 59.4702C181.607 59.4702 182.75 59.167 183.536 58.5607C184.34 57.9544 184.733 57.1163 184.733 56.0821C184.733 55.03 184.358 54.2275 183.625 53.6569C182.911 53.0684 181.571 52.4978 179.642 51.945Z" fill="#00333D"/>
    <path d="M195.735 40.0867H192.913V61.4853H195.735V40.0867Z" fill="#00333D"/>
    <path d="M218.903 61.4853H216.063L205.274 44.9905V61.4853H202.416V40.0867H205.274L216.081 56.6528V40.0867H218.903V61.4853Z" fill="#00333D"/>
    <path d="M239.82 42.387H232.926V61.4853H230.103V42.387H223.244V40.0867H239.82V42.387Z" fill="#00333D"/>
    <path d="M107.478 84.5602V92.9413H104.655V71.5427H112.568C114.908 71.5427 116.748 72.149 118.088 73.3438C119.41 74.5385 120.088 76.1256 120.088 78.0871C120.088 80.1557 119.445 81.7606 118.141 82.884C116.837 84.0074 114.98 84.5602 112.55 84.5602H107.478ZM107.478 82.2599H112.55C114.069 82.2599 115.212 81.9032 116.034 81.1899C116.837 80.4766 117.248 79.4424 117.248 78.105C117.248 76.821 116.837 75.8046 116.034 75.0378C115.23 74.271 114.122 73.8787 112.729 73.8431H107.495V82.2599H107.478Z" fill="#00333D"/>
    <path d="M133.057 84.2927H128.02V92.9591H125.18V71.5605H132.271C134.682 71.5605 136.54 72.1133 137.844 73.2011C139.148 74.3067 139.791 75.8938 139.791 77.998C139.791 79.3354 139.434 80.4945 138.702 81.4752C137.987 82.4738 136.969 83.205 135.683 83.6864L140.72 92.763V92.9413H137.683L133.057 84.2927ZM128.02 81.9745H132.36C133.771 81.9745 134.879 81.6179 135.718 80.8868C136.54 80.1557 136.969 79.1927 136.969 77.9623C136.969 76.6427 136.576 75.6263 135.79 74.913C135.004 74.1997 133.861 73.8431 132.36 73.8431H128.038V81.9745H128.02Z" fill="#00333D"/>
    <path d="M161.761 82.9374C161.761 85.0416 161.404 86.8605 160.707 88.4297C159.993 89.9989 158.993 91.1937 157.707 92.014C156.403 92.8343 154.902 93.2444 153.17 93.2444C151.473 93.2444 149.99 92.8343 148.686 91.9962C147.382 91.1759 146.364 89.9811 145.649 88.4475C144.935 86.914 144.56 85.1308 144.542 83.1157V81.5643C144.542 79.5136 144.899 77.6947 145.614 76.1077C146.328 74.5385 147.346 73.3259 148.65 72.4878C149.954 71.6496 151.455 71.2395 153.152 71.2395C154.866 71.2395 156.385 71.6496 157.689 72.4878C158.993 73.308 160.011 74.5206 160.707 76.0899C161.422 77.6591 161.761 79.4958 161.761 81.5822V82.9374ZM158.939 81.5465C158.939 79.0143 158.421 77.0528 157.403 75.6975C156.385 74.3423 154.956 73.6647 153.116 73.6647C151.33 73.6647 149.919 74.3423 148.9 75.6975C147.882 77.0528 147.346 78.943 147.311 81.3503V82.9196C147.311 85.3804 147.829 87.3063 148.865 88.715C149.901 90.1238 151.33 90.8192 153.134 90.8192C154.956 90.8192 156.367 90.1594 157.367 88.822C158.367 87.5024 158.885 85.5944 158.921 83.1157V81.5465H158.939Z" fill="#00333D"/>
    <path d="M176.48 71.5427H179.32V86.7001C179.32 88.7508 178.695 90.3557 177.48 91.5148C176.248 92.6738 174.604 93.2445 172.55 93.2445C170.424 93.2445 168.763 92.6917 167.567 91.6217C166.37 90.534 165.78 89.0182 165.78 87.0567H168.62C168.62 88.2871 168.96 89.2322 169.621 89.9277C170.299 90.6053 171.264 90.962 172.55 90.962C173.711 90.962 174.658 90.5875 175.39 89.8564C176.105 89.1252 176.48 88.091 176.48 86.7714V71.5427Z" fill="#00333D"/>
    <path d="M197.772 83.0445H188.484V90.641H199.273V92.9413H185.644V71.5427H199.13V73.8431H188.484V80.7441H197.772V83.0445Z" fill="#00333D"/>
    <path d="M220.064 86.1472C219.796 88.4119 218.957 90.1594 217.546 91.3899C216.135 92.6203 214.259 93.2266 211.937 93.2266C209.401 93.2266 207.382 92.3171 205.846 90.4982C204.328 88.6794 203.56 86.2542 203.56 83.2227V81.172C203.56 79.1748 203.917 77.4273 204.631 75.9294C205.346 74.4136 206.346 73.2545 207.65 72.4521C208.954 71.6496 210.472 71.2395 212.187 71.2395C214.456 71.2395 216.295 71.8815 217.671 73.1475C219.046 74.4136 219.85 76.179 220.064 78.4259H217.224C216.974 76.714 216.438 75.4836 215.635 74.7168C214.813 73.95 213.67 73.5755 212.205 73.5755C210.401 73.5755 208.99 74.2353 207.954 75.5727C206.936 76.9101 206.418 78.8003 206.418 81.2612V83.3297C206.418 85.6479 206.9 87.5024 207.882 88.8755C208.847 90.2486 210.222 90.9262 211.955 90.9262C213.527 90.9262 214.724 90.5696 215.563 89.8563C216.403 89.143 216.956 87.9126 217.242 86.1472H220.064Z" fill="#00333D"/>
    <path d="M239.82 73.8431H232.926V92.9413H230.103V73.8431H223.244V71.5427H239.82V73.8431Z" fill="#00333D"/>
    <defs>
        <linearGradient id="paint0_linear_193_39307" x1="11.2557" y1="33.2315" x2="83.2084" y2="68.875" gradientUnits="userSpaceOnUse">
            <stop stop-color="#E14E34"/>
            <stop offset="1" stop-color="#FFC0CC"/>
        </linearGradient>
    </defs>
</svg>
