<svg width="174" height="106" viewBox="0 0 174 106" fill="none" xmlns="http://www.w3.org/2000/svg">
    <rect width="44" height="16" transform="translate(16 16.001)" fill="white"/>
    <path d="M30.2106 30.072C30.2159 30.072 30.2212 30.0641 30.2212 30.0641C30.2637 30.0328 30.3062 29.9935 30.3433 29.9465C30.338 29.9465 30.3327 29.9465 30.3274 29.9386C30.2902 29.9778 30.2477 30.0249 30.2106 30.072Z" fill="#000091"/>
    <path d="M36.0958 28.0888L36.0029 28.1688C36.056 28.1555 36.0958 28.1422 36.0958 28.0888Z" fill="#000091"/>
    <path fill-rule="evenodd" clip-rule="evenodd" d="M34.1931 30.1147C34.3635 29.9432 34.534 29.7613 34.7044 29.5742H34.6993C35.0195 29.2105 35.3295 28.8623 35.7014 28.5453C35.815 28.4414 35.9235 28.353 36.0268 28.2803C36.042 28.265 36.0497 28.2423 36.0573 28.22C36.0652 28.1968 36.073 28.174 36.0888 28.1608C36.0152 28.1889 35.9565 28.2333 35.8975 28.278C35.8364 28.3242 35.775 28.3707 35.6962 28.3998C35.6652 28.3998 35.6342 28.3686 35.6652 28.3375C35.7737 28.2595 35.8822 28.1764 35.9855 28.0932H35.9648C35.9338 28.0932 35.9338 28.062 35.9338 28.0309C35.5493 27.9698 35.2539 28.2328 34.9896 28.4683L34.9731 28.483C34.9319 28.5037 34.893 28.4831 34.8625 28.467C34.847 28.4588 34.8337 28.4518 34.8232 28.4518C34.5893 28.5302 34.3876 28.6748 34.1845 28.8204C33.9975 28.9545 33.8093 29.0894 33.5939 29.1741V29.1117C33.5207 29.137 33.4484 29.1699 33.3759 29.2028C33.2692 29.2513 33.1622 29.3 33.0515 29.3248C32.8493 29.3717 32.6618 29.3657 32.48 29.3598C32.4204 29.3579 32.3612 29.356 32.3025 29.356C31.9716 29.3888 31.645 29.4596 31.3188 29.5304L31.2125 29.5534C31.2074 29.556 31.2022 29.5573 31.197 29.5586C31.1919 29.5599 31.1867 29.5612 31.1815 29.5638C30.9852 29.6158 30.8045 29.6885 30.6237 29.7925L30.603 29.8029C30.5959 29.8124 30.5888 29.8208 30.5822 29.8287C30.5744 29.8379 30.5673 29.8464 30.5617 29.8548C30.4997 29.9276 30.4429 29.9899 30.3551 30.0367C30.2254 30.1019 30.1133 30.2026 30.003 30.3015C29.9552 30.3444 29.9076 30.3872 29.8592 30.4264C29.8488 30.4368 29.8282 30.442 29.8127 30.442C29.6526 30.5979 29.4924 30.7538 29.3271 30.9045C29.3168 30.9149 29.2703 30.9201 29.2341 30.9149C29.2341 30.9149 29.2393 30.9149 29.2393 30.9097L29.2548 30.8785L29.3323 30.7538C29.3478 30.7304 29.362 30.7071 29.3762 30.6837C29.3904 30.6603 29.4046 30.6369 29.4201 30.6135C29.4614 30.5512 29.5028 30.4887 29.5492 30.4316C29.5596 30.416 29.5596 30.4005 29.5492 30.3901C29.5389 30.3797 29.5234 30.3745 29.5079 30.3745C29.6577 30.229 29.8333 30.1043 30.0141 29.9951V29.9899C29.9935 29.9951 29.9625 29.9795 29.978 29.9588C29.9931 29.9397 30.0055 29.9178 30.0171 29.8973L30.0296 29.8756C30.0322 29.8704 30.0335 29.8665 30.0348 29.8626C30.0361 29.8587 30.0374 29.8548 30.04 29.8496C30.0374 29.8444 30.0335 29.8405 30.0296 29.8366C30.0257 29.8327 30.0219 29.8288 30.0193 29.8236L29.988 29.8443C29.9505 29.8688 29.912 29.894 29.8798 29.9224C29.857 29.942 29.8357 29.969 29.8139 29.9966C29.7665 30.0565 29.7165 30.1198 29.6422 30.1198C29.637 30.1198 29.6112 30.1198 29.5957 30.1147C29.5802 30.1147 29.5699 30.1095 29.5647 30.1043C29.5647 30.1017 29.5647 30.1004 29.5654 30.0997C29.566 30.0991 29.5673 30.0991 29.5699 30.0991C29.5699 30.0991 29.5751 30.0939 29.5751 30.0887C29.5751 30.0887 29.5751 30.0835 29.5802 30.0835C29.5828 30.0783 29.5854 30.0744 29.588 30.0705C29.5905 30.0666 29.5931 30.0627 29.5957 30.0575C29.5983 30.0523 29.6009 30.0484 29.6035 30.0445C29.606 30.0406 29.6086 30.0367 29.6112 30.0315C29.6138 30.0289 29.6151 30.025 29.6164 30.0211C29.6177 30.0172 29.619 30.0133 29.6215 30.0107L29.6274 30C29.6325 29.9909 29.6386 29.98 29.6422 29.9691C29.6448 29.964 29.6474 29.9601 29.65 29.9562C29.6525 29.9523 29.6551 29.9484 29.6577 29.9432C29.6655 29.9328 29.6719 29.9211 29.6784 29.9094C29.6848 29.8977 29.6913 29.886 29.699 29.8756C29.7042 29.8652 29.7094 29.8548 29.7197 29.8444C29.7249 29.834 29.73 29.8249 29.7352 29.8158C29.7404 29.8068 29.7455 29.7977 29.7507 29.7873C29.7662 29.7613 29.7507 29.7405 29.73 29.7353C29.7868 29.6626 29.854 29.6002 29.9366 29.5534H29.9263C29.9976 29.5176 30.071 29.4755 30.1438 29.4338C30.1868 29.4092 30.2303 29.3843 30.2724 29.3612C30.2879 29.3456 30.3034 29.33 30.3241 29.3196C30.1536 29.3767 29.9986 29.4547 29.8488 29.5586C29.8488 29.5586 29.8075 29.5742 29.7972 29.5846C29.7972 29.5846 29.7662 29.595 29.7249 29.5586C29.7197 29.5534 29.7197 29.5482 29.7197 29.5378C29.7376 29.5017 29.7747 29.4778 29.8147 29.4519C29.8438 29.4332 29.8744 29.4134 29.9005 29.3871C29.9315 29.3871 29.9573 29.3871 29.9573 29.4183C30.5522 28.9518 31.2858 28.8438 32.0218 28.7355C32.4745 28.6689 32.9282 28.6022 33.3511 28.4518C33.395 28.4206 33.4402 28.3907 33.4854 28.3608C33.5306 28.331 33.5758 28.3011 33.6197 28.2699C33.695 28.2385 33.7625 28.1848 33.834 28.1279C33.9047 28.0717 33.9792 28.0124 34.0691 27.9685C34.3067 27.7866 34.4875 27.5788 34.5805 27.2722C34.5805 27.241 34.5495 27.2098 34.5495 27.2098C34.1569 27.6307 33.7075 27.9633 33.2271 28.2075C32.769 28.4493 32.2782 28.4851 31.7923 28.5206C31.6097 28.5339 31.4279 28.5472 31.2487 28.5713C31.2797 28.5089 31.3417 28.5089 31.3985 28.5089C31.3985 28.4351 31.4339 28.4034 31.4792 28.3627C31.4913 28.3518 31.5042 28.3402 31.5173 28.3271H31.6051C31.6206 28.3271 31.6284 28.3115 31.6361 28.2959C31.6439 28.2803 31.6516 28.2647 31.6671 28.2647C31.7291 28.2647 31.8169 28.2335 31.7859 28.2335C31.7385 28.1726 31.6697 28.1967 31.5937 28.2233C31.5206 28.2489 31.441 28.2768 31.3675 28.2335C31.3948 28.2035 31.403 28.1676 31.4105 28.1348C31.4186 28.0994 31.4258 28.0678 31.4553 28.0516H31.5741C31.5741 27.9893 31.6361 27.9321 31.6361 27.9321C31.9055 27.7701 32.1656 27.6287 32.4209 27.4899C32.5914 27.3972 32.76 27.3055 32.9275 27.2098C32.8936 27.2098 32.8636 27.2237 32.8344 27.2373C32.788 27.2588 32.7438 27.2793 32.6899 27.241C32.7209 27.241 32.7209 27.2189 32.7209 27.1968C32.7209 27.1747 32.7209 27.1526 32.7519 27.1526C32.9457 27.1009 33.1181 27.0169 33.2943 26.9312C33.4187 26.8707 33.5449 26.8093 33.6817 26.7577C33.6411 26.7577 33.6035 26.7686 33.5668 26.7793C33.4963 26.7998 33.4293 26.8193 33.3511 26.7577C33.3716 26.7474 33.3882 26.7342 33.4045 26.7212C33.4375 26.6949 33.4697 26.6694 33.5319 26.6694V26.581C33.5319 26.5499 33.5629 26.5499 33.5939 26.5499C33.5629 26.5499 33.5319 26.5187 33.5319 26.5187C33.5483 26.4857 33.5806 26.4789 33.6166 26.4713C33.6486 26.4646 33.6835 26.4572 33.7127 26.4303C33.6817 26.4303 33.6248 26.4303 33.6248 26.3992C33.7127 26.2796 33.8625 26.2485 34.0123 26.2173C33.9968 26.1861 33.9671 26.1861 33.9412 26.1861C33.9154 26.1861 33.8935 26.1861 33.8935 26.1549C33.8935 26.1237 33.9244 26.1237 33.9554 26.1237H33.8935C33.8448 26.0993 33.8534 26.0556 33.8594 26.0254C33.861 26.0171 33.8625 26.0098 33.8625 26.0042C33.9838 25.8612 34.0237 25.6925 34.0634 25.5247C34.0828 25.4425 34.1022 25.3605 34.1311 25.2819C34.1001 25.2819 34.0691 25.2819 34.0691 25.2507C33.7786 25.5731 33.3183 25.6953 32.8809 25.8114L32.8397 25.8223H32.6899C32.5401 25.8847 32.3283 25.8847 32.1785 25.7912C32.1073 25.7538 32.0565 25.7071 32.0016 25.6566C31.9649 25.6229 31.9265 25.5875 31.8789 25.5521C31.6361 25.4014 31.3985 25.2819 31.1299 25.1884C30.3809 24.9493 29.6009 24.8246 28.8209 24.8558C29.0387 24.736 29.27 24.6883 29.5044 24.64C29.6257 24.615 29.7479 24.5899 29.8695 24.5544C29.9462 24.5318 30.0222 24.5085 30.0978 24.4853C30.5262 24.354 30.9419 24.2265 31.3985 24.253C31.3387 24.2318 31.2622 24.2395 31.1917 24.2465C31.1587 24.2498 31.1269 24.253 31.0989 24.253C30.7536 24.2273 30.4048 24.3042 30.0409 24.3844C29.9638 24.4014 29.8861 24.4185 29.8075 24.4349C29.665 24.4646 29.5294 24.5072 29.3937 24.5498C29.2441 24.5969 29.0943 24.644 28.9345 24.6739C28.8652 24.6978 28.8096 24.7385 28.7554 24.7782C28.6682 24.842 28.5847 24.903 28.4541 24.887V24.7934C28.7537 24.4297 29.1153 24.0711 29.5957 24.04C30.0601 23.9643 30.4979 24.0182 30.9547 24.0744C31.0314 24.0838 31.1087 24.0933 31.1867 24.1023C31.5611 24.1324 31.9115 24.216 32.289 24.306L32.3283 24.3154C32.4109 24.3154 32.4574 24.3881 32.5024 24.4586C32.539 24.5159 32.5746 24.5716 32.6279 24.5856C32.7014 24.6109 32.775 24.6157 32.8485 24.6204C32.9558 24.6273 33.063 24.6342 33.1703 24.7051C33.1703 24.6841 33.1668 24.6637 33.1633 24.6435C33.1564 24.6037 33.1497 24.5646 33.1703 24.5232C33.2369 24.4562 33.3133 24.4742 33.3885 24.4919C33.4474 24.5057 33.5055 24.5194 33.5577 24.492C33.7215 24.3904 33.5679 24.2343 33.4141 24.0781C33.3399 24.0027 33.2657 23.9274 33.2271 23.8581C33.2271 23.8269 33.2581 23.7957 33.2581 23.7957C33.3259 23.8565 33.3891 23.9195 33.4518 23.9819C33.6086 24.1381 33.762 24.2908 33.9761 24.3985C34.1259 24.4609 34.4875 24.5492 34.4255 24.3673C34.3194 24.1318 34.1382 23.9275 33.9552 23.7213C33.8798 23.6363 33.8041 23.5511 33.7333 23.4631V23.3436C33.6862 23.3436 33.6749 23.3256 33.6609 23.3033C33.6564 23.2963 33.6517 23.2888 33.6455 23.2813V23.1617C33.5698 23.122 33.5528 23.059 33.5358 22.9957C33.526 22.9597 33.5163 22.9236 33.4957 22.8915C33.4439 22.8076 33.4402 22.7043 33.4364 22.5979C33.4333 22.5132 33.4302 22.4265 33.4027 22.3459C33.3407 22.164 33.3149 22.0133 33.2839 21.8314C33.2503 21.6454 33.2133 21.4675 33.177 21.2933C33.1131 20.9859 33.0516 20.6901 33.0153 20.3816C32.9675 19.9407 33.1901 19.5678 33.4177 19.1866C33.4852 19.0736 33.5531 18.9599 33.6145 18.8435C33.8263 18.4797 34.0639 18.1211 34.4565 17.8769C34.5421 17.5221 34.7752 17.2267 35.0071 16.9327L35.0247 16.9104C35.2536 16.6251 35.6358 16.4506 35.9175 16.3221L35.9493 16.3076C36.3678 16.1205 36.7448 16.001 36.75 16.001H16V32.001H30.7218C31.1155 31.7155 31.5068 31.5354 31.9726 31.321C32.1852 31.2232 32.4132 31.1182 32.6641 30.9929C32.7172 30.9661 32.7803 30.9351 32.8504 30.9006C33.2708 30.6937 33.9407 30.3641 34.1931 30.1147ZM29.5217 27.956C29.4633 27.9619 29.4013 27.9681 29.4247 27.9212C29.4464 27.816 29.5541 27.7845 29.6592 27.7537C29.7043 27.7405 29.7488 27.7274 29.786 27.7088L29.8029 27.7L29.8154 27.6934C29.8736 27.6625 29.9449 27.6246 29.9975 27.6466C30.033 27.6971 30.077 27.7101 30.1198 27.7228C30.1516 27.7322 30.1827 27.7415 30.2091 27.7658C30.0975 27.8778 29.9672 27.8889 29.8351 27.9001C29.7474 27.9075 29.6588 27.915 29.5744 27.9522C29.5592 27.9522 29.5406 27.9541 29.5217 27.956ZM24.9516 27.2253C24.9516 27.2564 24.9826 27.2876 24.9826 27.2876C25.7058 26.4718 26.3618 25.7754 27.2916 25.1986C27.3165 25.1882 27.3072 25.2012 27.2949 25.2185C27.2766 25.2443 27.2515 25.2796 27.3226 25.261C27.6304 25.1908 27.7687 24.9271 27.9032 24.6705C27.9379 24.6041 27.9725 24.5382 28.0096 24.4763C28.1507 24.2469 28.351 24.0998 28.5529 23.9517C28.6985 23.8449 28.8449 23.7374 28.9704 23.5981C28.9704 23.6293 28.9704 23.6605 28.9394 23.6916C28.9704 23.7228 29.0014 23.7228 29.0324 23.7228C29.0869 23.6817 29.1464 23.6647 29.2034 23.6484C29.2761 23.6276 29.3448 23.6079 29.394 23.5409C29.1564 23.4474 28.8516 23.4162 28.614 23.5098C27.9838 23.8112 27.4466 24.2944 26.9352 24.8401C26.6253 25.1674 26.305 25.474 25.9124 25.6871C25.6438 26.2275 25.3442 26.7108 24.9516 27.2253ZM27.4734 25.2926C27.4572 25.3251 27.4411 25.342 27.4256 25.3582C27.4115 25.3729 27.398 25.387 27.3857 25.4117C27.3547 25.4739 27.3238 25.4998 27.267 25.5309C27.236 25.5309 27.2051 25.5309 27.2051 25.4998C27.236 25.3807 27.3238 25.2615 27.4425 25.2304C27.4734 25.2356 27.4734 25.2667 27.4734 25.2926ZM28.7943 29.9074C28.8202 29.8814 28.8511 29.8503 28.8666 29.8191C28.8924 29.7567 28.7324 29.7723 28.7066 29.7879C28.6832 29.8068 28.6683 29.8256 28.6503 29.8484L28.6447 29.8555C28.6232 29.8802 28.598 29.9032 28.5724 29.9264C28.555 29.9422 28.5375 29.9582 28.5208 29.975C28.4486 30.0477 28.3763 30.1205 28.2989 30.188C28.2473 30.2348 28.4125 30.2556 28.4486 30.2244C28.4899 30.1932 28.526 30.1569 28.5621 30.1205C28.5759 30.1205 28.5896 30.1182 28.5988 30.1166L28.6051 30.1156L28.6086 30.1153C28.6941 30.0866 28.7578 30.027 28.8197 29.9691L28.8356 29.9542C28.8563 29.9334 28.8305 29.9126 28.7943 29.9074ZM28.3273 29.5695C28.3267 29.5696 28.3263 29.5698 28.326 29.57C28.3254 29.5707 28.3254 29.572 28.3254 29.5746C28.2937 29.5963 28.2624 29.6185 28.2312 29.6405C28.1505 29.6977 28.0702 29.7545 27.9845 29.8032C27.9025 29.8494 27.8185 29.8893 27.7337 29.9295C27.6849 29.9527 27.6358 29.976 27.5867 30.0007C27.5867 30.0007 27.5867 29.9955 27.5816 29.9955C27.5712 29.9799 27.5506 29.9747 27.5299 29.9851C27.4163 30.0475 27.3181 30.1306 27.2303 30.219C27.2148 30.2294 27.1993 30.2449 27.189 30.2605L27.1425 30.3073V30.3125C27.1218 30.3333 27.1012 30.3541 27.0753 30.3852C27.07 30.3906 27.0658 30.3961 27.0619 30.4012C27.0544 30.411 27.0475 30.42 27.034 30.4268C27.0133 30.4372 26.9617 30.4372 26.9669 30.406V30.4008C26.9514 30.4112 26.9307 30.4216 26.9152 30.4268C26.9075 30.432 26.8997 30.4359 26.892 30.4398C26.8842 30.4437 26.8765 30.4476 26.8687 30.4528C26.8635 30.4476 26.8532 30.4476 26.848 30.4476C26.8429 30.4476 26.8326 30.4476 26.8274 30.4528C26.8153 30.4632 26.8033 30.473 26.7912 30.4828C26.7671 30.5025 26.743 30.5221 26.7189 30.5463C26.6569 30.6035 26.6001 30.6659 26.5433 30.7334C26.5433 30.7334 26.5433 30.7386 26.5381 30.7386C26.5381 30.7412 26.5368 30.7425 26.5355 30.7438C26.5342 30.7451 26.5329 30.7464 26.5329 30.749L26.5226 30.7594C26.5206 30.7614 26.5194 30.7634 26.5184 30.7651C26.5167 30.7678 26.5155 30.7698 26.5123 30.7698L26.5071 30.775C26.502 30.7854 26.4968 30.7958 26.4865 30.8062C26.4813 30.8114 26.471 30.8166 26.4606 30.8166C26.4555 30.8114 26.4503 30.8062 26.4503 30.801C26.4477 30.7984 26.4464 30.7958 26.4451 30.7932C26.4438 30.7906 26.4426 30.788 26.44 30.7854C26.4348 30.7776 26.4309 30.7698 26.4271 30.762C26.4232 30.7542 26.4193 30.7464 26.4141 30.7386V30.7334C26.4141 30.7308 26.4128 30.7282 26.4116 30.7256C26.4103 30.723 26.409 30.7204 26.409 30.7178L26.502 30.6087L26.5071 30.6035C26.5123 30.5983 26.5174 30.5918 26.5226 30.5853C26.5278 30.5788 26.5329 30.5723 26.5381 30.5671C26.5459 30.5567 26.5549 30.5463 26.5639 30.5359C26.573 30.5256 26.582 30.5152 26.5898 30.5048C26.5924 30.4996 26.5949 30.4957 26.5975 30.4918C26.6001 30.4879 26.6027 30.484 26.6053 30.4788C26.6363 30.4372 26.6673 30.3956 26.6982 30.3489V30.3437C26.7034 30.3385 26.7086 30.3333 26.7086 30.3229C26.7241 30.3021 26.7396 30.2813 26.7499 30.2605L26.7809 30.1982V30.193L26.7861 30.1878C26.7861 30.1852 26.7874 30.1839 26.7886 30.1826C26.7899 30.1813 26.7912 30.18 26.7912 30.1774C26.7964 30.1644 26.8016 30.1527 26.8067 30.141C26.8119 30.1293 26.8171 30.1176 26.8222 30.1046V30.0994L26.8274 30.0787C26.83 30.0735 26.8313 30.0683 26.8326 30.0631C26.8338 30.0579 26.8351 30.0527 26.8377 30.0475V30.0423C26.8403 30.0345 26.8416 30.0267 26.8429 30.0189C26.8442 30.0111 26.8455 30.0033 26.848 29.9955C26.848 29.9903 26.848 29.9799 26.8429 29.9747C26.8739 29.9176 26.9152 29.8656 26.9617 29.8136C26.9591 29.8136 26.9565 29.8149 26.9539 29.8162C26.9525 29.817 26.951 29.8177 26.9495 29.8182C26.9484 29.8186 26.9473 29.8188 26.9462 29.8188C26.9232 29.8333 26.9034 29.8526 26.8833 29.8722C26.8672 29.8879 26.8509 29.9037 26.8326 29.9176C26.8016 29.9435 26.7396 29.902 26.7809 29.8708C26.8067 29.85 26.8274 29.8292 26.848 29.8085C26.848 29.8085 26.848 29.8032 26.8532 29.8032C26.8738 29.7846 26.8936 29.7635 26.9135 29.7422C26.9436 29.7101 26.974 29.6775 27.0082 29.6525C27.0443 29.6266 27.0702 29.6058 27.1012 29.5798C27.1063 29.5746 27.1115 29.5694 27.1167 29.5694C27.1373 29.5434 27.158 29.5174 27.1838 29.4914C27.1838 29.4914 27.189 29.4914 27.189 29.4863C27.3664 29.3142 27.6156 29.2535 27.8701 29.1915C28.0305 29.1525 28.193 29.1129 28.3409 29.0446C28.4244 29.0098 28.5175 29.0235 28.6096 29.037C28.6826 29.0477 28.755 29.0584 28.8213 29.0446C28.9091 29.0446 29.0021 29.0446 29.0899 29.1069C28.8856 29.2157 28.6907 29.3401 28.4979 29.4632C28.442 29.4988 28.3862 29.5344 28.3306 29.5694C28.3291 29.5694 28.3281 29.5694 28.3273 29.5695ZM28.9728 27.4516C28.9486 27.4543 28.933 27.4561 28.9464 27.4696C29.0342 27.558 29.215 27.5268 29.339 27.4593C29.4268 27.3969 29.5198 27.3969 29.6386 27.3969C29.6696 27.3969 29.6696 27.3397 29.6696 27.3086C29.7574 27.3397 29.8194 27.3397 29.9072 27.3397C30.6252 27.189 31.3174 27.0383 31.9786 26.7058C31.3096 26.1887 30.4848 25.9584 29.6769 25.7329C29.5429 25.6954 29.4093 25.6581 29.277 25.6197C29.3061 25.6197 29.3352 25.6294 29.3644 25.6391C29.4235 25.6588 29.4834 25.6788 29.5456 25.6197C29.4636 25.5543 29.3724 25.5418 29.282 25.5294C29.2072 25.5192 29.133 25.509 29.0652 25.469C29.0723 25.469 29.0807 25.4706 29.0899 25.4724C29.1208 25.4784 29.1601 25.4859 29.184 25.4378C29.0271 25.3589 28.8702 25.3321 28.7118 25.305C28.6303 25.2911 28.5485 25.2771 28.466 25.2559C28.6158 25.2248 28.7088 25.1052 28.7088 24.9545C28.7088 24.9234 28.6468 24.9234 28.6158 24.9234C28.2594 25.1052 28.0166 25.4378 27.8668 25.8276C28.0019 25.9071 28.1474 25.8979 28.2901 25.8888C28.3711 25.8837 28.4513 25.8786 28.528 25.8899C28.4603 25.9543 28.3624 25.9717 28.2683 25.9885C28.2332 25.9948 28.1987 26.001 28.1664 26.0094C28.0734 26.0302 27.9856 26.0978 28.0166 26.1601C28.0373 26.1861 28.0579 26.1965 28.0838 26.2017C28.0166 26.2225 27.9546 26.2537 27.8978 26.3108C27.9828 26.3778 28.0705 26.3649 28.1571 26.3521C28.1914 26.347 28.2256 26.342 28.2594 26.342C28.2594 26.3797 28.2842 26.3926 28.3099 26.4059C28.3232 26.4128 28.3367 26.4198 28.3472 26.4303C28.1974 26.4875 28.0786 26.6122 28.0476 26.7006C28.0106 26.7906 27.9422 26.8491 27.8744 26.9071C27.8288 26.9462 27.7834 26.985 27.748 27.0331V27.1267C27.6482 27.2152 27.5456 27.2942 27.4445 27.3721C27.2367 27.5322 27.0348 27.6877 26.875 27.9113C26.906 27.9113 26.906 27.9425 26.906 27.9737C26.8774 28.0168 26.8368 28.0467 26.7982 28.075C26.7531 28.1081 26.7109 28.1392 26.6942 28.1868C26.6942 28.2179 26.6942 28.2491 26.7252 28.2491C26.9148 28.1865 27.0788 28.081 27.2395 27.9775C27.3855 27.8837 27.5287 27.7915 27.686 27.7347C27.8146 27.7037 27.9265 27.6455 28.0357 27.5886C28.1283 27.5403 28.219 27.4931 28.3162 27.4645C28.3911 27.4489 28.4738 27.4268 28.5564 27.4047C28.6391 27.3826 28.7217 27.3605 28.7966 27.3449C28.7966 27.3761 28.7966 27.4073 28.8276 27.4073H29.0652C29.0506 27.4426 29.0044 27.4479 28.9728 27.4516Z" fill="#000091"/>
    <path d="M60.0003 16.001H42.7928C42.7928 16.001 42.8241 16.0062 42.9541 16.0738C43.0945 16.1466 43.2766 16.2454 43.3858 16.3027C43.6095 16.4171 43.8228 16.5627 43.9632 16.7864C44.0257 16.8748 44.1141 17.0569 44.0569 17.1765C43.9945 17.3274 43.9632 17.5718 43.8124 17.6291C43.6303 17.7227 43.391 17.7227 43.1778 17.6915C43.0581 17.6915 42.9385 17.6603 42.8137 17.6291C43.2662 17.8111 43.6927 18.0244 43.9945 18.4457C44.0257 18.5081 44.1453 18.5341 44.2649 18.5341C44.2962 18.5341 44.2962 18.5966 44.2962 18.6226C44.2337 18.685 44.1765 18.7162 44.2077 18.8046H44.2962C44.447 18.7422 44.4158 18.4405 44.6291 18.5341C44.7799 18.6226 44.8423 18.8358 44.7487 18.9867C44.6291 19.1063 44.5094 19.1999 44.3846 19.2884C44.3534 19.3508 44.3534 19.4392 44.3846 19.5016C44.473 19.6213 44.5042 19.7409 44.5354 19.8657C44.6291 20.079 44.6551 20.3183 44.7487 20.5315C44.8684 20.9841 44.988 21.4366 44.962 21.8943C44.962 22.1336 44.8423 22.3469 44.9308 22.5914C44.9932 22.8306 45.144 23.0127 45.2637 23.2259C45.3833 23.408 45.503 23.5276 45.5966 23.7097C45.7787 24.0114 46.1116 24.3131 45.9607 24.6772C45.8723 24.8904 45.5394 24.8592 45.3261 24.9789C45.144 25.1297 45.2949 25.3742 45.3885 25.525C45.5394 25.7955 45.2065 25.9776 44.9932 26.0712C45.0556 26.1648 45.1753 26.1336 45.2065 26.1908C45.2377 26.3417 45.3885 26.4301 45.2949 26.5862C45.1753 26.7682 44.8111 26.8566 44.9932 27.1323C45.1128 27.3456 45.0348 27.5796 44.962 27.7981C44.8736 28.0686 44.6291 28.1882 44.4158 28.2507C44.2337 28.3131 44.0205 28.3131 43.8436 28.2819C43.7812 28.2507 43.724 28.2194 43.6615 28.2194C43.1466 28.157 42.6316 28.0114 42.1218 28.0114C41.971 28.0426 41.8201 28.0686 41.7005 28.131C41.5652 28.2298 41.4404 28.3391 41.3363 28.4535C41.3363 28.4535 41.3363 28.4535 41.3311 28.4587C41.3103 28.4847 41.2843 28.5055 41.2635 28.5315C41.2531 28.5471 41.2375 28.5627 41.2271 28.5784C41.2167 28.5888 41.2115 28.5992 41.2011 28.6096C41.1127 28.7188 41.0346 28.8384 40.9618 28.9581C40.9566 28.9685 40.9514 28.9737 40.9462 28.9789C40.941 28.9945 40.9306 29.0049 40.9202 29.0205C40.8214 29.2025 40.7485 29.3898 40.6913 29.577C40.4833 30.2689 40.5769 30.8618 40.7225 31.0075C40.7642 31.0491 41.7213 31.3456 42.3871 31.6421C42.6992 31.7825 42.9177 31.8865 43.0997 32.001H59.9951V16.001H60.0003Z" fill="#E1000F"/>
    <path d="M43.8134 21.8431C43.9334 21.8741 44.1158 21.8741 44.1158 21.9362C44.0533 22.1739 43.6935 22.236 43.511 22.4789H43.4172C43.3285 22.5409 43.3546 22.6908 43.266 22.6908C43.1773 22.6598 43.0835 22.6908 42.9949 22.7218C43.1148 22.8407 43.266 22.9338 43.4485 22.9028C43.4797 22.9028 43.5371 22.9648 43.5371 23.0216C43.5371 23.0216 43.5684 23.0216 43.5997 22.9906C43.6309 22.9906 43.6622 22.9906 43.6622 23.0216V23.1405C43.5736 23.2594 43.4172 23.2026 43.2973 23.2284C43.5423 23.2904 43.7822 23.2904 43.9959 23.2284C44.1784 23.1664 43.9959 22.8666 44.1158 22.7167C44.0533 22.7167 44.1158 22.6236 44.0533 22.6236C44.1158 22.5616 44.1732 22.4737 44.2358 22.4427C44.2983 22.4427 44.387 22.4117 44.4182 22.3497C44.4182 22.2877 44.2983 22.2618 44.3244 22.1998C44.5069 22.0809 44.6581 21.9 44.5955 21.7191C44.5642 21.626 44.3244 21.626 44.1732 21.5692C44.022 21.5123 43.8395 21.5692 43.657 21.6002C43.5058 21.6002 43.3546 21.6932 43.2034 21.7191C42.9896 21.7811 42.8072 21.9 42.6299 22.0189C42.8437 21.931 43.0522 21.9 43.2973 21.838C43.4797 21.8431 43.6309 21.8018 43.8134 21.8431Z" fill="#CECECE"/>
    <path d="M22.8 51.193C23.856 51.193 24.768 50.825 25.408 50.217V48.265H22.56V46.329H27.68V51.033C26.64 52.425 24.896 53.321 22.8 53.321C19.168 53.321 16.688 50.601 16.688 47.401C16.688 44.201 19.104 41.481 22.64 41.481C24.672 41.481 26.336 42.393 27.36 43.753L25.568 45.145C24.928 44.233 23.92 43.609 22.64 43.609C20.528 43.609 19.024 45.257 19.024 47.401C19.024 49.545 20.608 51.193 22.8 51.193ZM35.5638 41.481C39.0838 41.481 41.4998 44.201 41.4998 47.401C41.4998 50.601 39.0838 53.321 35.5638 53.321C32.0278 53.321 29.6117 50.601 29.6117 47.401C29.6117 44.201 32.0278 41.481 35.5638 41.481ZM35.5638 51.193C37.6597 51.193 39.1638 49.545 39.1638 47.401C39.1638 45.257 37.6597 43.609 35.5638 43.609C33.4518 43.609 31.9478 45.257 31.9478 47.401C31.9478 49.545 33.4518 51.193 35.5638 51.193ZM50.5224 48.809V41.801H52.7944V48.617C52.7944 51.561 51.0664 53.321 48.2504 53.321C45.4504 53.321 43.7224 51.561 43.7224 48.617V41.801H45.9944V48.809C45.9944 50.313 46.8424 51.193 48.2664 51.193C49.6584 51.193 50.5224 50.313 50.5224 48.809ZM54.4488 41.801H56.8648L60.1768 50.553L63.4888 41.801H65.9048L61.6648 53.001H58.6888L54.4488 41.801ZM67.8742 53.001V41.801H74.4023V43.689H70.1462V46.345H73.7622V48.233H70.1462V51.113H74.4023V53.001H67.8742ZM77.2824 53.001V41.801H80.7064C83.1704 41.801 84.6904 43.065 84.6904 45.145C84.6904 46.505 84.0344 47.513 82.8824 48.041L86.3864 53.001H83.7144L80.7224 48.473H79.5544V53.001H77.2824ZM80.8344 43.689H79.5544V46.585H80.8344C81.7944 46.585 82.3544 46.025 82.3544 45.113C82.3544 44.265 81.7944 43.689 80.8344 43.689ZM88.0655 53.001V41.801H90.9775L95.9855 49.897V41.801H98.2575V53.001H95.3455L90.3375 44.905V53.001H88.0655ZM101.63 53.001V41.801H108.158V43.689H103.902V46.345H107.518V48.233H103.902V51.113H108.158V53.001H101.63ZM111.038 53.001V41.801H113.87L116.606 46.505L119.342 41.801H122.174V53.001H119.902V44.969L117.406 49.161H115.806L113.31 44.969V53.001H111.038ZM125.54 53.001V41.801H132.068V43.689H127.812V46.345H131.428V48.233H127.812V51.113H132.068V53.001H125.54ZM134.948 53.001V41.801H137.86L142.868 49.897V41.801H145.14V53.001H142.228L137.22 44.905V53.001H134.948ZM147.36 43.865V41.801H156.544V43.865H153.088V53.001H150.816V43.865H147.36Z" fill="#161616"/>
    <path fill-rule="evenodd" clip-rule="evenodd" d="M57.57 82.1629L56.0819 83.5229H55.6979L56.5779 81.9709H57.57V82.1629ZM56.498 87.4261H56.1779C55.7779 87.9061 55.3299 88.2901 54.8979 88.2901C54.4498 88.2901 54.2258 88.0181 54.2258 87.4261C54.2258 87.1861 54.2578 86.9302 54.3058 86.7062L56.914 85.8422C57.426 84.6263 56.818 84.0983 56.0979 84.0983C54.8659 84.0983 53.4578 86.2582 53.4578 87.9861C53.4578 88.802 53.8418 89.25 54.4498 89.25C55.1539 89.234 55.8899 88.5461 56.498 87.4261ZM55.6029 84.8027C55.9549 84.8027 56.2589 85.0747 56.0989 85.6987L54.4828 86.1306C54.7388 85.3627 55.2189 84.8027 55.6029 84.8027ZM50.5153 84.8343H51.3794L50.0033 88.6101C49.8753 88.9301 50.0513 89.2501 50.3873 89.2501C51.3634 89.2501 52.5314 88.4181 52.9795 87.2342H52.7395C52.3874 87.7301 51.6194 88.2741 51.0434 88.3701L52.3074 84.8343H53.6035L53.7635 84.2903H52.4994L52.9795 82.9304H52.4834L51.5874 84.2903L50.5153 84.4343V84.8343ZM49.3144 84.1152C49.4904 84.1152 49.7304 84.3072 49.6184 84.6592L48.0663 88.419C48.4663 88.355 48.8823 87.971 49.1223 87.619H49.3784C49.0103 88.563 48.1783 89.2509 47.4582 89.2509C47.2822 89.2509 47.0262 89.059 47.1542 88.707L48.5943 84.9472C48.1943 85.0112 47.7783 85.3952 47.5382 85.7471H47.2982C47.6663 84.7872 48.5623 84.1152 49.3144 84.1152ZM49.7635 83.1549C50.0835 83.1549 50.3555 82.8989 50.3555 82.5629C50.3555 82.2429 50.0835 81.9709 49.7635 81.9709C49.4274 81.9709 49.1714 82.2429 49.1714 82.5629C49.1714 82.8829 49.4434 83.1549 49.7635 83.1549ZM42.7708 86.2751C43.1228 85.5072 42.9948 85.1552 42.7708 85.1552C42.5788 85.1552 42.3547 85.3632 42.1307 85.7471H41.8907C42.2587 84.9312 42.7388 84.1152 43.2668 84.1152C43.7148 84.1152 43.8748 84.5632 43.8748 85.0592V85.7631C43.9469 85.6794 44.017 85.5971 44.0855 85.5168L44.0867 85.5153L44.0877 85.5141C44.7637 84.7209 45.2799 84.1152 45.875 84.1152C46.339 84.1152 46.579 84.4032 46.579 84.8352C46.579 85.0912 46.499 85.4112 46.323 85.7471L44.9949 88.419C45.3949 88.355 45.811 87.971 46.051 87.619H46.291C45.923 88.579 45.0269 89.2509 44.2749 89.2509C43.9388 89.2509 43.7468 88.899 43.8908 88.611L45.4269 85.6512C45.603 85.3152 45.635 85.0912 45.3629 85.0912C44.9949 85.0912 44.1309 85.6992 43.6668 86.2591L42.6588 88.915C42.5468 89.187 42.4348 89.2509 42.1787 89.2509C41.7627 89.2509 41.5547 88.979 41.7467 88.547L42.7708 86.2751ZM41.7295 85.2503C41.9055 84.6423 41.8095 84.0983 41.3455 84.0983C40.7668 84.0983 40.5856 84.4805 40.0248 85.6632L39.9854 85.7462V85.0423C39.9854 84.5463 39.8254 84.0983 39.3774 84.0983C38.8493 84.0983 38.3693 84.9143 38.0013 85.7302H38.2413C38.4973 85.3622 38.7373 85.1383 38.9293 85.1383C39.1534 85.1383 39.2814 85.4902 38.9293 86.2582L37.9053 88.5301C37.7133 88.962 37.9213 89.234 38.3373 89.234C38.5933 89.234 38.7053 89.17 38.8173 88.898L39.8254 86.2422C40.1134 85.8902 40.3694 85.5862 40.6895 85.2503H41.7295ZM36.6736 85.6987C36.8336 85.0747 36.5296 84.8027 36.1775 84.8027C35.7935 84.8027 35.3135 85.3627 35.0575 86.1306L36.6736 85.6987ZM37.0726 87.4261H36.7526C36.3526 87.9061 35.9045 88.2901 35.4725 88.2901C35.0245 88.2901 34.8005 88.0181 34.8005 87.4261C34.8005 87.1861 34.8325 86.9302 34.8805 86.7062L37.4886 85.8422C38.0007 84.6263 37.3926 84.0983 36.6726 84.0983C35.4405 84.0983 34.0324 86.2582 34.0324 87.9861C34.0324 88.802 34.4164 89.25 35.0245 89.25C35.7285 89.234 36.4646 88.5461 37.0726 87.4261ZM31.954 84.8343H31.09V84.4343L32.162 84.2903L33.0581 82.9304H33.5541L33.0741 84.2903H34.3382L34.1782 84.8343H32.8821L31.618 88.3701C32.194 88.2741 32.9621 87.7301 33.3141 87.2342H33.5541C33.1061 88.4181 31.938 89.2501 30.9619 89.2501C30.6259 89.2501 30.4499 88.9301 30.5779 88.6101L31.954 84.8343ZM26.5145 87.7625C26.5145 86.5946 27.8105 85.0266 28.5306 85.0266C28.6906 85.0266 28.8506 85.0426 28.9786 85.0906L28.2266 87.1065C27.7945 87.6345 27.1225 88.2745 26.8025 88.2745C26.6265 88.2745 26.5145 88.1145 26.5145 87.7625ZM30.0831 83.8587L30.4831 83.8907L29.091 87.0906C28.755 87.8585 28.899 88.2105 29.091 88.2105C29.283 88.2105 29.5231 87.9865 29.7791 87.6185H30.0191C29.6511 88.4345 29.171 89.2504 28.643 89.2504C28.195 89.2504 27.923 88.7705 28.003 87.9065L28.035 87.6025L27.9478 87.7242C27.3746 88.5254 26.856 89.2504 26.3228 89.2504C25.8588 89.2504 25.6188 88.9625 25.6188 88.5305C25.6188 86.6746 27.6509 84.3067 29.5551 84.3067H29.6351L30.0831 83.8587ZM26.4179 85.2503C26.5939 84.6423 26.4979 84.0983 26.0338 84.0983C25.4551 84.0983 25.2739 84.4805 24.7131 85.6632L24.6737 85.7462V85.0423C24.6737 84.5463 24.5137 84.0983 24.0657 84.0983C23.5377 84.0983 23.0576 84.9143 22.6896 85.7302H22.9296C23.1856 85.3622 23.4257 85.1383 23.6017 85.1383C23.8257 85.1383 23.9537 85.4902 23.6017 86.2582L22.5776 88.5461C22.3856 88.978 22.5936 89.25 23.0096 89.25C23.2657 89.25 23.3777 89.186 23.4897 88.914L24.4977 86.2582C24.7858 85.9062 25.0418 85.6022 25.3618 85.2663H26.4179V85.2503ZM19.8242 88.7691L19.7282 89.0571H16L16.096 88.7531C17.2481 88.5451 17.4401 88.4491 17.9201 87.1532L18.9602 84.3693C19.4242 83.0734 19.3282 82.9774 18.3201 82.7694L18.4162 82.4814H23.2645L22.9765 84.0333H22.6244C22.6244 83.1054 22.5284 82.8654 21.6484 82.8654H21.4244C20.5603 82.8654 20.4483 82.9934 20.2083 83.6654L19.5202 85.5373H20.5283C21.2003 85.5373 21.4564 85.1213 21.7604 84.5773H22.1124L21.2803 86.8492H20.9283C21.0083 86.1612 21.0083 85.8892 20.3843 85.8892H19.3762L18.9122 87.1692C18.4106 88.5014 18.5539 88.5285 19.7484 88.7547C19.7732 88.7594 19.7985 88.7642 19.8242 88.7691Z" fill="#161616"/>
    <path fill-rule="evenodd" clip-rule="evenodd" d="M22.9922 69.923L21.5041 70.9952V71.0112H21.1201L22.0002 69.731H22.9922V69.923ZM33.3943 77.4282L35.7785 71.0911L35.6985 70.9951L34.0504 71.1871V71.3791L34.3704 71.6192C34.6436 71.8317 34.5713 72.0298 34.3446 72.6506L34.3064 72.7554L32.4823 77.6203C32.3383 77.9083 32.5303 78.2604 32.8663 78.2604C33.6183 78.2604 34.4184 77.5723 34.7864 76.6281H34.5464C34.2904 76.9802 33.7784 77.3642 33.3943 77.4282ZM44.3219 72.5473L45.81 71.1871V70.9951H44.8179L43.9379 72.5473H44.3219ZM44.4169 76.436H44.7369C44.1448 77.5722 43.4088 78.2604 42.7048 78.2604C42.0967 78.2604 41.7127 77.8123 41.7127 76.9961C41.7127 75.2678 43.1208 73.1074 44.3529 73.1074C45.0569 73.1074 45.6809 73.6355 45.1689 74.8517L42.5447 75.7159C42.4967 75.9399 42.4647 76.196 42.4647 76.436C42.4647 77.0281 42.6888 77.3002 43.1368 77.3002C43.5688 77.3002 44.0168 76.9161 44.4169 76.436ZM44.3361 74.7078C44.4961 74.0997 44.1921 73.8276 43.8401 73.8276C43.472 73.8276 42.992 74.3877 42.72 75.1398L44.3361 74.7078ZM39.6318 73.8592H38.7677V73.4591L39.8398 73.3151L40.7358 71.9549H41.2319L40.7518 73.3151H42.0159L41.8559 73.8592H40.5598L39.2957 77.3959C39.8718 77.2998 40.6398 76.7557 40.9919 76.2597H41.2319C40.7838 77.4439 39.6158 78.276 38.6397 78.276C38.3037 78.276 38.1277 77.956 38.2557 77.6359L39.6318 73.8592ZM37.8715 73.6672C37.9676 73.3151 37.7435 73.1231 37.5515 73.1231C36.7995 73.1231 35.9034 73.8112 35.5354 74.7554H35.7754C36.0154 74.4033 36.4315 74.0192 36.8315 73.9552L35.3914 77.7159C35.2634 78.068 35.5194 78.26 35.6954 78.26C36.4155 78.26 37.2475 77.5719 37.6155 76.6277H37.3755C37.1355 76.9798 36.7195 77.3638 36.3195 77.4278L37.8715 73.6672ZM38.6088 71.5872C38.6088 71.9072 38.3368 72.1793 38.0167 72.1793C37.6967 72.1793 37.4247 71.9072 37.4247 71.5872C37.4247 71.2671 37.6807 70.9951 38.0167 70.9951C38.3368 70.9951 38.6088 71.2671 38.6088 71.5872ZM30.5299 74.0516C29.8099 74.0516 28.5138 75.6199 28.5138 76.7881C28.5138 77.1402 28.6258 77.3002 28.8178 77.3002C29.1219 77.3002 29.7939 76.6601 30.2259 76.132L30.978 74.1156C30.834 74.0676 30.69 74.0516 30.5299 74.0516ZM32.4825 72.9154L32.0824 72.8834L31.6344 73.3315H31.5544C29.6503 73.3315 27.6182 75.6999 27.6182 77.5563C27.6182 77.9884 27.8582 78.2764 28.3222 78.2764C28.8554 78.2764 29.374 77.5512 29.9472 76.7498L30.0343 76.6281L30.0023 76.9322C29.9223 77.7963 30.1943 78.2764 30.6424 78.2764C31.1704 78.2764 31.6504 77.4603 32.0184 76.6441H31.7784C31.5224 77.0122 31.2824 77.2362 31.0904 77.2362C30.8984 77.2362 30.7544 76.8842 31.0904 76.116L32.4825 72.9154ZM24.4171 78.1005C23.729 78.3726 23.249 78.6926 23.249 79.1887C23.249 79.6528 23.681 79.8448 24.5771 79.8448C25.7771 79.8448 26.4332 79.4928 26.4332 79.0287C26.4332 78.8207 26.1612 78.7246 25.4411 78.4846C24.9771 78.3406 24.6411 78.2125 24.4171 78.1005ZM25.2161 76.1321C24.896 76.1321 24.784 75.86 24.784 75.572C24.784 74.6438 25.2321 73.4916 25.9521 73.4916C26.2721 73.4916 26.3841 73.7637 26.3841 74.0517C26.3681 74.9959 25.9201 76.1321 25.2161 76.1321ZM25.8257 77.6362C26.7058 77.9083 27.2498 78.1163 27.2498 78.7244C27.2498 79.5086 25.8097 80.4368 24.0656 80.4208C23.0575 80.4208 22.1935 80.1487 22.1935 79.4926C22.1935 78.8685 22.7695 78.3564 24.1776 77.9403C23.9856 77.8123 23.9056 77.6523 23.9056 77.4282C23.9056 77.0441 24.2576 76.7401 24.8656 76.452C24.2736 76.372 23.8896 75.9239 23.8896 75.2678C23.8896 74.2596 24.7216 73.1074 26.0337 73.1074C26.3057 73.1074 26.5458 73.1714 26.7378 73.2995H28.1779L28.0178 73.8436H27.1698C27.2178 73.9876 27.2498 74.1476 27.2498 74.3236C27.2498 75.2998 26.4657 76.42 25.2177 76.484C24.8976 76.6601 24.7376 76.9001 24.7376 77.0922C24.7376 77.3181 24.9994 77.3945 25.5779 77.5634C25.6548 77.5858 25.7374 77.6099 25.8257 77.6362ZM20.7523 74.8999C21.3763 74.8999 21.3923 75.1719 21.2963 75.86H21.6484L22.4804 73.5876H22.1284C21.8244 74.1317 21.5684 74.5478 20.8963 74.5478H19.5202L20.1923 72.6755C20.4323 72.0033 20.5443 71.8753 21.4083 71.8753H22.0164C22.8964 71.8753 22.9924 72.1154 22.9924 73.0435H23.3445L23.6325 71.4913H18.4162L18.3201 71.7793C19.3282 71.9873 19.4242 72.0834 18.9602 73.3796L17.9201 76.1801C17.4401 77.4763 17.2481 77.5724 16.08 77.7804L16 78.0844H21.7924L22.8324 76.4361H22.4324C21.7604 77.0923 21.0883 77.7004 19.7762 77.7004C18.333 77.7004 18.3588 77.6297 18.7918 76.4401C18.8196 76.3635 18.8492 76.2822 18.8802 76.1961L19.3602 74.9159H20.7523V74.8999Z" fill="#161616"/>
    <path fill-rule="evenodd" clip-rule="evenodd" d="M25.5339 61.1855C25.8539 61.1855 26.1259 60.9134 26.1259 60.5933C26.1259 60.2731 25.8539 60.001 25.5339 60.001C25.198 60.001 24.942 60.2731 24.942 60.5933C24.942 60.9294 25.198 61.1855 25.5339 61.1855ZM30.2713 63.2021C30.2713 62.4337 30.0793 62.1456 29.5353 62.1456C28.8634 62.1456 28.2394 62.8659 27.6155 63.7303L28.9594 60.1286L28.8794 60.0166L27.2315 60.2087V60.4007L27.5515 60.6409C27.8301 60.8577 27.7493 61.0745 27.512 61.7116L27.4875 61.7774L26.0316 65.5872C25.9036 65.9073 25.7596 66.2915 25.7596 66.3876C25.7596 66.8358 26.3676 67.268 26.9275 67.268C28.1754 67.284 30.2713 64.9789 30.2713 63.2021ZM44.1421 61.5693L45.63 60.2087V60.0166H44.6381L43.7582 61.5693H44.1421ZM44.2385 65.4592H44.5585C43.9505 66.5957 43.2146 67.284 42.5106 67.268C41.9027 67.268 41.5187 66.8358 41.5187 66.0194C41.5187 64.2906 42.9266 62.1296 44.1585 62.1296C44.8624 62.1296 45.4864 62.6578 44.9744 63.8744L42.3666 64.7388C42.3186 64.9629 42.2866 65.219 42.2866 65.4592C42.2866 66.0514 42.5106 66.3236 42.9586 66.3236C43.3905 66.3236 43.8385 65.9394 44.2385 65.4592ZM44.1569 63.7304C44.3169 63.1221 44.0129 62.85 43.661 62.85C43.277 62.85 42.7971 63.4102 42.5411 64.1626L44.1569 63.7304ZM39.4355 62.8829H38.5716V62.4827L39.6435 62.3386L40.5394 60.978H41.0354L40.5554 62.3386H41.8193L41.6594 62.8829H40.3635L39.0996 66.4206C39.6755 66.3245 40.4435 65.7803 40.7954 65.284H41.0354C40.5874 66.4686 39.4195 67.301 38.4436 67.301C38.1076 67.301 37.9317 66.9808 38.0596 66.6607L39.4355 62.8829ZM38.1267 63.2991C38.3027 62.6908 38.2067 62.1465 37.7427 62.1465C37.1641 62.1465 36.9829 62.5289 36.4222 63.7122L36.3828 63.7953V63.091C36.3828 62.5947 36.2228 62.1465 35.7749 62.1465C35.2469 62.1465 34.7669 62.9629 34.399 63.7793H34.639C34.8949 63.4111 35.1349 63.187 35.3109 63.187C35.5349 63.187 35.6629 63.5392 35.3109 64.3075L34.287 66.5806C34.095 67.0128 34.303 67.2849 34.719 67.2849C34.9749 67.2849 35.0869 67.2209 35.1989 66.9488L36.2068 64.2915C36.4948 63.9394 36.7508 63.6352 37.0708 63.2991H38.1267ZM33.0555 63.7304C33.2154 63.1221 32.9115 62.85 32.5595 62.85C32.1755 62.85 31.7116 63.4102 31.4396 64.1626L33.0555 63.7304ZM33.4544 65.4592H33.1345C32.7345 65.9394 32.2865 66.3236 31.8546 66.3236C31.4066 66.3236 31.1826 66.0514 31.1826 65.4592C31.1826 65.219 31.2146 64.9629 31.2626 64.7388L33.8704 63.8744C34.3824 62.6578 33.7744 62.1296 33.0545 62.1296C31.8226 62.1296 30.4147 64.2906 30.4147 66.0194C30.4147 66.8358 30.7986 67.268 31.4066 67.268C32.1105 67.284 32.8465 66.5957 33.4544 65.4592ZM26.7362 66.068C26.7362 66.2761 27.1041 66.5162 27.3601 66.5162C28.4 66.5162 29.376 64.6433 29.36 63.6028C29.36 63.2507 29.184 63.1066 28.944 63.1066C28.56 63.1066 27.8561 63.6829 27.4081 64.2271L26.9921 65.3477C26.8482 65.7158 26.7362 66.004 26.7362 66.068ZM25.0566 62.1465C25.2486 62.1465 25.4726 62.3386 25.3766 62.6908L23.8407 66.4525C24.2407 66.3885 24.6566 66.0043 24.8966 65.6522H25.1366C24.7686 66.5966 23.9367 67.2849 23.2167 67.2849C23.0248 67.2849 22.7688 67.0928 22.8968 66.7407L24.3367 62.9789C23.9367 63.0429 23.5207 63.4271 23.2807 63.7793H23.0408C23.4087 62.8348 24.3047 62.1465 25.0566 62.1465ZM18.4158 60.4817H21.8555L21.7595 60.7858C20.5916 60.9939 20.3996 61.09 19.9197 62.3866L18.8958 65.2039C18.3998 66.5485 18.5278 66.7086 19.4077 66.7086C20.4949 66.7086 21.2077 65.918 21.8302 65.2277C21.8764 65.1764 21.9222 65.1256 21.9675 65.0758H22.3675L21.2316 67.0928H16L16.096 66.8046C17.2479 66.5966 17.4399 66.5005 17.9198 65.2039L18.9598 62.3706C19.4237 61.074 19.3277 60.9779 18.3198 60.7698L18.4158 60.4817Z" fill="#161616"/>
</svg>
