<svg width="686" height="634" viewBox="0 0 686 634" fill="none" xmlns="http://www.w3.org/2000/svg">
<path d="M667.632 593.172C667.632 593.172 635.13 624.519 555.843 655.411C448.55 697.215 318.074 674.646 318.074 674.646L470.401 604.841C470.401 604.841 631.252 565.742 667.632 593.16V593.172Z" fill="#13142A"/>
<path d="M5.86541 258.215C2.62626 250.037 16.4409 236.919 36.7212 228.916C57.0015 220.914 76.0677 221.057 79.3069 229.235C82.546 237.414 68.7315 250.532 48.4512 258.534C28.1709 266.537 9.10456 266.394 5.86541 258.215Z" fill="#234C9A"/>
<path d="M72.3072 208.382C72.3072 208.382 78.4385 190.896 89.7202 174.657C100.99 158.418 102.158 157.148 103.758 143.52C105.358 129.893 106.888 86.3402 105.849 76.921C104.797 67.5017 98.7245 67.9564 95.4778 80.1268C92.2311 92.2972 90.526 112.068 90.526 112.068C90.526 112.068 84.3129 91.2597 81.9422 81.0827C79.5714 70.9057 75.5889 64.0628 71.4896 70.1363C67.3787 76.2098 69.6444 84.6265 69.6444 84.6265C69.6444 84.6265 64.9846 82.9595 61.8546 86.6783C58.7247 90.397 61.6444 108.268 61.6444 108.268C61.6444 108.268 56.2839 108.862 56.9612 120.45C57.6386 132.037 60.3948 155.749 60.3948 155.749C60.3948 155.749 39.9569 172.99 36.3715 188.879C32.7861 204.78 33.0197 215.249 36.0445 223.444C39.0693 231.651 68.2196 223.91 72.3072 208.371V208.382Z" fill="#89402D"/>
<path d="M80.9376 163.641C80.9376 163.641 88.6456 145.817 95.3609 128.517C102.076 111.217 94.6018 104.782 86.0996 114.19C77.6092 123.597 73.5332 138.985 60.3713 155.76" stroke="#13142A" stroke-width="1.77331" stroke-linecap="round" stroke-linejoin="round"/>
<path d="M69.6204 84.6263L78.543 125.532" stroke="#13142A" stroke-width="1.77331" stroke-linecap="round" stroke-linejoin="round"/>
<path d="M61.6328 108.268L67.9277 144.336" stroke="#13142A" stroke-width="1.77331" stroke-linecap="round" stroke-linejoin="round"/>
<path d="M69.5622 208.335L80.8906 255.98L45.0018 275.646L33.8602 212.555L69.5622 208.335Z" fill="#89402D"/>
<path d="M48.4236 258.568C66.771 251.328 79.8279 239.892 79.7461 231.72L155.063 392.535L220.627 318.499L309.608 341.44L339.646 455.148C339.646 455.148 132.371 571.617 96.6686 533.591C58.7827 493.232 5.8428 258.241 5.8428 258.241C9.07782 266.425 28.1493 266.565 48.4236 258.568Z" fill="#C54C3B"/>
<path d="M295.745 565.253L338.979 727L602.312 669.47L499.761 505.496L295.745 565.253Z" fill="#234C9A"/>
<path d="M222.928 111.369C222.928 111.369 197.655 137.773 209.065 156.646C220.476 175.52 249.299 188.005 249.299 188.005" stroke="#234C9A" stroke-width="3.39996" stroke-miterlimit="10"/>
<path d="M235.05 177.63C229.397 199.324 235.727 222.08 270.308 225.018C292.311 226.883 274.886 256.015 274.886 256.015" stroke="#234C9A" stroke-width="3.39996" stroke-miterlimit="10"/>
<path d="M281.695 14.2035C322.723 3.07064 333.841 28.0409 390.962 30.5007C390.962 30.5007 429.362 56.6134 455.475 100.504C455.475 100.504 482.523 90.6649 494.669 121.417C506.979 152.601 553.717 145.315 531.224 190.196C531.224 190.196 530.85 192.551 539.983 195.92C544.152 197.459 555.679 198.543 560.643 200.886C566.015 203.428 566.879 210.644 572.31 214.199C581.454 220.191 597.408 222.826 603.282 232.023C622.902 262.753 647.591 264.058 639.218 238.563C639.218 238.563 657.308 265.259 638.972 267.509C624.701 269.257 598.365 265.259 578.64 262.263C578.64 262.263 593.6 297.375 622.494 273.769C622.494 273.769 593.332 317.543 524.847 316.633C471.452 315.934 359.744 306.456 305.333 274.41C293.97 267.719 269.129 261.657 260.849 252.436C255.138 246.071 257.964 233.213 256.995 230.205C255.091 224.365 242.198 218.198 240.714 212.159C239.336 206.494 239.582 194.533 237.549 189.602C236.136 186.163 229.036 181.978 226.478 178.551C222.028 172.594 227.144 163.478 222.858 159.596C211.05 148.871 208.166 136.024 212.709 126.383C215.138 121.219 219.05 114.761 220.825 108.07C222.811 100.585 216.236 83.7753 219.926 76.1863C223.126 69.5882 234.653 69.5882 238.916 63.3981C241.824 59.1781 236.405 46.6813 239.71 42.8226C246.075 35.4201 254.285 37.5185 261.818 32.261C268.148 27.8428 272.983 16.5817 281.707 14.2152L281.695 14.2035Z" fill="#234C9A"/>
<path d="M244.545 46.7979C244.545 46.7979 231.885 46.3432 232.107 57.173C232.329 68.0028 229.164 79.9634 229.164 79.9634" stroke="#234C9A" stroke-width="3.39996" stroke-miterlimit="10"/>
<path d="M562.36 258.404C562.36 258.404 607.568 313.008 620.894 269.339C620.894 269.339 627.854 285.1 618.418 294.286C594.208 317.823 536.188 295.125 518.132 284.564C491.014 268.698 562.36 258.416 562.36 258.416V258.404Z" fill="#252D5E"/>
<path d="M318.063 128.808C318.063 128.808 354.454 92.3438 349.888 139.731C347.307 166.52 367.967 155.073 377.917 162.976C383.371 167.301 383.172 175.462 388.498 179.204C393.823 182.946 407.032 182.864 412.953 185.277C420.334 188.297 425.158 199.08 435.33 196.142C450.372 191.805 469.455 203.136 457.706 221.182C457.706 221.182 477 221.485 478.051 207.193C479.184 191.864 467.061 184.974 457.66 177.91C457.66 177.91 475.984 184.018 480.468 187.772C493.42 198.625 487.546 221.182 502.459 226.603C509.128 229.028 532.567 225.099 544.608 229.273C556.649 233.446 557.665 250.233 545.099 253.077C545.099 253.077 560.223 257.717 567.557 250.069C576.573 240.674 568.293 228.69 568.293 228.69C571.329 233.749 587.679 237.211 595.726 248.356C609.542 267.486 662.494 274.445 639.218 238.564C639.218 238.564 666.114 260.899 641.705 273.081C632.012 277.919 619.516 277.931 606.447 274.655C601.624 273.443 586.593 265.073 581.361 263.825C571.493 261.47 561.706 268.255 551.429 263.72C498.442 240.312 357.281 240.056 357.281 240.056L366.892 243.296C366.892 243.296 316.592 301.934 297.147 264.583C297.147 264.583 293.748 264.117 289.637 261.529C287.617 260.258 291.809 255.129 288.691 247.785C286.204 241.921 277.55 244.649 279.371 235.451C282.513 219.597 280.341 215.423 278.005 216.671C271.22 220.285 274.618 226.603 274.618 226.603C260.826 218.932 269.526 213.162 271.675 203.136C276.253 181.792 246.227 148.836 246.227 148.836L318.063 128.82V128.808Z" fill="#252D5E"/>
<path d="M402.781 225.915L329.94 226.067L294.332 255.945L253.386 309.989L288.691 347.339L410.874 321.308L402.781 225.915Z" fill="#89402D"/>
<path d="M369.882 248.764L310.262 265.854L278.916 169.54L337.625 152.706L369.882 248.764Z" fill="#89402D"/>
<path d="M284.276 187.574L321.823 176.009L299.143 231.685L284.276 187.574Z" fill="#C54C3B"/>
<path d="M350.074 149.64C350.074 149.64 350.448 172.57 319.488 183.016C304.924 187.923 288.504 190.978 275.202 192.843C259.389 195.046 244.078 186.105 238.379 171.218C235.319 163.221 232.166 153.814 229.76 143.823C222.998 115.74 235.482 100.259 244.65 79.5205C253.818 58.7702 267.225 40.3863 297.053 37.6935C346.314 33.2287 362.279 67.6182 356.65 99.3615C351.02 131.105 351.242 119.68 350.074 149.663V149.64Z" fill="#89402D"/>
<mask id="mask0_877_27512" style="mask-type:luminance" maskUnits="userSpaceOnUse" x="227" y="37" width="134" height="159">
<path d="M347.295 148.404C347.295 148.404 350.449 172.582 319.488 183.015C288.528 193.449 249.182 195.512 249.182 195.512C249.182 195.512 236.534 171.906 229.772 143.823C223.01 115.74 235.494 100.259 244.662 79.5204C253.83 58.7701 264.831 40.9924 297.065 37.6934C346.268 32.6574 364.825 59.6327 359.208 91.376C353.579 123.119 348.475 118.445 347.307 148.416L347.295 148.404Z" fill="white"/>
</mask>
<g mask="url(#mask0_877_27512)">
<path d="M262.694 85.7921C262.694 85.7921 248.528 101.32 236.429 84.8595C236.429 84.8595 253.293 64.7387 262.694 85.7921Z" fill="white"/>
<mask id="mask1_877_27512" style="mask-type:luminance" maskUnits="userSpaceOnUse" x="236" y="76" width="27" height="17">
<path d="M262.694 85.7921C262.694 85.7921 247.57 101.984 236.429 84.8595C236.429 84.8595 250.583 64.727 262.694 85.7921Z" fill="white"/>
</mask>
<g mask="url(#mask1_877_27512)">
<path d="M245.558 94.2368C241.317 93.4063 238.684 88.6409 239.676 83.593C240.668 78.5451 244.91 75.1262 249.151 75.9566C253.391 76.7871 256.025 81.5525 255.033 86.6004C254.04 91.6483 249.798 95.0672 245.558 94.2368Z" fill="#13142A"/>
</g>
<path d="M262.694 85.7921C262.694 85.7921 252.767 64.5172 236.429 84.8595" stroke="#13142A" stroke-width="2.03998" stroke-linecap="round" stroke-linejoin="round"/>
</g>
<path d="M278.928 116.218L263.792 113.071L277.118 74.6592L278.928 116.218Z" fill="#C54C3B"/>
<path d="M327.733 91.5744C327.733 91.5744 310.402 112.091 289.871 86.7481C289.871 86.7481 309.468 65.3567 327.733 91.5744Z" fill="white"/>
<mask id="mask2_877_27512" style="mask-type:luminance" maskUnits="userSpaceOnUse" x="289" y="78" width="39" height="22">
<path d="M327.733 91.5742C327.733 91.5742 310.402 112.091 289.871 86.748C289.871 86.748 309.141 64.8553 327.733 91.5742Z" fill="white"/>
</mask>
<g mask="url(#mask2_877_27512)">
<path d="M299.828 98.5038C295.126 97.5828 292.206 92.2934 293.308 86.6895C294.409 81.0856 299.114 77.2893 303.817 78.2103C308.52 79.1312 311.439 84.4207 310.338 90.0245C309.236 95.6284 304.531 99.4247 299.828 98.5038Z" fill="#13142A"/>
</g>
<path d="M305.601 70.7074L321.823 70.0079" stroke="#13142A" stroke-width="2.03998" stroke-linecap="round" stroke-linejoin="round"/>
<path d="M249.544 67.8397L257.007 71.0339" stroke="#13142A" stroke-width="2.03998" stroke-linecap="round" stroke-linejoin="round"/>
<path d="M327.733 91.5743C327.733 91.5743 312.294 66.2193 289.871 86.7481" stroke="#13142A" stroke-width="2.03998" stroke-linecap="round" stroke-linejoin="round"/>
<path d="M330.583 99.2798C338.291 87.5874 341.164 73.6334 330.851 65.718C320.539 57.8026 292.849 61.1599 288.89 81.1291C284.93 101.11 310.986 129.03 330.583 99.2798Z" stroke="#252D5E" stroke-width="2.03998" stroke-linecap="round" stroke-linejoin="round"/>
<path d="M257.718 97.9743C265.426 86.2819 268.3 72.3279 257.987 64.4124C247.675 56.497 219.984 59.8544 216.025 79.8236C212.066 99.8045 238.122 127.724 257.718 97.9743Z" stroke="#252D5E" stroke-width="2.03998" stroke-linecap="round" stroke-linejoin="round"/>
<path d="M336.236 87.5642L360.341 113.257" stroke="#252D5E" stroke-width="2.03998" stroke-linecap="round" stroke-linejoin="round"/>
<path d="M289.135 91.1898L282.209 92.3905C282.209 92.3905 272.411 83.5891 264.364 93.2298L260.37 93.4746" stroke="#252D5E" stroke-width="2.03998" stroke-linecap="round" stroke-linejoin="round"/>
<path d="M282.232 135.15C275.622 132.305 268.545 138.67 260.79 131.828" stroke="#13142A" stroke-width="2.03998" stroke-linecap="round" stroke-linejoin="round"/>
<path d="M424.924 91.213C424.539 92.3554 400.819 113.327 450.991 101.903C520.386 86.0954 498.08 139.044 507.143 144.896" stroke="#234C9A" stroke-width="3.39996" stroke-miterlimit="10"/>
<path d="M467.633 129.38C467.633 129.38 459.329 139.312 507.154 144.884C549.933 149.873 543.463 207.042 528.012 201.318" stroke="#234C9A" stroke-width="3.39996" stroke-miterlimit="10"/>
<path d="M528.001 201.318C535.055 206.54 603.364 201.271 608.397 245.546" stroke="#234C9A" stroke-width="3.39996" stroke-miterlimit="10"/>
<path d="M393.683 236.069C393.683 236.069 381.619 273.874 340.346 296.221C299.073 318.557 266.758 304.591 277.327 278.432L227.015 338.678L259.587 506.988L305.882 586.586L443.143 562.163L401.146 278.875L393.671 236.08L393.683 236.069Z" fill="white"/>
<path d="M347.075 145.583C338.62 135.747 341.159 119.729 352.746 109.806C364.333 99.8822 380.579 99.8112 389.034 109.647C397.489 119.483 394.95 135.501 383.363 145.424C371.776 155.348 355.53 155.419 347.075 145.583Z" fill="#89402D"/>
<path d="M356.591 135.57C356.591 135.57 359.78 123.819 376.69 116.475" stroke="#13142A" stroke-width="1.89331" stroke-linecap="round" stroke-linejoin="round"/>
<path d="M358.005 132.329C358.005 132.329 366.18 130.452 372.825 137.586" stroke="#13142A" stroke-width="1.89331" stroke-linecap="round" stroke-linejoin="round"/>
<path d="M302.636 33.9047C303.687 38.5328 305.556 41.1091 311.43 47.2409C316.884 52.9414 327.956 53.7691 334.508 59.4113C340.324 64.4124 339.027 74.2979 343.547 79.9401C347.448 84.8129 355.751 90.63 357.363 100.55C357.363 100.55 412.16 110.051 432.154 105.435C463.722 98.1374 486.46 77.5037 476.627 65.24C471.943 59.3996 464.936 63.3865 464.936 63.3865C485.666 69.052 444.37 88.963 418.221 56.322C389.993 21.0698 384.761 2.32464 343.781 0.0630872C319.197 -1.28918 299.354 19.3912 302.636 33.9047Z" fill="#234C9A"/>
<path d="M458.383 111.427C458.383 111.427 464.737 86.2934 443.843 56.019C439.008 49.0245 421.081 46.3083 413.7 40.3746C409.076 36.6559 403.552 20.1489 394.746 16.2553C371.949 6.15993 341.969 16.2087 341.969 16.2087L416.433 57.3129L458.372 111.427H458.383Z" fill="#234C9A"/>
<path d="M365.479 54.2119C352.363 10.2866 294.273 -17.3067 261.269 35.49" stroke="#234C9A" stroke-width="3.39996" stroke-miterlimit="10"/>
<path d="M402.455 225.973C402.455 225.973 371.856 253.637 372.464 302.213C373.071 350.79 458.875 701.027 458.875 701.027C458.875 701.027 529.543 575.919 667.645 593.172C653.058 536.54 543.558 552.231 532.241 464.299C520.924 376.366 587.341 330.238 587.341 330.238C574.88 284.89 532.673 239.589 486.285 231.382C469.537 228.421 402.455 225.962 402.455 225.962V225.973Z" fill="#C54C3B"/>
<path d="M432.259 499.385C431.335 474.589 438.727 454.186 448.769 453.813C458.811 453.441 467.701 473.239 468.625 498.035C469.549 522.831 462.157 543.234 452.115 543.607C442.073 543.98 433.183 524.181 432.259 499.385Z" fill="#234C9A"/>
<path d="M294.005 256.003C294.005 256.003 285.152 255.513 250.688 287.047C216.212 318.58 189.118 354.089 189.118 354.089C189.118 354.089 251.891 319.758 237.001 526.713C230.636 615.193 206.659 641.481 225.766 652.614C251.984 667.897 343.021 689.405 343.021 689.405C343.021 689.405 328.422 624.158 287.64 518.716C278.881 496.065 271.85 473.811 266.711 452.233C247.955 373.405 254.495 303.6 294.016 255.991L294.005 256.003Z" fill="#C54C3B"/>
<path d="M421.397 492.778C421.397 492.778 396.066 503.771 380.673 494.317C365.28 484.851 358.437 476.353 346.022 475.548C333.607 474.732 316.662 479.757 316.253 469.813C315.832 459.869 336.656 454.705 346.711 457.887C356.778 461.07 374.6 464.59 375.826 449.89C377.053 435.19 430.798 478.568 421.397 492.801V492.778Z" fill="#234C9A"/>
<path d="M431.966 492.044C431.966 492.044 420.018 496.38 403.306 487.462C386.594 478.544 383.137 457.153 372.147 445.134C361.157 433.115 342.542 439.562 337.204 443.723C331.867 447.885 323.47 451.837 321.041 452.385C321.041 452.385 307.19 474.581 301.21 475.373C295.219 476.166 290.267 473.811 294.588 465.406C294.588 465.406 286.028 470.454 280.726 463.226C280.726 463.226 280.235 461.256 284.101 457.899C287.967 454.541 298.875 447.465 298.875 447.465C298.875 447.465 299.272 443.56 303.476 443.292C307.68 443.012 321.753 429.536 321.753 429.536C321.753 429.536 308.848 432.695 296.527 435.33C284.206 437.965 270.997 444.19 268.907 433.488C268.907 433.488 267.926 431.203 274.816 429.536C281.718 427.858 310.53 417.914 310.53 417.914C310.53 417.914 358.133 396.814 375.277 407.061C392.422 417.308 444.812 460.755 444.812 460.755L431.966 492.067V492.044Z" fill="#89402D"/>
<path d="M424.036 491.391L481.834 525.291L490.208 469.405L444.813 460.732L424.036 491.391Z" fill="#89402D"/>
<path d="M321.041 452.385C321.041 452.385 301.222 459.613 298.875 447.465" stroke="#13142A" stroke-width="1.71998" stroke-linecap="round" stroke-linejoin="round"/>
<path d="M304.82 442.907C304.82 442.907 329.158 430.83 337.672 425.479C346.198 420.14 357.409 416.701 378.524 425.409" stroke="#13142A" stroke-width="1.71998" stroke-linecap="round" stroke-linejoin="round"/>
<path d="M371.12 418.205C371.12 418.205 351.979 412.341 343.792 415.722C335.605 419.103 319.605 431.53 319.605 431.53" stroke="#13142A" stroke-width="1.71998" stroke-linecap="round" stroke-linejoin="round"/>
<path d="M370.606 413.612C370.606 413.612 350.671 407.807 343.862 411.304C337.053 414.801 323.191 428.813 323.191 428.813" stroke="#13142A" stroke-width="1.71998" stroke-linecap="round" stroke-linejoin="round"/>
<path d="M294.589 465.406C294.589 465.406 308.592 458.82 314.513 454.122" stroke="#13142A" stroke-width="1.71998" stroke-linecap="round" stroke-linejoin="round"/>
<path d="M452.077 543.674C462.121 543.301 469.502 522.901 468.579 498.105C467.762 476.178 460.719 458.167 452.147 454.553L454.997 424.978L497.776 412.889L526.272 247.854C526.272 247.854 685.886 341.137 729.81 445.052C772.519 546.111 540.217 590.887 451.131 543.663C451.446 543.686 451.75 543.698 452.065 543.686L452.077 543.674Z" fill="#C54C3B"/>
<path d="M507.038 359.23L567.476 442.173L535.359 446.113L507.038 359.23Z" fill="#234C9A"/>
<path d="M507.038 359.23C506.711 361.188 567.476 442.173 567.476 442.173L454.297 453.504" stroke="#13142A" stroke-width="1.89331" stroke-linecap="round" stroke-linejoin="round"/>
<path d="M453.455 544.84C453.455 544.84 518.809 557.384 608.269 553.269" stroke="#13142A" stroke-width="1.89331" stroke-linecap="round" stroke-linejoin="round"/>
<path d="M219.109 591.855C219.109 591.855 238.975 554.842 242.467 456.477" stroke="#13142A" stroke-width="1.89331" stroke-linecap="round" stroke-linejoin="round"/>
<path d="M346.735 18.8315C413.105 -10.1606 439.429 56.73 439.569 87.156" stroke="#234C9A" stroke-width="3.39996" stroke-miterlimit="10"/>
</svg>
