<svg width="587" height="262" viewBox="0 0 587 262" fill="none" xmlns="http://www.w3.org/2000/svg">
<g clip-path="url(#clip0_877_27570)">
<path d="M61.8672 0.126953H87.9914C109.084 0.126953 123.332 15.3803 123.332 33.285C123.332 51.1896 109.084 66.443 87.9914 66.443H61.8672V0.126953ZM75.3636 12.3486V54.2213H88.1927C100.545 54.2213 109.476 45.0313 109.476 33.285C109.476 21.5386 100.545 12.3486 88.1927 12.3486H75.3636Z" fill="white"/>
<path d="M137.316 0.126953H176.079V11.5881H150.802V26.9365H172.276V38.3976H150.802V54.9713H176.079V66.4324H137.316V0.126953Z" fill="white"/>
<path d="M192.711 0.126953H209.714L225.774 27.4118L241.834 0.126953H258.837V66.443H245.341V19.257L230.52 43.7003H221.017L206.197 19.257V66.4324H192.7V0.126953H192.711Z" fill="white"/>
<path d="M295.142 0.126953H312.813L337.994 66.443H323.65L317.283 49.2038H290.682L284.316 66.443H269.972L295.142 0.126953ZM313.099 37.7321L303.978 12.824L294.856 37.7321H313.099Z" fill="white"/>
<path d="M349.213 0.126953H362.709V66.443H349.213V0.126953Z" fill="white"/>
<path d="M382.275 0.126953H399.564L429.301 47.5876V0.126953H442.798V66.443H425.509L395.772 18.7922V66.443H382.275V0.126953Z" fill="white"/>
<path d="M9.81011 145.171C13.804 150.283 19.122 153.315 24.5354 153.315C29.9488 153.315 33.0846 150.473 33.0846 145.646C33.0846 133.805 2.68052 136.456 2.68052 114.379C2.68052 103.858 11.325 95.1538 23.9634 95.1538C33.9427 95.1538 41.6338 99.6115 47.2379 106.33L37.3539 115.139C33.4554 110.122 29.0907 106.9 24.0587 106.9C19.3975 106.9 16.3676 109.932 16.3676 113.819C16.3676 125.66 46.7717 122.914 46.7717 145.361C46.581 157.678 36.8878 165.251 24.7261 165.251C13.5179 165.251 5.91161 161.174 0.0214844 154.171L9.81011 145.171Z" fill="white"/>
<path d="M61.8779 97.055H83.8282C98.4582 97.055 107.389 104.534 107.389 116.851C107.389 129.167 98.4582 136.551 83.8282 136.551H75.3744V163.36H61.8779V97.0444V97.055ZM75.3744 108.516V125.09H84.4003C90.0997 125.09 93.5215 122.058 93.5215 116.66C93.5215 111.643 90.0997 108.516 84.4003 108.516H75.3744Z" fill="white"/>
<path d="M119.455 97.0552H158.218V108.516H132.941V123.865H154.414V135.326H132.941V151.9H158.218V163.361H119.455V97.0446V97.0552ZM132.57 91.3722L143.302 78.5801H157.169L144.817 91.3722H132.56H132.57Z" fill="white"/>
<path d="M220.371 143.565L231.008 151.709C224.927 159.949 215.043 165.251 202.977 165.251C181.98 165.251 167.636 149.143 167.636 130.203C167.636 111.263 181.98 95.1538 202.977 95.1538C215.043 95.1538 224.927 100.552 231.008 108.601L220.371 116.84C216.568 111.442 210.583 107.745 202.987 107.745C190.444 107.745 181.514 117.506 181.514 130.192C181.514 142.879 190.444 152.639 202.987 152.639C210.593 152.639 216.568 148.942 220.371 143.544V143.565Z" fill="white"/>
<path d="M243.656 97.0552H257.153V163.371H243.656V97.0552Z" fill="white"/>
<path d="M293.532 97.0552H311.202L336.384 163.371H322.04L315.673 146.132H289.072L282.705 163.371H268.361L293.543 97.0552H293.532ZM311.489 134.66L302.367 109.752L293.246 134.66H311.489Z" fill="white"/>
<path d="M347.603 97.0552H361.099V151.15H386.376V163.371H347.613V97.0552H347.603Z" fill="white"/>
<path d="M399.204 97.0552H412.701V163.371H399.204V97.0552Z" fill="white"/>
<path d="M436.071 145.171C440.065 150.283 445.383 153.315 450.796 153.315C456.21 153.315 459.345 150.473 459.345 145.646C459.345 133.805 428.941 136.456 428.941 114.379C428.941 103.858 437.586 95.1538 450.224 95.1538C460.203 95.1538 467.894 99.6115 473.499 106.33L463.615 115.139C459.716 110.122 455.351 106.9 450.319 106.9C445.658 106.9 442.628 109.932 442.628 113.819C442.628 125.66 473.032 122.914 473.032 145.361C472.842 157.678 463.148 165.251 450.987 165.251C439.779 165.251 432.172 161.174 426.282 154.171L436.071 145.171Z" fill="white"/>
<path d="M480.829 97.0552H535.366V109.277H514.846V163.371H501.349V109.277H480.829V97.0552Z" fill="white"/>
<path d="M548.195 97.055H586.958V108.516H561.681V123.864H583.155V135.326H561.681V151.899H586.958V163.36H548.195V97.0444V97.055Z" fill="white"/>
<path d="M275.056 240.314L285.692 248.458C279.611 256.697 269.727 262 257.661 262C236.664 262 222.32 245.891 222.32 226.951C222.32 208.011 236.664 191.902 257.661 191.902C269.727 191.902 279.611 197.3 285.692 205.349L275.056 213.589C271.253 208.191 265.267 204.494 257.672 204.494C245.129 204.494 236.198 214.254 236.198 226.941C236.198 239.627 245.129 249.387 257.672 249.387C265.278 249.387 271.253 245.69 275.056 240.293V240.314Z" fill="white"/>
<path d="M328.555 231.884V260.12H315.059V232.169L287.6 193.804H304.041L321.807 218.807L339.668 193.804H355.919L328.555 231.884Z" fill="white"/>
<path d="M365.336 193.793H384.246C398.113 193.793 406.482 200.617 406.482 211.793C406.482 217.096 404.014 221.744 399.448 224.86C406.482 227.986 410.37 233.669 410.37 240.588C410.37 252.715 400.963 260.099 385.665 260.099H365.336V193.783V193.793ZM378.832 205.254V219.747H384.532C389.659 219.747 392.604 217.191 392.604 212.459C392.604 208.001 389.659 205.254 384.532 205.254H378.832ZM378.832 231.303V248.638H386.439C392.71 248.638 396.513 245.321 396.513 239.828C396.513 234.335 392.71 231.303 386.439 231.303H378.832Z" fill="white"/>
<path d="M425.106 193.793H463.869V205.254H438.592V220.603H460.066V232.064H438.592V248.638H463.869V260.099H425.106V193.783V193.793Z" fill="white"/>
<path d="M480.501 193.793H500.83C515.46 193.793 524.486 201.272 524.486 213.589C524.486 221.543 520.588 227.511 513.85 230.733L534.751 260.099H518.596L500.926 233.289H493.987V260.099H480.49V193.783L480.501 193.793ZM493.997 205.254V221.828H501.604C507.303 221.828 510.629 218.796 510.629 213.399C510.629 208.381 507.303 205.254 501.604 205.254H493.997Z" fill="white"/>
<path d="M16.1449 0L37.3218 32.5876L16.1449 66.5061H0L21.1769 32.7566L0 0H16.1449Z" fill="white"/>
<path d="M549.752 260.141L570.887 227.458L549.752 193.772H565.865L587 227.617L565.865 260.141H549.752Z" fill="white"/>
</g>
<defs>
<clipPath id="clip0_877_27570">
<rect width="587" height="262" fill="white"/>
</clipPath>
</defs>
</svg>
