<svg width="930" height="877" viewBox="0 0 930 877" fill="none" xmlns="http://www.w3.org/2000/svg">
<path d="M438.879 683.678L399.018 908.685L506.23 913.318L438.879 683.678Z" fill="#252C5E"/>
<path d="M645.087 353.454C645.087 353.454 651.612 370.905 614.532 405.058C577.451 439.223 403.114 546.767 362.065 501.495C321.003 456.223 344.154 432.547 401.391 402.421C443.784 383.877 498.763 341.729 526.133 313.076C553.504 284.423 574.005 283.045 574.005 283.045" fill="#50B2E5"/>
<path d="M393.514 275.134C393.514 275.134 461.518 354.144 495.235 462.555L403.925 453.61L396.366 327.332L393.514 275.134Z" fill="#50B2E5"/>
<path d="M509.198 235.86C509.198 235.86 423.985 262.601 285.48 197.858L314.943 158.561L493.499 199.949C493.499 199.949 515.141 201.291 509.198 235.86Z" fill="#252C5E"/>
<path d="M481.201 137.44C481.201 137.44 527.872 172.484 509.201 235.873C509.201 235.873 487.559 200.829 448.969 208.503C410.379 216.189 481.201 137.44 481.201 137.44Z" fill="#234C9A"/>
<path d="M487.531 127.735L511.384 153.965L488.946 172.829L477.18 160.368L482.017 130.444L487.531 127.735Z" fill="#F8B78F"/>
<path d="M478.796 51.7312C478.796 51.7312 496.361 78.3529 488.993 134.97C488.993 134.97 492.154 161.984 490.086 178.781C488.018 195.579 487.091 213.766 475.123 222.046C463.156 230.326 415.26 223.198 391.075 212.15C391.075 212.15 363.443 202.944 359.295 182.689C357.239 172.628 341.563 113.361 359.64 76.3334C377.966 38.7946 430.068 23.5652 430.068 23.5652L478.808 51.7312H478.796Z" fill="#F8B78F"/>
<path d="M490.79 107.563C491.491 115.297 491.456 123.339 491.254 131.108L490.755 129.766C498.278 137.238 505.48 145.102 511.375 153.964C502.794 147.668 495.271 140.113 488.152 132.237C487.795 131.88 487.605 131.369 487.653 130.894C488.342 123.161 489.198 115.166 490.767 107.551L490.79 107.563Z" fill="#E94D7A"/>
<path d="M491.587 171.51C491.849 184.21 490.625 196.837 487 209.109C482.733 223.103 468.697 228.817 455.256 225.645C467.759 225.455 479.655 220.608 483.375 207.933C487.071 196.041 488.842 183.687 491.599 171.499L491.587 171.51Z" fill="#E94D7A"/>
<path d="M450.75 113.634C450.75 113.634 455.456 137.594 482.958 126.463C482.958 126.463 476.409 97.9766 450.75 113.634Z" fill="white"/>
<mask id="mask0_877_27606" style="mask-type:luminance" maskUnits="userSpaceOnUse" x="450" y="108" width="33" height="22">
<path d="M450.751 113.633C450.751 113.633 455.457 137.594 482.959 126.463C482.959 126.463 476.41 97.9761 450.751 113.633Z" fill="white"/>
</mask>
<g mask="url(#mask0_877_27606)">
<path d="M477.171 124.277C478.771 119.333 476.711 114.24 472.57 112.902C468.429 111.563 463.776 114.486 462.176 119.43C460.577 124.375 462.637 129.467 466.778 130.806C470.918 132.144 475.572 129.221 477.171 124.277Z" fill="#0E0E1D"/>
</g>
<path d="M458.519 26.7946C458.519 26.7946 535.9 39.0066 526.071 120.63C526.071 120.63 493.876 105.282 473.529 103.357C473.529 103.357 477.201 77.1869 466.327 46.9302C466.327 46.9302 471.711 89.8028 463.986 101.326L447.751 98.9618C447.751 98.9618 453.8 72.1738 444.269 50.1495C444.269 50.1495 440.299 111.483 385.546 108.798C385.546 108.798 378.879 4.69899 458.495 26.7827L458.519 26.7946Z" fill="#234C9A"/>
<path d="M362.146 219.099C362.146 219.099 249.978 225.3 195.688 137.44L341.787 102.907L369.776 181.168L362.146 219.099Z" fill="#252C5E"/>
<path d="M485.395 183.841C485.395 183.841 480.462 184.269 475.53 179.933" stroke="#0E0E1C" stroke-width="1.08779" stroke-linecap="round" stroke-linejoin="round"/>
<path d="M316.713 291.528L382.435 312.769L418.494 197.907L353.781 176.987L316.713 291.528Z" fill="#F8B78F"/>
<path d="M491.582 47.1455C491.582 47.1455 475.526 -2.40335 411.741 1.73067C345.127 6.05476 352.388 64.2162 288.282 74.2899C225.032 84.2329 195.688 137.441 195.688 137.441C195.688 137.441 250.18 178.413 276.481 161.603C302.782 144.794 326.099 124.516 326.099 124.516L304.873 167.103C304.873 167.103 356.215 177.332 362.146 219.099C362.146 219.099 403.291 201.815 397.348 145.162C391.406 88.5095 400.058 52.0042 400.058 52.0042L491.582 47.1455Z" fill="#234C9A"/>
<path d="M397.859 154.154C401.65 173.886 394.127 195.447 379.081 208.74C374.042 213.159 368.302 216.711 362.146 219.11C367.541 215.309 372.556 211.211 377.013 206.601C390.502 192.56 397.17 173.47 397.859 154.166V154.154Z" fill="#E94D7A"/>
<path d="M404.503 150.603C414.386 142.629 414.794 126.75 405.415 115.136C396.036 103.521 380.421 100.57 370.538 108.544C360.655 116.518 360.247 132.397 369.626 144.011C379.005 155.626 394.62 158.577 404.503 150.603Z" fill="#F8B78F"/>
<path d="M307.728 698.54C307.728 698.54 56.4733 731.267 97.2973 662.272C97.2973 662.272 166.799 594.702 274.546 621.87C382.293 649.026 307.716 698.551 307.716 698.551L307.728 698.54Z" fill="#234C9A"/>
<path d="M351.12 264.17C351.12 264.17 360.937 272.877 399.646 322.438C438.342 372.011 547.23 638.822 547.23 638.822C547.23 638.822 497.231 697.589 260.606 704.265L315.894 295.733L351.12 264.158V264.17Z" fill="#234C9A"/>
<path d="M547.232 638.822C547.232 666.085 512.172 680.043 512.172 680.043L470.053 421.524L547.22 638.822H547.232Z" fill="#50B2E5"/>
<path d="M254.565 615.431L196.746 890.035L403.017 894.953L449.189 633.429L254.565 615.431Z" fill="#E94D7A"/>
<path d="M335.81 671.478L299.942 861.227" stroke="#0E0E1C" stroke-width="1.08779" stroke-linecap="round" stroke-linejoin="round"/>
<path d="M448.396 642.575L481.329 428.901L416.414 333.676C387.273 282.309 362.446 265.144 308.655 243.345L245.215 642.575H448.408H448.396Z" fill="white"/>
<path d="M183.482 512.928C183.482 512.928 148.434 604.862 102.606 661.384C102.606 661.384 145.879 628.383 219.374 648.97C274.531 664.425 302.198 698.602 372.913 704.352C372.913 704.352 414.866 608.616 417.064 493.374C419.263 378.132 378.546 293.836 378.546 293.836L229.713 420.447L183.482 512.928Z" fill="#50B2E5"/>
<path d="M416.413 333.676L422.795 290.09L331.223 243.345L328.466 251.886L416.413 333.676Z" fill="white"/>
<path d="M304.386 241.517L332.089 240.673L328.464 251.887L304.386 241.517Z" fill="#234C9A"/>
<path d="M412.317 219.42L386.004 212.34L395.226 272.022L412.317 219.42Z" fill="#E94D7A"/>
<path d="M373.235 294.722C373.235 294.722 343.856 231.595 293.928 242.845C243.989 254.095 166.524 386.027 127.875 462.554C75.3327 566.582 366.39 483.129 366.39 483.129C366.39 483.129 410.874 617.675 411.754 510.499C412.633 403.323 373.247 294.734 373.247 294.734L373.235 294.722Z" fill="#50B2E5"/>
<path d="M397.136 139.27C397.136 139.27 396.161 127.39 381.198 117.317" stroke="#0E0E1C" stroke-width="1.08779" stroke-linecap="round" stroke-linejoin="round"/>
<path d="M396.354 135.896C396.354 135.896 388.831 132.641 381.165 138.319" stroke="#0E0E1C" stroke-width="1.08779" stroke-linecap="round" stroke-linejoin="round"/>
<path d="M297.841 370.063L274.63 457.079" stroke="#0E0E1C" stroke-width="1.08779" stroke-linecap="round" stroke-linejoin="round"/>
<path d="M478.807 107.564L468.788 104.38" stroke="#0E0E1C" stroke-width="1.08779" stroke-linecap="round" stroke-linejoin="round"/>
<path d="M422.798 313.314C422.798 313.314 461.982 369.314 495.223 462.555" stroke="#0E0E1C" stroke-width="1.08779" stroke-linecap="round" stroke-linejoin="round"/>
<path d="M496.289 163.433L491.096 166.023" stroke="#0E0E1C" stroke-width="1.08779" stroke-linecap="round" stroke-linejoin="round"/>
<path d="M613.283 316.168C633.582 335.567 655.094 345.997 661.345 339.475C667.585 332.954 656.187 311.939 635.888 292.54C615.589 273.141 597.132 260.62 590.893 267.142C584.653 273.664 592.984 296.769 613.283 316.168Z" fill="#234C9A"/>
<path d="M656.147 270.468L604.318 346.27L574.57 303.493L618.758 254.74L656.147 270.468Z" fill="#F8B78F"/>
<path d="M581.627 277.511L582.315 276.823C582.232 276.942 582.161 277.049 582.078 277.167C581.935 277.286 581.757 277.369 581.627 277.511Z" fill="#50B2E5"/>
<path d="M574.441 310.43C565.658 293.075 577.305 280.696 577.305 280.696L590.878 267.142C590.046 268.009 589.499 269.173 589.178 270.575C587.36 274.899 590.89 284.581 592.078 286.707C595.905 295.748 603.083 306.427 613.268 316.156C630.775 332.882 649.16 342.909 657.896 341.186L645.084 353.446C620.494 376.397 583.212 327.774 574.441 310.43Z" fill="#50B2E5"/>
<path d="M612.749 249.561C612.749 249.561 607.888 242.742 609.647 235.424C611.406 228.118 611.05 221.739 608.958 213.186C606.866 204.633 613.438 204.942 613.438 204.942C613.438 204.942 612.119 201.865 615.661 195.129C619.202 188.394 627.118 172.915 634.843 172.784C642.568 172.654 645.848 177.239 645.824 181.682C645.824 181.682 652.67 172.38 659.801 174.079C666.932 175.778 668.203 181.848 668.203 181.848C668.203 181.848 683.166 174.97 689.144 177.097C695.122 179.235 698.034 185.222 696.501 190.58C694.968 195.937 690.404 209.42 690.404 209.42C690.404 209.42 695.586 210.893 701.148 206.831C706.71 202.768 708.659 197.339 708.659 197.339C708.659 197.339 703.311 190.758 706.246 186.054C709.182 181.349 713.496 180.518 720.163 185.507C726.83 190.497 727.294 200.333 723.943 206.926C720.591 213.519 709.372 223.224 706.876 229.081C704.38 234.937 670.022 286.387 643.709 279.378C643.709 279.378 629.174 288.513 612.749 249.561Z" fill="#F8B78F"/>
<path d="M610.591 201.865C622.903 217.534 633.362 200.879 633.362 200.879L647.362 178.32" stroke="#0E0E1C" stroke-width="0.857529" stroke-linecap="round" stroke-linejoin="round"/>
<path d="M672.855 179.034C672.855 179.034 652.639 187.516 650.833 195.617C649.026 203.719 661.172 205.24 673.889 199.05L684.728 194.275" stroke="#0E0E1C" stroke-width="1.08779" stroke-linecap="round" stroke-linejoin="round"/>
<path d="M705.819 194.263C705.819 194.263 709.147 202.459 721.65 201.545" stroke="#0E0E1C" stroke-width="1.08779" stroke-linecap="round" stroke-linejoin="round"/>
<path d="M691.165 209.42C691.165 209.42 691.557 215.241 699.223 222.167" stroke="#0E0E1C" stroke-width="1.08779" stroke-linecap="round" stroke-linejoin="round"/>
<path d="M607.911 210.847C607.911 210.847 607.472 223.415 623.445 228.369" stroke="#0E0E1C" stroke-width="0.857529" stroke-linecap="round" stroke-linejoin="round"/>
<path d="M614.532 257.306C614.532 257.306 642.568 248.599 631.23 222.761" stroke="#0E0E1C" stroke-width="1.08779" stroke-linecap="round" stroke-linejoin="round"/>
<path d="M692.739 234.806C692.739 234.806 676.184 209.978 652.949 213.542" stroke="#0E0E1C" stroke-width="1.08779" stroke-linecap="round" stroke-linejoin="round"/>
<path d="M738.981 244.453C763.737 251.545 791.643 258.969 822.127 266.24C830.434 268.212 838.92 270.183 847.596 272.12C852.576 273.236 857.603 274.341 862.701 275.434C873.208 277.691 883.963 279.913 894.945 282.087C905.926 284.249 917.122 286.351 928.531 288.383" stroke="#50B2E5" stroke-width="1.92944" stroke-linecap="round" stroke-linejoin="round"/>
<path d="M724.602 240.271C727.145 241.019 729.736 241.779 732.362 242.54" stroke="white" stroke-width="1.92944" stroke-linecap="round" stroke-linejoin="round"/>
<path d="M640.98 213.233C658.011 219.291 683.278 227.856 715.189 237.467" stroke="#E94D7A" stroke-width="1.92944" stroke-linecap="round" stroke-linejoin="round"/>
<path d="M606.013 206.343C613.262 204.692 616.067 203.979 616.067 203.979" stroke="#E94D7A" stroke-width="1.92944" stroke-linecap="round" stroke-linejoin="round"/>
<path d="M558.418 216.595C574.058 213.34 585.848 210.809 594.559 208.897" stroke="#50B2E5" stroke-width="1.92944" stroke-linecap="round" stroke-linejoin="round"/>
<path d="M533.187 221.786C538.19 220.764 542.92 219.802 547.389 218.876" stroke="white" stroke-width="1.92944" stroke-linecap="round" stroke-linejoin="round"/>
<path d="M473.165 233.785C486.155 231.231 498.04 228.867 508.902 226.693" stroke="white" stroke-width="1.92944" stroke-linecap="round" stroke-linejoin="round"/>
<path d="M417.68 244.594C420.829 243.988 423.931 243.382 426.997 242.8" stroke="#E94D7A" stroke-width="1.92944" stroke-linecap="round" stroke-linejoin="round"/>
<path d="M395.226 248.907C398.327 248.313 401.382 247.731 404.389 247.149" stroke="#E94D7A" stroke-width="1.92944" stroke-linecap="round" stroke-linejoin="round"/>
<path d="M358.039 255.939C363.197 254.989 368.391 254.027 373.62 253.029C375.819 252.613 377.994 252.197 380.157 251.781" stroke="#50B2E5" stroke-width="1.92944" stroke-linecap="round" stroke-linejoin="round"/>
<path d="M295.812 266.465C310.917 264.124 326.403 261.558 342.221 258.779" stroke="white" stroke-width="1.92944" stroke-linecap="round" stroke-linejoin="round"/>
<path d="M269.047 270.468C272.137 270.028 275.251 269.565 278.388 269.102" stroke="white" stroke-width="1.92944" stroke-linecap="round" stroke-linejoin="round"/>
<path d="M172.591 282.382C197.145 279.84 224.028 276.68 252.73 272.76" stroke="white" stroke-width="1.92944" stroke-linecap="round" stroke-linejoin="round"/>
<path d="M77.0225 290.283C95.6102 289.154 118.358 287.515 144.468 285.127" stroke="white" stroke-width="1.92944" stroke-linecap="round" stroke-linejoin="round"/>
<path d="M-37.0918 294.857C-37.0918 294.857 34.1452 292.516 56.845 291.388" stroke="white" stroke-width="1.92944" stroke-linecap="round" stroke-linejoin="round"/>
<path d="M623.445 228.378C607.472 223.413 607.911 210.856 607.911 210.856C607.911 210.856 606.83 203.337 617.336 203.218" fill="#F8B78F"/>
<path d="M623.445 228.378C607.472 223.413 607.911 210.856 607.911 210.856C607.911 210.856 606.83 203.337 617.336 203.218" stroke="#0E0E1C" stroke-width="1.08779" stroke-linecap="round" stroke-linejoin="round"/>
<path d="M644.866 182.334L633.362 200.865C633.362 200.865 625.304 212.222 616.735 207.387C615.856 206.888 615.107 206.164 614.62 205.273C613.574 203.336 613.099 198.299 616.498 192.336" fill="#F8B78F"/>
<path d="M644.866 182.334L633.362 200.865C633.362 200.865 625.304 212.222 616.735 207.387C615.856 206.888 615.107 206.164 614.62 205.273C613.574 203.336 613.099 198.299 616.498 192.336" stroke="#0E0E1C" stroke-width="1.08779" stroke-linecap="round" stroke-linejoin="round"/>
<path d="M631.857 202.849C631.857 202.849 620.946 215.453 628.362 221.286C635.767 227.119 645.013 215.619 653.915 201.875" fill="#F8B78F"/>
<path d="M631.857 202.849C631.857 202.849 620.946 215.453 628.362 221.286C635.767 227.119 645.013 215.619 653.915 201.875" stroke="#0E0E1C" stroke-width="1.08779" stroke-linecap="round" stroke-linejoin="round"/>
<path d="M435.229 241.517L463.361 235.862" stroke="white" stroke-width="1.92944" stroke-linecap="round" stroke-linejoin="round"/>
<path d="M494.695 520.395C494.909 552.541 503.478 578.545 513.818 578.474C524.157 578.402 532.37 552.291 532.144 520.146C531.93 488 527.533 462.852 517.181 462.923C506.841 462.994 494.469 488.262 494.683 520.407L494.695 520.395Z" fill="#234C9A"/>
<path d="M549.936 516.534C549.936 516.534 576.19 530.362 593.434 521.44C610.679 512.531 618.689 503.954 632.06 504.084C645.43 504.215 663.162 510.951 664.41 500.319C665.658 489.687 643.778 482.476 632.737 485.089C621.708 487.703 602.336 490.043 602.193 474.172C602.051 458.301 541.011 500.521 549.936 516.546V516.534Z" fill="#234C9A"/>
<path d="M538.685 514.895C538.685 514.895 551.128 520.502 569.751 512.282C588.375 504.061 593.794 481.395 606.522 469.373C619.251 457.351 638.671 465.762 644.054 470.656C649.438 475.551 658.114 480.469 660.669 481.241C660.669 481.241 673.719 506.152 680.065 507.482C686.412 508.813 691.902 506.675 687.957 497.325C687.957 497.325 696.716 503.431 702.979 496.102C702.979 496.102 703.668 494.035 699.794 490.115C695.931 486.194 684.807 477.736 684.807 477.736C684.807 477.736 684.688 473.519 680.208 472.89C675.727 472.26 661.739 456.674 661.739 456.674C661.739 456.674 675.311 461.093 688.289 464.907C701.268 468.72 714.923 476.453 718.025 465.144C718.025 465.144 719.261 462.78 712.011 460.428C704.75 458.076 674.693 445.092 674.693 445.092C674.693 445.092 625.395 418.637 606.225 428.259C587.043 437.881 527.43 480.279 527.43 480.279L538.673 514.883L538.685 514.895Z" fill="#F8B78F"/>
<path d="M547.225 514.835L482.596 546.565L478.115 485.944L527.437 480.29L547.225 514.835Z" fill="#F8B78F"/>
<path d="M517.195 462.911L518.311 462.935C518.145 462.959 518.002 462.982 517.836 463.018C517.622 462.994 517.421 462.923 517.195 462.923V462.911Z" fill="#50B2E5"/>
<path d="M468.466 483.902C475.739 462.852 495.219 462.555 495.219 462.555L517.193 462.912C515.827 462.912 514.412 463.399 513.01 464.254C508.006 466.202 504.56 470.277 502.04 479.495C497.655 489.854 494.589 504.252 494.696 520.396C494.886 548.11 501.28 571.216 509.67 577.025L489.371 576.265C450.888 574.328 461.193 504.941 468.466 483.902Z" fill="#50B2E5"/>
<path d="M660.678 481.242C660.678 481.242 681.321 490.579 684.816 477.737" stroke="#0E0E1C" stroke-width="1.08779" stroke-linecap="round" stroke-linejoin="round"/>
<path d="M678.802 472.379C678.802 472.379 653.713 457.47 645.002 451.055C636.302 444.64 624.56 440.067 601.254 447.717" stroke="#0E0E1C" stroke-width="1.08779" stroke-linecap="round" stroke-linejoin="round"/>
<path d="M609.776 440.578C609.776 440.578 630.753 435.826 639.25 440.103C647.748 444.379 663.887 459.003 663.887 459.003" stroke="#0E0E1C" stroke-width="1.08779" stroke-linecap="round" stroke-linejoin="round"/>
<path d="M610.689 435.684C610.689 435.684 632.51 431.051 639.522 435.351C646.534 439.651 660.261 455.784 660.261 455.784" stroke="#0E0E1C" stroke-width="1.08779" stroke-linecap="round" stroke-linejoin="round"/>
<path d="M687.963 497.338C687.963 497.338 673.499 489.153 667.533 483.629" stroke="#0E0E1C" stroke-width="1.08779" stroke-linecap="round" stroke-linejoin="round"/>
<path d="M489.373 576.264C489.373 576.264 483.288 600.273 425.624 597.018C367.971 593.763 114.078 571.928 118.606 502.089C120.068 479.566 126.319 463.577 136.492 453.028L180.846 457.518L249.421 454.762C298.469 474.838 382.411 446.637 427.787 446.304C473.163 445.971 490.645 461.723 490.645 461.723" fill="#50B2E5"/>
<path d="M115.431 501.495C110.891 571.334 367.97 593.762 425.623 597.017C483.275 600.272 489.372 576.264 489.372 576.264L513.819 578.473" stroke="#0E0E1C" stroke-width="1.08779" stroke-linecap="round" stroke-linejoin="round"/>
<path d="M246.093 453.657C294.808 474.517 379.249 444.76 429.735 446.589C475.088 448.228 492.344 463.018 492.344 463.018L517.195 462.923" stroke="#0E0E1C" stroke-width="1.08779" stroke-linecap="round" stroke-linejoin="round"/>
<path d="M423.308 1.56464C423.308 1.56464 388.89 12.1135 353.556 37.2503C318.223 62.3751 318.283 60.8902 284.482 67.5783C250.682 74.2545 236.349 86.6685 229.028 108.942" stroke="#234C9A" stroke-width="1.27835" stroke-miterlimit="10"/>
<path d="M485.391 36.4664C485.391 36.4664 502.398 36.9297 512.892 51.969C523.386 67.0083 525.597 107.576 525.597 107.576" stroke="#234C9A" stroke-width="1.27835" stroke-miterlimit="10"/>
<path d="M450.752 113.635C450.752 113.635 474.212 100.271 482.96 126.465" stroke="#0E0E1C" stroke-width="1.08779" stroke-linecap="round" stroke-linejoin="round"/>
</svg>
