<svg width="118" height="78" viewBox="0 0 118 78" fill="none" xmlns="http://www.w3.org/2000/svg">
<rect width="33" height="12" transform="translate(12 12)" fill="white"/>
<path d="M22.6562 22.5498C22.6602 22.5498 22.6642 22.5439 22.6642 22.5439C22.696 22.5203 22.7279 22.4909 22.7558 22.4556C22.7518 22.4556 22.7478 22.4556 22.7438 22.4498C22.7159 22.4792 22.6841 22.5145 22.6562 22.5498Z" fill="#000091"/>
<path d="M27.0694 21.0629L26.9997 21.1229C27.0396 21.1129 27.0694 21.1029 27.0694 21.0629Z" fill="#000091"/>
<path fill-rule="evenodd" clip-rule="evenodd" d="M25.6426 22.5817C25.7704 22.4532 25.8983 22.3168 26.0261 22.1765H26.0222C26.2624 21.9038 26.4948 21.6428 26.7737 21.4051C26.8589 21.3272 26.9402 21.261 27.0177 21.2064C27.0291 21.195 27.0349 21.1779 27.0406 21.1612C27.0465 21.1438 27.0523 21.1268 27.0642 21.1168C27.009 21.1379 26.965 21.1712 26.9207 21.2047C26.8749 21.2394 26.8289 21.2742 26.7698 21.296C26.7466 21.296 26.7233 21.2727 26.7466 21.2493C26.8279 21.1908 26.9092 21.1285 26.9867 21.0662H26.9712C26.948 21.0662 26.948 21.0428 26.948 21.0194C26.6596 20.9736 26.4381 21.1708 26.2399 21.3473L26.2275 21.3584C26.1966 21.3739 26.1675 21.3585 26.1446 21.3464C26.133 21.3403 26.123 21.335 26.1152 21.335C25.9398 21.3938 25.7885 21.5022 25.6362 21.6114C25.4959 21.7119 25.3548 21.813 25.1933 21.8765V21.8298C25.1384 21.8487 25.0842 21.8734 25.0298 21.8981C24.9498 21.9345 24.8696 21.971 24.7865 21.9895C24.6349 22.0247 24.4943 22.0202 24.358 22.0158C24.3133 22.0143 24.2689 22.0129 24.2249 22.0129C23.9768 22.0375 23.7319 22.0906 23.4872 22.1437L23.4076 22.161C23.4037 22.1629 23.3998 22.1639 23.3959 22.1649C23.3921 22.1658 23.3882 22.1668 23.3843 22.1688C23.2371 22.2077 23.1016 22.2623 22.966 22.3402L22.9505 22.348C22.9452 22.3551 22.9398 22.3614 22.9349 22.3673C22.929 22.3743 22.9237 22.3806 22.9195 22.3869C22.873 22.4415 22.8304 22.4882 22.7646 22.5233C22.6673 22.5722 22.5832 22.6476 22.5005 22.7219C22.4647 22.754 22.429 22.7861 22.3927 22.8155C22.385 22.8233 22.3695 22.8272 22.3578 22.8272C22.2378 22.9441 22.1177 23.061 21.9937 23.1739C21.986 23.1817 21.9511 23.1856 21.924 23.1817C21.924 23.1817 21.9279 23.1817 21.9279 23.1778L21.9395 23.1545L21.9976 23.061C22.0092 23.0434 22.0199 23.0259 22.0305 23.0084C22.0412 22.9908 22.0518 22.9733 22.0634 22.9558C22.0944 22.909 22.1255 22.8622 22.1603 22.8194C22.168 22.8077 22.168 22.796 22.1603 22.7882C22.1525 22.7804 22.1409 22.7765 22.1293 22.7765C22.2416 22.6675 22.3733 22.5739 22.5089 22.4921V22.4882C22.4934 22.4921 22.4702 22.4804 22.4818 22.4649C22.4932 22.4506 22.5024 22.4342 22.5112 22.4188L22.5205 22.4025C22.5225 22.3986 22.5234 22.3957 22.5244 22.3928C22.5254 22.3899 22.5263 22.3869 22.5283 22.383C22.5263 22.3791 22.5234 22.3762 22.5205 22.3733C22.5176 22.3704 22.5147 22.3675 22.5128 22.3636L22.4893 22.3791C22.4612 22.3974 22.4324 22.4163 22.4082 22.4376C22.3911 22.4523 22.3751 22.4725 22.3588 22.4932C22.3232 22.5382 22.2857 22.5856 22.23 22.5856C22.2261 22.5856 22.2068 22.5856 22.1952 22.5817C22.1835 22.5817 22.1758 22.5778 22.1719 22.5739C22.1719 22.572 22.1719 22.571 22.1724 22.5705C22.1729 22.57 22.1738 22.57 22.1758 22.57C22.1758 22.57 22.1797 22.5662 22.1797 22.5623C22.1797 22.5623 22.1797 22.5584 22.1835 22.5584C22.1855 22.5545 22.1874 22.5515 22.1893 22.5486C22.1913 22.5457 22.1932 22.5428 22.1952 22.5389C22.1971 22.535 22.199 22.5321 22.201 22.5291C22.2029 22.5262 22.2048 22.5233 22.2068 22.5194C22.2087 22.5175 22.2097 22.5145 22.2106 22.5116C22.2116 22.5087 22.2126 22.5058 22.2145 22.5038L22.2189 22.4958C22.2227 22.4889 22.2273 22.4808 22.23 22.4726C22.2319 22.4688 22.2339 22.4658 22.2358 22.4629C22.2378 22.46 22.2397 22.4571 22.2416 22.4532C22.2474 22.4454 22.2523 22.4366 22.2571 22.4278C22.262 22.4191 22.2668 22.4103 22.2726 22.4025C22.2765 22.3947 22.2804 22.3869 22.2881 22.3791C22.292 22.3713 22.2959 22.3645 22.2997 22.3577C22.3036 22.3509 22.3075 22.3441 22.3114 22.3363C22.323 22.3168 22.3114 22.3012 22.2959 22.2973C22.3385 22.2428 22.3888 22.196 22.4508 22.161H22.4431C22.4965 22.1341 22.5515 22.1026 22.6062 22.0713C22.6384 22.0528 22.671 22.0341 22.7026 22.0168C22.7142 22.0051 22.7258 21.9934 22.7413 21.9856C22.6135 22.0285 22.4973 22.0869 22.385 22.1649C22.385 22.1649 22.354 22.1765 22.3462 22.1843C22.3462 22.1843 22.323 22.1921 22.292 22.1649C22.2881 22.161 22.2881 22.1571 22.2881 22.1493C22.3016 22.1222 22.3293 22.1043 22.3594 22.0849C22.3812 22.0708 22.4041 22.056 22.4237 22.0363C22.4469 22.0363 22.4663 22.0363 22.4663 22.0597C22.9124 21.7099 23.4625 21.6289 24.0144 21.5477C24.3539 21.4978 24.6941 21.4478 25.0112 21.335C25.0441 21.3116 25.078 21.2892 25.1119 21.2668C25.1458 21.2444 25.1797 21.222 25.2126 21.1986C25.2691 21.1751 25.3198 21.1348 25.3734 21.0922C25.4263 21.0501 25.4822 21.0056 25.5496 20.9727C25.7278 20.8363 25.8634 20.6805 25.9331 20.4506C25.9331 20.4272 25.9099 20.4038 25.9099 20.4038C25.6155 20.7194 25.2785 20.9688 24.9182 21.1519C24.5747 21.3331 24.2067 21.36 23.8423 21.3866C23.7054 21.3966 23.569 21.4065 23.4347 21.4246C23.4579 21.3778 23.5044 21.3779 23.547 21.3779C23.547 21.3225 23.5735 21.2987 23.6075 21.2682C23.6166 21.26 23.6263 21.2514 23.6361 21.2415H23.702C23.7136 21.2415 23.7194 21.2298 23.7252 21.2181C23.731 21.2064 23.7368 21.1947 23.7484 21.1947C23.7949 21.1947 23.8608 21.1714 23.8375 21.1714C23.802 21.1257 23.7504 21.1438 23.6934 21.1637C23.6386 21.1829 23.5789 21.2038 23.5238 21.1714C23.5443 21.1489 23.5504 21.1219 23.556 21.0974C23.5621 21.0708 23.5675 21.0471 23.5896 21.035H23.6787C23.6787 20.9882 23.7252 20.9454 23.7252 20.9454C23.9272 20.8239 24.1223 20.7179 24.3137 20.6138C24.4416 20.5443 24.568 20.4756 24.6936 20.4038C24.6682 20.4038 24.6456 20.4143 24.6238 20.4244C24.589 20.4406 24.5558 20.4559 24.5154 20.4272C24.5386 20.4272 24.5386 20.4107 24.5386 20.3941C24.5386 20.3775 24.5386 20.361 24.5619 20.361C24.7072 20.3222 24.8365 20.2592 24.9686 20.195C25.0619 20.1496 25.1565 20.1036 25.2591 20.0649C25.2287 20.0649 25.2005 20.0731 25.173 20.0811C25.1201 20.0964 25.0699 20.111 25.0112 20.0649C25.0266 20.0571 25.039 20.0473 25.0513 20.0375C25.076 20.0178 25.1002 19.9986 25.1468 19.9986V19.9324C25.1468 19.909 25.17 19.909 25.1933 19.909C25.17 19.909 25.1468 19.8857 25.1468 19.8857C25.1591 19.8609 25.1833 19.8558 25.2103 19.8501C25.2343 19.8451 25.2605 19.8396 25.2824 19.8194C25.2591 19.8194 25.2165 19.8194 25.2165 19.796C25.2824 19.7064 25.3947 19.6831 25.507 19.6597C25.4954 19.6363 25.4731 19.6363 25.4538 19.6363C25.4344 19.6363 25.4179 19.6363 25.4179 19.6129C25.4179 19.5896 25.4412 19.5896 25.4644 19.5896H25.4179C25.3815 19.5712 25.3879 19.5385 25.3924 19.5158C25.3936 19.5096 25.3947 19.5041 25.3947 19.4999C25.4857 19.3927 25.5156 19.2662 25.5454 19.1404C25.5599 19.0788 25.5745 19.0173 25.5961 18.9584C25.5729 18.9584 25.5496 18.9584 25.5496 18.935C25.3318 19.1767 24.9866 19.2683 24.6587 19.3554L24.6277 19.3636H24.5154C24.4031 19.4103 24.2443 19.4103 24.1319 19.3402C24.0785 19.3122 24.0404 19.2771 23.9993 19.2393C23.9718 19.214 23.9429 19.1875 23.9073 19.161C23.7252 19.048 23.547 18.9584 23.3456 18.8883C22.7839 18.709 22.199 18.6155 21.6141 18.6389C21.7775 18.5491 21.9509 18.5133 22.1266 18.4771C22.2176 18.4584 22.3093 18.4395 22.4004 18.4129C22.458 18.396 22.515 18.3785 22.5716 18.3611C22.8929 18.2626 23.2046 18.1671 23.547 18.187C23.5022 18.1711 23.4448 18.1768 23.392 18.1821C23.3672 18.1846 23.3434 18.187 23.3224 18.187C23.0634 18.1677 22.8019 18.2253 22.529 18.2855C22.4712 18.2982 22.4129 18.3111 22.354 18.3233C22.2471 18.3456 22.1455 18.3775 22.0437 18.4095C21.9315 18.4448 21.8191 18.4801 21.6993 18.5025C21.6474 18.5205 21.6056 18.551 21.565 18.5807C21.4996 18.6285 21.437 18.6743 21.3391 18.6623V18.5922C21.5638 18.3194 21.8349 18.0506 22.1952 18.0272C22.5434 17.9705 22.8717 18.0109 23.2142 18.053C23.2718 18.0601 23.3297 18.0673 23.3882 18.074C23.669 18.0966 23.9317 18.1592 24.2148 18.2267L24.2443 18.2337C24.3062 18.2337 24.3411 18.2883 24.3748 18.3411C24.4023 18.384 24.429 18.4258 24.4689 18.4363C24.5241 18.4553 24.5792 18.4589 24.6344 18.4624C24.7148 18.4676 24.7952 18.4728 24.8756 18.5259C24.8756 18.5102 24.873 18.4949 24.8704 18.4798C24.8653 18.4499 24.8602 18.4206 24.8756 18.3896C24.9256 18.3393 24.9829 18.3528 25.0393 18.3661C25.0834 18.3764 25.127 18.3867 25.1662 18.3662C25.289 18.29 25.1738 18.1729 25.0585 18.0558C25.0029 17.9993 24.9472 17.9428 24.9182 17.8909C24.9182 17.8675 24.9415 17.8441 24.9415 17.8441C24.9924 17.8897 25.0398 17.9369 25.0867 17.9837C25.2043 18.1008 25.3194 18.2153 25.4799 18.2961C25.5922 18.3428 25.8634 18.409 25.8169 18.2727C25.7373 18.0961 25.6014 17.9429 25.4642 17.7883C25.4077 17.7246 25.351 17.6607 25.2979 17.5948V17.5052C25.2625 17.5052 25.2541 17.4917 25.2435 17.4749C25.2402 17.4696 25.2367 17.464 25.232 17.4584V17.3688C25.1752 17.339 25.1625 17.2918 25.1497 17.2443C25.1424 17.2173 25.1351 17.1902 25.1197 17.1662C25.0808 17.1033 25.0781 17.0259 25.0752 16.946C25.0729 16.8825 25.0705 16.8175 25.0499 16.7571C25.0035 16.6207 24.9841 16.5078 24.9609 16.3714C24.9356 16.2319 24.9079 16.0985 24.8807 15.9679C24.8328 15.7374 24.7866 15.5157 24.7594 15.2844C24.7236 14.9538 24.8905 14.6743 25.0612 14.3885C25.1118 14.3037 25.1627 14.2185 25.2088 14.1312C25.3676 13.8584 25.5458 13.5896 25.8401 13.4065C25.9044 13.1405 26.0791 12.919 26.253 12.6985L26.2662 12.6818C26.4379 12.4679 26.7245 12.3371 26.9357 12.2408L26.9596 12.2299C27.2734 12.0896 27.5561 12 27.56 12H12V23.996H23.0396C23.3348 23.782 23.6283 23.6469 23.9775 23.4862C24.1369 23.4129 24.3079 23.3342 24.496 23.2402C24.5359 23.2201 24.5832 23.1968 24.6357 23.171C24.951 23.0159 25.4534 22.7687 25.6426 22.5817ZM22.1396 20.9633C22.0958 20.9677 22.0494 20.9723 22.0669 20.9372C22.0832 20.8583 22.1639 20.8347 22.2428 20.8116C22.2765 20.8017 22.31 20.7919 22.3378 20.7779L22.3505 20.7714L22.3598 20.7664C22.4035 20.7432 22.457 20.7148 22.4965 20.7313C22.5231 20.7692 22.5561 20.779 22.5881 20.7884C22.612 20.7955 22.6353 20.8024 22.6551 20.8207C22.5714 20.9047 22.4737 20.913 22.3747 20.9214C22.3089 20.9269 22.2425 20.9326 22.1791 20.9605C22.1678 20.9605 22.1538 20.9619 22.1396 20.9633ZM18.7126 20.4154C18.7126 20.4388 18.7359 20.4622 18.7359 20.4622C19.2782 19.8505 19.7701 19.3284 20.4673 18.8959C20.486 18.8881 20.4791 18.8979 20.4698 18.9109C20.4561 18.9302 20.4373 18.9567 20.4906 18.9427C20.7214 18.8901 20.8251 18.6923 20.9259 18.5C20.952 18.4502 20.9779 18.4008 21.0058 18.3544C21.1115 18.1823 21.2618 18.0721 21.4132 17.9611C21.5223 17.881 21.6321 17.8004 21.7262 17.696C21.7262 17.7193 21.7262 17.7427 21.703 17.7661C21.7262 17.7895 21.7495 17.7895 21.7727 17.7895C21.8136 17.7586 21.8582 17.7459 21.901 17.7336C21.9555 17.718 22.007 17.7033 22.0439 17.6531C21.8657 17.583 21.6372 17.5596 21.459 17.6297C20.9864 17.8557 20.5836 18.218 20.2001 18.6271C19.9677 18.8726 19.7275 19.1024 19.4331 19.2622C19.2317 19.6674 19.007 20.0297 18.7126 20.4154ZM20.6037 18.9664C20.5916 18.9908 20.5794 19.0035 20.5678 19.0156C20.5573 19.0266 20.5471 19.0372 20.5379 19.0557C20.5147 19.1023 20.4915 19.1217 20.4489 19.145C20.4257 19.145 20.4025 19.145 20.4025 19.1217C20.4257 19.0324 20.4915 18.9431 20.5805 18.9198C20.6037 18.9237 20.6037 18.947 20.6037 18.9664ZM21.5942 22.4264C21.6136 22.4069 21.6368 22.3835 21.6484 22.3601C21.6677 22.3134 21.5478 22.3251 21.5284 22.3368C21.5109 22.3509 21.4997 22.365 21.4862 22.3821L21.482 22.3874C21.4659 22.406 21.447 22.4232 21.4278 22.4406C21.4148 22.4525 21.4016 22.4644 21.3891 22.477C21.3349 22.5316 21.2808 22.5861 21.2227 22.6368C21.184 22.6718 21.3078 22.6874 21.3349 22.664C21.3659 22.6407 21.393 22.6134 21.4201 22.5861C21.4304 22.5861 21.4407 22.5844 21.4476 22.5832L21.4523 22.5825L21.4549 22.5822C21.5191 22.5607 21.5668 22.516 21.6132 22.4726L21.6252 22.4614C21.6407 22.4459 21.6213 22.4303 21.5942 22.4264ZM21.244 22.173C21.2436 22.1731 21.2433 22.1732 21.243 22.1734C21.2426 22.1739 21.2426 22.1749 21.2426 22.1768C21.2188 22.1931 21.1953 22.2097 21.1719 22.2263C21.1114 22.2691 21.0512 22.3117 20.9869 22.3483C20.9255 22.3829 20.8625 22.4128 20.7989 22.4429C20.7623 22.4603 20.7255 22.4778 20.6886 22.4963C20.6886 22.4963 20.6886 22.4924 20.6848 22.4924C20.677 22.4807 20.6615 22.4768 20.646 22.4846C20.5608 22.5314 20.4872 22.5937 20.4214 22.6599C20.4097 22.6677 20.3981 22.6794 20.3904 22.6911L20.3555 22.7262V22.7301C20.34 22.7457 20.3245 22.7612 20.3052 22.7846C20.3011 22.7887 20.298 22.7927 20.2951 22.7966C20.2895 22.8039 20.2843 22.8107 20.2742 22.8158C20.2587 22.8236 20.2199 22.8236 20.2238 22.8002V22.7963C20.2122 22.8041 20.1967 22.8119 20.1851 22.8158C20.1793 22.8197 20.1735 22.8226 20.1677 22.8255C20.1618 22.8284 20.156 22.8314 20.1502 22.8353C20.1463 22.8314 20.1386 22.8314 20.1347 22.8314C20.1309 22.8314 20.1231 22.8314 20.1192 22.8353C20.1102 22.8431 20.1012 22.8504 20.0921 22.8578C20.074 22.8725 20.056 22.8872 20.0379 22.9054C19.9914 22.9483 19.9488 22.995 19.9062 23.0457C19.9062 23.0457 19.9062 23.0495 19.9023 23.0495C19.9023 23.0515 19.9013 23.0525 19.9004 23.0534C19.8994 23.0544 19.8984 23.0554 19.8984 23.0573L19.8907 23.0651C19.8892 23.0666 19.8883 23.0681 19.8875 23.0694C19.8863 23.0714 19.8853 23.0729 19.8829 23.0729L19.8791 23.0768C19.8752 23.0846 19.8713 23.0924 19.8636 23.1002C19.8597 23.1041 19.852 23.108 19.8442 23.108C19.8403 23.1041 19.8365 23.1002 19.8365 23.0963C19.8345 23.0944 19.8336 23.0924 19.8326 23.0905C19.8316 23.0885 19.8307 23.0866 19.8287 23.0846C19.8248 23.0788 19.8219 23.0729 19.819 23.0671C19.8161 23.0612 19.8132 23.0554 19.8094 23.0495V23.0457C19.8094 23.0437 19.8084 23.0418 19.8074 23.0398C19.8064 23.0379 19.8055 23.0359 19.8055 23.034L19.8752 22.9521L19.8791 22.9483C19.8829 22.9444 19.8868 22.9395 19.8907 22.9346C19.8946 22.9298 19.8984 22.9249 19.9023 22.921C19.9081 22.9132 19.9149 22.9054 19.9217 22.8976C19.9285 22.8898 19.9352 22.882 19.9411 22.8742C19.943 22.8703 19.9449 22.8674 19.9469 22.8645C19.9488 22.8616 19.9507 22.8586 19.9527 22.8547C19.9759 22.8236 19.9992 22.7924 20.0224 22.7573V22.7534C20.0263 22.7496 20.0301 22.7457 20.0301 22.7379C20.0418 22.7223 20.0534 22.7067 20.0611 22.6911L20.0844 22.6444V22.6405L20.0882 22.6366C20.0882 22.6346 20.0892 22.6336 20.0902 22.6327C20.0912 22.6317 20.0921 22.6307 20.0921 22.6288C20.096 22.619 20.0999 22.6103 20.1037 22.6015C20.1076 22.5928 20.1115 22.584 20.1154 22.5742V22.5703L20.1192 22.5547C20.1212 22.5509 20.1221 22.547 20.1231 22.5431C20.1241 22.5392 20.125 22.5353 20.127 22.5314V22.5275C20.1289 22.5216 20.1299 22.5158 20.1309 22.5099C20.1318 22.5041 20.1328 22.4983 20.1347 22.4924C20.1347 22.4885 20.1347 22.4807 20.1309 22.4768C20.1541 22.434 20.1851 22.395 20.2199 22.356C20.218 22.356 20.2161 22.357 20.2141 22.358C20.213 22.3586 20.2119 22.3591 20.2108 22.3595C20.21 22.3598 20.2092 22.3599 20.2083 22.3599C20.1911 22.3708 20.1762 22.3852 20.1611 22.4C20.1491 22.4117 20.1369 22.4236 20.1231 22.434C20.0999 22.4535 20.0534 22.4223 20.0844 22.3989C20.1037 22.3833 20.1192 22.3677 20.1347 22.3522C20.1347 22.3522 20.1347 22.3483 20.1386 22.3483C20.154 22.3343 20.1689 22.3184 20.1838 22.3025C20.2064 22.2784 20.2292 22.254 20.2548 22.2353C20.2819 22.2158 20.3013 22.2002 20.3245 22.1807C20.3284 22.1768 20.3323 22.1729 20.3362 22.1729C20.3516 22.1535 20.3671 22.134 20.3865 22.1145C20.3865 22.1145 20.3904 22.1145 20.3904 22.1106C20.5234 21.9816 20.7103 21.9361 20.9011 21.8896C21.0214 21.8603 21.1433 21.8307 21.2542 21.7794C21.3168 21.7534 21.3866 21.7636 21.4556 21.7738C21.5104 21.7818 21.5647 21.7898 21.6144 21.7794C21.6803 21.7794 21.75 21.7794 21.8158 21.8262C21.6627 21.9077 21.5165 22.001 21.3719 22.0933C21.33 22.12 21.2882 22.1467 21.2464 22.1729C21.2454 22.1729 21.2446 22.1729 21.244 22.173ZM21.7281 20.5851C21.7099 20.5872 21.6982 20.5885 21.7082 20.5986C21.7741 20.6649 21.9097 20.6415 22.0026 20.5909C22.0685 20.5441 22.1382 20.5441 22.2273 20.5441C22.2505 20.5441 22.2505 20.5012 22.2505 20.4779C22.3164 20.5012 22.3629 20.5012 22.4287 20.5012C22.9671 20.3883 23.4862 20.2753 23.982 20.0259C23.4803 19.6383 22.8618 19.4656 22.256 19.2965C22.1555 19.2684 22.0554 19.2405 21.9561 19.2116C21.978 19.2116 21.9998 19.2189 22.0217 19.2262C22.066 19.241 22.1109 19.2559 22.1576 19.2116C22.0961 19.1626 22.0277 19.1532 21.9599 19.144C21.9038 19.1363 21.8482 19.1286 21.7973 19.0987C21.8026 19.0987 21.809 19.0999 21.8158 19.1012C21.839 19.1057 21.8685 19.1114 21.8864 19.0753C21.7688 19.0161 21.6511 18.996 21.5323 18.9757C21.4712 18.9653 21.4098 18.9548 21.348 18.9389C21.4603 18.9155 21.5301 18.8259 21.5301 18.7129C21.5301 18.6896 21.4836 18.6896 21.4603 18.6896C21.1931 18.8259 21.011 19.0753 20.8987 19.3675C20.9999 19.4271 21.1091 19.4202 21.2161 19.4134C21.2769 19.4096 21.3369 19.4058 21.3945 19.4142C21.3437 19.4625 21.2703 19.4756 21.1997 19.4882C21.1734 19.4929 21.1475 19.4975 21.1233 19.5038C21.0536 19.5194 20.9878 19.5701 21.011 19.6168C21.0265 19.6363 21.042 19.6441 21.0614 19.648C21.011 19.6636 20.9645 19.687 20.9219 19.7298C20.9857 19.78 21.0514 19.7703 21.1163 19.7608C21.1421 19.757 21.1677 19.7532 21.1931 19.7532C21.1931 19.7815 21.2116 19.7911 21.2309 19.8011C21.2409 19.8062 21.251 19.8115 21.2589 19.8194C21.1466 19.8623 21.0575 19.9558 21.0342 20.022C21.0065 20.0895 20.9552 20.1334 20.9044 20.1768C20.8701 20.2062 20.8361 20.2353 20.8096 20.2714V20.3415C20.7347 20.4078 20.6578 20.4671 20.582 20.5255C20.4262 20.6455 20.2748 20.7621 20.155 20.9298C20.1782 20.9298 20.1782 20.9532 20.1782 20.9766C20.1568 21.0089 20.1263 21.0313 20.0974 21.0525C20.0636 21.0774 20.0319 21.1006 20.0194 21.1363C20.0194 21.1597 20.0194 21.1831 20.0426 21.1831C20.1848 21.1361 20.3077 21.057 20.4283 20.9794C20.5377 20.9091 20.6452 20.84 20.7631 20.7973C20.8595 20.7742 20.9434 20.7305 21.0253 20.6878C21.0948 20.6516 21.1628 20.6162 21.2357 20.5947C21.2918 20.5831 21.3538 20.5665 21.4158 20.5499C21.4778 20.5334 21.5397 20.5168 21.5959 20.5051C21.5959 20.5285 21.5959 20.5519 21.6192 20.5519H21.7973C21.7864 20.5784 21.7518 20.5824 21.7281 20.5851Z" fill="#000091"/>
<path d="M44.9997 12H32.0963C32.0963 12 32.1197 12.0039 32.2172 12.0546C32.3225 12.1092 32.4591 12.1834 32.541 12.2263C32.7087 12.3121 32.8686 12.4213 32.9739 12.5891C33.0208 12.6554 33.0871 12.7919 33.0442 12.8817C32.9974 12.9948 32.9739 13.1782 32.8608 13.2211C32.7243 13.2913 32.5449 13.2913 32.3849 13.2679C32.2952 13.2679 32.2055 13.2445 32.1119 13.2211C32.4513 13.3576 32.7711 13.5176 32.9974 13.8336C33.0208 13.8804 33.1105 13.8999 33.2002 13.8999C33.2236 13.8999 33.2236 13.9467 33.2236 13.9662C33.1768 14.013 33.1339 14.0364 33.1573 14.1027H33.2236C33.3367 14.0559 33.3133 13.8296 33.4732 13.8999C33.5864 13.9662 33.6332 14.1261 33.5629 14.2393C33.4732 14.329 33.3835 14.3992 33.2899 14.4655C33.2665 14.5124 33.2665 14.5787 33.2899 14.6255C33.3562 14.7152 33.3796 14.8049 33.403 14.8986C33.4732 15.0585 33.4927 15.238 33.5629 15.3979C33.6527 15.7373 33.7424 16.0767 33.7229 16.42C33.7229 16.5995 33.6332 16.7594 33.6995 16.9428C33.7463 17.1222 33.8594 17.2588 33.9491 17.4187C34.0388 17.5553 34.1285 17.645 34.1988 17.7815C34.3353 18.0078 34.5849 18.2341 34.4718 18.5072C34.4055 18.6671 34.1558 18.6437 33.9959 18.7334C33.8594 18.8466 33.9725 19.0299 34.0427 19.143C34.1558 19.3459 33.9062 19.4824 33.7463 19.5527C33.7931 19.6229 33.8828 19.5995 33.9062 19.6424C33.9296 19.7555 34.0427 19.8218 33.9725 19.9389C33.8828 20.0754 33.6098 20.1417 33.7463 20.3485C33.836 20.5085 33.7775 20.684 33.7229 20.8479C33.6566 21.0507 33.4732 21.1404 33.3133 21.1873C33.1768 21.2341 33.0169 21.2341 32.8842 21.2107C32.8374 21.1873 32.7945 21.1638 32.7477 21.1638C32.3615 21.117 31.9754 21.0078 31.5931 21.0078C31.48 21.0312 31.3669 21.0507 31.2772 21.0975C31.1757 21.1717 31.0821 21.2536 31.0041 21.3394C31.0041 21.3394 31.0041 21.3394 31.0002 21.3433C30.9846 21.3628 30.9651 21.3784 30.9495 21.3979C30.9417 21.4096 30.93 21.4213 30.9222 21.433C30.9144 21.4408 30.9105 21.4486 30.9027 21.4564C30.8364 21.5384 30.7779 21.6281 30.7233 21.7178C30.7194 21.7256 30.7155 21.7295 30.7116 21.7334C30.7077 21.7451 30.6999 21.7529 30.6921 21.7646C30.6179 21.9012 30.5633 22.0416 30.5204 22.1821C30.3644 22.7009 30.4346 23.1456 30.5438 23.2549C30.575 23.2861 31.2928 23.5085 31.792 23.7308C32.0261 23.8362 32.1899 23.9142 32.3264 24H44.9958V12H44.9997Z" fill="#E1000F"/>
<path d="M32.8636 16.3747C32.9531 16.3981 33.0893 16.3981 33.0893 16.4448C33.0426 16.624 32.7741 16.6708 32.638 16.8539H32.5679C32.5018 16.9006 32.5212 17.0136 32.4551 17.0136C32.389 16.9903 32.3189 17.0136 32.2528 17.037C32.3423 17.1266 32.4551 17.1967 32.5913 17.1734C32.6146 17.1734 32.6574 17.2201 32.6574 17.263C32.6574 17.263 32.6808 17.263 32.7041 17.2396C32.7274 17.2396 32.7508 17.2396 32.7508 17.263V17.3526C32.6846 17.4422 32.5679 17.3993 32.4785 17.4188C32.6613 17.4656 32.8403 17.4656 32.9998 17.4188C33.1359 17.3721 32.9998 17.1461 33.0893 17.0331C33.0426 17.0331 33.0893 16.963 33.0426 16.963C33.0893 16.9162 33.1321 16.85 33.1787 16.8266C33.2254 16.8266 33.2916 16.8032 33.3149 16.7565C33.3149 16.7097 33.2254 16.6903 33.2449 16.6435C33.381 16.5539 33.4939 16.4175 33.4472 16.2812C33.4238 16.211 33.2449 16.211 33.1321 16.1682C33.0192 16.1253 32.8831 16.1682 32.7469 16.1916C32.6341 16.1916 32.5212 16.2617 32.4084 16.2812C32.2489 16.3279 32.1127 16.4175 31.9805 16.5071C32.14 16.4409 32.2956 16.4175 32.4785 16.3708C32.6146 16.3747 32.7274 16.3435 32.8636 16.3747Z" fill="#3A3A3A"/>
<path d="M17.1 37.644C17.892 37.644 18.576 37.368 19.056 36.912V35.448H16.92V33.996H20.76V37.524C19.98 38.568 18.672 39.24 17.1 39.24C14.376 39.24 12.516 37.2 12.516 34.8C12.516 32.4 14.328 30.36 16.98 30.36C18.504 30.36 19.752 31.044 20.52 32.064L19.176 33.108C18.696 32.424 17.94 31.956 16.98 31.956C15.396 31.956 14.268 33.192 14.268 34.8C14.268 36.408 15.456 37.644 17.1 37.644ZM26.6728 30.36C29.3128 30.36 31.1248 32.4 31.1248 34.8C31.1248 37.2 29.3128 39.24 26.6728 39.24C24.0208 39.24 22.2088 37.2 22.2088 34.8C22.2088 32.4 24.0208 30.36 26.6728 30.36ZM26.6728 37.644C28.2448 37.644 29.3728 36.408 29.3728 34.8C29.3728 33.192 28.2448 31.956 26.6728 31.956C25.0888 31.956 23.9608 33.192 23.9608 34.8C23.9608 36.408 25.0888 37.644 26.6728 37.644ZM37.8918 35.856V30.6H39.5958V35.712C39.5958 37.92 38.2998 39.24 36.1878 39.24C34.0878 39.24 32.7918 37.92 32.7918 35.712V30.6H34.4958V35.856C34.4958 36.984 35.1318 37.644 36.1998 37.644C37.2438 37.644 37.8918 36.984 37.8918 35.856ZM40.8366 30.6H42.6486L45.1326 37.164L47.6166 30.6H49.4286L46.2486 39H44.0166L40.8366 30.6ZM50.9057 39V30.6H55.8017V32.016H52.6097V34.008H55.3217V35.424H52.6097V37.584H55.8017V39H50.9057ZM57.9618 39V30.6H60.5298C62.3778 30.6 63.5178 31.548 63.5178 33.108C63.5178 34.128 63.0258 34.884 62.1618 35.28L64.7898 39H62.7858L60.5418 35.604H59.6658V39H57.9618ZM60.6258 32.016H59.6658V34.188H60.6258C61.3458 34.188 61.7658 33.768 61.7658 33.084C61.7658 32.448 61.3458 32.016 60.6258 32.016ZM66.0491 39V30.6H68.2331L71.9891 36.672V30.6H73.6931V39H71.5091L67.7531 32.928V39H66.0491ZM76.2224 39V30.6H81.1184V32.016H77.9264V34.008H80.6384V35.424H77.9264V37.584H81.1184V39H76.2224ZM83.2785 39V30.6H85.4025L87.4545 34.128L89.5065 30.6H91.6305V39H89.9265V32.976L88.0545 36.12H86.8545L84.9825 32.976V39H83.2785ZM94.1549 39V30.6H99.0509V32.016H95.8589V34.008H98.5709V35.424H95.8589V37.584H99.0509V39H94.1549ZM101.211 39V30.6H103.395L107.151 36.672V30.6H108.855V39H106.671L102.915 32.928V39H101.211ZM110.52 32.148V30.6H117.408V32.148H114.816V39H113.112V32.148H110.52Z" fill="white"/>
<path fill-rule="evenodd" clip-rule="evenodd" d="M43.18 60.6142L42.0638 61.6341H41.7758L42.4359 60.4702H43.18V60.6142ZM42.3759 64.5616H42.1359C41.8358 64.9216 41.4998 65.2096 41.1757 65.2096C40.8397 65.2096 40.6717 65.0056 40.6717 64.5616C40.6717 64.3816 40.6957 64.1896 40.7317 64.0216L42.688 63.3737C43.072 62.4617 42.6159 62.0657 42.0759 62.0657C41.1517 62.0657 40.0956 63.6856 40.0956 64.9816C40.0956 65.5935 40.3836 65.9295 40.8397 65.9295C41.3678 65.9175 41.9198 65.4016 42.3759 64.5616ZM41.7046 62.594C41.9686 62.594 42.1966 62.798 42.0766 63.266L40.8644 63.59C41.0565 63.014 41.4165 62.594 41.7046 62.594ZM37.8886 62.6177H38.5367L37.5045 65.4496C37.4085 65.6896 37.5405 65.9295 37.7925 65.9295C38.5247 65.9295 39.4008 65.3056 39.7368 64.4176H39.5568C39.2928 64.7896 38.7167 65.1976 38.2846 65.2696L39.2328 62.6177H40.2049L40.3249 62.2098H39.3768L39.7368 61.1898H39.3648L38.6927 62.2098L37.8886 62.3178V62.6177ZM36.9878 62.0784C37.1198 62.0784 37.2998 62.2224 37.2158 62.4864L36.0516 65.3063C36.3517 65.2583 36.6637 64.9703 36.8438 64.7063H37.0358C36.7597 65.4142 36.1356 65.9302 35.5956 65.9302C35.4636 65.9302 35.2715 65.7862 35.3675 65.5222L36.4477 62.7024C36.1477 62.7504 35.8356 63.0384 35.6556 63.3024H35.4756C35.7516 62.5824 36.4237 62.0784 36.9878 62.0784ZM37.3246 61.3582C37.5647 61.3582 37.7687 61.1662 37.7687 60.9142C37.7687 60.6742 37.5647 60.4702 37.3246 60.4702C37.0726 60.4702 36.8806 60.6742 36.8806 60.9142C36.8806 61.1542 37.0846 61.3582 37.3246 61.3582ZM32.0797 63.6983C32.3437 63.1224 32.2477 62.8584 32.0797 62.8584C31.9357 62.8584 31.7676 63.0144 31.5996 63.3024H31.4196C31.6956 62.6904 32.0557 62.0784 32.4517 62.0784C32.7878 62.0784 32.9078 62.4144 32.9078 62.7864V63.3144C32.9618 63.2515 33.0144 63.1898 33.0658 63.1296L33.0667 63.1285L33.0675 63.1276C33.5745 62.5326 33.9617 62.0784 34.408 62.0784C34.7561 62.0784 34.9361 62.2944 34.9361 62.6184C34.9361 62.8104 34.8761 63.0504 34.7441 63.3024L33.7479 65.3063C34.048 65.2583 34.36 64.9703 34.54 64.7063H34.7201C34.444 65.4262 33.7719 65.9302 33.2079 65.9302C32.9558 65.9302 32.8118 65.6662 32.9198 65.4502L34.072 63.2304C34.204 62.9784 34.228 62.8104 34.024 62.8104C33.7479 62.8104 33.0998 63.2664 32.7518 63.6863L31.9957 65.6782C31.9117 65.8822 31.8277 65.9302 31.6356 65.9302C31.3236 65.9302 31.1676 65.7262 31.3116 65.4022L32.0797 63.6983ZM31.2987 62.9297C31.4307 62.4737 31.3587 62.0657 31.0106 62.0657C30.5766 62.0657 30.4407 62.3524 30.02 63.2394L29.9905 63.3017V62.7737C29.9905 62.4017 29.8705 62.0657 29.5344 62.0657C29.1384 62.0657 28.7783 62.6777 28.5023 63.2897H28.6823C28.8743 63.0137 29.0544 62.8457 29.1984 62.8457C29.3664 62.8457 29.4624 63.1097 29.1984 63.6856L28.4303 65.3896C28.2863 65.7135 28.4423 65.9175 28.7543 65.9175C28.9464 65.9175 29.0304 65.8695 29.1144 65.6655L29.8705 63.6736C30.0865 63.4097 30.2785 63.1817 30.5186 62.9297H31.2987ZM27.5064 63.266C27.6264 62.798 27.3984 62.594 27.1344 62.594C26.8463 62.594 26.4863 63.014 26.2942 63.59L27.5064 63.266ZM27.8057 64.5616H27.5657C27.2656 64.9216 26.9296 65.2096 26.6055 65.2096C26.2695 65.2096 26.1015 65.0056 26.1015 64.5616C26.1015 64.3816 26.1255 64.1896 26.1615 64.0216L28.1178 63.3737C28.5018 62.4617 28.0458 62.0657 27.5057 62.0657C26.5815 62.0657 25.5254 63.6856 25.5254 64.9816C25.5254 65.5935 25.8134 65.9295 26.2695 65.9295C26.7976 65.9175 27.3497 65.4016 27.8057 64.5616ZM23.9665 62.6177H23.3184V62.3178L24.1225 62.2098L24.7946 61.1898H25.1666L24.8066 62.2098H25.7547L25.6347 62.6177H24.6626L23.7144 65.2696C24.1465 65.1976 24.7226 64.7896 24.9866 64.4176H25.1666C24.8306 65.3056 23.9545 65.9295 23.2224 65.9295C22.9703 65.9295 22.8383 65.6896 22.9343 65.4496L23.9665 62.6177ZM19.8865 64.8139C19.8865 63.9379 20.8586 62.762 21.3987 62.762C21.5187 62.762 21.6387 62.774 21.7347 62.81L21.1707 64.3219C20.8466 64.7179 20.3425 65.1979 20.1025 65.1979C19.9705 65.1979 19.8865 65.0779 19.8865 64.8139ZM22.5632 61.8861L22.8632 61.9101L21.8191 64.3099C21.567 64.8859 21.675 65.1499 21.8191 65.1499C21.9631 65.1499 22.1431 64.9819 22.3351 64.7059H22.5152C22.2391 65.3179 21.8791 65.9298 21.483 65.9298C21.147 65.9298 20.9429 65.5699 21.0029 64.9219L21.0269 64.6939L20.9616 64.7852C20.5317 65.3861 20.1427 65.9298 19.7428 65.9298C19.3947 65.9298 19.2147 65.7138 19.2147 65.3899C19.2147 63.9979 20.7389 62.222 22.1671 62.222H22.2271L22.5632 61.8861ZM19.814 62.9297C19.946 62.4737 19.874 62.0657 19.526 62.0657C19.0919 62.0657 18.956 62.3524 18.5354 63.2394L18.5058 63.3017V62.7737C18.5058 62.4017 18.3858 62.0657 18.0498 62.0657C17.6537 62.0657 17.2937 62.6777 17.0176 63.2897H17.1976C17.3897 63.0137 17.5697 62.8457 17.7017 62.8457C17.8697 62.8457 17.9658 63.1097 17.7017 63.6856L16.9336 65.4016C16.7896 65.7255 16.9456 65.9295 17.2576 65.9295C17.4497 65.9295 17.5337 65.8815 17.6177 65.6775L18.3738 63.6856C18.5898 63.4217 18.7819 63.1937 19.0219 62.9417H19.814V62.9297ZM14.8684 65.5688L14.7964 65.7848H12L12.072 65.5568C12.9361 65.4008 13.0802 65.3288 13.4402 64.3569L14.2203 62.269C14.5684 61.2971 14.4964 61.2251 13.7403 61.0691L13.8123 60.8531H17.4488L17.2328 62.017H16.9687C16.9687 61.3211 16.8967 61.1411 16.2366 61.1411H16.0686C15.4205 61.1411 15.3365 61.2371 15.1565 61.741L14.6404 63.145H15.3965C15.9006 63.145 16.0926 62.833 16.3206 62.425H16.5847L15.9606 64.1289H15.6965C15.7565 63.6129 15.7565 63.4089 15.2885 63.4089H14.5324L14.1843 64.3689C13.8081 65.368 13.9156 65.3884 14.8115 65.558C14.8301 65.5616 14.8491 65.5651 14.8684 65.5688Z" fill="white"/>
<path fill-rule="evenodd" clip-rule="evenodd" d="M17.2448 51.4341L16.1286 52.2385V52.2505H15.8405L16.5006 51.29H17.2448V51.4341ZM25.0472 57.0648L26.8355 52.3105L26.7755 52.2384L25.5393 52.3825V52.5266L25.7793 52.7066C25.9843 52.8661 25.93 53.0147 25.76 53.4805L25.7313 53.5591L24.3631 57.2089C24.2551 57.425 24.3991 57.6891 24.6511 57.6891C25.2152 57.6891 25.8153 57.1728 26.0914 56.4645H25.9114C25.7193 56.7286 25.3353 57.0168 25.0472 57.0648ZM33.2438 53.403L34.36 52.3825V52.2384H33.6159L32.9558 53.403H33.2438ZM33.315 56.3204H33.5551C33.111 57.1728 32.5589 57.6891 32.0308 57.6891C31.5747 57.6891 31.2867 57.3529 31.2867 56.7406C31.2867 55.444 32.3429 53.8232 33.267 53.8232C33.7951 53.8232 34.2632 54.2194 33.8791 55.1318L31.9108 55.7801C31.8748 55.9482 31.8508 56.1403 31.8508 56.3204C31.8508 56.7646 32.0188 56.9687 32.3549 56.9687C32.6789 56.9687 33.015 56.6806 33.315 56.3204ZM33.2544 55.0238C33.3745 54.5676 33.1464 54.3635 32.8824 54.3635C32.6063 54.3635 32.2463 54.7837 32.0422 55.348L33.2544 55.0238ZM29.7258 54.3872H29.0777V54.0871L29.8818 53.979L30.554 52.9585H30.926L30.566 53.979H31.5141L31.3941 54.3872H30.4219L29.4738 57.0405C29.9058 56.9685 30.4819 56.5603 30.746 56.1881H30.926C30.59 57.0765 29.7138 57.7008 28.9817 57.7008C28.7296 57.7008 28.5976 57.4607 28.6936 57.2206L29.7258 54.3872ZM28.4055 54.2431C28.4775 53.979 28.3095 53.8349 28.1655 53.8349C27.6014 53.8349 26.9292 54.3512 26.6532 55.0595H26.8332C27.0133 54.7954 27.3253 54.5072 27.6254 54.4592L26.5452 57.2806C26.4492 57.5447 26.6412 57.6888 26.7732 57.6888C27.3133 57.6888 27.9374 57.1726 28.2135 56.4642H28.0334C27.8534 56.7283 27.5413 57.0165 27.2413 57.0645L28.4055 54.2431ZM28.9585 52.6826C28.9585 52.9228 28.7544 53.1269 28.5144 53.1269C28.2744 53.1269 28.0703 52.9228 28.0703 52.6826C28.0703 52.4425 28.2624 52.2384 28.5144 52.2384C28.7544 52.2384 28.9585 52.4425 28.9585 52.6826ZM22.8987 54.5315C22.3586 54.5315 21.3864 55.7081 21.3864 56.5846C21.3864 56.8487 21.4704 56.9687 21.6145 56.9687C21.8425 56.9687 22.3466 56.4885 22.6706 56.0923L23.2347 54.5796C23.1267 54.5435 23.0187 54.5315 22.8987 54.5315ZM24.3632 53.6791L24.0632 53.6551L23.7271 53.9913H23.6671C22.2389 53.9913 20.7146 55.7682 20.7146 57.1609C20.7146 57.485 20.8946 57.7011 21.2427 57.7011C21.6426 57.7011 22.0316 57.1571 22.4616 56.5558L22.5269 56.4645L22.5029 56.6926C22.4429 57.3409 22.6469 57.7011 22.983 57.7011C23.3791 57.7011 23.7391 57.0888 24.0152 56.4765H23.8351C23.6431 56.7527 23.4631 56.9207 23.3191 56.9207C23.175 56.9207 23.067 56.6566 23.3191 56.0803L24.3632 53.6791ZM18.3135 57.5692C17.7974 57.7733 17.4373 58.0134 17.4373 58.3856C17.4373 58.7337 17.7614 58.8778 18.4335 58.8778C19.3337 58.8778 19.8258 58.6137 19.8258 58.2655C19.8258 58.1094 19.6217 58.0374 19.0816 57.8573C18.7336 57.7493 18.4815 57.6532 18.3135 57.5692ZM18.9128 56.0924C18.6728 56.0924 18.5888 55.8883 18.5888 55.6722C18.5888 54.9758 18.9248 54.1114 19.4649 54.1114C19.705 54.1114 19.789 54.3155 19.789 54.5316C19.777 55.24 19.4409 56.0924 18.9128 56.0924ZM19.3701 57.2209C20.0302 57.425 20.4383 57.581 20.4383 58.0373C20.4383 58.6255 19.3581 59.3219 18.0499 59.3099C17.2937 59.3099 16.6456 59.1058 16.6456 58.6135C16.6456 58.1453 17.0777 57.7611 18.1339 57.449C17.9899 57.3529 17.9299 57.2329 17.9299 57.0648C17.9299 56.7766 18.1939 56.5485 18.65 56.3324C18.2059 56.2724 17.9178 55.9362 17.9178 55.444C17.9178 54.6876 18.542 53.8232 19.5261 53.8232C19.7302 53.8232 19.9102 53.8712 20.0542 53.9673H21.1344L21.0144 54.3755H20.3783C20.4143 54.4835 20.4383 54.6036 20.4383 54.7356C20.4383 55.468 19.8502 56.3084 18.914 56.3564C18.674 56.4885 18.554 56.6686 18.554 56.8127C18.554 56.9822 18.7503 57.0395 19.1842 57.1662C19.2419 57.183 19.3039 57.2011 19.3701 57.2209ZM15.5646 55.1679C16.0327 55.1679 16.0447 55.372 15.9727 55.8883H16.2367L16.8609 54.1834H16.5968C16.3688 54.5916 16.1767 54.9038 15.6726 54.9038H14.6405L15.1446 53.4991C15.3246 52.9949 15.4086 52.8988 16.0567 52.8988H16.5128C17.1729 52.8988 17.2449 53.0789 17.2449 53.7752H17.509L17.725 52.6107H13.8123L13.7403 52.8268C14.4964 52.9829 14.5684 53.0549 14.2204 54.0274L13.4403 56.1284C13.0802 57.1009 12.9362 57.1729 12.06 57.329L12 57.5571H16.3448L17.1249 56.3205H16.8248C16.3208 56.8127 15.8167 57.269 14.8325 57.269C13.75 57.269 13.7693 57.216 14.0941 56.3234C14.115 56.266 14.1372 56.205 14.1604 56.1404L14.5204 55.1799H15.5646V55.1679Z" fill="white"/>
<path fill-rule="evenodd" clip-rule="evenodd" d="M19.1496 44.8876C19.3896 44.8876 19.5936 44.6837 19.5936 44.4438C19.5936 44.2039 19.3896 44 19.1496 44C18.8977 44 18.7057 44.2039 18.7057 44.4438C18.7057 44.6957 18.8977 44.8876 19.1496 44.8876ZM22.7022 46.3986C22.7022 45.8229 22.5583 45.607 22.1503 45.607C21.6464 45.607 21.1785 46.1467 20.7106 46.7944L21.7184 44.0956L21.6584 44.0117L20.4227 44.1556V44.2996L20.6626 44.4795C20.8716 44.6419 20.811 44.8044 20.633 45.2818L20.6146 45.3311L19.5229 48.1858C19.4269 48.4257 19.3189 48.7136 19.3189 48.7856C19.3189 49.1214 19.7748 49.4453 20.1947 49.4453C21.1305 49.4573 22.7022 47.73 22.7022 46.3986ZM33.1042 45.1752L34.22 44.1556V44.0117H33.4761L32.8163 45.1752H33.1042ZM33.1765 48.0899H33.4164C32.9605 48.9415 32.4086 49.4573 31.8807 49.4453C31.4248 49.4453 31.1369 49.1214 31.1369 48.5097C31.1369 47.2143 32.1927 45.595 33.1165 45.595C33.6444 45.595 34.1123 45.9908 33.7284 46.9024L31.7727 47.5501C31.7368 47.7181 31.7128 47.91 31.7128 48.0899C31.7128 48.5337 31.8807 48.7376 32.2167 48.7376C32.5406 48.7376 32.8765 48.4497 33.1765 48.0899ZM33.1153 46.7945C33.2353 46.3387 33.0073 46.1348 32.7434 46.1348C32.4555 46.1348 32.0955 46.5546 31.9036 47.1184L33.1153 46.7945ZM29.5747 46.1595H28.9268V45.8596L29.7306 45.7516L30.4025 44.7321H30.7744L30.4145 45.7516H31.3623L31.2423 46.1595H30.2705L29.3227 48.8103C29.7546 48.7383 30.3305 48.3305 30.5945 47.9587H30.7744C30.4385 48.8463 29.5627 49.47 28.8308 49.47C28.5789 49.47 28.4469 49.2301 28.5429 48.9902L29.5747 46.1595ZM28.5931 46.4713C28.7251 46.0155 28.6531 45.6077 28.3052 45.6077C27.8713 45.6077 27.7354 45.8942 27.3149 46.7809L27.2854 46.8431V46.3154C27.2854 45.9435 27.1654 45.6077 26.8295 45.6077C26.4336 45.6077 26.0736 46.2194 25.7977 46.8311H25.9776C26.1696 46.5553 26.3496 46.3873 26.4815 46.3873C26.6495 46.3873 26.7455 46.6512 26.4815 47.227L25.7137 48.9302C25.5697 49.2541 25.7257 49.458 26.0376 49.458C26.2296 49.458 26.3136 49.41 26.3976 49.2061L27.1534 47.215C27.3694 46.9511 27.5613 46.7232 27.8013 46.4713H28.5931ZM24.7902 46.7945C24.9101 46.3387 24.6822 46.1348 24.4182 46.1348C24.1303 46.1348 23.7823 46.5546 23.5784 47.1184L24.7902 46.7945ZM25.0893 48.0899H24.8494C24.5495 48.4497 24.2135 48.7376 23.8896 48.7376C23.5536 48.7376 23.3857 48.5337 23.3857 48.0899C23.3857 47.91 23.4097 47.7181 23.4457 47.5501L25.4013 46.9024C25.7852 45.9908 25.3293 45.595 24.7894 45.595C23.8656 45.595 22.8098 47.2143 22.8098 48.5097C22.8098 49.1214 23.0977 49.4453 23.5536 49.4453C24.0815 49.4573 24.6334 48.9415 25.0893 48.0899ZM20.0512 48.5461C20.0512 48.702 20.3272 48.882 20.5191 48.882C21.299 48.882 22.0308 47.4786 22.0188 46.6989C22.0188 46.435 21.8869 46.3271 21.7069 46.3271C21.419 46.3271 20.8911 46.7589 20.5551 47.1667L20.2432 48.0064C20.1352 48.2822 20.0512 48.4981 20.0512 48.5461ZM18.7917 45.6077C18.9357 45.6077 19.1036 45.7516 19.0316 46.0155L17.8799 48.8343C18.1798 48.7863 18.4917 48.4984 18.6717 48.2345H18.8517C18.5757 48.9422 17.9518 49.458 17.4119 49.458C17.268 49.458 17.076 49.314 17.172 49.0502L18.2518 46.2314C17.9518 46.2794 17.6399 46.5673 17.4599 46.8311H17.28C17.5559 46.1235 18.2278 45.6077 18.7917 45.6077ZM13.8116 44.3602H16.3911L16.3192 44.5881C15.4433 44.744 15.2994 44.816 14.9394 45.7876L14.1716 47.8986C13.7997 48.9062 13.8956 49.0261 14.5555 49.0261C15.3708 49.0261 15.9053 48.4337 16.3721 47.9164C16.4068 47.878 16.4411 47.84 16.4751 47.8027H16.7751L15.9232 49.314H12L12.072 49.0981C12.9358 48.9422 13.0798 48.8702 13.4397 47.8986L14.2196 45.7756C14.5675 44.804 14.4955 44.732 13.7397 44.5761L13.8116 44.3602Z" fill="white"/>
</svg>
