<svg width="472" height="511" viewBox="0 0 472 511" fill="none" xmlns="http://www.w3.org/2000/svg">
<path d="M216.873 458.57C216.873 458.57 223.232 467.331 301.206 471.678C379.18 476.025 417.132 459.019 417.132 459.019C417.132 459.019 307.539 411.142 247.253 431.099C227.462 437.649 216.881 458.562 216.881 458.562L216.873 458.57Z" fill="#224D9A"/>
<path d="M262.123 416.503L239.531 529.304L417.124 535.098L413.392 452.751C413.392 452.751 287.657 376.257 262.123 416.503Z" fill="#A1C51D"/>
<path d="M231.769 278.769C242.932 269.243 248.39 257.31 243.959 252.118C239.527 246.925 226.886 250.439 215.722 259.966C204.559 269.493 199.101 281.425 203.532 286.618C207.963 291.81 220.605 288.296 231.769 278.769Z" fill="#224D9A"/>
<path d="M175.745 191.639L174.828 198.977L187.619 220.88L210.905 216.574L197.849 193.739L182.686 188.082L175.745 191.639Z" fill="#FED069"/>
<path d="M180.706 158.872L184.969 178.083L180.08 179.164L175.561 158.792L180.706 158.872Z" fill="#A1C51D"/>
<path d="M155.467 105.578C155.549 105.427 155.63 105.269 155.713 105.127C155.631 105.277 155.549 105.427 155.467 105.578Z" fill="#50B1E4"/>
<path d="M156.289 104.167C156.204 104.301 156.121 104.443 156.037 104.585C156.121 104.443 156.206 104.309 156.289 104.167Z" fill="#50B1E4"/>
<path d="M157.521 102.426C157.563 102.376 157.612 102.324 157.652 102.266C157.611 102.316 157.561 102.368 157.521 102.426Z" fill="#50B1E4"/>
<path d="M153.303 111.058C153.353 110.872 153.411 110.683 153.47 110.495C153.411 110.683 153.36 110.862 153.303 111.058Z" fill="#50B1E4"/>
<path d="M153.646 109.896C153.704 109.708 153.764 109.528 153.832 109.346C153.772 109.526 153.704 109.708 153.646 109.896Z" fill="#50B1E4"/>
<path d="M158.233 101.567C158.316 101.467 158.41 101.382 158.493 101.282C158.408 101.374 158.316 101.467 158.233 101.567Z" fill="#50B1E4"/>
<path d="M154.468 107.673C154.538 107.5 154.617 107.333 154.686 107.159C154.607 107.326 154.538 107.5 154.468 107.673Z" fill="#50B1E4"/>
<path d="M154.948 106.604C155.027 106.437 155.107 106.279 155.188 106.12C155.107 106.279 155.028 106.445 154.948 106.604Z" fill="#50B1E4"/>
<path d="M154.038 108.767C154.106 108.585 154.175 108.412 154.244 108.239C154.175 108.412 154.107 108.594 154.038 108.767Z" fill="#50B1E4"/>
<path d="M196.518 125.712C196.479 125.499 196.456 125.284 196.423 125.061C196.462 125.274 196.487 125.498 196.518 125.712Z" fill="#50B1E4"/>
<path d="M158.969 100.797C159.068 100.694 159.177 100.598 159.278 100.503C159.177 100.598 159.07 100.702 158.969 100.797Z" fill="#50B1E4"/>
<path d="M159.731 100.072C159.84 99.9762 159.957 99.8785 160.075 99.7808C159.957 99.8785 159.848 99.9747 159.731 100.072Z" fill="#50B1E4"/>
<path d="M161.397 98.7844C161.517 98.703 161.646 98.6201 161.766 98.5387C161.637 98.6216 161.517 98.703 161.397 98.7844Z" fill="#50B1E4"/>
<path d="M163.219 97.7118C163.343 97.6468 163.467 97.5899 163.591 97.5249C163.466 97.5817 163.343 97.6468 163.219 97.7118Z" fill="#50B1E4"/>
<path d="M162.28 98.215C162.402 98.1418 162.532 98.067 162.653 97.9938C162.524 98.0685 162.402 98.1418 162.28 98.215Z" fill="#50B1E4"/>
<path d="M152.173 120.582C152.171 120.338 152.168 120.093 152.173 119.847C152.176 120.092 152.171 120.338 152.173 120.582Z" fill="#50B1E4"/>
<path d="M196.861 134.093C196.879 133.87 196.889 133.648 196.898 133.427C196.889 133.648 196.871 133.872 196.861 134.093Z" fill="#50B1E4"/>
<path d="M196.949 131.372C196.95 131.151 196.942 130.925 196.943 130.705C196.952 130.931 196.95 131.151 196.949 131.372Z" fill="#50B1E4"/>
<path d="M196.732 135.41C196.759 135.194 196.777 134.971 196.795 134.748C196.777 134.971 196.751 135.195 196.732 135.41Z" fill="#50B1E4"/>
<path d="M195.776 140.439C195.831 140.234 195.883 140.013 195.939 139.809C195.885 140.021 195.831 140.234 195.776 140.439Z" fill="#50B1E4"/>
<path d="M196.084 139.224C196.138 139.011 196.173 138.793 196.227 138.58C196.182 138.791 196.138 139.011 196.084 139.224Z" fill="#50B1E4"/>
<path d="M196.932 132.744C196.942 132.523 196.943 132.302 196.951 132.073C196.95 132.293 196.942 132.523 196.932 132.744Z" fill="#50B1E4"/>
<path d="M152.178 119.237C152.185 119 152.19 118.753 152.197 118.516C152.19 118.753 152.183 118.991 152.178 119.237Z" fill="#50B1E4"/>
<path d="M152.222 121.943C152.21 121.692 152.197 121.44 152.194 121.196C152.207 121.447 152.21 121.692 152.222 121.943Z" fill="#50B1E4"/>
<path d="M152.221 117.911C152.236 117.672 152.244 117.442 152.268 117.209C152.252 117.44 152.237 117.68 152.221 117.911Z" fill="#50B1E4"/>
<path d="M152.318 116.608C152.335 116.377 152.361 116.152 152.385 115.919C152.359 116.144 152.343 116.375 152.318 116.608Z" fill="#50B1E4"/>
<path d="M152.459 115.322C152.485 115.098 152.513 114.881 152.547 114.655C152.511 114.873 152.485 115.098 152.459 115.322Z" fill="#50B1E4"/>
<path d="M196.709 127.156C196.686 126.94 196.662 126.716 196.631 126.502C196.663 126.725 196.686 126.94 196.709 127.156Z" fill="#50B1E4"/>
<path opacity="0.8" d="M185.963 147.384C173.999 151.118 160.298 142.393 152.881 127.332C153.179 128.9 153.574 130.484 154.061 132.067C159.042 148.035 172.25 158.111 183.574 154.58C189.56 152.712 193.82 147.41 195.765 140.466C193.176 143.743 189.87 146.163 185.963 147.384Z" fill="white"/>
<path d="M152.793 126.808C152.743 126.538 152.694 126.276 152.653 126.005C152.701 126.267 152.751 126.536 152.793 126.808Z" fill="#50B1E4"/>
<path d="M152.596 125.61C152.513 125.025 152.438 124.439 152.373 123.859C152.43 124.44 152.505 125.027 152.596 125.61Z" fill="#50B1E4"/>
<path d="M152.323 123.31C152.301 123.053 152.287 122.793 152.264 122.535C152.279 122.795 152.301 123.053 152.323 123.31Z" fill="#50B1E4"/>
<path opacity="0.5" d="M152.879 127.324C150.169 113.083 155.346 99.937 165.544 96.7578C176.86 93.2281 190.077 103.311 195.057 119.27C197.403 126.791 197.501 134.27 195.771 140.456C193.174 143.735 189.877 146.153 185.969 147.375C173.998 151.11 160.296 142.385 152.886 127.314L152.879 127.324Z" fill="white"/>
<path d="M149.96 133.341C155.938 152.506 171.803 164.609 185.389 160.373C198.975 156.136 205.145 137.159 199.166 117.995C193.188 98.8306 177.323 86.7268 163.737 90.9637C150.151 95.2006 143.981 114.177 149.96 133.341ZM165.544 96.7578C176.86 93.2281 190.077 103.311 195.057 119.27C200.039 135.238 194.897 151.04 183.581 154.57C172.264 158.1 159.047 148.017 154.067 132.058C149.086 116.09 154.227 100.288 165.544 96.7578Z" fill="#224D9A"/>
<path d="M162.085 91.6325C162.085 91.6325 162.023 91.6609 161.992 91.6752L162.085 91.6325Z" fill="#262D5E"/>
<path d="M156.593 94.06L156.74 93.9904C156.882 93.9305 157.013 93.8639 157.154 93.804L161.553 91.8578C149.502 97.3577 144.307 115.292 149.955 133.401C155.933 152.566 171.798 164.67 185.384 160.433C185.392 160.431 185.408 160.428 185.417 160.427L183.826 161.194C183.357 161.45 182.868 161.684 182.376 161.902L182.368 161.903C181.78 162.156 181.172 162.387 180.548 162.578C166.962 166.815 151.099 154.719 145.119 135.547C139.491 117.501 144.63 99.6279 156.594 94.0681L156.593 94.06Z" fill="#A1C51D"/>
<path d="M188.708 113.462C188.708 113.462 184.955 104.503 175.327 102.81" stroke="white" stroke-width="1.26341" stroke-linecap="round" stroke-linejoin="round"/>
<path d="M193.49 226.42C190.601 227.061 187.727 225.238 187.084 222.342L177.185 177.753C176.956 176.723 177.606 175.701 178.637 175.473L185.388 173.974C186.418 173.745 187.44 174.395 187.669 175.426L197.568 220.014C198.209 222.903 196.386 225.776 193.49 226.42Z" fill="#A1C51D"/>
<path d="M208.054 267.666C208.054 267.666 179.969 253.012 173.469 242.456C166.97 231.9 175.738 227.616 175.738 227.616C175.738 227.616 170.665 218.834 176.417 214.33C176.417 214.33 171.525 209.909 169.249 204.371C166.974 198.832 172.683 194.962 175.58 195.364C175.58 195.364 170.645 191.577 170.084 188.545C169.523 185.512 173.63 177.23 179.775 180.793C185.92 184.357 190.828 187.997 187.412 191.604C184.005 195.209 175.571 195.357 175.571 195.357C175.571 195.357 186.802 201.015 190.743 203.675C194.684 206.336 199.171 209.116 200.963 212.909C202.763 216.702 200.842 221.03 195.683 219.372C195.683 219.372 199.245 222.221 201.229 224.77C205.7 230.528 207.741 233.701 204.931 236.334C203.526 237.65 198.44 235.421 198.44 235.421C198.44 235.421 201.305 238.754 200.489 241.154C199.673 243.553 195.667 245.021 189.857 242.443C184.053 239.857 196.312 252.484 196.312 252.484L208.037 267.661L208.054 267.666Z" fill="#FED069"/>
<path d="M232.948 245.725L218.111 205.63C218.111 205.63 199.546 187.745 197.232 183.685C194.915 179.616 195.944 173.889 192.312 172.896C188.678 171.894 185.24 181.414 190.472 194.03C195.705 206.646 200.924 211.378 200.924 211.378L192.876 218.868L184.979 245.095L208.055 267.674L232.948 245.725Z" fill="#FED069"/>
<path d="M175.74 227.624C175.74 227.624 179.13 224.749 181.979 225.482C184.828 226.214 198.453 235.444 198.453 235.444" stroke="#0E0E1C" stroke-width="1.1138" stroke-linecap="round" stroke-linejoin="round"/>
<path d="M195.685 219.388C195.685 219.388 188.385 215.929 183.88 214.15C179.375 212.371 176.416 214.33 176.416 214.33" stroke="#0E0E1C" stroke-width="1.1138" stroke-linecap="round" stroke-linejoin="round"/>
<path d="M207.489 266.579L256.19 356.462L281.939 322.234L232.948 245.726" fill="#FED069"/>
<path d="M361.112 203.268L292.983 315.399L242.954 250.832L242.715 251.045C243.178 251.357 243.599 251.71 243.956 252.134C248.39 257.324 242.93 269.255 231.767 278.783C220.605 288.311 207.966 291.824 203.533 286.634C203.448 286.539 203.377 286.434 203.309 286.337C205.884 292.403 238.783 368.785 276.934 409.117C316.674 451.141 396.002 358.89 396.002 358.89L418.232 239.448L361.115 203.284L361.112 203.268Z" fill="#A1C51D"/>
<path d="M176.533 208.197L188.678 216.187" stroke="#0E0E1C" stroke-width="1.1138" stroke-linecap="round" stroke-linejoin="round"/>
<path d="M189.868 242.458C195.671 245.045 199.684 243.568 200.5 241.168C201.315 238.769 198.451 235.436 198.451 235.436C198.451 235.436 203.539 237.673 204.942 236.349C207.744 233.717 205.71 230.535 201.24 224.785C199.255 222.236 195.694 219.386 195.694 219.386C200.861 221.043 202.774 216.716 200.974 212.924C199.173 209.132 194.687 206.352 190.754 203.69C186.821 201.028 175.581 195.372 175.581 195.372C175.581 195.372 184.015 195.224 187.423 191.618L188.95 189.595C188.95 189.595 191.001 200.136 202.846 212.307" stroke="#0E0E1C" stroke-width="1.1138" stroke-linecap="round" stroke-linejoin="round"/>
<path d="M189.868 242.458L179.544 237.732" stroke="#0E0E1C" stroke-width="1.1138" stroke-linecap="round" stroke-linejoin="round"/>
<path d="M346.555 194.259L335.359 144.753L319.683 145.086L369.321 70.0625L394.107 184.875L346.555 194.259Z" fill="#FED069"/>
<path d="M299.841 161.062C305.834 163.314 337.062 151.985 344.161 150.921C351.259 149.857 390.184 104.931 387.05 82.9046C381.099 41.0707 371.54 20.0249 337.711 27.9462C295.162 37.9122 291.413 45.6173 290.108 56.7636C288.803 67.9099 289.734 93.469 289.734 93.469C289.734 93.469 273.775 118.854 273.925 121.447L286.709 126.326C290.757 148.793 293.84 158.801 299.825 161.053L299.841 161.062Z" fill="#FED069"/>
<path d="M290.118 56.7717C303.176 59.7972 343.322 52.2334 343.322 52.2334C335.933 77.0777 339.964 94.807 339.964 94.807C339.964 94.807 353.438 88.0162 357.902 94.325C361.284 99.1126 362.44 105.43 363.977 111.888C368.832 132.335 387.234 146.117 387.234 146.117C387.234 146.117 386.96 138.229 394.108 125.594C401.256 112.96 409.834 105.912 415.495 97.1427C422.618 86.1211 436.083 39.5328 402.054 20.964C389.445 14.0817 368.341 20.5401 365.698 14.9711C363.055 9.40209 368.275 5.74485 365.615 4.38169C352.64 -2.28447 319.692 22.2939 303.475 14.9212C299.311 13.0261 299.327 -1.68601 299.477 0.849127C299.627 3.38426 296.069 7.83113 289.652 14.1399C283.236 20.4486 284.948 36.7899 284.948 36.7899C284.948 36.7899 281.274 34.263 280.202 31.9689C278.265 27.8462 272.272 24.1308 269.164 22.3853C268.756 22.1526 268.266 22.5017 268.341 22.9671C268.615 24.696 270.56 28.2286 270.593 38.0366C270.651 53.7212 283.352 55.2091 290.118 56.78V56.7717Z" fill="#224D9A"/>
<path d="M299.485 18.512C316.458 0.840901 333.789 17.0408 355.873 5.33765" stroke="#224D9A" stroke-width="1.22185" stroke-miterlimit="10"/>
<path d="M359.531 21.7868C360.845 22.3022 366.048 11.746 381.433 14.9794C404.108 19.7421 409.918 27.8961 409.918 27.8961" stroke="#224D9A" stroke-width="1.22185" stroke-miterlimit="10"/>
<path d="M370.504 101.509C375.36 92.2322 372.903 81.3655 365.017 77.2375C357.131 73.1096 346.802 77.2836 341.946 86.5605C337.09 95.8374 339.546 106.704 347.432 110.832C355.318 114.96 365.648 110.786 370.504 101.509Z" fill="#FED069"/>
<path d="M350.935 102.005C350.935 102.005 349.979 93.6932 358.881 84.7163" stroke="#0E0E1C" stroke-width="1.22185" stroke-linecap="round" stroke-linejoin="round"/>
<path d="M351.01 99.5781C351.01 99.5781 355.739 96.3032 361.79 99.1625" stroke="#0E0E1C" stroke-width="1.22185" stroke-linecap="round" stroke-linejoin="round"/>
<path d="M289.519 135.477C289.519 135.477 296.392 133.99 300.798 132.269" stroke="#0E0E1C" stroke-width="1.22185" stroke-linecap="round" stroke-linejoin="round"/>
<path d="M269.162 22.3687C268.938 22.269 268.672 22.3521 268.547 22.5267C268.265 23.0088 268.913 23.9314 269.054 24.4716C270.193 27.2063 270.883 30.1404 271.232 33.0745C271.739 36.8232 271.357 40.7713 272.637 44.3704C275.006 52.2999 283.052 54.4943 290.108 56.7718C286.235 56.3811 282.27 55.8741 278.588 54.0953C274.366 52.2168 271.124 48.144 270.127 43.5641C269.37 40.1562 269.669 36.6486 269.545 33.2075C269.428 30.3232 269.112 27.4639 268.481 24.6379C268.431 23.9646 267.899 22.9589 268.431 22.402C268.647 22.2108 268.963 22.2108 269.162 22.3604V22.3687Z" fill="#A1C51D"/>
<path d="M299.476 0.841064C299.709 2.58657 298.761 4.25726 297.93 5.72847C297.024 7.20799 296.002 8.58777 294.913 9.90937C292.96 12.5027 290.109 14.6721 288.563 17.44C285.62 23.3996 285.371 30.1988 284.939 36.7818C283.368 28.7857 283.326 18.0634 290.051 12.2783C292.453 9.95924 294.896 7.64853 297.057 5.11339C298.088 3.83336 299.219 2.52838 299.468 0.841064H299.476Z" fill="#A1C51D"/>
<path d="M365.613 4.38185C367.807 5.1881 366.511 8.31338 366.195 9.83446C365.738 11.5966 365.73 13.0595 365.705 14.9712C363.178 12.9764 363.627 9.08639 365.173 6.68425C365.563 5.89462 366.012 5.40421 365.621 4.37354L365.613 4.38185Z" fill="#A1C51D"/>
<path d="M289.743 93.4688C288.928 87.3596 288.82 81.242 288.836 75.1078C288.945 69.0401 289.177 62.7729 290.117 56.7717C290.931 62.7896 291.031 69.0734 291.023 75.1328C290.914 81.2669 290.682 87.3845 289.743 93.4688Z" fill="#A1C51D"/>
<path d="M289.744 93.4688C285.488 103.327 280.276 112.719 274.774 121.92L274.275 120.549C278.498 122.319 282.662 124.181 286.718 126.334C281.914 125.145 277.226 123.641 272.571 121.987C277.75 112.171 283.285 102.512 289.744 93.4688Z" fill="#A1C51D"/>
<path d="M336.921 152.55L355.589 146.291L340.952 170.354L336.921 152.55Z" fill="#A1C51D"/>
<path d="M286.692 123.068L289.518 125.004" stroke="#0E0E1C" stroke-width="1.22185" stroke-linecap="round" stroke-linejoin="round"/>
<path d="M317.166 86.0129C317.166 86.0129 312.652 102.138 294.466 93.0448C294.466 93.0448 300.908 76.0968 317.166 86.0129Z" fill="white"/>
<mask id="mask0_4098_4313" style="mask-type:luminance" maskUnits="userSpaceOnUse" x="294" y="82" width="24" height="14">
<path d="M317.168 86.0129C317.168 86.0129 312.654 102.138 294.468 93.0448C294.468 93.0448 300.627 76.0968 317.168 86.0129Z" fill="white"/>
</mask>
<g mask="url(#mask0_4098_4313)">
<path d="M303.326 95.2416C306.229 94.5506 307.913 91.1812 307.088 87.7158C306.264 84.2503 303.242 82.0012 300.339 82.6922C297.436 83.3832 295.752 86.7526 296.577 90.2181C297.402 93.6835 300.424 95.9326 303.326 95.2416Z" fill="#0E0E1C"/>
</g>
<path d="M298.32 80.3446L303.266 76.6375" stroke="#0E0E1C" stroke-width="1.22185" stroke-linecap="round" stroke-linejoin="round"/>
<path d="M317.165 86.0131C317.165 86.0131 301.854 75.6065 294.465 93.0449" stroke="#0E0E1C" stroke-width="1.22185" stroke-linecap="round" stroke-linejoin="round"/>
<path d="M301.381 220.101C328.486 193.528 336.698 187.809 355.758 186.587C374.817 185.366 422.029 179.805 444.446 198.706C466.863 217.608 480.386 274.278 460.13 319.512C453.207 334.972 441.113 358.096 433.449 371.519C423.043 389.747 422.743 447.939 422.743 447.939L247.32 403.62C247.32 403.62 254.003 361.321 258.674 324.64C265.59 270.355 292.163 229.136 301.373 220.109L301.381 220.101Z" fill="#50B1E4"/>
<path d="M335.31 193.245L331.112 176.497L399.536 158.867L409.361 189.139L337.404 190.835" fill="#50B1E4"/>
<path d="M145.015 304.434C152.753 289.655 161.057 282.05 170.441 286.962C179.825 291.874 184.023 311.865 176.285 326.635C168.546 341.413 155.38 351.745 145.996 346.833C136.612 341.921 137.277 319.204 145.015 304.434Z" fill="#224D9A"/>
<path d="M109.751 241.828C109.751 241.828 80.194 223.85 69.9703 215.654C59.755 207.459 47.337 198.681 42.9816 203.261C38.6261 207.849 53.0639 219.444 62.4564 228.762C71.8489 238.08 97.9981 259.649 97.9981 259.649L117.099 252.725L109.751 241.82V241.828Z" fill="#FED069"/>
<path d="M72.3733 279.614L69.3976 273.58C69.3976 273.58 57.4949 274.336 55.9821 280.903C55.0429 284.984 62.8395 290.586 78.4077 290.145C93.9759 289.705 72.3733 279.614 72.3733 279.614Z" fill="#A1C51D"/>
<path d="M163.438 289.281L116.824 243.724C114.115 241.072 109.934 240.665 106.759 242.726L71.8153 265.468C67.3684 268.36 66.0386 274.27 68.8147 278.792L72.8294 285.325C72.8294 285.325 70.7182 288.55 74.3422 291.75C77.9662 294.95 83.078 296.238 83.078 296.238C83.078 296.238 82.9699 301.608 89.7691 303.387C92.8694 304.193 96.3272 305.157 99.1865 305.963C103.725 307.243 105.287 307.06 109.984 306.587C110.457 306.537 110.865 306.429 111.181 306.429C115.927 306.495 113.566 302.705 113.292 301.575C113.292 301.575 121.662 309.33 130.896 316.785C138.959 323.302 154.361 322.205 154.361 322.205L163.438 289.273V289.281Z" fill="#FED069"/>
<path d="M96.0619 260.355L72.8301 285.324" stroke="#0E0E1C" stroke-width="1.1138" stroke-linecap="round" stroke-linejoin="round"/>
<path d="M83.0771 296.247C83.0771 296.247 83.3015 294.809 87.0419 288.816C90.4498 283.346 101.937 270.538 101.937 270.538" stroke="#0E0E1C" stroke-width="1.1138" stroke-linecap="round" stroke-linejoin="round"/>
<path d="M115.586 304.434L111.039 298.79C109.909 297.385 108.28 296.463 106.493 296.213L102.744 295.69L104.54 289.572" stroke="#0E0E1C" stroke-width="1.1138" stroke-linecap="round" stroke-linejoin="round"/>
<path d="M163.437 289.281L264.9 330.749L249.008 379.723L145.018 319.47L163.437 289.281Z" fill="#FED069"/>
<path d="M420.258 207.342C404.132 207.342 372.605 235.195 355.757 259.375C338.909 283.562 316.708 320.201 291.165 321.672C277.783 322.437 245.591 310.51 217.979 299.937C206.791 295.656 196.351 291.592 188.222 288.691C178.156 285.1 167.234 285.798 167.16 285.807C168.298 286.039 169.396 286.422 170.434 286.962C179.819 291.874 184.016 311.864 176.278 326.635C168.539 341.413 155.373 351.745 145.989 346.833C143.437 345.494 142.681 344.04 140.952 340.632C142.872 344.68 144.584 348.753 148.832 350.989C157.318 355.444 170.9 364.412 186.402 373.938C207.489 386.896 232.142 400.885 252.407 405.955C299.311 417.683 348.401 419.72 355.732 417.966C363.072 416.212 416.567 403.021 433.424 371.511C450.28 340 436.358 207.342 420.233 207.342H420.258Z" fill="#50B1E4"/>
<path d="M357.236 281.85L299.967 323.809C299.967 323.809 320.04 328.073 327.779 327.865C327.779 327.865 346.256 301.815 357.236 281.85Z" fill="#224D9A"/>
<path d="M111.072 240.332L85.5459 255.684" stroke="#0E0E1C" stroke-width="1.1138" stroke-linecap="round" stroke-linejoin="round"/>
<path d="M267.185 306.204C267.185 306.204 257.094 410.311 231.361 432.986C214.388 447.939 216.865 458.57 216.865 458.57C280.642 428.805 434.429 482.309 434.429 482.309L424.206 402.323L267.185 306.204Z" fill="#50B1E4"/>
<path d="M245.425 309.338C268.515 318.339 329.749 330.467 340.954 329.569" stroke="#0E0E1C" stroke-width="1.22185" stroke-linecap="round" stroke-linejoin="round"/>
<path d="M370.236 258.086C370.236 258.086 355.789 287.693 327.778 327.865" stroke="#0E0E1C" stroke-width="1.22185" stroke-linecap="round" stroke-linejoin="round"/>
<path d="M395.688 400.827C407.116 393.728 419.077 387.544 432.734 371.502C432.734 371.502 476.762 307.351 470.087 262.616" stroke="#0E0E1C" stroke-width="1.22185" stroke-linecap="round" stroke-linejoin="round"/>
<path d="M228.12 398.234C228.12 398.234 289.321 416.054 339.533 415.331C367.228 414.932 384.542 405.565 384.542 405.565" stroke="#0E0E1C" stroke-width="1.22185" stroke-linecap="round" stroke-linejoin="round"/>
<path d="M288.107 530.892L300.8 485.243L305.82 531.474L288.107 530.892Z" fill="#224D9A"/>
</svg>
