<svg width="212" height="110" viewBox="0 0 212 110" fill="none" xmlns="http://www.w3.org/2000/svg">
<rect width="212" height="118.571" transform="translate(0 -0.000488281)" fill="#B8C2E2"/>
<path d="M158.553 73.7551C157.876 71.1837 156.548 68.9208 154.782 67.1165C155.476 65.3937 155.858 63.5122 155.858 61.5408C155.858 53.2737 149.155 46.5708 140.888 46.5708C137.283 46.5708 74.9135 48.1994 69.7878 49.0522C61.6364 50.4108 56.1292 58.1208 57.4878 66.2765C57.5649 66.7351 57.6635 67.1894 57.7792 67.6308C54.1492 70.9394 52.2164 75.9622 53.0821 81.1651C54.3978 89.0637 61.6706 94.4765 69.5349 93.5765C72.9378 93.3579 92.7335 93.0579 111.291 92.8394C111.595 93.7479 111.989 94.6437 112.482 95.5051C115.238 100.361 120.304 103.087 125.515 103.087C128.018 103.087 130.555 102.457 132.891 101.132L151.469 90.5894C157.379 87.2337 160.289 80.3208 158.553 73.7508V73.7551Z" fill="white"/>
<path d="M72.0802 58.0392H73.8459V63.3364C73.8459 65.6249 72.5045 66.9921 70.3145 66.9921C68.1245 66.9921 66.7959 65.6249 66.7959 63.3364V58.0392H68.5616V63.4864C68.5616 64.6564 69.2216 65.3378 70.3273 65.3378C71.433 65.3378 72.0802 64.6521 72.0802 63.4864V58.0392ZM76.2159 61.8921H75.0459V60.4735H76.2159V58.9049H77.8059V60.4735H79.7216V61.8921H77.8059V64.4549C77.8059 65.1492 78.1788 65.4235 78.8002 65.4235C79.2373 65.4235 79.5202 65.3721 79.7345 65.2864V66.6664C79.4216 66.8035 79.0488 66.8635 78.5302 66.8635C76.9659 66.8635 76.2159 65.9807 76.2159 64.4507V61.8878V61.8921ZM80.9002 58.3478C80.9002 57.7907 81.3716 57.3149 81.933 57.3149C82.4945 57.3149 82.953 57.7864 82.953 58.3478C82.953 58.9092 82.4945 59.3807 81.933 59.3807C81.3716 59.3807 80.9002 58.9092 80.9002 58.3478ZM81.1359 60.4778H82.713V66.7435H81.1359V60.4778ZM84.603 57.4178H86.1802V66.7392H84.603V57.4178ZM87.8345 58.3478C87.8345 57.7907 88.3059 57.3149 88.8673 57.3149C89.4288 57.3149 89.8873 57.7864 89.8873 58.3478C89.8873 58.9092 89.4288 59.3807 88.8673 59.3807C88.3059 59.3807 87.8345 58.9092 87.8345 58.3478ZM88.0702 60.4778H89.6473V66.7435H88.0702V60.4778ZM91.9616 64.8878C92.3473 65.3721 92.8059 65.7192 93.4016 65.7192C93.9116 65.7192 94.173 65.4192 94.173 65.0464C94.173 63.9535 91.1773 64.3649 91.1773 62.1621C91.1773 61.0564 92.1116 60.2249 93.4145 60.2249C94.3702 60.2249 95.2402 60.6835 95.6902 61.2921L94.6445 62.2135C94.323 61.8149 93.9116 61.4935 93.4273 61.4935C92.943 61.4935 92.6945 61.7678 92.6945 62.0892C92.6945 63.1607 95.6902 62.7835 95.6902 64.9478C95.6645 66.2635 94.6102 66.9878 93.4273 66.9878C92.3088 66.9878 91.5116 66.5421 90.9159 65.8307L91.9616 64.8835V64.8878ZM96.7573 65.0507C96.7573 64.1078 97.4902 63.3964 98.8316 63.1735L100.747 62.8521V62.6892C100.747 62.0292 100.25 61.6092 99.5302 61.6092C98.9216 61.6092 98.4502 61.8964 98.1116 62.3549L96.9545 61.4721C97.5159 60.7007 98.433 60.2292 99.5773 60.2292C101.39 60.2292 102.324 61.3092 102.324 62.6892V66.7435H100.747V66.1349C100.349 66.6192 99.603 66.9321 98.8702 66.9321C97.6145 66.9321 96.7573 66.2121 96.7573 65.0549V65.0507ZM99.1959 65.6721C99.9159 65.6721 100.439 65.3378 100.752 64.8407V63.9578L99.2602 64.2064C98.6002 64.3178 98.3259 64.5921 98.3259 64.9778C98.3259 65.4021 98.6602 65.6721 99.1959 65.6721ZM104.527 61.8921H103.357V60.4735H104.527V58.9049H106.117V60.4735H108.033V61.8921H106.117V64.4549C106.117 65.1492 106.49 65.4235 107.112 65.4235C107.549 65.4235 107.832 65.3721 108.046 65.2864V66.6664C107.737 66.8035 107.36 66.8635 106.842 66.8635C105.273 66.8635 104.527 65.9807 104.527 64.4507V61.8878V61.8921ZM109.212 58.3478C109.212 57.7907 109.683 57.3149 110.244 57.3149C110.806 57.3149 111.264 57.7864 111.264 58.3478C111.264 58.9092 110.806 59.3807 110.244 59.3807C109.683 59.3807 109.212 58.9092 109.212 58.3478ZM109.447 60.4778H111.024V66.7435H109.447V60.4778ZM119.33 63.6064C119.33 65.4835 117.937 66.9878 115.897 66.9878C113.857 66.9878 112.464 65.4835 112.464 63.6064C112.464 61.7292 113.857 60.2249 115.897 60.2249C117.937 60.2249 119.33 61.7292 119.33 63.6064ZM117.689 63.6064C117.689 62.5135 116.93 61.7164 115.923 61.7164C114.916 61.7164 114.11 62.5135 114.11 63.6064C114.11 64.6992 114.882 65.4964 115.923 65.4964C116.964 65.4964 117.689 64.6864 117.689 63.6064ZM120.77 60.4778H122.347V60.9749C122.784 60.5507 123.367 60.2292 124.199 60.2292C125.553 60.2292 126.637 61.1592 126.637 63.0149V66.7435H125.047V63.0749C125.047 62.2435 124.576 61.7207 123.804 61.7207C123.033 61.7207 122.587 62.2564 122.352 62.6549V66.7435H120.774V60.4778H120.77ZM134.519 60.2292C135.363 60.2292 135.972 60.4907 136.46 60.9749V57.4178H138.05V66.7392H136.46V66.2421C135.976 66.7264 135.367 66.9878 134.519 66.9878C132.543 66.9878 131.334 65.4321 131.334 63.6064C131.334 61.7807 132.539 60.2249 134.519 60.2249V60.2292ZM134.742 65.4964C135.449 65.4964 136.036 65.1964 136.456 64.6264V62.5864C136.032 62.0164 135.449 61.7164 134.742 61.7164C133.67 61.7164 132.989 62.5135 132.989 63.6064C132.989 64.6992 133.674 65.4964 134.742 65.4964ZM142.97 66.9878C140.746 66.9878 139.49 65.4321 139.49 63.6064C139.49 61.7807 140.66 60.2249 142.709 60.2249C144.449 60.2249 145.593 61.4035 145.593 63.0449C145.593 63.3921 145.542 63.7178 145.494 63.9278H141.106C141.256 65.0978 141.976 65.5692 142.957 65.5692C143.643 65.5692 144.239 65.2692 144.573 64.8235L145.704 65.7192C145.122 66.5035 144.153 66.9878 142.97 66.9878ZM141.153 62.7878H144.037C144.012 62.1535 143.553 61.5192 142.67 61.5192C141.86 61.5192 141.329 61.9649 141.153 62.7878Z" fill="#273375"/>
<path d="M74.5398 77.6034L76.2927 78.932C75.4827 80.0034 74.1927 80.6977 72.5984 80.6977C69.8255 80.6977 67.9355 78.5848 67.9355 76.0991C67.9355 73.6134 69.8255 71.5005 72.5984 71.5005C74.1884 71.5005 75.4827 72.1948 76.2927 73.2534L74.5398 74.5948C74.1284 73.9991 73.4727 73.5748 72.5984 73.5748C71.2055 73.5748 70.2113 74.6463 70.2113 76.0991C70.2113 77.552 71.2055 78.6234 72.5984 78.6234C73.4555 78.6234 74.1284 78.1991 74.5398 77.6034ZM77.5313 83.5563C76.9955 83.5563 76.6613 83.4834 76.327 83.3463V81.6448C76.5155 81.7091 76.8241 81.7691 77.0727 81.7691C77.6941 81.7691 77.9813 81.572 78.1913 81.0491L78.427 80.4534L75.8555 74.1877H78.0455L79.477 77.8563L80.9427 74.1877H83.017L79.957 81.8077C79.5327 82.8534 78.8384 83.5605 77.5313 83.5605V83.5563ZM87.487 80.6977C86.7155 80.6977 86.1713 80.4877 85.747 80.102V80.4491H83.7713V71.1277H85.747V74.5348C86.1713 74.1491 86.7155 73.9391 87.487 73.9391C89.4884 73.9391 90.6455 75.4905 90.6455 77.3205C90.6455 79.1505 89.4884 80.702 87.487 80.702V80.6977ZM85.747 76.5234V78.1134C86.1198 78.5848 86.5913 78.8463 87.1998 78.8463C88.0698 78.8463 88.6055 78.2377 88.6055 77.3163C88.6055 76.3948 88.0698 75.7863 87.1998 75.7863C86.5655 75.7863 86.0813 76.0605 85.747 76.5191V76.5234ZM95.0213 80.6977C92.7198 80.6977 91.5027 79.142 91.5027 77.3163C91.5027 75.4905 92.6341 73.9348 94.7598 73.9348C96.5384 73.9348 97.7041 75.1134 97.7041 76.8191C97.7041 77.2434 97.6398 77.6377 97.5798 77.8648H93.5255C93.7141 78.7091 94.2584 78.932 95.0041 78.932C95.5998 78.932 96.1227 78.6963 96.4098 78.3363L97.8027 79.442C97.207 80.2263 96.2255 80.6977 95.017 80.6977H95.0213ZM93.5427 76.472H95.7927C95.767 76.0477 95.4455 75.5291 94.7127 75.5291C94.0784 75.5291 93.6927 75.8377 93.5427 76.472ZM99.0455 74.1834H101.021V74.6934C101.407 74.3334 101.891 74.0591 102.538 74.0591C102.761 74.0591 102.963 74.0977 103.108 74.1448V76.0948C102.898 76.0434 102.663 76.0091 102.337 76.0091C101.617 76.0091 101.141 76.4334 101.017 76.6434V80.4491H99.0413V74.1834H99.0455ZM104.454 71.7491H109.824V73.5748H106.666V75.1048H109.327V76.9305H106.666V78.6234H109.824V80.4491H104.454V71.7491ZM111.487 74.1834H113.463V74.5305C113.874 74.1834 114.397 73.9348 115.13 73.9348C116.458 73.9348 117.556 74.8648 117.556 76.7677V80.4491H115.567V76.8577C115.567 76.2234 115.233 75.7863 114.598 75.7863C113.904 75.7863 113.591 76.3348 113.467 76.5448V80.4491H111.491V74.1834H111.487ZM118.944 82.712C118.623 82.712 118.361 82.712 118.173 82.6734V80.7234C118.284 80.7491 118.421 80.762 118.597 80.762C119.343 80.762 119.63 80.4148 119.63 79.7677V71.7491H121.841V79.6434C121.841 81.6191 120.958 82.7163 118.944 82.7163V82.712ZM126.873 80.6977C124.571 80.6977 123.354 79.142 123.354 77.3163C123.354 75.4905 124.486 73.9348 126.611 73.9348C128.39 73.9348 129.556 75.1134 129.556 76.8191C129.556 77.2434 129.496 77.6377 129.431 77.8648H125.377C125.566 78.7091 126.11 78.932 126.856 78.932C127.451 78.932 127.974 78.6963 128.261 78.3363L129.654 79.442C129.058 80.2263 128.077 80.6977 126.868 80.6977H126.873ZM125.394 76.472H127.644C127.618 76.0477 127.297 75.5291 126.564 75.5291C125.93 75.5291 125.544 75.8377 125.394 76.472ZM134.814 74.1834H136.803V77.6163C136.803 79.4934 135.684 80.6977 133.756 80.6977C131.827 80.6977 130.721 79.4934 130.721 77.6163V74.1834H132.71V77.7277C132.71 78.3877 133.031 78.8463 133.768 78.8463C134.506 78.8463 134.814 78.3877 134.814 77.7277V74.1834ZM137.476 80.4491L139.614 77.2434L137.574 74.1834H139.824L140.857 75.812L141.916 74.1834H144.153L142.113 77.252L144.238 80.4491H142.001L140.857 78.6834L139.738 80.4491H137.476Z" fill="#E30613"/>
<path d="M58.5808 24.5626L60.1751 25.774C59.4408 26.7483 58.2637 27.3797 56.8151 27.3797C54.2923 27.3797 52.5723 25.4569 52.5723 23.194C52.5723 20.9312 54.2923 19.0083 56.8151 19.0083C58.2637 19.0083 59.4408 19.6426 60.1751 20.6026L58.5808 21.8254C58.2066 21.2826 57.6066 20.8969 56.8151 20.8969C55.5466 20.8969 54.6437 21.8712 54.6437 23.194C54.6437 24.5169 55.5494 25.4912 56.8151 25.4912C57.5951 25.4912 58.2066 25.1054 58.5808 24.5626ZM65.538 23.9426V27.1569H63.5237V23.9426L60.2208 19.2369H62.6751L64.5408 21.974L66.4066 19.2369H68.8494L65.5351 23.9426H65.538ZM69.7923 19.234H72.4065C74.1608 19.234 75.2237 20.0483 75.2237 21.4512C75.2237 22.0512 74.9408 22.5826 74.4437 22.9569C75.2237 23.354 75.678 23.9969 75.678 24.7797C75.678 26.274 74.4894 27.1569 72.5666 27.1569H69.7951V19.234H69.7923ZM71.8066 20.8969V22.2197H72.4637C72.9037 22.2197 73.1551 21.9826 73.1551 21.5397C73.1551 21.1312 72.9066 20.894 72.4637 20.894H71.8066V20.8969ZM71.8066 23.8854V25.4912H72.6894C73.2551 25.4912 73.6066 25.1854 73.6066 24.6883C73.6066 24.1912 73.2551 23.8854 72.6894 23.8854H71.8066ZM77.3037 19.234H82.1923V20.8969H79.318V22.2883H81.738V23.9512H79.318V25.4912H82.1923V27.154H77.3037V19.234ZM84.0694 19.234H86.7294C88.5837 19.234 89.7265 20.1512 89.7265 21.6997C89.7265 22.6626 89.2751 23.3854 88.4808 23.794L90.9008 27.154H88.5466L86.5551 24.1569H86.0808V27.154H84.0666V19.234H84.0694ZM86.0837 20.8969V22.4912H86.8523C87.3608 22.4912 87.6551 22.1626 87.6551 21.6769C87.6551 21.2254 87.3608 20.8969 86.8523 20.8969H86.0837Z" fill="#253473"/>
<path d="M114.112 19.2339H118.367V20.1396H115.175V22.6739H117.912V23.5682H115.175V26.2482H118.367V27.1539H114.112V19.2339ZM120.484 19.2339H121.875L126.355 25.851V19.2339H127.418V27.1539H126.027L121.547 20.5367V27.1539H120.484V19.2339Z" fill="#253473"/>
<path d="M132.302 29.2139C132.007 29.2139 131.77 29.2139 131.602 29.1796V27.4025C131.704 27.4253 131.827 27.4367 131.987 27.4367C132.667 27.4367 132.927 27.1196 132.927 26.531V19.2339H134.942V26.4167C134.942 28.2167 134.139 29.211 132.304 29.211L132.302 29.2139ZM137.079 19.2339H141.967V20.8967H139.093V22.2882H141.513V23.951H139.093V25.491H141.967V27.1539H137.079V19.2339ZM148.164 19.2339H150.179V23.9739C150.179 26.0796 148.956 27.3796 146.864 27.3796C144.773 27.3796 143.562 26.0796 143.562 23.9739V19.2339H145.576V24.1653C145.576 24.9796 146.039 25.4882 146.876 25.4882C147.713 25.4882 148.164 24.9796 148.164 24.1653V19.2339ZM151.153 27.1539L153.879 23.0825L151.31 19.2367H153.699L155.293 21.6025L156.876 19.2367H159.273L156.693 23.0825L159.419 27.1539H157.033L155.29 24.5625L153.547 27.1539H151.15H151.153Z" fill="#E20917"/>
<path d="M105.595 19.331L109.535 22.7939C109.472 18.8739 106.275 15.7139 102.341 15.7139C98.4064 15.7139 95.1436 18.9367 95.1436 22.9139C95.1436 26.891 98.3664 30.111 102.341 30.111C102.538 30.111 102.732 30.1024 102.924 30.0853L99.0978 26.7253L105.595 19.331Z" fill="#879CCD"/>
<path d="M109.569 22.9139C109.569 22.8739 109.569 22.8339 109.566 22.7939L105.626 19.3311L99.1289 26.7253L102.955 30.0853C106.657 29.7882 109.569 26.6911 109.569 22.9139Z" fill="#3C57A3"/>
<path d="M98.5717 21.1196L105.169 19.2424L105.783 19.6853L106.197 20.9739L106.903 24.251L106.503 25.131L99.7546 26.691L99.2003 26.2053L98.0117 21.5339L98.5717 21.1196Z" fill="white"/>
<path d="M106.993 24.6623C107.061 24.3366 107.056 23.9338 106.947 23.4338C106.924 23.328 106.901 23.2195 106.878 23.108C106.867 23.0595 106.858 23.0109 106.847 22.9595C106.821 22.8338 106.793 22.6966 106.761 22.5509L106.753 22.5052C106.736 22.4195 106.716 22.3309 106.696 22.2338V22.2166C106.636 21.948 106.57 21.6452 106.493 21.288C106.481 21.2338 106.47 21.1766 106.456 21.1195C106.447 21.0766 106.436 21.0309 106.427 20.9823L106.416 20.9366L106.398 20.8652C106.207 20.068 105.907 19.5709 105.567 19.268L105.558 19.2566C105.53 19.2338 105.504 19.2109 105.476 19.188L105.427 19.1509C105.35 19.0966 105.273 19.048 105.196 19.0109C105.15 18.9852 105.101 18.9652 105.056 18.9452C104.973 18.9138 104.89 18.888 104.807 18.868C104.781 18.8623 104.756 18.8566 104.727 18.8538C104.664 18.8423 104.604 18.8338 104.544 18.828C104.276 18.8052 104.027 18.8338 103.833 18.868H103.824C103.416 18.9423 102.058 19.2623 100.836 19.5795C100.341 19.708 99.8699 19.8338 99.4927 19.9423H99.487C99.407 19.9652 99.3327 19.988 99.2642 20.008L99.247 20.0138C99.2156 20.0223 99.1842 20.0338 99.1556 20.0423L99.1356 20.048C99.107 20.0566 99.0813 20.0652 99.0556 20.0709L99.0413 20.0766L98.9699 20.0995L98.9499 20.1052L98.887 20.128L98.8699 20.1338L98.8185 20.1538H98.8127C98.0156 20.4538 97.5385 21.4423 97.7327 22.4766C97.7756 22.7023 97.827 22.9538 97.8842 23.2195L97.8927 23.2538C97.9299 23.4223 97.9727 23.5995 98.0156 23.7766C98.0242 23.8138 98.0327 23.8509 98.0442 23.888C98.0642 23.968 98.087 24.0509 98.1099 24.1338C98.2156 24.528 98.3385 24.9338 98.4813 25.3309C98.5213 25.4452 98.567 25.5595 98.6099 25.6738C98.627 25.7195 98.647 25.7652 98.667 25.8109C98.7413 25.9909 98.8185 26.1652 98.9042 26.3338C99.027 26.5795 99.1842 26.7623 99.3642 26.8938C99.4099 26.928 99.4556 26.9566 99.5042 26.9823L99.5756 27.0195L99.6413 27.048C100.341 27.3423 101.281 27.1023 102.098 26.9109C102.358 26.8509 102.664 26.7766 102.99 26.6909C103.024 26.6823 103.056 26.6738 103.09 26.6652C103.941 26.4395 104.91 26.1623 105.547 25.9538C105.598 25.9395 105.627 25.9309 105.63 25.928C105.77 25.8795 105.893 25.8338 105.996 25.7938C106.461 25.6109 106.864 25.2795 106.996 24.6623H106.993ZM105.673 21.5138C105.933 21.4652 106.213 21.7566 106.304 22.1652C106.393 22.5709 106.261 22.9538 106.004 23.0195C105.741 23.0852 105.447 22.7966 105.356 22.3738C105.261 21.948 105.407 21.5623 105.676 21.5138H105.673ZM105.287 19.7566C105.553 19.728 105.836 20.0338 105.924 20.4423C106.013 20.8509 105.878 21.2166 105.616 21.2623C105.347 21.308 105.05 21.0023 104.958 20.5795C104.864 20.1538 105.016 19.7852 105.287 19.7566ZM103.947 19.9023C104.244 19.8709 104.556 20.1938 104.65 20.6223C104.744 21.0538 104.59 21.4423 104.296 21.4938C103.996 21.5452 103.67 21.2252 103.57 20.7766C103.473 20.328 103.644 19.9366 103.947 19.9023ZM104.701 23.348C104.407 23.4223 104.084 23.1223 103.984 22.6738C103.887 22.2252 104.053 21.8138 104.353 21.7595C104.644 21.7052 104.95 22.0109 105.047 22.4395C105.141 22.8709 104.99 23.2766 104.701 23.348ZM105.107 25.1909C104.818 25.288 104.498 25.0052 104.401 24.5566C104.304 24.108 104.467 23.6795 104.758 23.6023C105.044 23.5252 105.35 23.8138 105.444 24.2452C105.538 24.6738 105.39 25.0966 105.107 25.1909ZM106.384 24.7623C106.124 24.8509 105.836 24.5766 105.741 24.1538C105.647 23.728 105.79 23.328 106.053 23.2595C106.31 23.1909 106.587 23.4652 106.676 23.8738C106.764 24.2795 106.636 24.6795 106.381 24.7623H106.384Z" fill="#E20613"/>
<path d="M102.152 21.7111C102.152 21.7111 101.806 21.7396 101.269 21.6711C100.74 21.6025 100.495 21.4996 100.492 21.4996H100.486L100.478 21.4939L100.452 21.4882H100.446L100.418 21.4854H100.383L100.375 21.4911L100.352 21.4996L100.34 21.5054L100.32 21.5139L100.309 21.5225L100.292 21.5368H100.289C100.289 21.5368 100.103 21.7339 99.6462 22.0082C99.1805 22.2882 98.8548 22.3996 98.8519 22.3996C98.7662 22.4282 98.7148 22.5168 98.7348 22.6054C98.7405 22.6339 98.8833 23.3139 99.2462 24.0111C99.7405 24.9654 100.409 25.4854 101.178 25.5168H101.22L101.258 25.5025H101.263C101.955 25.1654 102.36 24.4225 102.432 23.3482C102.486 22.5654 102.346 21.8854 102.34 21.8568C102.32 21.7682 102.24 21.7054 102.149 21.7139L102.152 21.7111Z" fill="#273375"/>
<path d="M102.153 21.711L102.147 21.6395C102.147 21.6395 102.079 21.6452 101.956 21.6452C101.804 21.6452 101.57 21.6367 101.279 21.5995C101.019 21.5652 100.827 21.5224 100.701 21.4881C100.639 21.4738 100.593 21.4595 100.564 21.4481L100.53 21.4367L100.521 21.431H100.507L100.499 21.4252L100.473 21.4167H100.456V21.4138H100.421H100.41H100.379L100.373 21.4167L100.359 21.4224L100.333 21.431H100.327L100.313 21.4395L100.293 21.451H100.287L100.273 21.4652L100.256 21.4824H100.253V21.4881L100.219 21.5224C100.147 21.5881 99.9614 21.7424 99.6243 21.9481C99.3957 22.0852 99.1986 22.1795 99.0614 22.2424C98.9929 22.2738 98.9386 22.2967 98.9014 22.311L98.8586 22.3252L98.8471 22.331H98.8443C98.7414 22.3652 98.6729 22.4624 98.6729 22.5681L98.6786 22.6195C98.6843 22.651 98.83 23.3367 99.1986 24.0424C99.7014 25.011 100.39 25.5567 101.193 25.5881H101.247L101.236 25.5167V25.5881H101.253L101.256 25.5852L101.296 25.571H101.301L101.307 25.5681H101.31C102.033 25.2167 102.447 24.4395 102.521 23.3538C102.53 23.2252 102.533 23.1024 102.533 22.9824C102.533 22.3567 102.433 21.8681 102.427 21.8395C102.401 21.7224 102.299 21.6424 102.181 21.6424H102.159L102.164 21.7138L102.17 21.7852H102.179C102.227 21.7852 102.273 21.8195 102.284 21.871C102.287 21.891 102.387 22.371 102.387 22.9824C102.387 23.0995 102.384 23.2195 102.376 23.3424C102.304 24.4024 101.91 25.1167 101.247 25.4367L101.279 25.5024L101.256 25.4338H101.25L101.213 25.4481L101.236 25.5167L101.219 25.4452L101.233 25.5167V25.4424H101.221H101.201H101.196H101.187V25.5138L101.193 25.4424C100.459 25.4138 99.8128 24.9167 99.3214 23.9738C98.9643 23.2852 98.8214 22.611 98.8157 22.5881V22.5652C98.8157 22.5195 98.8414 22.4795 98.8871 22.4652C98.8871 22.4652 99.2243 22.351 99.6957 22.0681C100.159 21.791 100.347 21.5938 100.356 21.5881L100.304 21.5367L100.35 21.591H100.353L100.367 21.5767L100.373 21.571L100.387 21.5652H100.39L100.407 21.5567H100.43H100.433L100.427 21.4852L100.421 21.5567H100.453L100.461 21.4881L100.444 21.5567L100.467 21.5624H100.476L100.481 21.5681L100.504 21.4995L100.476 21.5652C100.476 21.5652 100.736 21.671 101.27 21.7424C101.567 21.7795 101.807 21.7881 101.964 21.7881C102.093 21.7881 102.164 21.7824 102.17 21.7824L102.164 21.711H102.153Z" fill="white"/>
<path d="M101.618 24.0223C101.641 24.1309 101.572 24.2366 101.463 24.2566L100.501 24.4595C100.395 24.4795 100.289 24.4109 100.266 24.3052L100.086 23.4452C100.066 23.3509 100.118 23.2623 100.198 23.2223L100.169 23.0795C100.109 22.7909 100.295 22.508 100.583 22.448C100.872 22.388 101.155 22.5737 101.215 22.8623L101.244 23.0052C101.335 23.0052 101.415 23.0709 101.435 23.1623L101.615 24.0223H101.618Z" fill="white"/>
<path d="M100.632 22.6737C100.469 22.708 100.364 22.8708 100.398 23.0337L100.427 23.1708L101.018 23.048L100.989 22.908C100.955 22.7451 100.795 22.6394 100.632 22.6737Z" fill="#273375"/>
</svg>
