<svg width="32" height="33" viewBox="0 0 32 33" fill="none" xmlns="http://www.w3.org/2000/svg">
<path d="M13.3337 4.69971H18.667C21.496 4.69971 24.2091 5.82351 26.2095 7.8239C28.2099 9.82429 29.3337 12.5374 29.3337 15.3664C29.3337 18.1953 28.2099 20.9085 26.2095 22.9088C24.2091 24.9092 21.496 26.033 18.667 26.033V30.6997C12.0003 28.033 2.66699 24.033 2.66699 15.3664C2.66699 12.5374 3.7908 9.82429 5.79119 7.8239C7.79157 5.82351 10.5047 4.69971 13.3337 4.69971ZM16.0003 23.3664H18.667C19.7176 23.3664 20.7579 23.1594 21.7285 22.7574C22.6991 22.3554 23.581 21.7661 24.3238 21.0232C25.0667 20.2804 25.656 19.3984 26.058 18.4278C26.4601 17.4572 26.667 16.4169 26.667 15.3664C26.667 14.3158 26.4601 13.2755 26.058 12.3049C25.656 11.3343 25.0667 10.4524 24.3238 9.70952C23.581 8.96665 22.6991 8.37738 21.7285 7.97534C20.7579 7.5733 19.7176 7.36637 18.667 7.36637H13.3337C11.2119 7.36637 9.1771 8.20923 7.67681 9.70952C6.17651 11.2098 5.33366 13.2446 5.33366 15.3664C5.33366 20.1797 8.61633 23.321 16.0003 26.673V23.3664Z" fill="#CE614A"/>
<path d="M15.6003 20.033L12.7367 15.3664L15.6003 10.6997H12.5094L9.60033 15.3664L12.5094 20.033H15.6003ZM21.6003 20.033L18.7367 15.3664L21.6003 10.6997H18.5094L15.6003 15.3664L18.5094 20.033H21.6003Z" fill="#CE614A"/>
</svg>
