<svg width="288" height="162" viewBox="0 0 288 162" fill="none" xmlns="http://www.w3.org/2000/svg">
    <g clip-path="url(#clip0_5872_3249)">
        <rect width="288" height="162" fill="#DFE2FF"/>
        <ellipse cx="86.6939" cy="81.2449" rx="29.3878" ry="29.3656" fill="#0A1A34"/>
        <path d="M90.0625 86.1353L101.298 92.5145L94.8352 96.5057L90.0625 86.1353Z" fill="white"/>
        <path d="M71.9922 65.1636L75.4889 73.1029L82.1828 68.8351" fill="#EF7276"/>
        <path d="M82.1826 68.8341L94.0455 76.4166L92.3208 64.0039" fill="#EF7276"/>
        <path d="M94.0463 76.42L101.487 71.7345L92.3218 64.0073" fill="#DA2641"/>
        <path d="M92.3198 64.0053L97.6651 60.625L101.485 71.7325" fill="#EF7276"/>
        <path d="M81.7755 73.2715L90.3012 78.6568L84.1212 82.5983L91.293 98.6376L80.6934 105.18L70.0171 80.7927L81.7755 73.2715Z" fill="white"/>
        <path d="M89.2178 83.7737H105.326L97.2831 78.6372L89.2178 83.7737Z" fill="white"/>
        <path d="M82.6714 56.7876L82.1826 68.8356L92.321 64.0054L82.6714 56.7876Z" fill="#DA2641"/>
        <path d="M82.6712 56.7876L79.1118 64.4875L82.1824 68.8356" fill="#EF7276"/>
        <path d="M79.1118 64.4863L71.9922 65.1628L82.1824 68.8344" fill="#D92641"/>
        <ellipse cx="200.98" cy="81.2449" rx="29.3878" ry="29.3656" fill="#5865F2"/>
        <path d="M206.298 67.3774C205.943 68.0029 205.624 68.6499 205.334 69.3113C202.581 68.9016 199.777 68.9016 197.017 69.3113C196.735 68.6499 196.409 68.0029 196.054 67.3774C193.467 67.816 190.946 68.5852 188.556 69.6708C183.818 76.6372 182.535 83.4238 183.173 90.117C185.948 92.1516 189.055 93.7044 192.366 94.6966C193.112 93.7044 193.772 92.6476 194.337 91.5477C193.265 91.1522 192.229 90.6561 191.236 90.081C191.497 89.8941 191.75 89.7001 191.997 89.5131C197.814 92.2306 204.552 92.2306 210.376 89.5131C210.623 89.7144 210.876 89.9085 211.137 90.081C210.145 90.6634 209.108 91.1522 208.029 91.5548C208.594 92.6548 209.253 93.7117 210 94.7037C213.31 93.7117 216.418 92.1659 219.193 90.1314C219.946 82.367 217.903 75.6379 213.796 69.678C211.412 68.5924 208.891 67.8232 206.305 67.3918L206.298 67.3774ZM195.148 85.9976C193.359 85.9976 191.874 84.3871 191.874 82.3957C191.874 80.4043 193.301 78.7867 195.141 78.7867C196.981 78.7867 198.444 80.4115 198.415 82.3957C198.386 84.38 196.974 85.9976 195.148 85.9976ZM207.218 85.9976C205.421 85.9976 203.95 84.3871 203.95 82.3957C203.95 80.4043 205.378 78.7867 207.218 78.7867C209.058 78.7867 210.514 80.4115 210.485 82.3957C210.456 84.38 209.043 85.9976 207.218 85.9976Z" fill="white"/>
        <path d="M135.673 73.0879L152 89.4021M152 73.0879L135.673 89.4021" stroke="#0A1A34" stroke-width="2"/>
    </g>
    <defs>
        <clipPath id="clip0_5872_3249">
            <rect width="288" height="162" fill="white"/>
        </clipPath>
    </defs>
</svg>
