<svg width="282" height="212" viewBox="0 0 282 212" fill="none" xmlns="http://www.w3.org/2000/svg">
<path d="M115.443 131.785H12.7925V189.073H115.443V131.785Z" fill="white"/>
<path d="M115.443 189.538H12.7923C12.6695 189.537 12.5521 189.487 12.4652 189.4C12.3784 189.314 12.3288 189.196 12.3271 189.073V131.785C12.3271 131.724 12.3392 131.663 12.3626 131.607C12.3859 131.55 12.4202 131.499 12.4634 131.456C12.5066 131.413 12.5579 131.378 12.6143 131.355C12.6708 131.332 12.7312 131.32 12.7923 131.32H115.443C115.504 131.32 115.564 131.332 115.621 131.355C115.677 131.378 115.728 131.413 115.771 131.456C115.815 131.499 115.849 131.55 115.872 131.607C115.896 131.663 115.908 131.724 115.908 131.785V189.073C115.908 189.197 115.859 189.315 115.771 189.402C115.684 189.489 115.566 189.538 115.443 189.538ZM13.264 188.602H114.977V132.25H13.264V188.602Z" fill="#231F20"/>
<path d="M44.2114 182.18C40.1834 182.181 36.2455 180.988 32.8957 178.751C29.5459 176.514 26.9347 173.334 25.3924 169.613C23.85 165.892 23.4458 161.797 24.2309 157.846C25.0159 153.895 26.9549 150.266 29.8027 147.417C32.6505 144.569 36.2791 142.628 40.2297 141.842C44.1802 141.056 48.2752 141.459 51.9967 143C55.7182 144.541 58.8991 147.151 61.1371 150.5C63.3751 153.849 64.5696 157.787 64.5696 161.815C64.5628 167.213 62.4159 172.388 58.5997 176.205C54.7835 180.023 49.6093 182.171 44.2114 182.18ZM44.2114 142.361C40.362 142.36 36.5987 143.5 33.3975 145.638C30.1964 147.776 27.7011 150.815 26.2274 154.371C24.7537 157.927 24.3678 161.841 25.1185 165.616C25.8691 169.392 27.7227 172.86 30.4446 175.582C33.1665 178.304 36.6346 180.157 40.4101 180.908C44.1856 181.659 48.0989 181.273 51.655 179.799C55.2112 178.325 58.2504 175.83 60.3882 172.629C62.526 169.428 63.6664 165.664 63.6651 161.815C63.6583 156.658 61.6065 151.713 57.9597 148.067C54.3129 144.42 49.3688 142.368 44.2114 142.361Z" fill="#D1D3D4"/>
<path d="M57.0557 177.476C56.9892 177.477 56.9234 177.463 56.863 177.435C56.8026 177.407 56.7493 177.366 56.7068 177.315L43.8626 162.106C43.7957 162.024 43.7591 161.921 43.7593 161.815V141.909C43.7593 141.789 43.8069 141.674 43.8917 141.589C43.9766 141.504 44.0916 141.457 44.2115 141.457C44.3315 141.457 44.4465 141.504 44.5313 141.589C44.6162 141.674 44.6638 141.789 44.6638 141.909V161.653L57.3982 176.733C57.4769 176.826 57.5156 176.946 57.506 177.067C57.4963 177.188 57.4389 177.3 57.3465 177.379C57.2641 177.445 57.1611 177.479 57.0557 177.476Z" fill="#D1D3D4"/>
<path d="M108.426 148.105H73.2789C73.2195 148.105 73.1607 148.093 73.1058 148.071C73.051 148.048 73.0011 148.014 72.9591 147.972C72.9171 147.931 72.8838 147.881 72.8611 147.826C72.8384 147.771 72.8267 147.712 72.8267 147.653C72.8267 147.593 72.8384 147.534 72.8611 147.48C72.8838 147.425 72.9171 147.375 72.9591 147.333C73.0011 147.291 73.051 147.258 73.1058 147.235C73.1607 147.212 73.2195 147.2 73.2789 147.2H108.426C108.485 147.2 108.544 147.212 108.599 147.235C108.654 147.258 108.704 147.291 108.746 147.333C108.788 147.375 108.821 147.425 108.844 147.48C108.867 147.534 108.878 147.593 108.878 147.653C108.878 147.712 108.867 147.771 108.844 147.826C108.821 147.881 108.788 147.931 108.746 147.972C108.704 148.014 108.654 148.048 108.599 148.071C108.544 148.093 108.485 148.105 108.426 148.105Z" fill="#D1D3D4"/>
<path d="M108.426 156.763H73.2789C73.159 156.763 73.0439 156.715 72.9591 156.63C72.8743 156.545 72.8267 156.43 72.8267 156.31C72.8267 156.19 72.8743 156.075 72.9591 155.99C73.0439 155.906 73.159 155.858 73.2789 155.858H108.426C108.546 155.858 108.661 155.906 108.746 155.99C108.831 156.075 108.878 156.19 108.878 156.31C108.878 156.43 108.831 156.545 108.746 156.63C108.661 156.715 108.546 156.763 108.426 156.763Z" fill="#D1D3D4"/>
<path d="M108.426 165.446H73.2789C73.159 165.446 73.0439 165.398 72.9591 165.313C72.8743 165.229 72.8267 165.114 72.8267 164.994C72.8267 164.874 72.8743 164.759 72.9591 164.674C73.0439 164.589 73.159 164.541 73.2789 164.541H108.426C108.546 164.541 108.661 164.589 108.746 164.674C108.831 164.759 108.878 164.874 108.878 164.994C108.878 165.114 108.831 165.229 108.746 165.313C108.661 165.398 108.546 165.446 108.426 165.446Z" fill="#D1D3D4"/>
<path d="M90.8525 174.078H73.2789C73.159 174.078 73.0439 174.03 72.9591 173.945C72.8743 173.86 72.8267 173.745 72.8267 173.625C72.8267 173.505 72.8743 173.39 72.9591 173.306C73.0439 173.221 73.159 173.173 73.2789 173.173H90.8525C90.9724 173.173 91.0874 173.221 91.1723 173.306C91.2571 173.39 91.3047 173.505 91.3047 173.625C91.3047 173.745 91.2571 173.86 91.1723 173.945C91.0874 174.03 90.9724 174.078 90.8525 174.078Z" fill="#D1D3D4"/>
<path d="M115.191 0.706848H0.465332V108.009H115.191V0.706848Z" fill="white"/>
<path d="M115.171 108.474H0.465182C0.341808 108.474 0.223488 108.425 0.136249 108.338C0.0490108 108.251 0 108.132 0 108.009V0.693943C0 0.570569 0.0490108 0.452248 0.136249 0.365009C0.223488 0.277771 0.341808 0.22876 0.465182 0.22876H115.171C115.295 0.22876 115.413 0.277771 115.5 0.365009C115.588 0.452248 115.637 0.570569 115.637 0.693943V108.009C115.637 108.132 115.588 108.251 115.5 108.338C115.413 108.425 115.295 108.474 115.171 108.474ZM0.930365 107.544H114.719V1.17205H0.930365V107.544Z" fill="#231F20"/>
<path d="M106.391 100.256H9.26476C9.14481 100.256 9.02978 100.208 8.94496 100.123C8.86015 100.039 8.8125 99.9235 8.8125 99.8036V15.5539C8.8125 15.434 8.86015 15.319 8.94496 15.2341C9.02978 15.1493 9.14481 15.1017 9.26476 15.1017C9.38471 15.1017 9.49974 15.1493 9.58456 15.2341C9.66937 15.319 9.71702 15.434 9.71702 15.5539V99.3513H106.391C106.511 99.3513 106.626 99.399 106.711 99.4838C106.796 99.5686 106.843 99.6836 106.843 99.8036C106.843 99.9235 106.796 100.039 106.711 100.123C106.626 100.208 106.511 100.256 106.391 100.256Z" fill="#D1D3D4"/>
<path d="M9.2651 100.256C9.17319 100.256 9.08326 100.229 9.00667 100.178C8.95602 100.144 8.91275 100.1 8.87939 100.049C8.84603 99.9974 8.82327 99.9399 8.81243 99.8797C8.8016 99.8195 8.80291 99.7578 8.81629 99.6981C8.82968 99.6384 8.85486 99.582 8.89037 99.5322L42.4869 51.4892C42.5457 51.4031 42.6326 51.34 42.7326 51.3105C42.8327 51.2811 42.9399 51.2871 43.036 51.3277L71.4638 63.2286L99.0194 25.8913C99.0551 25.8419 99.1004 25.8003 99.1526 25.7688C99.2048 25.7374 99.2628 25.7169 99.3232 25.7084C99.3835 25.7 99.445 25.7038 99.5038 25.7197C99.5626 25.7356 99.6176 25.7632 99.6655 25.8008C99.7169 25.8348 99.7606 25.8792 99.7938 25.9311C99.8269 25.983 99.8487 26.0414 99.8579 26.1023C99.867 26.1632 99.8633 26.2254 99.8468 26.2848C99.8304 26.3441 99.8016 26.3994 99.7624 26.4469L71.9807 64.0621C71.9214 64.144 71.836 64.2033 71.7386 64.2303C71.6412 64.2573 71.5374 64.2504 71.4444 64.2107L43.0166 52.3162L9.63337 100.062C9.59238 100.122 9.53741 100.171 9.47324 100.205C9.40906 100.238 9.33762 100.256 9.2651 100.256Z" fill="#D1D3D4"/>
<path d="M100.893 34.2258C100.789 34.225 100.689 34.1885 100.609 34.1227C100.529 34.0568 100.474 33.9655 100.453 33.864L99.019 26.6925L92.1641 27.7327C92.0504 27.7411 91.9378 27.7064 91.8487 27.6354C91.7595 27.5644 91.7005 27.4623 91.6834 27.3497C91.6662 27.237 91.6922 27.1221 91.7562 27.0278C91.8202 26.9335 91.9174 26.8668 92.0284 26.8411L99.3098 25.7363C99.4244 25.7173 99.5419 25.7439 99.6372 25.8102C99.7325 25.8766 99.7982 25.9775 99.8202 26.0916L101.364 33.6831C101.387 33.7995 101.364 33.9203 101.298 34.0194C101.233 34.1185 101.131 34.188 101.015 34.2129L100.893 34.2258Z" fill="#D1D3D4"/>
<path d="M51.467 38.8712H32.8727C32.7527 38.8712 32.6377 38.8235 32.5529 38.7387C32.4681 38.6539 32.4204 38.5389 32.4204 38.4189C32.4204 38.299 32.4681 38.1839 32.5529 38.0991C32.6377 38.0143 32.7527 37.9667 32.8727 37.9667H51.467C51.587 37.9667 51.702 38.0143 51.7868 38.0991C51.8716 38.1839 51.9193 38.299 51.9193 38.4189C51.9193 38.5389 51.8716 38.6539 51.7868 38.7387C51.702 38.8235 51.587 38.8712 51.467 38.8712Z" fill="#D1D3D4"/>
<path d="M51.467 32.2682H32.8727C32.7527 32.2682 32.6377 32.2205 32.5529 32.1357C32.4681 32.0509 32.4204 31.9359 32.4204 31.8159C32.4204 31.696 32.4681 31.5809 32.5529 31.4961C32.6377 31.4113 32.7527 31.3636 32.8727 31.3636H51.467C51.587 31.3636 51.702 31.4113 51.7868 31.4961C51.8716 31.5809 51.9193 31.696 51.9193 31.8159C51.9193 31.9359 51.8716 32.0509 51.7868 32.1357C51.702 32.2205 51.587 32.2682 51.467 32.2682Z" fill="#D1D3D4"/>
<path d="M97.6755 76.0664H79.0812C78.9612 76.0664 78.8462 76.0187 78.7614 75.9339C78.6765 75.8491 78.6289 75.7341 78.6289 75.6141C78.6289 75.4942 78.6765 75.3791 78.7614 75.2943C78.8462 75.2095 78.9612 75.1619 79.0812 75.1619H97.6755C97.7955 75.1619 97.9105 75.2095 97.9953 75.2943C98.0801 75.3791 98.1278 75.4942 98.1278 75.6141C98.1278 75.7341 98.0801 75.8491 97.9953 75.9339C97.9105 76.0187 97.7955 76.0664 97.6755 76.0664Z" fill="#D1D3D4"/>
<path d="M97.6755 69.4634H79.0812C78.9612 69.4634 78.8462 69.4157 78.7614 69.3309C78.6765 69.2461 78.6289 69.1311 78.6289 69.0111C78.6289 68.8912 78.6765 68.7761 78.7614 68.6913C78.8462 68.6065 78.9612 68.5588 79.0812 68.5588H97.6755C97.7955 68.5588 97.9105 68.6065 97.9953 68.6913C98.0801 68.7761 98.1278 68.8912 98.1278 69.0111C98.1278 69.1311 98.0801 69.2461 97.9953 69.3309C97.9105 69.4157 97.7955 69.4634 97.6755 69.4634Z" fill="#D1D3D4"/>
<path d="M91.3502 7.4649H24.2993V10.5532H91.3502V7.4649Z" fill="#D1D3D4"/>
<path d="M250.546 108.054L255.592 93.6205C255.592 93.6205 252.471 86.2487 253.072 82.1202C253.673 77.9917 255.592 70.5359 257.278 71.2595C258.964 71.9831 258.002 75.3492 259.216 80.8797C259.216 80.8797 268.83 63.3256 271.492 63.8037C274.154 64.2818 273.656 66.3169 272.933 67.5833C272.933 67.5833 275.821 65.1281 276.809 66.8144C277.081 67.3338 277.223 67.9113 277.223 68.4975C277.223 69.0837 277.081 69.6611 276.809 70.1805C276.809 70.1805 278.851 67.8934 279.575 69.4569C280.298 71.0204 278.974 72.9458 278.974 72.9458C278.974 72.9458 281.377 70.6586 281.616 72.7003C281.855 74.7419 263.222 114.786 263.222 114.786" fill="white"/>
<path d="M263.17 115.252C263.101 115.253 263.032 115.237 262.97 115.206C262.911 115.181 262.858 115.143 262.814 115.096C262.77 115.049 262.736 114.994 262.715 114.933C262.694 114.872 262.686 114.808 262.69 114.744C262.695 114.679 262.714 114.617 262.744 114.56C270.142 98.6794 281.125 74.4318 281.099 72.7197C281.099 72.4935 281.009 72.332 280.931 72.3062C280.634 72.1963 279.807 72.7197 279.238 73.2559C279.155 73.3358 279.045 73.3818 278.93 73.3852C278.815 73.3886 278.702 73.349 278.615 73.2741C278.527 73.1992 278.47 73.0944 278.455 72.98C278.44 72.8656 278.468 72.7498 278.534 72.6551C278.534 72.6551 279.697 70.9235 279.096 69.6249C278.98 69.3794 278.864 69.36 278.819 69.3536C278.399 69.2954 277.526 69.9996 277.1 70.4648C277.022 70.5577 276.911 70.6164 276.79 70.6285C276.669 70.6406 276.549 70.605 276.454 70.5294C276.36 70.4628 276.295 70.3634 276.271 70.251C276.247 70.1385 276.266 70.0211 276.325 69.9221C276.561 69.4741 276.685 68.9751 276.685 68.4684C276.685 67.9618 276.561 67.4628 276.325 67.0147C276.278 66.9267 276.212 66.8505 276.131 66.7923C276.051 66.734 275.958 66.6951 275.859 66.6788C275.136 66.556 273.831 67.3701 273.185 67.9128C273.102 67.9859 272.996 68.0272 272.885 68.0293C272.775 68.0313 272.668 67.9941 272.582 67.9242C272.497 67.8543 272.439 67.7562 272.419 67.6476C272.399 67.539 272.419 67.4269 272.474 67.3313C272.707 66.9178 273.217 65.8776 272.862 65.1282C272.698 64.8719 272.477 64.6577 272.215 64.5028C271.954 64.348 271.659 64.2567 271.356 64.2366H271.292C269.76 64.2366 264.068 72.9006 259.585 81.0865C259.537 81.1677 259.466 81.2329 259.381 81.2735C259.296 81.3141 259.201 81.3284 259.108 81.3145C259.015 81.3006 258.928 81.2592 258.859 81.1955C258.789 81.1318 258.741 81.0489 258.719 80.9573C258.322 79.0412 258.076 77.097 257.982 75.1425C257.853 73.0815 257.75 71.9896 257.065 71.6988C257.065 71.6988 257.007 71.6988 256.91 71.6988C255.74 72.3449 254.144 77.7656 253.505 82.1719C252.93 86.1195 255.966 93.3492 255.999 93.4203C256.037 93.529 256.037 93.6475 255.999 93.7562L250.946 108.183C250.927 108.242 250.896 108.296 250.855 108.342C250.815 108.388 250.765 108.426 250.71 108.453C250.655 108.48 250.594 108.496 250.533 108.499C250.472 108.503 250.41 108.494 250.352 108.474C250.294 108.455 250.24 108.423 250.194 108.383C250.148 108.342 250.11 108.293 250.084 108.237C250.057 108.182 250.042 108.121 250.04 108.06C250.037 107.999 250.046 107.937 250.068 107.88L255.055 93.6206C254.584 92.4641 251.999 85.945 252.568 82.0362C253.033 78.8446 254.59 71.9185 256.445 70.8848C256.59 70.7943 256.756 70.7406 256.927 70.7282C257.098 70.7159 257.269 70.7452 257.427 70.8137C258.674 71.3435 258.764 72.823 258.906 75.0585C258.986 76.5498 259.145 78.0358 259.384 79.51C262.214 74.4318 268.959 62.8669 271.518 63.3256C271.97 63.363 272.406 63.5118 272.787 63.7587C273.168 64.0055 273.482 64.3428 273.701 64.7405C273.922 65.2378 273.975 65.7937 273.85 66.3234C274.492 65.9063 275.251 65.709 276.014 65.7613C276.248 65.8017 276.47 65.8949 276.663 66.0337C276.855 66.1725 277.013 66.3533 277.126 66.5625C277.517 67.2408 277.682 68.026 277.597 68.8044C277.986 68.5337 278.456 68.4038 278.928 68.4361C279.148 68.4747 279.353 68.5693 279.526 68.7108C279.698 68.8523 279.83 69.0359 279.91 69.2437C280.221 69.9845 280.255 70.8121 280.007 71.5761C280.376 71.3731 280.81 71.3221 281.215 71.434C281.449 71.5343 281.647 71.7012 281.787 71.9138C281.926 72.1263 281.999 72.3752 281.997 72.6292C282.236 74.6967 266.679 108.254 263.558 114.961C263.526 115.04 263.473 115.109 263.405 115.161C263.337 115.212 263.255 115.243 263.17 115.252Z" fill="#231F20"/>
<path d="M157.581 164.289C157.581 164.289 145.047 201.627 143.864 211.318H228.838C228.838 211.318 221.311 178.077 217.027 165.885L157.581 164.289Z" fill="#231F20"/>
<path d="M228.837 211.77H143.864C143.801 211.77 143.739 211.756 143.681 211.731C143.623 211.705 143.571 211.668 143.528 211.622C143.485 211.574 143.453 211.517 143.434 211.456C143.415 211.395 143.41 211.33 143.418 211.266C144.588 201.659 156.637 165.672 157.148 164.147C157.179 164.059 157.237 163.981 157.313 163.926C157.389 163.871 157.48 163.84 157.574 163.837L217.014 165.433C217.105 165.435 217.193 165.465 217.267 165.518C217.34 165.571 217.396 165.645 217.428 165.73C221.666 177.812 229.18 210.892 229.251 211.221C229.267 211.287 229.267 211.355 229.253 211.421C229.238 211.487 229.209 211.549 229.167 211.602C229.126 211.651 229.076 211.692 229.02 211.721C228.963 211.749 228.901 211.766 228.837 211.77ZM144.381 210.872H228.275C227.28 206.524 220.639 177.709 216.704 166.325L157.91 164.748C156.702 168.334 145.809 201.136 144.381 210.872Z" fill="#231F20"/>
<path d="M86.2335 128.231C86.2335 128.231 79.1976 118.017 74.7396 113.294C70.2816 108.571 54.8466 82.9407 58.3161 80.1626C59.1043 79.5165 60.726 81.7907 61.0426 82.1008C62.4123 83.561 65.184 87.2114 66.4891 88.7167C67.1869 89.5244 65.507 90.9845 66.2048 91.7921C66.7281 92.393 67.413 92.7483 67.9105 93.3492C69.0727 94.59 70.4466 95.6139 71.9679 96.3729L77.1366 99.3319C76.2647 96.0471 75.7022 92.6879 75.4568 89.2982C75.3448 88.4333 75.4063 87.5548 75.6377 86.7139C75.759 86.2919 75.9916 85.9104 76.311 85.6092C76.6304 85.308 77.0249 85.0982 77.4532 85.0017C77.8698 84.9684 78.2881 85.0402 78.6696 85.2107C79.0512 85.3811 79.3838 85.6448 79.6369 85.9773C80.1351 86.657 80.5172 87.4146 80.7676 88.2193C83.2356 94.6801 86.6664 100.618 89.3799 106.911C91.5185 111.879 93.5601 117.203 96.7001 121.641L86.2335 128.231Z" fill="white"/>
<path d="M86.233 128.697C86.158 128.696 86.0842 128.678 86.0178 128.643C85.9514 128.608 85.8945 128.558 85.8518 128.496C85.7807 128.393 78.7836 118.256 74.4031 113.636C70.1454 109.114 56.9588 87.3988 57.3723 81.332C57.3649 81.0446 57.4186 80.7588 57.53 80.4937C57.6414 80.2286 57.8079 79.9902 58.0184 79.7943C59.0457 78.9738 60.4283 80.6536 61.1713 81.5581C61.2617 81.668 61.3328 81.7584 61.378 81.8037C62.1986 82.6759 63.4649 84.2652 64.6925 85.7965C65.5194 86.8367 66.3077 87.8187 66.8375 88.4325C67.3673 89.0463 67.0378 89.8345 66.7664 90.4612C66.5532 90.9652 66.4046 91.3334 66.5532 91.5014C66.7904 91.7629 67.0522 92.0008 67.335 92.2121C67.6742 92.4653 67.986 92.7533 68.2653 93.0714C69.3909 94.2704 70.7211 95.2593 72.1935 95.9917L76.406 98.3822C75.6873 95.411 75.214 92.3858 74.9911 89.337C74.8737 88.4025 74.9418 87.4541 75.1914 86.5459C75.3082 86.0386 75.5713 85.5767 75.9479 85.2173C76.3246 84.858 76.7984 84.617 77.3107 84.5242C77.823 84.4313 78.3512 84.4908 78.83 84.6951C79.3089 84.8994 79.7173 85.2396 80.0047 85.6737C80.5265 86.3711 80.9283 87.1506 81.1935 87.9802C82.6343 91.7534 84.4239 95.3585 86.1167 98.8474C87.3701 101.432 88.701 104.055 89.8187 106.723C90.1353 107.453 90.4648 108.19 90.762 108.933C92.5711 113.203 94.4447 117.623 97.0937 121.364C97.1318 121.415 97.1584 121.474 97.1718 121.536C97.1851 121.598 97.185 121.663 97.1712 121.725C97.1436 121.849 97.0696 121.958 96.9645 122.029L86.485 128.619C86.4105 128.669 86.3228 128.696 86.233 128.697ZM58.6774 80.4921H58.6257C58.5155 80.6093 58.4301 80.7475 58.3746 80.8985C58.3191 81.0495 58.2946 81.2101 58.3027 81.3708C57.9086 87.0886 71.0047 108.642 75.1009 112.964C79.0485 117.157 85.0765 125.718 86.3816 127.592L96.0729 121.486C93.4885 117.752 91.6859 113.449 89.9221 109.288C89.612 108.545 89.276 107.809 88.9853 107.079C87.8417 104.43 86.5496 101.794 85.2961 99.248C83.5776 95.7397 81.8008 92.1087 80.3665 88.3614C80.1269 87.6078 79.7692 86.8969 79.3069 86.2552C79.1049 85.9799 78.8369 85.7599 78.5275 85.6153C78.2182 85.4708 77.8774 85.4065 77.5367 85.4282C77.1926 85.5129 76.8775 85.6882 76.6241 85.9359C76.3707 86.1836 76.1883 86.4946 76.0959 86.8367C75.8866 87.6242 75.8339 88.4452 75.9408 89.253C76.1825 92.6163 76.7384 95.9496 77.6013 99.2092C77.6263 99.2969 77.6243 99.39 77.5955 99.4765C77.5666 99.563 77.5124 99.6387 77.4397 99.6938C77.3668 99.75 77.279 99.7836 77.1871 99.7905C77.0953 99.7974 77.0034 99.7773 76.9229 99.7325L71.7542 96.7735C70.1811 95.987 68.7611 94.9258 67.5611 93.64C67.325 93.3712 67.0608 93.1286 66.7729 92.9163C66.4431 92.6708 66.1381 92.3938 65.8619 92.0894C65.3256 91.4433 65.6616 90.6873 65.9329 90.0606C66.1526 89.5567 66.2948 89.182 66.1526 89.0204C65.6099 88.3744 64.8152 87.3988 63.9818 86.3586C62.8253 84.9049 61.5073 83.2574 60.7513 82.4174C60.6932 82.3593 60.6092 82.2559 60.4994 82.1267C59.2653 80.6536 58.8131 80.4921 58.6774 80.4921Z" fill="#231F20"/>
<path d="M79.5009 109.857L82.7249 107.783L44.4701 50.4167L43.0811 51.3148L79.5009 109.857Z" fill="#231F20"/>
<path d="M79.501 110.309H79.4041C79.3454 110.297 79.2899 110.273 79.2409 110.239C79.192 110.204 79.1508 110.16 79.1198 110.109L42.6935 51.5539C42.6591 51.5025 42.6356 51.4447 42.6241 51.384C42.6127 51.3233 42.6136 51.2609 42.6269 51.2006C42.6402 51.1402 42.6655 51.0832 42.7014 51.0329C42.7372 50.9826 42.7829 50.94 42.8356 50.9078L44.2247 50.0162C44.2746 49.9794 44.3317 49.9535 44.3922 49.9401C44.4528 49.9267 44.5154 49.926 44.5762 49.9382C44.6371 49.9503 44.6947 49.975 44.7454 50.0107C44.7961 50.0464 44.8388 50.0923 44.8708 50.1454L83.1255 107.505C83.1913 107.606 83.2145 107.729 83.1901 107.847C83.1628 107.965 83.094 108.068 82.9963 108.138L79.7659 110.212C79.689 110.27 79.5969 110.303 79.501 110.309ZM43.6949 51.4505L79.6367 109.236L82.0918 107.66L44.3345 51.0435L43.6949 51.4505Z" fill="#231F20"/>
<path d="M76.6453 108.829C75.0495 107.86 74.384 105.799 74.5778 103.945C74.7716 102.091 75.6762 100.392 76.6065 98.7763C77.5369 97.1611 78.5448 95.5459 78.9712 93.7239C79.165 92.9099 79.1521 91.8761 78.4285 91.4562C77.7824 91.0879 76.9942 91.4109 76.3998 91.8309C73.9899 93.5301 72.9238 96.5344 72.1098 99.3707L73.473 94.3312C73.8953 93.0377 74.1133 91.6862 74.1191 90.3255C74.1167 89.6443 73.9582 88.9727 73.6558 88.3623C73.3534 87.7519 72.9151 87.219 72.3747 86.8043C72.1228 86.6121 71.8127 86.5118 71.496 86.5201C70.9533 86.5782 70.6044 87.108 70.3589 87.599C69.1947 89.8987 68.511 92.4113 68.3495 94.9838L68.2268 86.8689C68.2723 86.1326 68.1532 85.3954 67.8779 84.711C67.7306 84.3726 67.4783 84.0907 67.1583 83.9068C66.8383 83.723 66.4677 83.647 66.1012 83.6902C65.2289 83.884 64.809 84.8984 64.6539 85.7706C64.3367 87.2257 64.1572 88.7075 64.1177 90.1963" fill="white"/>
<path d="M76.6451 109.295C76.5609 109.296 76.478 109.274 76.4061 109.23C74.7779 108.241 73.8799 106.148 74.1189 103.893C74.3192 101.955 75.2625 100.172 76.2058 98.5437L76.4448 98.1302C77.3531 96.7319 78.0518 95.2083 78.5188 93.6076C78.6803 92.9615 78.6738 92.1345 78.1957 91.8503C77.7176 91.566 76.9035 92.0441 76.671 92.2056C74.3386 93.8467 73.3242 96.8251 72.5618 99.4935C72.5273 99.6115 72.4475 99.7111 72.3397 99.7705C72.2319 99.8298 72.1051 99.844 71.9868 99.81C71.928 99.7944 71.8729 99.7671 71.8247 99.7299C71.7766 99.6927 71.7363 99.6464 71.7062 99.5934C71.6762 99.5405 71.6569 99.4821 71.6496 99.4217C71.6423 99.3613 71.6472 99.3 71.6638 99.2415L73.0206 94.2085C73.4372 92.958 73.6552 91.65 73.6666 90.332C73.6687 89.7238 73.5312 89.1233 73.2646 88.5766C72.998 88.03 72.6095 87.5519 72.129 87.1791C71.9682 87.0436 71.7642 86.9702 71.554 86.9723C71.302 86.9723 71.0565 87.2695 70.7851 87.7928C69.6612 90.0394 69.002 92.4895 68.8469 94.9967C68.8402 95.1167 68.7874 95.2294 68.6995 95.3113C68.6115 95.3932 68.4953 95.4379 68.3752 95.436C68.2546 95.4328 68.1398 95.3834 68.0545 95.2981C67.9691 95.2127 67.9197 95.0979 67.9165 94.9773L67.7937 86.8625C67.8345 86.202 67.7309 85.5406 67.4901 84.9242C67.3841 84.6838 67.2073 84.4815 66.9834 84.3441C66.7595 84.2068 66.499 84.1409 66.2367 84.1554C65.7327 84.2652 65.3644 84.8467 65.1383 85.874C64.8279 87.2992 64.6549 88.7509 64.6214 90.2092C64.6164 90.3326 64.5639 90.4493 64.4747 90.5348C64.3856 90.6203 64.2669 90.668 64.1433 90.6679C64.0194 90.6645 63.9017 90.6125 63.8159 90.523C63.73 90.4335 63.6829 90.3138 63.6846 90.1898C63.7223 88.6685 63.904 87.1542 64.2273 85.6672C64.5374 84.2458 65.1448 83.4253 66.0299 83.225C66.5006 83.1627 66.9788 83.255 67.3925 83.488C67.8062 83.7211 68.1329 84.0823 68.3235 84.5172C68.6353 85.2625 68.7745 86.0687 68.7305 86.8754L68.7822 90.3255C69.0989 89.3194 69.4965 88.3407 69.971 87.3987C70.0917 87.0693 70.2926 86.7752 70.5554 86.5428C70.8182 86.3105 71.1347 86.1472 71.4764 86.0678C71.9027 86.0465 72.3231 86.1744 72.6652 86.4296C73.2641 86.8837 73.7504 87.4695 74.0865 88.1418C74.4226 88.814 74.5995 89.5546 74.6035 90.3061C74.6264 91.3375 74.5002 92.3668 74.2288 93.3621C74.7633 92.6133 75.4182 91.9583 76.167 91.4238C77.0909 90.7778 78.0148 90.6292 78.6932 91.0233C79.4814 91.482 79.7657 92.5222 79.462 93.8079C78.971 95.4923 78.2376 97.0963 77.2847 98.5696L77.0457 98.9831C76.1541 100.527 75.2625 102.213 75.0751 103.964C74.9136 105.521 75.4175 107.498 76.9229 108.403C77.0115 108.455 77.0802 108.535 77.1184 108.631C77.1567 108.726 77.1622 108.832 77.1341 108.931C77.1061 109.029 77.046 109.116 76.9634 109.178C76.8808 109.239 76.7802 109.271 76.6774 109.269L76.6451 109.295Z" fill="#231F20"/>
<path d="M224.709 81.6809C224.709 81.6809 231.919 88.5617 233.844 91.4562C235.77 94.3507 237.54 129.453 237.54 129.453L248.459 103.002L266.801 110.154C266.801 110.154 255.592 167.326 243.814 168.528C232.035 169.73 209.17 147.472 209.17 147.472L224.709 81.6809Z" fill="#6A6AF4"/>
<path d="M171.181 75.9243C171.181 75.9243 150.06 80.0786 144.891 86.4878C139.723 92.8969 155.364 151.051 155.662 167.087C155.662 167.087 192.12 173.457 217.007 165.885C217.007 165.885 225.652 135.222 227.9 117.59C230.149 99.9587 227.254 84.5689 224.67 81.6809C222.086 78.7929 212.252 76.8998 212.252 76.8998C212.252 76.8998 175.994 76.9321 171.181 75.9243Z" fill="#6A6AF4"/>
<path d="M229.483 75.4526C229.944 73.3969 230.186 71.2985 230.207 69.192C230.256 67.9372 230.063 66.6846 229.638 65.5029C228.088 61.6264 222.906 59.8949 222.066 55.8116C221.356 52.3809 222.641 49.3507 221.743 46.0557C220.89 42.9028 219.96 41.3974 220.302 37.5984C220.878 30.8679 219.784 24.0993 217.117 17.8928C214.63 12.078 211.115 9.37737 206.857 4.97107C205.852 3.98838 204.647 3.23462 203.323 2.76145C192.056 -1.68363 179.696 1.83755 174.017 12.9696C170.851 19.1656 169.494 26.2144 165.799 32.1261C163.214 36.2869 159.486 39.9566 158.511 44.7571C157.645 48.9954 159.215 53.027 158.233 57.317C157.936 58.7495 157.385 60.1172 156.605 61.355C155.704 62.5818 154.654 63.691 153.478 64.6565C150.893 66.9695 148.374 69.3988 146.506 72.3191C145.877 73.3085 145.342 74.3556 144.911 75.4462L229.483 75.4526Z" fill="white"/>
<path d="M229.484 75.9178H144.892C144.815 75.9179 144.739 75.8991 144.672 75.863C144.604 75.827 144.546 75.7748 144.504 75.711C144.461 75.6485 144.434 75.5761 144.426 75.5004C144.418 75.4247 144.429 75.3483 144.459 75.2782C144.901 74.1514 145.451 73.0697 146.1 72.0477C148.038 68.9853 150.764 66.4332 153.149 64.2947L153.291 64.1655C154.383 63.2616 155.359 62.2265 156.198 61.0836C156.949 59.897 157.476 58.5833 157.755 57.2071C158.134 55.1261 158.188 52.999 157.917 50.9013C157.662 48.8279 157.701 46.729 158.033 44.6666C158.744 41.1906 160.856 38.2833 162.904 35.4663C163.751 34.3034 164.629 33.1016 165.385 31.8805C167.427 28.592 168.784 24.8576 170.095 21.246C171.083 18.3482 172.246 15.5131 173.578 12.7564C179.134 1.86983 191.423 -2.42665 203.472 2.30917C204.86 2.80782 206.123 3.60134 207.174 4.63508C208.001 5.48791 208.789 6.27613 209.552 7.03205C212.737 10.1914 215.489 12.9179 217.531 17.7119C220.225 23.9906 221.334 30.8354 220.761 37.6436C220.545 39.7797 220.83 41.9368 221.595 43.943C221.789 44.5503 221.989 45.1964 222.189 45.9329C222.565 47.6296 222.641 49.3787 222.415 51.1016C222.232 52.6298 222.265 54.1762 222.512 55.6953C222.932 57.7304 224.541 59.1583 226.24 60.6766C227.746 62.0205 229.309 63.4095 230.065 65.2961C230.511 66.5381 230.715 67.854 230.666 69.1726C230.65 71.3121 230.403 73.4436 229.929 75.5301C229.913 75.6369 229.859 75.7343 229.777 75.8053C229.696 75.8762 229.592 75.916 229.484 75.9178ZM145.609 74.9939H229.102C229.512 73.0822 229.729 71.1341 229.749 69.1791C229.793 67.9842 229.611 66.7916 229.212 65.6644C228.534 63.9781 227.061 62.6665 225.633 61.3938C223.895 59.8431 222.099 58.2409 221.614 55.902C221.342 54.2987 221.303 52.6644 221.498 51.0499C221.721 49.4252 221.656 47.7738 221.304 46.172C221.104 45.4483 220.91 44.8152 220.723 44.2337C219.913 42.1102 219.61 39.8272 219.838 37.5661C220.402 30.9111 219.321 24.2194 216.691 18.0801C214.721 13.4606 212.169 10.915 208.938 7.70399C208.169 6.9416 207.368 6.14692 206.541 5.29409C205.586 4.35536 204.437 3.63654 203.175 3.18784C191.584 -1.33476 179.774 2.74204 174.45 13.1893C173.133 15.9156 171.985 18.7206 171.013 21.5884C169.662 25.2452 168.286 29.0055 166.212 32.3522C165.437 33.6056 164.552 34.8202 163.693 36.0026C161.612 38.8583 159.648 41.5524 158.983 44.8281C158.667 46.8076 158.632 48.8217 158.879 50.8109C159.16 53.0037 159.099 55.2268 158.698 57.4009C158.395 58.8904 157.822 60.3117 157.006 61.594C156.126 62.794 155.099 63.8792 153.95 64.8245L153.801 64.9602C151.462 67.0599 148.807 69.5603 146.914 72.5258C146.418 73.3149 145.982 74.1399 145.609 74.9939Z" fill="#231F20"/>
<path d="M202.516 72.8036C202.516 72.8036 205.371 113.442 191.132 110.722C172.201 106.691 180.794 78.1468 180.794 78.1468L181.104 72.8036L181.822 60.3988L182.506 48.8015L202.399 48.5818L203.162 58.0535L203.401 61.1224L202.516 72.8036Z" fill="white"/>
<path d="M192.463 111.317C191.986 111.315 191.51 111.27 191.041 111.181C186.661 110.244 183.366 107.951 181.247 104.359C175.574 94.7706 179.993 79.271 180.349 78.0628L182.061 48.7757C182.066 48.6574 182.116 48.5457 182.202 48.4638C182.287 48.3819 182.401 48.3363 182.519 48.3364L202.393 48.1167C202.51 48.1178 202.622 48.1619 202.707 48.2407C202.793 48.3194 202.847 48.4271 202.858 48.5431L203.86 61.0901L202.962 72.8101C203.071 74.4318 204.9 102.427 196.772 109.637C195.596 110.715 194.059 111.315 192.463 111.317ZM182.965 49.2603L181.279 78.1726C181.285 78.209 181.285 78.2461 181.279 78.2825C181.234 78.4375 176.498 94.4734 182.067 103.887C183.048 105.548 184.376 106.978 185.961 108.078C187.545 109.179 189.349 109.924 191.248 110.264C192.12 110.461 193.026 110.442 193.888 110.209C194.751 109.976 195.543 109.535 196.197 108.926C204.021 101.974 202.096 73.1332 202.07 72.8424V72.7714L202.975 61.0837L202.005 49.0535L182.965 49.2603Z" fill="#231F20"/>
<path d="M203.42 61.1224C201.947 63.9135 199.486 66.1102 196.959 67.7642C192.708 70.5295 186.7 72.991 181.499 72.1382L181.847 60.3988C185.657 60.9025 189.516 60.8895 193.322 60.3601C196.675 59.9853 200.125 59.5654 203.188 58.0535L203.42 61.1224Z" fill="#231F20"/>
<path d="M183.612 72.752C182.876 72.7561 182.141 72.6999 181.415 72.584C181.308 72.5654 181.211 72.5088 181.142 72.4245C181.073 72.3402 181.037 72.234 181.04 72.1253L181.396 60.3859C181.396 60.3214 181.41 60.2577 181.438 60.1996C181.466 60.1415 181.507 60.0903 181.557 60.0499C181.606 60.009 181.663 59.9791 181.724 59.9624C181.785 59.9457 181.85 59.9425 181.912 59.953C185.68 60.4584 189.5 60.4454 193.264 59.9142C196.378 59.5653 199.906 59.1712 202.955 57.6465C203.022 57.613 203.095 57.5955 203.169 57.5955C203.243 57.5955 203.316 57.613 203.382 57.6465C203.445 57.6833 203.499 57.7348 203.538 57.7967C203.577 57.8585 203.601 57.9288 203.608 58.0018L203.841 61.0772C203.846 61.1622 203.828 61.247 203.789 61.3227C202.464 63.836 200.235 66.1296 197.173 68.126C192.644 71.1174 187.727 72.752 183.612 72.752ZM181.951 71.7634C186.17 72.3126 191.643 70.6974 196.708 67.4024C199.288 65.8328 201.438 63.6458 202.962 61.0384L202.787 58.7513C199.719 60.1145 196.327 60.4892 193.368 60.8187C189.692 61.3272 185.966 61.3642 182.281 60.9286L181.951 71.7634Z" fill="#231F20"/>
<path d="M193.296 63.1899H191.255C186.622 63.2382 182.16 61.4471 178.846 58.2096C175.532 54.9721 173.637 50.5524 173.578 45.92C173.52 40.4024 175.09 29.8841 175.09 29.8841C175.09 29.8841 183.166 26.9832 189.497 24.5862C200.132 20.5676 202.994 14.8239 202.994 14.8239C203.194 17.7894 204.286 23.2747 205.494 25.9947C206.632 28.6113 210.237 33.289 210.237 33.289C210.237 33.289 210.547 41.9142 210.586 45.5129C210.616 47.8103 210.193 50.091 209.34 52.2243C208.486 54.3575 207.22 56.3012 205.614 57.9437C204.007 59.5862 202.092 60.8952 199.978 61.7955C197.865 62.6958 195.594 63.1697 193.296 63.1899Z" fill="white"/>
<path d="M191.061 63.6809C186.335 63.6744 181.802 61.807 178.442 58.4829C175.083 55.1588 173.168 50.6455 173.112 45.92C173.048 40.4282 174.611 29.91 174.631 29.8066C174.643 29.7235 174.678 29.6454 174.732 29.5805C174.785 29.5157 174.855 29.4665 174.934 29.4383C175.012 29.406 183.075 26.5115 189.336 24.1469C199.673 20.2703 202.548 14.6623 202.574 14.6106C202.621 14.5195 202.696 14.4458 202.787 14.4004C202.879 14.355 202.983 14.3404 203.084 14.3587C203.185 14.3784 203.276 14.4309 203.344 14.5081C203.412 14.5852 203.452 14.6826 203.459 14.7851C203.659 17.7248 204.751 23.1842 205.921 25.8073C207.025 28.3335 210.572 32.953 210.605 32.9982C210.668 33.0722 210.702 33.1661 210.702 33.2631C210.702 33.3536 211.018 41.9336 211.057 45.5C211.104 50.26 209.261 54.8442 205.932 58.2474C202.604 61.6507 198.062 63.5954 193.302 63.655H191.261L191.061 63.6809ZM175.516 30.2265C175.27 31.9193 173.991 40.9903 174.043 45.92C174.099 50.3987 175.916 54.6754 179.1 57.8251C182.285 60.9747 186.581 62.7441 191.061 62.7505H191.254H193.29C197.796 62.6875 202.094 60.8416 205.242 57.617C208.39 54.3924 210.133 50.0517 210.088 45.5452C210.088 42.2502 209.784 34.6393 209.745 33.4828C209.164 32.714 206.095 28.6436 205.035 26.2079C203.976 23.7721 203.039 19.3529 202.658 16.2C201.236 18.1383 197.567 22.0148 189.665 25.0191C184.038 27.1835 176.957 29.7032 175.516 30.2265Z" fill="#231F20"/>
<path d="M191.164 45.4871C190.413 45.4884 189.663 45.4496 188.916 45.3708C188.741 45.3499 188.574 45.2888 188.427 45.1924C188.28 45.096 188.158 44.9669 188.069 44.8152C186.777 42.6766 190.066 33.4764 190.744 31.6479C190.766 31.5907 190.799 31.5382 190.84 31.4936C190.882 31.4489 190.933 31.413 190.988 31.3878C191.044 31.3626 191.104 31.3487 191.166 31.3467C191.227 31.3448 191.288 31.3549 191.345 31.3766C191.402 31.3982 191.455 31.4309 191.499 31.4728C191.544 31.5147 191.58 31.565 191.605 31.6208C191.63 31.6766 191.644 31.7368 191.646 31.798C191.648 31.8592 191.638 31.9202 191.616 31.9774C190.111 36.0349 188.037 42.9609 188.864 44.3241C188.877 44.3554 188.899 44.3827 188.926 44.4031C188.953 44.4235 188.985 44.4364 189.019 44.4404C190.668 44.6023 192.33 44.585 193.975 44.3888C194.097 44.3716 194.221 44.4039 194.32 44.4784C194.419 44.5529 194.484 44.6636 194.501 44.7861C194.518 44.9086 194.486 45.0329 194.412 45.1317C194.337 45.2304 194.226 45.2955 194.104 45.3127C193.128 45.4282 192.147 45.4865 191.164 45.4871Z" fill="#231F20"/>
<path d="M200.104 37.7905C200.768 37.7832 201.291 36.4497 201.273 34.812C201.255 33.1743 200.703 31.8525 200.039 31.8598C199.375 31.8671 198.852 33.2007 198.87 34.8384C198.888 36.4761 199.441 37.7978 200.104 37.7905Z" fill="#231F20"/>
<path d="M184.168 37.4036C184.832 37.3963 185.355 36.0628 185.337 34.4251C185.319 32.7874 184.767 31.4656 184.103 31.4729C183.439 31.4802 182.916 32.8138 182.934 34.4515C182.952 36.0892 183.505 37.4109 184.168 37.4036Z" fill="#231F20"/>
<path d="M181.499 72.8037C177.726 70.7814 171.762 73.8116 171.161 75.9243C170.561 78.037 172.925 111.336 181.499 116.466C185.214 118.695 191.881 110.722 191.881 110.722C191.881 110.722 182.365 106.529 181.499 72.8037Z" fill="white"/>
<path d="M182.959 117.319C182.362 117.328 181.773 117.172 181.26 116.867C172.667 111.698 170.044 78.3212 170.729 75.8015C171.032 74.6902 172.505 73.4303 174.476 72.571C177.112 71.4404 179.819 71.3693 181.718 72.3901C181.792 72.4288 181.854 72.4862 181.898 72.5565C181.943 72.6269 181.967 72.7077 181.97 72.7907C182.785 105.838 191.972 110.264 192.069 110.264C192.135 110.292 192.193 110.335 192.239 110.39C192.286 110.445 192.318 110.51 192.334 110.58C192.35 110.651 192.35 110.725 192.334 110.795C192.317 110.866 192.284 110.932 192.237 110.987C191.991 111.31 186.887 117.319 182.959 117.319ZM178.591 72.6098C177.302 72.6313 176.029 72.9126 174.851 73.4368C173.177 74.1539 171.853 75.2265 171.62 76.0211C171.22 77.4813 173.358 111.02 181.731 116.04C184.316 117.597 189.103 113.126 191.151 110.813C189.084 109.391 181.796 102.317 181.027 73.075C180.258 72.7466 179.427 72.5879 178.591 72.6098Z" fill="#231F20"/>
<path d="M202.516 72.8037C206.295 70.7814 212.259 73.8116 212.853 75.9243C213.448 78.037 211.089 111.336 202.516 116.466C198.807 118.695 192.14 110.722 192.14 110.722C192.14 110.722 201.682 106.529 202.516 72.8037Z" fill="white"/>
<path d="M201.062 117.319C197.102 117.319 192.017 111.31 191.784 111.02C191.737 110.964 191.704 110.898 191.687 110.828C191.671 110.757 191.671 110.683 191.687 110.613C191.703 110.543 191.736 110.477 191.782 110.422C191.828 110.367 191.886 110.324 191.952 110.296C192.043 110.251 201.237 105.664 202.051 72.823C202.052 72.7404 202.076 72.6598 202.119 72.5894C202.162 72.519 202.223 72.4614 202.296 72.4224C204.196 71.4016 206.903 71.4727 209.539 72.6033C211.516 73.4497 212.989 74.716 213.292 75.8338C213.977 78.3535 211.354 111.75 202.761 116.899C202.244 117.193 201.656 117.338 201.062 117.319ZM192.857 110.858C194.905 113.171 199.686 117.642 202.277 116.085C210.644 111.071 212.789 77.5265 212.388 76.0663C212.162 75.2458 210.844 74.1733 209.158 73.482C206.896 72.5064 204.635 72.3901 202.968 73.146C202.212 102.343 194.918 109.417 192.857 110.839V110.858Z" fill="#231F20"/>
<path d="M182.526 48.8015L202.419 48.5818C202.419 48.5818 199.382 59.0808 191.778 58.0535C184.173 57.0262 182.526 48.8015 182.526 48.8015Z" fill="white"/>
<path d="M192.805 58.5897C192.44 58.589 192.075 58.563 191.713 58.5122C183.87 57.4526 182.08 48.976 182.067 48.892C182.054 48.8246 182.056 48.7553 182.071 48.6886C182.087 48.6218 182.116 48.559 182.158 48.5043C182.202 48.4519 182.258 48.4098 182.32 48.3808C182.383 48.3518 182.451 48.3366 182.52 48.3363L202.393 48.1167C202.466 48.1096 202.54 48.1227 202.606 48.1547C202.672 48.1866 202.728 48.236 202.768 48.2976C202.812 48.3558 202.842 48.4234 202.855 48.4952C202.869 48.567 202.865 48.6409 202.845 48.7111C202.839 48.8144 199.925 58.5897 192.805 58.5897ZM183.114 49.2602C183.644 51.0757 185.776 56.7742 191.83 57.5883C197.883 58.4024 200.978 51.2179 201.754 49.0535L183.114 49.2602Z" fill="#231F20"/>
<path d="M144.891 86.4877L119.255 128.231L94.0573 113.572L79.0811 122.759C79.0811 122.759 115.301 171.086 133.036 162.907C141.28 159.108 167.666 118.553 167.666 118.553L144.891 86.4877Z" fill="#6A6AF4"/>
<path d="M218.545 160.923H218.41C218.291 160.887 218.191 160.806 218.132 160.697C218.073 160.589 218.059 160.461 218.093 160.342C218.255 159.812 233.883 107.175 226.667 88.103C226.645 88.0457 226.635 87.9847 226.636 87.9235C226.638 87.8623 226.652 87.802 226.677 87.7462C226.703 87.6903 226.739 87.64 226.783 87.5982C226.828 87.5563 226.881 87.5236 226.938 87.5021C226.995 87.4794 227.056 87.4685 227.118 87.4699C227.179 87.4713 227.24 87.4851 227.296 87.5105C227.352 87.5358 227.402 87.5721 227.444 87.6173C227.486 87.6625 227.518 87.7156 227.539 87.7735C230.621 95.9206 230.123 110.658 226.04 131.591C223.01 147.136 219.03 160.478 218.991 160.613C218.958 160.705 218.897 160.783 218.817 160.839C218.737 160.894 218.642 160.924 218.545 160.923Z" fill="#231F20"/>
<path d="M155.378 163.378C155.265 163.376 155.157 163.334 155.073 163.26C154.989 163.185 154.934 163.083 154.919 162.971C154.854 162.506 148.458 116.182 146.339 105.741C146.325 105.681 146.323 105.618 146.333 105.557C146.344 105.496 146.367 105.437 146.4 105.385C146.434 105.332 146.477 105.287 146.528 105.252C146.58 105.217 146.637 105.192 146.698 105.18C146.759 105.167 146.822 105.167 146.883 105.179C146.944 105.191 147.001 105.216 147.053 105.25C147.104 105.285 147.148 105.33 147.182 105.382C147.216 105.434 147.239 105.493 147.25 105.554C149.414 116.027 155.778 162.377 155.875 162.862C155.884 162.922 155.881 162.984 155.865 163.044C155.85 163.103 155.823 163.159 155.786 163.208C155.748 163.257 155.701 163.298 155.648 163.328C155.595 163.359 155.536 163.378 155.474 163.385L155.378 163.378Z" fill="#231F20"/>
<path d="M232.268 142.665C232.208 142.665 232.148 142.651 232.094 142.626C232.037 142.603 231.985 142.57 231.941 142.527C231.897 142.484 231.862 142.433 231.838 142.376C231.814 142.32 231.801 142.259 231.801 142.198C231.8 142.137 231.812 142.076 231.835 142.019L246.934 105.47C246.957 105.413 246.992 105.361 247.035 105.318C247.078 105.274 247.13 105.239 247.187 105.216C247.243 105.192 247.304 105.18 247.365 105.18C247.427 105.179 247.488 105.191 247.545 105.215C247.602 105.238 247.653 105.272 247.697 105.316C247.74 105.359 247.775 105.41 247.799 105.467C247.822 105.524 247.835 105.585 247.835 105.646C247.835 105.707 247.823 105.768 247.8 105.825L232.701 142.374C232.665 142.459 232.604 142.532 232.528 142.584C232.451 142.635 232.361 142.664 232.268 142.665Z" fill="#231F20"/>
<path d="M266.801 88.3485C266.708 88.3497 266.617 88.3225 266.539 88.2706C266.462 88.2186 266.402 88.1444 266.368 88.0577C264.566 83.5351 259.087 81.332 259.029 81.3126C258.914 81.2665 258.821 81.1769 258.772 81.0633C258.722 80.9496 258.719 80.821 258.764 80.7053C258.787 80.6483 258.82 80.5964 258.863 80.5525C258.906 80.5086 258.957 80.4737 259.014 80.4497C259.07 80.4257 259.131 80.413 259.192 80.4126C259.254 80.4121 259.314 80.4237 259.371 80.4468C259.61 80.5373 265.283 82.7986 267.234 87.7088C267.257 87.7661 267.268 87.8273 267.267 87.8889C267.267 87.9506 267.253 88.0114 267.229 88.0679C267.204 88.1244 267.168 88.1755 267.124 88.2181C267.079 88.2607 267.027 88.294 266.969 88.3162C266.916 88.3397 266.859 88.3508 266.801 88.3485Z" fill="#231F20"/>
<path d="M266.801 78.5797C266.719 78.5813 266.638 78.5589 266.569 78.515C266.513 78.4855 266.465 78.445 266.426 78.396C266.386 78.3469 266.358 78.2903 266.342 78.2298C266.325 78.1692 266.321 78.106 266.331 78.0439C266.34 77.9818 266.361 77.9223 266.394 77.869L272.506 67.3378C272.569 67.2307 272.671 67.1528 272.791 67.1213C272.911 67.0898 273.039 67.1072 273.146 67.1698C273.253 67.2323 273.331 67.3348 273.362 67.4548C273.394 67.5747 273.376 67.7023 273.314 67.8094L267.202 78.3341C267.163 78.4074 267.106 78.4689 267.035 78.5121C266.965 78.5553 266.884 78.5786 266.801 78.5797Z" fill="#231F20"/>
<path d="M272.067 80.1626C271.996 80.1638 271.925 80.1483 271.86 80.1173C271.802 80.0906 271.751 80.0523 271.708 80.0047C271.666 79.9571 271.633 79.9012 271.613 79.8406C271.593 79.78 271.586 79.716 271.592 79.6524C271.598 79.5889 271.616 79.5272 271.647 79.4712L276.338 69.935C276.397 69.8341 276.492 69.7594 276.605 69.7256C276.717 69.6919 276.837 69.7017 276.943 69.7531C277.048 69.8045 277.13 69.8937 277.172 70.0028C277.215 70.112 277.214 70.2331 277.171 70.342L272.487 79.8847C272.45 79.966 272.392 80.0352 272.317 80.0844C272.243 80.1335 272.156 80.1607 272.067 80.1626Z" fill="#231F20"/>
<path d="M274.412 83.6321C274.347 83.6333 274.282 83.6177 274.225 83.5868C274.164 83.5634 274.109 83.5274 274.063 83.481C274.017 83.4346 273.982 83.379 273.959 83.3179C273.937 83.2567 273.927 83.1915 273.932 83.1264C273.936 83.0614 273.955 82.9981 273.986 82.9408L278.508 72.7261C278.566 72.6256 278.659 72.5499 278.769 72.5136C278.88 72.4773 278.999 72.4828 279.106 72.5292C279.212 72.5756 279.297 72.6595 279.346 72.765C279.394 72.8704 279.402 72.99 279.368 73.1009L274.845 83.3219C274.813 83.4112 274.754 83.4886 274.677 83.5439C274.599 83.5993 274.507 83.63 274.412 83.6321Z" fill="#231F20"/>
</svg>
