<svg width="330" height="338" viewBox="0 0 330 338" fill="none" xmlns="http://www.w3.org/2000/svg">
    <path d="M164.978 208.55L240.643 181.231V45.1122L164.978 17.7931L89.292 45.1122V181.231L164.978 208.55Z" fill="#073149"/>
    <path d="M279.202 74.7317L329.935 149.008L243.898 180.059V117.414L279.202 74.7317ZM216.253 193.491L262.342 226.517L268.027 174.786L216.253 193.469V193.491ZM208.159 29.9231L243.898 42.834V112.315L308.691 33.9808L229.338 0L208.159 29.9231Z" fill="#073149"/>
    <path opacity="0.2" d="M243.898 117.414L329.935 149.008L243.898 180.059V117.414ZM243.898 112.293L308.691 33.9591L243.898 42.8123V112.293ZM229.338 0L208.159 29.9231L243.898 42.834L229.338 0Z" fill="#00A0E4"/>
    <path d="M86.0369 117.414V180.059L0 149.008L50.7325 74.7317L86.0369 117.414ZM61.9292 174.808L67.6144 226.539L113.703 193.513L61.9292 174.83V174.808ZM100.619 0L21.2434 33.9591L86.0369 112.293V42.834L121.775 29.9231L100.619 0Z" fill="#073149"/>
    <path opacity="0.2" d="M86.0369 180.059L0 149.008L86.0369 117.414V180.059ZM86.0369 42.834L21.2434 33.9808L86.0369 112.315V42.834ZM86.0369 42.834L121.775 29.9231L100.619 0L86.0586 42.834H86.0369Z" fill="#00A0E4"/>
    <path d="M154.259 85.5377L138.897 95.3023L130.803 77.1185L154.238 85.516L154.259 85.5377ZM147.142 75.491L154.281 85.5377L155.431 57.6978L147.142 75.491ZM154.259 85.5377L181.774 103.049L177.781 74.2759L154.259 85.5377ZM189.998 66.5944L177.781 74.2759L187.025 82.1526L198.829 92.1993L189.998 66.5944Z" fill="#E98A86"/>
    <path d="M154.259 85.5377L155.409 57.6978L177.781 74.2759L154.259 85.5377ZM147.142 75.491L130.824 77.1185L154.259 85.516L147.12 75.4693L147.142 75.491ZM181.774 103.049L198.808 92.1993L177.759 74.2759L181.752 103.049H181.774Z" fill="#D33D52"/>
    <path d="M175.264 154.237L150.766 169.253L126.289 113.009L153.37 95.6927L172.964 108.148L158.794 117.218L175.264 154.237ZM183.358 149.29L198.308 140.111L172.465 125.421L183.358 149.29ZM207.769 119.974L189.065 108.061L170.382 119.974H207.769Z" fill="white"/>
    <path d="M44.0928 289.556C44.3457 289.556 44.4819 289.653 44.4819 289.946V290.746C44.4819 291.019 44.3457 291.136 44.0928 291.136H36.1746V297.124H43.6453C43.8983 297.124 43.9955 297.26 43.9955 297.514V298.333C43.9955 298.587 43.8983 298.723 43.6453 298.723H36.1746V306.603C36.1746 306.857 36.0968 306.993 35.8244 306.993H34.735C34.482 306.993 34.3848 306.857 34.3848 306.603V289.946C34.3848 289.692 34.482 289.556 34.735 289.556H44.0928Z" fill="#D33D52"/>
    <path d="M49.618 299.854V306.545C49.618 306.798 49.5402 306.935 49.2678 306.935H48.1978C47.9449 306.935 47.8476 306.798 47.8476 306.545V289.946C47.8476 289.692 47.9449 289.556 48.1784 289.556H53.2172C57.4584 289.556 58.7424 291.233 58.7424 293.281V296.148C58.7424 297.728 57.9448 299.113 55.5907 299.62L58.8981 306.545C58.9953 306.779 58.8202 306.935 58.5479 306.935H57.4778C57.2055 306.935 57.1471 306.779 57.0109 306.545L53.8592 299.854H49.618ZM49.618 298.314H53.2172C55.9409 298.314 56.9331 297.338 56.9331 295.836V293.554C56.9331 292.072 55.9409 291.097 53.2172 291.097H49.618V298.314Z" fill="#D33D52"/>
    <path d="M68.2754 289.946L73.3726 306.564C73.4504 306.818 73.3531 306.954 73.0613 306.954H71.9718C71.7189 306.954 71.5827 306.818 71.5049 306.564L70.1041 302.02H64.2676L62.8863 306.564C62.8085 306.818 62.7112 306.954 62.4583 306.954H61.4467C61.1938 306.954 61.0965 306.818 61.1743 306.564L66.2521 289.946C66.3299 289.692 66.4466 289.556 66.7384 289.556H67.8279C68.0808 289.556 68.217 289.692 68.2948 289.946H68.2754ZM67.8863 294.569C67.6334 293.749 67.3026 291.76 67.2443 291.467C67.2248 291.643 66.9135 293.535 66.6022 294.51L64.7151 300.537H69.7345L67.8668 294.549L67.8863 294.569Z" fill="#D33D52"/>
    <path d="M87.2829 306.564C87.2829 306.818 87.2051 306.954 86.9327 306.954H85.96C85.7849 306.954 85.6876 306.896 85.6098 306.779L78.8589 294.764C78.2947 293.788 78.0223 293.184 77.9834 293.106V306.564C77.9834 306.818 77.8861 306.954 77.6332 306.954H76.6605C76.3881 306.954 76.2714 306.818 76.2714 306.564V289.946C76.2714 289.692 76.3686 289.556 76.6605 289.556H77.6332C77.8083 289.556 77.8861 289.614 77.9445 289.712L84.851 301.903C85.0456 302.254 85.6098 303.443 85.6098 303.443V289.946C85.6098 289.692 85.7071 289.556 85.96 289.556H86.9327C87.2051 289.556 87.2829 289.692 87.2829 289.946V306.564Z" fill="#D33D52"/>
    <path d="M102.361 303.424C102.361 305.472 101.193 307.149 96.9909 307.149C92.7887 307.149 91.6214 305.472 91.6214 303.424V293.086C91.6214 291.038 92.7887 289.361 96.9909 289.361C101.193 289.361 102.361 291.038 102.361 293.086V294.393C102.361 294.666 102.263 294.803 102.01 294.803H100.999C100.726 294.803 100.61 294.666 100.61 294.393V293.379C100.61 291.896 99.7146 290.921 97.0104 290.921C94.3062 290.921 93.4112 291.896 93.4112 293.379V303.131C93.4112 304.614 94.3062 305.589 97.0104 305.589C99.7146 305.589 100.61 304.614 100.61 303.131V301.786C100.61 301.532 100.707 301.395 100.999 301.395H102.01C102.263 301.395 102.361 301.532 102.361 301.786V303.424Z" fill="#D33D52"/>
    <path d="M106.31 306.935C106.076 306.935 105.979 306.798 105.979 306.545V289.946C105.979 289.692 106.076 289.556 106.329 289.556H115.026C115.279 289.556 115.415 289.653 115.415 289.946V290.746C115.415 291.019 115.279 291.136 115.026 291.136H107.769V297.085H114.578C114.851 297.085 114.967 297.182 114.967 297.475V298.216C114.967 298.489 114.87 298.606 114.578 298.606H107.769V305.394H115.337C115.59 305.394 115.726 305.492 115.726 305.745V306.564C115.726 306.837 115.59 306.954 115.337 306.954H106.31V306.935Z" fill="#D33D52"/>
    <path d="M135.492 303.424C135.492 305.472 134.325 307.149 130.123 307.149C125.921 307.149 124.753 305.472 124.753 303.424V293.086C124.753 291.038 125.921 289.361 130.123 289.361C134.325 289.361 135.492 291.038 135.492 293.086V294.393C135.492 294.666 135.395 294.803 135.142 294.803H134.131C133.858 294.803 133.741 294.666 133.741 294.393V293.379C133.741 291.896 132.847 290.921 130.142 290.921C127.438 290.921 126.543 291.896 126.543 293.379V303.131C126.543 304.614 127.438 305.589 130.142 305.589C132.847 305.589 133.741 304.614 133.741 303.131V301.786C133.741 301.532 133.839 301.395 134.131 301.395H135.142C135.395 301.395 135.492 301.532 135.492 301.786V303.424Z" fill="#D33D52"/>
    <path d="M143.021 297.358C143.255 297.845 143.372 298.275 143.411 298.333C143.411 298.275 143.644 297.67 143.8 297.358L147.671 289.946C147.768 289.751 147.866 289.556 148.138 289.556H149.208C149.461 289.556 149.597 289.692 149.461 289.946L144.344 299.854V306.545C144.344 306.798 144.247 306.935 143.955 306.935H142.885C142.632 306.935 142.496 306.798 142.496 306.545V300.05L137.341 289.926C137.204 289.673 137.341 289.536 137.594 289.536H138.819C139.072 289.536 139.169 289.692 139.286 289.926L143.041 297.338L143.021 297.358Z" fill="#D33D52"/>
    <path d="M152.652 306.935C152.399 306.935 152.302 306.798 152.302 306.545V289.946C152.302 289.692 152.399 289.556 152.652 289.556H157.029C161.231 289.556 162.535 291.116 162.535 293.125V294.803C162.535 296.188 161.932 297.26 160.239 297.826C162.301 298.294 163.255 299.406 163.255 300.966V303.248C163.255 305.296 161.951 306.935 157.729 306.935H152.652ZM154.072 297.28H157.282C159.753 297.28 160.745 296.285 160.745 294.803V293.418C160.745 291.916 159.733 291.058 157.029 291.058H154.072V297.28ZM154.072 298.723V305.453H157.71C160.434 305.453 161.426 304.477 161.426 302.995V301.103C161.426 299.698 160.434 298.723 157.71 298.723H154.072Z" fill="#D33D52"/>
    <path d="M167.457 306.935C167.223 306.935 167.126 306.798 167.126 306.545V289.946C167.126 289.692 167.223 289.556 167.476 289.556H176.173C176.426 289.556 176.562 289.653 176.562 289.946V290.746C176.562 291.019 176.426 291.136 176.173 291.136H168.916V297.085H175.725C175.998 297.085 176.114 297.182 176.114 297.475V298.216C176.114 298.489 176.017 298.606 175.725 298.606H168.916V305.394H176.484C176.737 305.394 176.873 305.492 176.873 305.745V306.564C176.873 306.837 176.737 306.954 176.484 306.954H167.457V306.935Z" fill="#D33D52"/>
    <path d="M182.262 299.854V306.545C182.262 306.798 182.184 306.935 181.912 306.935H180.842C180.589 306.935 180.492 306.798 180.492 306.545V289.946C180.492 289.692 180.589 289.556 180.823 289.556H185.861C190.083 289.556 191.387 291.233 191.387 293.281V296.148C191.387 297.728 190.589 299.113 188.235 299.62L191.542 306.545C191.64 306.779 191.464 306.935 191.192 306.935H190.122C189.85 306.935 189.791 306.779 189.655 306.545L186.503 299.854H182.262ZM182.262 298.314H185.861C188.585 298.314 189.577 297.338 189.577 295.836V293.554C189.577 292.072 188.585 291.097 185.861 291.097H182.262V298.314Z" fill="#D33D52"/>
    <path d="M200.492 290.902C197.807 290.902 196.97 291.857 196.97 293.32V294.081C196.97 295.329 197.807 295.817 198.449 296.07L203.235 297.884C204.616 298.392 205.881 299.425 205.881 301.2V303.404C205.881 305.453 204.558 307.13 200.433 307.13C196.309 307.13 194.986 305.453 194.986 303.404V302C194.986 301.727 195.083 301.61 195.336 301.61H196.387C196.639 301.61 196.737 301.707 196.737 302V303.17C196.737 304.653 197.709 305.589 200.414 305.589C203.118 305.589 204.11 304.633 204.11 303.17V301.59C204.11 300.264 202.982 299.718 201.99 299.347L197.418 297.592C196.348 297.182 195.2 296.109 195.2 294.53V293.106C195.2 291.058 196.406 289.38 200.453 289.38C204.499 289.38 205.764 291.058 205.764 293.106V294.315C205.764 294.569 205.667 294.705 205.375 294.705H204.324C204.071 294.705 203.974 294.569 203.974 294.315V293.34C203.974 291.857 203.137 290.921 200.472 290.921L200.492 290.902Z" fill="#D33D52"/>
    <path d="M210.238 306.935C210.005 306.935 209.908 306.798 209.908 306.545V289.946C209.908 289.692 210.005 289.556 210.258 289.556H218.954C219.207 289.556 219.343 289.653 219.343 289.946V290.746C219.343 291.019 219.207 291.136 218.954 291.136H211.698V297.085H218.507C218.779 297.085 218.896 297.182 218.896 297.475V298.216C218.896 298.489 218.799 298.606 218.507 298.606H211.698V305.394H219.266C219.519 305.394 219.655 305.492 219.655 305.745V306.564C219.655 306.837 219.519 306.954 219.266 306.954H210.238V306.935Z" fill="#D33D52"/>
    <path d="M233.701 303.424C233.701 305.472 232.534 307.149 228.332 307.149C224.129 307.149 222.962 305.472 222.962 303.424V293.086C222.962 291.038 224.129 289.361 228.332 289.361C232.534 289.361 233.701 291.038 233.701 293.086V294.393C233.701 294.666 233.604 294.803 233.351 294.803H232.339C232.067 294.803 231.95 294.666 231.95 294.393V293.379C231.95 291.896 231.055 290.921 228.351 290.921C225.647 290.921 224.752 291.896 224.752 293.379V303.131C224.752 304.614 225.647 305.589 228.351 305.589C231.055 305.589 231.95 304.614 231.95 303.131V301.786C231.95 301.532 232.048 301.395 232.339 301.395H233.351C233.604 301.395 233.701 301.532 233.701 301.786V303.424Z" fill="#D33D52"/>
    <path d="M238.974 303.131C238.974 304.614 239.966 305.589 242.651 305.589C245.335 305.589 246.405 304.614 246.405 303.131V289.946C246.405 289.692 246.503 289.556 246.756 289.556H247.826C248.098 289.556 248.176 289.692 248.176 289.946V303.404C248.176 305.453 246.872 307.13 242.651 307.13C238.429 307.13 237.164 305.453 237.164 303.404V289.946C237.164 289.692 237.261 289.556 237.514 289.556H238.604C238.857 289.556 238.954 289.692 238.954 289.946V303.131H238.974Z" fill="#D33D52"/>
    <path d="M254.46 299.854V306.545C254.46 306.798 254.382 306.935 254.11 306.935H253.039C252.787 306.935 252.689 306.798 252.689 306.545V289.946C252.689 289.692 252.787 289.556 253.02 289.556H258.059C262.281 289.556 263.584 291.233 263.584 293.281V296.148C263.584 297.728 262.786 299.113 260.432 299.62L263.74 306.545C263.837 306.779 263.662 306.935 263.39 306.935H262.32C262.047 306.935 261.989 306.779 261.853 306.545L258.701 299.854H254.46ZM254.46 298.314H258.059C260.783 298.314 261.775 297.338 261.775 295.836V293.554C261.775 292.072 260.783 291.097 258.059 291.097H254.46V298.314Z" fill="#D33D52"/>
    <path d="M269.498 306.564C269.498 306.818 269.421 306.954 269.148 306.954H268.078C267.825 306.954 267.728 306.818 267.728 306.564V289.946C267.728 289.692 267.825 289.556 268.078 289.556H269.148C269.421 289.556 269.498 289.692 269.498 289.946V306.564Z" fill="#D33D52"/>
    <path d="M283.253 289.556C283.506 289.556 283.642 289.653 283.642 289.946V290.746C283.642 291.019 283.506 291.136 283.253 291.136H278.876V306.564C278.876 306.818 278.778 306.954 278.526 306.954H277.436C277.164 306.954 277.047 306.818 277.047 306.564V291.116H272.67C272.397 291.116 272.28 291.019 272.28 290.726V289.926C272.28 289.653 272.378 289.536 272.67 289.536H283.273L283.253 289.556Z" fill="#D33D52"/>
    <path d="M290.335 297.358C290.568 297.845 290.685 298.275 290.724 298.333C290.724 298.275 290.957 297.67 291.113 297.358L294.984 289.946C295.082 289.751 295.179 289.556 295.451 289.556H296.521C296.774 289.556 296.91 289.692 296.774 289.946L291.658 299.854V306.545C291.658 306.798 291.56 306.935 291.269 306.935H290.199C289.946 306.935 289.809 306.798 289.809 306.545V300.05L284.654 289.926C284.518 289.673 284.654 289.536 284.907 289.536H286.132C286.385 289.536 286.483 289.692 286.599 289.926L290.354 297.338L290.335 297.358Z" fill="#D33D52"/>
    <path d="M115.454 333.443C115.454 335.647 113.975 337.812 109.189 337.812C104.403 337.812 102.925 335.647 102.925 333.443V324.392C102.925 322.188 104.403 320.023 109.189 320.023C113.975 320.023 115.454 322.188 115.454 324.392V325.562C115.454 326.109 115.279 326.323 114.734 326.323H112.107C111.563 326.323 111.368 326.089 111.368 325.562V325.133C111.368 323.963 110.473 323.475 109.228 323.475C107.983 323.475 107.108 323.963 107.108 325.133V332.701C107.108 333.872 107.983 334.359 109.228 334.359C110.473 334.359 111.368 333.872 111.368 332.701V331.882C111.368 331.355 111.563 331.121 112.107 331.121H114.734C115.279 331.121 115.454 331.355 115.454 331.882V333.443Z" fill="#D33D52"/>
    <path d="M122.088 327.084H126.699V320.998C126.699 320.452 126.893 320.237 127.438 320.237H130.181C130.726 320.237 130.901 320.472 130.901 320.998V336.836C130.901 337.383 130.726 337.597 130.181 337.597H127.438C126.893 337.597 126.699 337.363 126.699 336.836V330.517H122.088V336.836C122.088 337.383 121.913 337.597 121.368 337.597H118.625C118.1 337.597 117.886 337.363 117.886 336.836V320.998C117.886 320.452 118.08 320.237 118.625 320.237H121.368C121.913 320.237 122.088 320.472 122.088 320.998V327.084Z" fill="#D33D52"/>
    <path d="M141.971 320.998L146.582 336.836C146.737 337.324 146.562 337.597 146.018 337.597H143.197C142.652 337.597 142.438 337.324 142.302 336.836L141.64 334.379H137.418L136.757 336.836C136.621 337.324 136.407 337.597 135.862 337.597H133.294C132.749 337.597 132.574 337.324 132.73 336.836L137.341 320.998C137.496 320.491 137.749 320.237 138.274 320.237H141.018C141.562 320.237 141.815 320.491 141.951 320.998H141.971ZM140.356 329.678C139.948 328.118 139.597 324.568 139.558 324.334C139.5 324.685 139.092 328.196 138.683 329.678L138.294 331.063H140.687L140.337 329.678H140.356Z" fill="#D33D52"/>
    <path d="M152.593 334.164H157.593C158.138 334.164 158.352 334.34 158.352 334.886V336.875C158.352 337.402 158.119 337.617 157.593 337.617H149.033C148.566 337.617 148.391 337.363 148.391 336.856V321.018C148.391 320.472 148.586 320.257 149.13 320.257H151.873C152.418 320.257 152.593 320.491 152.593 321.018V334.184V334.164Z" fill="#D33D52"/>
    <path d="M164.597 334.164H169.597C170.122 334.164 170.356 334.34 170.356 334.886V336.875C170.356 337.402 170.122 337.617 169.597 337.617H161.037C160.57 337.617 160.395 337.363 160.395 336.856V321.018C160.395 320.472 160.589 320.257 161.134 320.257H163.877C164.422 320.257 164.597 320.491 164.597 321.018V334.184V334.164Z" fill="#D33D52"/>
    <path d="M173.138 337.617C172.613 337.617 172.399 337.383 172.399 336.856V321.018C172.399 320.472 172.593 320.257 173.138 320.257H181.854C182.379 320.257 182.612 320.433 182.612 320.979V322.968C182.612 323.514 182.379 323.709 181.854 323.709H176.601V327.025H181.445C181.97 327.025 182.204 327.201 182.204 327.747V329.62C182.204 330.166 181.97 330.361 181.445 330.361H176.601V334.184H182.107C182.651 334.184 182.865 334.359 182.865 334.905V336.895C182.865 337.422 182.632 337.636 182.107 337.636H173.138V337.617Z" fill="#D33D52"/>
    <path d="M198.332 336.836C198.332 337.383 198.157 337.597 197.612 337.597H195.122C194.733 337.597 194.577 337.5 194.441 337.246L190.355 330.439C189.927 329.756 189.538 328.859 189.266 328.137V336.817C189.266 337.363 189.091 337.578 188.546 337.578H186.056C185.511 337.578 185.317 337.344 185.317 336.817V320.979C185.317 320.433 185.511 320.218 186.056 320.218H188.546C188.877 320.218 189.091 320.316 189.188 320.53L193.488 327.767C193.799 328.293 194.13 329.073 194.383 329.678V320.998C194.383 320.452 194.577 320.237 195.122 320.237H197.612C198.157 320.237 198.332 320.472 198.332 320.998V336.836Z" fill="#D33D52"/>
    <path d="M212.904 328.157C213.429 328.157 213.663 328.332 213.663 328.878V333.443C213.663 335.647 212.184 337.812 207.398 337.812C202.612 337.812 201.134 335.647 201.134 333.443V324.392C201.134 322.188 202.612 320.023 207.398 320.023C212.184 320.023 213.663 322.188 213.663 324.392V325.309C213.663 325.836 213.487 326.07 212.943 326.07H210.316C209.772 326.07 209.577 325.836 209.577 325.309V325.133C209.577 323.963 208.682 323.475 207.437 323.475C206.192 323.475 205.316 323.963 205.316 325.133V332.701C205.316 333.872 206.172 334.359 207.437 334.359C208.702 334.359 209.577 333.872 209.577 332.701V331.609H207.495C206.97 331.609 206.737 331.414 206.737 330.868V328.878C206.737 328.332 206.97 328.157 207.495 328.157H212.904Z" fill="#D33D52"/>
    <path d="M217.087 337.617C216.542 337.617 216.347 337.383 216.347 336.856V321.018C216.347 320.472 216.542 320.257 217.087 320.257H225.802C226.347 320.257 226.561 320.433 226.561 320.979V322.968C226.561 323.514 226.328 323.709 225.802 323.709H220.55V327.025H225.394C225.939 327.025 226.153 327.201 226.153 327.747V329.62C226.153 330.166 225.919 330.361 225.394 330.361H220.55V334.184H226.055C226.581 334.184 226.814 334.359 226.814 334.905V336.895C226.814 337.422 226.581 337.636 226.055 337.636H217.087V337.617Z" fill="#D33D52"/>
    <path d="M75.1435 253.554L76.0115 252.469C78.4852 248.737 80.2211 245.959 81.2192 244.158C82.2391 242.357 83.042 240.448 83.6712 238.452C84.5826 235.696 85.0383 232.832 85.0383 229.859C85.0383 226.886 84.6694 224.542 83.9316 223.002C83.1939 221.483 81.8268 220.224 79.8305 219.248C77.2917 222.915 76.0332 227.537 76.0332 233.157C76.0332 235.327 76.3803 237.562 77.0747 239.84C77.3568 240.665 77.5087 241.229 77.5087 241.533C77.5087 242.574 76.9445 243.117 75.8162 243.117C74.7963 243.117 73.4293 242.683 71.6933 241.837C69.9574 240.99 68.6338 240.101 67.7224 239.211C66.7025 238.126 65.878 236.716 65.227 234.98C64.576 233.244 64.2505 231.399 64.2505 229.446C64.2505 226.691 64.8147 224.065 65.9648 221.57C67.1148 219.074 68.6989 216.904 70.782 215.06C72.8651 213.216 75.2954 211.783 78.138 210.742C80.9805 209.7 83.9967 209.201 87.1865 209.201C90.3763 209.201 93.2839 209.896 95.9095 211.284C98.5351 212.673 100.618 214.604 102.181 217.035C103.743 219.487 104.524 222.134 104.524 224.998C104.524 227.125 104.112 229.403 103.287 231.833C102.463 234.264 101.182 236.954 99.4248 239.949C97.6672 242.943 95.4105 246.22 92.6547 249.8C89.8989 253.381 86.6874 257.243 83.042 261.366L81.957 262.668L81.0239 263.709C82.5429 264.165 84.626 264.382 87.2733 264.382C89.9206 264.382 92.5679 264.23 95.2369 263.948C97.9058 263.666 99.989 263.275 101.53 262.798C102.549 262.516 103.222 262.364 103.548 262.364C103.917 262.364 104.09 262.472 104.09 262.689C104.09 264.035 103.222 266.118 101.508 268.939C99.7937 271.76 97.9926 274.103 96.1048 275.948C94.1519 277.792 91.8084 279.137 89.0743 280.005C86.3402 280.852 82.9552 281.286 78.9408 281.286C73.7982 281.286 69.3715 280.57 65.6827 279.159C61.9938 277.749 60.1494 276.034 60.1494 274.06C60.1494 272.693 62.0155 269.937 65.7478 265.792C68.3951 262.798 70.8037 259.804 72.9736 256.831C73.1255 256.614 73.2774 256.397 73.4293 256.18C73.6029 255.963 73.7331 255.746 73.8632 255.55C73.9934 255.355 74.167 255.073 74.384 254.704L75.2086 253.554H75.1435Z" fill="#D33D52"/>
    <path d="M152.826 211.067H153.369C155.322 211.067 157.188 211.957 158.989 213.736C160.79 215.516 162.2 217.881 163.264 220.854C164.305 223.826 164.848 226.929 164.848 230.206C164.848 233.482 164.37 237.171 163.437 241.207C162.504 245.243 161.246 249.127 159.662 252.86C158.078 256.592 156.19 260.216 153.955 263.731C151.72 267.246 149.42 270.154 147.033 272.476C141.391 278.204 135.597 281.069 129.695 281.069C125.746 281.069 122.274 280.092 119.258 278.117C116.242 276.143 113.942 273.344 112.314 269.698C110.687 266.053 109.862 261.887 109.862 257.178C109.862 249.062 111.555 241.294 114.94 233.851C118.325 226.409 122.817 220.398 128.393 215.798C133.97 211.197 139.72 208.897 145.622 208.897C148.487 208.897 150.895 209.635 152.848 211.132L152.826 211.067ZM147.944 213.628L148.921 213.085L148.704 212.868C146.382 212.912 143.995 214.083 141.565 216.384C139.113 218.684 136.921 221.635 134.968 225.258C133.015 228.882 131.409 232.962 130.194 237.54C128.957 242.097 128.35 246.415 128.35 250.473C128.35 253.402 128.871 256.418 129.891 259.521C130.932 262.624 132.234 265.207 133.796 267.268C135.38 269.329 136.878 270.371 138.331 270.371C139.46 270.371 140.632 269.611 141.868 268.114C143.105 266.617 144.212 264.49 145.232 261.735C146.273 259.087 147.185 256.31 147.944 253.424C148.704 250.538 149.29 247.674 149.68 244.831C150.071 242.01 150.288 239.428 150.288 237.106C150.288 233.439 149.702 229.967 148.53 226.647C147.358 223.327 145.818 220.875 143.93 219.291C143.561 219.031 143.387 218.792 143.387 218.532C143.387 217.707 144.906 216.08 147.944 213.649V213.628Z" fill="#D33D52"/>
    <path d="M184.073 253.554L184.941 252.469C187.393 248.737 189.151 245.959 190.149 244.158C191.169 242.357 191.972 240.448 192.601 238.452C193.512 235.696 193.968 232.832 193.968 229.859C193.968 226.886 193.599 224.542 192.861 223.002C192.123 221.483 190.756 220.224 188.76 219.248C186.221 222.915 184.963 227.537 184.963 233.157C184.963 235.327 185.31 237.562 185.983 239.84C186.265 240.665 186.417 241.229 186.417 241.533C186.417 242.574 185.852 243.117 184.724 243.117C183.704 243.117 182.337 242.683 180.601 241.837C178.865 240.99 177.542 240.101 176.63 239.211C175.61 238.126 174.786 236.716 174.135 234.98C173.484 233.244 173.158 231.399 173.158 229.446C173.158 226.691 173.723 224.065 174.873 221.57C176.023 219.074 177.607 216.904 179.668 215.06C181.73 213.216 184.182 211.783 187.024 210.742C189.867 209.7 192.883 209.201 196.073 209.201C199.262 209.201 202.17 209.896 204.796 211.284C207.421 212.673 209.504 214.604 211.067 217.035C212.629 219.487 213.41 222.134 213.41 224.998C213.41 227.125 212.998 229.403 212.173 231.833C211.349 234.264 210.069 236.954 208.311 239.949C206.553 242.943 204.297 246.22 201.541 249.8C198.785 253.381 195.574 257.243 191.928 261.366L190.843 262.668L189.91 263.709C191.429 264.165 193.512 264.382 196.159 264.382C198.807 264.382 201.454 264.23 204.123 263.948C206.792 263.666 208.875 263.275 210.416 262.798C211.436 262.516 212.108 262.364 212.434 262.364C212.803 262.364 212.976 262.472 212.976 262.689C212.976 264.035 212.108 266.118 210.394 268.939C208.68 271.76 206.879 274.103 204.991 275.948C203.038 277.792 200.695 279.137 197.96 280.005C195.226 280.852 191.841 281.286 187.827 281.286C182.684 281.286 178.258 280.57 174.569 279.159C170.88 277.749 169.036 276.034 169.036 274.06C169.036 272.693 170.902 269.937 174.634 265.792C177.281 262.798 179.69 259.804 181.86 256.831C182.012 256.614 182.164 256.397 182.315 256.18C182.489 255.963 182.619 255.746 182.749 255.55C182.88 255.355 183.053 255.073 183.27 254.704L184.095 253.554H184.073Z" fill="#D33D52"/>
    <path d="M249.257 229.012L245.937 232.875L246.154 233.092C251.015 229.902 255.159 228.318 258.588 228.318C261.191 228.318 263.513 228.947 265.575 230.228C267.614 231.486 269.22 233.222 270.348 235.414C271.499 237.605 272.063 240.122 272.063 242.943C272.063 246.35 271.499 249.865 270.37 253.511C269.242 257.156 267.658 260.671 265.596 264.057C263.535 267.442 261.126 270.458 258.371 273.105C255.919 275.492 252.859 277.38 249.235 278.79C245.612 280.179 242.075 280.873 238.581 280.873C231.876 280.873 226.777 279.441 223.261 276.599C219.746 273.756 217.989 269.611 217.989 264.187C217.989 259.37 219.551 253.424 222.654 246.307C225.757 239.189 230.596 230.662 237.105 220.658C239.666 216.557 241.792 213.628 243.463 211.848C244.288 210.937 245.069 210.308 245.807 209.939C246.545 209.57 247.673 209.288 249.235 209.071C251.948 208.637 254.703 208.42 257.481 208.42C261.712 208.42 263.839 209.57 263.839 211.848C263.839 213.02 262.493 214.778 259.824 217.165C258.262 218.467 255.745 221.223 252.273 225.432L249.235 229.012H249.257ZM243.181 238.777C241.923 238.777 240.621 239.515 239.275 241.012C237.93 242.488 236.845 244.397 235.999 246.697C235.153 248.997 234.719 251.254 234.719 253.467C234.719 256.44 235.283 259.218 236.433 261.778C237.583 264.36 239.145 266.4 241.163 267.941C243.181 269.481 245.264 270.241 247.434 270.241C248.584 270.241 249.517 269.915 250.212 269.264C251.362 267.919 252.317 265.749 253.054 262.755C253.792 259.76 254.161 256.549 254.161 253.142C254.161 250.147 253.705 247.565 252.837 245.395C251.948 243.247 250.689 241.598 249.083 240.47C247.478 239.341 245.503 238.777 243.181 238.777Z" fill="#D33D52"/>
</svg>
