<svg width="288" height="162" viewBox="0 0 288 162" fill="none" xmlns="http://www.w3.org/2000/svg">
    <g clip-path="url(#clip0_5872_2373)">
        <rect width="288" height="162" fill="#0A1A34"/>
        <path d="M116.752 34.9534L144.222 25.0136L171.692 34.9534V84.4784L144.222 94.4181L116.752 84.4784V34.9534ZM172.866 61.2593V84.0521L204.093 72.7544L185.679 45.73L172.866 61.2593ZM172.866 59.3961L196.382 30.8954L167.581 18.5398L159.895 29.4269L172.866 34.1244V59.404V59.3961ZM115.571 61.2593L102.757 45.73L84.3443 72.7465L115.571 84.0442V61.2515V61.2593ZM115.571 34.1244L128.542 29.4269L120.855 18.5398L92.0545 30.8954L115.571 59.3961V34.1244ZM95.0314 124.024H91.2433C91.1409 124.024 91.1015 124.079 91.1015 124.182V130.909C91.1015 131.011 91.1409 131.066 91.2433 131.066H91.6764C91.7867 131.066 91.8182 131.011 91.8182 130.909V127.719H94.8424C94.9448 127.719 94.9842 127.664 94.9842 127.561V127.23C94.9842 127.127 94.9448 127.072 94.8424 127.072H91.8182V124.648H95.0236C95.1259 124.648 95.1811 124.608 95.1811 124.49V124.166C95.1811 124.056 95.1259 124.008 95.0236 124.008L95.0314 124.024ZM99.6859 128.098L101.025 130.901C101.064 130.995 100.993 131.059 100.883 131.059H100.45C100.34 131.059 100.316 130.995 100.261 130.901L98.985 128.193H97.276V130.901C97.276 131.003 97.2445 131.059 97.1342 131.059H96.7011C96.5987 131.059 96.5593 131.003 96.5593 130.901V124.174C96.5593 124.072 96.5987 124.016 96.6932 124.016H98.733C100.442 124.016 100.97 124.695 100.97 125.524V126.685C100.97 127.324 100.647 127.885 99.6938 128.09L99.6859 128.098ZM100.229 126.566V125.643C100.229 125.043 99.8277 124.648 98.7251 124.648H97.2681V127.561H98.7251C99.8277 127.561 100.229 127.166 100.229 126.558V126.566ZM104.821 124.182L106.884 130.909C106.916 131.011 106.876 131.066 106.758 131.066H106.317C106.215 131.066 106.16 131.011 106.128 130.909L105.561 129.069H103.198L102.639 130.909C102.608 131.011 102.568 131.066 102.466 131.066H102.056C101.954 131.066 101.915 131.011 101.946 130.909L104.002 124.182C104.033 124.079 104.08 124.024 104.199 124.024H104.64C104.742 124.024 104.797 124.079 104.829 124.182H104.821ZM105.411 128.469L104.655 126.045C104.553 125.714 104.419 124.908 104.395 124.79C104.388 124.861 104.262 125.627 104.136 126.022L103.372 128.461H105.404L105.411 128.469ZM112.366 124.024H111.972C111.869 124.024 111.83 124.079 111.83 124.182V129.645C111.83 129.645 111.602 129.172 111.523 129.022L108.727 124.087C108.703 124.048 108.672 124.024 108.601 124.024H108.207C108.097 124.024 108.05 124.079 108.05 124.182V130.909C108.05 131.011 108.089 131.066 108.207 131.066H108.601C108.703 131.066 108.743 131.011 108.743 130.909V125.461C108.743 125.461 108.869 125.737 109.097 126.132L111.83 130.995C111.862 131.051 111.901 131.066 111.972 131.066H112.366C112.476 131.066 112.507 131.011 112.507 130.909V124.182C112.507 124.079 112.476 124.024 112.366 124.024ZM116.445 123.945C114.744 123.945 114.271 124.624 114.271 125.453V129.63C114.271 130.459 114.744 131.138 116.445 131.138C118.146 131.138 118.619 130.459 118.619 129.63V128.966C118.619 128.864 118.579 128.809 118.477 128.809H118.068C117.957 128.809 117.91 128.864 117.91 128.966V129.511C117.91 130.111 117.548 130.506 116.453 130.506C115.358 130.506 114.996 130.111 114.996 129.511V125.564C114.996 124.964 115.358 124.569 116.453 124.569C117.548 124.569 117.91 124.964 117.91 125.564V125.974C117.91 126.085 117.949 126.14 118.068 126.14H118.477C118.579 126.14 118.619 126.085 118.619 125.974V125.445C118.619 124.616 118.146 123.937 116.445 123.937V123.945ZM123.872 130.427H120.808V127.68H123.565C123.675 127.68 123.722 127.64 123.722 127.522V127.222C123.722 127.111 123.683 127.064 123.565 127.064H120.808V124.656H123.746C123.848 124.656 123.903 124.616 123.903 124.498V124.174C123.903 124.064 123.848 124.016 123.746 124.016H120.225C120.123 124.016 120.084 124.072 120.084 124.174V130.901C120.084 131.003 120.123 131.059 120.218 131.059H123.872C123.974 131.059 124.029 131.019 124.029 130.901V130.569C124.029 130.466 123.974 130.427 123.872 130.427ZM131.472 126.148H131.881C131.984 126.148 132.023 126.093 132.023 125.982V125.453C132.023 124.624 131.551 123.945 129.849 123.945C128.148 123.945 127.676 124.624 127.676 125.453V129.63C127.676 130.459 128.148 131.138 129.849 131.138C131.551 131.138 132.023 130.459 132.023 129.63V128.966C132.023 128.864 131.984 128.809 131.881 128.809H131.472C131.362 128.809 131.314 128.864 131.314 128.966V129.511C131.314 130.111 130.952 130.506 129.857 130.506C128.763 130.506 128.4 130.111 128.4 129.511V125.564C128.4 124.964 128.763 124.569 129.857 124.569C130.952 124.569 131.314 124.964 131.314 125.564V125.974C131.314 126.085 131.354 126.14 131.472 126.14V126.148ZM135.016 131.059H135.449C135.559 131.059 135.606 131.003 135.606 130.901V128.193L137.678 124.182C137.733 124.079 137.678 124.024 137.575 124.024H137.142C137.04 124.024 137 124.095 136.953 124.182L135.386 127.182C135.323 127.308 135.228 127.553 135.228 127.577C135.221 127.553 135.165 127.38 135.071 127.182L133.551 124.182C133.512 124.087 133.472 124.024 133.362 124.024H132.866C132.763 124.024 132.708 124.079 132.763 124.182L134.85 128.28V130.909C134.85 131.011 134.906 131.066 135.008 131.066L135.016 131.059ZM142.049 127.38C142.883 127.569 143.269 128.019 143.269 128.651V129.574C143.269 130.403 142.742 131.066 141.033 131.066H138.977C138.875 131.066 138.835 131.011 138.835 130.909V124.182C138.835 124.079 138.875 124.024 138.977 124.024H140.749C142.45 124.024 142.978 124.656 142.978 125.469V126.148C142.978 126.708 142.734 127.143 142.049 127.372V127.38ZM141.033 127.727H139.56V130.451H141.033C142.135 130.451 142.537 130.056 142.537 129.456V128.69C142.537 128.122 142.135 127.727 141.033 127.727ZM142.261 125.587C142.261 124.979 141.852 124.632 140.757 124.632H139.56V127.143H140.859C141.86 127.143 142.261 126.74 142.261 126.14V125.579V125.587ZM148.499 124.656C148.601 124.656 148.656 124.616 148.656 124.498V124.174C148.656 124.064 148.601 124.016 148.499 124.016H144.978C144.876 124.016 144.837 124.072 144.837 124.174V130.901C144.837 131.003 144.876 131.059 144.971 131.059H148.625C148.727 131.059 148.782 131.019 148.782 130.901V130.569C148.782 130.466 148.727 130.427 148.625 130.427H145.561V127.68H148.318C148.428 127.68 148.475 127.64 148.475 127.522V127.222C148.475 127.111 148.436 127.064 148.318 127.064H145.561V124.656H148.499ZM153.382 128.098L154.72 130.901C154.76 130.995 154.689 131.059 154.579 131.059H154.146C154.035 131.059 154.012 130.995 153.957 130.901L152.681 128.193H150.964V130.901C150.964 131.003 150.932 131.059 150.822 131.059H150.389C150.287 131.059 150.247 131.003 150.247 130.901V124.174C150.247 124.072 150.287 124.016 150.381 124.016H152.421C154.13 124.016 154.657 124.695 154.657 125.524V126.685C154.657 127.324 154.335 127.885 153.382 128.09V128.098ZM153.925 125.651C153.925 125.051 153.523 124.656 152.421 124.656H150.964V127.569H152.421C153.523 127.569 153.925 127.174 153.925 126.566V125.643V125.651ZM160.533 129.63V128.737C160.533 128.011 160.021 127.601 159.462 127.395L157.524 126.661C157.264 126.558 156.926 126.361 156.926 125.856V125.548C156.926 124.948 157.264 124.569 158.351 124.569C159.438 124.569 159.769 124.956 159.769 125.548V125.943C159.769 126.045 159.808 126.101 159.911 126.101H160.336C160.446 126.101 160.493 126.045 160.493 125.943V125.453C160.493 124.624 159.989 123.945 158.343 123.945C156.697 123.945 156.217 124.624 156.217 125.453V126.03C156.217 126.669 156.682 127.103 157.115 127.269L158.965 127.98C159.367 128.137 159.824 128.351 159.824 128.887V129.527C159.824 130.127 159.43 130.506 158.328 130.506C157.225 130.506 156.839 130.119 156.839 129.527V129.053C156.839 128.943 156.8 128.895 156.697 128.895H156.272C156.17 128.895 156.13 128.935 156.13 129.053V129.622C156.13 130.451 156.666 131.13 158.335 131.13C160.005 131.13 160.541 130.451 160.541 129.622L160.533 129.63ZM165.817 124.656C165.92 124.656 165.975 124.616 165.975 124.498V124.174C165.975 124.064 165.92 124.016 165.817 124.016H162.297C162.194 124.016 162.155 124.072 162.155 124.174V130.901C162.155 131.003 162.194 131.059 162.289 131.059H165.943C166.046 131.059 166.101 131.019 166.101 130.901V130.569C166.101 130.466 166.046 130.427 165.943 130.427H162.88V127.68H165.636C165.746 127.68 165.794 127.64 165.794 127.522V127.222C165.794 127.111 165.754 127.064 165.636 127.064H162.88V124.656H165.817ZM169.613 123.945C167.912 123.945 167.44 124.624 167.44 125.453V129.63C167.44 130.459 167.912 131.138 169.613 131.138C171.314 131.138 171.787 130.459 171.787 129.63V128.966C171.787 128.864 171.748 128.809 171.645 128.809H171.236C171.125 128.809 171.078 128.864 171.078 128.966V129.511C171.078 130.111 170.716 130.506 169.621 130.506C168.526 130.506 168.164 130.111 168.164 129.511V125.564C168.164 124.964 168.526 124.569 169.621 124.569C170.716 124.569 171.078 124.964 171.078 125.564V125.974C171.078 126.085 171.117 126.14 171.236 126.14H171.645C171.748 126.14 171.787 126.085 171.787 125.974V125.445C171.787 124.616 171.314 123.937 169.613 123.937V123.945ZM177.505 124.024H177.071C176.969 124.024 176.93 124.079 176.93 124.182V129.519C176.93 130.119 176.52 130.514 175.41 130.514C174.299 130.514 173.921 130.119 173.921 129.519V124.182C173.921 124.079 173.882 124.024 173.779 124.024H173.338C173.236 124.024 173.197 124.079 173.197 124.182V129.63C173.197 130.459 173.724 131.138 175.418 131.138C177.111 131.138 177.654 130.459 177.654 129.63V124.182C177.654 124.079 177.623 124.024 177.512 124.024H177.505ZM182.6 128.098L183.939 130.901C183.978 130.995 183.907 131.059 183.797 131.059H183.364C183.254 131.059 183.23 130.995 183.175 130.901L181.899 128.193H180.182V130.901C180.182 131.003 180.151 131.059 180.041 131.059H179.607C179.505 131.059 179.466 131.003 179.466 130.901V124.174C179.466 124.072 179.505 124.016 179.599 124.016H181.639C183.348 124.016 183.876 124.695 183.876 125.524V126.685C183.876 127.324 183.553 127.885 182.6 128.09V128.098ZM183.151 126.566V125.643C183.151 125.043 182.75 124.648 181.647 124.648H180.19V127.561H181.647C182.75 127.561 183.151 127.166 183.151 126.558V126.566ZM186.128 124.024H185.695C185.593 124.024 185.553 124.079 185.553 124.182V130.909C185.553 131.011 185.593 131.066 185.695 131.066H186.128C186.239 131.066 186.27 131.011 186.27 130.909V124.182C186.27 124.079 186.239 124.024 186.128 124.024ZM191.846 124.024H187.554C187.444 124.024 187.396 124.064 187.396 124.182V124.506C187.396 124.616 187.436 124.664 187.554 124.664H189.326V130.909C189.326 131.011 189.365 131.066 189.483 131.066H189.924C190.027 131.066 190.066 131.011 190.066 130.909V124.664H191.838C191.941 124.664 191.996 124.624 191.996 124.506V124.182C191.996 124.072 191.941 124.024 191.838 124.024H191.846ZM196.776 124.024C196.674 124.024 196.634 124.095 196.587 124.182L195.02 127.182C194.957 127.308 194.862 127.553 194.862 127.577C194.854 127.553 194.799 127.38 194.705 127.182L193.185 124.182C193.145 124.087 193.106 124.024 192.996 124.024H192.5C192.397 124.024 192.342 124.079 192.397 124.182L194.484 128.28V130.909C194.484 131.011 194.539 131.066 194.642 131.066H195.075C195.185 131.066 195.233 131.011 195.233 130.909V128.201L197.304 124.19C197.359 124.087 197.304 124.032 197.201 124.032H196.768L196.776 124.024ZM121.383 136.356C119.446 136.356 118.847 137.232 118.847 138.125V141.788C118.847 142.68 119.446 143.556 121.383 143.556C123.321 143.556 123.919 142.68 123.919 141.788V141.156C123.919 140.943 123.848 140.848 123.628 140.848H122.564C122.344 140.848 122.265 140.943 122.265 141.156V141.488C122.265 141.961 121.903 142.159 121.399 142.159C120.895 142.159 120.54 141.961 120.54 141.488V138.425C120.54 137.951 120.895 137.753 121.399 137.753C121.903 137.753 122.265 137.951 122.265 138.425V138.598C122.265 138.819 122.344 138.906 122.564 138.906H123.628C123.848 138.906 123.919 138.811 123.919 138.598V138.125C123.919 137.232 123.321 136.356 121.383 136.356ZM129.889 136.435H128.778C128.558 136.435 128.479 136.53 128.479 136.743V139.206H126.613V136.743C126.613 136.522 126.542 136.435 126.321 136.435H125.211C124.99 136.435 124.911 136.53 124.911 136.743V143.154C124.911 143.375 124.99 143.462 125.211 143.462H126.321C126.542 143.462 126.613 143.367 126.613 143.154V140.596H128.479V143.154C128.479 143.375 128.558 143.462 128.778 143.462H129.889C130.109 143.462 130.18 143.367 130.18 143.154V136.743C130.18 136.522 130.109 136.435 129.889 136.435ZM136.52 143.162C136.583 143.359 136.512 143.469 136.292 143.469H135.15C134.929 143.469 134.843 143.359 134.787 143.162L134.52 142.167H132.811L132.543 143.162C132.488 143.359 132.401 143.469 132.181 143.469H131.141C130.92 143.469 130.85 143.359 130.913 143.162L132.779 136.751C132.842 136.546 132.945 136.443 133.157 136.443H134.268C134.488 136.443 134.59 136.546 134.646 136.751L136.512 143.162H136.52ZM134.149 140.825L134.008 140.264C133.842 139.632 133.701 138.196 133.685 138.101C133.661 138.243 133.496 139.664 133.33 140.264L133.173 140.825H134.142H134.149ZM140.978 142.072H138.954V136.743C138.954 136.522 138.883 136.435 138.662 136.435H137.552C137.331 136.435 137.252 136.53 137.252 136.743V143.154C137.252 143.359 137.323 143.462 137.512 143.462H140.978C141.198 143.462 141.285 143.383 141.285 143.162V142.356C141.285 142.143 141.19 142.064 140.978 142.064V142.072ZM145.837 142.072H143.813V136.743C143.813 136.522 143.742 136.435 143.521 136.435H142.411C142.19 136.435 142.112 136.53 142.112 136.743V143.154C142.112 143.359 142.183 143.462 142.372 143.462H145.837C146.049 143.462 146.144 143.383 146.144 143.162V142.356C146.144 142.143 146.049 142.064 145.837 142.064V142.072ZM150.901 142.072H148.672V140.525H150.633C150.846 140.525 150.94 140.446 150.94 140.225V139.467C150.94 139.254 150.846 139.175 150.633 139.175H148.672V137.832H150.798C151.011 137.832 151.106 137.753 151.106 137.532V136.727C151.106 136.514 151.011 136.435 150.798 136.435H147.27C147.058 136.435 146.971 136.53 146.971 136.743V143.154C146.971 143.375 147.05 143.462 147.27 143.462H150.901C151.121 143.462 151.208 143.383 151.208 143.162V142.356C151.208 142.143 151.113 142.064 150.901 142.064V142.072ZM157.178 136.435H156.17C155.949 136.435 155.87 136.53 155.87 136.743V140.256C155.768 140.011 155.634 139.696 155.508 139.482L153.768 136.553C153.728 136.475 153.642 136.427 153.508 136.427H152.5C152.279 136.427 152.2 136.522 152.2 136.735V143.146C152.2 143.367 152.279 143.454 152.5 143.454H153.508C153.728 143.454 153.799 143.359 153.799 143.146V139.632C153.909 139.925 154.067 140.288 154.24 140.564L155.894 143.319C155.957 143.422 156.02 143.462 156.17 143.462H157.178C157.398 143.462 157.469 143.367 157.469 143.154V136.743C157.469 136.522 157.398 136.435 157.178 136.435ZM161.139 136.356C159.202 136.356 158.603 137.232 158.603 138.125V141.788C158.603 142.68 159.202 143.556 161.139 143.556C163.076 143.556 163.675 142.68 163.675 141.788V139.94C163.675 139.719 163.581 139.648 163.368 139.648H161.178C160.966 139.648 160.871 139.719 160.871 139.94V140.746C160.871 140.959 160.966 141.046 161.178 141.046H162.021V141.488C162.021 141.961 161.659 142.159 161.155 142.159C160.651 142.159 160.296 141.961 160.296 141.488V138.425C160.296 137.951 160.643 137.753 161.155 137.753C161.667 137.753 162.021 137.951 162.021 138.425V138.496C162.021 138.709 162.1 138.804 162.32 138.804H163.384C163.604 138.804 163.675 138.709 163.675 138.496V138.125C163.675 137.232 163.076 136.356 161.139 136.356ZM168.692 142.072H166.463V140.525H168.424C168.645 140.525 168.731 140.446 168.731 140.225V139.467C168.731 139.254 168.637 139.175 168.424 139.175H166.463V137.832H168.589C168.81 137.832 168.897 137.753 168.897 137.532V136.727C168.897 136.514 168.802 136.435 168.589 136.435H165.061C164.841 136.435 164.762 136.53 164.762 136.743V143.154C164.762 143.375 164.841 143.462 165.061 143.462H168.692C168.912 143.462 168.999 143.383 168.999 143.162V142.356C168.999 142.143 168.904 142.064 168.692 142.064V142.072ZM119.209 118.932C119.895 118.261 120.548 117.408 121.171 116.382C121.793 115.356 122.108 114.598 122.108 114.108C122.108 114.029 122.045 113.99 121.911 113.99C121.793 113.99 121.549 114.045 121.178 114.148C120.627 114.321 119.863 114.456 118.894 114.566C117.926 114.677 116.965 114.724 116.004 114.724C115.043 114.724 114.287 114.645 113.736 114.479L114.075 114.1L114.468 113.627C115.799 112.126 116.957 110.721 117.957 109.419C118.957 108.116 119.777 106.916 120.414 105.834C121.052 104.745 121.525 103.766 121.816 102.882C122.116 101.997 122.265 101.168 122.265 100.395C122.265 99.3525 121.982 98.3893 121.415 97.4972C120.848 96.605 120.092 95.9103 119.139 95.405C118.611 95.1208 118.044 94.9234 117.445 94.805L125.604 88.9469L106.813 82.1494L108.609 98.5077C108.483 98.7209 108.373 98.934 108.27 99.1551C107.853 100.063 107.648 101.018 107.648 102.021C107.648 102.732 107.766 103.403 108.003 104.034C108.239 104.666 108.538 105.179 108.908 105.574C109.239 105.905 109.719 106.221 110.349 106.529C110.979 106.837 111.484 106.995 111.846 106.995C112.255 106.995 112.46 106.805 112.46 106.418C112.46 106.316 112.405 106.111 112.303 105.803C112.051 104.974 111.925 104.16 111.925 103.371C111.925 101.326 112.381 99.6446 113.303 98.3103C114.027 98.6656 114.524 99.1235 114.791 99.6762C115.059 100.229 115.193 101.058 115.193 102.171C115.193 103.284 115.028 104.295 114.697 105.297C114.476 106.024 114.177 106.711 113.807 107.374C113.437 108.029 112.807 109.04 111.917 110.397L111.602 110.792L111.302 111.211C111.224 111.345 111.161 111.448 111.113 111.519C111.066 111.59 111.019 111.669 110.956 111.748C110.893 111.826 110.838 111.905 110.79 111.984C110.003 113.066 109.129 114.155 108.168 115.245C106.813 116.745 106.136 117.748 106.136 118.253C106.136 118.979 106.805 119.595 108.144 120.108C109.483 120.621 111.09 120.882 112.956 120.882C114.413 120.882 115.642 120.724 116.634 120.416C117.626 120.108 118.477 119.619 119.186 118.94L119.209 118.932ZM125.1 116.65C124.51 115.324 124.21 113.808 124.21 112.095C124.21 109.142 124.825 106.316 126.053 103.608C127.282 100.9 128.912 98.713 130.936 97.0392C132.96 95.3655 135.047 94.5287 137.189 94.5287C138.229 94.5287 139.103 94.7971 139.812 95.3418H140.009C140.718 95.3418 141.395 95.6655 142.049 96.3129C142.702 96.9603 143.214 97.8208 143.6 98.9025C143.978 99.9841 144.175 101.113 144.175 102.305C144.175 103.497 144.002 104.839 143.663 106.308C143.325 107.776 142.868 109.19 142.293 110.548C141.718 111.905 141.033 113.224 140.222 114.503C139.41 115.782 138.576 116.84 137.709 117.685C135.662 119.769 133.559 120.811 131.417 120.811C129.983 120.811 128.723 120.456 127.628 119.737C126.534 119.019 125.699 118 125.108 116.674L125.1 116.65ZM130.92 109.663C130.92 110.729 131.109 111.826 131.48 112.955C131.858 114.084 132.33 115.024 132.897 115.774C133.472 116.524 134.016 116.903 134.543 116.903C134.953 116.903 135.378 116.627 135.827 116.082C136.276 115.537 136.678 114.763 137.048 113.761C137.426 112.798 137.756 111.787 138.032 110.737C138.308 109.687 138.52 108.645 138.662 107.611C138.804 106.584 138.883 105.645 138.883 104.8C138.883 103.466 138.67 102.203 138.245 100.995C137.819 99.7867 137.26 98.8946 136.575 98.3182C136.441 98.2235 136.378 98.1366 136.378 98.0419C136.378 97.7419 136.93 97.1498 138.032 96.2655L138.387 96.0682L138.308 95.9892C137.465 96.005 136.599 96.4313 135.717 97.2682C134.827 98.1051 134.031 99.1788 133.323 100.497C132.614 101.816 132.031 103.3 131.59 104.966C131.141 106.624 130.92 108.195 130.92 109.671V109.663ZM153.996 113.627C155.327 112.126 156.485 110.721 157.485 109.419C158.485 108.116 159.304 106.916 159.942 105.834C160.58 104.745 161.052 103.766 161.344 102.882C161.643 101.997 161.793 101.168 161.793 100.395C161.793 99.3525 161.509 98.3893 160.942 97.4972C160.375 96.605 159.619 95.9103 158.666 95.405C157.713 94.8997 156.658 94.6471 155.5 94.6471C154.342 94.6471 153.248 94.8366 152.216 95.2076C151.184 95.5787 150.294 96.1076 149.546 96.7787C148.798 97.4498 148.215 98.2393 147.806 99.1472C147.388 100.055 147.184 101.01 147.184 102.013C147.184 102.724 147.302 103.395 147.538 104.026C147.774 104.658 148.074 105.171 148.444 105.566C148.774 105.897 149.255 106.213 149.885 106.521C150.515 106.829 151.019 106.987 151.381 106.987C151.791 106.987 151.996 106.797 151.996 106.411C151.996 106.308 151.94 106.103 151.838 105.795C151.586 104.966 151.468 104.153 151.468 103.363C151.468 101.318 151.925 99.6367 152.846 98.3024C153.571 98.6577 154.067 99.1156 154.335 99.6683C154.602 100.221 154.736 101.05 154.736 102.163C154.736 103.276 154.571 104.287 154.24 105.289C154.02 106.016 153.72 106.703 153.35 107.366C152.98 108.021 152.35 109.032 151.46 110.39L151.145 110.784L150.846 111.203C150.767 111.337 150.704 111.44 150.657 111.511C150.609 111.582 150.562 111.661 150.499 111.74C150.444 111.819 150.381 111.898 150.334 111.976C149.546 113.058 148.672 114.148 147.711 115.237C146.357 116.737 145.679 117.74 145.679 118.245C145.679 118.971 146.349 119.587 147.688 120.1C149.026 120.614 150.633 120.874 152.5 120.874C153.957 120.874 155.185 120.716 156.177 120.408C157.17 120.1 158.02 119.611 158.729 118.932C159.414 118.261 160.068 117.408 160.69 116.382C161.312 115.356 161.627 114.598 161.627 114.108C161.627 114.029 161.564 113.99 161.43 113.99C161.312 113.99 161.068 114.045 160.698 114.148C160.147 114.321 159.383 114.456 158.414 114.566C157.445 114.677 156.485 114.724 155.524 114.724C154.563 114.724 153.807 114.645 153.256 114.479L153.594 114.1L153.988 113.627H153.996ZM205.156 73.0939C205.053 73.4255 204.793 73.686 204.471 73.8044L182.639 81.7073C182.71 81.8809 182.742 82.0783 182.726 82.2678L180.671 101.003C180.891 101.105 181.112 101.216 181.316 101.35C182.23 101.918 182.947 102.7 183.451 103.671C183.947 104.626 184.199 105.716 184.199 106.924C184.199 108.266 183.978 109.671 183.537 111.1C183.104 112.505 182.482 113.879 181.687 115.19C180.891 116.5 179.946 117.677 178.883 118.703C177.89 119.666 176.646 120.448 175.197 121.008C173.756 121.561 172.322 121.845 170.928 121.845C168.243 121.845 166.14 121.237 164.667 120.045C163.329 118.956 162.565 117.448 162.383 115.553C162.202 115.971 161.966 116.437 161.635 116.982C160.966 118.087 160.249 119.019 159.501 119.745C158.65 120.55 157.65 121.127 156.5 121.49C155.406 121.829 154.059 122.003 152.492 122.003C150.499 122.003 148.743 121.719 147.286 121.158C145.475 120.464 144.553 119.485 144.553 118.253C144.553 117.542 144.947 116.635 146.869 114.495C147.79 113.445 148.648 112.379 149.42 111.321C149.452 111.266 149.523 111.171 149.593 111.076C149.641 111.013 149.672 110.966 149.704 110.919C149.743 110.855 149.901 110.587 149.924 110.563L150.224 110.145L150.539 109.742C150.948 109.126 151.295 108.574 151.594 108.108C151.523 108.108 151.444 108.116 151.365 108.116C150.814 108.116 150.184 107.934 149.373 107.54C148.617 107.168 148.05 106.782 147.632 106.363C147.144 105.834 146.758 105.195 146.475 104.429C146.191 103.671 146.049 102.866 146.049 102.021C146.049 100.868 146.294 99.7472 146.774 98.6893C147.254 97.6393 147.932 96.7235 148.79 95.9497C149.649 95.1839 150.665 94.5839 151.822 94.1576C152.972 93.7392 154.209 93.526 155.484 93.526C156.76 93.526 158.06 93.826 159.17 94.4181C160.296 95.0181 161.202 95.8471 161.864 96.8971C162.541 97.963 162.887 99.1393 162.887 100.395C162.887 101.287 162.722 102.242 162.383 103.245C162.061 104.2 161.557 105.266 160.879 106.411C160.21 107.54 159.359 108.779 158.343 110.105C157.501 111.203 156.54 112.379 155.469 113.611H155.508C156.429 113.611 157.359 113.563 158.28 113.461C159.17 113.366 159.871 113.24 160.352 113.09C160.879 112.94 161.178 112.884 161.415 112.884C161.864 112.884 162.202 113.066 162.423 113.319C162.628 111.692 163.187 109.845 164.124 107.705C165.274 105.076 167.069 101.887 169.456 98.2156C169.968 97.3945 170.44 96.6998 170.865 96.1155L162.155 89.8627C161.95 89.7127 161.816 89.4996 161.746 89.2706L144.577 95.4839C144.451 95.5313 144.325 95.5471 144.199 95.5471C144.073 95.5471 143.939 95.5234 143.821 95.4839L141.797 94.7497C142.143 94.955 142.49 95.1997 142.813 95.5234C143.577 96.2813 144.191 97.2998 144.624 98.5314C145.049 99.7314 145.262 100.995 145.262 102.305C145.262 103.616 145.081 105.013 144.719 106.561C144.364 108.084 143.884 109.576 143.293 110.982C142.702 112.387 141.97 113.777 141.135 115.095C140.285 116.445 139.379 117.582 138.457 118.482C136.213 120.756 133.834 121.916 131.393 121.916C129.747 121.916 128.266 121.49 126.991 120.653C125.723 119.816 124.738 118.624 124.061 117.108C123.407 115.648 123.076 113.958 123.076 112.095C123.076 108.992 123.73 105.984 125.022 103.142C126.313 100.292 128.062 97.9472 130.204 96.1708C132.425 94.3392 134.764 93.4076 137.166 93.4076C137.67 93.4076 138.135 93.4707 138.583 93.5734L126.644 89.2548C126.573 89.4917 126.439 89.7048 126.235 89.8469L119.777 94.4892C120.832 95.0813 121.698 95.8866 122.336 96.8971C123.013 97.963 123.36 99.1393 123.36 100.395C123.36 101.287 123.187 102.242 122.856 103.245C122.533 104.2 122.029 105.258 121.352 106.411C120.69 107.532 119.84 108.771 118.816 110.105C117.973 111.203 117.012 112.379 115.941 113.611H115.98C116.902 113.611 117.831 113.563 118.753 113.461C119.651 113.366 120.344 113.24 120.824 113.09C121.36 112.94 121.651 112.884 121.887 112.884C122.738 112.884 123.202 113.524 123.202 114.124C123.202 114.85 122.864 115.727 122.1 116.982C121.43 118.087 120.714 119.019 119.966 119.745C119.115 120.55 118.115 121.127 116.965 121.49C115.87 121.829 114.524 122.003 112.956 122.003C110.964 122.003 109.207 121.719 107.743 121.158C105.931 120.464 105.018 119.485 105.018 118.253C105.018 117.542 105.411 116.635 107.333 114.495C108.255 113.437 109.121 112.371 109.885 111.321C109.924 111.266 109.987 111.171 110.066 111.069C110.105 111.013 110.145 110.966 110.176 110.911C110.216 110.848 110.381 110.579 110.397 110.555L110.696 110.137L111.019 109.734C111.428 109.119 111.775 108.566 112.074 108.1C112.003 108.108 111.925 108.116 111.846 108.116C111.295 108.116 110.664 107.934 109.861 107.54C109.113 107.168 108.538 106.79 108.121 106.363C107.624 105.834 107.246 105.195 106.955 104.421C106.672 103.663 106.53 102.85 106.53 102.013C106.53 100.853 106.774 99.7314 107.254 98.6814C107.317 98.5393 107.388 98.3972 107.459 98.263L105.703 82.2599C105.679 82.0625 105.711 81.8731 105.789 81.6994L83.9662 73.8044C83.6433 73.686 83.3913 73.4255 83.2811 73.0939C83.1787 72.7623 83.2259 72.407 83.4228 72.1149L101.836 45.0905C101.907 44.9879 102.001 44.901 102.104 44.8221L91.196 31.6059C90.9755 31.3375 90.8889 30.9743 90.9676 30.6269C91.0464 30.2875 91.2905 30.0032 91.6134 29.8611L120.422 17.5055C120.564 17.4424 120.714 17.4187 120.863 17.4187C121.218 17.4187 121.564 17.5845 121.777 17.8924L129.463 28.7795C129.534 28.8822 129.582 28.9927 129.613 29.1111L143.844 23.9636C143.97 23.9162 144.096 23.9005 144.222 23.9005C144.348 23.9005 144.482 23.9241 144.6 23.9636L158.832 29.1111C158.863 28.9927 158.91 28.8822 158.981 28.7795L166.668 17.8924C166.88 17.5845 167.227 17.4187 167.581 17.4187C167.731 17.4187 167.881 17.4503 168.022 17.5055L196.831 29.8611C197.154 30.0032 197.39 30.2875 197.477 30.6269C197.556 30.9664 197.477 31.3296 197.249 31.6059L186.341 44.8221C186.443 44.8931 186.538 44.98 186.609 45.0905L205.022 72.1149C205.219 72.3991 205.266 72.7623 205.164 73.0939H205.156ZM137.772 104.8C137.772 103.608 137.575 102.447 137.197 101.366C136.843 100.371 136.402 99.6446 135.89 99.1946C135.795 99.1235 135.717 99.0525 135.654 98.9814C135.173 99.5735 134.724 100.252 134.315 101.018C133.645 102.25 133.094 103.679 132.677 105.242C132.259 106.797 132.047 108.282 132.047 109.655C132.047 110.595 132.22 111.582 132.551 112.592C132.881 113.595 133.307 114.432 133.795 115.087C134.252 115.687 134.512 115.766 134.551 115.774C134.551 115.766 134.709 115.687 134.976 115.363C135.339 114.913 135.693 114.242 136.016 113.366C136.386 112.426 136.709 111.448 136.969 110.445C137.229 109.442 137.434 108.432 137.575 107.453C137.709 106.482 137.78 105.589 137.78 104.8H137.772ZM114.09 102.179C114.09 101.018 113.933 100.45 113.799 100.181C113.767 100.11 113.72 100.047 113.673 99.9762C113.256 100.939 113.051 102.076 113.051 103.387C113.051 104.066 113.161 104.776 113.382 105.495C113.397 105.542 113.413 105.582 113.429 105.621C113.515 105.408 113.586 105.187 113.657 104.974C113.956 104.074 114.098 103.134 114.098 102.179H114.09ZM140.544 94.276L139.702 93.9681C139.859 94.0471 140.017 94.1181 140.166 94.2129C140.292 94.2129 140.418 94.2523 140.544 94.2681V94.276ZM153.618 102.179C153.618 100.963 153.437 100.402 153.327 100.181C153.295 100.11 153.248 100.047 153.201 99.9762C152.783 100.939 152.578 102.076 152.578 103.387C152.578 104.066 152.689 104.776 152.909 105.495C152.925 105.542 152.941 105.582 152.956 105.621C153.043 105.408 153.114 105.187 153.185 104.974C153.484 104.074 153.626 103.134 153.626 102.179H153.618ZM175.465 110.634C175.465 109.695 175.331 108.89 175.063 108.242C174.819 107.658 174.504 107.232 174.094 106.947C173.701 106.671 173.204 106.537 172.59 106.537C172.59 106.537 172.393 106.537 172 106.979C171.614 107.413 171.283 107.982 171.023 108.684C170.763 109.395 170.629 110.09 170.629 110.753C170.629 111.669 170.802 112.537 171.157 113.319C171.495 114.084 171.944 114.677 172.527 115.127C173.063 115.537 173.583 115.734 174.126 115.734C174.165 115.734 174.276 115.734 174.339 115.703C174.543 115.434 174.827 114.906 175.079 113.855C175.323 112.853 175.449 111.763 175.449 110.626L175.465 110.634ZM116.445 132.259C114.87 132.259 114.043 131.738 113.61 131.138C113.508 131.745 113.011 132.18 112.373 132.18H111.98C111.515 132.18 111.113 131.951 110.877 131.564L109.869 129.764V130.901C109.869 131.627 109.326 132.172 108.609 132.172H108.215C107.94 132.172 107.687 132.093 107.483 131.951C107.278 132.085 107.034 132.172 106.766 132.172H106.325C105.742 132.172 105.246 131.801 105.073 131.224L104.75 130.174H104.041L103.726 131.224C103.513 131.927 102.946 132.172 102.482 132.172H102.072C101.86 132.172 101.663 132.124 101.489 132.03C101.308 132.116 101.111 132.172 100.899 132.172H100.466C100.182 132.172 99.6465 132.077 99.3157 131.461C99.3079 131.445 99.2842 131.398 99.2764 131.382L98.4101 129.543V130.901C98.4101 131.627 97.8666 132.172 97.15 132.172H96.7168C96.0001 132.172 95.4567 131.627 95.4567 130.901V128.69C95.2834 128.777 95.0866 128.832 94.8739 128.832H92.968V130.901C92.968 131.627 92.4246 132.172 91.7079 132.172H91.2748C90.5581 132.172 90.0147 131.627 90.0147 130.901V124.174C90.0147 123.448 90.5581 122.903 91.2748 122.903H95.0629C95.3858 122.903 95.6772 123.022 95.8977 123.203C96.1183 123.014 96.3939 122.903 96.7168 122.903H98.7566C101.867 122.903 102.112 124.916 102.112 125.532V126.63L102.962 123.85C103.135 123.266 103.624 122.903 104.222 122.903H104.663C105.254 122.903 105.75 123.274 105.915 123.858L106.963 127.261V124.182C106.963 123.456 107.506 122.911 108.231 122.911H108.625C109.113 122.911 109.53 123.164 109.743 123.582L110.735 125.335V124.182C110.735 123.456 111.279 122.911 111.995 122.911H112.389C113.027 122.911 113.523 123.345 113.626 123.953C114.059 123.345 114.886 122.832 116.461 122.832C117.808 122.832 118.603 123.211 119.076 123.693C119.257 123.227 119.698 122.911 120.241 122.911H123.762C124.486 122.911 125.03 123.456 125.03 124.182V124.506C125.03 125.232 124.486 125.777 123.762 125.777H121.934V125.951H123.573C124.297 125.951 124.841 126.495 124.841 127.222V127.522C124.841 128.248 124.297 128.793 123.573 128.793H121.934V129.306H123.88C124.604 129.306 125.148 129.851 125.148 130.569V130.901C125.148 131.627 124.604 132.172 123.88 132.172H120.225C119.69 132.172 119.249 131.856 119.068 131.39C118.595 131.872 117.792 132.251 116.453 132.251L116.445 132.259ZM95.4331 126.101V125.706C95.3071 125.745 95.1732 125.769 95.0314 125.769H92.9365V125.951H94.8424C95.0551 125.951 95.2519 126.006 95.4252 126.093L95.4331 126.101ZM99.1189 125.801C99.0401 125.785 98.9141 125.769 98.7251 125.769H98.3864V126.448H98.7251C98.9062 126.448 99.0322 126.432 99.1189 126.416V125.793V125.801ZM101.174 128.627L101.356 129.006L101.615 128.161C101.489 128.335 101.348 128.493 101.174 128.627ZM118.477 127.695C118.65 127.695 118.824 127.727 118.973 127.79V127.166C118.824 127.23 118.658 127.261 118.477 127.261H118.068C117.343 127.261 116.8 126.708 116.8 125.974V125.706C116.721 125.698 116.611 125.682 116.461 125.682C116.311 125.682 116.201 125.69 116.122 125.706V129.361C116.201 129.369 116.303 129.385 116.461 129.385C116.618 129.385 116.721 129.377 116.8 129.361V128.959C116.8 128.232 117.343 127.687 118.068 127.687H118.477V127.695ZM198.272 123.479C198.493 123.835 198.509 124.285 198.312 124.679L196.359 128.461V130.901C196.359 131.627 195.815 132.172 195.091 132.172H194.658C193.933 132.172 193.39 131.627 193.39 130.901V128.54L191.972 125.761C191.933 125.761 191.893 125.769 191.854 125.769H191.192V130.901C191.192 131.627 190.649 132.172 189.932 132.172H189.491C188.767 132.172 188.223 131.627 188.223 130.901V125.769H187.562C187.507 125.769 187.451 125.761 187.396 125.753V130.901C187.396 131.627 186.853 132.172 186.136 132.172H185.703C185.317 132.172 184.986 132.014 184.758 131.753C184.522 132.014 184.183 132.172 183.805 132.172H183.372C183.088 132.172 182.553 132.077 182.222 131.461C182.214 131.445 182.191 131.398 182.183 131.382L181.316 129.543V130.901C181.316 131.627 180.773 132.172 180.056 132.172H179.623C178.946 132.172 178.434 131.682 178.371 131.019C177.953 131.659 177.111 132.259 175.418 132.259C173.724 132.259 172.937 131.682 172.511 131.059C172.094 131.698 171.267 132.259 169.621 132.259C168.353 132.259 167.573 131.919 167.085 131.477C166.88 131.895 166.463 132.18 165.943 132.18H162.289C161.69 132.18 161.226 131.793 161.084 131.248C160.627 131.801 159.808 132.267 158.328 132.267C157.02 132.267 156.225 131.903 155.744 131.438C155.721 131.501 155.697 131.556 155.658 131.611C155.429 131.966 155.028 132.18 154.579 132.18H154.146C153.862 132.18 153.327 132.085 152.996 131.469C152.988 131.453 152.964 131.406 152.956 131.39L152.09 129.551V130.909C152.09 131.635 151.547 132.18 150.83 132.18H150.397C150.05 132.18 149.743 132.045 149.523 131.832C149.294 132.045 148.987 132.18 148.641 132.18H144.986C144.388 132.18 143.915 131.785 143.781 131.232C143.309 131.753 142.49 132.18 141.048 132.18H138.993C138.276 132.18 137.733 131.635 137.733 130.909V126.543L136.733 128.469V130.909C136.733 131.635 136.189 132.18 135.465 132.18H135.032C134.307 132.18 133.764 131.635 133.764 130.909V128.548L132.881 126.811C132.653 127.087 132.314 127.269 131.913 127.269H131.503C130.779 127.269 130.235 126.716 130.235 125.982V125.714C130.157 125.706 130.046 125.69 129.897 125.69C129.747 125.69 129.637 125.698 129.558 125.714V129.369C129.637 129.377 129.739 129.393 129.897 129.393C130.054 129.393 130.157 129.385 130.235 129.369V128.966C130.235 128.24 130.779 127.695 131.503 127.695H131.913C132.629 127.695 133.173 128.24 133.173 128.966V129.63C133.173 130.419 132.85 132.259 129.881 132.259C126.912 132.259 126.589 130.419 126.589 129.63V125.453C126.589 124.664 126.912 122.824 129.881 122.824C130.834 122.824 131.511 123.014 131.992 123.298C132.22 123.053 132.543 122.911 132.905 122.911H133.401C133.653 122.911 134.283 122.99 134.606 123.732L135.268 125.043L135.992 123.661C136.331 122.982 136.93 122.903 137.166 122.903H137.599C137.859 122.903 138.095 122.982 138.292 123.108C138.489 122.974 138.733 122.903 139.001 122.903H140.773C142.49 122.903 143.34 123.487 143.75 124.127C143.773 123.424 144.301 122.903 145.01 122.903H148.53C148.916 122.903 149.247 123.061 149.475 123.314C149.704 123.061 150.027 122.903 150.405 122.903H152.444C154.177 122.903 155.02 123.527 155.429 124.19C155.799 123.503 156.611 122.824 158.359 122.824C159.848 122.824 160.651 123.306 161.1 123.874C161.226 123.306 161.714 122.903 162.32 122.903H165.841C166.392 122.903 166.833 123.219 167.022 123.685C167.495 123.203 168.298 122.824 169.645 122.824C170.991 122.824 171.74 123.179 172.22 123.645C172.417 123.203 172.842 122.911 173.37 122.911H173.811C174.528 122.911 175.071 123.456 175.071 124.182V129.369C175.15 129.385 175.268 129.401 175.441 129.401C175.63 129.401 175.756 129.385 175.843 129.369V124.19C175.843 123.464 176.386 122.919 177.103 122.919H177.536C177.985 122.919 178.363 123.132 178.591 123.472C178.812 123.132 179.19 122.919 179.631 122.919H181.671C183.199 122.919 184.033 123.4 184.482 123.969C184.585 123.361 185.081 122.919 185.719 122.919H186.152C186.42 122.919 186.664 122.998 186.861 123.124C187.066 122.99 187.31 122.919 187.577 122.919H191.87C191.988 122.919 192.098 122.935 192.2 122.966C192.311 122.935 192.421 122.919 192.539 122.919H193.035C193.287 122.919 193.909 122.998 194.24 123.74L194.91 125.058L195.634 123.677C195.973 122.998 196.571 122.919 196.808 122.919H197.241C197.682 122.919 198.083 123.132 198.304 123.495L198.272 123.479ZM140.67 126.03H140.852C140.978 126.03 141.072 126.022 141.135 126.006V125.777C141.048 125.761 140.922 125.753 140.741 125.753H140.663V126.03H140.67ZM141.419 128.88C141.332 128.864 141.206 128.848 141.025 128.848H140.663V129.33H141.025C141.206 129.33 141.332 129.314 141.419 129.298V128.872V128.88ZM146.68 125.951H148.318C148.633 125.951 148.916 126.061 149.129 126.235V125.611C148.948 125.714 148.735 125.777 148.499 125.777H146.672V125.951H146.68ZM148.625 129.306C148.806 129.306 148.979 129.337 149.129 129.401V128.501C148.908 128.682 148.633 128.785 148.318 128.785H146.68V129.298H148.625V129.306ZM152.815 125.801C152.728 125.785 152.61 125.769 152.421 125.769H152.082V126.448H152.421C152.602 126.448 152.728 126.432 152.815 126.416V125.793V125.801ZM158.115 125.69L158.643 125.887V125.698C158.572 125.69 158.477 125.682 158.343 125.682C158.249 125.682 158.178 125.682 158.115 125.69ZM155.91 127.837C155.807 127.743 155.721 127.64 155.634 127.537C155.484 127.972 155.24 128.351 154.878 128.635L155.028 128.943C155.075 128.406 155.421 127.98 155.918 127.837H155.91ZM158.69 129.093L157.91 128.793C157.926 128.88 157.934 128.974 157.934 129.069V129.385C158.012 129.401 158.131 129.409 158.304 129.409C158.477 129.409 158.603 129.393 158.682 129.385V129.101L158.69 129.093ZM160.958 127.056C160.958 127.056 161.005 127.119 161.029 127.151V127.001C161.029 127.001 160.982 127.04 160.958 127.056ZM163.99 125.951H165.628C165.888 125.951 166.124 126.022 166.321 126.148V125.682C166.172 125.745 165.998 125.777 165.817 125.777H163.99V125.951ZM165.935 129.306C166.069 129.306 166.195 129.33 166.313 129.369V128.603C166.116 128.73 165.88 128.801 165.62 128.801H163.982V129.314H165.927L165.935 129.306ZM171.645 127.695C171.803 127.695 171.944 127.727 172.078 127.774V127.19C171.944 127.237 171.803 127.269 171.645 127.269H171.236C170.511 127.269 169.968 126.716 169.968 125.982V125.714C169.889 125.706 169.779 125.69 169.629 125.69C169.479 125.69 169.369 125.698 169.29 125.714V129.369C169.361 129.377 169.471 129.393 169.629 129.393C169.786 129.393 169.889 129.385 169.968 129.369V128.966C169.968 128.24 170.511 127.695 171.243 127.695H171.653H171.645ZM182.033 125.801C181.946 125.785 181.828 125.769 181.639 125.769H181.301V126.448H181.639C181.82 126.448 181.946 126.432 182.025 126.416V125.793L182.033 125.801ZM184.089 128.627L184.435 129.345V128.287C184.333 128.406 184.222 128.524 184.089 128.627ZM170.117 142.364V143.169C170.117 144.006 169.534 144.591 168.692 144.591H165.061C164.494 144.591 164.045 144.314 163.817 143.872C163.234 144.346 162.376 144.669 161.139 144.669C159.903 144.669 159.005 144.338 158.422 143.84C158.202 144.298 157.753 144.583 157.178 144.583H156.17C155.484 144.583 155.122 144.212 154.933 143.896L154.823 143.706C154.626 144.243 154.138 144.583 153.508 144.583H152.5C152.2 144.583 151.933 144.504 151.712 144.362C151.492 144.504 151.216 144.583 150.909 144.583H147.278C147.01 144.583 146.774 144.519 146.561 144.401C146.357 144.512 146.112 144.583 145.845 144.583H142.379C142.127 144.583 141.899 144.519 141.702 144.409C141.497 144.519 141.253 144.583 140.985 144.583H137.52C137.3 144.583 137.095 144.527 136.914 144.448C136.748 144.527 136.552 144.583 136.307 144.583H135.165C134.464 144.583 133.913 144.148 133.724 143.438L133.685 143.28L133.638 143.446C133.456 144.141 132.905 144.583 132.196 144.583H131.157C130.905 144.583 130.708 144.519 130.542 144.441C130.353 144.527 130.141 144.583 129.905 144.583H128.786C128.235 144.583 127.786 144.322 127.558 143.904C127.321 144.33 126.888 144.583 126.337 144.583H125.219C124.675 144.583 124.242 144.33 124.006 143.919C123.423 144.362 122.588 144.662 121.399 144.662C118.705 144.662 117.745 143.169 117.745 141.772V138.109C117.745 136.711 118.705 135.219 121.399 135.219C122.588 135.219 123.423 135.519 123.998 135.961C124.234 135.551 124.667 135.298 125.211 135.298H126.329C126.88 135.298 127.321 135.559 127.55 135.977C127.786 135.551 128.227 135.298 128.778 135.298H129.897C130.724 135.298 131.299 135.882 131.299 136.727V137.832L131.708 136.419C131.921 135.717 132.464 135.306 133.157 135.306H134.275C134.976 135.306 135.52 135.717 135.725 136.411L136.142 137.832V136.727C136.142 135.882 136.725 135.298 137.56 135.298H138.67C139.497 135.298 140.072 135.882 140.072 136.727V140.935H140.978H140.993V136.727C140.993 135.882 141.576 135.298 142.411 135.298H143.521C144.348 135.298 144.923 135.882 144.923 136.727V140.935H145.829H145.845V136.727C145.845 135.882 146.428 135.298 147.262 135.298H150.791C151.121 135.298 151.413 135.393 151.641 135.551C151.87 135.393 152.153 135.298 152.484 135.298H153.492C154.027 135.298 154.476 135.559 154.72 135.985L154.831 136.175C155.028 135.638 155.516 135.298 156.154 135.298H157.162C157.737 135.298 158.186 135.59 158.414 136.04C158.997 135.551 159.863 135.211 161.131 135.211C162.399 135.211 163.226 135.535 163.809 136.009C164.037 135.567 164.486 135.29 165.053 135.29H168.582C169.424 135.29 170.007 135.867 170.007 136.696V137.501C170.007 137.943 169.842 138.314 169.566 138.559C169.739 138.788 169.842 139.088 169.842 139.427V140.185C169.842 140.572 169.716 140.896 169.503 141.14C169.881 141.385 170.109 141.804 170.109 142.325L170.117 142.364ZM121.895 139.877C121.816 139.838 121.738 139.79 121.667 139.735V140.027C121.738 139.972 121.816 139.925 121.895 139.885V139.877ZM180.741 114.598C179.993 115.829 179.119 116.927 178.119 117.89C177.229 118.758 176.118 119.445 174.803 119.958C173.488 120.464 172.204 120.716 170.936 120.716C168.503 120.716 166.652 120.195 165.376 119.161C164.1 118.127 163.462 116.619 163.462 114.645C163.462 112.892 164.029 110.729 165.156 108.14C166.282 105.55 168.038 102.447 170.401 98.8077C171.22 97.4972 171.913 96.534 172.48 95.8708L162.824 88.9311L181.616 82.1336L179.552 100.955L177.079 99.1788C176.733 99.5814 176.347 100.031 175.914 100.553L174.811 101.855L173.606 103.26L173.685 103.339C175.449 102.179 176.953 101.603 178.198 101.603C179.143 101.603 179.985 101.831 180.734 102.297C181.474 102.755 182.057 103.387 182.466 104.184C182.884 104.982 183.088 105.897 183.088 106.924C183.088 108.163 182.884 109.442 182.474 110.769C182.065 112.095 181.49 113.374 180.741 114.606V114.598ZM176.583 110.634C176.583 109.545 176.418 108.605 176.103 107.816C175.78 107.034 175.323 106.434 174.74 106.024C174.157 105.613 173.441 105.408 172.598 105.408C172.141 105.408 171.669 105.676 171.18 106.221C170.692 106.758 170.298 107.453 169.991 108.29C169.684 109.126 169.527 109.947 169.527 110.753C169.527 111.834 169.731 112.845 170.149 113.777C170.566 114.716 171.133 115.458 171.866 116.019C172.598 116.579 173.354 116.856 174.142 116.856C174.559 116.856 174.898 116.737 175.15 116.5C175.567 116.011 175.914 115.221 176.181 114.132C176.449 113.042 176.583 111.874 176.583 110.634Z" fill="white"/>
        <path d="M144.215 94.4179L171.685 84.4782V34.9532L144.215 25.0134L116.752 34.9532V84.4782L144.215 94.4179Z" fill="#073149"/>
        <path d="M185.68 45.7219L204.093 72.7463L172.866 84.0439V61.2512L185.68 45.7219ZM162.833 88.9388L179.56 100.955L181.624 82.1334L162.833 88.9309V88.9388ZM159.895 29.4267L172.866 34.1242V59.4038L196.383 30.903L167.582 18.5396L159.895 29.4267Z" fill="#073149"/>
        <path opacity="0.2" d="M172.866 61.2591L204.093 72.7541L172.866 84.0518V61.2591ZM172.866 59.3959L196.383 30.8951L172.866 34.1163V59.3959ZM167.582 18.5396L159.895 29.4267L172.866 34.1242L167.582 18.5396Z" fill="#00A0E4"/>
        <path d="M115.571 61.2591V84.0518L84.3442 72.7463L102.757 45.7219L115.571 61.2512V61.2591ZM106.813 82.1412L108.877 100.963L125.604 88.9467L106.813 82.1491V82.1412ZM120.855 18.5396L92.0544 30.8951L115.571 59.3959V34.1242L128.542 29.4267L120.855 18.5396Z" fill="#073149"/>
        <path opacity="0.2" d="M115.571 84.0518L84.3442 72.7463L115.571 61.2512V84.0439V84.0518ZM115.571 34.1242L92.0544 30.903L115.571 59.4038V34.1242ZM115.571 34.1242L128.542 29.4267L120.855 18.5396L115.571 34.1242Z" fill="#00A0E4"/>
        <path d="M140.331 49.6533L134.755 53.206L131.818 46.5901L140.324 49.6454L140.331 49.6533ZM137.74 46.0058L140.331 49.6612L140.749 39.532L137.74 46.0058ZM140.331 49.6533L150.318 56.0245L148.869 45.5558L140.331 49.6533ZM153.302 42.7689L148.869 45.5637L152.224 48.4296L156.508 52.0849L153.302 42.7689Z" fill="#E98A86"/>
        <path d="M140.331 49.6531L140.749 39.5239L148.869 45.5557L140.331 49.6531ZM137.74 46.0057L131.818 46.5978L140.324 49.6531L137.732 45.9978L137.74 46.0057ZM150.318 56.0244L156.5 52.0769L148.861 45.5557L150.31 56.0244H150.318Z" fill="#D33D52"/>
        <path d="M147.955 74.6565L139.064 80.1198L130.18 59.6561L140.009 53.356L147.121 57.8877L141.978 61.1877L147.955 74.6565ZM150.885 72.8486L156.311 69.509L146.932 64.1641L150.885 72.8486ZM159.753 62.1904L152.964 57.8561L146.183 62.1904H159.753Z" fill="white"/>
        <path d="M95.0314 124.024C95.1338 124.024 95.1889 124.063 95.1889 124.182V124.506C95.1889 124.616 95.1338 124.663 95.0314 124.663H91.8261V127.087H94.8503C94.9527 127.087 94.992 127.142 94.992 127.245V127.577C94.992 127.679 94.9527 127.735 94.8503 127.735H91.8261V130.924C91.8261 131.027 91.7946 131.082 91.6843 131.082H91.2511C91.1488 131.082 91.1094 131.027 91.1094 130.924V124.198C91.1094 124.095 91.1488 124.04 91.2511 124.04H95.0393L95.0314 124.024Z" fill="#D33D52"/>
        <path d="M97.2679 128.193V130.901C97.2679 131.003 97.2364 131.058 97.1262 131.058H96.693C96.5906 131.058 96.5513 131.003 96.5513 130.901V124.174C96.5513 124.071 96.5906 124.016 96.6852 124.016H98.7249C100.442 124.016 100.962 124.695 100.962 125.524V126.685C100.962 127.324 100.639 127.885 99.6858 128.09L101.025 130.893C101.064 130.987 100.993 131.051 100.883 131.051H100.45C100.339 131.051 100.316 130.987 100.261 130.893L98.9848 128.185H97.2758L97.2679 128.193ZM97.2679 124.656V127.569H98.7249C99.8275 127.569 100.229 127.174 100.229 126.566V125.642C100.229 125.042 99.8275 124.648 98.7249 124.648H97.2679V124.656Z" fill="#D33D52"/>
        <path d="M104.821 124.182L106.884 130.908C106.916 131.011 106.876 131.066 106.758 131.066H106.317C106.215 131.066 106.16 131.011 106.128 130.908L105.561 129.069H103.198L102.639 130.908C102.608 131.011 102.568 131.066 102.466 131.066H102.056C101.954 131.066 101.915 131.011 101.946 130.908L104.002 124.182C104.033 124.079 104.08 124.024 104.199 124.024H104.64C104.742 124.024 104.797 124.079 104.829 124.182H104.821ZM104.655 126.053C104.553 125.721 104.419 124.916 104.395 124.798C104.388 124.869 104.262 125.635 104.136 126.029L103.372 128.469H105.404L104.647 126.045L104.655 126.053Z" fill="#D33D52"/>
        <path d="M112.507 130.901C112.507 131.003 112.476 131.058 112.366 131.058H111.972C111.901 131.058 111.862 131.035 111.83 130.987L109.097 126.124C108.869 125.729 108.759 125.485 108.743 125.453V130.901C108.743 131.003 108.703 131.058 108.601 131.058H108.207C108.097 131.058 108.05 131.003 108.05 130.901V124.174C108.05 124.071 108.089 124.016 108.207 124.016H108.601C108.672 124.016 108.703 124.04 108.727 124.079L111.523 129.014C111.602 129.156 111.83 129.637 111.83 129.637V124.174C111.83 124.071 111.869 124.016 111.972 124.016H112.366C112.476 124.016 112.507 124.071 112.507 124.174V130.901Z" fill="#D33D52"/>
        <path d="M118.619 129.63C118.619 130.459 118.146 131.138 116.445 131.138C114.744 131.138 114.271 130.459 114.271 129.63V125.453C114.271 124.624 114.744 123.945 116.445 123.945C118.146 123.945 118.619 124.624 118.619 125.453V125.982C118.619 126.093 118.579 126.148 118.477 126.148H118.068C117.957 126.148 117.91 126.093 117.91 125.982V125.572C117.91 124.972 117.548 124.577 116.453 124.577C115.358 124.577 114.996 124.972 114.996 125.572V129.519C114.996 130.119 115.358 130.514 116.453 130.514C117.548 130.514 117.91 130.119 117.91 129.519V128.974C117.91 128.872 117.949 128.817 118.068 128.817H118.477C118.579 128.817 118.619 128.872 118.619 128.974V129.638V129.63Z" fill="#D33D52"/>
        <path d="M120.217 131.058C120.123 131.058 120.083 131.003 120.083 130.901V124.174C120.083 124.071 120.123 124.016 120.225 124.016H123.746C123.848 124.016 123.903 124.056 123.903 124.174V124.498C123.903 124.608 123.848 124.656 123.746 124.656H120.808V127.064H123.565C123.675 127.064 123.722 127.103 123.722 127.221V127.521C123.722 127.632 123.683 127.679 123.565 127.679H120.808V130.427H123.872C123.974 130.427 124.029 130.466 124.029 130.569V130.901C124.029 131.011 123.974 131.058 123.872 131.058H120.217Z" fill="#D33D52"/>
        <path d="M132.031 129.63C132.031 130.459 131.558 131.138 129.857 131.138C128.156 131.138 127.684 130.459 127.684 129.63V125.453C127.684 124.624 128.156 123.945 129.857 123.945C131.558 123.945 132.031 124.624 132.031 125.453V125.982C132.031 126.093 131.992 126.148 131.889 126.148H131.48C131.369 126.148 131.322 126.093 131.322 125.982V125.572C131.322 124.972 130.96 124.577 129.865 124.577C128.77 124.577 128.408 124.972 128.408 125.572V129.519C128.408 130.119 128.77 130.514 129.865 130.514C130.96 130.514 131.322 130.119 131.322 129.519V128.974C131.322 128.872 131.361 128.817 131.48 128.817H131.889C131.992 128.817 132.031 128.872 132.031 128.974V129.638V129.63Z" fill="#D33D52"/>
        <path d="M135.079 127.182C135.173 127.379 135.221 127.553 135.236 127.577C135.236 127.553 135.331 127.308 135.394 127.182L136.961 124.182C137 124.103 137.04 124.024 137.15 124.024H137.583C137.686 124.024 137.741 124.079 137.686 124.182L135.614 128.193V130.901C135.614 131.003 135.575 131.058 135.457 131.058H135.024C134.921 131.058 134.866 131.003 134.866 130.901V128.271L132.779 124.174C132.724 124.071 132.779 124.016 132.881 124.016H133.378C133.48 124.016 133.519 124.079 133.567 124.174L135.087 127.174L135.079 127.182Z" fill="#D33D52"/>
        <path d="M138.977 131.058C138.875 131.058 138.835 131.003 138.835 130.901V124.174C138.835 124.071 138.875 124.016 138.977 124.016H140.749C142.45 124.016 142.978 124.648 142.978 125.461V126.14C142.978 126.7 142.734 127.135 142.049 127.364C142.884 127.553 143.269 128.003 143.269 128.635V129.558C143.269 130.387 142.742 131.051 141.033 131.051H138.977V131.058ZM139.552 124.632V127.143H140.852C141.852 127.143 142.253 126.74 142.253 126.14V125.579C142.253 124.971 141.844 124.624 140.749 124.624H139.552V124.632ZM139.552 127.727V130.45H141.025C142.127 130.45 142.529 130.056 142.529 129.456V128.69C142.529 128.121 142.127 127.727 141.025 127.727H139.552Z" fill="#D33D52"/>
        <path d="M144.97 131.058C144.876 131.058 144.836 131.003 144.836 130.901V124.174C144.836 124.071 144.876 124.016 144.978 124.016H148.499C148.601 124.016 148.656 124.056 148.656 124.174V124.498C148.656 124.608 148.601 124.656 148.499 124.656H145.561V127.064H148.317C148.428 127.064 148.475 127.103 148.475 127.221V127.521C148.475 127.632 148.436 127.679 148.317 127.679H145.561V130.427H148.625C148.727 130.427 148.782 130.466 148.782 130.569V130.901C148.782 131.011 148.727 131.058 148.625 131.058H144.97Z" fill="#D33D52"/>
        <path d="M150.964 128.193V130.901C150.964 131.003 150.932 131.058 150.822 131.058H150.389C150.286 131.058 150.247 131.003 150.247 130.901V124.174C150.247 124.071 150.286 124.016 150.381 124.016H152.421C154.13 124.016 154.657 124.695 154.657 125.524V126.685C154.657 127.324 154.335 127.885 153.382 128.09L154.72 130.893C154.76 130.987 154.689 131.051 154.579 131.051H154.145C154.035 131.051 154.012 130.987 153.956 130.893L152.681 128.185H150.964V128.193ZM150.964 124.656V127.569H152.421C153.523 127.569 153.925 127.174 153.925 126.566V125.642C153.925 125.042 153.523 124.648 152.421 124.648H150.964V124.656Z" fill="#D33D52"/>
        <path d="M158.343 124.561C157.256 124.561 156.918 124.948 156.918 125.54V125.848C156.918 126.353 157.256 126.551 157.516 126.653L159.454 127.388C160.013 127.593 160.525 128.011 160.525 128.73V129.622C160.525 130.451 159.989 131.13 158.319 131.13C156.65 131.13 156.114 130.451 156.114 129.622V129.053C156.114 128.943 156.154 128.895 156.256 128.895H156.681C156.784 128.895 156.823 128.935 156.823 129.053V129.527C156.823 130.127 157.217 130.506 158.312 130.506C159.406 130.506 159.808 130.119 159.808 129.527V128.888C159.808 128.351 159.351 128.13 158.949 127.98L157.099 127.269C156.666 127.103 156.201 126.669 156.201 126.03V125.453C156.201 124.624 156.689 123.945 158.327 123.945C159.965 123.945 160.477 124.624 160.477 125.453V125.943C160.477 126.045 160.438 126.101 160.32 126.101H159.895C159.792 126.101 159.753 126.045 159.753 125.943V125.548C159.753 124.948 159.414 124.569 158.335 124.569L158.343 124.561Z" fill="#D33D52"/>
        <path d="M162.289 131.058C162.194 131.058 162.155 131.003 162.155 130.901V124.174C162.155 124.071 162.194 124.016 162.297 124.016H165.817C165.919 124.016 165.974 124.056 165.974 124.174V124.498C165.974 124.608 165.919 124.656 165.817 124.656H162.879V127.064H165.636C165.746 127.064 165.793 127.103 165.793 127.221V127.521C165.793 127.632 165.754 127.679 165.636 127.679H162.879V130.427H165.943C166.045 130.427 166.1 130.466 166.1 130.569V130.901C166.1 131.011 166.045 131.058 165.943 131.058H162.289Z" fill="#D33D52"/>
        <path d="M171.787 129.63C171.787 130.459 171.314 131.138 169.613 131.138C167.912 131.138 167.439 130.459 167.439 129.63V125.453C167.439 124.624 167.912 123.945 169.613 123.945C171.314 123.945 171.787 124.624 171.787 125.453V125.982C171.787 126.093 171.747 126.148 171.645 126.148H171.235C171.125 126.148 171.078 126.093 171.078 125.982V125.572C171.078 124.972 170.716 124.577 169.621 124.577C168.526 124.577 168.164 124.972 168.164 125.572V129.519C168.164 130.119 168.526 130.514 169.621 130.514C170.716 130.514 171.078 130.119 171.078 129.519V128.974C171.078 128.872 171.117 128.817 171.235 128.817H171.645C171.747 128.817 171.787 128.872 171.787 128.974V129.638V129.63Z" fill="#D33D52"/>
        <path d="M173.921 129.519C173.921 130.119 174.323 130.514 175.41 130.514C176.497 130.514 176.93 130.119 176.93 129.519V124.182C176.93 124.079 176.969 124.024 177.072 124.024H177.505C177.615 124.024 177.647 124.079 177.647 124.182V129.629C177.647 130.458 177.119 131.137 175.41 131.137C173.701 131.137 173.189 130.458 173.189 129.629V124.182C173.189 124.079 173.228 124.024 173.331 124.024H173.772C173.874 124.024 173.914 124.079 173.914 124.182V129.519H173.921Z" fill="#D33D52"/>
        <path d="M180.19 128.193V130.901C180.19 131.003 180.158 131.058 180.048 131.058H179.615C179.513 131.058 179.473 131.003 179.473 130.901V124.174C179.473 124.071 179.513 124.016 179.607 124.016H181.647C183.356 124.016 183.883 124.695 183.883 125.524V126.685C183.883 127.324 183.561 127.885 182.608 128.09L183.946 130.893C183.986 130.987 183.915 131.051 183.805 131.051H183.372C183.261 131.051 183.238 130.987 183.183 130.893L181.907 128.185H180.19V128.193ZM180.19 124.656V127.569H181.647C182.749 127.569 183.151 127.174 183.151 126.566V125.642C183.151 125.042 182.749 124.648 181.647 124.648H180.19V124.656Z" fill="#D33D52"/>
        <path d="M186.278 130.901C186.278 131.003 186.246 131.058 186.136 131.058H185.703C185.6 131.058 185.561 131.003 185.561 130.901V124.174C185.561 124.071 185.6 124.016 185.703 124.016H186.136C186.246 124.016 186.278 124.071 186.278 124.174V130.901Z" fill="#D33D52"/>
        <path d="M191.846 124.024C191.949 124.024 192.004 124.063 192.004 124.182V124.506C192.004 124.616 191.949 124.663 191.846 124.663H190.074V130.908C190.074 131.011 190.035 131.066 189.932 131.066H189.491C189.381 131.066 189.334 131.011 189.334 130.908V124.663H187.562C187.452 124.663 187.404 124.624 187.404 124.506V124.182C187.404 124.071 187.444 124.024 187.562 124.024H191.854H191.846Z" fill="#D33D52"/>
        <path d="M194.713 127.182C194.807 127.379 194.854 127.553 194.87 127.577C194.87 127.553 194.965 127.308 195.028 127.182L196.595 124.182C196.634 124.103 196.674 124.024 196.784 124.024H197.217C197.319 124.024 197.375 124.079 197.319 124.182L195.248 128.193V130.901C195.248 131.003 195.209 131.058 195.091 131.058H194.657C194.555 131.058 194.5 131.003 194.5 130.901V128.271L192.413 124.174C192.358 124.071 192.413 124.016 192.515 124.016H193.011C193.114 124.016 193.153 124.079 193.2 124.174L194.72 127.174L194.713 127.182Z" fill="#D33D52"/>
        <path d="M123.919 141.788C123.919 142.68 123.321 143.556 121.383 143.556C119.446 143.556 118.847 142.68 118.847 141.788V138.124C118.847 137.232 119.446 136.356 121.383 136.356C123.321 136.356 123.919 137.232 123.919 138.124V138.598C123.919 138.819 123.848 138.906 123.628 138.906H122.564C122.344 138.906 122.265 138.811 122.265 138.598V138.424C122.265 137.951 121.903 137.753 121.399 137.753C120.895 137.753 120.54 137.951 120.54 138.424V141.488C120.54 141.961 120.895 142.159 121.399 142.159C121.903 142.159 122.265 141.961 122.265 141.488V141.156C122.265 140.943 122.344 140.848 122.564 140.848H123.628C123.848 140.848 123.919 140.943 123.919 141.156V141.788Z" fill="#D33D52"/>
        <path d="M126.604 139.206H128.471V136.743C128.471 136.522 128.55 136.435 128.77 136.435H129.881C130.101 136.435 130.172 136.53 130.172 136.743V143.154C130.172 143.375 130.101 143.462 129.881 143.462H128.77C128.55 143.462 128.471 143.367 128.471 143.154V140.596H126.604V143.154C126.604 143.375 126.534 143.462 126.313 143.462H125.203C124.99 143.462 124.903 143.367 124.903 143.154V136.743C124.903 136.522 124.982 136.435 125.203 136.435H126.313C126.534 136.435 126.604 136.53 126.604 136.743V139.206Z" fill="#D33D52"/>
        <path d="M134.654 136.751L136.52 143.161C136.583 143.359 136.512 143.469 136.292 143.469H135.15C134.929 143.469 134.843 143.359 134.787 143.161L134.52 142.167H132.811L132.543 143.161C132.488 143.359 132.401 143.469 132.181 143.469H131.141C130.921 143.469 130.85 143.359 130.913 143.161L132.779 136.751C132.842 136.546 132.945 136.443 133.157 136.443H134.268C134.488 136.443 134.591 136.546 134.646 136.751H134.654ZM134 140.264C133.835 139.632 133.693 138.196 133.677 138.101C133.653 138.243 133.488 139.664 133.323 140.264L133.165 140.825H134.134L133.992 140.264H134Z" fill="#D33D52"/>
        <path d="M138.954 142.072H140.978C141.198 142.072 141.285 142.143 141.285 142.364V143.169C141.285 143.383 141.19 143.469 140.978 143.469H137.512C137.323 143.469 137.252 143.367 137.252 143.161V136.751C137.252 136.53 137.331 136.443 137.552 136.443H138.662C138.883 136.443 138.954 136.538 138.954 136.751V142.08V142.072Z" fill="#D33D52"/>
        <path d="M143.813 142.072H145.837C146.05 142.072 146.144 142.143 146.144 142.364V143.169C146.144 143.383 146.05 143.469 145.837 143.469H142.372C142.183 143.469 142.112 143.367 142.112 143.161V136.751C142.112 136.53 142.191 136.443 142.411 136.443H143.522C143.742 136.443 143.813 136.538 143.813 136.751V142.08V142.072Z" fill="#D33D52"/>
        <path d="M147.27 143.469C147.057 143.469 146.971 143.375 146.971 143.161V136.751C146.971 136.53 147.049 136.443 147.27 136.443H150.798C151.011 136.443 151.105 136.514 151.105 136.735V137.54C151.105 137.761 151.011 137.84 150.798 137.84H148.672V139.182H150.633C150.845 139.182 150.94 139.253 150.94 139.475V140.232C150.94 140.454 150.845 140.532 150.633 140.532H148.672V142.08H150.901C151.121 142.08 151.208 142.151 151.208 142.372V143.177C151.208 143.39 151.113 143.477 150.901 143.477H147.27V143.469Z" fill="#D33D52"/>
        <path d="M157.469 143.162C157.469 143.383 157.398 143.469 157.178 143.469H156.169C156.012 143.469 155.949 143.43 155.894 143.327L154.24 140.572C154.067 140.296 153.909 139.933 153.799 139.64V143.154C153.799 143.375 153.728 143.462 153.508 143.462H152.499C152.279 143.462 152.2 143.367 152.2 143.154V136.743C152.2 136.522 152.279 136.435 152.499 136.435H153.508C153.641 136.435 153.728 136.475 153.767 136.561L155.508 139.49C155.634 139.704 155.768 140.019 155.87 140.264V136.751C155.87 136.53 155.949 136.443 156.169 136.443H157.178C157.398 136.443 157.469 136.538 157.469 136.751V143.162Z" fill="#D33D52"/>
        <path d="M163.368 139.64C163.58 139.64 163.675 139.711 163.675 139.932V141.78C163.675 142.672 163.076 143.548 161.139 143.548C159.202 143.548 158.603 142.672 158.603 141.78V138.117C158.603 137.224 159.202 136.348 161.139 136.348C163.076 136.348 163.675 137.224 163.675 138.117V138.488C163.675 138.701 163.604 138.796 163.384 138.796H162.32C162.1 138.796 162.021 138.701 162.021 138.488V138.417C162.021 137.943 161.659 137.746 161.155 137.746C160.651 137.746 160.296 137.943 160.296 138.417V141.48C160.296 141.954 160.643 142.151 161.155 142.151C161.667 142.151 162.021 141.954 162.021 141.48V141.038H161.178C160.966 141.038 160.871 140.959 160.871 140.738V139.932C160.871 139.711 160.966 139.64 161.178 139.64H163.368Z" fill="#D33D52"/>
        <path d="M165.061 143.469C164.84 143.469 164.762 143.375 164.762 143.161V136.751C164.762 136.53 164.84 136.443 165.061 136.443H168.589C168.81 136.443 168.896 136.514 168.896 136.735V137.54C168.896 137.761 168.802 137.84 168.589 137.84H166.463V139.182H168.424C168.644 139.182 168.731 139.253 168.731 139.475V140.232C168.731 140.454 168.637 140.532 168.424 140.532H166.463V142.08H168.692C168.904 142.08 168.999 142.151 168.999 142.372V143.177C168.999 143.39 168.904 143.477 168.692 143.477H165.061V143.469Z" fill="#D33D52"/>
        <path d="M111.617 110.792L111.932 110.397C112.83 109.039 113.46 108.029 113.822 107.374C114.193 106.718 114.484 106.024 114.712 105.297C115.043 104.295 115.209 103.252 115.209 102.171C115.209 101.089 115.075 100.237 114.807 99.676C114.539 99.1233 114.043 98.6654 113.318 98.3101C112.397 99.6444 111.94 101.326 111.94 103.371C111.94 104.16 112.066 104.973 112.318 105.802C112.421 106.102 112.476 106.308 112.476 106.418C112.476 106.797 112.271 106.995 111.861 106.995C111.491 106.995 110.995 106.837 110.365 106.529C109.735 106.221 109.255 105.897 108.924 105.573C108.554 105.179 108.254 104.666 108.018 104.034C107.782 103.402 107.664 102.731 107.664 102.021C107.664 101.018 107.869 100.063 108.286 99.1549C108.703 98.247 109.278 97.4575 110.034 96.7864C110.79 96.1153 111.672 95.5943 112.704 95.2153C113.736 94.8364 114.831 94.6548 115.988 94.6548C117.146 94.6548 118.201 94.9074 119.154 95.4127C120.107 95.918 120.863 96.6206 121.43 97.5049C121.997 98.397 122.281 99.3602 122.281 100.402C122.281 101.176 122.131 102.005 121.832 102.889C121.533 103.773 121.068 104.752 120.43 105.842C119.792 106.931 118.973 108.124 117.973 109.426C116.973 110.729 115.807 112.134 114.484 113.634L114.09 114.108L113.752 114.487C114.303 114.653 115.059 114.732 116.02 114.732C116.981 114.732 117.941 114.676 118.91 114.574C119.879 114.471 120.635 114.329 121.194 114.155C121.564 114.053 121.808 113.997 121.926 113.997C122.06 113.997 122.123 114.037 122.123 114.116C122.123 114.605 121.808 115.363 121.186 116.39C120.564 117.416 119.91 118.269 119.225 118.94C118.516 119.611 117.666 120.1 116.673 120.416C115.681 120.724 114.453 120.882 112.996 120.882C111.129 120.882 109.522 120.621 108.184 120.108C106.845 119.595 106.175 118.971 106.175 118.253C106.175 117.755 106.853 116.753 108.207 115.245C109.168 114.155 110.042 113.066 110.83 111.984C110.885 111.905 110.94 111.826 110.995 111.747C111.058 111.668 111.105 111.589 111.153 111.518C111.2 111.447 111.263 111.345 111.342 111.21L111.641 110.792H111.617Z" fill="#D33D52"/>
        <path d="M139.812 95.3339H140.009C140.718 95.3339 141.395 95.6576 142.049 96.305C142.703 96.9524 143.215 97.8129 143.601 98.8945C143.979 99.9762 144.175 101.105 144.175 102.297C144.175 103.489 144.002 104.832 143.664 106.3C143.325 107.768 142.868 109.182 142.293 110.54C141.718 111.898 141.033 113.216 140.222 114.495C139.411 115.774 138.576 116.832 137.71 117.677C135.662 119.761 133.559 120.803 131.417 120.803C129.984 120.803 128.724 120.448 127.629 119.729C126.534 119.011 125.699 117.992 125.109 116.666C124.518 115.34 124.219 113.824 124.219 112.111C124.219 109.158 124.833 106.332 126.062 103.624C127.29 100.916 128.92 98.7288 130.945 97.055C132.969 95.3813 135.056 94.5444 137.198 94.5444C138.237 94.5444 139.111 94.8129 139.82 95.3576L139.812 95.3339ZM138.04 96.2655L138.395 96.0682L138.316 95.9892C137.473 96.005 136.607 96.4313 135.725 97.2682C134.835 98.1051 134.04 99.1788 133.331 100.497C132.622 101.816 132.039 103.3 131.598 104.966C131.149 106.624 130.929 108.195 130.929 109.671C130.929 110.737 131.118 111.834 131.488 112.963C131.866 114.092 132.338 115.032 132.906 115.782C133.48 116.532 134.024 116.911 134.552 116.911C134.961 116.911 135.386 116.634 135.835 116.09C136.284 115.545 136.686 114.771 137.056 113.769C137.434 112.805 137.765 111.795 138.04 110.745C138.316 109.695 138.529 108.653 138.67 107.618C138.812 106.592 138.891 105.653 138.891 104.808C138.891 103.474 138.678 102.21 138.253 101.003C137.828 99.7946 137.269 98.9024 136.583 98.3261C136.45 98.2314 136.387 98.1445 136.387 98.0498C136.387 97.7498 136.938 97.1577 138.04 96.2734V96.2655Z" fill="#D33D52"/>
        <path d="M151.145 110.792L151.46 110.397C152.35 109.039 152.988 108.029 153.35 107.374C153.721 106.718 154.012 106.024 154.24 105.297C154.571 104.295 154.737 103.252 154.737 102.171C154.737 101.089 154.603 100.237 154.335 99.676C154.067 99.1233 153.571 98.6654 152.846 98.3101C151.925 99.6444 151.468 101.326 151.468 103.371C151.468 104.16 151.594 104.973 151.838 105.802C151.941 106.102 151.996 106.308 151.996 106.418C151.996 106.797 151.791 106.995 151.382 106.995C151.011 106.995 150.515 106.837 149.885 106.529C149.255 106.221 148.775 105.897 148.444 105.573C148.074 105.179 147.775 104.666 147.538 104.034C147.302 103.402 147.184 102.731 147.184 102.021C147.184 101.018 147.389 100.063 147.806 99.1549C148.223 98.247 148.798 97.4575 149.547 96.7864C150.295 96.1153 151.185 95.5943 152.216 95.2153C153.248 94.8364 154.343 94.6548 155.5 94.6548C156.658 94.6548 157.714 94.9074 158.666 95.4127C159.619 95.918 160.375 96.6206 160.943 97.5049C161.51 98.397 161.793 99.3602 161.793 100.402C161.793 101.176 161.643 102.005 161.344 102.889C161.045 103.773 160.58 104.752 159.942 105.842C159.304 106.931 158.485 108.124 157.485 109.426C156.485 110.729 155.319 112.134 153.996 113.634L153.602 114.108L153.264 114.487C153.815 114.653 154.571 114.732 155.532 114.732C156.493 114.732 157.454 114.676 158.422 114.574C159.391 114.471 160.147 114.329 160.706 114.155C161.076 114.053 161.321 113.997 161.439 113.997C161.573 113.997 161.636 114.037 161.636 114.116C161.636 114.605 161.321 115.363 160.698 116.39C160.076 117.416 159.423 118.269 158.737 118.94C158.029 119.611 157.178 120.1 156.186 120.416C155.193 120.724 153.965 120.882 152.508 120.882C150.641 120.882 149.035 120.621 147.696 120.108C146.357 119.595 145.688 118.971 145.688 118.253C145.688 117.755 146.365 116.753 147.719 115.245C148.68 114.155 149.554 113.066 150.342 111.984C150.397 111.905 150.452 111.826 150.507 111.747C150.57 111.668 150.618 111.589 150.665 111.518C150.712 111.447 150.775 111.345 150.854 111.21L151.153 110.792H151.145Z" fill="#D33D52"/>
        <path d="M174.811 101.863L173.606 103.268L173.685 103.347C175.449 102.187 176.953 101.61 178.198 101.61C179.143 101.61 179.985 101.839 180.734 102.305C181.474 102.763 182.057 103.395 182.466 104.192C182.884 104.989 183.088 105.905 183.088 106.931C183.088 108.171 182.884 109.45 182.474 110.776C182.065 112.103 181.49 113.382 180.741 114.613C179.993 115.845 179.119 116.942 178.119 117.905C177.229 118.774 176.118 119.461 174.803 119.974C173.488 120.479 172.204 120.732 170.936 120.732C168.503 120.732 166.652 120.211 165.376 119.177C164.1 118.142 163.462 116.634 163.462 114.661C163.462 112.908 164.029 110.745 165.156 108.155C166.282 105.566 168.038 102.463 170.401 98.8234C171.33 97.3312 172.102 96.2654 172.708 95.618C173.008 95.2864 173.291 95.0575 173.559 94.9232C173.827 94.789 174.236 94.6864 174.803 94.6075C175.788 94.4496 176.788 94.3706 177.796 94.3706C179.332 94.3706 180.104 94.789 180.104 95.618C180.104 96.0443 179.615 96.6838 178.647 97.5523C178.079 98.026 177.166 99.0286 175.906 100.56L174.803 101.863H174.811ZM172.598 105.416C172.141 105.416 171.669 105.684 171.18 106.229C170.692 106.766 170.298 107.46 169.991 108.297C169.684 109.134 169.527 109.955 169.527 110.761C169.527 111.842 169.731 112.853 170.149 113.784C170.566 114.724 171.133 115.466 171.866 116.026C172.598 116.587 173.354 116.863 174.142 116.863C174.559 116.863 174.898 116.745 175.15 116.508C175.567 116.019 175.914 115.229 176.181 114.14C176.449 113.05 176.583 111.882 176.583 110.642C176.583 109.553 176.418 108.613 176.103 107.824C175.78 107.042 175.323 106.442 174.74 106.031C174.157 105.621 173.441 105.416 172.598 105.416Z" fill="#D33D52"/>
    </g>
    <defs>
        <clipPath id="clip0_5872_2373">
            <rect width="288" height="162" fill="white"/>
        </clipPath>
    </defs>
</svg>
