<svg width="344" height="253" viewBox="0 0 344 253" fill="none" xmlns="http://www.w3.org/2000/svg">
<path d="M22.196 187.132C21.7326 187.132 5.68476 186.551 0.683594 180.908C0.683594 180.908 5.79877 173.522 19.9859 174.802C34.173 176.082 22.196 187.132 22.196 187.132Z" fill="#252C5E"/>
<path d="M49.6978 180.36L48.1166 168.198H21.2648L17.8633 178.006L43.7884 185.05L49.6978 180.36Z" fill="#FFB5A1"/>
<path d="M173.655 117.919C170.455 107.45 167.9 97.97 157.897 92.7357C147.899 87.501 124.989 80.2317 124.989 80.2317L83.2882 80.8131C83.2882 80.8131 65.5705 84.3041 49.4637 90.2338C33.3573 96.1675 27.834 115.826 27.834 115.826C27.834 115.826 49.4308 158.141 50.74 180.908C50.74 180.908 42.7161 219.467 32.2504 230.636C32.2504 230.636 71.0132 243.897 96.8943 242.848C122.775 241.8 158.706 226.622 158.706 226.622C158.706 226.622 156.614 215.63 155.044 194.864C153.474 174.103 154.694 181.431 154.694 181.431C154.694 181.431 171.787 176.369 194.637 177.94L173.647 117.919H173.655Z" fill="#50B2E5"/>
<path d="M158.712 226.622C158.712 226.622 148.702 199.559 135.453 189.854C122.204 180.15 141.62 172.565 141.62 172.565C141.62 172.565 148.342 164.332 147.364 155.724C147.364 155.724 148.967 167.007 150.876 178.175C152.781 189.343 155.197 196.748 155.197 196.748C155.197 196.748 156.388 213.07 158.712 226.622Z" fill="#C54C3B"/>
<path d="M122.665 60.5149L121.503 78.9521L124.992 80.2324C124.992 80.2324 119.701 93.5522 99.5271 96.5171C79.3529 99.4825 83.6812 80.6992 83.6812 80.6992C83.6812 80.6992 87.6677 76.3953 87.7816 69.7667C87.8956 63.1376 87.8403 58.543 87.8403 58.543L92.3155 51.5649L122.665 60.5222V60.5149Z" fill="#FED068"/>
<path d="M122.315 65.8082C122.315 65.8082 114.891 72.6392 106.278 76.6267C97.6661 80.6146 87.8438 63.9465 87.8438 63.9465L88.4766 53.2605L122.664 60.5147L122.315 65.8082Z" fill="#C54C3B"/>
<path d="M125.625 58.5132L116.899 66.8526C110.294 73.1614 99.7658 72.6873 93.7573 65.8082L86.8881 57.9469C84.7331 55.4824 83.5897 52.2928 83.6852 49.0188L84.4204 23.8941C84.8253 10.0405 96.7177 -0.664272 110.533 0.387807C124.507 1.45092 134.682 14.098 132.733 27.9811L129.516 50.9246C129.111 53.8196 127.739 56.4938 125.625 58.5098V58.5132Z" fill="#FED068"/>
<path d="M108.47 54.1137C108.47 54.1137 102.866 54.2238 101.09 52.4106" stroke="#13142A" stroke-width="0.547953" stroke-linecap="round" stroke-linejoin="round"/>
<path d="M105.032 45.5721C105.032 45.5721 101.465 43.0339 100.77 45.1159L105.032 45.5721Z" fill="#13142A"/>
<path d="M106.281 47.0546L110.035 44.3655L109.719 29.7651L113.706 46.8817L106.281 47.0546Z" fill="#C54C3B"/>
<path d="M107.66 45.8517C107.66 45.8517 111.683 44.1264 111.923 46.3079L107.66 45.8517Z" fill="#13142A"/>
<path d="M91.0273 31.5308C91.0273 31.5308 93.8883 39.5318 102.765 34.2751C102.765 34.2751 98.6501 25.9357 91.0273 31.5308Z" fill="white"/>
<mask id="mask0_1917_196786" style="mask-type:luminance" maskUnits="userSpaceOnUse" x="91" y="29" width="12" height="8">
<path d="M91.0273 31.5309C91.0273 31.5309 93.8883 39.5318 102.765 34.2751C102.765 34.2751 99.0255 25.7481 91.0273 31.5309Z" fill="white"/>
</mask>
<g mask="url(#mask0_1917_196786)">
<path d="M100.383 32.9406C100.63 31.4351 99.6188 30.0152 98.1238 29.7692C96.6288 29.5233 95.2163 30.5443 94.969 32.0499C94.7212 33.5554 95.7327 34.9753 97.2277 35.2213C98.7227 35.4672 100.135 34.4462 100.383 32.9406Z" fill="#13142A"/>
</g>
<path d="M91.0469 31.391C91.0469 31.391 98.2172 25.7075 102.785 34.1352" stroke="#13142A" stroke-width="0.547953" stroke-linecap="round" stroke-linejoin="round"/>
<path d="M126.066 35.2977C126.066 35.2977 121.572 42.5078 114.012 35.4853C114.012 35.4853 118.741 28.1502 126.066 35.2977Z" fill="white"/>
<mask id="mask1_1917_196786" style="mask-type:luminance" maskUnits="userSpaceOnUse" x="114" y="32" width="13" height="7">
<path d="M126.066 35.2978C126.066 35.2978 121.572 42.5078 114.012 35.4854C114.012 35.4854 119.476 27.9479 126.066 35.2978Z" fill="white"/>
</mask>
<g mask="url(#mask1_1917_196786)">
<path d="M122.739 35.0372C122.817 33.5135 121.653 32.2156 120.14 32.1384C118.627 32.0612 117.338 33.2339 117.26 34.7576C117.182 36.2814 118.346 37.5792 119.859 37.6565C121.372 37.7337 122.661 36.561 122.739 35.0372Z" fill="#13142A"/>
</g>
<path d="M126.08 35.1543C126.08 35.1543 120.053 28.1502 114.025 35.3419" stroke="#13142A" stroke-width="0.547953" stroke-linecap="round" stroke-linejoin="round"/>
<path d="M40.4531 152.991C40.4531 152.991 50.4885 165.381 50.7901 176.545" stroke="#13142A" stroke-width="0.547953" stroke-linecap="round" stroke-linejoin="round"/>
<path d="M141.617 136.938C141.617 136.938 146.699 141.999 147.582 154.735" stroke="#13142A" stroke-width="0.547953" stroke-linecap="round" stroke-linejoin="round"/>
<path d="M131.5 189.854C131.5 189.854 117.894 212.489 96.6172 230.286" stroke="#13142A" stroke-width="0.547953" stroke-linecap="round" stroke-linejoin="round"/>
<path d="M91.7344 234.241C91.7344 234.241 66.8386 227.494 48.9375 226.913C48.9375 226.913 85.2288 225.113 123.021 202.108" stroke="#13142A" stroke-width="0.547953" stroke-linecap="round" stroke-linejoin="round"/>
<path d="M92.5466 242.907C75.6126 242.907 42.079 233.078 42.079 233.078C42.079 233.078 39.8689 264.718 36.1474 289.493C32.426 314.269 21.9355 380.068 21.9355 380.068H63.6378C63.6378 380.068 67.5442 364.64 74.4061 340.791C81.2681 316.947 91.3843 285.888 91.3843 285.888L109.704 380.068H145.103C145.103 380.068 152.899 264.136 150.339 248.782C148.074 235.182 149.001 224.407 149.243 222.127C149.273 221.833 149.295 221.678 149.295 221.678C149.295 221.678 114.302 242.907 92.55 242.907H92.5466Z" fill="#252C5E"/>
<path d="M130.82 36.7324C130.82 36.7324 132.115 26.1086 131.114 20.7231C130.114 15.3377 128.809 12.8877 128.809 12.8877L129.243 17.7287C129.243 17.7287 104.137 12.5051 91.9841 13.0496L93.9111 8.48073C93.9111 8.48073 90.6234 11.9092 88.6673 17.6221C86.7107 23.335 84.9752 32.9913 84.9752 32.9913L82.8828 30.2618L84.6183 20.4767C86.9056 7.59418 98.798 -1.30069 111.798 0.15604C124.874 1.62013 134.531 13.0459 133.799 26.1896L133.265 35.8091L130.813 36.7361L130.82 36.7324Z" fill="#234D9A"/>
<path d="M127.018 31.1333C127.018 31.1333 125.308 26.8993 121.568 25.9759C117.828 25.0526 115.008 28.8452 115.008 28.8452C115.556 29.2131 116.309 29.3897 116.986 29.2977C118.494 29.0917 121.77 29.066 127.018 31.1296V31.1333Z" fill="#13142A"/>
<path d="M90.3965 27.6094C90.3965 27.6094 92.1063 23.3753 95.8464 22.452C99.586 21.5287 102.407 25.3213 102.407 25.3213C101.859 25.6891 101.105 25.8657 100.428 25.7738C98.9202 25.5678 95.6437 25.542 90.3965 27.6057V27.6094Z" fill="#13142A"/>
<path d="M138.215 44.523C139.67 40.1639 138.634 35.8907 135.902 34.9785C133.171 34.0663 129.778 36.8606 128.323 41.2197C126.868 45.5788 127.903 49.852 130.635 50.7644C133.367 51.6763 136.76 48.8823 138.215 44.523Z" fill="#FED068"/>
<path d="M130.82 45.8113C130.82 45.8113 131.475 42.0444 135.104 39.0537" stroke="#13142A" stroke-width="0.492833" stroke-linecap="round" stroke-linejoin="round"/>
<path d="M131.115 44.7518C131.115 44.7518 132.877 43.8211 134.337 45.7377" stroke="#13142A" stroke-width="0.492833" stroke-linecap="round" stroke-linejoin="round"/>
<path d="M82.889 45.501C85.7179 44.9612 87.3133 40.8641 86.4521 36.35C85.5914 31.8358 82.6005 28.614 79.7715 29.1538C76.9425 29.6936 75.3472 33.7906 76.2079 38.3048C77.0691 42.819 80.06 46.0408 82.889 45.501Z" fill="#FED068"/>
<path d="M83.362 40.5802C83.362 40.5802 83.2146 36.7618 80.0156 33.3113" stroke="#13142A" stroke-width="0.492833" stroke-linecap="round" stroke-linejoin="round"/>
<path d="M83.2108 39.4914C83.2108 39.4914 81.5892 38.3327 79.8867 40.0359" stroke="#13142A" stroke-width="0.492833" stroke-linecap="round" stroke-linejoin="round"/>
<path d="M194.643 177.943C194.643 177.943 195.107 181.898 185.226 183.641C175.341 185.385 160.459 179.691 160.459 179.691C160.459 179.691 183.6 173.286 194.647 177.94L194.643 177.943Z" fill="#252C5E"/>
<path d="M157.896 92.7358C157.896 92.7358 155.454 113.262 152.773 123.754C150.093 134.241 145.606 145.572 148.239 161.871C150.872 178.175 151.464 183.141 151.464 183.141C151.464 183.141 179.044 176.987 194.639 177.943C194.639 177.943 172.396 114.675 170.347 107.855C168.299 101.034 163.485 94.2331 157.896 92.7358Z" fill="#234D9A"/>
<path d="M187.312 177.649C187.312 177.649 193.129 195.74 190.224 202.252C187.316 208.766 135.804 191.083 125.106 185.385C114.409 179.687 98.1883 175.409 92.4295 170.961C86.6746 166.51 90.4253 163.895 90.4253 163.895C90.4253 163.895 87.7225 161.191 87.8107 158.66C87.899 156.129 91.7346 157.178 91.7346 157.178C91.7346 157.178 88.0721 153.252 89.4657 151.593C90.8593 149.934 101.674 154.819 101.674 154.819L114.059 157.299C114.059 157.299 114.295 153.422 109.573 150.019C107.536 148.551 106.977 145.435 107.463 144.115C107.683 143.519 108.374 143.25 108.933 143.552C111.467 144.92 118.211 148.786 120.601 152.369C123.566 156.82 126.794 165.719 128.886 167.551C130.979 169.383 139.264 172.959 149.991 173.834C160.717 174.706 176.765 178.547 176.765 178.547L187.312 177.642V177.649Z" fill="#FED068"/>
<path d="M102.634 161.569C102.634 161.569 97.401 160.23 91.7344 157.177" stroke="#13142A" stroke-width="0.547953" stroke-linecap="round" stroke-linejoin="round"/>
<path d="M101.763 169.567C101.763 169.567 92.4377 166.723 90.4258 163.895" stroke="#13142A" stroke-width="0.547953" stroke-linecap="round" stroke-linejoin="round"/>
<path d="M131.939 176.545C131.939 176.545 130.662 171.738 127.75 166.102" stroke="#13142A" stroke-width="0.547953" stroke-linecap="round" stroke-linejoin="round"/>
<path d="M41.9875 94.4092C41.9875 94.4092 47.5844 107.799 48.136 139.049C48.136 139.049 49.1215 153.661 49.8715 162.589C50.6217 171.517 50.7909 179.937 50.7909 179.937C50.7909 179.937 16.2132 174.651 0.6875 180.908C0.6875 180.908 24.3253 122.852 27.8041 113.711C31.2865 104.57 37.1334 96.5432 41.9875 94.4092Z" fill="#234D9A"/>
<path d="M47.0801 119.14C47.0801 119.14 48.6503 152.292 49.8714 162.585C51.0919 172.877 50.7427 180.904 50.7427 180.904" stroke="#13142A" stroke-width="0.547953" stroke-linecap="round" stroke-linejoin="round"/>
<path d="M155.573 108.498C155.573 108.498 151.796 129.595 148.77 139.306C145.122 151.012 150.167 174.801 150.167 174.801" stroke="#13142A" stroke-width="0.547953" stroke-linecap="round" stroke-linejoin="round"/>
<path d="M42.664 179.639C42.664 179.639 63.0401 180.636 71.5862 179.639C80.1322 178.642 90.4249 169.07 90.4249 169.07C90.4249 169.07 91.9917 171.038 94.6393 172.396L92.8669 174.975C92.8669 174.975 103.244 173.834 108.477 173.36C113.71 172.882 122.517 171.049 120.425 173.93C118.332 176.81 111.731 179.547 111.503 179.463C111.276 179.378 119.903 179.426 123.392 179.514C126.882 179.602 127.842 182.656 125.135 183.965C122.432 185.274 120.252 185.359 120.252 185.359C120.252 185.359 123.914 185.448 119.903 187.541C115.89 189.634 112.665 194.258 105.336 196.09C98.0113 197.922 78.5621 195.218 78.5621 195.218C78.5621 195.218 60.9438 201.236 48.5624 201.847C36.1809 202.458 26.0609 202.63 21.2656 195.041C16.4704 187.453 17.8641 178.006 17.8641 178.006C17.8641 178.006 21.1553 177.321 42.664 179.639Z" fill="#FED068"/>
<path d="M92.8672 174.974C92.8672 174.974 103.244 173.834 108.477 173.36C113.71 172.882 120.322 172.454 121.664 173.783C124.455 176.545 111.728 179.547 111.5 179.459C111.272 179.37 119.899 179.422 123.389 179.51C126.878 179.598 127.838 182.652 125.132 183.961C122.429 185.271 120.248 185.355 120.248 185.355" stroke="#13142A" stroke-width="0.547953" stroke-linecap="round" stroke-linejoin="round"/>
<path d="M102.707 180.36C102.707 180.36 105.329 180.113 111.503 179.462" stroke="#13142A" stroke-width="0.547953" stroke-linecap="round" stroke-linejoin="round"/>
<path d="M120.694 185.396C120.694 185.396 110.361 186.58 103.01 187.714" stroke="#13142A" stroke-width="0.547953" stroke-linecap="round" stroke-linejoin="round"/>
<path d="M116.508 189.854C116.508 189.854 106.645 193.643 102.633 193.643" stroke="#13142A" stroke-width="0.547953" stroke-linecap="round" stroke-linejoin="round"/>
<path d="M82.8379 185.591C82.8379 185.591 83.7864 190.855 79.2637 193.647" stroke="#13142A" stroke-width="0.547953" stroke-linecap="round" stroke-linejoin="round"/>
<path d="M116.152 158.141L112.662 157.177" stroke="#13142A" stroke-width="0.547953" stroke-linecap="round" stroke-linejoin="round"/>
<path d="M98.6074 174.356C98.6074 174.356 90.2418 171.119 89.4805 167.529" stroke="#13142A" stroke-width="0.547953" stroke-linecap="round" stroke-linejoin="round"/>
<path d="M186.676 113.707L184.17 114.548C173.79 118.028 166.798 128.342 166.978 139.909C167.263 158.356 162.875 187.091 162.766 199.796C162.593 220.274 158.466 222.287 158.638 243.132C158.811 263.977 155.369 291.04 155.369 291.04C155.369 291.04 161.837 299.027 177.042 294.149L201.979 160.848L186.676 113.707Z" fill="#C54C3B"/>
<path d="M180.088 311.256L193.379 428.546H223.647L230.182 299.449L244.285 428.546C244.285 428.546 282.295 425.986 282.295 424.887C282.295 423.787 278.854 256.843 278.854 256.843L268.093 226.488H194.406C181.77 252.586 176.784 282.11 180.085 311.253L180.088 311.256Z" fill="#234C9A"/>
<path d="M200.036 47.1052C200.036 47.1052 189.828 53.2703 191.591 60.5653C193.354 67.8608 201.057 74.7777 201.057 74.7777" stroke="#234C9A" stroke-width="0.87867" stroke-miterlimit="10"/>
<path d="M197.641 69.9854C193.9 76.532 193.742 84.6015 204.097 88.9525C210.685 91.7208 202.637 99.5506 202.637 99.5506" stroke="#234C9A" stroke-width="0.87867" stroke-miterlimit="10"/>
<path d="M227.079 21.0637C240.718 21.4453 241.826 30.7081 259.156 37.1128C259.156 37.1128 268.548 49.4245 272.513 66.3527C272.513 66.3527 281.736 65.7839 282.627 77.0445C283.527 88.4585 298.567 90.6585 287.503 103.142C287.503 103.142 287.947 103.105 289.668 105.877C297.595 118.649 289.745 129.67 291.051 130.923C292.465 132.281 281.43 121.795 282.771 123.49C285.027 126.348 289.685 128.776 290.642 132.363C293.834 144.346 291.923 149.909 291.709 140.743C291.709 140.743 294.801 151.256 288.957 150.193C284.411 149.366 286.061 142.763 280.276 139.846C280.276 139.846 281.631 152.808 292.69 147.915C292.69 147.915 294.826 150.923 273.861 143.908C257.516 138.443 222.969 142.012 209.207 126.187C206.332 122.88 200.477 122.345 198.658 97.0032C198.45 94.0927 199.548 90.4265 199.527 89.3491C199.481 87.2539 196.089 83.9658 196.194 81.8444C196.293 79.8541 197.475 75.9637 197.306 74.1491C197.19 72.8848 195.396 70.8197 194.924 69.4428C194.108 67.056 196.522 64.5759 195.564 62.8851C192.926 58.2162 193.228 53.7269 195.515 51.0183C196.74 49.5667 198.538 47.8346 199.703 45.822C201.005 43.5661 200.537 37.4195 202.374 35.2946C203.968 33.4503 207.511 34.5801 209.39 32.9715C210.671 31.8753 210.16 27.2514 211.536 26.3161C214.179 24.5204 216.505 26.0094 219.306 25.0255C221.66 24.1987 224.186 20.9851 227.086 21.0675L227.079 21.0637Z" fill="#234C9A"/>
<path d="M204.048 46.8545C204.048 46.8545 200.001 47.2548 200.518 50.9135C201.036 54.5758 200.518 58.7662 200.518 58.7662" stroke="#234C9A" stroke-width="0.87867" stroke-miterlimit="10"/>
<path d="M227.662 62.1438C227.662 62.1438 242.219 53.7753 236.434 68.8404C233.166 77.3589 240.573 75.6379 242.902 79.1954C244.176 81.1483 243.367 83.7973 244.655 85.544C245.957 87.3062 250.013 88.5593 251.608 89.9323C253.599 91.6421 254.085 95.6451 257.481 95.6859C262.505 95.7422 267.323 101.32 262.045 106.079C262.045 106.079 267.945 108.069 269.589 103.494C271.351 98.5852 268.262 95.1438 266.028 91.9076C266.028 91.9076 271.095 95.7048 272.126 97.3734C275.103 102.196 271.211 109.004 275.296 112.24C277.122 113.688 269.547 123.16 272.861 125.708C276.127 128.215 274.934 133.852 270.813 133.549C270.813 133.549 275.032 136.55 277.992 134.765C281.63 132.573 280.194 127.837 280.194 127.837C280.659 129.789 285.363 132.528 286.806 136.965C289.283 144.581 295.54 154.765 291.701 140.736C291.701 140.736 297.905 150.687 289.273 152.281C285.849 152.913 291.381 148.981 287.665 146.628C286.292 145.76 282.45 141.544 280.955 140.623C278.139 138.887 274.501 140.148 271.763 137.653C257.643 124.792 229.425 102.401 229.425 102.401L232.079 104.406C232.079 104.406 210.515 134.616 207.992 120.482C207.992 120.482 199.582 123.123 202.883 108.922C203.646 105.637 209.72 104.174 208.157 100.374C207.338 98.3795 204.498 96.0863 205.906 93.2505C208.333 88.3686 208.056 86.7898 207.222 86.9694C204.804 87.4858 205.262 89.8877 205.262 89.8877C201.732 86.023 204.938 84.9868 206.529 81.919C209.91 75.3836 203.727 61.6464 203.727 61.6464L227.655 62.1399L227.662 62.1438Z" fill="#252D5E"/>
<path d="M242.466 110.194L222.57 110.822L220.48 76.2811L240.073 75.6565L242.466 110.194Z" fill="#89402D"/>
<path d="M220.713 82.705L233.307 82.0464L221.829 98.5709L220.713 82.705Z" fill="#C54C3B"/>
<path d="M240.486 73.3784C240.486 73.3784 241.545 81.1373 232.121 86.0232C227.687 88.3202 222.589 90.0708 218.43 91.2832C213.489 92.7197 208.246 90.3552 205.822 85.5553C204.52 82.9777 203.13 79.925 201.955 76.6442C198.647 67.419 201.986 61.6276 204.055 54.1982C206.121 46.7646 209.633 39.9484 219.014 37.7337C234.511 34.075 240.999 45.0363 240.514 56.0424C240.028 67.0487 239.627 63.1651 240.486 73.3784Z" fill="#89402D"/>
<path d="M235.668 57.3591L244.767 60.1687" stroke="#252D5E" stroke-width="0.528499" stroke-linecap="round" stroke-linejoin="round"/>
<path d="M263.984 60.322C263.758 60.6588 254.528 65.1967 271.007 66.3789C293.795 68.0135 282.046 83.1572 284.291 85.9595" stroke="#234C9A" stroke-width="0.87867" stroke-miterlimit="10"/>
<path d="M246.291 72.1636C243.198 69.1992 243.349 63.6596 246.629 59.7906C249.909 55.9215 255.076 55.1882 258.17 58.1526C261.263 61.117 261.112 66.6565 257.832 70.5256C254.551 74.3946 249.384 75.128 246.291 72.1636Z" fill="#89402D"/>
<path d="M248.924 68.3281C248.924 68.3281 249.459 64.2052 254.536 60.9807" stroke="#13142A" stroke-width="0.489591" stroke-linecap="round" stroke-linejoin="round"/>
<path d="M249.24 67.1681C249.24 67.1681 251.763 66.1771 254.174 68.3018" stroke="#13142A" stroke-width="0.489591" stroke-linecap="round" stroke-linejoin="round"/>
<path d="M220.639 36.2147C221.163 37.7373 221.863 38.5305 223.985 40.3523C225.955 42.047 229.509 41.845 231.829 43.4724C233.883 44.9164 233.88 48.3245 235.548 50.0379C236.99 51.5191 239.869 53.128 240.791 56.4239C240.791 56.4239 254.039 64.3401 260.218 61.9008C269.965 58.0512 268.005 48.7023 258.346 38.7773C247.913 28.0592 245.481 21.9314 232.345 22.949C224.467 23.5625 218.999 31.4374 220.642 36.2147H220.639Z" fill="#234C9A"/>
<path d="M238.353 40.1016C237.856 41.6354 237.934 42.7203 238.5 45.556C239.028 48.1897 241.906 50.4159 242.744 53.2327C243.486 55.7317 241.46 58.3728 241.741 60.8233C241.984 62.9407 243.265 66.1206 242.026 69.2927C242.026 69.2927 247.625 84.3171 253.863 86.5578C263.712 90.1007 267.731 81.5259 266.112 67.3475C264.363 52.0354 266.105 45.6458 255.303 37.64C248.821 32.8365 239.908 35.2906 238.353 40.1016Z" fill="#234C9A"/>
<path d="M272.069 67.9873C272.069 67.9873 274.381 46.9141 266.485 37.5577C264.659 35.3954 258.842 35.257 256.252 33.566C254.626 32.5073 252.192 27.1501 249.232 26.2149C241.562 23.7869 232.434 28.4969 232.434 28.4969L257.822 39.1888L272.073 67.9873H272.069Z" fill="#234C9A"/>
<path d="M249.131 42.3763C249.159 26.7126 233.859 11.9803 218.834 26.0242" stroke="#234C9A" stroke-width="0.87867" stroke-miterlimit="10"/>
<path d="M246.641 28.957C269.717 25.9754 271.628 50.4532 268.858 60.4267" stroke="#234C9A" stroke-width="0.87867" stroke-miterlimit="10"/>
<path d="M232.392 58.7996C232.392 58.7996 230.805 67.1385 221.818 63.2064C221.818 63.2064 224.017 53.293 232.392 58.7996Z" fill="white"/>
<mask id="mask2_1917_196786" style="mask-type:luminance" maskUnits="userSpaceOnUse" x="221" y="57" width="12" height="8">
<path d="M232.392 58.7996C232.392 58.7996 230.805 67.1385 221.818 63.2064C221.818 63.2064 224.017 53.293 232.392 58.7996Z" fill="white"/>
</mask>
<g mask="url(#mask2_1917_196786)">
<path d="M226.423 63.6859C224.86 63.3335 223.913 61.4407 224.308 59.4582C224.704 57.4751 226.291 56.1531 227.854 56.505C229.417 56.8568 230.363 58.7496 229.968 60.7327C229.573 62.7157 227.986 64.0377 226.423 63.6859Z" fill="#13142A"/>
</g>
<path d="M223.346 55.3914L229.816 54.4299" stroke="#13142A" stroke-width="0.528499" stroke-linecap="round" stroke-linejoin="round"/>
<path d="M232.392 58.7994C232.392 58.7994 224.306 53.5355 221.818 63.2062" stroke="#13142A" stroke-width="0.528499" stroke-linecap="round" stroke-linejoin="round"/>
<path d="M209.999 54.5572L205.08 53.6482" stroke="#13142A" stroke-width="0.528499" stroke-linecap="round" stroke-linejoin="round"/>
<mask id="mask3_1917_196786" style="mask-type:luminance" maskUnits="userSpaceOnUse" x="200" y="37" width="41" height="55">
<path d="M240.486 73.3784C240.486 73.3784 241.545 81.1373 232.121 86.0232C227.687 88.3202 222.589 90.0708 218.43 91.2832C213.489 92.7197 208.246 90.3552 205.822 85.5553C204.52 82.9777 203.13 79.925 201.955 76.6442C198.647 67.419 201.986 61.6276 204.055 54.1982C206.121 46.7646 209.633 39.9484 219.014 37.7337C234.511 34.075 240.999 45.0363 240.514 56.0424C240.028 67.0487 239.627 63.1651 240.486 73.3784Z" fill="white"/>
</mask>
<g mask="url(#mask3_1917_196786)">
<path d="M202.271 58.0026C202.271 58.0026 203.039 65.8999 211.719 63.1126C211.719 63.1126 210.519 53.6929 202.271 58.0026Z" fill="white"/>
<mask id="mask4_1917_196786" style="mask-type:luminance" maskUnits="userSpaceOnUse" x="202" y="56" width="10" height="8">
<path d="M202.271 58.0026C202.271 58.0026 203.039 65.8999 211.719 63.1126C211.719 63.1126 210.519 53.6929 202.271 58.0026Z" fill="white"/>
</mask>
<g mask="url(#mask4_1917_196786)">
<path d="M206.424 63.3058C205.051 62.6821 204.506 60.7661 205.205 59.0257C205.905 57.2853 207.584 56.3801 208.957 57.0038C210.329 57.6274 210.875 59.5435 210.175 61.2839C209.476 63.0243 207.796 63.9294 206.424 63.3058Z" fill="#13142A"/>
</g>
<path d="M202.271 58.0025C202.271 58.0025 209.84 53.7263 211.719 63.1125" stroke="#13142A" stroke-width="0.528499" stroke-linecap="round" stroke-linejoin="round"/>
</g>
<path d="M217.515 77.5721C217.515 77.5721 215.168 79.181 212.166 77.1868" stroke="#13142A" stroke-width="0.528499" stroke-linecap="round" stroke-linejoin="round"/>
<path d="M216.775 56.02L211.219 70.7444L216.099 73.4904L216.775 56.02Z" fill="#C54C3B"/>
<path d="M233.342 65.4773C235.872 61.5194 236.865 56.768 233.595 54.0075C230.327 51.2465 221.424 52.2491 220.055 59.0539C218.686 65.8587 226.913 75.5372 233.346 65.4734L233.342 65.4773Z" stroke="#252D5E" stroke-width="0.528499" stroke-linecap="round" stroke-linejoin="round"/>
<path d="M212.012 64.6504C214.542 60.6925 215.535 55.9416 212.265 53.1806C208.996 50.4195 200.094 51.4222 198.725 58.227C197.356 65.0323 205.583 74.7103 212.016 64.647L212.012 64.6504Z" stroke="#252D5E" stroke-width="0.528499" stroke-linecap="round" stroke-linejoin="round"/>
<path d="M220.084 62.4991L217.628 61.9381C217.628 61.9381 215.802 58.6461 213.469 61.8522" stroke="#252D5E" stroke-width="0.50256" stroke-linecap="round" stroke-linejoin="round"/>
<path d="M215.853 103.797L230.706 99.229L236.491 101.515L250.717 106.083L253.589 139.741L194.248 130.773L204.238 114.384L215.853 103.797Z" fill="#89402D"/>
<path d="M207.443 226.492H264.621L249.493 110.823C249.493 110.823 245.929 125.876 233.891 129.535C221.853 133.194 204.351 129.214 207.447 112.024L196.785 133.965L207.447 226.488L207.443 226.492Z" fill="white"/>
<path d="M215.854 103.797L183.421 114.852C183.421 114.852 174.864 192.935 167.925 235.815C161.946 272.769 162.822 267.973 162.822 267.973C162.822 267.973 175.339 283.311 202.859 279.835C202.859 279.835 212.529 253.917 215.854 215.52C219.18 177.121 208.229 127.751 215.854 103.797Z" fill="#C54C3B"/>
<path d="M249.621 105.81C249.621 105.81 247.214 171.82 257.531 204.367C267.851 236.914 274.731 257.76 277.827 281.897C277.827 281.897 297.262 276.775 302.592 266.536C302.592 266.536 284.277 227.651 281.87 164.02L283.848 114.403L249.621 105.81Z" fill="#C54C3B"/>
<path d="M179.976 162.311C177.446 209.627 162.822 267.972 162.822 267.972C162.822 267.972 173.206 281.754 202.859 279.835" stroke="#13142A" stroke-width="0.505802" stroke-linecap="round" stroke-linejoin="round"/>
<path d="M278.879 243.742C275.025 237.636 273.783 231.343 276.106 229.686C278.428 228.03 283.435 231.637 287.288 237.743C291.142 243.849 292.383 250.142 290.061 251.799C287.739 253.456 282.732 249.848 278.879 243.742Z" fill="#234C9A"/>
<path d="M276.44 229.72C276.44 229.72 272.523 224.37 269.466 220.993C266.408 217.614 265.714 214.378 261.485 215.074C258.258 215.605 248.8 218.123 244.489 219.287C243.015 219.683 242.962 221.913 244.419 222.366C244.858 222.504 245.393 222.571 246.034 222.53C249.454 222.317 253.8 221.464 253.8 221.464L243.775 226.327C240.794 227.561 239.707 229.743 241.495 231.086C241.495 231.086 240.446 232.002 240.935 233.139C241.657 234.812 244.848 233.858 244.844 233.768C244.844 233.768 243.683 236.189 247.674 236.241C250.77 236.278 261.693 236.514 261.693 236.514C261.693 236.514 273.012 244.134 278.657 243.906C290.349 243.431 299.981 231.591 299.981 231.591L290.557 221.468L276.44 229.72Z" fill="#89402D"/>
<path d="M241.494 231.085L254.208 225.829C257.878 224.318 262.051 225.1 262.051 225.1" stroke="#13142A" stroke-width="0.505802" stroke-linecap="round" stroke-linejoin="round"/>
<path d="M260.103 219.953C260.103 219.953 257.425 219.399 253.801 221.467" stroke="#13142A" stroke-width="0.505802" stroke-linecap="round" stroke-linejoin="round"/>
<path d="M244.616 234.288C244.616 234.288 244.381 233.413 247.097 232.792C249.145 232.324 258.094 230.21 261.894 230.521" stroke="#13142A" stroke-width="0.505802" stroke-linecap="round" stroke-linejoin="round"/>
<path d="M283.393 114.755C290.719 116.816 297.035 121.754 301.071 128.574L340.155 189.242C347.428 201.401 343.367 213.151 336.372 218.815L290.033 251.834C292.355 250.176 291.113 243.884 287.256 237.779C283.403 231.673 278.396 228.063 276.074 229.72L308.432 197.054L275.669 163.291L268.09 110.452L283.386 114.758L283.393 114.755Z" fill="#C54C3B"/>
<path d="M226.578 229.186L227.103 257.673" stroke="#13142A" stroke-width="0.505802" stroke-linecap="round" stroke-linejoin="round"/>
<path d="M223.028 229.948C223.028 229.948 222.3 243.379 223.837 247.741C225.375 252.103 227.103 253.873 227.103 253.873" stroke="#13142A" stroke-width="0.505802" stroke-linecap="round" stroke-linejoin="round"/>
<path d="M281.954 169.755L272.387 161.996L284.22 193.548L281.954 169.755Z" fill="#234C9A"/>
<path d="M239.743 53.6482C239.743 53.6482 241.221 56.7606 239.12 66.936C237.02 77.1119 234.982 78.7203 243.054 85.9556C251.126 93.1909 243.937 91.1932 244.768 102.012C245.598 112.831 246.615 120.717 256.07 118.166C256.07 118.166 251.563 118.477 250.106 113.295C248.653 108.114 258.231 106.266 254.533 98.5702C254.533 98.5702 261.714 91.9824 252.928 85.8619C244.142 79.7419 251.514 72.6265 246.665 68.9938C246.665 68.9938 255.24 53.6404 239.74 53.6516L239.743 53.6482Z" fill="#234C9A"/>
<path d="M308.441 197.054L277.285 228.504" stroke="#13142A" stroke-width="0.505802" stroke-linecap="round" stroke-linejoin="round"/>
</svg>
