<svg width="282" height="168" viewBox="0 0 282 168" fill="none" xmlns="http://www.w3.org/2000/svg">
<rect width="282" height="168" fill="#161616" fill-opacity="0.4"/>
<path fill-rule="evenodd" clip-rule="evenodd" d="M141.004 109.001C127.196 109.001 116.004 97.8085 116.004 84.001C116.004 70.1935 127.196 59.001 141.004 59.001C154.811 59.001 166.004 70.1935 166.004 84.001C166.004 97.8085 154.811 109.001 141.004 109.001ZM141.004 104.001C152.05 104.001 161.004 95.0467 161.004 84.001C161.004 72.9553 152.05 64.001 141.004 64.001C129.958 64.001 121.004 72.9553 121.004 84.001C121.004 95.0467 129.958 104.001 141.004 104.001ZM137.559 75.0385L149.756 83.1685C150.035 83.3539 150.202 83.6663 150.202 84.001C150.202 84.3356 150.035 84.6481 149.756 84.8335L137.556 92.9635C137.25 93.1666 136.857 93.1852 136.532 93.0119C136.208 92.8385 136.005 92.5012 136.004 92.1335V75.8685C136.005 75.5 136.208 75.1617 136.533 74.9881C136.858 74.8146 137.252 74.8339 137.559 75.0385Z" fill="white" fill-opacity="0.8"/>
</svg>
