<svg width="160" height="160" viewBox="0 0 160 160" fill="none" xmlns="http://www.w3.org/2000/svg">
<g clip-path="url(#clip0_877_27479)">
<g clip-path="url(#clip1_877_27479)">
<mask id="mask0_877_27479" style="mask-type:luminance" maskUnits="userSpaceOnUse" x="-22" y="-22" width="204" height="204">
<path d="M181.428 -21.4287H-21.4287V181.428H181.428V-21.4287Z" fill="white"/>
</mask>
<g mask="url(#mask0_877_27479)">
<path d="M14.4927 88.1714C11.1642 88.1714 8.45703 90.8714 8.45703 94.2071C8.45703 97.5428 11.157 100.243 14.4927 100.243C17.8285 100.243 20.5285 97.5428 20.5285 94.2071C20.5285 90.8714 17.8285 88.1714 14.4927 88.1714Z" fill="#E83B47"/>
</g>
<mask id="mask1_877_27479" style="mask-type:luminance" maskUnits="userSpaceOnUse" x="8" y="59" width="41" height="42">
<path d="M36.8713 65.943V67.9287C36.8713 71.2573 34.1713 73.9645 30.8356 73.9645H26.557C23.2285 73.9645 20.5213 71.2645 20.5213 67.9287V65.8073C20.5213 62.4645 17.8142 59.7573 14.4713 59.7573C11.1285 59.7573 8.45703 62.4502 8.45703 65.7716C8.45703 69.093 11.1642 71.8216 14.507 71.8216H16.6285C19.957 71.8216 22.6642 74.5216 22.6642 77.8573V80.0787C22.6642 83.3645 25.3285 86.0287 28.6142 86.0287H30.8356C34.1642 86.0287 36.8713 88.7287 36.8713 92.0645V94.2645C36.8713 97.5645 39.5427 100.236 42.8427 100.236C46.1427 100.236 48.9356 97.5073 48.9356 94.143C48.9356 90.843 46.2642 88.1716 42.9642 88.1716H40.757C37.4285 88.1716 34.7213 85.4716 34.7213 82.1359V77.8573C34.7213 74.5287 37.4213 71.8216 40.757 71.8216H42.7427C46.157 71.8216 48.9285 69.0502 48.9285 65.6359C48.9285 62.2216 46.2927 59.7573 43.0499 59.7573C39.6356 59.7573 36.8642 62.5287 36.8642 65.943" fill="white"/>
</mask>
<g mask="url(#mask1_877_27479)">
<path d="M28.6985 39.5266L-11.7783 80.0034L28.6985 120.48L69.1753 80.0034L28.6985 39.5266Z" fill="url(#paint0_linear_877_27479)"/>
</g>
<mask id="mask2_877_27479" style="mask-type:luminance" maskUnits="userSpaceOnUse" x="-22" y="-22" width="204" height="204">
<path d="M181.428 -21.4287H-21.4287V181.428H181.428V-21.4287Z" fill="white"/>
</mask>
<g mask="url(#mask2_877_27479)">
<path d="M70.5142 71.0783C70.3856 72.8711 69.7213 74.2783 68.5356 75.3068C67.3427 76.3354 65.7713 76.8497 63.8213 76.8497C61.6856 76.8497 60.0142 76.1354 58.7927 74.6997C57.5713 73.264 56.957 71.2926 56.957 68.7854V67.7711C56.957 66.1711 57.2356 64.764 57.7999 63.5425C58.3642 62.3211 59.1713 61.3925 60.2142 60.7354C61.2642 60.0854 62.4785 59.7568 63.8642 59.7568C65.7856 59.7568 67.3285 60.2711 68.4999 61.2997C69.6713 62.3283 70.3499 63.7711 70.5356 65.6283H67.107C67.0213 64.5568 66.7213 63.7783 66.207 63.2925C65.6927 62.8068 64.9142 62.564 63.857 62.564C62.7142 62.564 61.857 62.9711 61.2927 63.7925C60.7285 64.614 60.4356 65.8783 60.4213 67.5997V68.8568C60.4213 70.6568 60.6927 71.964 61.2356 72.7997C61.7785 73.6283 62.6356 74.0426 63.8142 74.0426C64.8713 74.0426 65.6642 73.7997 66.1856 73.314C66.707 72.8283 67.007 72.0854 67.0856 71.0711H70.5142V71.0783Z" fill="black"/>
<path d="M82.1503 73.1927H76.1431L75.0003 76.6212H71.3574L77.5503 59.9927H80.7288L86.9503 76.6212H83.3074L82.1503 73.1927ZM77.0646 70.4141H81.2217L79.1288 64.1927L77.0646 70.4141Z" fill="black"/>
<path d="M92.9786 59.9854L97.25 72.0496L101.5 59.9854H106V76.6211H102.564V72.0711L102.907 64.2282L98.4143 76.6211H96.0643L91.5857 64.2353L91.9286 72.0711V76.6211H88.5V59.9854H92.9786Z" fill="black"/>
<path d="M112.422 70.7568V76.6139H108.993V59.9854H115.479C116.729 59.9854 117.829 60.2139 118.772 60.6711C119.722 61.1282 120.45 61.7782 120.957 62.6211C121.465 63.4639 121.722 64.4211 121.722 65.4925C121.722 67.1211 121.165 68.4068 120.05 69.3496C118.936 70.2925 117.393 70.7568 115.422 70.7568H112.415H112.422ZM112.422 67.9782H115.486C116.393 67.9782 117.086 67.7639 117.557 67.3353C118.036 66.9068 118.272 66.2996 118.272 65.5068C118.272 64.7139 118.029 64.0354 117.55 63.5282C117.072 63.0282 116.407 62.7639 115.565 62.7496H112.422V67.9711V67.9782Z" fill="black"/>
<path d="M136.671 59.9852V70.9352C136.671 72.7566 136.099 74.1923 134.964 75.2495C133.828 76.3066 132.271 76.8352 130.299 76.8352C128.328 76.8352 126.814 76.3209 125.671 75.2923C124.528 74.2637 123.949 72.8495 123.921 71.0566V59.978H127.349V70.9566C127.349 72.0423 127.607 72.8423 128.135 73.3352C128.657 73.8352 129.378 74.0852 130.299 74.0852C132.228 74.0852 133.207 73.0709 133.235 71.0495V59.9852H136.671Z" fill="black"/>
<path d="M148.1 72.2568C148.1 71.6068 147.872 71.114 147.415 70.764C146.958 70.414 146.136 70.0497 144.95 69.664C143.765 69.2783 142.822 68.8997 142.129 68.5283C140.243 67.5068 139.293 66.1354 139.293 64.4068C139.293 63.5068 139.543 62.7068 140.05 61.9997C140.558 61.2925 141.286 60.7425 142.229 60.3497C143.179 59.9568 144.243 59.7568 145.422 59.7568C146.6 59.7568 147.665 59.9711 148.6 60.3997C149.529 60.8283 150.25 61.4354 150.765 62.2211C151.279 63.0068 151.536 63.8997 151.536 64.8925H148.108C148.108 64.1283 147.865 63.5425 147.386 63.114C146.908 62.6925 146.229 62.4783 145.365 62.4783C144.5 62.4783 143.879 62.6568 143.415 63.0068C142.95 63.364 142.715 63.8283 142.715 64.4068C142.715 64.9497 142.986 65.3997 143.529 65.764C144.072 66.1283 144.872 66.4711 145.936 66.7925C147.886 67.3783 149.308 68.1068 150.193 68.9711C151.086 69.8425 151.529 70.9211 151.529 72.214C151.529 73.6497 150.986 74.7854 149.893 75.5997C148.808 76.4211 147.336 76.8283 145.493 76.8283C144.215 76.8283 143.05 76.5925 142 76.1283C140.95 75.6568 140.15 75.0211 139.593 74.2068C139.043 73.3925 138.765 72.4497 138.765 71.3711H142.2C142.2 73.2068 143.3 74.1211 145.493 74.1211C146.308 74.1211 146.943 73.9568 147.4 73.6211C147.858 73.2925 148.086 72.8283 148.086 72.2354" fill="black"/>
<path d="M70.5142 94.471C70.3856 96.2639 69.7213 97.671 68.5356 98.6996C67.3427 99.7282 65.7713 100.242 63.8213 100.242C61.6856 100.242 60.0142 99.5282 58.7927 98.0925C57.5713 96.6567 56.957 94.6853 56.957 92.1853V91.171C56.957 89.571 57.2356 88.1639 57.7999 86.9425C58.3642 85.721 59.1713 84.7925 60.2142 84.1353C61.2642 83.4853 62.4785 83.1567 63.8642 83.1567C65.7856 83.1567 67.3285 83.671 68.4999 84.6996C69.6713 85.7282 70.3499 87.171 70.5356 89.0282H67.107C67.0213 87.9567 66.7213 87.1782 66.207 86.6925C65.6927 86.2067 64.9142 85.9639 63.857 85.9639C62.7142 85.9639 61.857 86.371 61.2927 87.1925C60.7285 88.0139 60.4356 89.2782 60.4213 90.9996V92.2567C60.4213 94.0567 60.6927 95.3639 61.2356 96.1996C61.7785 97.0282 62.6356 97.4425 63.8142 97.4425C64.8713 97.4425 65.6642 97.1996 66.1856 96.7139C66.707 96.2282 67.007 95.4853 67.0856 94.471H70.5142Z" fill="black"/>
<path d="M78.4998 90.8713L81.9569 83.3784H85.7069L80.2427 93.9784V100.007H76.7641V93.9784L71.2998 83.3784H75.0569L78.4998 90.8713Z" fill="black"/>
<path d="M87.221 100.007V83.3784H93.0424C95.0639 83.3784 96.5924 83.7641 97.6353 84.5356C98.6782 85.307 99.1996 86.4427 99.1996 87.9356C99.1996 88.7498 98.9924 89.4713 98.571 90.0856C98.1496 90.707 97.571 91.1641 96.821 91.4498C97.671 91.6641 98.3424 92.0927 98.8353 92.7427C99.3282 93.3927 99.571 94.1784 99.571 95.1213C99.571 96.7213 99.0639 97.9284 98.0424 98.7498C97.021 99.5713 95.571 99.9927 93.6781 100.007H87.2139H87.221ZM90.6496 90.3427H93.1853C94.9139 90.3141 95.7782 89.6213 95.7782 88.2784C95.7782 87.5213 95.5567 86.9856 95.121 86.6498C94.6853 86.3213 93.9924 86.1498 93.0496 86.1498H90.6496V90.3427ZM90.6496 92.7641V97.2498H93.5853C94.3924 97.2498 95.021 97.057 95.4782 96.6713C95.9282 96.2856 96.1567 95.757 96.1567 95.0784C96.1567 93.557 95.371 92.7856 93.7924 92.757H90.6496V92.7641Z" fill="black"/>
<path d="M112.157 92.807H105.578V97.257H113.299V100.007H102.149V83.3784H113.278V86.157H105.578V90.1213H112.157V92.807Z" fill="black"/>
<path d="M121.464 93.9213H118.735V100.007H115.307V83.3784H121.485C123.45 83.3784 124.964 83.8141 126.028 84.6927C127.092 85.5713 127.628 86.807 127.628 88.407C127.628 89.5427 127.385 90.4856 126.892 91.2427C126.399 91.9998 125.657 92.607 124.657 93.0498L128.257 99.8427V99.9998H124.578L121.457 93.9141L121.464 93.9213ZM118.735 91.1427H121.5C122.357 91.1427 123.028 90.9213 123.499 90.4856C123.971 90.0498 124.207 89.4427 124.207 88.6784C124.207 87.9141 123.985 87.2784 123.535 86.8284C123.092 86.3784 122.407 86.157 121.485 86.157H118.735V91.1498V91.1427Z" fill="black"/>
</g>
</g>
</g>
<defs>
<linearGradient id="paint0_linear_877_27479" x1="5.84884" y1="100.144" x2="42.2507" y2="63.742" gradientUnits="userSpaceOnUse">
<stop stop-color="#252858"/>
<stop offset="0.37" stop-color="#252858"/>
<stop offset="0.39" stop-color="#262B5D"/>
<stop offset="0.56" stop-color="#2C427E"/>
<stop offset="0.72" stop-color="#315296"/>
<stop offset="0.87" stop-color="#345CA5"/>
<stop offset="1" stop-color="#3660AA"/>
</linearGradient>
<clipPath id="clip0_877_27479">
<rect width="160" height="160" fill="white"/>
</clipPath>
<clipPath id="clip1_877_27479">
<rect width="160" height="160" fill="white"/>
</clipPath>
</defs>
</svg>
