<svg width="160" height="160" viewBox="0 0 160 160" fill="none" xmlns="http://www.w3.org/2000/svg">
<path d="M5.28027 37.8501H130.28V52.6401H5.28027V37.8501Z" fill="#00BCB4"/>
<path d="M5.28027 88.48H113.61V103.27H5.28027V88.48Z" fill="#E6417A"/>
<path d="M5.28027 106.4H138.61V121.19H5.28027V106.4Z" fill="#A4AAAA"/>
<path d="M5.28027 55.77V85.34H155.28V55.77H5.28027Z" fill="black"/>
<path d="M25.1704 63.4099C27.2704 63.4099 28.3504 64.7299 28.7704 66.4399H33.0004C32.2504 61.9699 29.1304 59.6899 25.1404 59.6899C22.8004 59.6899 20.8804 60.5299 19.3804 62.0299C17.2204 64.1899 17.2804 66.8599 17.2804 70.5599C17.2804 74.2599 17.2204 76.9199 19.3804 79.0799C20.8804 80.5799 22.8004 81.4199 25.1404 81.4199C29.1004 81.4199 32.2504 79.1399 33.0004 74.6699H28.7704C28.3504 76.3799 27.2704 77.6999 25.1704 77.6999C24.0304 77.6999 23.1004 77.2799 22.5004 76.5899C21.6904 75.6899 21.4504 74.6699 21.4504 70.5599C21.4504 66.4499 21.6904 65.4299 22.5004 64.5299C23.1004 63.8399 24.0304 63.4199 25.1704 63.4199V63.4099ZM48.7904 72.9499L40.3304 59.8599H36.6104V81.2299H40.7804V68.1099L49.2404 81.2299H52.9604V59.8599H48.7904V72.9499ZM57.9404 81.2299H72.0204V77.5099H62.1104V72.3199H70.5504V68.5999H62.1104V63.5899H72.0204V59.8699H57.9404V81.2399V81.2299ZM89.4504 61.8999C88.0404 60.4899 86.0304 59.8599 83.8104 59.8599H76.1004V81.2299H83.8104C86.0304 81.2299 88.0404 80.5999 89.4504 79.1899C91.8504 76.7899 91.6104 73.6699 91.6104 70.4599C91.6104 67.2499 91.8504 64.3099 89.4504 61.9099V61.8999ZM86.5404 76.1899C85.8204 77.0599 84.8604 77.5099 83.4204 77.5099H80.2704V63.5799H83.4204C84.8604 63.5799 85.8204 64.0299 86.5404 64.8999C87.3204 65.8599 87.4404 67.2099 87.4404 70.4499C87.4404 73.6899 87.3204 75.2199 86.5404 76.1799V76.1899Z" fill="white"/>
</svg>
