<svg width="160" height="90" viewBox="0 0 160 90" fill="none" xmlns="http://www.w3.org/2000/svg">
<g clip-path="url(#clip0_30_23314)">
<g clip-path="url(#clip1_30_23314)">
<mask id="mask0_30_23314" style="mask-type:luminance" maskUnits="userSpaceOnUse" x="-9" y="15" width="178" height="60">
<path d="M168.572 15.2644H-8.57129V74.7358H168.572V15.2644Z" fill="white"/>
</mask>
<g mask="url(#mask0_30_23314)">
<mask id="mask1_30_23314" style="mask-type:luminance" maskUnits="userSpaceOnUse" x="-9" y="15" width="178" height="60">
<path d="M168.572 15.2644H-8.57129V74.7358H168.572V15.2644Z" fill="white"/>
</mask>
<g mask="url(#mask1_30_23314)">
<path d="M55.6074 57.0643V40.8572H59.786V42.1572C61.0217 41.1572 62.5574 40.5215 64.3646 40.5215C66.6003 40.5215 68.6431 41.5215 69.9789 43.1286C71.0503 44.4001 71.6503 46.0358 71.6503 48.8072V57.0643H67.3074V48.4786C67.3074 46.8715 66.9431 46.0358 66.336 45.4358C65.7646 44.8643 64.9003 44.5358 63.8931 44.5358C62.0574 44.5358 60.5503 45.7072 59.9503 46.5429V57.0715H55.6074V57.0643Z" fill="black"/>
<path d="M106.314 54.4858C104.743 56.3573 102.172 57.393 99.6644 57.393C94.8216 57.393 91.1787 54.0501 91.1787 48.9715C91.1787 44.4573 94.2501 40.5144 99.0644 40.5144C103.543 40.5144 106.714 44.293 106.714 48.8001C106.714 49.2358 106.679 49.6715 106.614 50.0358H95.3858C95.6216 52.3073 97.4573 53.8787 99.7644 53.8787C101.6 53.8787 103.072 52.843 103.843 52.0073L106.314 54.4787V54.4858ZM102.272 46.8644C102.136 45.4287 100.836 44.0215 99.0644 44.0215C97.293 44.0215 95.793 45.393 95.5859 46.8644H102.272Z" fill="black"/>
<path d="M52.0788 57.0644H47.9002V55.7573C46.5645 56.893 45.0288 57.393 43.3859 57.393C40.9788 57.393 38.7073 56.3215 37.2716 54.6501C36.0002 53.1787 35.2002 51.1715 35.2002 48.9715C35.2002 44.193 38.7431 40.5144 43.1502 40.5144C44.9859 40.5144 46.6288 41.1144 47.8931 42.1501V40.8501H52.0716V57.0573L52.0788 57.0644ZM47.7359 46.5358C46.8359 45.3358 45.4002 44.5287 43.7288 44.5287C41.1859 44.5287 39.5502 46.6358 39.5502 48.9715C39.5502 51.5144 41.3859 53.3858 43.8288 53.3858C45.4645 53.3858 46.9002 52.5858 47.7359 51.3787V46.5358Z" fill="black"/>
<path d="M90.1783 53.7501C88.2711 56.293 85.864 57.393 82.8283 57.393C77.814 57.393 74.1426 53.6501 74.1426 48.9715C74.1426 44.293 77.9211 40.5144 82.864 40.5144C85.6711 40.5144 88.1783 41.8144 89.6783 43.7573L86.6069 46.4644C85.7354 45.3287 84.4354 44.5287 82.864 44.5287C80.3569 44.5287 78.4854 46.5001 78.4854 48.9715C78.4854 51.443 80.3211 53.3858 82.964 53.3858C84.7354 53.3858 86.1354 52.3144 86.8426 51.2501L90.1854 53.7573L90.1783 53.7501Z" fill="black"/>
<path d="M34.529 44.7001C34.229 44.6001 33.5933 44.5358 32.9576 44.5358C31.0504 44.5358 29.5504 45.9072 29.0147 46.8715V57.0643H24.6719V40.8572H28.8504V42.4929C29.8219 41.2929 31.5933 40.5215 33.5647 40.5215C34.2004 40.5215 34.5647 40.5858 35.0362 40.6572L34.5362 44.7001H34.529Z" fill="black"/>
<path d="M22 37.0143C21.6357 36.9143 21.1 36.85 20.7 36.85C19.6286 36.85 18.7929 37.15 18.2572 37.7857C17.8929 38.2571 17.6572 38.8571 17.6572 40.3571V40.8571H22.6715V44.5357H17.6572V57.0643H13.3143V44.5357H9.13574V40.8571H13.3143V40.1857C13.3143 37.5786 13.9143 36.0071 15.05 34.9071C16.1857 33.8071 17.8929 33 20.0929 33C20.9643 33 21.7643 33.0643 22.6643 33.3L21.9929 37.0071L22 37.0143Z" fill="black"/>
</g>
<mask id="mask2_30_23314" style="mask-type:luminance" maskUnits="userSpaceOnUse" x="110" y="44" width="10" height="10">
<path d="M115.229 44.543C114.35 44.543 113.493 44.8001 112.765 45.293C112.036 45.7787 111.465 46.4715 111.129 47.2858C110.793 48.093 110.708 48.9858 110.879 49.8501C111.05 50.7073 111.472 51.5001 112.093 52.1215C112.715 52.743 113.5 53.1644 114.365 53.3358C115.222 53.5073 116.115 53.4215 116.929 53.0858C117.736 52.7501 118.429 52.1787 118.922 51.4501C119.408 50.7215 119.672 49.8644 119.672 48.9858C119.672 48.4001 119.558 47.8287 119.336 47.2858C119.115 46.7501 118.786 46.2573 118.372 45.8501C117.958 45.4358 117.472 45.1144 116.936 44.8858C116.4 44.6644 115.822 44.5501 115.243 44.5501" fill="white"/>
</mask>
<g mask="url(#mask2_30_23314)">
<path d="M119.665 44.543H110.715V53.493H119.665V44.543Z" fill="url(#paint0_radial_30_23314)"/>
</g>
<mask id="mask3_30_23314" style="mask-type:luminance" maskUnits="userSpaceOnUse" x="140" y="40" width="11" height="18">
<path d="M146.4 40.8645L141.958 50.7716C141.815 52.9216 141.415 55.0502 140.765 57.1074H143.465L150.922 40.8859V40.8716H146.393L146.4 40.8645Z" fill="white"/>
</mask>
<g mask="url(#mask3_30_23314)">
<path d="M150.922 40.8645H140.765V57.1002H150.922V40.8645Z" fill="url(#paint1_radial_30_23314)"/>
</g>
<mask id="mask4_30_23314" style="mask-type:luminance" maskUnits="userSpaceOnUse" x="124" y="36" width="18" height="22">
<path d="M129.336 36.3502H124.986V40.8073C126.651 42.7859 127.672 45.2287 127.915 47.8073C128.158 50.3859 127.601 52.9716 126.329 55.2287C127.451 56.6216 129.308 57.4145 131.829 57.4145C132.743 57.4145 133.658 57.3002 134.536 57.0645L133.865 53.3859C133.279 53.493 132.686 53.5502 132.093 53.5502C131.022 53.5502 130.322 53.2502 129.886 52.7502C129.515 52.3145 129.351 51.7073 129.351 50.7073V44.5359H134.679L140.443 57.0645H140.751C141.401 55.0073 141.801 52.8859 141.943 50.7287L137.501 40.8359H129.336V36.3145V36.343V36.3502Z" fill="white"/>
</mask>
<g mask="url(#mask4_30_23314)">
<path d="M141.951 36.3215H124.986V57.4215H141.951V36.3215Z" fill="url(#paint2_radial_30_23314)"/>
</g>
<mask id="mask5_30_23314" style="mask-type:luminance" maskUnits="userSpaceOnUse" x="120" y="40" width="8" height="16">
<path d="M124.986 40.8572H120.808V44.5358H124.986V50.2215C124.986 52.5286 125.358 53.9715 126.193 55.0715C126.236 55.1215 126.272 55.1786 126.315 55.2215C127.586 52.9715 128.143 50.3786 127.908 47.8C127.672 45.2215 126.65 42.7786 124.993 40.8V40.85L124.986 40.8572Z" fill="white"/>
</mask>
<g mask="url(#mask5_30_23314)">
<path d="M120.813 40.8036L120.793 55.2322L128.143 55.2424L128.163 40.8139L120.813 40.8036Z" fill="url(#paint3_radial_30_23314)"/>
</g>
<mask id="mask6_30_23314" style="mask-type:luminance" maskUnits="userSpaceOnUse" x="110" y="44" width="10" height="10">
<path d="M115.229 44.543C114.35 44.543 113.493 44.8001 112.765 45.293C112.036 45.7787 111.465 46.4715 111.129 47.2787C110.793 48.0858 110.708 48.9787 110.879 49.843C111.05 50.7001 111.472 51.493 112.093 52.1144C112.715 52.7358 113.5 53.1573 114.365 53.3287C115.222 53.5001 116.115 53.4144 116.929 53.0787C117.736 52.743 118.429 52.1715 118.922 51.443C119.408 50.7144 119.672 49.8573 119.672 48.9787C119.672 48.393 119.558 47.8215 119.336 47.2787C119.115 46.743 118.786 46.2501 118.372 45.843C117.958 45.4287 117.472 45.1073 116.936 44.8787C116.4 44.6573 115.822 44.543 115.243 44.543" fill="white"/>
</mask>
<g mask="url(#mask6_30_23314)">
<path d="M119.665 44.543H110.715V53.493H119.665V44.543Z" fill="url(#paint4_radial_30_23314)"/>
</g>
<mask id="mask7_30_23314" style="mask-type:luminance" maskUnits="userSpaceOnUse" x="120" y="40" width="8" height="16">
<path d="M124.986 40.8572H120.808V44.5358H124.986V50.2215C124.986 52.5286 125.358 53.9715 126.193 55.0715C126.236 55.1215 126.272 55.1786 126.315 55.2215C127.586 52.9715 128.143 50.3786 127.908 47.8C127.672 45.2215 126.65 42.7786 124.993 40.8V40.85L124.986 40.8572Z" fill="white"/>
</mask>
<g mask="url(#mask7_30_23314)">
<path d="M128.143 40.8071H120.814V55.2286H128.143V40.8071Z" fill="url(#paint5_radial_30_23314)"/>
</g>
</g>
</g>
</g>
<defs>
<radialGradient id="paint0_radial_30_23314" cx="0" cy="0" r="1" gradientUnits="userSpaceOnUse" gradientTransform="translate(115.059 47.9962) scale(12.8225)">
<stop stop-color="#FA5B7C"/>
<stop offset="0.42" stop-color="#FA5B7C"/>
<stop offset="1" stop-color="#D661FF"/>
</radialGradient>
<radialGradient id="paint1_radial_30_23314" cx="0" cy="0" r="1" gradientUnits="userSpaceOnUse" gradientTransform="translate(117.524 47.2696) rotate(180) scale(37.6085 37.6085)">
<stop stop-color="#4C99C7"/>
<stop offset="0.58" stop-color="#4C99C7"/>
<stop offset="1" stop-color="#66C6D6"/>
</radialGradient>
<radialGradient id="paint2_radial_30_23314" cx="0" cy="0" r="1" gradientUnits="userSpaceOnUse" gradientTransform="translate(115.431 49.4668) rotate(180) scale(27.0035 27.0035)">
<stop stop-color="#FFC04D"/>
<stop offset="0.81" stop-color="#FFC04D"/>
<stop offset="1" stop-color="#77FF8C"/>
</radialGradient>
<radialGradient id="paint3_radial_30_23314" cx="0" cy="0" r="1" gradientUnits="userSpaceOnUse" gradientTransform="translate(116.508 48.4359) rotate(0.08) scale(20.204 20.204)">
<stop stop-color="#FA5B7C"/>
<stop offset="0.42" stop-color="#FA5B7C"/>
<stop offset="1" stop-color="#D661FF"/>
</radialGradient>
<radialGradient id="paint4_radial_30_23314" cx="0" cy="0" r="1" gradientUnits="userSpaceOnUse" gradientTransform="translate(115.059 48.0105) scale(12.8225)">
<stop stop-color="#D63A44"/>
<stop offset="1" stop-color="#FF575D"/>
</radialGradient>
<radialGradient id="paint5_radial_30_23314" cx="0" cy="0" r="1" gradientUnits="userSpaceOnUse" gradientTransform="translate(115.051 48.0532) scale(12.8225 12.8225)">
<stop stop-color="#FF503C"/>
<stop offset="0.42" stop-color="#FF5247"/>
<stop offset="1" stop-color="#FF575D"/>
</radialGradient>
<clipPath id="clip0_30_23314">
<rect width="160" height="90" fill="white"/>
</clipPath>
<clipPath id="clip1_30_23314">
<rect width="160" height="160" fill="white" transform="translate(0 -35)"/>
</clipPath>
</defs>
</svg>
