<svg width="160" height="160" viewBox="0 0 160 160" fill="none" xmlns="http://www.w3.org/2000/svg">
<path d="M8.60742 45.2144H11.3646L13.9789 49.6501L16.5788 45.2144H19.3431V56.0072H17.1503V48.3286L14.736 52.3001H13.2003L10.7931 48.3286V56.0072H8.60742V45.2144Z" fill="#1D1E1C"/>
<path d="M24.5425 45.2144H22.3496V56.0072H24.5425V45.2144Z" fill="#1D1E1C"/>
<path d="M27.5498 45.2144H30.3641L35.1855 52.9429V45.2144H37.3784V56.0072H34.5784L29.7498 48.2572V56.0072H27.5498V45.2144Z" fill="#1D1E1C"/>
<path d="M42.5861 45.2144H40.4004V56.0072H42.5861V45.2144Z" fill="#1D1E1C"/>
<path d="M46.2355 53.0357C46.7784 53.8286 47.6641 54.3214 48.6213 54.3714C49.2713 54.4786 49.8855 54.0357 49.9927 53.3857C50.007 53.3 50.0141 53.2072 50.007 53.1143C50.007 51.1786 45.0784 51.6143 45.0784 48.0214C45.1284 46.2429 46.607 44.8429 48.3855 44.8857C48.4355 44.8857 48.4784 44.8857 48.5284 44.8857C49.9998 44.8714 51.3998 45.5429 52.307 46.7L50.6998 48.1429C50.2355 47.3786 49.4355 46.8786 48.5427 46.7929C47.907 46.7929 47.3784 47.2929 47.3498 47.9286C47.3498 49.85 52.2784 49.4072 52.2784 53.0572C52.2498 54.8786 50.757 56.3286 48.9355 56.3C48.857 56.3 48.7784 56.3 48.6927 56.2857C47.1498 56.3572 45.657 55.6857 44.6855 54.4857L46.2355 53.0214V53.0357Z" fill="#1D1E1C"/>
<path d="M53.3281 45.2144H62.1853V47.2072H58.8567V56.0072H56.671V47.2072H53.3281V45.2144Z" fill="#1D1E1C"/>
<path d="M64.1143 45.1927H70.4V47.057H66.2928V49.5641H69.7857V51.4284H66.2928V54.1498H70.4V56.0141H64.1143V45.207V45.1927ZM64.2928 42.1855H66.55L68.2928 44.2641H66.2857L64.2928 42.1855Z" fill="#1D1E1C"/>
<path d="M72.9932 45.1929H76.3003C78.686 45.1929 80.1432 46.3857 80.1432 48.4143C80.186 49.6072 79.5003 50.7143 78.4146 51.2072L81.8003 55.9786H79.1432L76.2646 51.6214H75.1432V55.9786H72.9932V45.1929ZM75.186 47.0572V49.75H76.3789C77.1217 49.75 77.7289 49.15 77.7289 48.4C77.7289 47.65 77.1289 47.05 76.3789 47.05H75.186V47.0572Z" fill="#1D1E1C"/>
<path d="M83.1074 45.2144H89.3931V47.0715H85.3003V49.5786H88.786V51.4429H85.3003V54.1358H89.3931V56.0072H83.1074V45.2144Z" fill="#1D1E1C"/>
<path d="M8.57129 60.7714H12.8427C15.8213 60.6286 18.357 62.9357 18.4927 65.9143C18.6356 68.8929 16.3284 71.4286 13.3499 71.5643C13.1784 71.5714 13.0141 71.5714 12.8427 71.5643H8.57129V60.7714ZM10.757 62.7643V69.5786H12.8784C14.757 69.6929 16.3713 68.2571 16.4856 66.3714C16.5999 64.4929 15.1641 62.8786 13.2784 62.7643C13.1427 62.7571 13.007 62.7571 12.8784 62.7643H10.757Z" fill="#1D1E1C"/>
<path d="M20.6924 60.7715H26.9924V62.6429H22.8852V65.1358H26.371V67.0001H22.8852V69.7072H26.9924V71.5643H20.6924V60.7715Z" fill="#1D1E1C"/>
<path d="M33.543 60.7715H35.7215V69.5715H39.8287V71.5643H33.543V60.7715Z" fill="#1D1E1C"/>
<path d="M39.3711 65.2215L40.7568 60.7715H42.9782L41.1854 65.2215H39.3711Z" fill="#1D1E1C"/>
<path d="M44.6709 60.7713H50.9566V62.6427H46.8638V65.1356H50.3209V66.9999H46.8638V69.707H50.9566V71.5713H44.6709V60.7784V60.7713ZM46.7495 59.8499L48.4923 57.7642H50.7495L48.7423 59.8499H46.7495Z" fill="#1D1E1C"/>
<path d="M53.5068 60.7714H57.7425C60.7211 60.6286 63.2568 62.9357 63.3925 65.9143C63.5283 68.8929 61.2283 71.4286 58.2497 71.5643C58.0783 71.5714 57.914 71.5714 57.7425 71.5643H53.5068V60.7714ZM55.6925 62.7643V69.5786H57.7783C59.6568 69.6929 61.2711 68.2571 61.3854 66.3714C61.4997 64.4929 60.064 62.8786 58.1783 62.7643C58.0425 62.7571 57.9068 62.7571 57.7783 62.7643H55.6925Z" fill="#1D1E1C"/>
<path d="M71.9643 60.7713H74.1857V67.3427C74.3143 69.757 72.4571 71.8142 70.0429 71.9427C67.6286 72.0713 65.5714 70.2142 65.4429 67.7999C65.4357 67.6499 65.4357 67.4927 65.4429 67.3427V60.7713H67.6357V67.5213C67.6357 68.7284 68.6143 69.707 69.8214 69.707C71.0286 69.707 72.0071 68.7284 72.0071 67.5213L71.9714 60.7642L71.9643 60.7713Z" fill="#1D1E1C"/>
<path d="M84.6212 68.343L86.3498 69.6644C85.2712 71.0859 83.5784 71.9073 81.7927 71.8716C78.6355 71.843 76.0998 69.2644 76.1212 66.1144C76.1498 62.9573 78.7284 60.4216 81.8784 60.443C83.6284 60.4573 85.2712 61.2716 86.3427 62.6501L84.6141 63.9859C83.9784 63.0501 82.9141 62.5001 81.7855 62.5073C79.7641 62.6216 78.2212 64.3501 78.3355 66.3716C78.4427 68.2287 79.9212 69.7144 81.7855 69.8216C82.9141 69.8359 83.9784 69.2787 84.6141 68.343" fill="#1D1E1C"/>
<path d="M90.8854 60.7715H93.7497L97.8425 71.5643H95.4568L94.464 68.7643H90.1711L89.1426 71.5643H86.7568L90.8854 60.7715ZM93.7997 66.8929L92.3211 62.8358L90.8926 66.8929H93.8068H93.7997Z" fill="#1D1E1C"/>
<path d="M97.3281 60.7715H106.178V62.7643H102.85V71.5643H100.657V62.7643H97.3281V60.7715Z" fill="#1D1E1C"/>
<path d="M110.292 60.7715H108.1V71.5643H110.292V60.7715Z" fill="#1D1E1C"/>
<path d="M123.85 66.1716C123.864 69.343 121.307 71.9216 118.135 71.9359C114.964 71.9501 112.385 69.393 112.371 66.2216C112.357 63.0501 114.914 60.4716 118.085 60.4573C118.1 60.4573 118.107 60.4573 118.121 60.4573C121.214 60.393 123.778 62.8501 123.85 65.943C123.85 66.0216 123.85 66.093 123.85 66.1716ZM121.593 66.1716C121.5 64.2501 119.871 62.7644 117.943 62.8573C116.021 62.9501 114.535 64.5787 114.628 66.5073C114.714 68.3644 116.257 69.8287 118.114 69.8216C120.028 69.8216 121.585 68.2716 121.593 66.3573C121.593 66.293 121.593 66.2359 121.593 66.1716Z" fill="#1D1E1C"/>
<path d="M125.95 60.7715H128.75L133.572 68.5001V60.7715H135.764V71.5643H132.964L128.129 63.8143V71.5643H125.95V60.7715Z" fill="#1D1E1C"/>
<path d="M8.60742 76.3359H11.4074L16.2431 84.0716V76.3359H18.4289V87.1359H15.6217L10.7931 79.3788V87.1359H8.60742V76.3359Z" fill="#1D1E1C"/>
<path d="M24.1782 76.3359H27.0568L31.1353 87.0717H28.8568L27.821 84.2574H23.4639L22.4282 87.0717H20.0996L24.1782 76.3359ZM27.0996 82.4574L25.621 78.4002L24.0853 82.4574H27.1068H27.0996Z" fill="#1D1E1C"/>
<path d="M30.6074 76.3359H39.4574V78.3288H36.1289V87.1359H33.9431V78.3288H30.6074V76.3359Z" fill="#1D1E1C"/>
<path d="M43.5854 76.3359H41.3926V87.1288H43.5854V76.3359Z" fill="#1D1E1C"/>
<path d="M57.121 81.7286C57.1352 84.8929 54.5781 87.4643 51.421 87.4786C48.2638 87.4929 45.6852 84.9357 45.671 81.7786C45.6567 78.6143 48.2138 76.0429 51.371 76.0286C51.3852 76.0286 51.3924 76.0286 51.4067 76.0286C54.4995 75.9643 57.0567 78.4143 57.121 81.5C57.121 81.5786 57.121 81.65 57.121 81.7286ZM54.8781 81.7286C54.7852 79.8071 53.1567 78.3214 51.2281 78.4143C49.3067 78.5071 47.821 80.1357 47.9138 82.0643C47.9995 83.9214 49.5424 85.3857 51.3995 85.3786C53.3138 85.3786 54.871 83.8286 54.8781 81.9143C54.8781 81.85 54.8781 81.7929 54.8781 81.7286Z" fill="#1D1E1C"/>
<path d="M59.2217 76.3359H62.0288L66.8574 84.0716V76.3359H69.0431V87.1359H66.236L61.4217 79.3788V87.1359H59.2217V76.3359Z" fill="#1D1E1C"/>
<path d="M74.8067 76.3359H77.671L81.7496 87.0717H79.3639L78.3353 84.2574H74.0782L72.9924 87.1359H70.7139L74.8067 76.3431V76.3359ZM77.7639 82.4574L76.2853 78.4002L74.8067 82.4574H77.7639Z" fill="#1D1E1C"/>
<path d="M83.4141 76.3359H85.6141V85.1431H89.7069V87.1359H83.4141V76.3359Z" fill="#1D1E1C"/>
<path d="M91.6357 76.3359H97.9215V78.2002H93.8215V80.7074H97.3143V82.5645H93.8215V85.2645H97.9215V87.1359H91.6357V76.3359Z" fill="#1D1E1C"/>
<path d="M8.60742 91.9072H14.8931V93.7644H10.7931V96.2572H14.286V98.1358H10.7931V100.829H14.8931V102.693H8.60742V91.9072Z" fill="#1D1E1C"/>
<path d="M16.5645 91.9072H25.4145V93.8858H22.0859V102.693H19.893V93.8858H16.5645V91.9072Z" fill="#1D1E1C"/>
<path d="M31.3428 91.893H35.5928C38.5713 91.7502 41.1071 94.0573 41.2428 97.0359C41.3785 100.014 39.0785 102.55 36.0999 102.686C35.9285 102.693 35.7642 102.693 35.5928 102.686H31.3428V91.893ZM33.5356 93.8859V100.7H35.6142C37.4928 100.814 39.1071 99.3787 39.2213 97.493C39.3356 95.6144 37.8999 94.0002 36.0142 93.8859C35.8785 93.8787 35.7428 93.8787 35.6142 93.8859H33.5356Z" fill="#1D1E1C"/>
<path d="M43.4424 91.9072H49.7281V93.7644H45.621V96.2572H49.1067V98.1358H45.621V100.829H49.7281V102.693H43.4424V91.9072Z" fill="#1D1E1C"/>
<path d="M56.2783 91.9072H58.4712V100.7H62.5783V102.693H56.2783V91.9072Z" fill="#1D1E1C"/>
<path d="M67.6931 91.8931H70.6074L74.7003 102.686H72.3146L71.286 99.8859H67.0288L65.9931 102.686H63.6074L67.7003 91.8931H67.6931ZM70.6074 98.0145L69.1288 93.9716L67.6503 98.0145H70.6074Z" fill="#1D1E1C"/>
<path d="M79.3142 105.371C79.0285 105.407 78.7427 105.407 78.457 105.371V103.379C78.6427 103.4 78.8213 103.4 79.007 103.379C79.9856 103.379 80.4856 102.964 80.4856 101.85V91.8857H82.6785V101.786C82.6785 104.171 81.5713 105.364 79.3142 105.364" fill="#1D1E1C"/>
<path d="M85.6924 91.9072H91.9852V93.7644H87.8924V96.2572H91.371V98.1358H87.8924V100.829H91.9852V102.693H85.6924V91.9072Z" fill="#1D1E1C"/>
<path d="M100.836 91.8931H103.028V98.4645C103.157 100.879 101.3 102.936 98.8856 103.064C96.4713 103.193 94.4142 101.336 94.2856 98.9216C94.2785 98.7716 94.2785 98.6145 94.2856 98.4645V91.8931H96.4785V98.6431C96.3928 99.8431 97.2928 100.893 98.4928 100.979C99.6928 101.064 100.743 100.165 100.828 98.9645C100.836 98.8574 100.836 98.7502 100.828 98.6431V91.8931H100.836Z" fill="#1D1E1C"/>
<path d="M105.735 91.9072H108.55L113.371 99.6215V91.9072H115.571V102.693H112.764L107.935 94.9358V102.693H105.735V91.9072Z" fill="#1D1E1C"/>
<path d="M118.586 91.9072H124.872V93.7644H120.779V96.2572H124.265V98.1358H120.779V100.829H124.872V102.693H118.586V91.9072Z" fill="#1D1E1C"/>
<path d="M128.036 99.7288C128.586 100.514 129.464 101 130.422 101.05C131.072 101.157 131.686 100.714 131.793 100.064C131.807 99.993 131.807 99.9288 131.807 99.8573C131.807 97.9359 126.872 98.3645 126.872 94.7788C126.922 93.0002 128.4 91.6002 130.179 91.643C130.229 91.643 130.279 91.643 130.329 91.6502C131.8 91.6359 133.2 92.3073 134.107 93.4645L132.5 94.8931C132.029 94.1359 131.229 93.643 130.343 93.5573C129.714 93.5573 129.186 94.0502 129.15 94.6788C129.15 96.6145 134.079 96.1573 134.079 99.8216C134.05 101.643 132.557 103.093 130.736 103.064C130.657 103.064 130.579 103.064 130.493 103.05C128.936 103.129 127.436 102.457 126.45 101.25L128.036 99.7216V99.7288Z" fill="#1D1E1C"/>
<path d="M136.836 99.7288C137.386 100.514 138.264 101 139.221 101.05C139.871 101.157 140.486 100.714 140.593 100.064C140.607 99.993 140.607 99.9288 140.607 99.8573C140.607 97.9359 135.671 98.3645 135.671 94.7788C135.721 93.0002 137.2 91.6002 138.979 91.643C139.029 91.643 139.079 91.643 139.129 91.6502C140.6 91.6359 142 92.3073 142.907 93.4645L141.3 94.8931C140.829 94.1359 140.029 93.643 139.143 93.5573C138.514 93.5573 137.986 94.0502 137.95 94.6788C137.95 96.6145 142.879 96.1573 142.879 99.8216C142.85 101.643 141.357 103.093 139.536 103.064C139.457 103.064 139.379 103.064 139.293 103.05C137.736 103.129 136.236 102.457 135.25 101.25L136.836 99.7216V99.7288Z" fill="#1D1E1C"/>
<path d="M145.143 91.9072H151.428V93.7644H147.321V96.2572H150.807V98.1358H147.321V100.829H151.428V102.693H145.143V91.9072Z" fill="#1D1E1C"/>
<path d="M43.7282 132.529C44.0139 132.529 44.2782 132.743 44.1425 133.314L42.771 133.621C43.0068 132.986 43.4068 132.521 43.7282 132.521M44.4782 134.714H44.2068C43.9639 135.086 43.5782 135.343 43.1425 135.429C42.771 135.429 42.5853 135.2 42.5853 134.714C42.5639 134.514 42.5639 134.307 42.5853 134.107L44.7782 133.393C45.2068 132.379 44.6925 131.936 44.0853 131.936C43.1639 131.936 41.971 133.664 41.971 135.179C41.971 135.857 42.3068 136.243 42.8068 136.243C43.3068 136.243 43.9996 135.657 44.5282 134.714M44.0996 131.529L45.5568 130.086V129.886H44.721L43.7782 131.493L44.0996 131.529ZM39.3282 132.543H40.0568L38.8639 135.707C38.771 135.893 38.8425 136.114 39.0282 136.207C39.0782 136.236 39.1353 136.243 39.1853 136.25C40.121 136.129 40.921 135.521 41.2996 134.664H41.0853C40.721 135.05 40.2639 135.336 39.7496 135.479L40.7853 132.557H41.871L41.9996 132.107H40.9496L41.3568 130.971H40.9425L40.1925 132.107L39.2996 132.236L39.3353 132.557L39.3282 132.543ZM38.3996 132.386C38.471 132.221 38.3996 132.036 38.2353 131.957C38.1996 131.943 38.171 131.936 38.1353 131.929C37.3568 132.029 36.6996 132.557 36.4425 133.3H36.6568C36.8568 132.979 37.1639 132.736 37.5282 132.621L36.3353 135.771C36.2568 135.929 36.321 136.121 36.4782 136.207C36.5139 136.229 36.5568 136.236 36.5996 136.243C37.3496 136.129 37.971 135.593 38.1996 134.871H37.9282C37.7282 135.193 37.421 135.429 37.0568 135.543L38.4068 132.393L38.3996 132.386ZM38.6139 130.814C38.9068 130.814 39.1353 130.579 39.1353 130.293C39.1353 130 38.8996 129.771 38.6139 129.771C38.3282 129.771 38.0925 130.007 38.0925 130.293C38.0925 130.579 38.3282 130.814 38.6139 130.814ZM31.6496 135.657C31.4925 136 31.6496 136.243 32.0068 136.243C32.1925 136.271 32.371 136.143 32.3996 135.957L33.2353 133.729C33.6282 133.264 34.1496 132.921 34.7353 132.75C34.9639 132.75 34.9353 132.943 34.7353 133.229L33.4496 135.707C33.3496 135.879 33.4068 136.1 33.5782 136.193C33.6353 136.229 33.6996 136.243 33.771 136.243C34.5496 136.15 35.1996 135.614 35.4496 134.871H35.2496C35.0425 135.193 34.7282 135.429 34.3639 135.543L35.471 133.314C35.5996 133.079 35.671 132.807 35.6853 132.536C35.7139 132.236 35.4925 131.964 35.1853 131.943C35.1568 131.943 35.1282 131.943 35.0996 131.943C34.5496 131.943 33.9996 132.564 33.3353 133.314V132.729C33.3353 132.314 33.2068 131.943 32.821 131.943C32.4353 131.943 32.3568 132.143 32.1425 132.443V132.514C32.5568 132.514 32.7425 133.114 32.4425 133.707L31.6425 135.664L31.6496 135.657ZM31.6496 132.9C31.7925 132.386 31.6496 131.936 31.3139 131.936C30.9782 131.936 30.7282 132.293 30.2496 133.307V132.721C30.2496 132.307 30.121 131.936 29.7353 131.936C29.3496 131.936 28.8853 132.629 28.5425 133.307H28.7568C28.971 133 29.1639 132.807 29.3282 132.807C29.4925 132.807 29.6139 133.107 29.3282 133.75L28.471 135.657C28.3139 136 28.471 136.243 28.8282 136.243C29.0139 136.271 29.1925 136.143 29.221 135.957L30.0568 133.729C30.2925 133.443 30.5068 133.193 30.7853 132.907H31.6425L31.6496 132.9ZM26.7853 132.521C27.0853 132.521 27.3353 132.736 27.1996 133.307L25.8425 133.614C26.0782 132.979 26.4782 132.514 26.7853 132.514M27.5353 134.707H27.271C27.021 135.079 26.6353 135.336 26.1996 135.421C25.8282 135.421 25.6425 135.193 25.6425 134.707C25.621 134.507 25.621 134.3 25.6425 134.1L27.8353 133.386C28.2639 132.371 27.7496 131.929 27.1425 131.929C26.1068 131.929 24.9353 133.657 24.9353 135.171C24.9353 135.85 25.2568 136.236 25.7568 136.236C26.2568 136.236 26.9496 135.65 27.4782 134.707M22.2996 132.536H23.0282L21.8353 135.7C21.7425 135.886 21.8139 136.107 21.9996 136.2C22.0496 136.229 22.1068 136.236 22.1568 136.243C23.0925 136.121 23.8996 135.521 24.2782 134.657H24.0853C23.721 135.043 23.2568 135.321 22.7496 135.471L23.7996 132.5H24.8853L25.0282 132.05H23.9639L24.371 130.914H23.9568L23.2068 132.05L22.2996 132.279V132.55V132.536ZM18.3068 134.993C18.3068 134.029 19.3925 132.7 19.9996 132.7C20.121 132.679 20.2496 132.679 20.371 132.7L19.7353 134.379C19.3782 134.821 18.8139 135.357 18.5425 135.357C18.271 135.357 18.2925 135.236 18.2925 134.943M21.621 131.7H21.2996L20.921 132.057H20.8496C19.0353 132.271 17.6282 133.736 17.4853 135.55C17.4496 135.879 17.6925 136.171 18.0139 136.207C18.0496 136.207 18.0925 136.207 18.1282 136.207C18.5925 136.207 19.0568 135.536 19.571 134.821V135.071C19.571 135.8 19.7282 136.264 20.1068 136.264C20.4853 136.264 20.9568 135.571 21.2996 134.893H21.0996C20.8853 135.2 20.6853 135.379 20.5282 135.379C20.371 135.379 20.2425 135.079 20.5282 134.436L21.6282 131.693L21.621 131.7ZM17.7782 132.893C17.9353 132.379 17.8496 131.929 17.4568 131.929C17.0639 131.929 16.9353 132.264 16.4068 133.3V132.714C16.4068 132.3 16.2782 131.929 15.8925 131.929C15.5068 131.929 15.0425 132.621 14.6996 133.3H14.8996C15.1139 132.993 15.3139 132.8 15.471 132.8C15.6282 132.8 15.771 133.1 15.471 133.743L14.6139 135.65C14.4568 135.993 14.6139 136.236 14.971 136.236C15.1568 136.264 15.3353 136.136 15.3639 135.95L16.2139 133.721C16.4496 133.436 16.6639 133.186 16.9282 132.9H17.7782V132.893ZM11.7282 136.064L11.8139 135.829C10.7496 135.629 10.621 135.629 11.0353 134.479L11.4639 133.286H12.6568C13.171 133.286 13.1782 133.5 13.0996 134.071H13.3496L14.0425 132.164H13.7782C13.5139 132.614 13.3139 132.95 12.7425 132.95H11.5496L12.1568 131.293C12.3496 130.757 12.4568 130.65 13.171 130.65H13.671C14.4139 130.65 14.4925 130.85 14.4925 131.593H14.7925L15.0282 130.293H10.7068L10.621 130.543C11.471 130.707 11.5496 130.793 11.1568 131.879L10.1996 134.479C9.75675 135.564 9.64247 135.65 8.67104 135.836L8.59961 136.071L11.7139 136.057L11.7282 136.064Z" fill="#1D1E1C"/>
<path d="M33.1356 122.636C33.4213 122.636 33.6856 122.85 33.5427 123.415L32.1856 123.736C32.4213 123.1 32.8213 122.636 33.1427 122.636M33.8927 124.829H33.6284C33.3856 125.2 32.9999 125.457 32.5641 125.543C32.1927 125.543 32.007 125.315 32.007 124.829C32.007 124.622 32.0284 124.422 32.0641 124.222L34.257 123.507C34.6856 122.493 34.1641 122.05 33.5641 122.05C32.5284 122.05 31.3427 123.779 31.3427 125.293C31.3427 125.972 31.6641 126.357 32.1784 126.357C32.6927 126.357 33.3713 125.772 33.8999 124.829M33.457 121.643L35.007 120.2V120.036H34.1713L33.2141 121.643H33.4499H33.457ZM28.6856 122.657H29.4141L28.2213 125.807C28.1213 125.986 28.1856 126.215 28.3641 126.307C28.4141 126.336 28.4713 126.35 28.5284 126.35C29.4427 126.222 30.2356 125.643 30.6284 124.815H30.4141C30.0499 125.2 29.5927 125.486 29.0784 125.629L30.1427 122.657H31.2284L31.357 122.207H30.307L30.7141 121.015H30.2999L29.5499 122.207L28.657 122.336L28.6927 122.657H28.6856ZM27.6927 122.5C27.7641 122.336 27.6927 122.15 27.5356 122.072C27.507 122.057 27.4784 122.05 27.4427 122.043C26.6641 122.129 25.9999 122.657 25.7499 123.4H25.9499C26.1641 123.086 26.4713 122.85 26.8356 122.729L25.6427 125.879C25.557 126.029 25.607 126.215 25.757 126.3C25.7999 126.322 25.8427 126.336 25.8927 126.343C26.6499 126.229 27.2713 125.7 27.4999 124.972H27.2999C27.0927 125.293 26.7784 125.529 26.4141 125.643L27.6927 122.493V122.5ZM27.9213 120.929C28.2141 120.929 28.4427 120.693 28.4427 120.407C28.4427 120.122 28.207 119.886 27.9213 119.886C27.6356 119.886 27.3999 120.122 27.3999 120.407C27.3999 120.693 27.6356 120.929 27.9213 120.929ZM23.707 125.7L25.9141 119.915L25.8427 119.829L24.457 119.986V120.15L24.7284 120.35C24.9641 120.543 24.8927 120.729 24.6713 121.315L22.9427 125.85C22.8499 126.043 22.9284 126.272 23.1213 126.357C23.1641 126.379 23.2141 126.393 23.2713 126.393C24.0284 126.286 24.657 125.75 24.8784 125.022H24.6641C24.4284 125.343 24.0927 125.579 23.707 125.693M19.557 125.107C19.557 124.129 20.6284 122.815 21.2499 122.815C21.3713 122.793 21.4999 122.793 21.6213 122.815L20.9856 124.493C20.6141 124.936 20.057 125.472 19.7927 125.472C19.5284 125.472 19.557 125.35 19.557 125.057M22.8856 121.85H22.5499L22.1784 122.222H22.0927C20.2784 122.436 18.8713 123.9 18.7284 125.715C18.6927 126.043 18.9284 126.336 19.257 126.372C19.2999 126.372 19.3427 126.372 19.3856 126.372C19.8499 126.372 20.307 125.7 20.8141 124.986V125.236C20.757 125.965 20.9784 126.429 21.3499 126.429C21.7213 126.429 22.1999 125.736 22.5427 125.057H22.2784C22.0641 125.365 21.8713 125.543 21.707 125.543C21.5427 125.543 21.4213 125.243 21.707 124.6L22.8784 121.843L22.8856 121.85ZM14.8356 127.115C14.8356 126.7 15.2284 126.436 15.8141 126.207C16.0927 126.329 16.3713 126.436 16.6641 126.529C17.2713 126.722 17.4999 126.8 17.4999 126.979C17.4999 127.372 16.8427 127.657 15.9499 127.657C15.057 127.657 14.8427 127.5 14.8427 127.107M16.4784 124.557C16.2141 124.557 16.107 124.329 16.107 124.079C16.107 123.372 16.4856 122.336 17.0856 122.336C17.3499 122.336 17.4427 122.55 17.4427 122.815C17.4427 123.522 17.0713 124.557 16.4784 124.557ZM18.1999 126.715C18.1999 126.215 17.7499 126.036 17.007 125.807C16.2641 125.579 16.0856 125.557 16.0856 125.357C16.0856 125.157 16.2284 125 16.4927 124.857C17.4284 124.786 18.1641 124.022 18.1999 123.079C18.207 122.929 18.1856 122.786 18.1284 122.65H19.0141L19.1427 122.2H17.7356C17.5713 122.093 17.3713 122.043 17.1784 122.043C16.207 122.057 15.4141 122.815 15.3641 123.786C15.3356 124.3 15.6999 124.75 16.2141 124.836C15.6999 125.072 15.4141 125.336 15.4141 125.657C15.4141 125.829 15.4856 125.993 15.6284 126.086C14.4356 126.429 13.9713 126.829 13.9713 127.386C13.9713 127.943 14.6856 128.165 15.5427 128.165C16.9856 128.165 18.1999 127.379 18.1999 126.722M12.6641 123.336C13.1856 123.336 13.1999 123.55 13.1141 124.122H13.4141L14.1213 122.215H13.8141C13.5499 122.665 13.3499 123 12.7856 123H11.5927L12.1641 121.415C12.357 120.879 12.4641 120.779 13.1784 120.779H13.6784C14.4213 120.779 14.4999 120.972 14.4999 121.707H14.7999L15.0356 120.407H10.7141L10.6284 120.657C11.4784 120.822 11.557 120.907 11.1641 121.993L10.207 124.593C9.76415 125.679 9.64986 125.765 8.67843 125.943L8.57129 126.179H13.4641L14.3356 124.807H13.9999C13.4213 125.429 12.6213 125.793 11.7713 125.822C10.4856 125.822 10.5784 125.822 11.0284 124.629L11.4927 123.365L12.6499 123.329L12.6641 123.336ZM13.357 120.029L14.907 118.965V118.8H13.907L13.057 119.993L13.357 120.029Z" fill="#1D1E1C"/>
<path d="M32.621 112.75C32.9067 112.75 33.1567 112.964 33.0281 113.528L31.671 113.85C31.9067 113.214 32.3067 112.75 32.6281 112.75M33.3781 114.936H33.1067C32.8638 115.314 32.4853 115.578 32.0424 115.664C31.6638 115.664 31.471 115.436 31.471 114.936C31.471 114.736 31.4924 114.536 31.5424 114.336L33.7353 113.621C34.1496 112.607 33.6424 112.164 33.0424 112.164C32.0067 112.164 30.821 113.893 30.821 115.407C30.821 116.086 31.1424 116.457 31.6567 116.457C32.171 116.457 32.8496 115.886 33.3781 114.928M32.9353 111.757L34.471 110.314V110.15H33.621L32.6638 111.757H32.9281H32.9353ZM28.3996 112.771H28.9853L27.7924 115.921C27.6924 116.093 27.7496 116.314 27.921 116.407C27.9781 116.436 28.0353 116.457 28.0996 116.457C29.0138 116.336 29.7996 115.764 30.1853 114.928H30.0424C29.6781 115.314 29.221 115.593 28.7067 115.728L29.771 112.771H30.8567L30.9853 112.321H29.9353L30.3424 111.128H29.9281L29.1781 112.321L28.4281 112.443L28.4067 112.778L28.3996 112.771ZM27.8281 113.114C27.9853 112.6 27.8996 112.157 27.5067 112.157C27.1138 112.157 26.921 112.5 26.4424 113.528V112.943C26.4424 112.528 26.3138 112.157 25.9281 112.157C25.5424 112.157 25.0781 112.836 24.7353 113.514H24.9353C25.1496 113.207 25.3496 113.028 25.5067 113.028C25.6638 113.028 25.8067 113.328 25.5067 113.971L24.6567 115.871C24.4924 116.228 24.6567 116.457 25.0138 116.457C25.1996 116.478 25.3638 116.364 25.4067 116.186L26.2424 113.957C26.4781 113.671 26.6924 113.407 26.9567 113.121H27.8138L27.8281 113.114ZM22.971 112.743C23.271 112.743 23.521 112.957 23.3853 113.521L22.0281 113.843C22.2567 113.207 22.6638 112.743 22.971 112.743ZM23.721 114.928H23.4567C23.2138 115.307 22.8281 115.571 22.3853 115.657C22.0138 115.657 21.8281 115.428 21.8281 114.928C21.8281 114.728 21.8496 114.528 21.8853 114.328L24.0781 113.614C24.5067 112.6 23.9924 112.157 23.3853 112.157C22.3496 112.157 21.1781 113.886 21.1781 115.4C21.1781 116.078 21.4996 116.45 21.9996 116.45C22.4996 116.45 23.1924 115.878 23.721 114.921M18.3496 115.814C18.1353 115.814 17.8281 115.614 17.8281 115.436C17.8853 115.228 17.9567 115.028 18.0424 114.828L18.3996 113.886C18.7781 113.443 19.3567 112.957 19.6781 112.957C19.9996 112.957 20.021 113.086 20.021 113.371C20.021 114.243 19.221 115.757 18.3496 115.757M20.8424 112.964C20.8424 112.321 20.6067 112.093 20.1638 112.093C19.721 112.093 19.0781 112.678 18.5638 113.378L19.8781 109.907L19.8067 109.821L18.421 109.978V110.143L18.6924 110.343C18.9281 110.536 18.8567 110.736 18.6353 111.3L17.2138 115.036C17.1138 115.257 17.0424 115.478 16.9853 115.714C16.9853 116.086 17.4996 116.443 17.9638 116.443C19.0353 116.443 20.8424 114.507 20.8424 113.021M16.5353 112.607C16.621 112.307 16.4281 112.157 16.271 112.157C15.4924 112.243 14.8353 112.778 14.5924 113.514H14.7924C15.0138 113.186 15.3424 112.95 15.721 112.843L14.5281 115.993C14.4496 116.143 14.5067 116.328 14.6567 116.414C14.6996 116.436 14.7424 116.45 14.7853 116.45C15.5067 116.314 16.0996 115.793 16.321 115.093H16.1067C15.8996 115.407 15.5924 115.643 15.2353 115.764L16.521 112.614L16.5353 112.607ZM16.7496 111.021C17.0353 111.021 17.271 110.793 17.271 110.507C17.271 110.214 17.0353 109.986 16.7496 109.986C16.4638 109.986 16.2353 110.228 16.2353 110.507C16.2353 110.793 16.4638 111.021 16.7496 111.021ZM13.5638 110.521H10.6853L10.5996 110.757C11.4496 110.936 11.5281 111.021 11.121 112.107L10.1924 114.707C9.79955 115.793 9.63527 115.9 8.66384 116.057L8.57812 116.293H12.971L13.9281 114.6H13.5924C13.1067 115.336 12.321 115.828 11.4424 115.936C10.6996 115.936 10.621 115.814 11.0138 114.743L11.9424 112.143C12.3353 111.057 12.5138 110.95 13.4781 110.793L13.5496 110.521H13.5638Z" fill="#1D1E1C"/>
<path d="M24.8641 36.3501C25.0213 36.2073 25.1713 36.043 25.3284 35.8716C25.607 35.543 25.907 35.2358 26.2356 34.9501C26.3284 34.8644 26.4284 34.7858 26.5356 34.7144V34.6073C26.5356 34.6073 26.3213 34.7644 26.1927 34.8216C26.0641 34.8787 26.1356 34.8216 26.1927 34.7644L26.4641 34.5501C26.107 34.5501 25.8427 34.743 25.5927 34.9573H25.4641C25.057 35.1001 24.757 35.443 24.357 35.6144V35.4716C24.1999 35.543 24.0356 35.6073 23.8713 35.6644C23.6427 35.693 23.4141 35.693 23.1927 35.6644C22.8641 35.7001 22.5356 35.7501 22.2141 35.8287C22.0427 35.8787 21.8713 35.943 21.7141 36.0287C21.6641 36.093 21.5999 36.143 21.5356 36.1858C21.3713 36.2858 21.2213 36.4073 21.0856 36.543L20.5141 37.0787H20.407L20.4784 36.9716L20.5641 36.843C20.5999 36.7858 20.6427 36.7358 20.6856 36.6858C20.8284 36.5573 20.9784 36.4501 21.1356 36.3501C21.1356 36.3501 21.1356 36.3001 21.1356 36.2787L21.007 36.3716C20.9499 36.3716 20.8856 36.5501 20.7927 36.5358V36.4787V36.4216C20.8427 36.3573 20.907 36.3073 20.9856 36.2644C21.0927 36.2644 21.1856 36.143 21.2927 36.0858C21.1356 36.1358 20.9927 36.2073 20.8641 36.3001C20.8641 36.3001 20.8141 36.3144 20.7927 36.3001C20.7927 36.3001 20.8999 36.2144 20.9499 36.1716C21.8213 35.493 22.9999 35.6573 24.007 35.3001L24.257 35.143C24.3856 35.0858 24.4927 34.9501 24.6641 34.8716C24.8856 34.7287 25.0427 34.5073 25.1141 34.2501C25.1141 34.2287 25.1141 34.2073 25.1141 34.193C24.7784 34.5644 24.3713 34.8716 23.9213 35.0858C23.3499 35.3001 22.7499 35.4144 22.1427 35.4216H22.2713C22.3284 35.4216 22.2713 35.3144 22.3784 35.2573H22.4641C22.4641 35.2573 22.607 35.2573 22.5713 35.2573C22.5356 35.2573 22.3356 35.3287 22.1999 35.2573C22.1999 35.2573 22.1999 35.1144 22.2713 35.093H22.3927C22.3927 35.093 22.3856 35.0216 22.3927 34.9858C22.7999 34.7501 23.1784 34.5573 23.5856 34.3287C23.4999 34.3287 23.4427 34.4144 23.357 34.3287C23.2713 34.243 23.357 34.243 23.4141 34.243C23.7141 34.1573 23.9499 33.993 24.2499 33.8858C24.1427 33.8858 24.057 33.9716 23.9499 33.8858C23.8427 33.8001 24.0356 33.8144 24.1141 33.8144V33.2644C24.1141 33.2644 24.2213 33.2644 24.2784 33.1787C24.3356 33.093 24.1927 33.1787 24.1927 33.1787C24.2856 33.0858 24.407 33.0287 24.5356 33.0144H24.4284V32.9073C24.5499 32.7073 24.6356 32.4858 24.6641 32.2501C24.3499 32.5216 23.9641 32.7001 23.557 32.7644H23.4856C23.3427 32.8358 23.1784 32.8358 23.0356 32.7644C22.9284 32.7073 22.8713 32.6216 22.7641 32.5501C22.557 32.4073 22.3284 32.293 22.0856 32.2144C21.4141 31.993 20.7141 31.893 20.007 31.9144C20.3141 31.793 20.6284 31.7073 20.9499 31.6501C21.3927 31.4787 21.857 31.3858 22.3356 31.3787C22.2427 31.3644 22.1499 31.3644 22.0641 31.3787C21.6641 31.3787 21.257 31.4358 20.8713 31.543C20.5999 31.543 20.3499 31.7001 20.0856 31.7573C19.8213 31.8144 19.8356 31.9716 19.6427 31.9501V31.6073C19.8784 31.2216 20.2713 30.9573 20.7141 30.8787C21.1856 30.8073 21.6713 30.8073 22.1427 30.8787C22.4856 30.9144 22.8284 30.9716 23.1713 31.0573C23.3141 31.0573 23.3356 31.2858 23.4427 31.3073C23.5499 31.3287 23.7641 31.3073 23.9284 31.4144C24.0927 31.5216 23.9284 31.3073 23.9284 31.2501C23.9284 31.193 24.1641 31.2501 24.2713 31.2501C24.3784 31.2501 24.0784 30.8716 23.9713 30.6787C24.157 30.8858 24.3784 31.0716 24.6141 31.2144C24.7427 31.2716 25.0784 31.3573 25.0213 31.2144C24.8499 30.9216 24.6356 30.6501 24.3999 30.4001V30.3073H24.3141V30.143C24.207 30.143 24.2284 29.9858 24.1856 29.9073C24.1427 29.8287 24.1856 29.5716 24.0999 29.4216C24.0784 29.2644 24.0641 29.1144 24.0784 28.9573C23.9927 28.5073 23.8856 28.1001 23.8284 27.6573C23.8713 27.1573 24.057 26.6787 24.3784 26.2858C24.5499 25.9358 24.807 25.6358 25.1284 25.4144C25.2356 25.093 25.4213 24.793 25.6499 24.543C25.8784 24.3073 26.157 24.1216 26.4641 24.0073C26.6999 23.9001 26.9356 23.8144 27.1784 23.7358H8.57129V38.0501H21.6927C22.2499 37.7001 22.8356 37.4001 23.4499 37.1573C23.9427 36.9501 24.407 36.6787 24.8356 36.3573M20.707 34.4716C20.6499 34.4716 20.5427 34.4716 20.5641 34.4716C20.5856 34.4716 20.7784 34.3287 20.8999 34.2787C21.0213 34.2287 21.0284 34.193 21.0784 34.2787C21.1284 34.3644 21.2213 34.2787 21.2713 34.3858C21.1141 34.5501 20.8999 34.4716 20.7141 34.5501M16.5641 33.9501C16.5641 33.9501 16.5641 33.9073 16.5641 33.893C16.8927 33.4287 17.1784 32.9287 17.4141 32.4001C17.757 32.2001 18.0713 31.9358 18.3356 31.6358C18.7641 31.1501 19.2784 30.743 19.8499 30.443C20.0784 30.3644 20.3284 30.3644 20.557 30.443C20.4713 30.5644 20.3427 30.5287 20.2356 30.6073C20.207 30.6216 20.1784 30.6216 20.1499 30.6073C20.157 30.5787 20.157 30.5501 20.1499 30.5216C19.8856 30.8216 19.507 30.9501 19.2927 31.3073C19.0784 31.6644 19.0213 31.9287 18.657 32.0144C18.5499 32.0144 18.657 31.9287 18.657 32.0144C17.8784 32.5144 17.1713 33.1216 16.5713 33.8287M18.8284 32.0716C18.8284 32.0716 18.7713 32.0716 18.7427 32.1787C18.7213 32.2287 18.6856 32.2644 18.6356 32.2858H18.5784C18.607 32.1716 18.6927 32.0787 18.807 32.0501M20.057 36.1073C20.057 36.1073 20.0213 36.1716 19.9999 36.193C19.9356 36.2573 19.8641 36.3073 19.7856 36.3358L19.6784 36.4287C19.6784 36.4287 19.4999 36.4287 19.5499 36.4287L19.7499 36.2358L19.857 36.1287V36.0716C19.857 36.0716 20.0213 36.0716 19.9999 36.0716M19.5141 35.843L19.3356 36.0787L18.9784 36.2573C18.8784 36.3144 18.7856 36.3858 18.707 36.4716H18.5856L18.1427 36.743C18.0856 36.793 18.0356 36.8501 17.9856 36.9073L17.9499 36.8358L18.1427 36.5644V36.5073V36.4501C18.1713 36.4001 18.207 36.3501 18.2499 36.3073L18.1427 36.393L18.2141 36.3358C18.257 36.2858 18.2999 36.2358 18.3427 36.193L18.4284 36.1358V36.0644C18.6784 35.8144 19.1213 35.8287 19.4641 35.6716H19.8927C19.9713 35.6501 20.0499 35.6501 20.1284 35.6716C19.8927 35.8001 19.6641 35.9573 19.4356 36.0858M19.9927 34.2144H20.0999H20.0427L19.5999 34.3216C19.407 34.3216 19.257 34.5144 19.0427 34.5573C18.8284 34.6001 18.4713 34.5787 18.1356 34.7001C18.1356 34.7001 18.2641 34.593 18.3284 34.5073C18.5641 34.243 18.8284 34.0073 19.1141 33.8001V33.6073C19.1499 33.5001 19.3284 33.443 19.3284 33.2644C19.3856 33.1501 19.4784 33.0573 19.5999 33.0144C19.5999 33.0144 19.5141 33.0144 19.5141 32.943C19.5141 32.8716 19.2999 32.943 19.1927 32.943C19.2284 32.9073 19.2784 32.8787 19.3213 32.8573C19.3213 32.8573 19.3213 32.7358 19.4499 32.7287C19.5641 32.7144 19.6713 32.6787 19.7713 32.6216H19.1713C19.2856 32.2716 19.5284 31.9858 19.8499 31.8073H19.9356C19.9356 31.9358 19.8356 32.0501 19.707 32.0716C19.9284 32.093 20.1427 32.1501 20.3499 32.2287H20.2427C20.2427 32.2287 20.5427 32.2287 20.6713 32.3573C20.5999 32.443 20.5141 32.3573 20.4356 32.3573C21.307 32.5073 22.1356 32.8144 22.8927 33.2644C22.2999 33.5287 21.6713 33.7216 21.0284 33.8358C20.957 33.8501 20.8784 33.8501 20.7999 33.8358V33.9216C20.7141 33.893 20.6213 33.893 20.5356 33.9216C20.4213 33.9787 20.2927 33.9787 20.1784 33.9216" fill="#000091"/>
<path d="M47.9352 23.7144H32.5566L32.6994 23.7858L33.0923 23.9858C33.2994 24.0786 33.4852 24.2286 33.6137 24.4144C33.6709 24.5001 33.7566 24.6644 33.6994 24.7715C33.6423 24.8786 33.6137 25.1144 33.4852 25.1786C33.2994 25.2358 33.0994 25.2358 32.9137 25.1786C32.8066 25.1929 32.6994 25.1929 32.5923 25.1786C33.0137 25.3072 33.3852 25.5644 33.6566 25.9072C33.6566 25.9072 33.7852 25.9929 33.8923 25.9929C33.9994 25.9929 33.8923 25.9929 33.8923 26.0786C33.8923 26.1644 33.7852 26.1644 33.8209 26.2358H33.8923C34.0352 26.2358 33.9994 25.9144 34.1923 26.0001C34.3352 26.0858 34.3852 26.2572 34.3137 26.4072L33.978 26.6786C33.9566 26.7429 33.9566 26.8072 33.978 26.8715C34.0423 26.9715 34.0923 27.0786 34.1209 27.1929C34.1923 27.3858 34.228 27.6001 34.3137 27.7929C34.4423 28.1786 34.4994 28.5786 34.4923 28.9858C34.4923 29.2001 34.3852 29.3929 34.4923 29.6072C34.5709 29.8072 34.6709 30.0001 34.7923 30.1786C34.8994 30.3144 34.9994 30.4572 35.0923 30.6072C35.2566 30.8786 35.5566 31.1572 35.4137 31.4786C35.2709 31.8001 35.0423 31.6358 34.8566 31.7501C34.6709 31.8644 34.8566 32.0929 34.8566 32.2286C34.8566 32.3644 34.6994 32.6358 34.5137 32.7144C34.5137 32.8001 34.6709 32.7715 34.7066 32.8215C34.7423 32.8715 34.8637 33.0358 34.778 33.1786C34.6923 33.3215 34.3494 33.4144 34.5137 33.6644C34.5994 33.8501 34.5994 34.0715 34.5137 34.2644C34.428 34.4715 34.2423 34.6286 34.028 34.6715C33.8566 34.7072 33.6852 34.7072 33.5137 34.6715C33.4637 34.6429 33.4137 34.6215 33.3566 34.6144C32.8994 34.5358 32.4352 34.4858 31.9709 34.4572C31.8423 34.4858 31.7137 34.5215 31.5923 34.5786C31.4709 34.6644 31.3637 34.7572 31.2709 34.8644V34.9358C31.1923 35.0358 31.1209 35.1429 31.0566 35.2572C30.9709 35.4144 30.9066 35.5786 30.8566 35.7429C30.678 36.1572 30.678 36.6215 30.8566 37.0286C30.8566 37.0286 31.7494 37.3286 32.3494 37.5858L32.9923 37.9072H47.9494V23.7144H47.9352Z" fill="#E1000F"/>
<path d="M33.4789 28.9429C33.586 28.9429 33.7503 28.9429 33.7503 29.0286C33.7503 29.1143 33.3718 29.3001 33.2003 29.5143H33.1289C33.0432 29.5143 33.0718 29.7072 32.986 29.7072C32.9075 29.6786 32.8218 29.6786 32.7503 29.7072C32.8503 29.8286 33.0003 29.8858 33.1575 29.8715C33.2075 29.8858 33.236 29.9286 33.2432 29.9786H33.3003V30.0858C33.2146 30.1929 33.086 30.0858 32.9646 30.1715C33.1718 30.2215 33.386 30.2215 33.6003 30.1715C33.7575 30.1715 33.6003 29.8358 33.7075 29.7072C33.8146 29.5786 33.7075 29.6215 33.6503 29.6215C33.5932 29.6215 33.7575 29.4929 33.8146 29.4643C33.8789 29.4643 33.936 29.4286 33.9789 29.3786C33.9789 29.3786 33.8575 29.2929 33.8932 29.2358C33.9289 29.1786 34.1932 28.9715 34.1289 28.8072C34.0646 28.6429 33.8932 28.7215 33.7503 28.6786C33.6003 28.6358 33.4432 28.6358 33.3003 28.6786C33.1646 28.7001 33.0289 28.7358 32.8932 28.7858C32.7075 28.8501 32.536 28.9429 32.3789 29.0572C32.5718 28.9858 32.7646 28.9286 32.9646 28.8929C33.1218 28.8786 33.2718 28.8786 33.4289 28.8929" fill="#9C9C9A"/>
</svg>
