<svg width="160" height="160" viewBox="0 0 160 160" fill="none" xmlns="http://www.w3.org/2000/svg">
<path d="M160 13.73H0V146.26H160V13.73Z" fill="white"/>
<path d="M51.5005 27.47H13.7305V41.2H51.5005V27.47Z" fill="white"/>
<path fill-rule="evenodd" clip-rule="evenodd" d="M29.3505 39.5799C29.5005 39.4299 29.6505 39.2699 29.7905 39.1199C30.0505 38.8099 30.3405 38.5099 30.6505 38.2399C30.7405 38.1599 30.8305 38.0799 30.9305 38.0099C30.9405 37.9999 30.9505 37.9799 30.9605 37.9599C30.9605 37.9399 30.9705 37.9199 30.9905 37.9099C30.9305 37.9399 30.8705 37.9699 30.8205 38.0099C30.7705 38.0499 30.7205 38.0899 30.6505 38.1099C30.6205 38.1099 30.6005 38.0799 30.6205 38.0599L30.9005 37.8499C30.9005 37.8499 30.8905 37.8499 30.8805 37.8499C30.8505 37.8499 30.8505 37.8199 30.8505 37.7999C30.5205 37.7499 30.2605 37.9799 30.0305 38.1799C30.0305 38.1799 29.9605 38.1799 29.9305 38.1799C29.9205 38.1799 29.9105 38.1699 29.9005 38.1699C29.7005 38.2399 29.5205 38.3599 29.3405 38.4899C29.1805 38.5999 29.0205 38.7199 28.8305 38.7899V38.7399C28.7705 38.7599 28.7005 38.7899 28.6405 38.8199C28.5505 38.8599 28.4605 38.8999 28.3705 38.9199C28.1905 38.9599 28.0305 38.9499 27.8805 38.9499C27.8305 38.9499 27.7805 38.9499 27.7305 38.9499C27.4105 38.9899 27.1005 39.0399 26.7905 39.1199H26.7805C26.6105 39.1699 26.4505 39.2299 26.3005 39.3199C26.3005 39.3199 26.2905 39.3199 26.2805 39.3299C26.2705 39.3499 26.2505 39.3599 26.2405 39.3699C26.1905 39.4299 26.1305 39.4899 26.0605 39.5299C25.9505 39.5899 25.8505 39.6799 25.7505 39.7599C25.7105 39.7999 25.6705 39.8299 25.6305 39.8699C25.6205 39.8699 25.6005 39.8799 25.5905 39.8799C25.5505 39.9199 25.5005 39.9599 25.4605 39.9999C25.3605 40.0899 25.2705 40.1899 25.1705 40.2799C25.1505 40.2899 25.1205 40.2899 25.0905 40.2799C25.0905 40.2699 25.1005 40.2599 25.1105 40.2499C25.1305 40.2099 25.1505 40.1799 25.1805 40.1399C25.2105 40.0999 25.2305 40.0599 25.2605 40.0199C25.3005 39.9699 25.3305 39.9099 25.3705 39.8599C25.3705 39.8599 25.3705 39.8399 25.3705 39.8299C25.3705 39.8299 25.3505 39.8199 25.3305 39.8199C25.4605 39.6999 25.6105 39.5899 25.7705 39.4899C25.7505 39.4899 25.7305 39.4799 25.7405 39.4599C25.7405 39.4499 25.7605 39.4299 25.7705 39.4199C25.7705 39.4199 25.7805 39.3999 25.7905 39.3899V39.3699C25.7905 39.3699 25.7905 39.3699 25.7805 39.3599C25.7805 39.3599 25.7005 39.4099 25.6605 39.4399C25.6405 39.4599 25.6205 39.4799 25.6105 39.4999C25.5705 39.5499 25.5305 39.6099 25.4605 39.6099C25.4505 39.6099 25.4305 39.6099 25.4205 39.6099C25.4205 39.6099 25.4005 39.6099 25.3905 39.6099V39.5999L25.4005 39.5699V39.5499V39.5299C25.4005 39.5299 25.4205 39.5099 25.4305 39.4999V39.4899C25.4305 39.4899 25.4505 39.4499 25.4505 39.4399V39.4199L25.4705 39.3899V39.3699H25.4805V39.3399C25.4805 39.3399 25.4805 39.3199 25.4805 39.3099C25.4805 39.3099 25.4705 39.2899 25.4605 39.2899C25.5105 39.2299 25.5705 39.1699 25.6405 39.1399C25.7105 39.1099 25.7805 39.0699 25.8505 39.0299C25.8805 39.0099 25.9105 38.9899 25.9405 38.9799C25.9405 38.9799 25.9605 38.9599 25.9705 38.9599H25.9805C25.8305 38.9999 25.7005 39.0699 25.5705 39.1499C25.5505 39.1499 25.5405 39.1599 25.5305 39.1699C25.5105 39.1699 25.4805 39.1699 25.4705 39.1499C25.4705 39.1499 25.4705 39.1399 25.4705 39.1299C25.4905 39.0999 25.5205 39.0799 25.5505 39.0599C25.5805 39.0399 25.6005 39.0299 25.6205 38.9999C25.6505 38.9999 25.6705 38.9999 25.6705 39.0299C26.1905 38.6299 26.8205 38.5299 27.4605 38.4399C27.8505 38.3799 28.2405 38.3299 28.6005 38.1999L28.8305 38.0399C28.9005 38.0099 28.9605 37.9699 29.0205 37.9199C29.0805 37.8699 29.1405 37.8199 29.2205 37.7799C29.4305 37.6399 29.5905 37.4299 29.6605 37.1799C29.6605 37.1599 29.6505 37.1399 29.6305 37.1299C29.3005 37.4799 28.9205 37.7699 28.4905 37.9899C28.1005 38.1999 27.6805 38.2299 27.2605 38.2599C27.1005 38.2699 26.9405 38.2799 26.7805 38.3099C26.8105 38.2599 26.8605 38.2599 26.9105 38.2599C26.9105 38.1999 26.9405 38.1699 26.9805 38.1299C26.9905 38.1299 27.0005 38.1099 27.0105 38.0999H27.0905C27.0905 38.0999 27.1105 38.0899 27.1205 38.0699C27.1205 38.0599 27.1305 38.0399 27.1505 38.0399C27.2005 38.0399 27.2805 38.0099 27.2505 38.0099C27.2105 37.9599 27.1505 37.9799 27.0805 38.0099C27.0205 38.0299 26.9505 38.0599 26.8805 38.0099C26.9105 37.9799 26.9105 37.9499 26.9205 37.9299C26.9205 37.8999 26.9305 37.8699 26.9605 37.8599H27.0605C27.0605 37.8599 27.0805 37.7799 27.1105 37.7599C27.3405 37.6199 27.5605 37.4999 27.7805 37.3799C27.9305 37.2999 28.0805 37.2199 28.2205 37.1299C28.1905 37.1299 28.1605 37.1399 28.1405 37.1499C28.1005 37.1699 28.0605 37.1799 28.0105 37.1499C28.0405 37.1499 28.0405 37.1299 28.0405 37.1099C28.0405 37.0899 28.0405 37.0699 28.0705 37.0699C28.2305 37.0299 28.3805 36.9599 28.5305 36.8799C28.6405 36.8299 28.7505 36.7699 28.8805 36.7299C28.8405 36.7299 28.8105 36.7299 28.7805 36.7499C28.7205 36.7699 28.6605 36.7799 28.5905 36.7299C28.6105 36.7299 28.6205 36.7099 28.6405 36.6999C28.6705 36.6799 28.7005 36.6499 28.7505 36.6499V36.5699C28.7505 36.5699 28.7805 36.5399 28.8005 36.5399C28.7805 36.5399 28.7605 36.5299 28.7505 36.5099C28.7605 36.4799 28.7905 36.4799 28.8205 36.4699C28.8505 36.4699 28.8805 36.4599 28.9005 36.4299C28.8705 36.4299 28.8205 36.4299 28.8205 36.3999C28.9005 36.2999 29.0305 36.2699 29.1605 36.2399C29.1505 36.2099 29.1205 36.2099 29.1005 36.2099C29.0805 36.2099 29.0605 36.2099 29.0605 36.1799C29.0605 36.1499 29.0905 36.1499 29.1105 36.1499H29.0605C29.0605 36.1499 29.0305 36.0899 29.0305 36.0699V36.0499C29.1305 35.9299 29.1705 35.7799 29.2005 35.6399C29.2205 35.5699 29.2305 35.4999 29.2605 35.4299C29.2305 35.4299 29.2105 35.4299 29.2105 35.3999C28.9605 35.6799 28.5605 35.7799 28.1805 35.8799H28.1505H28.0205C27.8805 35.9399 27.7105 35.9299 27.5805 35.8499C27.5205 35.8199 27.4705 35.7799 27.4305 35.7299C27.4005 35.6999 27.3705 35.6699 27.3305 35.6399C27.1305 35.5099 26.9105 35.4099 26.6805 35.3299C26.0405 35.1199 25.3605 35.0199 24.6805 35.0399C24.8705 34.9399 25.0705 34.8999 25.2705 34.8599C25.3805 34.8399 25.4805 34.8199 25.5905 34.7799C25.6505 34.7599 25.7205 34.7399 25.7805 34.7199C26.1505 34.6099 26.5105 34.4999 26.9105 34.5199C26.8605 34.4999 26.7905 34.5099 26.7305 34.5199C26.7005 34.5199 26.6705 34.5199 26.6505 34.5199C26.3605 34.4999 26.0705 34.5599 25.7605 34.6299C25.6905 34.6499 25.6105 34.6599 25.5305 34.6799C25.4005 34.7099 25.2805 34.7399 25.1505 34.7799C25.0305 34.8199 24.9005 34.8599 24.7705 34.8799C24.7105 34.8999 24.6605 34.9399 24.6105 34.9699C24.5305 35.0299 24.4605 35.0799 24.3505 35.0599V34.9799C24.6105 34.6699 24.9205 34.3599 25.3405 34.3299C25.7305 34.2599 26.1105 34.3099 26.5005 34.3599C26.5705 34.3599 26.6405 34.3799 26.7205 34.3899C27.0505 34.4299 27.3805 34.4899 27.7105 34.5699C27.7805 34.5699 27.8205 34.6299 27.8605 34.6899C27.8905 34.7399 27.9205 34.7899 27.9705 34.7999C28.0305 34.8199 28.0905 34.8199 28.1605 34.8299C28.2505 34.8299 28.3505 34.8399 28.4405 34.8999C28.4405 34.8799 28.4405 34.8699 28.4405 34.8499C28.4405 34.8199 28.4305 34.7799 28.4405 34.7499C28.5005 34.6899 28.5705 34.7099 28.6305 34.7199C28.6805 34.7299 28.7305 34.7399 28.7805 34.7199C28.9205 34.6299 28.7805 34.4999 28.6505 34.3599C28.5905 34.2999 28.5205 34.2299 28.4905 34.1699C28.4905 34.1499 28.5005 34.1299 28.5205 34.1199C28.5805 34.1699 28.6405 34.2299 28.7005 34.2899C28.8305 34.4199 28.9605 34.5499 29.1505 34.6399C29.2805 34.6899 29.5905 34.7699 29.5405 34.6099C29.4505 34.4099 29.2905 34.2399 29.1405 34.0599C29.0705 33.9799 29.0105 33.9099 28.9405 33.8299V33.7299C28.9405 33.7299 28.8905 33.7199 28.8805 33.6999C28.8805 33.6999 28.8805 33.6899 28.8605 33.6799V33.5799C28.7905 33.5499 28.7805 33.4899 28.7705 33.4399C28.7705 33.4099 28.7505 33.3799 28.7305 33.3499C28.6905 33.2799 28.6805 33.1899 28.6805 33.0999C28.6805 33.0299 28.6805 32.9499 28.6505 32.8799C28.6005 32.7399 28.5705 32.5899 28.5505 32.4399C28.5205 32.2699 28.4905 32.0999 28.4505 31.9399C28.4005 31.6899 28.3505 31.4499 28.3205 31.1899C28.2805 30.8099 28.4705 30.4899 28.6705 30.1599C28.7305 30.0599 28.7905 29.9599 28.8405 29.8599C29.0205 29.5499 29.2305 29.2399 29.5705 29.0299C29.6505 28.7199 29.8505 28.4599 30.0605 28.1999C30.2705 27.9399 30.6105 27.7899 30.8605 27.6799C31.0905 27.5799 31.3205 27.4899 31.5505 27.4199H13.7305V41.1499H26.3405C26.6805 40.8999 27.0305 40.7399 27.4405 40.5599C27.6205 40.4799 27.8105 40.3899 28.0205 40.2899C28.0605 40.2699 28.1105 40.2499 28.1605 40.2199C28.5205 40.0399 29.1205 39.7499 29.3405 39.5299L29.3505 39.5799ZM25.2305 37.6899C25.2505 37.5999 25.3405 37.5699 25.4305 37.5499C25.4705 37.5399 25.5105 37.5299 25.5405 37.5099H25.5505L25.5605 37.4999C25.5605 37.4999 25.6705 37.4399 25.7205 37.4599C25.7505 37.4999 25.7905 37.5099 25.8205 37.5299C25.8505 37.5299 25.8805 37.5499 25.9005 37.5699C25.8105 37.6599 25.6905 37.6699 25.5805 37.6799C25.5005 37.6799 25.4305 37.6899 25.3605 37.7199C25.3505 37.7199 25.3305 37.7199 25.3205 37.7199C25.2705 37.7199 25.2205 37.7299 25.2305 37.6899ZM22.1905 35.7699C21.9605 36.2399 21.6805 36.6799 21.3605 37.0899C21.3605 37.1099 21.3705 37.1299 21.3905 37.1399C22.0105 36.4399 22.5805 35.8399 23.3905 35.3499C23.4105 35.3499 23.4005 35.3499 23.3905 35.3599C23.3705 35.3799 23.3505 35.4199 23.4105 35.3999C23.6805 35.3399 23.8005 35.1099 23.9205 34.8899C23.9505 34.8299 23.9805 34.7799 24.0105 34.7299C24.1305 34.5299 24.3005 34.4099 24.4805 34.2799C24.6105 34.1899 24.7305 34.0999 24.8405 33.9799C24.8405 34.0099 24.8405 34.0399 24.8105 34.0599C24.8305 34.0799 24.8605 34.0899 24.8905 34.0899C24.9405 34.0599 24.9905 34.0399 25.0305 34.0299C25.0905 34.0099 25.1505 33.9899 25.2005 33.9399C24.9805 33.8499 24.7505 33.8399 24.5305 33.9099C23.9805 34.1699 23.5205 34.5799 23.0805 35.0499C22.8205 35.3299 22.5405 35.5899 22.2005 35.7799L22.1905 35.7699ZM23.4605 35.5399C23.4605 35.5399 23.4005 35.6199 23.3605 35.6399C23.3305 35.6399 23.3105 35.6399 23.3105 35.6099C23.3305 35.4999 23.4105 35.4099 23.5205 35.3799C23.5505 35.3799 23.5505 35.4099 23.5505 35.4299C23.5405 35.4599 23.5205 35.4699 23.5105 35.4899C23.5005 35.4999 23.4805 35.5199 23.4705 35.5399H23.4605ZM24.7105 39.4399C24.7105 39.4399 24.7105 39.4099 24.6805 39.3999C24.7105 39.3799 24.7305 39.3499 24.7405 39.3199C24.7605 39.2699 24.6205 39.2799 24.6005 39.2999C24.5805 39.3199 24.5605 39.3399 24.5405 39.3599C24.5105 39.3999 24.4705 39.4299 24.4305 39.4599C24.4005 39.4899 24.3705 39.5099 24.3505 39.5399C24.3105 39.5699 24.2805 39.6099 24.2405 39.6399C24.2005 39.6799 24.3405 39.6999 24.3705 39.6699C24.4005 39.6399 24.4405 39.6099 24.4705 39.5799C24.4805 39.5799 24.5005 39.5799 24.5105 39.5799C24.5805 39.5499 24.6505 39.4999 24.7105 39.4399ZM24.2705 39.1099L24.2405 39.1299C24.1505 39.1899 24.0705 39.2499 23.9705 39.3099C23.8905 39.3599 23.8005 39.3999 23.7205 39.4399C23.6905 39.4499 23.6605 39.4699 23.6305 39.4799C23.6305 39.4699 23.6005 39.4599 23.5905 39.4699C23.4905 39.5199 23.4105 39.5899 23.3305 39.6699C23.3205 39.6799 23.3105 39.6899 23.2905 39.6999C23.2705 39.7199 23.2605 39.7299 23.2505 39.7399C23.2505 39.7399 23.2105 39.7799 23.1905 39.7999C23.1905 39.8099 23.1705 39.8299 23.1605 39.8399C23.1405 39.8499 23.1005 39.8499 23.1005 39.8199C23.0905 39.8199 23.0705 39.8399 23.0605 39.8399C23.0505 39.8399 23.0305 39.8499 23.0205 39.8599C23.0205 39.8599 23.0105 39.8599 23.0005 39.8599C23.0005 39.8599 22.9905 39.8599 22.9805 39.8599C22.9505 39.8799 22.9205 39.9099 22.8905 39.9399C22.8405 39.9899 22.7905 40.0399 22.7405 40.0999V40.1199C22.7405 40.1199 22.7405 40.1199 22.7405 40.1299V40.1499C22.7405 40.1499 22.7305 40.1599 22.7205 40.1599C22.7205 40.1599 22.7205 40.1499 22.7205 40.1399V40.1299C22.7205 40.1199 22.7005 40.0999 22.7005 40.0899C22.7005 40.0899 22.7605 40.0199 22.7805 39.9899C22.7805 39.9899 22.8005 39.9599 22.8105 39.9499L22.8505 39.8899C22.8505 39.8899 22.8505 39.8899 22.8505 39.8799C22.8505 39.8799 22.9105 39.7999 22.9305 39.7599C22.9405 39.7399 22.9505 39.7199 22.9705 39.6999C22.9805 39.6799 22.9905 39.6699 23.0005 39.6499C23.0005 39.6299 23.0205 39.6099 23.0205 39.5899V39.5799C23.0205 39.5799 23.0205 39.5799 23.0205 39.5699C23.0205 39.5699 23.0205 39.5499 23.0205 39.5399C23.0205 39.5399 23.0205 39.5099 23.0205 39.4999C23.0205 39.4999 23.0205 39.4899 23.0205 39.4799C23.0505 39.4299 23.0805 39.3799 23.1205 39.3399C23.1005 39.3499 23.0805 39.3699 23.0705 39.3899C23.0605 39.3999 23.0405 39.4199 23.0305 39.4299C23.0005 39.4499 22.9505 39.4199 22.9805 39.3899C23.0005 39.3699 23.0205 39.3599 23.0405 39.3399C23.0805 39.2899 23.1305 39.2399 23.1805 39.1999H23.1905C23.1905 39.1999 23.2405 39.1599 23.2605 39.1399C23.2605 39.1399 23.3005 39.0899 23.3205 39.0699C23.4705 38.9199 23.6905 38.8699 23.9105 38.8199C24.0505 38.7899 24.1905 38.7499 24.3205 38.6899C24.3905 38.6599 24.4705 38.6699 24.5505 38.6899C24.6105 38.6899 24.6805 38.7099 24.7305 38.6899C24.8105 38.6899 24.8905 38.6999 24.9605 38.7399C24.7805 38.8399 24.6105 38.9499 24.4405 39.0499C24.3905 39.0799 24.3405 39.1099 24.2905 39.1399L24.2705 39.1099ZM24.7005 37.2499H24.9105C24.9105 37.2499 24.8605 37.2799 24.8305 37.2899C24.8105 37.2899 24.8005 37.2899 24.8105 37.3099C24.8905 37.3899 25.0405 37.3599 25.1505 37.3099C25.2305 37.2699 25.3205 37.2499 25.4105 37.2599C25.4405 37.2599 25.4405 37.2099 25.4405 37.1799C25.5105 37.1999 25.5805 37.2099 25.6505 37.2099C26.2705 37.0799 26.8705 36.9499 27.4405 36.6599C26.8605 36.2199 26.1605 36.0199 25.4605 35.8299C25.3405 35.7999 25.2205 35.7599 25.1005 35.7299C25.1305 35.7299 25.1505 35.7299 25.1805 35.7499C25.2305 35.7699 25.2805 35.7799 25.3405 35.7299C25.2705 35.6699 25.1905 35.6599 25.1105 35.6499C25.0505 35.6499 24.9805 35.6299 24.9205 35.5999C24.9205 35.5999 24.9305 35.5999 24.9405 35.5999C24.9705 35.5999 25.0005 35.6099 25.0205 35.5699C24.8805 35.4999 24.7405 35.4799 24.6005 35.4499C24.5305 35.4399 24.4605 35.4299 24.3905 35.4099C24.5105 35.3899 24.6005 35.2799 24.6005 35.1499C24.6005 35.1199 24.5505 35.1199 24.5205 35.1199C24.2105 35.2799 24.0005 35.5599 23.8705 35.8999C23.9905 35.9699 24.1105 35.9599 24.2405 35.9499C24.3105 35.9499 24.3805 35.9499 24.4505 35.9499C24.3905 36.0099 24.3105 36.0199 24.2205 36.0399C24.1905 36.0399 24.1605 36.0499 24.1405 36.0599C24.0605 36.0799 23.9805 36.1399 24.0105 36.1899C24.0205 36.2099 24.0505 36.2199 24.0705 36.2299C24.0105 36.2499 23.9505 36.2799 23.9105 36.3199C23.9805 36.3799 24.0605 36.3699 24.1305 36.3499C24.1605 36.3499 24.1905 36.3499 24.2205 36.3499C24.2205 36.3799 24.2405 36.3999 24.2705 36.4099C24.2705 36.4099 24.2905 36.4199 24.3005 36.4299C24.1905 36.4699 24.0905 36.5599 24.0405 36.6599C24.0105 36.7399 23.9505 36.7899 23.8905 36.8399C23.8905 36.8399 23.8105 36.9099 23.7805 36.9499V37.0299C23.6905 37.1099 23.6005 37.1799 23.5105 37.2499C23.3305 37.3899 23.1605 37.5199 23.0305 37.7099C23.0605 37.7099 23.0605 37.7399 23.0605 37.7599C23.0405 37.7999 23.0005 37.8199 22.9705 37.8399C22.9305 37.8699 22.8905 37.8999 22.8805 37.9399C22.8805 37.9699 22.8805 37.9899 22.9105 37.9899C23.0705 37.9399 23.2205 37.8499 23.3505 37.7599C23.4805 37.6799 23.6005 37.5999 23.7405 37.5499C23.8505 37.5199 23.9505 37.4699 24.0405 37.4199C24.1205 37.3799 24.2005 37.3399 24.2805 37.3099C24.3405 37.2999 24.4205 37.2799 24.4905 37.2599C24.5605 37.2399 24.6305 37.2199 24.7005 37.2099C24.7005 37.2399 24.7005 37.2599 24.7305 37.2599L24.7005 37.2499ZM25.9005 39.5399C25.9005 39.5399 25.9705 39.4799 26.0005 39.4399C25.9705 39.4799 25.9305 39.5099 25.9005 39.5499V39.5399ZM30.9605 37.8399L30.9105 37.8799C30.9105 37.8799 30.9605 37.8799 30.9605 37.8399Z" fill="#000091"/>
<path d="M51.4997 27.47H36.7297C36.7297 27.47 36.8297 27.51 36.8697 27.54C36.9897 27.6 37.1497 27.69 37.2397 27.74C37.4397 27.83 37.6097 27.98 37.7297 28.16C37.7797 28.24 37.8597 28.39 37.8097 28.5C37.7597 28.63 37.7297 28.84 37.5997 28.89C37.4397 28.97 37.2397 28.97 37.0497 28.94C36.9397 28.94 36.8397 28.92 36.7397 28.89C37.1297 29.05 37.4897 29.23 37.7497 29.59C37.7797 29.64 37.8797 29.67 37.9797 29.67C38.0097 29.67 38.0097 29.72 38.0097 29.75C37.9597 29.8 37.9097 29.83 37.9297 29.91H38.0097C38.1397 29.86 38.1097 29.6 38.2997 29.68C38.4297 29.76 38.4797 29.93 38.3997 30.07C38.2997 30.16 38.1997 30.25 38.0897 30.33C38.0597 30.39 38.0597 30.45 38.0897 30.51C38.1497 30.6 38.1997 30.71 38.2197 30.82C38.2997 31 38.3197 31.21 38.3997 31.39C38.4997 31.78 38.6097 32.17 38.5797 32.56C38.5797 32.77 38.4797 32.95 38.5497 33.16C38.5997 33.37 38.7297 33.52 38.8397 33.7C38.9397 33.86 39.0497 33.96 39.1297 34.12C39.2897 34.38 39.5697 34.64 39.4397 34.95C39.3597 35.13 39.0797 35.11 38.8997 35.21C38.7397 35.34 38.8697 35.55 38.9497 35.68C39.0797 35.91 38.7897 36.07 38.6097 36.15C38.6597 36.23 38.7697 36.2 38.7897 36.25C38.8197 36.38 38.9497 36.46 38.8697 36.59C38.7697 36.75 38.4497 36.82 38.6097 37.06C38.7097 37.24 38.6497 37.44 38.5797 37.63C38.4997 37.86 38.2897 37.97 38.1097 38.02C37.9497 38.07 37.7797 38.08 37.6197 38.05C37.5697 38.02 37.5197 38 37.4597 38C37.0197 37.95 36.5797 37.82 36.1397 37.82C36.0097 37.84 35.8897 37.87 35.7797 37.92C35.6697 38 35.5597 38.1 35.4697 38.2C35.4697 38.2 35.4297 38.24 35.4097 38.27C35.3997 38.28 35.3897 38.3 35.3797 38.31C35.3797 38.31 35.3697 38.33 35.3597 38.34C35.2797 38.43 35.2197 38.53 35.1597 38.64C35.1597 38.64 35.1597 38.65 35.1497 38.66C35.1497 38.67 35.1397 38.68 35.1297 38.7C35.0497 38.85 34.9797 39.01 34.9297 39.18C34.7497 39.77 34.8297 40.28 34.9497 40.41C34.9797 40.44 35.8097 40.7 36.3797 40.95C36.5897 41.04 36.7997 41.14 36.9897 41.26H51.4997V27.53V27.47Z" fill="#E1000F"/>
<path d="M37.6104 32.48C37.7104 32.51 37.8703 32.51 37.8703 32.56C37.8203 32.77 37.5103 32.82 37.3503 33.03H37.2704C37.1904 33.08 37.2204 33.21 37.1404 33.21C37.0604 33.19 36.9804 33.21 36.9104 33.24C37.0104 33.34 37.1404 33.42 37.3004 33.4C37.3404 33.42 37.3804 33.46 37.3804 33.5C37.4004 33.5 37.4204 33.49 37.4304 33.47C37.4604 33.47 37.4804 33.47 37.4804 33.5V33.6C37.4004 33.7 37.2703 33.65 37.1703 33.68C37.3703 33.73 37.5704 33.73 37.7704 33.68C37.9304 33.63 37.7703 33.37 37.8703 33.24C37.8203 33.24 37.8704 33.16 37.8204 33.16C37.8704 33.11 37.9204 33.03 37.9804 33C38.0404 33 38.1004 32.97 38.1404 32.92C38.1404 32.87 38.0404 32.84 38.0604 32.79C38.2204 32.69 38.3504 32.53 38.2904 32.37C38.2604 32.29 38.0604 32.29 37.9304 32.24C37.8004 32.19 37.6404 32.24 37.4904 32.27C37.3604 32.27 37.2303 32.35 37.1003 32.37C36.9203 32.43 36.7604 32.52 36.6104 32.63C36.8004 32.56 36.9904 32.51 37.1804 32.47C37.3404 32.47 37.4703 32.43 37.6203 32.47L37.6104 32.48Z" fill="#808080"/>
<path d="M13.7795 58.3701H15.7295V51.4801L17.8695 55.0801H19.2395L21.3795 51.4801V58.3701H23.3295V48.7601H20.8995L18.5495 52.8001L16.1995 48.7601H13.7695V58.3701H13.7795ZM26.2295 58.3701H28.1795V48.7601H26.2295V58.3701ZM31.0695 58.3701H33.0195V51.4201L37.3195 58.3701H39.8195V48.7601H37.8695V55.7101L33.5695 48.7601H31.0695V58.3701ZM42.7095 58.3701H44.6595V48.7601H42.7095V58.3701ZM46.6895 57.0401C47.5395 58.0601 48.6295 58.6501 50.2495 58.6501C52.0195 58.6501 53.4195 57.5701 53.4495 55.7501C53.4495 52.4501 49.0795 52.9501 49.0795 51.2001C49.0795 50.6201 49.5295 50.1801 50.2195 50.1801C50.9495 50.1801 51.5795 50.6601 52.1395 51.3901L53.5695 50.1001C52.7495 49.1201 51.6495 48.4801 50.2095 48.4801C48.3695 48.4801 47.1095 49.7401 47.1095 51.2701C47.1095 54.5201 51.4795 54.0401 51.4795 55.8201C51.4795 56.5101 51.0095 56.9201 50.2395 56.9201C49.4695 56.9201 48.6895 56.4801 48.1095 55.7401L46.6995 57.0401H46.6895ZM54.6395 50.5301H57.6095V58.3701H59.5595V50.5301H62.5295V48.7601H54.6495V50.5301H54.6395ZM66.3795 47.9301H68.1695L66.6195 46.0801H64.6095L66.3795 47.9301ZM64.4395 58.3701H70.0395V56.7501H66.3895V54.2801H69.4895V52.6601H66.3895V50.3801H70.0395V48.7601H64.4395V58.3701ZM72.5195 58.3701H74.4695V54.4801H75.4695L78.0395 58.3701H80.3295L77.3195 54.1101C78.3095 53.6601 78.8695 52.7901 78.8695 51.6201C78.8695 49.8301 77.5695 48.7501 75.4495 48.7501H72.5095V58.3601L72.5195 58.3701ZM75.5695 50.3801C76.3895 50.3801 76.8695 50.8701 76.8695 51.6001C76.8695 52.3801 76.3895 52.8601 75.5695 52.8601H74.4695V50.3701H75.5695V50.3801ZM81.7795 58.3701H87.3795V56.7501H83.7295V54.2801H86.8295V52.6601H83.7295V50.3801H87.3795V48.7601H81.7795V58.3701ZM13.7795 72.7901H17.5595C20.6095 72.7901 22.6695 70.5801 22.6695 67.9801C22.6695 65.3801 20.6095 63.1701 17.5595 63.1701H13.7795V72.7801V72.7901ZM17.5795 64.9501C19.3695 64.9501 20.6595 66.2701 20.6595 67.9901C20.6595 69.7101 19.3695 71.0301 17.5795 71.0301H15.7295V64.9601H17.5795V64.9501ZM30.4195 69.1901C30.4195 70.4801 29.6795 71.2401 28.4795 71.2401C27.2795 71.2401 26.5295 70.4801 26.5295 69.1901V63.1701H24.5795V69.0201C24.5795 71.5501 26.0595 73.0601 28.4695 73.0601C30.8795 73.0601 32.3695 71.5501 32.3695 69.0201V63.1701H30.4195V69.1901ZM37.7795 64.9501H40.7495V72.7901H42.6995V64.9501H45.6695V63.1801H37.7895V64.9501H37.7795ZM47.5795 72.7901H49.5295V68.9001H50.5295L53.0995 72.7901H55.3895L52.3795 68.5301C53.3695 68.0801 53.9295 67.2101 53.9295 66.0401C53.9295 64.2501 52.6295 63.1701 50.5095 63.1701H47.5695V72.7801L47.5795 72.7901ZM50.6295 64.8001C51.4495 64.8001 51.9295 65.2901 51.9295 66.0201C51.9295 66.8001 51.4495 67.2801 50.6295 67.2801H49.5295V64.7901H50.6295V64.8001ZM56.0395 72.7901H58.1095L59.0295 70.2901H62.8795L63.7995 72.7901H65.8695L62.2295 63.1801H59.6795L56.0395 72.7901ZM59.6395 68.6301L60.9595 65.0201L62.2795 68.6301H59.6395ZM65.5095 63.1801L69.1495 72.7901H71.6995L75.3395 63.1801H73.2695L70.4295 70.6901L67.5895 63.1801H65.5195H65.5095ZM74.9795 72.7901H77.0495L77.9695 70.2901H81.8195L82.7395 72.7901H84.8095L81.1695 63.1801H78.6195L74.9795 72.7901ZM78.5795 68.6301L79.8995 65.0201L81.2195 68.6301H78.5795ZM86.5095 72.7901H88.4595V63.1801H86.5095V72.7901ZM91.3495 72.7901H96.9495V71.0201H93.2995V63.1801H91.3495V72.7901ZM100.05 74.9901L101.64 70.8801H99.6795L98.4295 74.9901H100.05ZM13.7695 87.2101H17.5495C20.5995 87.2101 22.6595 85.0001 22.6595 82.4001C22.6595 79.8001 20.5995 77.5901 17.5495 77.5901H13.7695V87.2001V87.2101ZM17.5695 79.3701C19.3595 79.3701 20.6495 80.6901 20.6495 82.4101C20.6495 84.1301 19.3595 85.4501 17.5695 85.4501H15.7195V79.3801H17.5695V79.3701ZM24.7395 87.2101H30.3395V85.5901H26.6895V83.1201H29.7895V81.5001H26.6895V79.2201H30.3395V77.6001H24.7395V87.2101ZM36.5895 87.2101H42.1895V85.4401H38.5395V77.6001H36.5895V87.2101ZM43.5995 81.5501L45.1895 77.5901H43.2095L41.9695 81.5501H43.5895H43.5995ZM46.9195 87.2101H52.5195V85.5901H48.8695V83.1201H51.9695V81.5001H48.8695V79.2201H52.5195V77.6001H46.9195V87.2101ZM54.9995 87.2101H56.9495V80.3201L59.0895 83.9201H60.4595L62.5995 80.3201V87.2101H64.5495V77.6001H62.1195L59.7695 81.6401L57.4195 77.6001H54.9895V87.2101H54.9995ZM67.4495 87.2101H69.3995V83.3201H70.6195C72.7395 83.3201 74.0295 82.2401 74.0295 80.4601C74.0295 78.6801 72.7395 77.5901 70.6195 77.5901H67.4495V87.2001V87.2101ZM70.7095 79.2201C71.5295 79.2201 72.0295 79.7101 72.0295 80.4401C72.0295 81.2201 71.5395 81.7001 70.7095 81.7001H69.4095V79.2101H70.7095V79.2201ZM75.8495 87.2101H81.4495V85.4401H77.7995V77.6001H75.8495V87.2101ZM87.3095 77.3201C84.2695 77.3201 82.1995 79.6501 82.1995 82.4001C82.1995 85.1501 84.2695 87.4801 87.3095 87.4801C90.3495 87.4801 92.4095 85.1501 92.4095 82.4001C92.4095 79.6501 90.3395 77.3201 87.3095 77.3201ZM87.3095 85.6601C85.4995 85.6601 84.2095 84.2501 84.2095 82.4101C84.2095 80.5701 85.4995 79.1601 87.3095 79.1601C89.1195 79.1601 90.3995 80.5701 90.3995 82.4101C90.3995 84.2501 89.1095 85.6601 87.3095 85.6601ZM94.4795 87.2101H96.4295V77.6001H94.4795V87.2101ZM13.7795 101.63H19.3795V100.01H15.7295V97.5401H18.8295V95.9201H15.7295V93.6401H19.3795V92.0201H13.7795V101.63ZM21.0695 93.7901H24.0395V101.63H25.9895V93.7901H28.9595V92.0201H21.0795V93.7901H21.0695ZM34.6395 101.63H38.4195C41.4695 101.63 43.5295 99.4201 43.5295 96.8201C43.5295 94.2201 41.4695 92.0101 38.4195 92.0101H34.6395V101.62V101.63ZM38.4395 93.7901C40.2295 93.7901 41.5195 95.1101 41.5195 96.8301C41.5195 98.5501 40.2295 99.8701 38.4395 99.8701H36.5895V93.8001H38.4395V93.7901ZM45.6095 101.63H51.2095V100.01H47.5595V97.5401H50.6595V95.9201H47.5595V93.6401H51.2095V92.0201H45.6095V101.63ZM57.4595 101.63H63.0595V99.8601H59.4095V92.0201H57.4595V101.63ZM64.4695 95.9701L66.0595 92.0101H64.0795L62.8395 95.9701H64.4595H64.4695ZM67.7895 101.63H69.7395V92.0201H67.7895V101.63ZM72.6295 101.63H74.5795V94.6801L78.8795 101.63H81.3795V92.0201H79.4295V98.9701L75.1295 92.0201H72.6295V101.63ZM83.4095 100.3C84.2595 101.32 85.3495 101.91 86.9695 101.91C88.7395 101.91 90.1395 100.83 90.1695 99.0101C90.1695 95.7101 85.7995 96.2101 85.7995 94.4601C85.7995 93.8801 86.2495 93.4401 86.9395 93.4401C87.6695 93.4401 88.2995 93.9201 88.8595 94.6501L90.2895 93.3601C89.4695 92.3801 88.3695 91.7401 86.9295 91.7401C85.0895 91.7401 83.8295 93.0001 83.8295 94.5301C83.8295 97.7801 88.1995 97.3001 88.1995 99.0801C88.1995 99.7701 87.7295 100.18 86.9595 100.18C86.1895 100.18 85.4095 99.7401 84.8295 99.0001L83.4195 100.3H83.4095ZM92.4195 101.63H98.0195V100.01H94.3695V97.5401H97.4695V95.9201H94.3695V93.6401H98.0195V92.0201H92.4195V101.63ZM100.5 101.63H102.45V97.7401H103.45L106.02 101.63H108.31L105.3 97.3701C106.29 96.9201 106.85 96.0501 106.85 94.8801C106.85 93.0901 105.55 92.0101 103.43 92.0101H100.49V101.62L100.5 101.63ZM103.55 93.6401C104.37 93.6401 104.85 94.1301 104.85 94.8601C104.85 95.6401 104.37 96.1201 103.55 96.1201H102.45V93.6301H103.55V93.6401ZM108.34 93.7901H111.31V101.63H113.26V93.7901H116.23V92.0201H108.35V93.7901H108.34ZM118.14 101.63H120.09V92.0201H118.14V101.63ZM127.27 91.7401C124.23 91.7401 122.16 94.0701 122.16 96.8201C122.16 99.5701 124.23 101.9 127.27 101.9C130.31 101.9 132.37 99.5701 132.37 96.8201C132.37 94.0701 130.3 91.7401 127.27 91.7401ZM127.27 100.08C125.46 100.08 124.17 98.6701 124.17 96.8301C124.17 94.9901 125.46 93.5801 127.27 93.5801C129.08 93.5801 130.36 94.9901 130.36 96.8301C130.36 98.6701 129.07 100.08 127.27 100.08ZM134.44 101.63H136.39V94.6801L140.69 101.63H143.19V92.0201H141.24V98.9701L136.94 92.0201H134.44V101.63Z" fill="#1E1E1E"/>
<path fill-rule="evenodd" clip-rule="evenodd" d="M49.4097 126.15L48.1297 127.32H47.7997L48.5597 125.99H49.4097V126.15ZM48.4897 130.67H48.2197C47.8797 131.08 47.4897 131.41 47.1197 131.41C46.7497 131.41 46.5397 131.18 46.5397 130.67C46.5397 130.46 46.5697 130.24 46.6097 130.05L48.8497 129.31C49.2897 128.27 48.7697 127.81 48.1497 127.81C47.0897 127.81 45.8797 129.66 45.8797 131.15C45.8797 131.85 46.2097 132.23 46.7297 132.23C47.3297 132.22 47.9697 131.63 48.4897 130.66V130.67ZM47.7197 128.42C48.0197 128.42 48.2797 128.65 48.1497 129.19L46.7597 129.56C46.9797 128.9 47.3897 128.42 47.7197 128.42ZM43.3497 128.45H44.0897L42.9097 131.69C42.7997 131.96 42.9497 132.24 43.2397 132.24C44.0797 132.24 45.0797 131.53 45.4597 130.51H45.2497C44.9497 130.94 44.2897 131.4 43.7897 131.49L44.8697 128.45H45.9797L46.1197 127.98H45.0397L45.4497 126.81H45.0197L44.2497 127.98L43.3297 128.1V128.44L43.3497 128.45ZM42.3197 127.83C42.4697 127.83 42.6797 127.99 42.5797 128.3L41.2497 131.53C41.5897 131.48 41.9497 131.15 42.1597 130.84H42.3797C42.0597 131.65 41.3497 132.24 40.7297 132.24C40.5797 132.24 40.3597 132.08 40.4697 131.77L41.7097 128.54C41.3697 128.59 41.0097 128.92 40.7997 129.23H40.5897C40.9097 128.41 41.6697 127.83 42.3197 127.83ZM42.6997 127.01C42.9697 127.01 43.2097 126.79 43.2097 126.5C43.2097 126.21 42.9797 125.99 42.6997 125.99C42.4097 125.99 42.1897 126.22 42.1897 126.5C42.1897 126.78 42.4197 127.01 42.6997 127.01ZM36.6997 129.69C36.9997 129.03 36.8897 128.73 36.6997 128.73C36.5397 128.73 36.3397 128.91 36.1497 129.24H35.9397C36.2597 128.54 36.6697 127.84 37.1197 127.84C37.4997 127.84 37.6397 128.22 37.6397 128.65V129.25C37.6997 129.18 37.7597 129.11 37.8197 129.04C38.3997 128.36 38.8397 127.84 39.3497 127.84C39.7497 127.84 39.9497 128.09 39.9497 128.46C39.9497 128.68 39.8797 128.95 39.7297 129.24L38.5897 131.53C38.9297 131.48 39.2897 131.15 39.4997 130.84H39.7097C39.3897 131.66 38.6297 132.24 37.9797 132.24C37.6897 132.24 37.5297 131.94 37.6497 131.69L38.9697 129.15C39.1197 128.86 39.1497 128.67 38.9197 128.67C38.5997 128.67 37.8597 129.19 37.4597 129.67L36.5897 131.95C36.4897 132.18 36.3997 132.24 36.1797 132.24C35.8197 132.24 35.6397 132.01 35.8097 131.64L36.6897 129.69H36.6997ZM35.8097 128.81C35.9597 128.29 35.8797 127.82 35.4797 127.82C34.9797 127.82 34.8297 128.15 34.3497 129.16L34.3197 129.23V128.63C34.3197 128.2 34.1797 127.82 33.7997 127.82C33.3497 127.82 32.9297 128.52 32.6197 129.22H32.8297C33.0497 128.9 33.2597 128.71 33.4197 128.71C33.6097 128.71 33.7197 129.01 33.4197 129.67L32.5397 131.62C32.3797 131.99 32.5497 132.22 32.9097 132.22C33.1297 132.22 33.2297 132.17 33.3197 131.93L34.1897 129.65C34.4397 129.35 34.6597 129.09 34.9297 128.8H35.8197L35.8097 128.81ZM31.4697 129.19C31.6097 128.65 31.3497 128.42 31.0397 128.42C30.7097 128.42 30.2997 128.9 30.0797 129.56L31.4697 129.19ZM31.8097 130.67H31.5397C31.1997 131.08 30.8097 131.41 30.4397 131.41C30.0697 131.41 29.8597 131.18 29.8597 130.67C29.8597 130.46 29.8897 130.24 29.9297 130.05L32.1697 129.31C32.6097 128.27 32.0897 127.81 31.4697 127.81C30.4097 127.81 29.1997 129.66 29.1997 131.15C29.1997 131.85 29.5297 132.23 30.0497 132.23C30.6497 132.22 31.2897 131.63 31.8097 130.66V130.67ZM27.4197 128.45H26.6797V128.11L27.5997 127.99L28.3697 126.82H28.7997L28.3897 127.99H29.4697L29.3297 128.46H28.2197L27.1397 131.5C27.6297 131.42 28.2897 130.95 28.5997 130.52H28.8097C28.4297 131.54 27.4197 132.25 26.5897 132.25C26.2997 132.25 26.1497 131.98 26.2597 131.7L27.4397 128.46L27.4197 128.45ZM22.7497 130.96C22.7497 129.96 23.8597 128.61 24.4797 128.61C24.6197 128.61 24.7497 128.62 24.8597 128.66L24.2097 130.39C23.8397 130.84 23.2597 131.39 22.9897 131.39C22.8397 131.39 22.7397 131.25 22.7397 130.95L22.7497 130.96ZM25.8097 127.61L26.1497 127.64L24.9597 130.39C24.6697 131.05 24.7997 131.35 24.9597 131.35C25.1197 131.35 25.3297 131.16 25.5497 130.84H25.7597C25.4397 131.54 25.0297 132.24 24.5797 132.24C24.1997 132.24 23.9597 131.83 24.0297 131.09L24.0597 130.83L23.9897 130.93C23.4997 131.62 23.0497 132.24 22.5997 132.24C22.1997 132.24 21.9997 131.99 21.9997 131.62C21.9997 130.03 23.7397 127.99 25.3797 127.99H25.4497L25.8297 127.61H25.8097ZM22.6597 128.8C22.8097 128.28 22.7297 127.81 22.3297 127.81C21.8297 127.81 21.6797 128.14 21.1997 129.15L21.1697 129.22V128.62C21.1697 128.19 21.0297 127.81 20.6497 127.81C20.1997 127.81 19.7797 128.51 19.4697 129.21H19.6797C19.8997 128.89 20.1097 128.7 20.2597 128.7C20.4497 128.7 20.5597 129 20.2597 129.66L19.3797 131.62C19.2197 131.99 19.3897 132.22 19.7497 132.22C19.9697 132.22 20.0697 132.17 20.1597 131.93L21.0297 129.65C21.2797 129.35 21.4997 129.09 21.7697 128.8H22.6797H22.6597ZM16.9997 131.82L16.9197 132.07H13.7197L13.7997 131.81C14.7897 131.63 14.9497 131.55 15.3697 130.44L16.2597 128.05C16.6597 126.94 16.5797 126.86 15.7097 126.68L15.7897 126.43H19.9497L19.6997 127.76H19.3997C19.3997 126.96 19.3197 126.76 18.5597 126.76H18.3697C17.6297 126.76 17.5297 126.87 17.3297 127.45L16.7397 129.06H17.6097C18.1897 129.06 18.4097 128.7 18.6697 128.24H18.9697L18.2597 130.19H17.9597C18.0297 129.6 18.0297 129.37 17.4897 129.37H16.6197L16.2197 130.47C15.7897 131.61 15.9097 131.64 16.9397 131.83C16.9597 131.83 16.9797 131.83 17.0097 131.84L16.9997 131.82Z" fill="black"/>
<path fill-rule="evenodd" clip-rule="evenodd" d="M19.7402 115.64L18.4602 116.56L18.1302 116.57L18.8902 115.47H19.7402V115.63V115.64ZM28.6702 122.08L30.7202 116.64L30.6502 116.56L29.2402 116.72V116.88L29.5102 117.09C29.7402 117.27 29.6802 117.44 29.4902 117.98L29.4602 118.07L27.8902 122.25C27.7702 122.5 27.9302 122.8 28.2202 122.8C28.8702 122.8 29.5502 122.21 29.8702 121.4H29.6602C29.4402 121.7 29.0002 122.03 28.6702 122.09V122.08ZM38.0502 117.89L39.3302 116.72V116.56H38.4802L37.7202 117.89H38.0502ZM38.1302 121.23H38.4002C37.8902 122.21 37.2602 122.8 36.6602 122.8C36.1402 122.8 35.8102 122.42 35.8102 121.72C35.8102 120.24 37.0202 118.38 38.0802 118.38C38.6802 118.38 39.2202 118.83 38.7802 119.88L36.5302 120.62C36.4902 120.81 36.4602 121.03 36.4602 121.24C36.4602 121.75 36.6502 121.98 37.0402 121.98C37.4302 121.98 37.8002 121.65 38.1402 121.24L38.1302 121.23ZM38.0602 119.75C38.2002 119.23 37.9402 118.99 37.6302 118.99C37.3202 118.99 36.9002 119.47 36.6702 120.12L38.0602 119.75ZM34.0202 119.02H33.2802V118.68L34.2002 118.56L34.9702 117.39H35.4002L34.9902 118.56H36.0702L35.9302 119.03H34.8202L33.7402 122.07C34.2302 121.99 34.8902 121.52 35.2002 121.09H35.4102C35.0302 122.11 34.0202 122.82 33.1902 122.82C32.9002 122.82 32.7502 122.55 32.8602 122.27L34.0402 119.03L34.0202 119.02ZM32.5102 118.86C32.5902 118.56 32.4002 118.39 32.2402 118.39C31.5902 118.39 30.8302 118.98 30.5102 119.79H30.7202C30.9302 119.49 31.2802 119.16 31.6302 119.1L30.3902 122.33C30.2802 122.63 30.5002 122.8 30.6502 122.8C31.2702 122.8 31.9802 122.21 32.3002 121.4H32.0902C31.8802 121.7 31.5302 122.03 31.1802 122.09L32.5102 118.86ZM33.1402 117.07C33.1402 117.34 32.9102 117.58 32.6302 117.58C32.3502 117.58 32.1202 117.35 32.1202 117.07C32.1202 116.79 32.3402 116.56 32.6302 116.56C32.9202 116.56 33.1402 116.79 33.1402 117.07ZM26.2002 119.19C25.5802 119.19 24.4702 120.54 24.4702 121.54C24.4702 121.84 24.5702 121.98 24.7302 121.98C24.9902 121.98 25.5702 121.43 25.9402 120.98L26.5902 119.25C26.4702 119.21 26.3402 119.2 26.2102 119.2L26.2002 119.19ZM27.8802 118.21L27.5402 118.18L27.1602 118.56H27.0902C25.4602 118.56 23.7102 120.59 23.7102 122.19C23.7102 122.56 23.9202 122.81 24.3102 122.81C24.7702 122.81 25.2102 122.19 25.7002 121.5L25.7702 121.4L25.7402 121.66C25.6702 122.4 25.9002 122.81 26.2902 122.81C26.7402 122.81 27.1602 122.11 27.4702 121.41H27.2602C27.0402 121.73 26.8302 121.92 26.6702 121.92C26.5102 121.92 26.3802 121.62 26.6702 120.96L27.8602 118.21H27.8802ZM20.9602 122.66C20.3702 122.89 19.9602 123.17 19.9602 123.59C19.9602 123.99 20.3302 124.15 21.1002 124.15C22.1302 124.15 22.6902 123.85 22.6902 123.45C22.6902 123.27 22.4602 123.19 21.8402 122.98C21.4402 122.86 21.1502 122.75 20.9602 122.65V122.66ZM21.6502 120.97C21.3802 120.97 21.2802 120.74 21.2802 120.49C21.2802 119.69 21.6602 118.7 22.2802 118.7C22.5502 118.7 22.6502 118.93 22.6502 119.18C22.6402 119.99 22.2502 120.97 21.6502 120.97ZM22.1702 122.26C22.9302 122.49 23.3902 122.67 23.3902 123.19C23.3902 123.86 22.1502 124.66 20.6602 124.65C19.7902 124.65 19.0502 124.42 19.0502 123.85C19.0502 123.28 19.5402 122.87 20.7502 122.52C20.5902 122.41 20.5202 122.27 20.5202 122.08C20.5202 121.75 20.8202 121.49 21.3402 121.24C20.8302 121.17 20.5002 120.79 20.5002 120.22C20.5002 119.35 21.2102 118.37 22.3402 118.37C22.5702 118.37 22.7802 118.42 22.9402 118.53H24.1802L24.0402 119H23.3102C23.3502 119.12 23.3802 119.26 23.3802 119.41C23.3802 120.25 22.7102 121.21 21.6402 121.26C21.3702 121.41 21.2302 121.62 21.2302 121.78C21.2302 121.97 21.4502 122.04 21.9502 122.18C22.0202 122.2 22.0902 122.22 22.1602 122.24L22.1702 122.26ZM17.8202 119.91C18.3602 119.91 18.3702 120.14 18.2902 120.73H18.5902L19.3002 118.78H19.0002C18.7402 119.25 18.5202 119.6 17.9402 119.6H16.7602L17.3402 117.99C17.5502 117.41 17.6402 117.3 18.3802 117.3H18.9002C19.6602 117.3 19.7402 117.51 19.7402 118.3H20.0402L20.2902 116.97H15.8102L15.7302 117.22C16.6002 117.4 16.6802 117.48 16.2802 118.59L15.3902 120.99C14.9802 122.1 14.8102 122.18 13.8102 122.36L13.7402 122.62H18.7102L19.6002 121.21H19.2602C18.6802 121.77 18.1102 122.29 16.9802 122.29C15.7402 122.29 15.7602 122.23 16.1402 121.21C16.1602 121.14 16.1902 121.07 16.2202 121L16.6302 119.9H17.8202V119.91Z" fill="black"/>
<path fill-rule="evenodd" clip-rule="evenodd" d="M21.9197 108.14C22.1897 108.14 22.4297 107.91 22.4297 107.63C22.4297 107.35 22.1997 107.12 21.9197 107.12C21.6297 107.12 21.4097 107.35 21.4097 107.63C21.4097 107.92 21.6297 108.14 21.9197 108.14ZM23.1097 113.36C24.1797 113.37 25.9797 111.4 25.9797 109.87C25.9797 109.21 25.8197 108.96 25.3497 108.96C24.7697 108.96 24.2397 109.58 23.6997 110.32L24.8497 107.23L24.7797 107.13L23.3697 107.29V107.45L23.6397 107.66C23.8797 107.85 23.8097 108.03 23.6097 108.58L23.5897 108.64L22.3397 111.91C22.2297 112.18 22.1097 112.51 22.1097 112.6C22.1097 112.98 22.6297 113.36 23.1097 113.36ZM37.8897 108.47L39.1697 107.3V107.14H38.3197L37.5597 108.47H37.8897ZM37.9697 111.81H38.2397C37.7197 112.79 37.0897 113.38 36.4797 113.36C35.9597 113.36 35.6297 112.99 35.6297 112.29C35.6297 110.81 36.8397 108.95 37.8997 108.95C38.4997 108.95 39.0397 109.4 38.5997 110.45L36.3597 111.19C36.3197 111.38 36.2897 111.6 36.2897 111.81C36.2897 112.32 36.4797 112.55 36.8697 112.55C37.2597 112.55 37.6297 112.22 37.9697 111.81ZM37.8997 110.33C38.0397 109.81 37.7797 109.57 37.4697 109.57C37.1397 109.57 36.7297 110.05 36.5097 110.7L37.8997 110.33ZM33.8497 109.6H33.1097V109.26L34.0297 109.14L34.7997 107.97H35.2297L34.8197 109.14H35.8997L35.7597 109.61H34.6497L33.5697 112.65C34.0597 112.57 34.7197 112.1 35.0297 111.67H35.2397C34.8597 112.69 33.8497 113.4 33.0197 113.4C32.7297 113.4 32.5797 113.13 32.6897 112.85L33.8697 109.61L33.8497 109.6ZM32.7197 109.96C32.8697 109.44 32.7897 108.97 32.3897 108.97C31.8897 108.97 31.7397 109.3 31.2597 110.31L31.2297 110.38V109.78C31.2297 109.35 31.0897 108.97 30.7097 108.97C30.2597 108.97 29.8397 109.67 29.5297 110.37H29.7397C29.9597 110.05 30.1697 109.86 30.3197 109.86C30.5097 109.86 30.6197 110.16 30.3197 110.82L29.4397 112.77C29.2797 113.14 29.4497 113.37 29.8097 113.37C30.0297 113.37 30.1297 113.32 30.2197 113.08L31.0897 110.8C31.3397 110.5 31.5597 110.24 31.8297 109.95H32.7397L32.7197 109.96ZM28.3697 110.33C28.5097 109.81 28.2497 109.57 27.9397 109.57C27.6097 109.57 27.2097 110.05 26.9797 110.7L28.3697 110.33ZM28.7097 111.81H28.4397C28.0997 112.22 27.7097 112.55 27.3397 112.55C26.9697 112.55 26.7597 112.32 26.7597 111.81C26.7597 111.6 26.7897 111.38 26.8297 111.19L29.0697 110.45C29.5097 109.41 28.9897 108.95 28.3697 108.95C27.3097 108.95 26.0997 110.8 26.0997 112.29C26.0997 112.99 26.4297 113.36 26.9497 113.36C27.5497 113.37 28.1897 112.78 28.7097 111.81ZM22.9397 112.33C22.9397 112.51 23.2597 112.71 23.4797 112.71C24.3697 112.71 25.2097 111.1 25.1997 110.21C25.1997 109.91 25.0497 109.78 24.8397 109.78C24.5097 109.78 23.9097 110.27 23.5197 110.74L23.1597 111.7C23.0397 112.02 22.9397 112.26 22.9397 112.32V112.33ZM21.4997 108.97C21.6597 108.97 21.8597 109.13 21.7697 109.44L20.4497 112.67C20.7897 112.62 21.1497 112.29 21.3597 111.98H21.5697C21.2497 112.79 20.5397 113.38 19.9197 113.38C19.7597 113.38 19.5397 113.22 19.6497 112.91L20.8897 109.68C20.5497 109.73 20.1897 110.06 19.9797 110.37H19.7697C20.0897 109.56 20.8497 108.97 21.4997 108.97ZM15.7997 107.54H18.7497L18.6697 107.8C17.6697 107.98 17.4997 108.06 17.0897 109.17L16.2097 111.59C15.7797 112.74 15.8897 112.88 16.6497 112.88C17.5797 112.88 18.1997 112.2 18.7297 111.61C18.7697 111.57 18.8097 111.52 18.8497 111.48H19.1897L18.2097 113.21H13.7197L13.7997 112.96C14.7897 112.78 14.9497 112.7 15.3697 111.59L16.2597 109.16C16.6597 108.05 16.5797 107.97 15.7097 107.79L15.7897 107.54H15.7997Z" fill="black"/>
</svg>
