<svg width="160" height="160" viewBox="0 0 160 160" fill="none" xmlns="http://www.w3.org/2000/svg">
<g clip-path="url(#clip0_877_27482)">
<path fill-rule="evenodd" clip-rule="evenodd" d="M122.439 93.37L124.409 90.97C126.169 88.94 127.419 86.99 128.159 85.06L143.189 103.41C145.919 106.91 145.789 107.55 141.239 107.55H139.679C135.129 107.55 133.449 106.64 130.719 103.41L122.439 93.37ZM122.439 68.41L130.719 58.37C133.449 55.13 135.139 54.23 139.679 54.23H141.239C145.789 54.23 145.919 54.88 143.189 58.37L128.159 76.72C127.419 74.79 126.169 72.84 124.409 70.81L122.439 68.41Z" fill="url(#paint0_linear_877_27482)"/>
<path fill-rule="evenodd" clip-rule="evenodd" d="M99.4898 107.56C94.9398 107.56 94.8098 106.91 97.5398 103.42L113.13 84.39C114.3 82.97 114.95 81.8 114.95 80.89C114.95 79.85 114.3 78.69 113.13 77.39L97.5398 58.36C94.8098 54.86 94.9398 54.22 99.4898 54.22H101.05C105.6 54.22 107.28 55.13 110.01 58.36L121.96 72.86C127.03 78.69 127.03 83.09 121.96 88.91L110.01 103.41C107.28 106.65 105.59 107.55 101.05 107.55H99.4898V107.56Z" fill="url(#paint1_linear_877_27482)"/>
<path fill-rule="evenodd" clip-rule="evenodd" d="M15 124.15C15 128.02 15.97 128.98 19.85 128.98H21.14C25.02 128.98 25.99 128.01 25.99 124.15V101.71C28.9 106.33 34.18 108.69 41.83 108.69C56.8 108.69 64.24 100.85 64.24 85.2801V75.9401C64.24 60.3701 56.27 53.0701 39.57 53.0701C24.06 53.0701 15.01 60.5901 15.01 75.9401V124.15H15ZM53.13 85.5001C53.13 94.5201 50.11 98.2801 39.66 98.2801C29.21 98.2801 25.98 94.4101 25.98 85.5001V76.2701C25.98 67.2501 29.21 63.3901 39.66 63.3901C50.11 63.3901 53.13 67.2601 53.13 76.2701V85.5001Z" fill="url(#paint2_linear_877_27482)"/>
<path fill-rule="evenodd" clip-rule="evenodd" d="M74.5898 102.6C74.5898 106.47 75.5598 107.43 79.4398 107.43H80.8398C84.7198 107.43 85.6898 106.46 85.6898 102.6V59.01C85.6898 55.14 84.7198 54.18 80.8398 54.18H79.4398C75.5598 54.18 74.5898 55.15 74.5898 59.01V102.6ZM75.3398 42.58C78.0298 45.16 82.3398 45.16 84.9298 42.58C87.6198 39.9 87.6198 35.6 84.9298 33.02C82.3398 30.34 78.0398 30.34 75.3398 33.02C72.6498 35.6 72.6498 39.89 75.3398 42.58Z" fill="url(#paint3_linear_877_27482)"/>
</g>
<defs>
<linearGradient id="paint0_linear_877_27482" x1="133.829" y1="51.1656" x2="133.829" y2="104.714" gradientUnits="userSpaceOnUse">
<stop stop-color="#12A3FF"/>
<stop offset="1" stop-color="#3D68FF"/>
</linearGradient>
<linearGradient id="paint1_linear_877_27482" x1="110.788" y1="51.1656" x2="110.788" y2="104.714" gradientUnits="userSpaceOnUse">
<stop stop-color="#FFBE00"/>
<stop offset="1" stop-color="#FF9F00"/>
</linearGradient>
<linearGradient id="paint2_linear_877_27482" x1="39.8086" y1="51.9857" x2="39.8086" y2="107.953" gradientUnits="userSpaceOnUse">
<stop stop-color="#12A3FF"/>
<stop offset="1" stop-color="#3D68FF"/>
</linearGradient>
<linearGradient id="paint3_linear_877_27482" x1="79.94" y1="51.8752" x2="79.94" y2="107.02" gradientUnits="userSpaceOnUse">
<stop stop-color="#12A3FF"/>
<stop offset="1" stop-color="#3D68FF"/>
</linearGradient>
<clipPath id="clip0_877_27482">
<rect width="160" height="160" fill="white"/>
</clipPath>
</defs>
</svg>
