<svg width="160" height="160" viewBox="0 0 160 160" fill="none" xmlns="http://www.w3.org/2000/svg">
<g clip-path="url(#clip0_877_27477)">
<path d="M79.9999 151.428C40.5499 151.428 8.57129 119.45 8.57129 79.9999C8.57129 40.5499 40.5499 8.57129 79.9999 8.57129C119.45 8.57129 151.428 40.5499 151.428 79.9999C151.428 119.45 119.45 151.428 79.9999 151.428Z" fill="white"/>
<path d="M35.129 121.228L36.1575 122.328L34.629 122.943C34.3932 123.036 34.179 123.128 34.0718 123.207L34.0504 123.186C34.1718 123.064 34.2718 122.871 34.3647 122.686L35.129 121.228ZM129.365 116.5C128.029 115.464 127.229 115.714 126.779 116.286C126.336 116.857 126.293 117.707 127.622 118.736C128.972 119.786 129.793 119.536 130.236 118.971C130.643 118.443 130.729 117.564 129.365 116.5ZM66.3575 137.864H66.3218C66.2647 138.028 66.0932 138.286 65.9075 138.564L64.679 140.371L66.629 140.821L66.3861 138.65C66.3504 138.371 66.3218 138.086 66.3647 137.864H66.3575ZM97.5718 21.1142C97.8932 19.9213 97.5861 19.0213 96.4718 18.7142L95.629 18.4856L94.6147 22.2285C94.5647 22.407 94.6504 22.4856 94.7718 22.5213L95.2861 22.657C96.1504 22.8928 97.1718 22.607 97.579 21.1142H97.5718ZM46.6147 29.0142L45.3004 28.0285C45.129 27.8999 44.9575 27.7713 44.8575 27.6356L44.8361 27.6499C44.9004 27.7713 44.9575 27.9928 45.0075 28.2428L45.3647 29.8499L46.6218 29.0142H46.6147ZM17.629 83.8642C17.4361 83.9499 17.2361 84.0285 17.0647 84.0499V84.0785C17.2004 84.0785 17.4218 84.1499 17.6647 84.2285L19.2361 84.7285L19.1432 83.2213L17.629 83.8642ZM21.6647 57.5642C21.4504 57.5642 21.2361 57.557 21.0718 57.4999V57.5285C21.1861 57.5928 21.3575 57.7428 21.5432 57.9142L22.7647 59.0213L23.3075 57.6142L21.6647 57.5642ZM19.2718 71.007C20.9361 71.2928 21.529 70.6928 21.6504 69.9785C21.7718 69.2642 21.4075 68.4999 19.7504 68.2142C18.0647 67.9285 17.4575 68.5356 17.3361 69.2356C17.2218 69.8928 17.5647 70.7142 19.2718 70.9999V71.007ZM148.358 79.9999C148.358 117.75 117.758 148.35 80.0075 148.35C42.2575 148.35 11.6504 117.75 11.6504 79.9999C11.6504 42.2499 42.2504 11.6499 80.0004 11.6499C117.75 11.6499 148.35 42.257 148.35 79.9999H148.358ZM143.329 72.8142L143.208 73.4213C143.186 73.5213 143.122 73.5356 142.958 73.5499L139.2 73.8142C139.036 73.8285 138.979 73.8213 138.943 73.7213L138.75 73.2785H138.636L138.765 75.0928H138.879L139 74.4856C139.015 74.3856 139.079 74.3642 139.25 74.3499L142 74.157C142.186 74.1428 142.372 74.1213 142.472 74.1142V74.1499C142.343 74.1928 142.186 74.3213 142.058 74.4356L138.843 77.2642L138.879 77.8213L143.258 77.5142C143.422 77.4999 143.479 77.507 143.522 77.5999L143.708 78.0499H143.829L143.7 76.2285H143.579L143.458 76.8428C143.443 76.9428 143.379 76.957 143.215 76.9713L140.829 77.1356C140.586 77.1499 140.35 77.1785 140.25 77.1856V77.157C140.4 77.1142 140.643 76.907 140.772 76.7928L143.579 74.3928L143.465 72.7928H143.329V72.8142ZM143.243 71.3999L142.929 69.3285L142.808 69.3499L142.729 69.8213C142.715 69.9285 142.658 69.9428 142.486 69.9642L138.736 70.5356C138.572 70.557 138.515 70.5642 138.465 70.4713L138.243 70.0428L138.129 70.057L138.443 72.1356L138.558 72.1213L138.636 71.6428C138.658 71.5428 138.715 71.5213 138.879 71.4999L142.629 70.9285C142.8 70.8999 142.858 70.907 142.9 70.9928L143.122 71.4213L143.243 71.3999ZM140.886 67.0499L140.7 67.2285C141.086 67.7285 141.65 68.1285 142.322 67.9928C142.65 67.9285 143.115 67.6928 143.043 67.357C143.029 67.2713 142.972 67.1642 142.858 67.0642L142.522 66.7499L142.415 66.7713C142.408 67.1213 142.122 67.3642 141.829 67.4285C141.479 67.4999 141.15 67.3428 140.879 67.057L140.886 67.0499ZM140.408 60.9928L136.75 62.0142C136.593 62.057 136.536 62.0642 136.472 61.9785L136.2 61.5785L136.093 61.607L136.729 63.8856C137.172 65.4713 138.472 66.3213 139.936 65.9142C141.565 65.457 141.858 64.2285 141.45 62.757L140.772 60.3142L140.658 60.3499L140.636 60.8285C140.636 60.9356 140.579 60.957 140.415 60.9999L140.408 60.9928ZM136.786 53.8213C136.15 54.0928 136.043 54.6999 136.015 55.307L135.993 55.807C135.979 56.207 135.922 56.6999 135.472 56.8928C134.965 57.1142 134.522 56.7999 134.329 56.3428C134.222 56.0999 134.172 55.7928 134.193 55.5928C134.215 55.4285 134.265 55.357 134.372 55.2713L134.8 54.957L134.7 54.7285L133.665 55.1785C133.65 55.5428 133.765 56.0356 133.929 56.4213C134.308 57.307 135.158 57.9428 136.158 57.507C136.8 57.2285 136.958 56.6356 136.979 55.9999L137 55.5142C137.015 55.0213 137.043 54.5856 137.458 54.407C137.9 54.2142 138.25 54.557 138.4 54.907C138.5 55.1285 138.543 55.357 138.529 55.5713C138.522 55.7142 138.472 55.7999 138.365 55.8856L138 56.1785L138.093 56.3928L139.043 55.9856C139.043 55.5142 138.85 55.007 138.75 54.7856C138.386 53.9356 137.572 53.4785 136.779 53.8213H136.786ZM135.322 49.2285L131.972 51.007C131.829 51.0856 131.772 51.107 131.693 51.0356L131.343 50.6999L131.243 50.757L132.95 53.9785L133.943 53.6642L133.886 53.4499H133.293C133.186 53.4499 133.079 53.4142 133 53.2713L132.408 52.1499C132.35 52.0356 132.336 51.9285 132.5 51.8356L134.058 51.0142L134.622 52.0785C134.7 52.2213 134.722 52.2785 134.65 52.357L134.379 52.6713L134.465 52.8285L135.672 52.1928L135.586 52.0356L135.165 52.0856C135.065 52.0999 135.029 52.0499 134.958 51.907L134.393 50.8428L135.922 50.0356L136.558 51.2428C136.643 51.3999 136.622 51.507 136.543 51.5928L136.258 51.8928L136.365 52.0928L137.193 51.6499L135.529 48.5142L135.422 48.5713L135.5 49.0428C135.522 49.1428 135.472 49.1785 135.322 49.257V49.2285ZM131.179 42.7142L128.036 44.8142C127.9 44.907 127.85 44.9356 127.758 44.8713L127.379 44.5713L127.286 44.6356L128.25 46.0785L128.343 46.0142L128.186 45.4928C128.158 45.3928 128.2 45.3428 128.343 45.2499L130.693 43.6785C130.993 43.4785 131.115 43.3999 131.186 43.3428L131.208 43.3785C131.079 43.507 130.965 43.6785 130.843 43.857L128.772 46.8642L129.029 47.2499L132.608 46.4785C132.922 46.4142 133.158 46.357 133.25 46.3285L133.272 46.357C133.122 46.4499 132.929 46.5785 132.779 46.6785L130.358 48.2999C130.222 48.3928 130.165 48.4213 130.079 48.357L129.7 48.0642L129.608 48.1285L130.765 49.857L130.858 49.7928L130.729 49.3285C130.708 49.2285 130.75 49.1856 130.886 49.0928L134.036 46.9785C134.172 46.8856 134.229 46.8642 134.315 46.9213L134.693 47.2213L134.793 47.157L133.85 45.757L130.529 46.4642C130.25 46.5285 130.065 46.5713 129.886 46.6428L129.872 46.6213C130.043 46.4713 130.143 46.3356 130.308 46.107L132.258 43.3713L131.286 41.9213L131.186 41.9928L131.322 42.4928C131.35 42.5999 131.308 42.6356 131.165 42.7285L131.179 42.7142ZM129.515 37.6213L129.586 39.3999L129.793 39.4213L130.229 38.0356L129.636 37.3213C129.558 37.3856 129.5 37.4713 129.515 37.6213ZM127.865 37.9356L128.036 38.3785C128.079 38.4713 128.036 38.5142 127.908 38.6285L124.986 41.0499C124.858 41.157 124.808 41.1856 124.715 41.1285L124.308 40.8713L124.222 40.9428L126.543 43.7499L127.45 43.2428L127.35 43.0428L126.765 43.1642C126.658 43.1856 126.55 43.1713 126.443 43.0499L125.629 42.0713C125.543 41.9713 125.515 41.8642 125.658 41.7499L127.015 40.6285L127.786 41.557C127.893 41.6856 127.922 41.7356 127.872 41.8213L127.672 42.1856L127.786 42.3213L128.836 41.4499L128.722 41.3142L128.322 41.4499C128.229 41.4785 128.186 41.4428 128.079 41.3142L127.308 40.3856L128.643 39.2785L129.515 40.3285C129.629 40.4642 129.636 40.5713 129.572 40.6713L129.35 41.0213L129.493 41.1928L130.222 40.5928L127.958 37.857L127.865 37.9356ZM123.179 34.557L123.343 34.7213L123.886 34.3928C123.979 34.3356 124.093 34.357 124.215 34.4856L124.922 35.1999L122.1 37.9713C121.979 38.0856 121.929 38.1213 121.843 38.0785L121.386 37.8285L121.3 37.907L122.822 39.457L122.908 39.3785L122.672 38.9213C122.622 38.8285 122.665 38.7785 122.779 38.6642L125.6 35.8928L126.293 36.5999C126.422 36.7285 126.436 36.8428 126.379 36.9356L126.036 37.4713L126.2 37.6356L127.029 36.8213L124 33.7428L123.172 34.557H123.179ZM119.822 31.8142C119.372 32.3356 119.536 32.9213 119.772 33.4856L119.972 33.9428C120.129 34.307 120.293 34.7785 119.972 35.1428C119.608 35.557 119.079 35.4713 118.708 35.1428C118.508 34.9713 118.329 34.7142 118.265 34.5285C118.215 34.3713 118.229 34.2856 118.286 34.1642L118.536 33.6928L118.343 33.5285L117.6 34.3785C117.743 34.7142 118.058 35.107 118.372 35.3856C119.1 36.0142 120.136 36.2213 120.85 35.3999C121.308 34.8713 121.193 34.2713 120.936 33.6856L120.743 33.2356C120.543 32.7856 120.379 32.3785 120.672 32.0428C120.986 31.6785 121.45 31.8356 121.736 32.0856C121.922 32.2428 122.058 32.4285 122.143 32.6285C122.2 32.7642 122.193 32.857 122.129 32.9785L121.922 33.3999L122.1 33.557L122.779 32.7785C122.579 32.357 122.179 31.9785 122 31.8213C121.3 31.2142 120.372 31.1499 119.808 31.807L119.822 31.8142ZM114.75 32.0356L114.293 31.8856L114.222 31.9785L115.908 33.2285L115.979 33.1356L115.708 32.7428C115.65 32.657 115.679 32.607 115.772 32.4713L116.658 31.2785L119.072 30.1856C119.229 30.1142 119.3 30.0928 119.415 30.107L119.693 30.1428L119.765 30.0428L118.493 29.0999L118.422 29.1999L118.715 29.5928C118.772 29.6785 118.758 29.7785 118.615 29.8428L116.736 30.7428L117.036 28.6713C117.058 28.5213 117.143 28.4856 117.25 28.5142L117.686 28.657L117.758 28.557L116.1 27.3285L116.029 27.4285L116.143 27.6856C116.186 27.7856 116.186 27.8499 116.165 28.0142L115.843 30.7356L114.986 31.8928C114.886 32.0285 114.85 32.0642 114.743 32.0356H114.75ZM109.886 28.9856C110.086 29.2928 110.458 29.6356 110.808 29.857C111.622 30.3642 112.686 30.407 113.265 29.4785C113.629 28.8856 113.422 28.307 113.079 27.7713L112.822 27.357C112.55 26.9428 112.329 26.5713 112.565 26.1928C112.822 25.7856 113.3 25.8642 113.629 26.0642C113.836 26.1928 114 26.357 114.115 26.5356C114.193 26.657 114.2 26.757 114.158 26.8856L114.022 27.3356L114.222 27.4642L114.765 26.5856C114.5 26.1999 114.043 25.8928 113.843 25.7642C113.058 25.2713 112.129 25.357 111.672 26.0999C111.308 26.6856 111.565 27.2428 111.886 27.757L112.158 28.1785C112.372 28.5142 112.608 28.9499 112.35 29.3642C112.058 29.8356 111.522 29.8285 111.1 29.5642C110.872 29.4213 110.658 29.1999 110.565 29.0285C110.486 28.8785 110.486 28.7928 110.529 28.6642L110.7 28.157L110.486 28.0213L109.886 28.9785V28.9856ZM104.022 24.7356L103.543 25.757C103.779 26.0428 104.186 26.3356 104.565 26.507C105.436 26.9142 106.493 26.8285 106.95 25.8356C107.243 25.207 106.972 24.657 106.565 24.1642L106.258 23.7856C105.943 23.407 105.672 23.0642 105.865 22.657C106.065 22.2213 106.558 22.2428 106.9 22.3999C107.122 22.4999 107.3 22.6428 107.436 22.807C107.529 22.9213 107.543 23.0142 107.522 23.1499L107.443 23.6142L107.658 23.7142L108.093 22.7785C107.779 22.4285 107.293 22.1785 107.079 22.0785C106.236 21.6856 105.329 21.8856 104.965 22.6713C104.672 23.2999 104.993 23.8213 105.379 24.2928L105.7 24.6785C105.95 24.9856 106.243 25.3928 106.036 25.8356C105.8 26.3356 105.265 26.3999 104.815 26.1856C104.572 26.0713 104.329 25.8785 104.215 25.7142C104.122 25.5785 104.115 25.4928 104.136 25.357L104.243 24.8356L104.015 24.7285L104.022 24.7356ZM98.7861 24.0642L102.2 25.3356L102.729 24.4428L102.543 24.3213L102.1 24.7142C102.022 24.7856 101.922 24.8285 101.765 24.7713L100.572 24.3285C100.45 24.2856 100.372 24.207 100.436 24.0356L101.05 22.3856L102.179 22.807C102.336 22.8642 102.386 22.8928 102.386 22.9928V23.407L102.558 23.4713L103.036 22.1928L102.865 22.1285L102.586 22.4499C102.522 22.5213 102.465 22.5142 102.308 22.4499L101.179 22.0285L101.786 20.407L103.065 20.8856C103.236 20.9499 103.293 21.0356 103.286 21.1499L103.272 21.5642L103.479 21.6428L103.808 20.7642L100.479 19.5213L100.436 19.6356L100.808 19.9356C100.893 19.9999 100.879 20.057 100.822 20.2142L99.5004 23.7713C99.4432 23.9285 99.4147 23.9785 99.3075 23.9785L98.8218 23.957L98.779 24.0642H98.7861ZM92.9718 22.4142L95.2504 23.0356C96.8361 23.4642 98.2361 22.7856 98.6361 21.3213C99.079 19.6928 98.1718 18.807 96.6932 18.407L94.2432 17.7428L94.2147 17.8642L94.6147 18.1285C94.7075 18.1856 94.6932 18.2428 94.6504 18.407L93.6575 22.0713C93.6147 22.2285 93.5932 22.2856 93.4861 22.2928L93.0004 22.3213L92.9718 22.4356V22.4142ZM87.779 16.2499L87.9147 16.4142L89.4575 15.5213C89.5861 15.4428 89.6218 15.357 89.6361 15.2499L88.7147 15.1356L87.779 16.257V16.2499ZM85.5647 21.2713L89.179 21.7285L89.4932 20.7428L89.2861 20.6642L88.9432 21.1499C88.879 21.2356 88.7932 21.307 88.629 21.2856L87.3647 21.1285C87.2361 21.1142 87.1432 21.057 87.1647 20.8713L87.3861 19.1285L88.5861 19.2785C88.7504 19.2999 88.8075 19.3142 88.829 19.4142L88.929 19.8213L89.1075 19.8428L89.279 18.4856L89.1004 18.4642L88.9004 18.8356C88.8504 18.9213 88.7932 18.9213 88.629 18.8999L87.429 18.7499L87.6432 17.0285L89.0004 17.1999C89.179 17.2213 89.2575 17.2999 89.279 17.407L89.3575 17.8142L89.579 17.8428L89.7004 16.907L86.179 16.4642L86.1647 16.5856L86.5932 16.7928C86.6932 16.8356 86.6932 16.8928 86.6647 17.0642L86.1861 20.8285C86.1647 20.9928 86.1504 21.0499 86.0432 21.0713L85.5647 21.1642L85.5504 21.2785L85.5647 21.2713ZM80.4361 17.3213H80.6647L80.8432 16.7213C80.8718 16.6142 80.9647 16.557 81.1432 16.5642L82.1504 16.607L81.9932 20.557C81.9932 20.7213 81.9718 20.7856 81.8718 20.8142L81.3718 20.9428V21.057L83.5361 21.1428V21.0285L83.0575 20.857C82.9575 20.8213 82.9504 20.757 82.9575 20.5928L83.1147 16.6428L84.1075 16.6856C84.2861 16.6928 84.379 16.7642 84.4004 16.8713L84.5218 17.4928H84.7504L84.8004 16.3356L80.4861 16.157L80.4361 17.3213ZM77.029 16.257V16.3785L77.4861 16.5142C77.5861 16.5428 77.5932 16.5999 77.6004 16.7713L77.7147 20.5642C77.7147 20.7285 77.7147 20.7856 77.6147 20.8285L77.1575 20.9928V21.107L79.2647 21.0428V20.9285L78.8004 20.7928C78.7075 20.757 78.6932 20.6999 78.6861 20.5356L78.5718 16.7428C78.5718 16.5713 78.579 16.5142 78.6718 16.4785L79.129 16.3142V16.1928L77.029 16.257ZM70.9218 16.7999L70.9361 16.9213L71.4075 17.0213C71.5004 17.0428 71.5147 17.0999 71.5361 17.2713L71.9361 21.0428C71.9504 21.207 71.9504 21.2642 71.8647 21.3142L71.4147 21.5142L71.429 21.6285L73.5218 21.407L73.5075 21.2928L73.0361 21.1928C72.9361 21.1642 72.9218 21.1142 72.9004 20.9499L72.479 16.9713L72.8147 16.9356C73.479 16.8642 73.9861 16.9928 74.0718 17.8142C74.1504 18.5642 73.6718 18.9142 73.0504 18.9785L72.8647 18.9999L74.8861 21.2713L76.179 21.1356L76.1647 21.0213L75.9432 20.9213C75.8361 20.8785 75.7647 20.807 75.6647 20.7142L74.0147 18.9428C74.6004 18.7499 75.1504 18.307 75.0647 17.5642C74.9647 16.5999 74.0575 16.4785 73.1718 16.5713L70.9075 16.8142L70.9218 16.7999ZM64.6861 17.9999L64.7075 18.1213L65.179 18.1785C65.279 18.1856 65.3004 18.2428 65.3361 18.407L65.8647 20.9642C66.079 21.9928 66.679 22.6642 68.0504 22.3785C69.5075 22.0785 69.729 21.0856 69.5218 20.0642L69.0218 17.6499C68.9861 17.4785 68.9861 17.4213 69.0718 17.3713L69.4932 17.1285L69.4718 17.007L67.7575 17.3642L67.779 17.4856L68.2504 17.5428C68.3504 17.5499 68.3718 17.607 68.4075 17.7713L68.929 20.3213C69.0861 21.0999 68.929 21.7213 68.129 21.8856C67.3432 22.0499 66.9575 21.4642 66.829 20.8499L66.2861 18.207C66.2504 18.0356 66.2504 17.9785 66.3361 17.9285L66.7575 17.6856L66.7361 17.5642L64.679 17.9856L64.6861 17.9999ZM60.0432 21.907C60.479 23.3356 61.7647 24.0213 63.179 23.5856C63.8004 23.3999 64.2932 23.0142 64.6718 22.5713L64.4718 22.357C64.229 22.6142 63.9004 22.857 63.479 22.9856C62.2647 23.357 61.379 22.5999 61.0361 21.4856C60.7432 20.5213 60.8075 19.3999 61.929 19.057C62.1718 18.9856 62.429 18.957 62.7075 18.9999C62.8647 19.0285 62.9432 19.0928 63.0218 19.2213L63.3075 19.6999L63.5575 19.6213L63.2218 18.5142C62.829 18.4928 62.3575 18.5285 61.8504 18.6856C60.3718 19.1356 59.5718 20.3428 60.0504 21.907H60.0432ZM55.7647 20.5142L55.9647 20.5856L56.879 19.057C56.9504 18.9285 56.9432 18.8285 56.9004 18.7285L56.0432 19.0713L55.7647 20.507V20.5142ZM54.4718 21.4785L54.5147 21.5928L54.9932 21.5642C55.1004 21.5499 55.1218 21.607 55.1861 21.7642L56.6004 25.2856C56.6647 25.4356 56.679 25.4928 56.6004 25.5642L56.229 25.8785L56.2718 25.9856L59.6575 24.6285L59.4504 23.6142L59.229 23.6499L59.1647 24.2428C59.1504 24.3499 59.1075 24.4499 58.9575 24.5142L57.779 24.9856C57.6575 25.0356 57.5504 25.0285 57.479 24.857L56.8218 23.2213L57.9432 22.7713C58.0933 22.707 58.1504 22.6928 58.2218 22.7713L58.5075 23.0785L58.6718 23.0142L58.1647 21.7499L58.0004 21.8142V22.2356C58.0075 22.3356 57.9575 22.3642 57.8075 22.4285L56.6861 22.8785L56.0432 21.2713L57.3075 20.7642C57.4718 20.6999 57.579 20.7285 57.6504 20.8142L57.9147 21.1356L58.1218 21.0499L57.7718 20.1785L54.479 21.4999L54.4718 21.4785ZM51.0075 24.6142C51.3147 25.2356 51.9218 25.307 52.529 25.307H53.029C53.429 25.2928 53.9218 25.3213 54.1361 25.7642C54.379 26.257 54.0932 26.7142 53.6504 26.9356C53.4147 27.0499 53.1075 27.1213 52.9075 27.107C52.7432 27.0928 52.6718 27.0499 52.579 26.9499L52.2432 26.5428L52.0147 26.657L52.5147 27.6713C52.879 27.6713 53.3647 27.5285 53.7432 27.3428C54.6075 26.9142 55.2004 26.0356 54.7147 25.057C54.4075 24.4356 53.8075 24.307 53.1718 24.3142H52.6861C52.1932 24.3285 51.7575 24.3142 51.5575 23.9213C51.3432 23.4928 51.6647 23.1213 52.0075 22.9499C52.229 22.8428 52.4504 22.7856 52.6647 22.7856C52.8075 22.7856 52.8932 22.8285 52.9861 22.9285L53.2932 23.2785L53.5075 23.1713L53.0504 22.2428C52.579 22.2642 52.079 22.4856 51.8718 22.5928C51.0433 23.007 50.629 23.8356 51.0075 24.6142ZM44.279 26.9999L45.2575 31.6785C45.2861 31.8428 45.279 31.9142 45.229 32.0142L45.1147 32.2642L45.179 32.357L46.4504 31.507L46.3861 31.4142L45.929 31.5356C45.829 31.5642 45.7504 31.5356 45.7075 31.3713L45.4575 30.257L46.9361 29.2642L47.8433 29.9428C47.979 30.0428 47.979 30.1213 47.9075 30.207L47.6218 30.5785L47.6861 30.6713L49.3504 29.557L49.2861 29.4642L49.0075 29.4785C48.9004 29.4785 48.8361 29.4713 48.7075 29.3785L44.8575 26.607L44.2718 26.9999H44.279ZM38.579 31.4356L38.6575 31.5285L39.1075 31.357C39.2004 31.3213 39.2432 31.357 39.3504 31.4928L41.729 34.4499C41.8361 34.5785 41.8647 34.6285 41.8147 34.7142L41.5432 35.1213L41.6147 35.2142L44.3861 32.9856L43.8147 31.957L43.6075 32.0499L43.7861 32.7642C43.8075 32.8642 43.7932 32.9785 43.6647 33.0856L42.7575 33.8142C42.6575 33.8928 42.5504 33.9213 42.4361 33.7785L40.1075 30.8856C40.0004 30.7499 39.9718 30.6928 40.0361 30.6142L40.379 30.1428L40.3004 30.0499L38.579 31.4356ZM32.7432 37.0928L32.829 37.1785L33.2504 36.957C33.3432 36.907 33.3861 36.9428 33.5147 37.057L36.2432 39.6928C36.3647 39.807 36.4004 39.8499 36.3575 39.9499L36.1432 40.3856L36.229 40.4642L38.7575 37.8428L38.1504 36.9999L37.9647 37.1213L38.1504 37.6856C38.1861 37.7856 38.1861 37.8999 38.0718 38.0142L37.1861 38.9285C37.0932 39.0213 36.9932 39.0642 36.8575 38.9285L35.5933 37.707L36.429 36.8356C36.5432 36.7142 36.5861 36.6785 36.679 36.7213L37.0647 36.8856L37.1861 36.757L36.2004 35.807L36.079 35.9356L36.2575 36.3213C36.3004 36.4142 36.2647 36.457 36.1504 36.5785L35.3147 37.4499L34.0647 36.2499L35.0147 35.2642C35.1361 35.1356 35.2432 35.1142 35.3504 35.1642L35.7218 35.3428L35.879 35.1856L35.2004 34.5285L32.7361 37.0856L32.7432 37.0928ZM28.6147 42.0856L28.7075 42.1642L29.1075 41.907C29.1932 41.8499 29.2432 41.8785 29.379 41.9856L32.3361 44.3642C32.4647 44.4713 32.5075 44.507 32.4718 44.607L32.3004 45.057L32.3932 45.1285L33.8718 43.2856C34.9004 41.9999 34.8432 40.4499 33.6504 39.4999C32.3361 38.4428 31.1575 38.9213 30.2004 40.1142L28.6147 42.0928V42.0856ZM24.2147 48.957L24.3218 49.0213L24.6861 48.707C24.7647 48.6356 24.8147 48.657 24.9647 48.7499L28.2218 50.6999C28.3647 50.7856 28.4075 50.8213 28.3861 50.9285L28.279 51.3999L28.379 51.457L30.2504 48.3285L29.4718 47.6428L29.3147 47.7999L29.6218 48.307C29.679 48.3999 29.7004 48.507 29.6218 48.6499L28.9718 49.7428C28.9075 49.857 28.8147 49.9213 28.6575 49.8213L27.1432 48.9213L27.7647 47.8856C27.8504 47.7428 27.8861 47.6999 27.9861 47.7142L28.3932 47.7856L28.4861 47.6285L27.3147 46.9285L27.2218 47.0856L27.4861 47.4213C27.5504 47.4999 27.5218 47.5499 27.4432 47.6928L26.8218 48.7285L25.3361 47.8428L26.0361 46.6713C26.129 46.5142 26.229 46.4785 26.3361 46.4999L26.7432 46.5928L26.8575 46.3999L26.0504 45.9142L24.229 48.9642L24.2147 48.957ZM21.929 53.4785L22.0361 53.5356L22.3718 53.1928C22.4361 53.1213 22.4932 53.1428 22.6504 53.2142L26.0575 54.8928C26.2075 54.9642 26.2575 54.9999 26.2432 55.0999L26.1718 55.5856L26.2718 55.6356L27.8432 52.4428L26.8932 51.7499L26.7432 51.9213L27.2075 52.4928C27.2718 52.5713 27.3075 52.6856 27.229 52.8356L26.7147 53.8785C26.6575 53.9928 26.5718 54.0642 26.4075 53.9856L23.0718 52.3428C22.9147 52.2642 22.8647 52.2285 22.8932 52.1285L23.0075 51.557L22.9004 51.4999L21.929 53.4785ZM20.2361 57.3142L23.729 60.5785C23.8504 60.6928 23.879 60.7642 23.9004 60.8713L23.9504 61.1356L24.0575 61.1785L24.6075 59.7499L24.5004 59.707L24.2004 60.0713C24.1361 60.157 24.0504 60.1785 23.9218 60.0713L23.079 59.307L23.7218 57.6428L24.8575 57.6785C25.029 57.6785 25.0718 57.7428 25.0575 57.857L25.0361 58.3285L25.1432 58.3713L25.8647 56.4999L25.7575 56.457L25.5361 56.6285C25.4504 56.6928 25.3932 56.7213 25.229 56.7213L20.479 56.6713L20.229 57.3285L20.2361 57.3142ZM17.7861 65.5642L17.9147 65.5999L18.2361 65.0713C18.2932 64.9856 18.3575 64.9928 18.5147 65.0356L22.1432 66.0356C22.3004 66.0785 22.3575 66.0999 22.3575 66.207L22.3861 66.6856L22.5004 66.7142L22.9861 64.9713L22.879 64.9428L22.5647 65.4642C22.5147 65.557 22.4504 65.5499 22.2861 65.507L19.629 64.7713C19.4504 64.7213 19.2647 64.6785 19.1718 64.6499V64.6142C19.3218 64.6142 19.5147 64.5499 19.6718 64.4785L23.6432 62.8856L23.7932 62.3428L19.5575 61.1713C19.4004 61.1285 19.3432 61.107 19.3361 60.9999L19.3147 60.5142L19.2004 60.4785L18.7147 62.2285L18.829 62.2642L19.1504 61.7356C19.2004 61.6428 19.2647 61.657 19.4218 61.6999L21.729 62.3356C21.9647 62.3999 22.1932 62.457 22.2932 62.4856V62.5142C22.129 62.4999 21.829 62.6213 21.6718 62.6785L18.2218 64.007L17.7932 65.5499L17.7861 65.5642ZM19.1004 72.0356C20.7504 72.3213 21.7575 71.4928 22.0075 70.0428C22.2361 68.6928 21.3861 67.4356 19.929 67.1856C18.1647 66.8856 17.2147 67.8499 16.9861 69.1856C16.7718 70.4356 17.5432 71.7713 19.1004 72.0428V72.0356ZM16.3861 75.007L16.5075 75.0213L16.7004 74.5856C16.7361 74.4856 16.7932 74.4856 16.9647 74.4999L20.7432 74.857C20.9075 74.8713 20.9647 74.8856 20.9932 74.9856L21.1004 75.457H21.2147L21.4147 73.3713H21.3004L21.1075 73.807C21.0647 73.8999 21.0075 73.907 20.8432 73.8928L17.0647 73.5356C16.8932 73.5213 16.8361 73.4999 16.8147 73.407L16.7075 72.9356L16.5861 72.9213L16.3932 75.0142L16.3861 75.007ZM16.1718 80.6928L17.3361 80.7213V80.4928L16.729 80.3285C16.6218 80.307 16.5575 80.207 16.5647 80.0285L16.5861 79.0213L20.5361 79.1142C20.7004 79.1142 20.7647 79.1356 20.7932 79.2285L20.9361 79.7285H21.0504L21.1004 77.5642H20.9861L20.8218 78.0499C20.7932 78.1499 20.729 78.157 20.5575 78.1499L16.6075 78.057L16.629 77.0642C16.629 76.8856 16.7004 76.7928 16.8075 76.7642L17.429 76.6356V76.407L16.2718 76.3785L16.1718 80.6928ZM16.229 84.2285L20.7647 85.7428C20.9218 85.7999 20.979 85.8428 21.0432 85.9356L21.2004 86.157H21.3147L21.2218 84.6213H21.1075L20.9861 85.0785C20.9647 85.1785 20.8932 85.2356 20.7361 85.1856L19.6504 84.8428L19.5432 83.0642L20.5861 82.6285C20.7432 82.5642 20.8075 82.5999 20.8432 82.707L21.0218 83.1428H21.1361L21.0147 81.1356H20.9004L20.7718 81.3856C20.7218 81.4856 20.679 81.5285 20.5361 81.5928L16.2004 83.5213L16.2432 84.2213L16.229 84.2285ZM17.8647 91.9642L21.5861 91.3713C21.7504 91.3428 21.8075 91.3428 21.8504 91.4356L22.079 91.857L22.1932 91.8356L21.9075 90.0499L21.7932 90.0713L21.7218 90.6785C21.7218 90.7785 21.6575 90.807 21.4861 90.8356L18.7647 91.2713C18.579 91.2999 18.3932 91.3356 18.3004 91.3499V91.3142C18.4218 91.257 18.5718 91.1213 18.6861 90.9928L21.6432 87.8999L21.5575 87.3428L17.2218 88.0356C17.0575 88.0642 17.0004 88.0642 16.9504 87.9713L16.729 87.5428L16.6075 87.5642L16.8932 89.357L17.0147 89.3356L17.0861 88.7213C17.0861 88.6213 17.1575 88.5999 17.3147 88.5785L19.679 88.1999C19.9218 88.1642 20.1504 88.1142 20.2504 88.0999V88.1285C20.1075 88.1785 19.8861 88.4142 19.7647 88.5356L17.179 91.1713L17.429 92.757L17.5647 92.7356L17.6361 92.1213C17.6504 92.0142 17.7147 91.9999 17.8718 91.9713L17.8647 91.9642ZM19.9004 99.8499L23.529 98.7428C23.6861 98.6928 23.7432 98.6856 23.8075 98.7713L24.0861 99.1642L24.1932 99.1285L23.129 95.6428L22.1004 95.7642L22.1147 95.9856L22.7004 96.0999C22.8075 96.1213 22.9004 96.1713 22.9504 96.3285L23.3218 97.5428C23.3575 97.6642 23.3504 97.7785 23.1718 97.8285L21.4861 98.3428L21.1361 97.1856C21.0861 97.0285 21.079 96.9713 21.1575 96.907L21.4861 96.6499L21.4361 96.4785L20.129 96.8785L20.179 97.0499L20.6004 97.0785C20.7004 97.0785 20.7218 97.1356 20.7718 97.2999L21.1218 98.457L19.4647 98.9642L19.0647 97.657C19.0147 97.4856 19.0504 97.3856 19.1432 97.3213L19.4861 97.0856L19.4218 96.8713L18.5218 97.1499L19.5575 100.543L19.6718 100.507L19.6861 100.028C19.6861 99.9213 19.7361 99.8999 19.9004 99.8499ZM23.8361 104.85C25.2218 104.293 25.7932 102.957 25.2432 101.578C25.0004 100.978 24.579 100.514 24.1075 100.178L23.9075 100.4C24.1861 100.621 24.4504 100.928 24.6147 101.336C25.0861 102.514 24.4075 103.464 23.329 103.9C22.3932 104.278 21.2718 104.307 20.829 103.214C20.7361 102.978 20.6861 102.721 20.7075 102.443C20.7218 102.286 20.779 102.2 20.9004 102.107L21.3504 101.778L21.2504 101.536L20.179 101.964C20.1861 102.357 20.2718 102.828 20.4718 103.321C21.0504 104.757 22.3218 105.45 23.8432 104.843L23.8361 104.85ZM24.7004 110.75L28.0432 109.021C28.1932 108.943 28.2432 108.928 28.3147 109L28.6647 109.328L28.7647 109.278L27.9361 107.671L27.8361 107.721L27.9575 108.321C27.9861 108.421 27.9361 108.464 27.779 108.543L25.329 109.807C25.1647 109.893 25.0004 109.986 24.9075 110.028L24.8932 110C25.0004 109.907 25.0932 109.728 25.1647 109.571L27.0004 105.7L26.7432 105.2L22.8432 107.214C22.6932 107.293 22.6432 107.307 22.5647 107.236L22.2218 106.9L22.1147 106.957L22.9504 108.571L23.0575 108.514L22.929 107.907C22.9004 107.807 22.9575 107.771 23.1004 107.693L25.229 106.593C25.4432 106.478 25.6504 106.364 25.7432 106.321L25.7575 106.35C25.6361 106.443 25.4932 106.736 25.4218 106.886L23.7932 110.2L24.529 111.621L24.6504 111.557L24.5218 110.95C24.5004 110.85 24.5575 110.814 24.7004 110.736V110.75ZM27.4218 115.221L30.6218 113.178C30.7647 113.086 30.8147 113.064 30.9004 113.128L31.279 113.436L31.379 113.371L29.4147 110.3L28.4575 110.693L28.529 110.9L29.1218 110.857C29.229 110.85 29.3361 110.871 29.429 111.014L30.1147 112.086C30.1861 112.193 30.2004 112.3 30.0432 112.4L28.5575 113.35L27.9075 112.336C27.8218 112.193 27.7932 112.143 27.8504 112.064L28.0932 111.728L27.9932 111.578L26.8432 112.314L26.9432 112.464L27.3575 112.378C27.4575 112.357 27.4932 112.4 27.579 112.543L28.229 113.557L26.7718 114.493L26.0361 113.343C25.9361 113.193 25.9504 113.086 26.0218 112.993L26.2861 112.671L26.1647 112.486L25.3718 112.993L27.2861 115.986L27.3861 115.921L27.2718 115.457C27.2432 115.357 27.2861 115.321 27.429 115.228L27.4218 115.221ZM33.0004 119.536C34.2504 118.564 34.4218 117.243 33.4075 115.928C33.0004 115.407 32.5432 114.936 31.9861 114.564L30.8361 115.45C30.7075 115.55 30.6575 115.578 30.5647 115.521L30.1647 115.25L30.0647 115.321L31.4575 117.121L31.5575 117.043L31.2932 116.428C31.2575 116.336 31.3004 116.286 31.4361 116.178L32.3575 115.464C32.5575 115.571 32.8075 115.75 33.0004 116C33.7718 116.993 33.2432 117.964 32.2504 118.736C31.3218 119.45 30.2861 119.564 29.5147 118.571C29.2504 118.228 29.1147 117.9 29.0504 117.593C29.0218 117.464 29.029 117.364 29.0932 117.278L29.3504 116.907L29.2075 116.721L28.3932 117.357C28.5718 117.878 28.8718 118.378 29.2218 118.821C30.2004 120.086 31.7004 120.521 32.9932 119.514L33.0004 119.536ZM38.6718 122.107L37.629 120.986L37.5432 121.064L37.7361 121.493C37.7861 121.586 37.7647 121.671 37.6075 121.736L36.5504 122.164L35.329 120.864L35.8575 119.857C35.9361 119.707 36.0075 119.693 36.1075 119.75L36.5218 119.971L36.6075 119.893L35.2361 118.428L35.1504 118.507L35.2075 118.778C35.229 118.886 35.229 118.95 35.1575 119.093L33.0432 123.343L33.5218 123.857L37.9861 122.136C38.1432 122.078 38.2147 122.078 38.3218 122.107L38.5861 122.178L38.6718 122.1V122.107ZM48.6218 131.678C48.0004 131.3 47.3004 131.521 46.9861 132.036C46.6647 132.564 46.8147 133.143 47.3861 133.5C48.0075 133.878 48.6575 133.664 48.9861 133.136C49.3075 132.607 49.2004 132.036 48.6218 131.686V131.678ZM68.6361 143.814L68.3718 143.557C68.2647 143.457 68.2218 143.386 68.1932 143.171L67.3718 136.928L66.4647 136.721L62.829 141.921C62.7004 142.1 62.6147 142.157 62.479 142.2L62.1361 142.314L62.1004 142.464L64.079 142.921L64.1147 142.771L63.5861 142.443C63.4647 142.378 63.4218 142.264 63.5432 142.078L64.3932 140.828L66.7004 141.357L66.8647 142.85C66.8932 143.071 66.8147 143.143 66.6718 143.15L66.0504 143.214L66.0147 143.364L68.6075 143.964L68.6432 143.814H68.6361ZM78.7718 138.528L76.3647 138.336L76.3504 138.5L77.1218 138.778C77.2504 138.821 77.2575 138.907 77.2361 139.121L76.9861 142.286C76.9575 142.607 76.9432 142.921 76.9361 143.057H76.9004C76.879 142.85 76.6504 142.486 76.529 142.3L73.929 138.143L71.8075 137.978L71.7932 138.157L72.5647 138.436C72.6932 138.486 72.7004 138.571 72.679 138.786L72.2861 143.764C72.2718 143.986 72.2504 144.057 72.1147 144.086L71.5004 144.25L71.4861 144.4L73.879 144.586L73.8932 144.436L73.129 144.157C73.0004 144.121 72.9861 144.028 73.0004 143.8L73.2861 140.15C73.3075 139.9 73.3147 139.657 73.329 139.521H73.379C73.4147 139.707 73.5504 139.943 73.679 140.136L76.7575 144.914L77.5004 144.971L77.9575 139.164C77.9718 138.943 77.9932 138.871 78.129 138.836L78.7504 138.686L78.7647 138.521L78.7718 138.528ZM85.2218 142.707C85.179 141.786 84.5147 141.307 83.7361 140.986L83.1432 140.728C82.5432 140.478 82.0147 140.236 81.9861 139.65C81.9575 139.014 82.5432 138.736 83.0504 138.714C83.3718 138.7 83.6718 138.75 83.9361 138.864C84.1147 138.943 84.1932 139.043 84.2504 139.214L84.4432 139.807L84.7575 139.793L84.6932 138.421C84.1075 138.2 83.3861 138.207 83.0718 138.221C81.8432 138.278 80.9004 139.071 80.9504 140.221C80.9932 141.136 81.6932 141.55 82.429 141.871L83.0432 142.128C83.529 142.336 84.1147 142.628 84.1504 143.278C84.1861 144.014 83.5932 144.414 82.9361 144.443C82.5861 144.457 82.179 144.386 81.9432 144.264C81.7504 144.157 81.6861 144.064 81.629 143.9L81.4361 143.221L81.1004 143.236L81.1718 144.728C81.6218 144.914 82.2861 145.007 82.8361 144.986C84.1147 144.921 85.3004 144.171 85.229 142.721L85.2218 142.707ZM92.1432 141.75C92.0004 140.836 91.2861 140.436 90.479 140.2L89.8575 140.007C89.229 139.828 88.679 139.643 88.5861 139.064C88.4861 138.436 89.0361 138.093 89.5361 138.014C89.8575 137.964 90.1575 137.986 90.429 138.064C90.6147 138.121 90.7075 138.214 90.779 138.378L91.0361 138.943L91.3504 138.893L91.1361 137.536C90.529 137.378 89.8147 137.471 89.5004 137.514C88.2861 137.707 87.4361 138.6 87.6147 139.736C87.7575 140.636 88.5004 140.971 89.2718 141.207L89.9075 141.393C90.4147 141.543 91.029 141.771 91.1361 142.414C91.2504 143.136 90.7075 143.6 90.0575 143.707C89.7075 143.764 89.3004 143.728 89.0504 143.636C88.8432 143.55 88.7718 143.464 88.7004 143.307L88.429 142.657L88.1004 142.707L88.3361 144.186C88.8004 144.321 89.4718 144.343 90.0147 144.257C91.279 144.057 92.3718 143.171 92.1432 141.743V141.75ZM97.7718 142.428L97.7361 142.278L97.0932 142.236C96.9575 142.221 96.9218 142.15 96.8647 141.943L95.5932 137.071C95.5361 136.85 95.5361 136.771 95.6432 136.7L96.1861 136.35L96.1432 136.193L93.4504 136.9L93.4932 137.057L94.1218 137.1C94.2575 137.1 94.2861 137.171 94.3504 137.4L95.6218 142.271C95.679 142.486 95.6861 142.557 95.5718 142.643L95.029 142.993L95.0647 143.143L97.7647 142.436L97.7718 142.428ZM113 131.928C112.679 131.4 112.122 131.236 111.543 131.586C110.922 131.964 110.793 132.693 111.115 133.207C111.436 133.736 112.022 133.871 112.6 133.514C113.222 133.136 113.329 132.457 113 131.928ZM134.979 79.9999C134.979 49.6428 110.365 25.0285 80.0075 25.0285C49.6504 25.0285 25.029 49.6428 25.029 79.9999C25.029 110.357 49.6432 134.971 80.0004 134.971C110.358 134.971 134.972 110.357 134.972 79.9999H134.979ZM128.115 122L128.015 121.907L127.486 122.228C127.393 122.278 127.343 122.243 127.222 122.128L124.493 119.536C124.372 119.421 124.336 119.378 124.386 119.286L124.586 118.85L124.5 118.771L123.25 120.086L123.336 120.164L123.865 119.85C123.95 119.793 124.008 119.828 124.129 119.943L126.129 121.843C126.265 121.971 126.408 122.093 126.479 122.164L126.458 122.193C126.336 122.128 126.136 122.093 125.965 122.078L121.708 121.614L121.322 122.021L124.508 125.043C124.629 125.157 124.665 125.2 124.622 125.3L124.415 125.736L124.5 125.821L125.75 124.507L125.665 124.421L125.136 124.743C125.05 124.8 125 124.764 124.879 124.65L123.143 123C122.965 122.828 122.786 122.671 122.715 122.607L122.736 122.586C122.865 122.671 123.186 122.707 123.358 122.728L127.022 123.178L128.122 122.014L128.115 122ZM130.008 115.671C128.686 114.643 127.408 114.9 126.5 116.057C125.658 117.143 125.815 118.65 126.986 119.557C128.4 120.657 129.693 120.25 130.522 119.186C131.3 118.178 131.25 116.643 130 115.671H130.008ZM133.808 114.328L133.708 114.264L133.329 114.557C133.25 114.628 133.2 114.6 133.05 114.507L129.886 112.414C129.75 112.321 129.708 112.286 129.729 112.178L129.858 111.714L129.765 111.65L128.6 113.407L128.693 113.471L129.072 113.171C129.15 113.114 129.208 113.136 129.343 113.221L132.508 115.321C132.65 115.414 132.693 115.457 132.665 115.557L132.536 116.021L132.636 116.086L133.793 114.336L133.808 114.328ZM136.679 109.421L135.665 108.85L135.55 109.05L136.015 109.486C136.1 109.557 136.108 109.671 136.015 109.828L135.522 110.707L132.079 108.764C131.936 108.686 131.886 108.636 131.908 108.543L132.022 108.036L131.922 107.978L130.858 109.871L130.958 109.928L131.329 109.578C131.4 109.507 131.465 109.528 131.608 109.614L135.05 111.557L134.565 112.421C134.479 112.578 134.372 112.628 134.265 112.6L133.658 112.421L133.543 112.621L134.558 113.193L136.679 109.428V109.421ZM138.293 106.257L135 102.786C134.893 102.664 134.858 102.593 134.843 102.486L134.808 102.214L134.7 102.164L134.065 103.557L134.172 103.607L134.493 103.264C134.565 103.186 134.65 103.171 134.765 103.286L135.565 104.1L134.822 105.721L133.693 105.614C133.529 105.6 133.486 105.536 133.5 105.421L133.55 104.957L133.443 104.907L132.608 106.728L132.715 106.778L132.943 106.621C133.036 106.557 133.093 106.536 133.25 106.55L137.986 106.886L138.279 106.243L138.293 106.257ZM141.636 96.8713L141.522 96.8356L141.215 97.2499C141.15 97.3356 141.093 97.3213 140.936 97.2713L137.343 96.0928C137.186 96.0428 137.136 96.0142 137.129 95.907V95.4213L137.022 95.3856L136.479 97.0356L136.586 97.0713L136.9 96.6213C136.965 96.5356 137.022 96.5428 137.186 96.5928L139.872 97.4713C140.215 97.5856 140.35 97.6285 140.443 97.6499L140.429 97.6928C140.25 97.6713 140.043 97.6928 139.829 97.6999L136.186 97.9213L136.043 98.357L138.858 100.7C139.1 100.907 139.293 101.064 139.372 101.114L139.358 101.15C139.193 101.086 138.972 101.014 138.8 100.957L136.036 100.05C135.879 99.9999 135.829 99.9713 135.822 99.8642V99.3856L135.708 99.3499L135.065 101.321L135.172 101.357L135.458 100.964C135.522 100.886 135.579 100.893 135.736 100.943L139.343 102.121C139.5 102.171 139.55 102.207 139.558 102.307V102.793L139.672 102.828L140.2 101.221L137.593 99.0428C137.372 98.8642 137.222 98.7428 137.058 98.6499V98.6285C137.286 98.6713 137.45 98.6642 137.736 98.6499L141.093 98.4999L141.636 96.8428V96.8713ZM142.943 90.8142L142.822 90.7928L142.579 91.2142C142.529 91.2999 142.472 91.2928 142.308 91.257L138.593 90.4856C138.429 90.4499 138.379 90.4356 138.358 90.3356L138.308 89.8499L138.193 89.8285L137.765 91.8928L137.879 91.9142L138.122 91.4928C138.179 91.407 138.236 91.407 138.4 91.4428L142.322 92.257L142.25 92.5856C142.115 93.2428 141.836 93.6856 141.029 93.5142C140.293 93.3642 140.108 92.7999 140.236 92.1856L140.272 91.9999L137.493 93.2285L137.229 94.4999L137.343 94.5213L137.508 94.3428C137.586 94.257 137.665 94.207 137.793 94.1428L139.979 93.1142C139.979 93.7285 140.236 94.3856 140.965 94.5356C141.915 94.7356 142.308 93.9142 142.486 93.0356L142.95 90.807L142.943 90.8142ZM141.279 84.3285C139.615 84.1428 138.658 85.0285 138.493 86.4928C138.343 87.857 139.265 89.057 140.736 89.2213C142.515 89.4142 143.408 88.3928 143.558 87.0499C143.693 85.7856 142.85 84.4999 141.279 84.3285ZM143.765 83.1285L143.843 79.5356H143.722L143.565 79.9856C143.536 80.0856 143.479 80.0928 143.3 80.0856L139.508 79.9999C139.343 79.9999 139.286 79.9856 139.25 79.8856L139.108 79.4213H138.993L138.943 81.6642H139.058L139.236 81.0713C139.258 80.9785 139.329 80.9642 139.5 80.9713L141.186 81.007L141.158 82.257C141.158 82.4213 141.143 82.4785 141.05 82.507L140.586 82.657V82.8428L142.022 82.8713V82.6856L141.629 82.5213C141.543 82.4856 141.536 82.4356 141.543 82.2713L141.572 81.0213L143.443 81.0642L143.415 82.4713C143.415 82.6499 143.343 82.7356 143.236 82.7713L142.758 82.8928V83.1142L143.772 83.1356L143.765 83.1285ZM141.165 85.3642C139.486 85.1785 138.936 85.8142 138.85 86.5356C138.772 87.257 139.179 87.9928 140.85 88.1785C142.55 88.3642 143.122 87.7213 143.2 87.0142C143.272 86.3499 142.886 85.557 141.165 85.3642ZM33.2075 43.5142L33.5432 43.0999C34.1075 42.3999 34.2504 41.357 33.0432 40.3856C32.079 39.6142 31.129 39.5285 30.4075 40.4356L29.8575 41.1213L32.8861 43.5499C33.029 43.6642 33.1361 43.6213 33.2147 43.5213L33.2075 43.5142ZM137.065 63.7213C137.308 64.5856 138.072 65.3142 139.565 64.8999C140.758 64.5642 141.372 63.8428 141.065 62.7285L140.829 61.8856L137.093 62.9285C136.915 62.9785 136.893 63.0856 136.929 63.2142L137.072 63.7285L137.065 63.7213ZM136.872 105.921C137.086 105.943 137.3 105.957 137.458 106.021L137.472 105.993C137.35 105.921 137.193 105.764 137.015 105.578L135.865 104.4L135.236 105.771L136.879 105.921H136.872Z" fill="#004169"/>
<path d="M43.2212 58.436C43.2212 58.436 43.3784 58.9502 42.8641 59.4217C42.3498 59.8931 41.9855 59.8502 41.9855 59.8502C41.9855 59.8502 42.2069 59.336 42.5212 58.9288C42.8355 58.5217 43.2141 58.436 43.2141 58.436H43.2212ZM40.8427 113.829L40.7427 114.022L41.2569 114.379L40.8427 113.829ZM43.3784 59.7145L43.5141 59.336L43.3784 58.9574L43.0212 59.4931L43.3784 59.7145ZM61.3927 40.0002L61.8427 38.0002L61.0141 39.5502L61.5069 38.0002L60.6284 38.6074L57.8855 41.3217L58.0212 41.636L56.7855 43.0502L56.6927 42.8002L56.2427 43.0217C55.7927 43.2431 55.1855 43.4717 54.9427 43.9645C54.6927 44.4574 54.4284 45.2931 54.4284 45.2931L54.7212 45.3145C55.0141 45.336 54.6784 45.8288 54.6784 45.8288L54.3427 45.6502L54.2998 46.1431L54.0069 45.6502C54.0069 45.6502 53.5784 46.1431 53.5784 46.5502C53.5784 46.9574 53.0427 47.136 53.0427 47.136L52.9069 48.1717L53.8927 47.9217L54.2998 49.3145L53.8069 50.1217L53.0712 52.9217C54.1141 52.4359 55.2498 51.9145 56.4784 51.3717C59.0927 50.2145 61.6498 49.1717 64.0498 48.2431C64.0498 48.1931 64.0641 48.1502 64.0712 48.0931C64.1784 47.6288 64.5212 47.7788 64.7712 47.9645C64.8641 47.9288 64.9641 47.8931 65.0569 47.8574L65.0427 47.1502L64.3212 46.0502L64.6784 45.9574C64.6784 45.9574 64.5855 44.5645 64.8141 43.486C65.0355 42.4074 65.7141 40.6574 65.6427 40.1645C65.5784 39.6717 64.8784 39.6288 64.8784 39.6288L63.4427 42.186C63.4427 42.186 63.5069 41.7574 63.7569 41.2645C64.0069 40.7717 64.2998 39.4431 64.2998 39.4431L63.5355 40.186L63.8498 39.4217L63.4712 39.4002L62.7284 40.1002C62.7284 40.1002 62.8641 39.6288 62.9498 39.536C63.0427 39.4431 63.5998 39.0217 63.9355 39.0217C64.2712 39.0217 64.4284 38.2574 64.1569 37.586C63.8855 36.9145 63.5712 36.3074 63.5712 36.3074C63.5712 36.3074 63.2355 36.5288 62.9212 36.8931C62.6069 37.2502 62.1784 37.9931 62.1784 37.9931L61.3927 39.9931V40.0002ZM41.9784 69.4502L42.2498 69.0145L42.1784 68.5217L41.7927 69.0145L41.9855 69.4502H41.9784ZM43.7498 44.8645L43.8427 44.9002C43.8427 44.9002 44.1355 44.7574 44.4498 44.536C44.7641 44.3145 45.0355 44.3288 45.0355 44.3288C45.0355 44.3288 45.3712 44.0645 45.6355 44.036C45.8998 44.0074 46.3855 44.036 46.3855 44.036L47.9855 42.6145C47.9855 42.6145 47.9712 42.486 48.1141 42.2788C48.2569 42.0717 48.6712 41.6502 48.6712 41.6502C48.6712 41.6502 48.5355 41.686 48.4927 41.6002C48.4498 41.5074 48.4927 41.4431 48.4927 41.4431C48.4927 41.4431 47.6927 42.036 47.4641 42.1431C47.2427 42.2502 46.5712 42.5502 46.5712 42.5502C46.5712 42.5502 46.1498 42.8145 45.8284 42.9931C45.507 43.1717 45.0855 43.3074 45.0855 43.3074C45.0855 43.3074 44.8641 43.5788 44.5212 43.9074C44.1855 44.236 43.6355 44.686 43.6355 44.686C43.6355 44.686 43.7998 44.6931 43.9069 44.7074C44.0141 44.7217 43.7498 44.8717 43.7498 44.8717V44.8645ZM44.6355 64.5502C44.5284 64.7645 44.4784 64.9431 44.4784 64.9431L44.2069 64.4074C44.2069 64.4074 44.2784 64.0145 44.3141 63.4788C44.3427 62.9431 44.1927 62.236 44.1927 62.236C44.1927 62.236 43.7855 62.986 43.5284 63.5359C43.2712 64.0931 43.5284 64.6145 43.5284 64.6145C43.6284 65.3645 43.4569 65.6645 43.4569 65.6645C43.3712 66.0002 43.4569 66.3645 43.4569 66.3645C43.4569 66.3645 43.3855 66.6074 43.0641 67.1288C42.7498 67.6502 42.5855 67.9931 42.5855 67.9931C42.5855 67.9931 42.5427 67.3502 42.3641 66.9145C42.1855 66.4788 41.7212 65.7002 41.7212 65.7002C41.7212 65.7002 41.8427 66.6288 41.8998 67.1502C41.9569 67.6717 41.8284 68.5145 41.8284 68.5145C41.8284 68.5145 41.2927 67.9931 40.9141 67.3431C40.5427 66.7002 40.5284 65.7288 40.5284 65.7288L40.8855 65.5074C40.8855 65.5074 40.7927 65.3574 40.7355 64.9217C40.6784 64.486 40.7498 63.9788 40.7498 63.9788L40.4212 63.886C40.0927 63.7931 39.4784 63.7788 39.4784 63.7788C39.4784 63.7788 39.4069 63.6145 39.4784 63.1217C39.5498 62.6288 40.0927 62.5074 40.0927 62.5074L40.3141 62.0288C40.3141 62.0288 40.4212 62.386 40.6855 62.686C40.9569 62.986 41.4784 62.7431 41.4784 62.7431L41.6712 61.8002C41.6712 61.8002 42.4355 61.1574 42.7712 60.8717C43.1069 60.586 43.0927 60.7502 43.0927 60.7502L43.9284 59.1502L43.7498 58.9574C43.5712 58.7645 43.8427 58.5359 43.8427 58.5359L43.4212 58.6288C43.4212 58.6288 43.4998 58.4074 43.6284 58.1931C43.7641 57.986 43.8641 57.8645 43.8641 57.8645L43.3855 57.9288L43.5427 57.5502C43.5427 57.5502 43.6641 57.5717 43.8355 57.5502C44.0069 57.5288 43.9784 57.2931 44.0069 56.936C44.0284 56.5788 44.0855 56.2645 44.0855 56.2645L44.6784 55.4431L44.4784 55.4217L44.6712 54.7502C44.6712 54.7502 44.3784 54.7645 44.3427 55.0645C44.3069 55.3645 44.0284 55.9645 44.0284 55.9645L43.8141 55.886C43.8141 55.886 43.7998 55.586 43.6427 55.5502C43.4855 55.5145 43.6284 56.0788 43.6284 56.0788L43.4069 56.1717C43.4069 56.1717 43.3855 55.6574 43.2855 55.3502C43.1855 55.0502 42.9569 54.9002 42.9569 54.9002L42.9784 54.7002C42.9998 54.5002 42.7569 54.5574 42.7569 54.5574L42.9784 54.0074C42.9784 54.0074 42.5855 53.836 42.8569 53.3431C43.1284 52.8502 43.5284 52.4217 43.5284 52.4217V52.9502H43.7284L43.8641 52.5145C43.8641 52.5145 43.6141 52.1217 43.9569 51.7431C44.2927 51.3574 44.7784 50.8788 45.4498 50.236C46.1212 49.5931 46.7998 49.0574 47.2712 48.9217C47.7427 48.786 47.5712 49.3574 47.5712 49.3574C47.5712 49.3574 47.2284 49.5717 46.8712 49.8074C46.5141 50.0502 45.6998 50.9288 45.6998 50.9288C45.6998 50.9288 46.2998 50.4931 46.7927 50.0931C47.2855 49.686 48.007 49.736 48.1998 50.0931C48.3927 50.4502 48.3784 50.7217 48.1998 51.2002C48.0212 51.6788 47.5998 52.036 47.5998 52.036C47.5998 52.036 47.6212 51.9145 47.4427 51.7074C47.2641 51.5002 46.7069 52.1288 46.7069 52.1288C46.7069 52.1288 47.2284 51.9645 47.3498 52.1145C47.4712 52.2645 47.4427 52.6502 47.4427 52.6502C47.4427 52.6502 47.3855 52.8002 47.2212 53.4288C47.0927 53.9217 47.0998 54.9717 47.0998 55.8645C45.3069 56.8074 44.3927 57.3502 44.3927 57.3502C44.3927 59.786 44.4712 62.1931 44.6284 64.5502H44.6355ZM42.0069 63.1431C42.0069 63.1431 41.8998 63.4574 41.7355 63.7002C41.5712 63.936 41.2569 64.2074 41.2569 64.2074L41.8284 64.4788C41.8284 64.4788 41.9498 64.2217 42.0069 63.8145V63.1502V63.1431ZM43.5141 56.8788C43.6284 56.7288 43.5141 56.6931 43.5141 56.6931L42.7998 57.2145L42.9498 57.386C42.9498 57.386 43.3998 57.036 43.5141 56.886V56.8788ZM113.478 79.5074C113.857 79.1788 113.986 78.7002 113.986 78.7002C113.986 78.7002 113.936 78.486 114.086 77.9217C114.086 77.9217 113.8 78.5502 113.593 78.6431C113.386 78.736 113.171 78.8074 113.171 78.8074C113.171 78.8074 113.364 79.0288 113.171 79.1217C113.1 79.1502 113.057 79.1717 113.028 79.186C113 79.2931 112.978 79.4074 112.95 79.5145C113.05 79.6145 113.228 79.7217 113.478 79.5145V79.5074ZM49.5998 44.786H49.4212L49.2141 45.0074L49.5141 44.8931L49.6069 44.7788L49.5998 44.786ZM48.9855 43.8217C48.7855 44.0074 48.7569 44.1717 48.7569 44.1717L48.9284 44.1074L49.4141 43.6217C49.4141 43.6217 49.1998 43.636 48.9927 43.8217H48.9855ZM48.6427 42.6645C48.6427 42.6645 48.2284 42.9217 48.0355 43.1717C47.8427 43.4217 48.0355 43.486 48.2855 43.4574C48.5355 43.4288 48.6355 43.4288 48.6355 43.4288L48.5141 43.8145C48.5141 43.8145 48.7141 43.8717 49.0641 43.6502C49.4069 43.4288 49.5141 43.3145 49.5141 43.3145C49.5141 43.3145 49.8427 43.2217 50.1855 42.9002C50.5284 42.5788 50.6069 42.4502 50.6069 42.4502L50.3355 42.4145C50.3355 42.4145 50.5569 42.2502 50.9784 41.9002C51.3998 41.5502 52.1141 40.9645 52.1141 40.9645C52.1141 40.9645 51.5927 41.1145 51.1641 41.486C50.7355 41.8574 50.6569 41.9645 50.5641 41.9931C50.4712 42.0217 50.3998 42.036 50.3998 42.036C50.3998 42.036 49.8998 42.586 49.7998 42.5288C49.6998 42.4788 49.757 42.3502 49.757 42.3502C49.757 42.3502 50.6427 41.6645 51.1069 41.2645C51.5712 40.8645 51.8784 40.5074 51.8784 40.5074L51.8212 40.436L49.7069 41.5074C49.7069 41.5074 49.2141 41.8645 49.0927 42.1574C48.9712 42.4502 49.1355 42.7574 49.1355 42.7574L49.0498 42.8217L48.6427 42.6502V42.6645ZM48.2427 46.5574C48.2427 46.5574 48.6712 46.1002 49.0141 45.7645C49.3641 45.436 49.6427 44.9717 49.6427 44.9717H49.4855C49.4855 44.9717 49.0284 45.2502 48.6212 45.6431C48.2141 46.036 48.2427 46.5502 48.2427 46.5502V46.5574ZM50.6427 40.7431C50.4355 40.886 50.3355 41.0288 50.3355 41.0288L51.4284 40.486H51.2498C51.2498 40.486 50.8498 40.6002 50.6427 40.7431ZM51.0641 43.4002L51.5641 42.8288C51.5641 42.8288 51.3712 42.9931 51.4069 42.8288C51.4427 42.6645 51.4927 42.6217 51.4927 42.6217C51.4927 42.6217 51.0927 42.8431 50.9855 42.9788C50.8712 43.1145 50.7712 43.2431 50.7712 43.2431C50.7712 43.2431 50.7212 43.1574 50.8141 43.036C50.9141 42.9074 51.0284 42.7717 51.0284 42.7717C51.0284 42.7717 50.8784 42.8717 50.8498 42.7431L50.8212 42.6145C50.8212 42.6145 50.5712 42.7431 50.5212 42.8645C50.4712 42.986 50.4355 43.0717 50.4355 43.0717L50.2998 43.0217L50.1927 43.286L49.8712 43.4002V43.5717L49.5641 43.8074C49.5641 43.8074 49.6641 43.9431 49.6927 44.0788C49.7212 44.2145 49.7069 44.2502 49.5498 44.2574C49.3927 44.2645 49.2498 44.2931 49.2498 44.2931L48.5998 44.9002L48.6641 45.2574C48.6641 45.2574 48.9212 45.0431 49.1712 44.8431C49.4212 44.6431 49.5855 44.6217 49.5855 44.6217C49.5855 44.6217 49.9927 44.2288 50.2927 44.0145C50.5927 43.8002 51.0569 43.4074 51.0569 43.4074L51.0641 43.4002ZM92.3355 45.3002C92.4284 45.3288 93.6498 46.1074 93.6498 46.1074L93.5284 45.0288C93.5284 45.0288 92.2427 45.2645 92.3284 45.3002H92.3355ZM39.2427 83.3431C38.6427 82.7288 38.3927 82.7717 38.3927 82.7717C38.3927 82.7717 38.1855 83.0717 38.7355 83.5788C39.2927 84.086 39.5284 84.1288 39.5284 84.1288C39.5284 84.1288 39.8427 83.9502 39.2427 83.336V83.3431ZM83.7998 36.6145L82.1212 36.1931L82.2998 36.6717C82.2998 36.6717 82.5998 36.7645 83.1069 37.0931C83.6141 37.4217 83.2284 37.8717 83.2284 37.8717L84.9355 39.636C84.9355 39.636 85.1427 39.5145 86.5498 40.4788C87.9569 41.436 88.9784 42.0645 88.9784 42.0645C88.9784 42.0645 89.4284 42.8717 90.8927 43.0502C92.3569 43.2288 93.0212 42.4788 93.0212 42.4788L92.5427 42.0574C92.5427 42.0574 92.0069 42.2074 91.1355 42.0574C90.2641 41.9074 88.7998 40.9788 86.8212 39.5431C84.8427 38.1074 83.7998 36.6074 83.7998 36.6074V36.6145ZM89.9998 37.5145L88.8927 37.3074L89.0712 37.5931L89.8212 37.8788L89.9998 37.5217V37.5145ZM46.2141 116.693L46.0141 116.207H45.6212C45.6212 116.207 45.7641 116.307 45.8427 116.407C45.9212 116.507 45.8427 116.6 45.8427 116.6L46.2141 116.693ZM43.4998 87.2645L44.3355 87.4574C44.3355 87.4574 44.5284 86.9788 44.5569 86.5431C44.5855 86.1074 44.4641 85.7502 44.2284 86.0359L43.9855 86.3217C43.9855 86.3217 43.8641 85.9288 44.1212 85.6931L44.3784 85.4502L44.3927 85.1645C44.3927 85.1645 43.7927 85.686 43.9427 85.286C44.0927 84.8788 44.2427 84.6002 44.2427 84.6002C44.2427 84.6002 44.2284 84.1502 43.6569 84.2288C43.0855 84.3074 43.1498 83.8074 43.1498 83.8074C43.1498 83.8074 42.6141 83.6431 42.8355 83.1502C43.0569 82.6574 43.4212 82.0431 43.4212 82.0431C43.4212 82.0431 42.9141 81.7574 42.2712 82.8217C41.6284 83.886 41.1641 85.0645 40.9998 85.2288C40.8355 85.3931 40.6284 85.5431 40.6284 85.5431L40.8069 86.0217C40.8069 86.0217 41.2284 85.9145 41.6427 86.0217C42.0641 86.1288 42.0212 86.1431 42.0212 86.1431C42.0212 86.1431 42.8212 86.2145 42.8212 86.4431C42.8212 86.6717 42.3998 86.9788 42.3998 86.9788H42.9712C42.9712 86.9788 43.2427 86.6645 43.4212 86.4074C43.5998 86.1502 43.8427 86.036 43.6784 86.586C43.5141 87.136 43.4998 87.2574 43.4998 87.2574V87.2645ZM40.3569 87.5217C40.3569 87.4788 39.8498 87.3574 39.8784 86.4002L39.2212 87.2217L39.5498 87.8931C39.5498 87.8931 40.3569 87.5645 40.3569 87.5217ZM38.6784 87.2217L39.0498 86.686C39.0498 86.686 38.5141 86.6717 37.9998 86.3145L38.6712 87.2288L38.6784 87.2217ZM40.7498 110.915L40.8141 110.686C40.8141 110.686 40.5784 110.45 39.9355 110.315L40.0355 110.665L40.7427 110.915H40.7498ZM74.4927 33.0288C76.0498 32.8502 76.6784 32.3074 76.6784 32.3074L78.2927 32.336L76.1641 31.9145C76.1641 31.9145 74.6641 32.3645 73.7712 32.486C72.8712 32.6074 70.6855 32.8431 70.6855 32.8431C70.6855 32.8431 72.9284 33.2002 74.4855 33.0217L74.4927 33.0288ZM51.5712 41.9431L50.9927 42.4502C50.9927 42.4502 50.9498 42.6217 50.9569 42.6145C50.9641 42.6074 51.6212 42.0288 51.6212 42.0288L51.5712 41.936V41.9431ZM73.2927 30.2431L74.757 30.0645L77.0641 29.3145H73.9784L72.8712 29.586C72.8712 29.586 73.5284 29.7074 73.4069 29.9717L73.2855 30.2431H73.2927ZM73.7427 42.1431C73.7427 42.1431 73.9212 42.1002 74.4927 42.5145C75.0641 42.936 75.2141 43.2931 75.2141 43.2931L75.8998 43.2002L75.5998 42.3002C75.5998 42.3002 73.2927 41.5217 72.8712 41.1288C72.4498 40.7431 73.7998 40.6788 73.7998 40.6788L73.1427 39.4502L71.1069 39.2431C71.1069 39.2431 71.6141 39.6288 71.3498 40.4431C71.1355 41.0931 70.6927 41.4002 70.6927 41.4002C70.6927 41.4002 71.0498 42.386 72.3998 43.0717C72.9355 43.3431 73.7069 44.2431 73.7069 44.2431L74.4641 44.586C74.6712 44.5217 74.8712 44.4574 75.0641 44.3931L73.7498 42.1288L73.7427 42.1431ZM36.4927 87.9002C36.4927 87.9002 36.1927 87.7788 35.1284 88.0645C34.0641 88.3502 34.3784 89.186 34.6498 89.6645C34.9212 90.1431 34.6498 90.186 34.6498 90.186C34.6498 90.186 34.6784 90.2574 34.1427 90.2574C33.6069 90.2574 33.7355 90.5145 33.7355 90.5145C33.7355 90.5145 33.6641 90.5288 33.1212 90.486C32.5784 90.4431 32.7927 91.2502 32.7927 91.2502C32.7927 91.2502 32.2998 92.4217 32.1927 93.2574C32.0855 94.0931 32.2998 94.636 32.2998 94.636L32.1355 95.2074C32.1355 95.2074 32.0569 95.1931 31.6998 95.3431C31.3427 95.4931 31.1641 96.1359 31.1641 96.1359L30.8069 96.1788C30.8069 96.1788 30.7141 96.3717 30.7498 96.8074C30.7784 97.2431 31.1355 98.4217 31.6784 99.8002C32.2141 101.179 32.3855 102.093 32.3855 102.093H32.2212C32.2212 102.093 31.7712 101.222 31.2355 100.057C30.6998 98.886 30.1427 97.0788 30.1427 97.0788H29.8569C29.8569 97.0788 29.9927 96.7931 29.2998 95.6717C28.6141 94.5502 29.0784 95.986 29.0784 95.986L28.8784 95.6717C27.3641 90.7217 26.5498 85.4645 26.5498 80.0145C26.5498 62.2217 35.2427 46.4645 48.6069 36.7431C48.0569 37.2788 48.1427 37.3002 48.5212 37.0717C49.0284 36.7717 50.3641 36.2074 50.3641 36.2074L49.8069 36.7002H50.6784C50.6784 36.7002 50.6212 36.7431 50.4212 36.9288C50.2284 37.1074 50.4998 37.1217 50.4998 37.1217C50.4998 37.1217 49.6927 37.4788 49.2427 37.8431C48.7927 38.2002 48.1355 38.6074 47.0141 39.4145C45.8927 40.2217 45.7855 40.586 45.7855 40.586C45.7855 40.586 44.5855 41.586 43.9355 42.1502C43.2855 42.7145 42.8355 43.2645 42.8355 43.2645L43.3141 43.186C43.3141 43.186 43.2569 43.2074 43.0284 43.8431C42.8069 44.4788 43.6712 43.9502 43.6712 43.9502C43.6712 43.9502 42.9855 44.586 42.1427 45.2717C41.3069 45.9645 42.2927 45.4074 42.2927 45.4074L41.7855 45.786C41.2784 46.1645 41.6927 46.0931 41.6927 46.0931C41.6927 46.0931 41.4998 46.5074 41.2141 46.8002C40.9284 47.0931 40.4927 47.736 39.9427 48.8288C39.3855 49.9217 39.0569 50.0217 39.0569 50.0217C39.0569 50.0217 39.0998 49.4502 38.6498 50.1645C38.1998 50.8788 38.1712 51.3288 38.3641 51.3431C38.5569 51.3574 38.6927 51.3574 38.6927 51.3574C38.6927 51.3574 37.4784 52.986 37.9712 52.5574C38.4641 52.1217 38.5284 52.0645 38.5284 52.0645L39.1284 51.9431L39.2641 52.0502C39.2641 52.0502 38.7998 52.5002 38.7427 52.8002C38.6855 53.1002 38.7284 53.2217 38.7284 53.2217C38.7284 53.2217 38.1427 54.2717 38.3998 54.2074L38.6569 54.1502C38.6569 54.1502 38.6141 55.0645 38.8927 54.586L39.1784 54.1074C39.1784 54.1074 39.6569 53.7145 39.5498 54.286L39.4427 54.8574C39.4427 54.8574 38.3212 55.8431 38.7569 55.6074C39.1927 55.3717 39.3569 55.186 39.3569 55.186C39.3569 55.186 39.6712 55.4074 40.0284 54.9145C40.3855 54.4217 40.3569 54.286 40.3569 54.286C40.3569 54.286 40.5998 54.0288 40.8641 53.836C40.9855 53.7502 41.0712 53.6931 41.1284 53.6574C41.1284 53.436 41.1712 53.1931 41.2569 52.9574C41.5498 52.1931 41.9427 51.8788 42.1569 51.7431L42.3712 51.6074C42.3712 51.6074 42.7998 51.036 43.1712 50.7431C43.5427 50.4502 43.8855 50.3145 44.1855 50.0217V50.2145C44.1855 50.2145 43.9355 50.7502 43.5212 51.3288C43.1069 51.9002 42.7927 52.2145 42.4998 52.7645C42.2069 53.3145 42.2069 53.2574 42.2069 53.2574C42.2069 53.2574 41.6212 53.4645 41.5212 53.7217C41.4427 53.9217 41.5641 54.4002 41.5641 54.4002L41.4498 54.4645C41.3355 54.536 41.1712 54.6645 41.0498 54.8288C40.8569 55.1002 40.8712 55.3502 41.1355 55.1288C41.3998 54.9074 41.4855 54.8002 41.4855 54.8002C41.4855 54.8002 41.4569 55.3574 41.1355 55.786C40.8141 56.2217 40.3212 56.5502 40.0927 57.0288C39.8712 57.5074 39.7069 58.0074 39.7069 58.0074C39.7069 58.0074 40.1569 57.536 40.5569 57.2645C40.9641 56.9931 41.4427 56.2645 41.4427 56.2645C41.4427 56.2645 41.7141 56.3717 41.9069 56.0074C42.0998 55.6502 42.1498 55.5002 42.3998 55.2145C42.6569 54.9288 42.8641 54.9717 42.8641 54.9717C42.8641 54.9717 43.0427 55.7074 42.8069 56.3502C42.5641 56.9931 42.2855 57.336 42.2855 57.336L41.9427 57.486L41.8498 57.0788C41.8498 57.0788 41.5784 57.3502 41.3569 58.0788C41.1355 58.8145 41.1427 58.9645 41.1427 58.9645C41.1427 58.9645 40.8641 59.2788 40.4427 59.5502C40.0212 59.8217 39.4784 59.986 39.4784 59.986C39.4784 59.986 39.2855 59.6431 39.2855 59.6002C39.2855 59.5574 39.4784 59.1645 39.4784 59.1645C39.4784 59.1645 39.3784 59.3288 39.2855 59.1645C39.1927 59.0002 39.1784 58.9717 39.1784 58.9717C39.1784 58.9717 38.9569 59.1645 38.9712 59.3502C38.9855 59.5359 38.9712 59.6574 38.9712 59.6574C38.9712 59.6574 38.7141 59.7788 38.3855 60.0788C38.0569 60.3788 37.9498 60.486 37.9498 60.486C37.9498 60.486 37.7712 60.336 37.8427 59.8717C37.9141 59.4074 38.0069 59.1645 38.0069 59.1645C38.0069 59.1645 37.5712 59.7217 37.5855 60.0645C37.5998 60.4074 37.8427 60.6645 37.8427 60.6645L36.5069 61.8788C36.5069 61.8788 36.5641 61.0431 36.2212 61.4717C35.8784 61.9074 35.5927 61.8788 35.5927 61.8788C35.5927 61.8788 35.6498 62.2074 35.3498 62.4002C35.0498 62.5931 34.9141 62.2074 34.9141 62.2074C34.9141 62.2074 34.9427 62.3002 34.6927 62.6002C34.4355 62.9002 34.0355 62.9931 34.0355 62.9931C34.0355 62.9931 33.8569 63.3074 33.4998 63.6645C33.1427 64.0217 32.5998 64.4717 32.2141 65.2788C31.8284 66.086 31.7641 66.3288 31.7641 66.3288C31.7641 66.3288 32.1069 66.436 31.8998 66.8502C31.6927 67.2717 31.5427 67.8074 31.4784 68.0931L31.4212 68.3788L30.9712 68.7502C30.9712 68.7502 31.5855 68.6788 31.6284 69.136C31.6712 69.6002 31.8212 69.9717 31.7927 70.5288C31.7641 71.086 31.6998 71.3074 31.6998 71.3074C31.6998 71.3074 31.8212 71.636 31.8927 71.8288C31.9641 72.0217 31.9998 72.2002 31.9998 72.4574C31.9998 72.7145 31.9855 72.8431 31.9855 72.8431C31.9855 72.8431 32.1784 72.8431 32.3427 73.1002C32.5069 73.3574 32.5212 73.4574 32.5212 73.4574L32.7784 73.5145L32.3284 74.5217C32.3284 74.5217 32.3569 74.9074 32.1355 75.3288C31.9141 75.7502 31.8069 76.0645 31.8998 76.6931C31.9927 77.3217 32.0069 77.6502 31.9927 77.8788L31.9784 78.1002L32.2212 78.5502C32.2212 78.5502 32.2784 78.2502 32.5355 78.0431C32.7927 77.836 32.8927 77.7145 32.8927 77.7145C32.8927 77.7145 32.8784 76.936 33.0998 76.2002C33.3212 75.4645 33.3427 74.6002 33.3427 74.6002C33.3427 74.6002 34.0784 74.586 34.4927 74.2431C34.9141 73.9002 35.2855 73.2717 35.4069 72.6145C35.5284 71.9574 35.6141 71.2502 35.5855 70.9217C35.5569 70.5931 35.5141 70.5145 35.5141 70.5145L35.6641 70.1574C35.6641 70.1574 36.1998 69.7502 36.4712 69.3502C36.7427 68.9431 36.9498 67.7502 36.9498 67.7502C36.9498 67.7502 37.4855 67.5431 37.5498 67.136C37.6069 66.7288 37.5641 66.6002 37.5641 66.6002L37.9069 65.8931L38.2641 65.786C38.2641 65.786 38.5355 66.4288 38.8641 66.5788C39.1927 66.7288 39.3141 66.5931 39.3141 66.5931C39.3141 66.5931 39.4498 66.8502 39.4069 67.6145C39.3641 68.3788 39.3284 68.6502 39.6498 68.8431C39.9641 69.0359 40.0355 69.1145 40.0355 69.1145C40.0355 69.1145 39.8712 69.3217 39.5998 69.8931C39.3284 70.4645 39.3284 70.7788 39.3284 70.7788C39.3284 70.7788 38.9069 71.4502 39.0569 71.8288C39.2069 72.2002 39.2498 72.2931 39.2498 72.2931C39.2498 72.2931 39.1427 72.9788 39.5927 72.8145C40.0427 72.6502 40.1927 72.3217 40.1927 72.3217C40.1927 72.3217 40.3712 72.4717 40.6998 71.8717L41.0284 71.2717L41.5498 70.4502L41.7427 70.4931C41.7427 70.4931 41.5784 71.0931 41.5784 71.6145C41.5784 72.136 41.6069 72.3217 41.6069 72.3217C41.6069 72.3217 41.4427 73.1288 41.5141 73.8502C41.5927 74.5717 41.7212 75.2574 41.7212 75.2574C41.7212 75.2574 41.0141 75.6002 41.2712 76.1717C41.5284 76.7431 41.7641 77.1288 41.7641 77.1288C41.7641 77.1288 41.5212 77.3074 41.8212 77.4717C42.1212 77.636 42.2998 77.7431 42.2998 77.7431C42.2998 77.7431 42.1355 77.9645 42.4355 78.1502C42.7355 78.3288 43.0641 78.3574 43.0641 78.3574L41.9141 79.0645C41.9141 79.0645 42.7069 78.8574 42.8712 79.0645C43.0355 79.2717 42.6784 79.6502 42.6784 79.6502C42.6784 79.6502 43.2784 79.3217 43.4712 79.7717C43.6641 80.2217 43.2284 80.8645 43.2284 80.8645C43.2284 80.8645 43.5998 81.0717 43.2998 81.4788C42.9998 81.886 42.4141 82.1217 42.4141 82.1217C42.4141 82.1217 41.8284 81.8217 41.5784 82.1217C41.3212 82.4217 41.3212 82.6431 41.3212 82.6431L40.6498 83.0645C40.6498 83.0645 40.4427 83.0788 39.2998 82.736C38.1641 82.3931 37.4855 82.0502 37.4855 82.0502C37.4855 82.0502 37.0212 82.4217 36.9141 82.6502C36.8069 82.8717 36.7927 83.0717 36.7927 83.0717C36.7927 83.0717 36.4212 82.8002 35.8927 83.4002C35.3712 84.0002 34.6641 84.8074 34.6641 84.8074H34.9641C34.9641 84.8074 35.6212 83.9074 36.1641 83.6717C36.6998 83.4288 37.5998 83.2645 37.9284 83.7788C38.2569 84.286 37.5427 84.8145 37.5427 84.8145L37.2212 84.5574L36.9284 84.586C36.9284 84.586 37.1141 84.6145 37.2212 84.8074C37.3284 85.0002 37.3284 85.0788 37.3284 85.0788L37.6427 84.9431L37.8641 85.136C37.8641 85.136 37.5355 85.3574 37.5927 85.8717C37.6498 86.3788 37.6998 86.6645 37.6998 86.6645C37.6998 86.6645 38.0141 86.8431 38.0427 86.886C38.6855 87.8431 39.0284 87.3931 39.0284 87.3931L39.4641 88.0931C39.4641 88.0931 38.5641 88.2717 37.9784 88.4645C37.3927 88.6574 37.3212 89.0002 37.3212 89.0002L36.8998 89.2074C36.8998 89.2074 36.5427 88.386 36.7212 88.0717C36.8998 87.7574 37.2784 87.536 36.7784 87.486C36.2855 87.4431 36.4641 87.9217 36.4641 87.9217L36.4927 87.9002ZM40.9855 79.0217C40.9855 79.0217 41.2427 79.3217 41.1927 79.486C41.1498 79.6502 41.0927 79.8574 41.0927 79.8574L42.0069 79.1217L41.8141 79.0145C41.8141 79.0145 41.5427 79.386 40.9927 79.0145L40.9855 79.0217ZM38.7712 78.4502C38.6998 78.6717 38.6998 78.7502 38.6998 78.7502L38.9069 79.3217C38.9069 79.3217 38.8284 78.8288 38.9998 78.5859C39.2427 78.2431 39.3141 78.6431 39.5569 78.6788C39.7712 78.7074 40.0069 78.5859 40.0069 78.5859V78.1074C40.0069 78.1074 39.5855 78.2574 39.5998 77.9431C39.6141 77.6288 39.5712 77.536 39.5712 77.536C39.5712 77.536 39.4355 78.1217 39.0927 78.0145C38.7498 77.9074 38.7069 77.8502 38.7069 77.8502C38.7069 77.8502 38.8569 78.2217 38.7784 78.4502H38.7712ZM36.7498 77.386C36.9141 77.7002 37.2855 77.8502 37.2855 77.8502C37.2855 77.8502 37.1212 77.536 37.1498 77.3431C37.1784 77.1502 37.2569 77.0002 37.3284 77.1574L37.3998 77.3145L37.5784 77.1217C37.5784 77.1217 37.5641 76.9574 37.4427 76.7788C37.3212 76.6002 37.1569 76.4645 37.1569 76.4645C37.1569 76.4645 36.5712 77.0788 36.7355 77.3931L36.7498 77.386ZM29.2498 77.9431L29.4712 77.0288L29.2498 76.836C29.2498 76.836 29.1284 77.0145 29.0712 77.3717C29.0141 77.7288 29.2498 77.9431 29.2498 77.9431ZM29.6712 83.636C29.6712 84.2074 29.4284 84.836 29.4284 84.836C29.4284 84.836 29.9641 84.536 29.8784 85.1645C29.7855 85.7931 29.7855 86.1074 29.7855 86.1074L30.0998 85.8217C30.0998 85.8217 30.1284 85.3431 30.2498 84.9502C30.3712 84.5574 30.4141 84.3645 30.4141 84.3645L30.7141 85.186L30.9355 84.9145L30.6641 83.3431C30.6641 83.3431 29.8284 82.5074 29.7212 81.9931C29.6141 81.486 29.7069 80.3002 29.7069 80.3002C29.7069 80.3002 29.4355 80.0931 29.4498 79.686C29.4641 79.2788 29.4927 79.0431 29.4927 79.0431L29.0998 78.236C29.0998 78.236 28.9069 78.7288 28.6355 78.8074C28.3641 78.886 28.1569 78.8074 28.1569 78.8074L27.7998 79.3502H28.1284C28.1284 79.3502 27.9641 80.0502 28.3069 80.0717C28.6498 80.086 28.8427 79.8931 28.8427 79.8931C28.8427 79.8931 28.6498 80.2502 28.7998 80.7288C28.9498 81.2074 29.3998 81.4002 29.3998 81.4002L29.6569 82.4645C29.6569 82.4645 29.5069 82.1645 29.2069 81.9288C28.9069 81.686 28.5641 81.686 28.3998 82.6145C28.2355 83.5431 28.1927 84.8431 28.2498 85.236C28.3069 85.6217 28.4427 85.6574 28.4427 85.6574C28.4427 85.6574 28.6855 85.3574 28.7284 84.4145C28.7712 83.4717 28.9498 83.0788 28.9498 83.0788L29.3569 82.586C29.3569 82.586 29.6569 83.0645 29.6569 83.636H29.6712ZM30.8712 86.8788C30.6498 86.7002 30.4355 86.8788 30.4355 86.8788C30.4355 86.8788 30.3284 86.4002 30.0641 86.6002L29.7927 86.7931C29.7927 86.7931 29.5498 86.6574 29.6427 86.3145C29.6427 86.3145 29.2712 86.9288 29.5212 87.2859C29.7784 87.6431 30.9855 87.2859 30.9855 87.2859C30.9855 87.2859 31.0927 87.0574 30.8641 86.8788H30.8712ZM32.1784 86.386C32.1784 86.386 31.9784 86.1002 31.8712 86.3145L31.7641 86.5217C31.7641 86.5217 31.6927 86.2217 31.4212 86.1145C31.1498 86.0074 30.7927 86.1145 30.8498 86.4145C30.9141 86.7574 31.4069 86.7574 31.4069 86.7574C31.4069 86.7574 31.6141 87.2645 31.8712 87.2502C32.1284 87.236 32.1784 86.3788 32.1784 86.3788V86.386ZM33.6855 82.8645C33.6855 82.8645 33.4784 82.386 33.5498 82.0431L33.0998 82.2074L33.6855 82.8645ZM34.7927 80.1574L34.8498 79.8431C34.8498 79.8431 34.4141 79.7217 34.2355 80.0645C34.0569 80.4074 34.1284 80.6645 34.1284 80.6645L34.7855 80.1574H34.7927ZM38.9712 64.4502V65.036C38.9712 65.036 39.2569 64.9717 39.2427 64.7002C39.2284 64.436 38.9712 64.4502 38.9712 64.4502ZM40.9927 52.3574C40.7498 52.5074 40.7641 52.5645 40.6069 52.7502C40.4498 52.936 40.0998 52.9074 40.0998 52.9074C40.0998 52.9074 40.0569 52.9074 39.8998 53.336C39.7427 53.7717 39.7141 54.4002 39.7141 54.4002L40.2427 54.2145C40.2427 54.2145 40.2784 54.0145 40.4569 53.7788C40.6355 53.5502 41.0427 53.2217 41.0427 53.2217C41.0427 53.2217 40.9498 53.1074 40.9641 52.9002C40.9641 52.6931 41.3284 52.2645 41.3284 52.2645C41.3284 52.2645 41.2355 52.2002 40.9998 52.3502L40.9927 52.3574ZM37.9069 60.9431C37.1712 62.0074 37.0855 62.1574 37.0855 62.1574C37.0855 62.1574 36.9569 62.0145 36.7927 62.3502L36.6284 62.686C36.6284 62.686 36.9927 62.6217 36.7855 62.9645C36.5784 63.3074 36.5212 63.486 36.5212 63.486C36.5212 63.486 36.8069 63.6074 36.9998 63.3717L37.1927 63.136L37.4069 63.1145C37.4069 63.1145 37.6069 62.636 37.7641 62.6645C37.9212 62.6931 37.7069 62.9788 37.7069 62.9788C37.7069 62.9788 37.9569 63.0788 37.8355 63.236C37.7141 63.3931 37.6141 63.5145 37.6141 63.5145L37.9212 64.036C37.9212 64.036 38.2855 63.8574 38.3784 63.5431C38.4712 63.2288 38.1069 63.186 38.1069 63.186C38.1069 63.186 38.4498 62.936 38.4855 62.3788C38.5212 61.8145 38.5927 61.4074 38.5927 61.4074C38.5927 61.4074 38.5284 61.086 38.6284 60.6217C38.7355 60.1574 38.7855 60.0288 38.7855 60.0288C38.7855 60.0288 38.6355 59.8788 37.8998 60.9431H37.9069ZM78.0641 28.5002L77.0784 29.0074L78.9355 28.6788L78.0641 28.5002ZM122.828 109.843C122.421 110.536 122.314 111.036 122.314 111.036C122.314 111.036 121.978 111.736 121.571 112.229C121.164 112.722 120.336 114.293 120.336 114.293H120.557C120.557 114.293 121.636 113.15 122.464 111.893C122.464 111.893 124.393 108.865 124.957 107.786C125.521 106.707 125.9 105.607 125.857 105.136C125.857 105.136 125.136 106.572 124.486 107.557C123.836 108.543 123.228 109.15 122.821 109.85L122.828 109.843ZM38.4141 65.136L38.6855 65.0288L38.7927 64.6931L38.6712 64.4431H38.4784L38.4212 65.1288L38.4141 65.136ZM133.478 78.9717C133.321 77.7145 133.057 75.6717 132.857 74.6145C132.557 73.0288 132.2 71.8288 132.2 71.8288V73.4431L131.721 72.7574L131.571 72.4288C131.421 72.1002 131.093 72.2788 131.093 72.2788L130.521 71.3788C130.521 71.3788 130.286 72.4288 129.714 73.5359C129.143 74.6431 128.264 75.3002 128.264 75.3002L127.571 74.4217L127.193 75.8145L126.764 76.1288C126.764 76.1288 126.628 75.9717 126.157 75.9931C125.686 76.0145 125.436 76.2431 125.436 76.2431C125.436 76.2431 124.271 74.9217 123.771 75.4574C123.278 75.9931 123.678 76.4645 123.678 76.4645L123.407 76.8217H123.786L124.436 77.6074L124.75 77.4717L126.143 78.9788L125.943 77.6788C125.943 77.6788 126.171 77.9931 126.393 78.6002C126.614 79.2074 126.821 79.2288 126.821 79.2288L127.021 78.5788C127.021 78.5788 127.607 78.2645 127.671 77.386C127.736 76.5074 127.693 75.1431 127.693 75.1431C127.693 75.1431 127.914 75.6145 128.143 76.2217C128.364 76.8288 128.728 76.8502 128.728 76.8502L129.221 76.2217L129.757 76.786C129.757 76.786 129.85 78.0002 129.757 78.8288C129.664 79.6574 129.936 80.136 129.936 80.136C129.936 80.136 129.821 80.3288 129.664 80.7574C129.507 81.186 129.664 81.4502 129.664 81.4502C129.664 81.4502 129.6 81.6502 129.35 82.0574C129.1 82.4645 129.35 82.936 129.35 82.936C129.35 82.936 128.943 83.7002 128.614 84.1502C128.286 84.6002 128.493 85.2288 128.493 85.2288L127.486 87.2288C127.486 87.2288 127.393 87.6574 127.057 88.3717C126.721 89.0931 126.071 89.586 126.071 89.586C126.071 89.586 125.893 89.9431 125.757 90.3931C125.621 90.8431 125.107 91.1574 125.107 91.1574L124.3 89.586C124.3 89.586 124.393 88.936 124.121 88.6217C123.85 88.3074 123.086 88.0574 123.086 88.0574C123.086 88.0574 123.128 87.8788 122.814 87.5431C122.5 87.2074 121.964 87.3431 121.964 87.3431L121.357 87.0717C121.357 87.0717 121.357 86.4002 120.793 85.7002C120.228 85.0074 119.736 85.5002 119.736 85.5002C119.736 85.5002 119.357 84.9145 118.343 84.1288C117.336 83.3431 117.043 83.7002 117.043 83.7002L116.728 82.486C116.728 82.486 116.686 82.736 116.728 83.2288C116.771 83.7217 116.793 84.2145 116.793 84.2145L116.386 84.1217C115.978 84.0288 115.014 83.4002 115.014 83.4002C115.014 83.4002 115.078 83.6002 115.35 83.936C115.621 84.2717 116.807 84.8574 116.807 84.8574C116.807 84.8574 117.078 85.2645 117.414 85.6002C117.75 85.936 118.693 86.4574 118.693 86.4574L118.807 87.0431C118.921 87.6288 119.414 87.2217 119.414 87.2217L120.021 87.4717L121.007 89.4717C121.007 89.4717 122.014 89.5145 122.15 89.8288C122.286 90.1431 122.843 91.1502 122.843 91.1502L123.514 90.8574C123.514 90.8574 124.278 91.0359 124.75 91.3717C125.221 91.7074 124.886 92.1145 124.886 92.1145C124.886 92.1145 125.264 92.3145 125.536 92.4931C125.807 92.6717 126.414 91.5288 127.264 90.3788C128.114 89.236 128.564 88.336 128.564 88.336C128.564 88.336 128.628 88.6502 128.564 89.3002C128.5 89.9502 128.271 91.3002 127.821 93.5431C127.371 95.786 125.557 98.9074 124.45 101.157C123.35 103.4 122.493 105.443 122.493 105.443L122.743 105.486C122.743 105.486 122.807 105.643 122.628 106.05C122.45 106.457 122.407 107.4 122.407 107.4L122.743 107.265C122.743 107.265 122.7 107.486 122.428 108.407C122.157 109.329 121.55 110.565 120.471 111.936C119.393 113.307 118.093 114.522 118.093 114.522C118.093 114.522 117.821 115.822 117.421 116.45C117.014 117.079 115.671 118.157 115.671 118.157C115.671 118.157 115.493 118.607 114.686 119.457C113.878 120.307 111.364 122.65 110.214 123.5C109.071 124.357 107.093 125.207 107.093 125.207C107.093 125.207 107.386 124.8 107.471 124.515C107.564 124.222 107.336 123.915 107.336 123.915L106.828 123.736C106.828 123.736 106.886 122.357 106.407 121.793C105.928 121.222 105.386 121.286 105.386 121.286C105.386 121.286 105.386 120.957 105.536 120.329C105.686 119.7 105.893 119.129 105.893 119.129C105.893 119.129 106.971 117.993 107 117.665C107.028 117.336 106.343 116.829 106.343 116.829C106.343 116.829 106.643 116.257 106.164 115.722C105.686 115.186 105.236 115 104.036 114.822C102.836 114.643 102.686 114.015 102.686 114.015C102.686 114.015 102.957 113.743 102.957 113.386C102.957 113.029 102.9 112.879 103.078 112.636C103.257 112.393 103.65 111.5 102.807 111.079C101.971 110.657 101.221 111.5 100.714 111.857C100.207 112.215 99.4284 112.243 99.4284 112.243C99.4284 112.243 99.1855 111.822 98.7069 111.643C98.2284 111.465 97.2998 111.736 97.2998 111.736L94.3069 113.715L93.0784 114.436C93.0784 114.436 92.9569 114.493 92.3569 114.557C91.757 114.615 91.0998 115.007 90.1712 115.215C89.2427 115.422 88.4641 116.265 88.4641 116.265C88.4641 116.265 87.3712 116.172 86.1569 116.036C93.3927 110.643 102.693 102.286 108.421 91.7002C109.586 89.5431 110.614 87.1217 111.493 84.486L112.478 84.1074C112.478 84.1074 112.657 83.686 113.014 83.0574C113.371 82.4288 113.943 82.4574 114.478 82.2217C115.014 81.9788 115.35 81.6502 115.35 81.6502C115.35 81.6502 115.407 80.5717 115.35 79.2217C115.293 77.8717 114.628 77.2145 114.628 77.2145L114.514 76.8288C114.514 76.8288 114.55 76.386 114.471 76.3074C114.278 76.1217 114.121 76.7645 114.121 76.7645L113.586 76.9145C113.586 76.9145 113.571 77.2859 113.393 77.6931C113.371 77.7431 113.336 77.8002 113.307 77.8502C113.778 75.7145 114.171 73.486 114.478 71.186C114.493 71.186 114.507 71.1788 114.507 71.1788C114.507 71.1788 114.943 70.5931 114.921 70.2574C114.914 70.1074 114.821 69.8645 114.671 69.6502C114.878 67.8931 115.043 66.0931 115.157 64.2717L115.728 65.6002C115.728 65.6002 116.286 65.4788 116.728 66.0502C117.178 66.6217 119.543 67.1288 119.543 67.1288C119.543 67.1288 119.007 67.7288 119.543 68.6288C120.078 69.5288 120.443 69.9788 120.443 69.9788L121.071 69.5574C121.071 69.5574 121.728 69.9788 122.243 69.2574C122.75 68.536 122.993 68.2074 122.993 68.2074C122.993 68.2074 122.571 68.0002 122.214 67.4288C121.857 66.8574 121.707 66.5931 121.707 66.5931C121.707 66.5931 120.986 66.7145 120.628 66.1431C120.271 65.5717 120.15 65.3788 120.15 65.3788C120.15 65.3788 119.343 65.0645 119.221 64.6717C119.1 64.286 119.043 64.1645 119.043 64.1645L118.593 64.4645L117.036 63.986L117.393 63.3574C117.393 63.3574 116.643 62.936 116.943 62.6074C117.243 62.2788 117.571 62.0074 117.571 62.0074C117.571 62.0074 117 61.6217 116.85 61.286C116.7 60.9574 116.371 60.7788 116.371 60.7788C116.371 60.7788 115.714 60.986 115.471 61.9145C115.371 62.3002 115.286 62.7502 115.221 63.136C115.321 61.2288 115.371 59.3002 115.371 57.3502C115.371 57.3502 114.693 56.386 107.514 52.6502C103.186 50.3931 98.8998 48.4217 94.9712 46.7502L95.0355 46.6574L94.5712 45.5788C94.5712 45.5788 94.7069 45.3074 94.6284 44.8574C94.5569 44.4074 94.5998 44.1074 94.5998 44.1074L95.1355 44.6002C95.1355 44.6002 95.2141 45.0931 95.4355 44.886C95.6641 44.6788 95.5712 44.4074 95.5712 44.4074L95.3498 43.9717C95.3498 43.9717 95.6784 43.8074 95.6069 43.4931C95.5355 43.1788 95.4427 42.836 95.4427 42.836L96.3284 43.3431L96.4784 43.136L96.0712 42.9288L95.9641 42.4645L94.7498 42.1788C94.7498 42.1788 94.5284 42.4002 94.3498 42.3002C94.1784 42.1931 94.0569 42.1788 94.0569 42.1788L94.0855 42.3288C94.0855 42.3288 93.7712 42.3288 93.4569 42.1788C93.1427 42.0288 93.0212 41.8502 93.0212 41.8502C93.0212 41.8502 94.0712 42.0931 94.4427 41.8502C94.8141 41.6145 95.0427 41.1431 95.0427 41.1431H95.5998L95.9569 41.2788L95.8855 41.0217L96.8927 40.8431L98.0141 40.9645L96.9069 40.2788L96.7855 40.4717C96.7855 40.4717 96.7141 40.5002 96.3641 40.4288C96.0212 40.3574 95.8069 40.2788 95.8069 40.2788L96.0498 40.6074L94.9141 40.2788C94.9141 40.2788 95.007 40.186 94.6784 40.0574C94.3498 39.9217 93.4784 39.836 93.4784 39.836L92.8641 39.5645L92.4427 39.0574L90.0141 38.0217L90.3141 37.6145L90.7498 37.4502L90.0141 36.9217L90.8855 36.4288L89.8498 35.9502L90.7355 35.8288L89.0855 35.5788C89.0855 35.5788 89.1284 35.336 88.8569 34.936C88.5855 34.5288 88.3212 34.3074 88.3212 34.3074L88.8427 34.4002C88.8427 34.4002 88.5998 34.0717 87.9712 34.236C87.3427 34.4002 87.4641 34.6645 86.2355 34.1931C85.0069 33.7217 84.1998 33.1002 83.8712 33.0574C83.5427 33.0145 83.0355 32.936 83.0355 32.936L82.8998 32.6502L83.2284 32.5574C83.2284 32.5574 83.0212 32.436 82.7641 32.3931C82.5069 32.3502 82.3284 32.2288 82.3284 32.2288L81.8498 32.3217L81.6998 31.9931C81.6998 31.9931 81.6069 32.0217 81.3427 32.086C81.0712 32.1431 80.5355 32.1002 79.7855 32.0574C79.0355 32.0145 77.9141 31.9217 77.9141 31.9217L78.3498 31.6788C78.3498 31.6788 78.7427 31.8574 78.9641 31.736C79.1855 31.6145 79.1569 31.5288 79.1569 31.5288H80.5784C80.5784 31.5288 80.3069 31.4574 79.9569 31.436L79.6069 31.4217L79.0712 31.2431C79.0712 31.2431 79.8212 30.9002 80.7212 30.7788C81.6212 30.6574 83.8927 30.8217 84.9141 30.9574C85.9284 31.0931 87.6212 31.3288 87.6212 31.3288C87.6212 31.3288 86.9141 30.986 86.3927 30.9217C85.8712 30.8645 85.7212 30.8931 85.7212 30.8931L84.8855 30.7288L84.8141 30.486L85.3498 30.4288L84.2284 29.9502L85.0069 29.8288C85.0069 29.8288 85.0641 29.6217 84.5712 29.4717C84.0784 29.3217 82.9712 29.4717 82.9712 29.4717L82.5998 29.4074L82.3427 29.1002C82.3427 29.1002 82.9712 28.8431 83.6427 28.7431C84.3141 28.636 84.5427 28.8145 84.5427 28.8145L85.6784 28.2788L83.3998 28.4431L83.7569 28.2788L83.5355 28.1288C83.5355 28.1288 83.1641 28.2217 82.6641 28.1288C82.1712 28.036 81.8284 27.936 81.8284 27.936C81.8284 27.936 81.3069 28.0717 80.6784 28.1788C80.0498 28.286 79.4641 28.3574 79.4641 28.3574L78.5355 28.0431C78.5355 28.0431 77.9212 28.1502 77.7284 28.0574C77.5355 27.9645 78.6998 27.486 78.6998 27.486C78.6998 27.486 78.5069 27.4288 77.7069 27.486C76.9069 27.5431 76.3498 27.5788 76.3498 27.5788C76.3498 27.5788 76.4855 27.4145 76.8427 27.3074C77.1998 27.2002 77.3498 27.1431 77.3498 27.1431C77.3498 27.1431 75.6141 27.1717 75.0284 27.2788C74.4427 27.386 73.8641 27.5788 73.8641 27.5788C73.8641 27.5788 74.8498 27.1145 74.0569 27.2645C73.2641 27.4145 73.2212 27.686 73.2212 27.686C73.2212 27.686 72.9355 27.686 72.4998 27.7574C72.0641 27.836 71.6784 27.9217 71.6784 27.9217C71.6784 27.9217 70.9712 27.8288 70.3927 27.8788C69.8069 27.9217 69.6569 27.936 69.6569 27.936L69.7784 27.786L68.8069 28.1574L68.2355 28.2002L68.9998 27.6574C72.5427 26.9217 76.2069 26.5288 79.9712 26.5288C109.157 26.5288 132.886 49.9145 133.436 78.9717H133.478ZM120.343 58.9574C119.986 58.3574 119.621 58.086 119.236 57.4288C119.236 57.4288 119.471 58.236 119.414 58.5645C119.357 58.8931 119.236 59.136 119.236 59.136L119.986 60.486L120.493 60.1288C120.493 60.1288 120.7 59.5574 120.343 58.9645V58.9574ZM120.943 47.7002L120.614 47.1645L120.221 47.2217C119.836 47.2788 119.236 46.5931 119.236 46.5931C119.564 47.3145 120.436 47.8502 120.436 47.8502L120.943 47.7002ZM122.557 53.4217L121.45 51.5645L121.15 51.8645L121.928 53.4217H122.557ZM94.8569 112.243C94.6784 111.75 94.6498 111.6 94.6498 111.6C94.6498 111.6 94.4141 112.365 93.1855 111.393L92.9784 111.872C92.9784 111.872 93.9641 111.829 94.3569 112.157C94.7498 112.486 94.7784 112.922 94.7784 112.922C94.7784 112.922 95.0498 112.743 94.8712 112.25L94.8569 112.243ZM119.936 109.329H119.657C119.657 109.329 119.678 109.879 119.578 110.25C119.45 110.722 119.228 110.922 119.228 110.922V111.75H119.636C119.636 111.75 119.543 111.122 119.771 110.65C119.993 110.179 119.943 109.329 119.943 109.329H119.936ZM119.007 106.407C119.007 106.407 119.993 105.55 120.336 104.743C120.671 103.936 121.078 103.35 121.078 103.35C121.078 103.35 120.336 103.55 119.886 103.936C119.436 104.315 119.193 104.586 119.193 104.586L119.014 106.407H119.007ZM117.357 108.529C117.421 108.943 117.478 108.979 117.478 108.979C117.478 108.979 117.278 109.529 117.614 109.543C117.843 109.543 117.886 109.543 117.893 109.543C117.893 109.557 117.978 109.707 117.95 109.857C117.914 110.015 117.871 110.136 117.871 110.136L118.321 110.022L118.086 109.136L117.736 109.079C117.736 109.079 117.9 108.615 117.828 108.25C117.757 107.879 117.521 107.936 117.478 107.586C117.478 107.586 117.286 108.115 117.357 108.529ZM70.5855 131.922C70.5855 131.922 70.8784 131.565 71.3712 131.472C71.8641 131.379 72.4498 131.472 72.4498 131.472L72.6712 131.157C72.6712 131.157 72.1784 131.065 72.1998 130.8L72.2212 130.529C72.2212 130.529 71.8855 130.193 71.2784 129.65C70.6712 129.115 69.9284 128.707 69.9284 128.707C69.9284 128.707 70.3355 128.3 70.2427 128.015L70.1498 127.722C70.1498 127.722 70.7141 127.25 70.6855 126.893C70.6641 126.536 70.5284 126.357 70.5284 126.357L69.1784 125.372C69.1784 125.372 68.9069 125.315 68.6284 125.315C68.3498 125.315 68.1784 125.415 68.1784 125.415L67.1569 125.136L66.2784 124.8C66.2784 124.8 65.6069 124.507 64.8641 124.465C64.1212 124.422 64.0569 124.586 64.0569 124.586L63.7069 124.457L62.2998 124.329L61.9641 124.643L61.6355 124.25C61.6355 124.25 61.5355 124.136 61.3069 124.036C61.0784 123.936 60.7927 124.036 60.7927 124.036L60.4927 123.9L58.9212 123.529C58.9212 123.529 58.6427 123.507 58.6712 123.665C58.7069 123.822 58.5284 123.9 58.5284 123.9L58.3069 123.35L57.8141 123.193C57.8141 123.193 57.5927 123.372 57.3641 123.293C57.1427 123.215 56.9284 123.193 56.9284 123.193L57.0427 123.507L56.3998 123.493L56.3069 123.115C56.3069 123.115 56.6998 122.857 56.5998 122.543C56.4998 122.229 56.1427 122.229 56.1427 122.229L54.9998 121.422L54.6427 120.986L53.8927 120.686L53.2498 120.272L51.3712 119.643C51.3712 119.643 51.2284 119.707 50.8427 119.643C50.4641 119.579 50.1569 119.522 50.1569 119.522L49.9998 119.322L49.2498 118.893L49.0141 119.007L48.8569 118.679L47.1641 117.622L46.5927 117.522L46.6569 117.322L45.0069 116.243H45.4641C45.4641 116.243 45.2641 116.065 44.8141 115.972C44.3641 115.879 43.9712 116.093 43.9712 116.093L43.4069 115.657C43.4069 115.657 42.7427 115.579 42.5069 115.422C42.2712 115.265 42.0569 114.886 42.0569 114.886L41.0927 114.4H40.7355L41.4427 115.436L41.3212 115.5C41.3212 115.5 40.8641 115.086 40.8284 114.879C40.7927 114.679 40.7712 114.607 40.6355 114.393C40.4998 114.179 40.2641 113.943 40.2641 113.943L40.3998 113.8L39.9927 113.386L39.7141 113.715L39.1641 113.457C39.1641 113.457 39.1998 113.85 39.3427 113.972C39.4855 114.093 39.4641 114.465 39.4641 114.465L38.2212 113.193L37.9855 113.1C38.1784 113.35 38.3784 113.6 38.5855 113.843C38.5569 113.729 38.5784 113.679 38.7427 113.85C39.3427 114.479 40.7855 116.122 41.4069 116.836C41.6355 117.1 41.7569 117.3 41.8284 117.457C50.0427 125.829 60.9784 131.515 73.2141 133.065C72.8569 132.829 72.4141 132.565 72.0641 132.45C71.3712 132.222 70.5784 131.936 70.5784 131.936L70.5855 131.922ZM32.1712 75.8002L31.9712 76.1288C31.9712 76.1288 32.3427 76.6074 32.3427 76.5502C32.3427 76.4931 32.3998 76.3574 32.3427 76.0717C32.2855 75.786 32.1712 75.8002 32.1712 75.8002ZM38.4784 109.8C38.7712 109.857 39.3641 110.179 39.3641 110.179C39.3498 109.907 39.0855 109.743 38.7927 109.515C38.4998 109.286 37.9927 108.743 37.5355 108.472C37.0712 108.2 36.5498 108.015 36.5498 108.015C36.5498 108.015 36.7641 108.215 36.9069 108.407C37.0569 108.6 37.1784 108.815 37.1784 108.815L37.3141 108.929C37.4498 109.043 37.4927 109.229 37.4927 109.229L36.5498 108.643L36.9855 109.193C36.9855 109.193 37.2569 109.272 37.5712 109.465C37.8855 109.657 38.1784 110.072 38.1784 110.072C38.1784 110.072 38.1927 109.743 38.4784 109.8ZM51.7569 42.3645L51.4927 42.3931L51.3498 42.5431L51.7141 42.4717L51.7498 42.3645H51.7569ZM37.1569 64.7002C37.3141 64.4931 37.2712 64.5217 37.2712 64.5217L36.8641 64.2574C36.8641 64.2574 36.5498 64.3717 36.3855 64.6145C36.2212 64.8645 36.2427 65.1288 36.2427 65.1288C36.2427 65.1288 36.9998 64.8931 37.1569 64.6931V64.7002ZM37.4855 65.4074C37.4855 65.4074 37.1998 65.4574 37.0498 65.8145C36.9141 66.1288 36.9141 66.186 36.9141 66.186V66.5931L37.5927 65.636L37.4784 65.4145L37.4855 65.4074ZM33.7498 73.4502C33.7498 73.4502 34.3212 73.3002 34.3212 73.2574V72.5717L33.8569 72.7217L33.7498 73.4574V73.4502ZM39.6784 51.8574C39.6927 52.186 39.9212 52.2717 39.9212 52.2717C39.9212 52.2717 40.3069 52.036 40.3855 51.736C40.4569 51.436 40.5784 51.2145 40.5784 51.2145C40.5784 51.2145 40.7569 51.3217 40.7569 51.5431C40.7569 51.7645 40.6998 51.8288 40.6998 51.8288C40.6998 51.8288 41.2998 51.3645 41.4784 50.9574C41.6569 50.5502 41.9569 49.8645 42.3355 49.4002C42.7069 48.936 43.0069 48.8145 43.0069 48.8145C43.0069 48.8145 43.4284 48.2788 44.0069 47.736C44.5927 47.2002 44.9927 46.8502 44.9927 46.8502C44.9927 46.8502 45.6498 46.1645 45.7569 45.9217C45.8641 45.6788 45.8927 45.5788 45.8927 45.5788L43.6498 47.4931C43.6498 47.4931 44.6498 46.5074 44.9212 46.1574C45.1927 45.8145 44.6355 46.1717 44.6355 46.1717C44.6355 46.1717 44.9927 45.736 45.3855 45.2431C45.7784 44.7502 46.2212 44.1645 46.2212 44.1645C46.2212 44.1645 45.2927 44.1788 44.5284 44.686C43.7641 45.1931 43.5427 45.4788 43.5427 45.4788C43.5427 45.4788 43.5855 45.6431 43.5427 45.836C43.4998 46.0288 43.4069 46.136 43.4069 46.136L43.0927 45.7502L42.2998 46.6002C42.2998 46.6002 42.2712 46.6788 42.2427 46.9288C42.2141 47.1859 42.1855 47.436 41.9569 47.786C41.7355 48.1288 41.4927 48.5074 41.4927 48.5074C41.4927 48.5074 41.4641 48.1502 41.5855 47.8931C41.7069 47.636 41.7355 47.5788 41.7355 47.5788L41.6427 47.1074C41.6427 47.1074 40.9212 47.6074 40.6427 48.1002C40.3569 48.5931 40.3998 48.8502 40.0569 49.1931C39.7141 49.536 39.2212 50.0502 39.2212 50.0502C39.2212 50.0502 39.3141 50.1502 39.3141 50.3788C39.3141 50.6074 39.2212 50.8002 39.2212 50.8002L39.7927 50.5931L39.8355 50.8002L40.3927 50.5288L40.0212 50.9217C40.0212 50.9217 39.9641 51.4574 39.6784 51.3288C39.3927 51.1931 39.3784 51.0431 39.3784 51.0431C39.3784 51.0431 39.1355 51.1931 39.0212 51.4288C38.8998 51.6645 38.8855 51.7288 38.8855 51.7288C38.8855 51.7288 39.0641 51.7002 39.2284 51.6717C39.3927 51.6431 39.4355 51.6859 39.3498 51.8502L39.2569 52.0145C39.2569 52.0145 39.6784 51.5217 39.6927 51.8502L39.6784 51.8574ZM55.8569 40.1217C55.7355 40.336 55.5355 40.436 55.5355 40.436L55.6855 40.186C55.6855 40.186 55.5641 40.2431 55.4284 40.3288C55.2855 40.4145 54.9712 40.7288 54.7212 40.9788C54.4712 41.2288 53.9784 41.7931 53.9784 41.7931L53.8284 42.7431L53.8569 42.9217L53.4212 42.8217C53.4212 42.8217 52.9569 43.3574 52.8284 43.486C52.6998 43.6074 52.5569 43.8931 52.5569 43.8931L52.4355 44.086L52.2641 43.836C52.2641 43.836 51.8855 44.0717 51.6998 44.1502C51.5141 44.2288 51.6855 44.0074 51.6855 44.0074L51.4927 43.9645L51.4784 43.7931L51.8784 43.3074L52.0141 43.0645L52.0284 42.9645C52.0427 42.8645 52.0927 42.7645 52.0927 42.7645L51.8498 42.8431L51.2641 43.486C51.2641 43.486 51.1712 43.6002 51.0427 43.7717C50.9141 43.9431 50.8069 43.936 50.8069 43.936C50.8069 43.936 50.7784 44.3502 50.6284 44.536C50.4784 44.7288 50.3284 44.9002 50.3284 44.9002C50.3284 44.9002 50.2355 45.0431 50.0427 45.2574C49.8498 45.4788 49.6712 45.5074 49.6712 45.5074L49.2355 45.9002C49.2355 45.9002 48.8855 46.2859 48.6784 46.5217C48.1855 47.086 48.4427 47.436 48.3998 47.5074C48.2712 47.7288 48.3998 48.0002 48.3998 48.0002L48.6712 48.1931L48.7141 48.3574L48.9355 48.2931L48.8712 48.5145L48.9427 48.7574L49.1855 48.6145L49.3069 48.7574C49.3069 48.7574 49.5284 48.4788 49.6641 48.4074C49.7998 48.336 49.8212 48.4074 49.8212 48.4074L49.9998 48.0717H49.8569L50.3069 47.8288L50.7284 47.1502L50.5855 47.0788C50.5855 47.0788 50.6569 46.9788 50.7427 46.8717C50.8284 46.7645 50.8212 46.636 50.8212 46.636L50.5284 46.6931L50.6212 46.4074C50.6212 46.4074 50.4212 46.4431 50.2641 46.4574C50.1069 46.4717 50.0141 46.4145 50.0141 46.4145L50.0784 45.8717L49.9784 45.8931C49.8784 45.9145 50.1498 45.6788 50.1498 45.6788L50.5284 45.1431L50.7784 44.6574C50.7784 44.6574 50.7498 44.7717 50.7284 44.8788C50.7069 44.986 50.7569 45.1002 50.7569 45.1002L51.1141 44.8074C51.1141 44.8074 51.0927 45.1002 51.0855 45.3074C51.0712 45.5074 51.0141 45.6717 51.0141 45.6717L51.1069 45.7574C51.1069 45.7574 51.1355 45.7717 51.2069 45.6645C51.2784 45.5645 51.3784 45.4931 51.3784 45.4931L51.4284 45.8431L51.5784 45.8574C51.7284 45.8717 51.6784 45.9717 51.5927 46.1074C51.4998 46.236 51.2141 46.4217 51.2141 46.4217L51.3569 46.4645C51.3569 46.4645 51.5855 46.3502 51.7855 46.2288C51.9855 46.1074 51.8927 46.2931 51.8927 46.2931L52.257 46.0431C52.257 46.0431 52.4141 45.9074 52.5712 45.6931C52.7284 45.4717 52.7569 45.3645 52.7569 45.3645L52.6355 45.4002C52.5212 45.436 52.6927 45.2502 52.8069 45.1145C52.9212 44.9788 53.3927 44.6788 53.3927 44.6788C53.3927 44.6788 53.7069 44.4574 53.9569 44.0931C54.2069 43.736 54.4069 44.0074 54.4069 44.0074L55.1784 43.2074L55.6855 42.8288C55.6855 42.8288 55.7284 42.7145 55.8569 42.4502C55.9784 42.186 56.0927 42.4145 56.0927 42.4145L56.4427 41.9431C56.4427 41.9431 56.2927 41.9002 56.3355 41.736C56.3784 41.5717 56.3784 41.6574 56.7498 41.5431C57.1212 41.4217 57.2427 41.5431 57.2427 41.5431L57.7641 40.986L57.6927 40.8645H57.9141C57.9141 40.8645 58.8427 40.0574 59.3212 39.7145C59.7998 39.3717 59.9927 38.9788 59.9927 38.9788L60.3069 38.6645C60.3069 38.6645 61.1141 37.9788 61.5498 37.2931C61.9855 36.6145 62.5212 35.236 62.5212 35.236L62.4284 35.2074C62.4284 35.2074 62.2284 35.3217 62.0284 35.4788C61.8284 35.6288 61.1498 35.9931 61.1498 35.9931C61.1498 35.9931 61.0069 36.0574 60.6355 36.3288C60.2569 36.6074 60.1069 36.5788 60.1069 36.5788L59.757 36.8502C59.757 36.8502 59.7141 36.9145 59.5712 37.0502C59.4284 37.1788 59.3212 37.1717 59.3212 37.1717C59.3212 37.1717 59.0284 37.3931 58.7355 37.636C58.4427 37.8788 58.4069 37.7788 58.4069 37.7788L58.0998 38.0717C57.7927 38.3645 57.3141 38.6931 56.9927 38.9502C56.6712 39.2145 56.0855 39.7431 56.0855 39.7431C56.0855 39.7431 56.0069 39.9217 55.8855 40.136L55.8569 40.1217ZM52.1712 43.5002C52.2998 43.5145 52.4641 43.4145 52.6427 43.2431C52.8212 43.0717 52.8641 42.8288 52.8641 42.8288C52.8641 42.8288 52.1427 43.4931 52.1641 43.4931L52.1712 43.5002ZM74.2427 36.086C74.4855 36.1431 75.3427 36.6002 75.3427 36.6002C75.3427 36.6002 75.4069 36.4288 75.5712 36.2645C75.7355 36.1002 76.1069 35.9717 76.1069 35.9717C76.1069 35.9717 75.2927 35.9717 75.1141 35.6931C74.9355 35.4217 74.2355 35.3074 74.2355 35.3074C74.2355 35.3074 74.1284 35.0502 73.4427 34.8002C72.9855 34.636 72.2641 34.6717 72.2641 34.6717C72.2641 34.6717 73.0212 34.9288 73.2927 35.1502C73.5641 35.3717 72.9427 35.3431 72.5355 35.1217C72.1284 34.9002 71.4141 34.8502 71.4141 34.8502C71.4141 34.8502 73.2784 35.5931 73.5284 35.8574C73.7784 36.1288 73.2998 36.5788 73.2998 36.5788L73.9141 37.1645C73.9141 37.1645 74.3427 37.0502 74.7212 37.1645L75.0998 37.2788L75.7284 36.9217C75.7284 36.9217 74.2927 36.5145 74.3569 36.5431C74.3927 36.5574 73.4498 35.9145 74.2427 36.0931V36.086ZM45.4212 49.5574C45.4212 49.5574 46.5784 48.786 47.1498 48.336C47.7212 47.886 47.3069 47.7431 47.3069 47.7431L47.5284 47.2574C47.5284 47.2574 47.4641 46.7502 46.6069 47.6145C45.7427 48.4788 45.4998 48.6145 45.0855 49.0645C44.6712 49.5145 44.2784 49.8717 44.2784 49.8717V50.1288C44.2784 50.1288 44.7927 49.8145 45.1855 49.4074C45.5784 49.0002 45.4212 49.5502 45.4212 49.5502V49.5574ZM35.3284 106.757L35.2641 106.465L35.0855 106.386C34.9069 106.307 34.5784 105.836 34.5784 105.836L33.8069 104.836L33.6141 104.693C33.4212 104.55 32.4355 103.157 32.4355 103.157C32.2212 102.9 31.9427 102.886 31.9427 102.886L32.0427 103.372L32.3355 103.493C32.3355 103.493 32.3141 103.257 32.6284 103.715C32.9427 104.172 33.5855 105.029 33.5855 105.029L33.9569 105.3C33.9569 105.3 34.0212 105.436 34.1784 105.715C34.3355 105.993 34.5069 106.186 34.5069 106.186L34.9427 106.657L34.9212 106.793C34.8998 106.929 35.0212 107.093 35.0212 107.093C35.0212 107.093 35.1569 107.129 35.3355 107.229C35.5141 107.329 35.6927 107.543 35.6927 107.543L36.1212 107.636C36.1069 107.536 35.9855 107.286 35.8212 107.086C35.6498 106.886 35.3355 106.757 35.3355 106.757H35.3284ZM45.8998 45.9574C45.6927 46.1859 45.1855 46.7645 45.1855 46.7645C45.1855 46.7645 45.6998 46.5574 46.0284 46.2931C46.3569 46.0288 46.6069 45.6502 46.6069 45.6502C46.6069 45.6502 46.5355 45.5502 46.6069 45.3574L46.1641 45.5574C46.1641 45.5574 46.1069 45.7217 45.8998 45.9574ZM44.3498 48.2145C44.3355 48.3145 44.2069 48.5717 43.8355 49.1145C43.4641 49.6502 43.0141 50.386 43.0141 50.386C43.0141 50.386 43.2712 50.2288 43.5784 50.036C43.8784 49.8431 44.0641 49.9145 44.0641 49.9145C44.0641 49.9145 44.1427 49.7788 44.2855 49.5788C44.4284 49.3788 44.7712 49.2502 45.3427 48.6288C45.9141 48.0074 45.4641 48.0645 45.4641 48.0645C45.4641 48.0645 45.6569 47.9288 46.0498 47.7145C46.4427 47.5002 46.9284 46.986 46.9284 46.986C46.9284 46.986 46.4069 46.7217 46.9569 46.7717C47.2998 46.8002 47.2498 46.4717 47.2498 46.4717L46.7998 46.4288C46.3498 46.386 46.1141 46.7788 46.1141 46.7788C46.1141 46.7788 45.9355 47.0431 45.6784 47.3931C45.4212 47.7431 44.9069 48.1145 44.9069 48.1145L45.5212 47.236C45.5212 47.236 45.5427 47.0788 45.1927 47.336C44.8427 47.5931 44.3641 48.1217 44.3498 48.2217V48.2145ZM53.1784 42.1788C53.2712 41.9431 53.2427 41.6574 52.6998 42.2717L52.5998 42.7645L52.8784 42.6074C52.8784 42.6074 53.0855 42.4217 53.1784 42.1788ZM52.4284 39.736L51.6284 40.3788C51.6284 40.3788 52.2069 40.2288 52.6284 39.9645C53.0569 39.7002 53.1998 39.5002 53.3712 39.4574C53.5427 39.4145 53.6141 39.3931 53.6141 39.3931L54.4212 38.8145C54.4212 38.8145 54.2855 38.8717 54.2641 38.8145C54.2284 38.7288 54.2069 38.7002 54.2069 38.7002C54.2069 38.7002 53.5498 39.0074 53.1784 39.1288C52.8141 39.2502 52.5784 39.2502 52.1855 39.4931C51.7927 39.7431 51.7069 39.8502 51.5212 40.0288C51.3355 40.2074 51.2284 40.336 51.2284 40.336L51.6355 40.2074L52.4355 39.7288L52.4284 39.736ZM35.1641 107.736C35.2212 107.936 35.8069 108.6 35.8069 108.6L36.1212 108.679C36.1212 108.679 35.9498 108.4 35.7284 108.165C35.5069 107.929 35.1641 107.736 35.1641 107.736ZM54.2212 39.2288C54.2212 39.2288 53.9427 39.3931 53.6927 39.5788C53.4355 39.7645 53.2927 39.986 53.2927 39.986V40.1502L53.8712 39.736C53.8712 39.736 53.9069 39.7074 54.0427 39.6002C54.1784 39.486 54.3641 39.5002 54.3641 39.5002L54.5927 39.3217C54.5927 39.3217 54.6141 39.2645 54.6641 39.0574C54.7141 38.8574 54.9998 38.6288 54.9998 38.6288C54.9998 38.6288 54.6784 38.7931 54.4998 38.9288C54.3212 39.0645 54.2141 39.2288 54.2141 39.2288H54.2212ZM55.4212 38.8574C55.6641 38.6431 56.1569 38.286 56.1569 38.286C56.1569 38.286 55.7569 38.186 55.4927 38.4574C55.2212 38.7288 54.9284 39.1217 54.9284 39.1217C54.9284 39.1217 55.1712 39.0717 55.4141 38.8502L55.4212 38.8574ZM55.5784 39.2931C55.5784 39.2931 55.4212 39.3788 55.3641 39.3645H55.3069C55.3069 39.3645 55.0355 39.4788 54.8641 39.6431C54.6927 39.8074 54.6927 39.9574 54.6927 39.9574C54.6927 39.9574 54.5355 40.0074 54.3998 40.2217C54.2641 40.4288 53.9355 40.736 53.9355 40.736L53.7784 40.6145L53.2998 41.0717C53.2998 41.0717 53.3641 41.1217 53.3641 41.236V41.3502C53.3641 41.3502 54.0498 40.7931 54.5069 40.436C54.9641 40.0788 55.5784 39.6074 55.5784 39.6074C55.5784 39.6074 55.5427 39.5502 55.7998 39.336C56.0641 39.1288 56.9069 38.3145 56.9069 38.3145L56.9712 38.1217C56.9712 38.1217 56.2784 38.5645 55.9998 38.8074C55.7212 39.0574 55.5712 39.286 55.5712 39.286L55.5784 39.2931ZM54.3784 41.0788C54.8998 40.5074 55.4212 39.9002 55.4212 39.9002C55.4212 39.9002 54.8141 40.2717 54.5569 40.5217C54.2998 40.7717 54.1141 41.0145 54.1141 41.0145C54.1141 41.0145 53.9212 41.0502 53.7498 41.2788C53.5784 41.5002 53.4284 41.5788 53.4284 41.5788L53.5641 41.7574C53.5641 41.7574 53.8569 41.6431 54.3784 41.0788Z" fill="#A0A2A3"/>
<path d="M107.55 52.6502C91.8715 44.4931 76.8286 40.0288 76.8286 40.0288C83.8357 47.6431 88.8072 56.1288 91.55 64.8645C91.6 64.8645 91.65 64.8645 91.6929 64.8645C93.75 64.8645 96 64.6074 98.5643 64.086C99.0215 63.9931 99.4215 64.2217 99.6286 64.6145C99.8143 64.9645 99.7929 65.3788 99.5715 65.6931C92.4215 76.0931 92.3286 84.6717 99.3 91.2074C99.5715 91.4574 99.6643 91.8074 99.5429 92.1074C99.4072 92.4574 99 92.6359 98.5929 92.5074C96.6929 91.9145 94.7143 91.5645 92.8072 91.4788C90.3572 102.486 84.3357 113.722 75.6357 122.915C75.6357 122.915 97.9786 111.007 108.436 91.6931C113.007 83.2502 115.393 70.7359 115.393 57.3431C115.393 57.3431 114.714 56.3788 107.536 52.6431L107.55 52.6502Z" fill="#E22319"/>
<path d="M80.1647 117.664C71.8361 110.386 65.0432 94.6143 65.0432 80.7572C65.0432 80.0358 65.0647 79.3143 65.1004 78.5929C63.1075 76.8572 60.5361 75.4572 57.4361 74.4643C56.9647 74.3143 56.6718 73.9429 56.7075 73.5215C56.7361 73.1072 57.079 72.7858 57.5647 72.7072C60.8718 72.1858 63.779 71.1715 66.279 69.6786C68.529 59.3572 73.6861 49.6358 80.3361 44.1286C80.0575 43.7786 79.7718 43.4286 79.4861 43.0786C77.2361 43.7 67.3718 46.5429 56.4647 51.3715C48.5361 54.8858 44.4004 57.3429 44.4004 57.3429C44.4004 70.7358 46.7861 83.25 51.3575 91.6929C60.1575 107.943 74.929 116.664 79.2575 118.793C79.5647 118.414 79.8647 118.036 80.1647 117.657V117.664Z" fill="#004169"/>
<path d="M97.3357 90.9144C91.2215 84.2144 91.5643 75.4144 98.3715 65.3429C95.9072 65.8215 93.7215 66.0572 91.7 66.0572C84.8143 66.0572 80.1 63.3215 76.8929 57.4644C74 66.4644 67.9429 71.9215 58.8857 73.6858C64.3143 75.6715 68.1072 78.9072 69.9072 83.0929C71.5643 86.9429 71.4357 91.5429 69.5643 95.8001C71.5786 95.8858 73.9929 96.4858 76.3286 97.0644C78.0929 97.5001 79.9072 97.9501 81.4929 98.1644C81.1429 96.6072 81.4215 95.1429 82.3286 93.8929C83.9786 91.6144 87.5715 90.2572 91.9429 90.2572C93.7 90.2572 95.5357 90.4858 97.3429 90.9144H97.3357Z" fill="#002A49"/>
</g>
<defs>
<clipPath id="clip0_877_27477">
<rect width="160" height="160" fill="white"/>
</clipPath>
</defs>
</svg>
