<svg width="160" height="160" viewBox="0 0 160 160" fill="none" xmlns="http://www.w3.org/2000/svg">
<g clip-path="url(#clip0_877_27486)">
<path d="M128.915 31H5.70703V45.5752H128.915V31Z" fill="#33B7B7"/>
<path d="M112.486 80.8977H5.70703V95.4729H112.486V80.8977Z" fill="#E94589"/>
<path d="M137.127 98.5618H5.70703V113.137H137.127V98.5618Z" fill="#A5ACB0"/>
<path d="M5.70703 48.6641V77.8087H153.557V48.6641H5.70703Z" fill="#1D1D1B"/>
<path d="M22.6757 69.1853C23.2668 69.8633 24.1825 70.2806 25.3068 70.2806C27.3757 70.2806 28.442 68.9824 28.8535 67.2902H33.0261C32.2843 71.7004 29.178 73.949 25.2778 73.949C22.9712 73.949 21.0762 73.1203 19.5984 71.6425C17.4715 69.5098 17.5295 66.8787 17.5295 63.2393C17.5295 59.5998 17.4715 56.9688 19.5984 54.8361C21.0762 53.3583 22.9712 52.5295 25.2778 52.5295C29.2128 52.5295 32.2901 54.7781 33.0261 59.1826H28.8535C28.442 57.4961 27.3757 56.1922 25.3068 56.1922C24.1825 56.1922 23.2668 56.6094 22.6757 57.2875C21.8759 58.1742 21.6383 59.1826 21.6383 63.2335C21.6383 67.2844 21.8759 68.2928 22.6757 69.1795V69.1853Z" fill="white"/>
<path d="M52.7006 73.7693H49.0322L40.6869 60.84V73.7693H36.5723V52.7034H40.2407L48.5859 65.6037V52.7034H52.7006V73.7693Z" fill="white"/>
<path d="M71.4833 56.3718H61.7182V61.3152H70.0287V64.9836H61.7182V70.1009H71.4833V73.7693H57.6035V52.7034H71.4833V56.3718Z" fill="white"/>
<path d="M88.6669 54.7143C87.2761 53.3235 85.2941 52.7034 83.1034 52.7034H75.5V73.7635H83.1034C85.2941 73.7635 87.2761 73.1434 88.6669 71.7526C91.0372 69.3881 90.7996 66.3108 90.7996 63.1407C90.7996 59.9707 91.0372 57.0788 88.6669 54.7085V54.7143ZM85.7983 68.797C85.0912 69.6547 84.1408 70.1009 82.721 70.1009H79.6147V56.3718H82.721C84.1408 56.3718 85.0912 56.818 85.7983 57.6757C86.569 58.6204 86.6849 59.9533 86.6849 63.1465C86.6849 66.3397 86.569 67.8523 85.7983 68.797Z" fill="white"/>
<path d="M11.0851 129.874H9.52614L9.13785 127.996H6.94143L6.57053 129.874H5L7.32971 120.399H8.77854L11.0793 129.874H11.0851ZM7.23699 126.652H8.85968L8.04833 122.688L7.23699 126.652Z" fill="#1D1D1B"/>
<path d="M14.609 129.874V129.341C14.5453 129.422 14.4757 129.503 14.3888 129.59C14.3019 129.677 14.2208 129.741 14.128 129.781C14.0295 129.845 13.9194 129.891 13.7977 129.926C13.676 129.961 13.5485 129.978 13.4268 129.978C13.1428 129.978 12.8994 129.932 12.6966 129.845C12.4938 129.758 12.3083 129.619 12.1518 129.433C12.0069 129.271 11.9084 129.086 11.8447 128.86C11.7809 128.639 11.752 128.321 11.752 127.915V122.856H13.1602V127.898C13.1602 128.17 13.224 128.379 13.3573 128.512C13.4905 128.645 13.6528 128.709 13.8499 128.709C14.0469 128.709 14.2092 128.645 14.3425 128.512C14.4757 128.379 14.5395 128.176 14.5395 127.898V122.856H15.9478V129.868H14.6032L14.609 129.874Z" fill="#1D1D1B"/>
<path d="M21.5581 122.751C21.8537 122.751 22.1261 122.798 22.3811 122.885C22.6361 122.972 22.8563 123.105 23.0359 123.285C23.2214 123.464 23.3663 123.679 23.4764 123.928C23.5865 124.177 23.6387 124.484 23.6387 124.838H22.2536C22.2536 124.687 22.2362 124.56 22.2072 124.461C22.1782 124.357 22.1261 124.27 22.0565 124.2C21.9232 124.061 21.761 123.986 21.5639 123.986C21.3495 123.986 21.1756 124.05 21.0424 124.183C20.9091 124.316 20.8453 124.496 20.8453 124.716C20.8453 124.884 20.8801 125.023 20.9496 125.128C21.0481 125.29 21.222 125.423 21.4712 125.527L22.4043 125.927C22.6419 126.032 22.8447 126.148 23.0128 126.269C23.175 126.391 23.3141 126.536 23.43 126.704C23.6271 126.976 23.7256 127.359 23.7256 127.846C23.7256 128.193 23.6676 128.495 23.5459 128.75C23.4242 129.005 23.2793 129.225 23.0997 129.404C22.8853 129.619 22.6534 129.764 22.3985 129.851C22.1435 129.938 21.8653 129.978 21.5639 129.978C21.2626 129.978 20.9728 129.926 20.7004 129.833C20.428 129.735 20.1962 129.596 20.0224 129.41C19.8195 129.196 19.6631 128.964 19.5588 128.709C19.4544 128.454 19.3965 128.158 19.3965 127.822H20.7932C20.7932 128.106 20.8743 128.327 21.0308 128.489C21.1003 128.558 21.1814 128.611 21.2742 128.651C21.3669 128.686 21.4654 128.703 21.5581 128.703C21.7784 128.703 21.9638 128.639 22.1029 128.506C22.1724 128.442 22.2246 128.367 22.2536 128.269C22.2825 128.17 22.2999 128.066 22.2999 127.95C22.2999 127.753 22.2536 127.585 22.1551 127.428C22.0507 127.266 21.8653 127.133 21.6103 127.028L20.6772 126.617C20.1962 126.403 19.8543 126.136 19.6515 125.806C19.5008 125.568 19.4255 125.249 19.4255 124.849C19.4255 124.513 19.4834 124.223 19.5935 123.992C19.7036 123.754 19.8543 123.54 20.0398 123.348C20.2368 123.151 20.4628 123.006 20.7236 122.908C20.9844 122.809 21.2626 122.763 21.5581 122.763V122.751Z" fill="#1D1D1B"/>
<path d="M26.7321 122.751C27.0277 122.751 27.2942 122.792 27.5376 122.867C27.781 122.943 28.0129 123.093 28.2389 123.314C28.5228 123.598 28.7025 124.032 28.7778 124.623C28.8532 125.214 28.8937 125.927 28.8937 126.773H25.9903C25.9903 127.173 26.0019 127.515 26.0309 127.805C26.0598 128.095 26.1178 128.303 26.2047 128.437C26.2569 128.518 26.3322 128.582 26.4249 128.634C26.5177 128.686 26.6278 128.715 26.7495 128.715C26.9813 128.715 27.1551 128.628 27.2826 128.448C27.3464 128.379 27.387 128.286 27.4159 128.17C27.4449 128.054 27.4565 127.932 27.4565 127.811H28.8648C28.8474 128.124 28.7952 128.408 28.7141 128.674C28.6272 128.941 28.4823 129.19 28.2678 129.422C28.0824 129.625 27.8622 129.77 27.613 129.857C27.3638 129.943 27.074 129.984 26.7495 129.984C26.4365 129.984 26.1642 129.943 25.915 129.862C25.6715 129.781 25.4397 129.63 25.2311 129.41C25.0804 129.26 24.9645 129.074 24.8776 128.86C24.7907 128.645 24.7269 128.402 24.6863 128.141C24.64 127.88 24.611 127.596 24.5994 127.295C24.5878 126.994 24.582 126.681 24.582 126.362C24.582 125.724 24.6168 125.133 24.6863 124.594C24.7559 124.055 24.9413 123.627 25.2311 123.319C25.4455 123.099 25.6773 122.949 25.9323 122.873C26.1873 122.798 26.4539 122.757 26.7379 122.757L26.7321 122.751ZM26.7321 124.003C26.5988 124.003 26.4887 124.026 26.4076 124.079C26.3206 124.125 26.2511 124.194 26.1873 124.287C26.1178 124.392 26.0656 124.56 26.0367 124.78C26.0077 125 25.9903 125.319 25.9903 125.736H27.4797C27.4797 125.319 27.4623 125 27.4333 124.78C27.4043 124.56 27.3522 124.392 27.2826 124.287C27.2189 124.2 27.1494 124.131 27.0624 124.079C26.9755 124.026 26.8712 124.003 26.7379 124.003H26.7321Z" fill="#1D1D1B"/>
<path d="M33.1244 124.125H32.6434C32.3072 124.125 32.0291 124.229 31.803 124.444C31.5828 124.658 31.4727 124.954 31.4727 125.336V129.874H30.0645V122.862H31.4206V123.609C31.4901 123.505 31.5828 123.401 31.6871 123.302C31.7915 123.203 31.9074 123.122 32.0349 123.047C32.3536 122.85 32.7187 122.751 33.1244 122.751V124.125Z" fill="#1D1D1B"/>
<path d="M35.1175 122.862L36.0506 127.614L36.9836 122.862H38.5252L36.7924 129.874H35.303L33.5586 122.862H35.1175Z" fill="#1D1D1B"/>
<path d="M40.7503 121.969H39.1914V120.41H40.7503V121.969ZM40.6866 129.874H39.2783V123.047H40.6866V129.874Z" fill="#1D1D1B"/>
<path d="M43.9957 122.751C44.2971 122.751 44.5694 122.786 44.807 122.856C45.0447 122.925 45.2707 123.059 45.4735 123.256C45.6937 123.47 45.8502 123.719 45.9371 124.009C46.0241 124.299 46.0762 124.594 46.0994 124.907H44.7027C44.6911 124.791 44.6795 124.681 44.6564 124.565C44.6332 124.455 44.5868 124.351 44.5173 124.252C44.4014 124.084 44.2275 123.997 43.9957 123.997C43.8914 123.997 43.7871 124.021 43.6885 124.073C43.59 124.119 43.5089 124.194 43.4509 124.293C43.3524 124.455 43.2945 124.704 43.2771 125.052C43.2597 125.4 43.2481 125.835 43.2481 126.356C43.2481 126.878 43.2539 127.312 43.2771 127.66C43.2945 128.008 43.3524 128.263 43.4509 128.431C43.5147 128.529 43.59 128.599 43.6885 128.645C43.7871 128.692 43.8856 128.709 43.9957 128.709C44.2275 128.709 44.4014 128.628 44.5173 128.471C44.5868 128.373 44.6332 128.269 44.6564 128.158C44.6795 128.048 44.6911 127.932 44.7027 127.805H46.0994C46.082 128.141 46.0241 128.454 45.9255 128.738C45.827 129.022 45.6821 129.26 45.4851 129.457C45.1374 129.804 44.6448 129.978 43.9957 129.978C43.6596 129.978 43.3466 129.926 43.0627 129.816C42.7787 129.712 42.5353 129.515 42.3324 129.231C42.1122 128.929 41.9731 128.524 41.921 128.014C41.8688 127.504 41.8398 126.953 41.8398 126.356C41.8398 125.759 41.8688 125.209 41.921 124.704C41.9731 124.2 42.1122 123.789 42.3324 123.482C42.5353 123.198 42.7787 123.006 43.0627 122.902C43.3466 122.798 43.6596 122.751 43.9957 122.751Z" fill="#1D1D1B"/>
<path d="M49.0563 122.751C49.3519 122.751 49.6185 122.792 49.8619 122.867C50.1053 122.943 50.3371 123.093 50.5631 123.314C50.8471 123.598 51.0267 124.032 51.1021 124.623C51.1774 125.214 51.218 125.927 51.218 126.773H48.3145C48.3145 127.173 48.3261 127.515 48.3551 127.805C48.3841 128.095 48.442 128.303 48.5289 128.437C48.5811 128.518 48.6564 128.582 48.7492 128.634C48.8419 128.686 48.952 128.715 49.0737 128.715C49.3055 128.715 49.4794 128.628 49.6069 128.448C49.6706 128.379 49.7112 128.286 49.7402 128.17C49.7691 128.054 49.7807 127.932 49.7807 127.811H51.189C51.1716 128.124 51.1194 128.408 51.0383 128.674C50.9514 128.941 50.8065 129.19 50.5921 129.422C50.4066 129.625 50.1864 129.77 49.9372 129.857C49.688 129.943 49.3982 129.984 49.0737 129.984C48.7608 129.984 48.4884 129.943 48.2392 129.862C47.9958 129.781 47.764 129.63 47.5553 129.41C47.4046 129.26 47.2887 129.074 47.2018 128.86C47.1149 128.645 47.0511 128.402 47.0106 128.141C46.9642 127.88 46.9352 127.596 46.9236 127.295C46.912 126.994 46.9062 126.681 46.9062 126.362C46.9062 125.724 46.941 125.133 47.0106 124.594C47.0801 124.055 47.2656 123.627 47.5553 123.319C47.7698 123.099 48.0016 122.949 48.2566 122.873C48.5116 122.798 48.7781 122.757 49.0621 122.757L49.0563 122.751ZM49.0563 124.003C48.923 124.003 48.8129 124.026 48.7318 124.079C48.6448 124.125 48.5753 124.194 48.5116 124.287C48.442 124.392 48.3899 124.56 48.3609 124.78C48.3319 125 48.3145 125.319 48.3145 125.736H49.8039C49.8039 125.319 49.7865 125 49.7575 124.78C49.7286 124.56 49.6764 124.392 49.6069 124.287C49.5431 124.2 49.4736 124.131 49.3866 124.079C49.2997 124.026 49.1954 124.003 49.0621 124.003H49.0563Z" fill="#1D1D1B"/>
<path d="M57.4021 120.399H58.8103V129.874H57.4542V129.352C57.4079 129.422 57.3383 129.503 57.2398 129.59C57.1413 129.677 57.0601 129.746 56.9848 129.787C56.782 129.909 56.5444 129.972 56.2778 129.972C56.0112 129.972 55.7794 129.932 55.5881 129.851C55.3911 129.77 55.2114 129.631 55.0434 129.428C54.8116 129.144 54.6725 128.755 54.6261 128.257C54.5798 127.759 54.5508 127.127 54.5508 126.356C54.5508 125.585 54.574 124.954 54.6261 124.461C54.6725 123.969 54.8174 123.58 55.0434 123.296C55.2057 123.093 55.3853 122.949 55.5823 122.873C55.7794 122.792 56.017 122.752 56.2836 122.752C56.5502 122.752 56.782 122.815 56.9906 122.937C57.1413 123.035 57.2804 123.157 57.4021 123.308V120.393V120.399ZM56.7124 124.003C56.498 124.003 56.3241 124.096 56.1909 124.281C56.1445 124.345 56.1097 124.421 56.0749 124.519C56.046 124.618 56.017 124.745 55.9996 124.907C55.9822 125.07 55.9706 125.267 55.9648 125.504C55.9648 125.742 55.959 126.026 55.959 126.356C55.959 127.023 55.9706 127.509 55.9996 127.811C56.0286 128.112 56.0865 128.327 56.1851 128.443C56.3068 128.622 56.4806 128.709 56.7066 128.709C56.9037 128.709 57.0602 128.645 57.1876 128.524C57.3267 128.385 57.4021 128.164 57.4021 127.869V124.849C57.4021 124.699 57.3847 124.571 57.3499 124.461C57.3151 124.357 57.263 124.264 57.1876 124.195C57.0659 124.061 56.9037 123.998 56.7066 123.998L56.7124 124.003Z" fill="#1D1D1B"/>
<path d="M62.1364 122.751C62.4319 122.751 62.6985 122.792 62.9419 122.867C63.1853 122.943 63.4172 123.093 63.6432 123.314C63.9271 123.598 64.1068 124.032 64.1821 124.623C64.2575 125.214 64.298 125.927 64.298 126.773H61.3946C61.3946 127.173 61.4062 127.515 61.4352 127.805C61.4641 128.095 61.5221 128.303 61.609 128.437C61.6612 128.518 61.7365 128.582 61.8292 128.634C61.922 128.686 62.0321 128.715 62.1538 128.715C62.3856 128.715 62.5594 128.628 62.6869 128.448C62.7507 128.379 62.7913 128.286 62.8202 128.17C62.8492 128.054 62.8608 127.932 62.8608 127.811H64.2691C64.2517 128.124 64.1995 128.408 64.1184 128.674C64.0315 128.941 63.8866 129.19 63.6721 129.422C63.4867 129.625 63.2665 129.77 63.0173 129.857C62.7681 129.943 62.4783 129.984 62.1538 129.984C61.8408 129.984 61.5684 129.943 61.3193 129.862C61.0758 129.781 60.844 129.63 60.6354 129.41C60.4847 129.26 60.3688 129.074 60.2819 128.86C60.195 128.645 60.1312 128.402 60.0906 128.141C60.0443 127.88 60.0153 127.596 60.0037 127.295C59.9921 126.994 59.9863 126.681 59.9863 126.362C59.9863 125.724 60.0211 125.133 60.0906 124.594C60.1602 124.055 60.3456 123.627 60.6354 123.319C60.8498 123.099 61.0816 122.949 61.3366 122.873C61.5916 122.798 61.8582 122.757 62.1422 122.757L62.1364 122.751ZM62.1364 124.003C62.0031 124.003 61.893 124.026 61.8119 124.079C61.7249 124.125 61.6554 124.194 61.5916 124.287C61.5221 124.392 61.4699 124.56 61.441 124.78C61.412 125 61.3946 125.319 61.3946 125.736H62.884C62.884 125.319 62.8666 125 62.8376 124.78C62.8086 124.56 62.7565 124.392 62.6869 124.287C62.6232 124.2 62.5537 124.131 62.4667 124.079C62.3798 124.026 62.2755 124.003 62.1422 124.003H62.1364Z" fill="#1D1D1B"/>
<path d="M69.537 123.047H70.5106V124.125H69.537V127.666C69.537 128.298 69.8673 128.611 70.5338 128.611V129.874C70.1976 129.874 69.8905 129.851 69.6065 129.799C69.3283 129.752 69.0676 129.631 68.8299 129.445C68.6097 129.265 68.4359 129.045 68.3084 128.773C68.1867 128.501 68.1229 128.159 68.1229 127.741V124.119H67.4043V123.041H68.1229V121.059H69.5312V123.041L69.537 123.047Z" fill="#1D1D1B"/>
<path d="M73.3844 122.751C73.7205 122.751 74.0334 122.804 74.3174 122.902C74.6014 123.006 74.8448 123.198 75.0476 123.482C75.2678 123.795 75.4069 124.2 75.4591 124.704C75.5113 125.209 75.5402 125.759 75.5402 126.356C75.5402 126.953 75.5113 127.498 75.4591 128.008C75.4069 128.512 75.2678 128.923 75.0476 129.231C74.8448 129.515 74.6014 129.712 74.3174 129.816C74.0334 129.92 73.7205 129.978 73.3844 129.978C73.0482 129.978 72.7353 129.926 72.4513 129.816C72.1674 129.712 71.924 129.515 71.7211 129.231C71.5009 128.918 71.3618 128.512 71.3096 128.008C71.2575 127.504 71.2285 126.953 71.2285 126.356C71.2285 125.759 71.2575 125.209 71.3096 124.704C71.3618 124.2 71.5009 123.789 71.7211 123.482C71.924 123.198 72.1674 123.006 72.4513 122.902C72.7353 122.798 73.0482 122.751 73.3844 122.751ZM73.3844 124.003C73.2801 124.003 73.1757 124.026 73.0772 124.079C72.9787 124.125 72.8976 124.2 72.8396 124.299C72.7411 124.461 72.6831 124.71 72.6658 125.058C72.6484 125.406 72.6368 125.84 72.6368 126.362C72.6368 126.884 72.6426 127.324 72.6658 127.672C72.6831 128.019 72.7411 128.274 72.8396 128.437C72.9034 128.535 72.9787 128.605 73.0772 128.651C73.1757 128.697 73.2743 128.715 73.3844 128.715C73.4945 128.715 73.593 128.692 73.6915 128.651C73.79 128.605 73.8712 128.535 73.9291 128.437C74.0277 128.274 74.0856 128.019 74.103 127.672C74.1204 127.324 74.132 126.884 74.132 126.362C74.132 125.84 74.1204 125.406 74.103 125.058C74.0856 124.71 74.0277 124.461 73.9291 124.299C73.8654 124.2 73.79 124.125 73.6915 124.079C73.593 124.032 73.4945 124.003 73.3844 124.003Z" fill="#1D1D1B"/>
<path d="M79.5329 129.874V129.341C79.4691 129.422 79.3996 129.503 79.3126 129.59C79.2257 129.677 79.1388 129.741 79.0519 129.781C78.9533 129.845 78.8432 129.891 78.7215 129.926C78.5998 129.961 78.4723 129.978 78.3506 129.978C78.0667 129.978 77.8233 129.932 77.6204 129.845C77.4176 129.758 77.2321 129.619 77.0757 129.433C76.9308 129.271 76.8323 129.086 76.7685 128.86C76.7048 128.639 76.6758 128.321 76.6758 127.915V122.856H78.0898V127.898C78.0898 128.17 78.1536 128.379 78.2869 128.512C78.4202 128.645 78.5824 128.709 78.7795 128.709C78.9765 128.709 79.1388 128.645 79.2721 128.512C79.4054 128.379 79.4691 128.176 79.4691 127.898V122.856H80.8774V129.868H79.5329V129.874Z" fill="#1D1D1B"/>
<path d="M83.9491 123.047H84.9227V124.125H83.9491V127.666C83.9491 128.298 84.2794 128.611 84.9459 128.611V129.874C84.6097 129.874 84.3026 129.851 84.0186 129.799C83.7405 129.752 83.4797 129.631 83.242 129.445C83.0218 129.265 82.848 129.045 82.7205 128.773C82.5988 128.501 82.535 128.159 82.535 127.741V124.119H81.8164V123.041H82.535V121.059H83.9433V123.041L83.9491 123.047Z" fill="#1D1D1B"/>
<path d="M87.7868 122.751C88.0823 122.751 88.3489 122.792 88.5923 122.867C88.8357 122.943 89.0675 123.093 89.2936 123.314C89.5775 123.598 89.7572 124.032 89.8325 124.623C89.9079 125.214 89.9484 125.927 89.9484 126.773H87.045C87.045 127.173 87.0566 127.515 87.0855 127.805C87.1145 128.095 87.1667 128.303 87.2594 128.437C87.3116 128.518 87.3869 128.582 87.4796 128.634C87.5724 128.686 87.6825 128.715 87.8042 128.715C88.036 128.715 88.2098 128.628 88.3373 128.448C88.4011 128.379 88.4416 128.286 88.4706 128.17C88.4996 128.054 88.5112 127.932 88.5112 127.811H89.9195C89.9021 128.124 89.8499 128.408 89.7688 128.674C89.6818 128.941 89.537 129.19 89.3225 129.422C89.1371 129.625 88.9169 129.77 88.6677 129.857C88.4185 129.943 88.1287 129.984 87.8042 129.984C87.4912 129.984 87.2188 129.943 86.9696 129.862C86.7262 129.781 86.4944 129.63 86.2858 129.41C86.1351 129.26 86.0192 129.074 85.9323 128.86C85.8453 128.645 85.7816 128.402 85.741 128.141C85.6947 127.88 85.6657 127.596 85.6541 127.295C85.6425 126.994 85.6367 126.681 85.6367 126.362C85.6367 125.724 85.6715 125.133 85.741 124.594C85.8106 124.055 85.996 123.627 86.2858 123.319C86.5002 123.099 86.732 122.949 86.987 122.873C87.242 122.798 87.5086 122.757 87.7926 122.757L87.7868 122.751ZM87.7868 124.003C87.6535 124.003 87.5434 124.026 87.4622 124.079C87.3811 124.131 87.3058 124.194 87.242 124.287C87.1725 124.392 87.1203 124.56 87.0913 124.78C87.0624 125 87.045 125.319 87.045 125.736H88.5344C88.5344 125.319 88.517 125 88.488 124.78C88.459 124.56 88.4069 124.392 88.3373 124.287C88.2736 124.2 88.204 124.131 88.1171 124.079C88.036 124.032 87.9259 124.003 87.7926 124.003H87.7868Z" fill="#1D1D1B"/>
<path d="M92.9486 122.751C93.2384 122.751 93.5166 122.798 93.7716 122.885C94.0266 122.972 94.2468 123.105 94.4264 123.285C94.6119 123.464 94.7626 123.679 94.8669 123.928C94.9712 124.177 95.0234 124.484 95.0234 124.838H93.6383C93.6383 124.687 93.6209 124.56 93.5919 124.461C93.5629 124.357 93.5108 124.27 93.4412 124.2C93.3079 124.061 93.1457 123.986 92.9486 123.986C92.7342 123.986 92.5604 124.05 92.4271 124.183C92.2938 124.316 92.23 124.496 92.23 124.716C92.23 124.884 92.2648 125.023 92.3343 125.128C92.4329 125.29 92.6067 125.423 92.8559 125.527L93.789 125.927C94.0266 126.032 94.2294 126.148 94.3917 126.269C94.5539 126.391 94.693 126.536 94.8089 126.704C95.006 126.976 95.0987 127.359 95.0987 127.846C95.0987 128.193 95.0407 128.495 94.919 128.75C94.7973 129.005 94.6525 129.225 94.4728 129.404C94.2584 129.619 94.0266 129.764 93.7716 129.851C93.5166 129.938 93.2442 129.978 92.9428 129.978C92.6415 129.978 92.3517 129.926 92.0793 129.833C91.807 129.741 91.5751 129.596 91.4013 129.41C91.1984 129.196 91.042 128.964 90.9377 128.709C90.8333 128.454 90.7754 128.158 90.7754 127.822H92.1721C92.1721 128.106 92.2532 128.327 92.4097 128.489C92.4792 128.558 92.5603 128.611 92.6531 128.651C92.7458 128.686 92.8443 128.703 92.937 128.703C93.1573 128.703 93.3427 128.639 93.4818 128.506C93.5513 128.442 93.6035 128.367 93.6325 128.269C93.6615 128.17 93.6788 128.066 93.6788 127.95C93.6788 127.753 93.6325 127.585 93.534 127.428C93.4296 127.266 93.2442 127.133 92.9892 127.028L92.0562 126.617C91.5751 126.403 91.2332 126.136 91.0304 125.806C90.8797 125.568 90.8044 125.249 90.8044 124.849C90.8044 124.513 90.8623 124.223 90.9724 123.992C91.0825 123.754 91.2332 123.54 91.4187 123.348C91.6157 123.151 91.8417 123.006 92.1025 122.908C92.3633 122.809 92.6415 122.763 92.937 122.763L92.9486 122.751Z" fill="#1D1D1B"/>
<path d="M99.9394 127.666C99.9394 128.298 100.258 128.611 100.896 128.611V129.874C100.565 129.874 100.264 129.845 99.9916 129.793C99.7192 129.741 99.4642 129.625 99.2324 129.445C99.0122 129.277 98.8383 129.057 98.7108 128.784C98.5891 128.512 98.5254 128.164 98.5254 127.741V120.393H99.9336V127.66L99.9394 127.666Z" fill="#1D1D1B"/>
<path d="M103.716 122.751C104.012 122.751 104.279 122.792 104.522 122.867C104.765 122.943 104.997 123.093 105.223 123.314C105.507 123.598 105.687 124.032 105.762 124.623C105.838 125.214 105.878 125.927 105.878 126.773H102.975C102.975 127.173 102.986 127.515 103.015 127.805C103.044 128.095 103.096 128.303 103.189 128.437C103.241 128.518 103.317 128.582 103.409 128.634C103.502 128.686 103.612 128.715 103.734 128.715C103.966 128.715 104.14 128.628 104.267 128.448C104.331 128.379 104.371 128.286 104.4 128.17C104.429 128.054 104.441 127.932 104.441 127.811H105.849C105.832 128.124 105.78 128.408 105.698 128.674C105.612 128.941 105.467 129.19 105.252 129.422C105.067 129.625 104.847 129.77 104.597 129.857C104.348 129.943 104.058 129.984 103.734 129.984C103.421 129.984 103.149 129.943 102.899 129.862C102.656 129.781 102.424 129.63 102.215 129.41C102.065 129.26 101.949 129.074 101.862 128.86C101.775 128.645 101.711 128.402 101.671 128.141C101.63 127.88 101.595 127.596 101.584 127.295C101.572 126.994 101.566 126.681 101.566 126.362C101.566 125.724 101.601 125.133 101.671 124.594C101.74 124.055 101.926 123.627 102.215 123.319C102.43 123.099 102.662 122.949 102.917 122.873C103.172 122.798 103.438 122.757 103.722 122.757L103.716 122.751ZM103.716 124.003C103.583 124.003 103.473 124.026 103.392 124.079C103.305 124.125 103.235 124.194 103.172 124.287C103.102 124.392 103.05 124.56 103.021 124.78C102.992 125 102.975 125.319 102.975 125.736H104.464C104.464 125.319 104.447 125 104.418 124.78C104.389 124.56 104.337 124.392 104.267 124.287C104.203 124.2 104.134 124.131 104.047 124.079C103.96 124.026 103.856 124.003 103.722 124.003H103.716Z" fill="#1D1D1B"/>
<path d="M108.88 122.751C109.176 122.751 109.448 122.798 109.703 122.885C109.958 122.972 110.179 123.105 110.358 123.285C110.544 123.464 110.689 123.679 110.799 123.928C110.903 124.183 110.961 124.484 110.961 124.838H109.576C109.576 124.687 109.558 124.56 109.529 124.461C109.5 124.357 109.448 124.27 109.379 124.2C109.246 124.061 109.083 123.986 108.886 123.986C108.672 123.986 108.498 124.05 108.365 124.183C108.231 124.316 108.168 124.496 108.168 124.716C108.168 124.884 108.202 125.023 108.272 125.128C108.37 125.29 108.544 125.423 108.793 125.527L109.727 125.927C109.964 126.032 110.167 126.148 110.329 126.269C110.491 126.391 110.631 126.536 110.746 126.704C110.944 126.976 111.042 127.359 111.042 127.846C111.042 128.193 110.984 128.495 110.862 128.75C110.741 129.005 110.596 129.225 110.416 129.404C110.202 129.619 109.97 129.764 109.715 129.851C109.46 129.938 109.188 129.978 108.88 129.978C108.573 129.978 108.289 129.926 108.017 129.833C107.745 129.741 107.513 129.596 107.339 129.41C107.136 129.196 106.98 128.964 106.875 128.709C106.771 128.454 106.719 128.158 106.719 127.822H108.115C108.115 128.106 108.197 128.327 108.353 128.489C108.423 128.558 108.504 128.611 108.602 128.651C108.695 128.686 108.793 128.703 108.886 128.703C109.106 128.703 109.292 128.639 109.431 128.506C109.5 128.442 109.553 128.367 109.582 128.269C109.611 128.17 109.628 128.066 109.628 127.95C109.628 127.753 109.576 127.585 109.483 127.428C109.379 127.266 109.193 127.133 108.938 127.028L108.005 126.617C107.524 126.403 107.182 126.136 106.98 125.806C106.829 125.568 106.754 125.249 106.754 124.849C106.754 124.513 106.811 124.223 106.922 123.992C107.032 123.76 107.182 123.54 107.368 123.348C107.565 123.151 107.791 123.006 108.052 122.908C108.312 122.809 108.591 122.763 108.886 122.763L108.88 122.751Z" fill="#1D1D1B"/>
<path d="M117.556 124.125H117.075C116.739 124.125 116.461 124.229 116.235 124.444C116.014 124.658 115.904 124.954 115.904 125.336V129.874H114.496V122.862H115.852V123.609C115.922 123.505 116.014 123.401 116.119 123.302C116.223 123.203 116.339 123.122 116.466 123.047C116.785 122.85 117.15 122.751 117.556 122.751V124.125Z" fill="#1D1D1B"/>
<path d="M120.355 122.751C120.651 122.751 120.917 122.792 121.161 122.867C121.404 122.943 121.636 123.093 121.862 123.314C122.146 123.598 122.326 124.032 122.401 124.623C122.476 125.214 122.517 125.927 122.517 126.773H119.613C119.613 127.173 119.625 127.515 119.654 127.805C119.683 128.095 119.735 128.303 119.828 128.437C119.88 128.518 119.955 128.582 120.048 128.634C120.141 128.686 120.251 128.715 120.373 128.715C120.604 128.715 120.778 128.628 120.906 128.448C120.969 128.379 121.01 128.286 121.039 128.17C121.068 128.054 121.08 127.932 121.08 127.811H122.488C122.47 128.124 122.418 128.408 122.337 128.674C122.25 128.941 122.105 129.19 121.891 129.422C121.705 129.625 121.485 129.77 121.236 129.857C120.987 129.943 120.697 129.984 120.373 129.984C120.06 129.984 119.787 129.943 119.538 129.862C119.295 129.781 119.063 129.631 118.854 129.41C118.703 129.26 118.588 129.074 118.501 128.86C118.414 128.645 118.35 128.402 118.309 128.141C118.269 127.88 118.234 127.596 118.222 127.295C118.211 126.994 118.205 126.681 118.205 126.362C118.205 125.724 118.24 125.133 118.309 124.594C118.379 124.055 118.564 123.627 118.854 123.319C119.069 123.099 119.3 122.949 119.555 122.873C119.81 122.798 120.077 122.757 120.361 122.757L120.355 122.751ZM120.355 124.003C120.222 124.003 120.112 124.026 120.031 124.079C119.944 124.125 119.874 124.195 119.81 124.287C119.741 124.392 119.689 124.56 119.66 124.78C119.631 125 119.613 125.319 119.613 125.736H121.103C121.103 125.319 121.085 125 121.056 124.78C121.027 124.56 120.975 124.392 120.906 124.287C120.842 124.2 120.772 124.131 120.685 124.079C120.599 124.026 120.494 124.003 120.361 124.003H120.355ZM120.662 122.062H119.677L120.633 120.213H121.833L120.662 122.062Z" fill="#1D1D1B"/>
<path d="M126.504 129.874V129.341C126.44 129.422 126.37 129.503 126.283 129.59C126.196 129.677 126.109 129.741 126.023 129.781C125.924 129.845 125.814 129.891 125.692 129.926C125.571 129.961 125.443 129.978 125.321 129.978C125.037 129.978 124.794 129.932 124.591 129.845C124.388 129.758 124.203 129.619 124.046 129.433C123.901 129.271 123.803 129.086 123.739 128.86C123.675 128.639 123.646 128.321 123.646 127.915V122.856H125.055V127.898C125.055 128.17 125.118 128.379 125.252 128.512C125.385 128.645 125.547 128.709 125.744 128.709C125.941 128.709 126.104 128.645 126.237 128.512C126.37 128.379 126.434 128.176 126.434 127.898V122.856H127.842V129.868H126.498L126.504 129.874Z" fill="#1D1D1B"/>
<path d="M131.066 122.751C131.362 122.751 131.634 122.798 131.889 122.885C132.144 122.972 132.364 123.105 132.544 123.285C132.729 123.464 132.874 123.679 132.984 123.928C133.089 124.183 133.146 124.484 133.146 124.838H131.761C131.761 124.687 131.744 124.56 131.715 124.461C131.686 124.357 131.634 124.27 131.564 124.2C131.431 124.061 131.269 123.986 131.072 123.986C130.857 123.986 130.683 124.05 130.55 124.183C130.417 124.316 130.353 124.496 130.353 124.716C130.353 124.884 130.388 125.023 130.457 125.128C130.556 125.29 130.73 125.423 130.979 125.527L131.912 125.927C132.15 126.032 132.353 126.148 132.515 126.269C132.677 126.391 132.816 126.536 132.932 126.704C133.129 126.976 133.228 127.359 133.228 127.846C133.228 128.193 133.17 128.495 133.048 128.75C132.926 129.005 132.781 129.225 132.602 129.404C132.387 129.619 132.155 129.764 131.9 129.851C131.645 129.938 131.373 129.978 131.066 129.978C130.759 129.978 130.475 129.926 130.202 129.833C129.93 129.741 129.698 129.596 129.524 129.41C129.322 129.196 129.165 128.964 129.061 128.709C128.956 128.454 128.904 128.158 128.904 127.822H130.301C130.301 128.106 130.382 128.327 130.539 128.489C130.608 128.558 130.689 128.611 130.788 128.651C130.88 128.686 130.979 128.703 131.072 128.703C131.292 128.703 131.477 128.639 131.616 128.506C131.686 128.442 131.738 128.367 131.767 128.269C131.796 128.17 131.814 128.066 131.814 127.95C131.814 127.753 131.761 127.585 131.669 127.428C131.564 127.266 131.379 127.133 131.124 127.028L130.191 126.617C129.71 126.403 129.368 126.136 129.165 125.806C129.014 125.568 128.939 125.249 128.939 124.849C128.939 124.513 128.997 124.223 129.107 123.992C129.217 123.76 129.368 123.54 129.553 123.348C129.75 123.151 129.976 123.006 130.237 122.908C130.498 122.809 130.776 122.763 131.072 122.763L131.066 122.751Z" fill="#1D1D1B"/>
<path d="M136.136 122.751C136.432 122.751 136.704 122.798 136.959 122.885C137.214 122.972 137.434 123.105 137.614 123.285C137.8 123.464 137.944 123.679 138.055 123.928C138.159 124.183 138.217 124.484 138.217 124.838H136.832C136.832 124.687 136.814 124.56 136.785 124.461C136.756 124.357 136.704 124.27 136.635 124.2C136.501 124.061 136.339 123.986 136.142 123.986C135.928 123.986 135.754 124.05 135.62 124.183C135.487 124.316 135.423 124.496 135.423 124.716C135.423 124.884 135.458 125.023 135.528 125.128C135.626 125.29 135.8 125.423 136.049 125.527L136.982 125.927C137.22 126.032 137.423 126.148 137.585 126.269C137.747 126.391 137.886 126.536 138.002 126.704C138.199 126.976 138.298 127.359 138.298 127.846C138.298 128.193 138.24 128.495 138.118 128.75C137.997 129.005 137.852 129.225 137.672 129.404C137.458 129.619 137.226 129.764 136.971 129.851C136.716 129.938 136.443 129.978 136.136 129.978C135.829 129.978 135.545 129.926 135.273 129.833C135 129.741 134.769 129.596 134.595 129.41C134.392 129.196 134.235 128.964 134.131 128.709C134.027 128.454 133.975 128.158 133.975 127.822H135.371C135.371 128.106 135.452 128.327 135.609 128.489C135.678 128.558 135.76 128.611 135.858 128.651C135.951 128.686 136.049 128.703 136.142 128.703C136.362 128.703 136.548 128.639 136.687 128.506C136.756 128.442 136.809 128.367 136.837 128.269C136.866 128.17 136.884 128.066 136.884 127.95C136.884 127.753 136.832 127.585 136.739 127.428C136.635 127.266 136.449 127.133 136.194 127.028L135.261 126.617C134.78 126.403 134.438 126.136 134.235 125.806C134.085 125.568 134.009 125.249 134.009 124.849C134.009 124.513 134.067 124.223 134.177 123.992C134.288 123.76 134.438 123.54 134.624 123.348C134.821 123.151 135.047 123.006 135.308 122.908C135.568 122.809 135.846 122.763 136.142 122.763L136.136 122.751Z" fill="#1D1D1B"/>
<path d="M140.848 121.969H139.289V120.41H140.848V121.969ZM140.784 129.874H139.376V123.047H140.784V129.874Z" fill="#1D1D1B"/>
<path d="M143.844 123.047H144.817V124.125H143.844V127.666C143.844 128.298 144.174 128.611 144.84 128.611V129.874C144.504 129.874 144.197 129.851 143.913 129.799C143.629 129.746 143.374 129.631 143.137 129.445C142.916 129.265 142.743 129.045 142.615 128.773C142.493 128.501 142.43 128.159 142.43 127.741V124.119H141.711V123.041H142.43V121.059H143.838V123.041L143.844 123.047Z" fill="#1D1D1B"/>
<path d="M147.681 122.751C147.977 122.751 148.243 122.792 148.487 122.867C148.73 122.943 148.962 123.093 149.188 123.314C149.472 123.598 149.652 124.032 149.727 124.623C149.802 125.214 149.843 125.927 149.843 126.773H146.94C146.94 127.173 146.951 127.515 146.98 127.805C147.009 128.095 147.061 128.303 147.154 128.437C147.206 128.518 147.281 128.582 147.374 128.634C147.467 128.686 147.577 128.715 147.699 128.715C147.931 128.715 148.104 128.628 148.232 128.448C148.296 128.379 148.336 128.286 148.365 128.17C148.394 128.054 148.406 127.932 148.406 127.811H149.814C149.797 128.124 149.744 128.408 149.663 128.674C149.576 128.941 149.431 129.19 149.217 129.422C149.032 129.625 148.811 129.77 148.562 129.857C148.313 129.943 148.023 129.984 147.699 129.984C147.386 129.984 147.113 129.943 146.864 129.862C146.621 129.781 146.389 129.63 146.18 129.41C146.03 129.26 145.914 129.074 145.827 128.86C145.74 128.645 145.676 128.402 145.636 128.141C145.595 127.88 145.56 127.596 145.549 127.295C145.537 126.994 145.531 126.681 145.531 126.362C145.531 125.724 145.566 125.133 145.636 124.594C145.705 124.055 145.891 123.627 146.18 123.319C146.395 123.099 146.627 122.949 146.882 122.873C147.137 122.798 147.403 122.757 147.687 122.757L147.681 122.751ZM147.681 124.003C147.548 124.003 147.438 124.026 147.357 124.079C147.27 124.125 147.2 124.194 147.137 124.287C147.067 124.392 147.015 124.56 146.986 124.78C146.957 125 146.94 125.319 146.94 125.736H148.429C148.429 125.319 148.412 125 148.383 124.78C148.354 124.56 148.301 124.392 148.232 124.287C148.168 124.2 148.099 124.131 148.012 124.079C147.925 124.026 147.82 124.003 147.687 124.003H147.681Z" fill="#1D1D1B"/>
<path d="M152.843 122.751C153.139 122.751 153.411 122.798 153.666 122.885C153.921 122.972 154.141 123.105 154.321 123.285C154.507 123.464 154.651 123.679 154.762 123.928C154.866 124.183 154.924 124.484 154.924 124.838H153.539C153.539 124.687 153.521 124.56 153.492 124.461C153.463 124.357 153.411 124.27 153.342 124.2C153.208 124.061 153.046 123.986 152.849 123.986C152.635 123.986 152.461 124.05 152.328 124.183C152.194 124.316 152.13 124.496 152.13 124.716C152.13 124.884 152.165 125.023 152.235 125.128C152.333 125.29 152.507 125.423 152.756 125.527L153.689 125.927C153.927 126.032 154.13 126.148 154.292 126.269C154.454 126.391 154.593 126.536 154.709 126.704C154.906 126.976 155.005 127.359 155.005 127.846C155.005 128.193 154.947 128.495 154.825 128.75C154.704 129.005 154.559 129.225 154.379 129.404C154.165 129.619 153.933 129.764 153.678 129.851C153.423 129.938 153.15 129.978 152.843 129.978C152.536 129.978 152.252 129.926 151.98 129.833C151.707 129.741 151.476 129.596 151.302 129.41C151.099 129.196 150.942 128.964 150.838 128.709C150.734 128.454 150.682 128.158 150.682 127.822H152.078C152.078 128.106 152.159 128.327 152.316 128.489C152.385 128.558 152.467 128.611 152.565 128.651C152.658 128.686 152.756 128.703 152.849 128.703C153.069 128.703 153.255 128.639 153.394 128.506C153.463 128.442 153.516 128.367 153.545 128.269C153.574 128.17 153.591 128.066 153.591 127.95C153.591 127.753 153.539 127.585 153.446 127.428C153.342 127.266 153.156 127.133 152.901 127.028L151.968 126.617C151.487 126.403 151.145 126.136 150.942 125.806C150.792 125.568 150.716 125.249 150.716 124.849C150.716 124.513 150.774 124.223 150.884 123.992C150.995 123.76 151.145 123.54 151.331 123.348C151.528 123.151 151.754 123.006 152.015 122.908C152.275 122.809 152.554 122.763 152.849 122.763L152.843 122.751Z" fill="#1D1D1B"/>
</g>
<defs>
<clipPath id="clip0_877_27486">
<rect width="150" height="98.9781" fill="white" transform="translate(5 31)"/>
</clipPath>
</defs>
</svg>
