<svg width="160" height="160" viewBox="0 0 160 160" fill="none" xmlns="http://www.w3.org/2000/svg">
<g clip-path="url(#clip0_524_23007)">
<path d="M35.5402 28C16.477 28 1 43.4561 1 62.5402C1 70.6982 3.83116 78.1431 8.57075 84.0571H12.786V88.5031C14.6106 90.0969 16.6238 91.481 18.7629 92.6764H21.4054V94.0396C25.7255 95.9689 30.507 97.0595 35.5192 97.0595C38.2665 97.0595 40.9089 96.7239 43.4675 96.1157L35.2886 80.5758C33.4431 80.5548 31.6814 80.2612 30.0247 79.716V79.7579H25.7045V77.6607C24.6979 77.0106 23.7752 76.2347 22.9363 75.3958H21.4054V79.716H17.1062V75.3958H21.4263V73.76C18.9727 70.6772 17.4837 66.7765 17.4837 62.4983C17.4837 52.5158 25.5787 44.4208 35.5612 44.4208C41.4962 44.4208 46.739 47.2939 50.0316 51.6979L61.7337 39.9958C55.3793 32.6557 46.005 28 35.5402 28ZM25.7255 84.078H30.0457V88.3982H25.7255V84.078Z" fill="#273375"/>
<path d="M93.8412 63.9873H90.7793L93.4637 69.0834H96.5255L93.8412 63.9873Z" fill="#E30613"/>
<path d="M25.7248 79.737V75.4169H21.4047V79.737H12.7853V84.0572H17.1055V88.3773H12.7853V92.6975H8.46519V97.0176H17.0845V92.6975H21.4047V88.3773H25.7248V84.0572H30.045V79.737H25.7248ZM4.16602 84.0362H8.48616V88.3564H4.16602V84.0362ZM21.4047 96.9757H25.7248V92.6555H21.4047V96.9757ZM50.9956 61.7015C50.4503 60.9884 49.5905 60.5271 48.6258 60.5271C48.5419 60.5271 48.458 60.548 48.3951 60.548C46.8432 60.6739 45.6059 61.9531 45.6059 63.547C45.6059 65.1408 46.8642 66.4411 48.437 66.5459C48.5 66.5459 48.5629 66.5669 48.6258 66.5669C49.5695 66.5669 50.4084 66.1265 50.9746 65.4344C50.9886 65.4204 51.0026 65.4065 51.0166 65.3925L52.9879 67.3638C52.7991 67.5945 52.5685 67.8042 52.3378 67.993C51.3311 68.8318 50.0519 69.3351 48.6468 69.3351C48.1015 69.3351 47.5982 69.2512 47.1158 69.1254C44.6412 68.4334 42.8376 66.2104 42.8376 63.547C42.8376 60.8836 44.6202 58.6816 47.032 57.9895C47.5353 57.8427 48.0596 57.7798 48.6258 57.7798C50.0519 57.7798 51.3521 58.3041 52.3378 59.1639C52.5475 59.3527 52.7572 59.5414 52.9669 59.7511L50.9956 61.7015ZM92.8129 58.0524C94.9311 58.0524 96.6507 59.814 96.6507 61.9112C96.6507 64.0083 94.994 65.77 92.8129 65.77H89.9818V69.0625H87.1506V58.0524H92.8129ZM92.8129 63.0646C93.4001 63.0646 93.9035 62.5613 93.9035 61.9531C93.9035 61.345 93.4421 60.8207 92.8129 60.8207H89.9818V63.0856H92.8129M73.1206 63.1066C74.0434 63.3373 74.8613 64.2181 74.8613 65.749C74.8613 67.5945 73.4562 69.0625 71.4848 69.0625H65.2143V58.0524H71.4848C72.9948 58.0524 74.316 59.2688 74.316 60.8416C74.316 61.8902 73.7917 62.7291 73.1206 63.1066ZM67.9197 62.058H70.8347C71.2751 62.058 71.5477 61.7854 71.5477 61.4079C71.5477 61.0304 71.2751 60.7368 70.8347 60.7368H67.9197V62.058ZM71.0235 66.3781C71.5477 66.3781 71.8413 65.9797 71.8413 65.5602C71.8413 65.0779 71.4848 64.7424 71.0235 64.7424H67.9197V66.3781H71.0235ZM76.3293 58.0524H85.0744V60.7787H79.0975V62.2258H83.7113V64.9311H79.0975V66.3572H85.0744V69.0835H76.3293V58.0524ZM60.7264 58.0524H63.7883L58.0001 69.0625H54.9173L57.3919 64.3858L54.0574 58.0524H57.2032L58.9648 61.4288L60.7264 58.0524ZM30.045 71.0967H34.3651V75.4169H30.045V71.0967ZM21.4047 71.0967H25.7248V66.7766H21.4047V71.0967Z" fill="#E30613"/>
<path d="M51.2051 77.3251C51.226 77.3041 51.247 77.3041 51.268 77.2831V83.1971H54.0153V71.9983C54.0153 71.9983 53.9943 71.9983 53.9943 72.0193L51.2051 77.3251Z" fill="#273375"/>
<path d="M78.3022 77.577L80.672 73.0261L78.2812 77.556L78.3022 77.577Z" fill="#273375"/>
<path d="M146.773 75.7942C146.983 75.5844 148.577 73.9277 148.703 73.8019C148.535 73.6341 148.325 73.4453 148.095 73.2566L146.773 75.7942Z" fill="#273375"/>
<path d="M49.4438 94.5219C49.8842 94.5219 50.2407 94.8784 50.2407 95.3189C50.2407 95.7593 49.9052 96.0948 49.4438 96.0948C48.9824 96.0948 48.6679 95.7593 48.6679 95.3189C48.6679 94.8784 49.0244 94.5219 49.4438 94.5219ZM62.8656 90.9568H58.881V91.9844H61.6493C61.5234 93.8718 60.0764 95.172 58.168 95.172C55.966 95.172 54.3721 93.5363 54.3721 91.2084C54.3721 88.7547 55.924 87.098 58.168 87.098C59.5311 87.098 60.5797 87.6852 61.2718 88.8596L62.2365 88.0837C61.3347 86.7205 59.9715 86.0494 58.126 86.0494C56.7209 86.0494 55.5675 86.4688 54.6867 87.3077C53.6381 88.2934 53.1348 89.5936 53.1348 91.2084C53.1348 93.1797 54.0366 94.7736 55.6304 95.6334C56.2805 95.9899 57.0984 96.1997 58.0631 96.1997C61.0201 96.1997 62.8866 94.3542 62.8866 91.2713V90.9568H62.8656ZM73.645 94.7316C74.6307 93.7879 75.155 92.5296 75.155 91.1455C75.155 89.7614 74.6517 88.5031 73.645 87.5384C72.6803 86.5947 71.3381 86.0704 69.975 86.0704C68.6118 86.0704 67.2906 86.5947 66.3259 87.5384C65.3403 88.5031 64.816 89.7614 64.816 91.1455C64.816 92.5296 65.3403 93.767 66.3259 94.7316C67.3116 95.6754 68.6118 96.2206 69.975 96.2206C71.3381 96.2206 72.6594 95.6754 73.645 94.7316ZM72.7642 93.9557C71.9883 94.7316 71.0236 95.1301 69.954 95.1301C68.8845 95.1301 67.9198 94.7316 67.1438 93.9557C66.3888 93.1797 65.9904 92.236 65.9904 91.1455C65.9904 90.055 66.3888 89.0693 67.1438 88.3143C67.8988 87.5594 68.8845 87.1609 69.954 87.1609C71.0236 87.1609 72.0092 87.5594 72.7642 88.3143C73.5192 89.0693 73.9177 90.076 73.9177 91.1455C73.9386 92.2151 73.5402 93.2007 72.7642 93.9557ZM77.2521 86.2801V92.2989C77.2521 94.9204 78.4895 96.1997 81.0061 96.1997C83.5226 96.1997 84.76 94.8994 84.76 92.2989V86.2801H83.5856V92.2989C83.5856 94.2283 82.8096 95.1301 81.0061 95.1301C79.2025 95.1301 78.4265 94.2283 78.4265 92.2989V86.2801H77.2521ZM90.7369 96.3255L94.8054 86.2591H93.568L90.7369 93.6621L87.9057 86.2591H86.6474L90.7369 96.3255ZM95.6023 94.5219C95.1828 94.5219 94.8263 94.8784 94.8263 95.3189C94.8263 95.7593 95.1619 96.0948 95.6023 96.0948C96.0427 96.0948 96.3992 95.7593 96.3992 95.3189C96.3992 94.8784 96.0637 94.5219 95.6023 94.5219ZM99.7337 95.948H100.887V91.1665H104.83V90.0969H100.887V87.3287H104.83V86.2591H99.7337V95.948ZM107.535 95.948H108.668V91.3342H108.835L112.359 95.948H113.827L110.136 91.3342H110.345C112.065 91.3342 112.967 90.4954 112.967 88.9225C112.967 87.9788 112.61 87.2028 112.065 86.7624C111.457 86.3011 110.765 86.2801 109.842 86.2801H107.577V95.948H107.535ZM108.647 87.2448H109.527C111.058 87.2448 111.792 87.5174 111.792 88.9225C111.792 90.3276 111.037 90.4744 109.527 90.4744H108.647V87.2448ZM43.5508 71.9984V83.1973H46.2981V77.2833C46.6965 77.5349 48.4162 78.6255 48.7727 78.8562C49.0873 78.6674 50.7231 77.6398 51.2054 77.3252L54.0156 71.9984C53.4074 72.4179 49.297 75.0813 48.7727 75.4378C48.2484 75.1022 44.3058 72.5018 43.5508 71.9984ZM70.3105 72.1872H67.4794V83.1973H73.5192V80.5129H70.3105V72.1872ZM103.571 72.1872H100.74V83.1973H106.78V80.5129H103.571V72.1872ZM111.436 72.1872H108.605V83.1973H114.644V80.5129H111.436V72.1872ZM81.1109 72.1872L80.6705 73.026L78.3007 77.5769L78.2797 77.5559L75.4905 72.1872H72.4706C72.6594 72.6695 75.134 77.2204 76.8117 80.3242C77.5248 81.6663 78.112 82.7569 78.2588 83.0924V83.1973C78.2588 83.1763 78.2797 83.1553 78.2797 83.1344C78.3007 83.1553 78.3007 83.1763 78.3007 83.1973V83.0924C78.804 81.9809 83.8162 72.8792 84.0889 72.1872H81.1109ZM60.6426 72.292V72.1872C60.6426 72.2082 60.6217 72.2291 60.6217 72.2501C60.6217 72.2291 60.6007 72.2082 60.6007 72.1872V72.292C60.0764 73.4035 55.0852 82.5052 54.8125 83.1973H57.7905L58.2309 82.3584L58.4406 81.9599H62.7398L63.3899 83.2182H66.4098C66.2211 82.7359 63.7464 78.1851 62.0687 75.0813C61.3766 73.6971 60.8104 72.6276 60.6426 72.292ZM59.7828 79.4014L60.6007 77.8076L60.6217 77.8285L61.4396 79.4014H59.7828ZM121.23 72.292V72.1872C121.23 72.2082 121.209 72.2291 121.209 72.2501C121.209 72.2291 121.188 72.2082 121.188 72.1872V72.292C120.663 73.4035 115.672 82.5052 115.399 83.1973H118.398L118.839 82.3584L119.049 81.9599H123.348L123.998 83.2182H126.997C126.808 82.7359 124.333 78.1851 122.677 75.0813C121.964 73.6971 121.397 72.6276 121.23 72.292ZM120.37 79.4014L121.188 77.8076L121.209 77.8285L122.026 79.4014H120.37ZM85.2633 83.1973H94.0084V80.471H88.0315V79.0449H92.6243V76.3396H88.0315V74.8925H94.0084V72.1662H85.2633V83.1973ZM95.8959 72.1872H98.748V83.1973H95.8959V72.1872ZM134.274 77.3462C133.729 76.8848 128.674 72.355 128.234 71.9565V83.1973H131.002V78.0383C131.464 78.4577 136.476 82.9456 137.021 83.428V72.1872H134.274V77.3462ZM144.487 80.7017C145.452 80.7017 146.291 80.1564 146.836 79.4853C146.983 79.6531 148.577 81.2679 148.744 81.4357C147.989 82.2535 146.521 83.4699 144.487 83.4699C143.921 83.4699 143.376 83.365 142.851 83.1973C140.502 82.5262 138.678 80.429 138.678 77.7027C138.678 74.4102 141.341 71.9146 144.487 71.9146C146.102 71.9146 147.297 72.5856 148.094 73.2358L146.773 75.7733C146.354 75.3749 145.745 74.6828 144.487 74.6828C142.872 74.6828 141.53 76.025 141.53 77.7027C141.53 79.2127 142.684 80.5339 144.193 80.6807C144.277 80.6807 144.382 80.7017 144.487 80.7017ZM158.811 74.9135V72.1872H150.045V83.1973H158.811V80.471H152.834V79.0449H157.448V76.3396H152.834V74.8925H158.811V74.9135Z" fill="#273375"/>
<path d="M11.2122 109.202H12.5754L15.6163 116.836H14.5258L13.6449 114.592H10.1217L9.24091 116.836H8.15039L11.2122 109.202ZM13.3304 113.711L11.9043 110.104L10.4992 113.711H13.3304ZM17.9441 115.514C18.3216 115.997 18.783 116.269 19.3283 116.269C19.9364 116.269 20.2929 115.892 20.2929 115.41C20.2929 114.172 17.6086 114.634 17.6086 112.662C17.6086 111.781 18.3426 111.11 19.3702 111.11C20.1881 111.11 20.8382 111.467 21.2367 112.012L20.5865 112.557C20.2929 112.117 19.8735 111.865 19.3702 111.865C18.804 111.865 18.4894 112.18 18.4894 112.62C18.4894 113.879 21.1738 113.438 21.1738 115.368C21.1528 116.395 20.3559 117.024 19.3073 117.024C18.4265 117.024 17.7554 116.668 17.2521 116.06L17.9441 115.514ZM23.7113 115.514C24.0888 115.997 24.5502 116.269 25.1164 116.269C25.7246 116.269 26.0811 115.892 26.0811 115.41C26.0811 114.172 23.3967 114.634 23.3967 112.662C23.3967 111.781 24.1307 111.11 25.1584 111.11C25.9762 111.11 26.6473 111.467 27.0248 112.012L26.3747 112.557C26.0811 112.117 25.6617 111.865 25.1584 111.865C24.5921 111.865 24.2775 112.18 24.2775 112.62C24.2775 113.879 26.9619 113.438 26.9619 115.368C26.9619 116.395 26.144 117.024 25.1164 117.024C24.2356 117.024 23.5645 116.668 23.0612 116.06L23.7113 115.514ZM29.2898 109.265C29.2898 108.908 29.5834 108.615 29.9399 108.615C30.2964 108.615 30.59 108.908 30.59 109.265C30.59 109.621 30.2964 109.915 29.9399 109.915C29.5834 109.915 29.2898 109.621 29.2898 109.265ZM29.4785 111.341H30.4013V116.836H29.4785V111.341ZM33.3582 115.514C33.7357 115.997 34.1971 116.269 34.7633 116.269C35.3715 116.269 35.728 115.892 35.728 115.41C35.728 114.172 33.0437 114.634 33.0437 112.662C33.0437 111.781 33.7777 111.11 34.8053 111.11C35.6232 111.11 36.2943 111.467 36.6718 112.012L36.0216 112.557C35.728 112.117 35.3086 111.865 34.8053 111.865C34.2391 111.865 33.9245 112.18 33.9245 112.62C33.9245 113.879 36.6088 113.438 36.6088 115.368C36.5879 116.395 35.77 117.024 34.7424 117.024C33.8616 117.024 33.1905 116.668 32.6872 116.06L33.3582 115.514ZM39.461 112.201H38.4124V111.341H39.461V109.957H40.4047V111.341H42.3131V112.201H40.4047V115.011C40.4047 115.871 40.8451 116.102 41.5162 116.102C41.8727 116.102 42.1244 116.06 42.3341 115.976V116.794C42.0824 116.899 41.7888 116.94 41.3904 116.94C40.174 116.94 39.482 116.332 39.482 114.99V112.201H39.461ZM44.4103 115.493C44.4103 114.634 45.0394 114.025 46.2138 113.858L48.0593 113.543V113.166C48.0593 112.411 47.5141 111.97 46.7381 111.97C46.088 111.97 45.5637 112.243 45.2491 112.725L44.5571 112.18C45.0394 111.53 45.8154 111.131 46.7801 111.131C48.1642 111.131 49.0031 111.949 49.0031 113.166V116.857H48.0803V116.165C47.6609 116.752 46.9688 117.087 46.2348 117.087C45.1443 117.066 44.4103 116.437 44.4103 115.493ZM46.3816 116.29C47.1156 116.29 47.6818 115.913 48.0803 115.284V114.235L46.4445 114.508C45.6895 114.634 45.333 114.969 45.333 115.451C45.333 115.934 45.7315 116.29 46.3816 116.29ZM51.8552 111.341H52.7779V111.97C53.2183 111.488 53.7846 111.131 54.6025 111.131C55.8398 111.131 56.7625 111.949 56.7625 113.522V116.857H55.8188V113.564C55.8188 112.578 55.2736 112.012 54.4137 112.012C53.6168 112.012 53.1135 112.474 52.7779 113.04V116.836H51.8552V111.341ZM63.6832 115.368C63.3476 115.85 62.8024 116.185 62.1313 116.185C60.9359 116.185 60.097 115.263 60.097 114.088C60.097 112.914 60.9359 111.991 62.1103 111.991C62.7814 111.991 63.3476 112.327 63.6832 112.809L64.4172 112.243C63.9139 111.551 63.096 111.11 62.1103 111.11C60.2858 111.11 59.1114 112.474 59.1114 114.067C59.1114 115.661 60.2858 117.024 62.1103 117.024C63.1169 117.024 63.9139 116.584 64.4172 115.892L63.6832 115.368ZM68.989 117.066C67.1225 117.066 65.99 115.703 65.99 114.109C65.99 112.432 67.0596 111.152 68.7583 111.152C70.2473 111.152 71.2329 112.159 71.2329 113.543C71.2329 113.753 71.191 113.983 71.17 114.13H66.9547V114.151C66.9547 115.368 67.7726 116.248 69.01 116.248C69.702 116.248 70.2892 115.913 70.6667 115.431L71.3588 115.976C70.8345 116.626 70.0376 117.066 68.989 117.066ZM67.0386 113.375H70.3102C70.2683 112.578 69.702 111.928 68.8002 111.928C67.8985 111.928 67.2483 112.432 67.0386 113.375ZM80.2507 117.066C78.3843 117.066 77.2518 115.703 77.2518 114.109C77.2518 112.432 78.3213 111.152 80.02 111.152C81.509 111.152 82.4737 112.159 82.4737 113.543C82.4737 113.753 82.4318 113.983 82.4108 114.13H78.1955V114.151C78.1955 115.368 79.0134 116.248 80.2507 116.248C80.9428 116.248 81.53 115.913 81.9075 115.431L82.5995 115.976C82.0962 116.626 81.2574 117.066 80.2507 117.066ZM78.2794 113.375H81.53C81.4881 112.578 80.9218 111.928 80.02 111.928C79.1183 111.928 78.4891 112.432 78.2794 113.375ZM85.3049 112.201H84.2773V111.341H85.3049V109.957H86.2486V111.341H88.157V112.201H86.2486V115.011C86.2486 115.871 86.689 116.102 87.3391 116.102C87.6956 116.102 87.9473 116.06 88.157 115.976V116.794C87.8844 116.899 87.5908 116.94 87.2133 116.94C85.9969 116.94 85.3049 116.332 85.3049 114.99V112.201ZM94.4904 111.341H95.4132V111.949C95.9165 111.404 96.5666 111.11 97.3636 111.11C99.0832 111.11 100.195 112.474 100.195 114.067C100.195 115.661 99.1042 117.045 97.3636 117.045C96.5666 117.045 95.9165 116.752 95.4132 116.206V119.499H94.4904V111.341ZM97.2587 116.185C98.4331 116.185 99.23 115.263 99.23 114.088C99.23 112.914 98.4331 111.991 97.2587 111.991C96.5037 111.991 95.8326 112.369 95.4132 113.04V115.137C95.8326 115.808 96.4827 116.185 97.2587 116.185ZM102.669 111.341H103.592V112.033C103.991 111.551 104.494 111.236 105.186 111.236C105.354 111.236 105.522 111.257 105.668 111.299V112.264C105.501 112.222 105.333 112.18 105.123 112.18C104.41 112.18 103.928 112.557 103.592 113.103V116.836H102.669V111.341ZM110.219 117.066C108.374 117.066 107.22 115.703 107.22 114.109C107.22 112.432 108.29 111.152 109.988 111.152C111.477 111.152 112.463 112.159 112.463 113.543C112.463 113.753 112.442 113.983 112.4 114.13H108.185V114.151C108.185 115.368 109.003 116.248 110.24 116.248C110.932 116.248 111.519 115.913 111.897 115.431L112.589 115.976C112.086 116.626 111.247 117.066 110.219 117.066ZM108.269 113.375H111.54C111.519 112.578 110.932 111.928 110.03 111.928C109.129 111.928 108.479 112.432 108.269 113.375ZM109.59 110.46L110.722 108.657H111.771L110.492 110.46H109.59ZM115.085 111.341L116.846 115.871L118.608 111.341H119.614L117.454 116.836H116.238L114.078 111.341H115.085ZM124.144 117.066C122.299 117.066 121.145 115.703 121.145 114.109C121.145 112.432 122.215 111.152 123.914 111.152C125.403 111.152 126.367 112.159 126.367 113.543C126.367 113.753 126.346 113.983 126.304 114.13H122.089V114.151C122.089 115.368 122.907 116.248 124.144 116.248C124.836 116.248 125.424 115.913 125.801 115.431L126.493 115.976C125.99 116.626 125.193 117.066 124.144 117.066ZM122.194 113.375H125.465C125.445 112.578 124.857 111.928 123.956 111.928C123.054 111.928 122.404 112.432 122.194 113.375ZM128.947 111.341H129.89V111.97C130.331 111.488 130.897 111.131 131.715 111.131C132.952 111.131 133.854 111.949 133.854 113.522V116.857H132.91V113.564C132.91 112.578 132.365 112.012 131.505 112.012C130.708 112.012 130.205 112.474 129.87 113.04V116.836H128.947V111.341ZM137 112.201H135.972V111.341H137V109.957H137.944V111.341H139.852V112.201H137.944V115.011C137.944 115.871 138.384 116.102 139.055 116.102C139.412 116.102 139.663 116.06 139.873 115.976V116.794C139.621 116.899 139.307 116.94 138.929 116.94C137.713 116.94 137.021 116.332 137.021 114.99V112.201H137ZM142.075 109.265C142.075 108.908 142.369 108.615 142.725 108.615C143.082 108.615 143.375 108.908 143.375 109.265C143.375 109.621 143.082 109.915 142.725 109.915C142.369 109.915 142.075 109.621 142.075 109.265ZM142.264 111.341H143.186V116.836H142.264V111.341ZM151.617 114.088C151.617 115.682 150.401 117.045 148.639 117.045C146.878 117.045 145.661 115.682 145.661 114.088C145.661 112.494 146.857 111.131 148.639 111.131C150.422 111.131 151.617 112.494 151.617 114.088ZM150.631 114.088C150.631 112.935 149.793 111.991 148.639 111.991C147.486 111.991 146.626 112.935 146.626 114.088C146.626 115.242 147.465 116.185 148.639 116.185C149.814 116.185 150.631 115.221 150.631 114.088ZM154.092 111.341H155.014V111.97C155.455 111.488 156.021 111.131 156.86 111.131C158.097 111.131 158.999 111.949 158.999 113.522V116.857H158.055V113.564C158.055 112.578 157.51 112.012 156.671 112.012C155.832 112.012 155.371 112.474 155.035 113.04V116.836H154.092V111.341ZM11.38 130.383C9.51354 130.383 8.38108 129.02 8.38108 127.426C8.38108 125.749 9.45063 124.469 11.1493 124.469C12.6383 124.469 13.603 125.476 13.603 126.86C13.603 127.07 13.582 127.3 13.5401 127.447H9.34577V127.468C9.34577 128.685 10.1637 129.565 11.401 129.565C12.0931 129.565 12.6803 129.23 13.0577 128.747L13.7498 129.293C13.2255 129.943 12.4076 130.383 11.38 130.383ZM9.42966 126.692H12.7012C12.6803 125.895 12.0931 125.245 11.1913 125.245C10.2895 125.245 9.63937 125.749 9.42966 126.692ZM16.1825 124.679H17.1053V125.308C17.5457 124.826 18.1119 124.469 18.9508 124.469C20.1881 124.469 21.0899 125.287 21.0899 126.86V130.195H20.1461V126.881C20.1461 125.895 19.6009 125.329 18.741 125.329C17.9441 125.329 17.4408 125.79 17.1053 126.357V130.153H16.1825V124.679ZM27.9266 128.852C28.3041 129.335 28.7655 129.607 29.3317 129.607C29.9399 129.607 30.2964 129.23 30.2964 128.747C30.2964 127.51 27.612 127.972 27.612 126C27.612 125.119 28.346 124.448 29.3736 124.448C30.1915 124.448 30.8626 124.805 31.2401 125.35L30.59 125.895C30.2754 125.455 29.877 125.203 29.3736 125.203C28.8074 125.203 28.4928 125.518 28.4928 125.958C28.4928 127.217 31.1772 126.776 31.1772 128.706C31.1772 129.733 30.3593 130.362 29.3107 130.362C28.4299 130.362 27.7588 130.006 27.2555 129.398L27.9266 128.852ZM36.1265 130.383C34.281 130.383 33.1276 129.02 33.1276 127.426C33.1276 125.749 34.1971 124.469 35.8958 124.469C37.3848 124.469 38.3495 125.476 38.3495 126.86C38.3495 127.07 38.3075 127.3 38.2866 127.447H34.0923V127.468C34.0923 128.685 34.9101 129.565 36.1475 129.565C36.8395 129.565 37.4267 129.23 37.7833 128.747L38.4753 129.293C37.972 129.943 37.1541 130.383 36.1265 130.383ZM34.1761 126.692H37.4477C37.4058 125.895 36.8395 125.245 35.9168 125.245C34.994 125.245 34.3859 125.749 34.1761 126.692ZM35.4973 123.798L36.6298 121.995H37.6784L36.3991 123.798H35.4973ZM44.9975 128.706C44.6619 129.188 44.1167 129.523 43.4456 129.523C42.2502 129.523 41.4113 128.601 41.4113 127.426C41.4113 126.252 42.2502 125.329 43.4246 125.329C44.0957 125.329 44.6619 125.665 44.9975 126.147L45.7315 125.581C45.2282 124.889 44.4103 124.448 43.4246 124.448C41.6001 124.448 40.4257 125.811 40.4257 127.405C40.4257 128.999 41.6001 130.362 43.4246 130.362C44.4313 130.362 45.2282 129.922 45.7315 129.23L44.9975 128.706ZM51.7923 124.679H52.736V127.783C52.736 129.419 51.7923 130.404 50.3033 130.404C48.8143 130.404 47.8706 129.44 47.8706 127.783V124.679H48.7933V127.825C48.7933 128.894 49.3596 129.523 50.3033 129.523C51.247 129.523 51.7923 128.894 51.7923 127.825V124.679ZM55.5462 124.679H56.4689V125.371C56.8674 124.889 57.3707 124.574 58.0628 124.574C58.2306 124.574 58.3983 124.595 58.5242 124.637V125.602C58.3564 125.56 58.1886 125.518 57.9789 125.518C57.2659 125.518 56.7835 125.895 56.448 126.441V130.174H55.5252V124.679H55.5462ZM60.6842 122.582C60.6842 122.225 60.9778 121.932 61.3344 121.932C61.6909 121.932 61.9845 122.225 61.9845 122.582C61.9845 122.938 61.6909 123.232 61.3344 123.232C60.9778 123.232 60.6842 122.938 60.6842 122.582ZM60.873 124.679H61.7957V130.174H60.873V124.679ZM65.0463 125.518H64.0187V124.658H65.0463V123.274H65.99V124.658H67.8985V125.518H65.99V128.328C65.99 129.188 66.4305 129.419 67.0806 129.419C67.4371 129.419 67.6887 129.377 67.8985 129.293V130.111C67.6468 130.215 67.3322 130.257 66.9547 130.257C65.7384 130.257 65.0463 129.649 65.0463 128.307V125.518ZM72.7219 130.383C70.8555 130.383 69.723 129.02 69.723 127.426C69.723 125.749 70.7925 124.469 72.4912 124.469C73.9802 124.469 74.9449 125.476 74.9449 126.86C74.9449 127.07 74.9239 127.3 74.882 127.447H70.6667V127.468C70.6667 128.685 71.4846 129.565 72.7219 129.565C73.414 129.565 74.0012 129.23 74.3577 128.747L75.0498 129.293C74.5674 129.943 73.7495 130.383 72.7219 130.383ZM70.7506 126.692H74.0222C74.0012 125.895 73.414 125.245 72.5122 125.245C71.6104 125.245 70.9603 125.749 70.7506 126.692ZM72.0718 123.798L73.2043 121.995H74.2529L72.9736 123.798H72.0718ZM81.4251 124.679H82.3479V125.308C82.7883 124.826 83.3545 124.469 84.1724 124.469C85.4097 124.469 86.3115 125.287 86.3115 126.86V130.195H85.3678V126.881C85.3678 125.895 84.8225 125.329 83.9837 125.329C83.1448 125.329 82.6834 125.79 82.3269 126.357V130.153H81.4042V124.679H81.4251ZM93.0015 124.679H93.9452V127.783C93.9452 129.419 93.0015 130.404 91.5125 130.404C90.0235 130.404 89.0798 129.44 89.0798 127.783V124.679H90.0025V127.825C90.0025 128.894 90.5897 129.523 91.5125 129.523C92.4352 129.523 93.0015 128.894 93.0015 127.825V124.679ZM96.7554 124.679H97.6781V125.287C98.0976 124.805 98.6428 124.469 99.3978 124.469C100.195 124.469 100.866 124.847 101.201 125.581C101.642 124.952 102.229 124.469 103.152 124.469C104.326 124.469 105.186 125.266 105.186 126.755V130.195H104.263V126.797C104.263 125.874 103.76 125.35 102.963 125.35C102.271 125.35 101.789 125.749 101.411 126.399C101.432 126.524 101.432 126.65 101.432 126.755V130.195H100.488V126.797C100.488 125.874 100.006 125.35 99.2091 125.35C98.4541 125.35 97.9927 125.811 97.6781 126.378V130.174H96.7554V124.679ZM110.576 130.383C108.73 130.383 107.577 129.02 107.577 127.426C107.577 125.749 108.646 124.469 110.345 124.469C111.834 124.469 112.799 125.476 112.799 126.86C112.799 127.07 112.778 127.3 112.736 127.447H108.52V127.468C108.52 128.685 109.338 129.565 110.576 129.565C111.268 129.565 111.855 129.23 112.232 128.747L112.924 129.293C112.4 129.943 111.582 130.383 110.576 130.383ZM108.604 126.692H111.855C111.834 125.895 111.247 125.245 110.345 125.245C109.443 125.245 108.814 125.749 108.604 126.692ZM109.926 123.798L111.058 121.995H112.107L110.827 123.798H109.926ZM115.357 124.679H116.28V125.371C116.678 124.889 117.182 124.574 117.874 124.574C118.042 124.574 118.209 124.595 118.356 124.637V125.602C118.188 125.56 118.021 125.518 117.811 125.518C117.098 125.518 116.615 125.895 116.28 126.441V130.174H115.357V124.679ZM120.474 122.582C120.474 122.225 120.768 121.932 121.124 121.932C121.481 121.932 121.774 122.225 121.774 122.582C121.774 122.938 121.481 123.232 121.124 123.232C120.768 123.232 120.474 122.938 120.474 122.582ZM120.663 124.679H121.586V130.174H120.663V124.679ZM126.892 124.448C127.709 124.448 128.36 124.763 128.842 125.287V124.658H129.765V132.837H128.842V129.523C128.36 130.069 127.688 130.362 126.892 130.362C125.172 130.362 124.06 128.999 124.06 127.384C124.06 125.77 125.172 124.448 126.892 124.448ZM126.996 129.502C127.772 129.502 128.422 129.146 128.863 128.454V126.357C128.443 125.686 127.793 125.308 126.996 125.308C125.843 125.308 125.046 126.231 125.046 127.405C125.046 128.58 125.843 129.502 126.996 129.502ZM136.538 124.679H137.482V127.783C137.482 129.419 136.538 130.404 135.05 130.404C133.561 130.404 132.617 129.44 132.617 127.783V124.679H133.54V127.825C133.54 128.894 134.106 129.523 135.05 129.523C135.993 129.523 136.538 128.894 136.538 127.825V124.679ZM142.809 130.383C140.964 130.383 139.81 129.02 139.81 127.426C139.81 125.749 140.88 124.469 142.578 124.469C144.067 124.469 145.032 125.476 145.032 126.86C145.032 127.07 145.011 127.3 144.969 127.447H140.754V127.468C140.754 128.685 141.572 129.565 142.809 129.565C143.501 129.565 144.088 129.23 144.445 128.747L145.137 129.293C144.655 129.943 143.837 130.383 142.809 130.383ZM140.838 126.692H144.109C144.067 125.895 143.501 125.245 142.599 125.245C141.698 125.245 141.068 125.749 140.838 126.692Z" fill="black"/>
</g>
<defs>
<clipPath id="clip0_524_23007">
<rect width="158" height="104.837" fill="white" transform="translate(1 28)"/>
</clipPath>
</defs>
</svg>
