<svg width="160" height="160" viewBox="0 0 160 160" fill="none" xmlns="http://www.w3.org/2000/svg">
<path d="M155 42.48H5V109.15H155V42.48Z" fill="white"/>
<path d="M40.4199 44.52C23.4499 44.52 9.66992 58.23 9.66992 75.16C9.66992 82.4 12.1899 89 16.4099 94.25H20.1599V98.19C21.7799 99.6 23.5799 100.83 25.4799 101.89H27.8299V103.1C31.6799 104.81 35.9299 105.78 40.3999 105.78C42.8499 105.78 45.1999 105.48 47.4799 104.94L40.1999 91.16C38.5599 91.14 36.9899 90.88 35.5099 90.4V90.44H31.6599V88.58C30.7599 88 29.9399 87.31 29.1999 86.57H27.8399V90.4H24.0099V86.57H27.8599V85.12C25.6799 82.39 24.3499 78.93 24.3499 75.13C24.3499 66.28 31.5599 59.09 40.4399 59.09C45.7199 59.09 50.3899 61.64 53.3199 65.55L63.7399 55.17C58.0799 48.66 49.7399 44.53 40.4199 44.53V44.52ZM31.6799 94.26H35.5299V98.09H31.6799V94.26Z" fill="#273375"/>
<path d="M92.3397 76.0901H89.6797L92.0197 81.0901H94.6797L92.3397 76.0901Z" fill="#E30613"/>
<path d="M31.7105 90.36V86.51H27.8605V90.36H20.1705V94.21H24.0205V98.06H20.1705V101.91H16.3205V105.76H24.0105V101.91H27.8605V98.06H31.7105V94.21H35.5605V90.36H31.7105ZM12.4805 94.2H16.3305V98.05H12.4805V94.2ZM27.8605 105.74H31.7105V101.89H27.8605V105.74ZM54.2605 74.27C53.7705 73.63 53.0105 73.22 52.1505 73.22C52.0705 73.22 52.0005 73.24 51.9405 73.24C50.5605 73.35 49.4505 74.49 49.4505 75.92C49.4505 77.35 50.5705 78.5 51.9805 78.6C52.0405 78.6 52.0905 78.62 52.1505 78.62C52.9905 78.62 53.7405 78.23 54.2505 77.61L54.2905 77.57L56.0505 79.33C55.8805 79.54 55.6805 79.72 55.4705 79.89C54.5705 80.64 53.4305 81.09 52.1805 81.09C51.6905 81.09 51.2405 81.01 50.8105 80.9C48.6005 80.28 46.9905 78.3 46.9905 75.92C46.9905 73.54 48.5805 71.58 50.7305 70.96C51.1805 70.83 51.6505 70.77 52.1505 70.77C53.4205 70.77 54.5805 71.24 55.4605 72C55.6505 72.17 55.8305 72.34 56.0205 72.52L54.2605 74.26V74.27ZM91.5705 71.01C93.4605 71.01 94.9905 72.58 94.9905 74.45C94.9905 76.32 93.5105 77.89 91.5705 77.89H89.0405V80.83H86.5105V71.01H91.5605H91.5705ZM91.5705 75.48C92.0905 75.48 92.5405 75.03 92.5405 74.49C92.5405 73.95 92.1305 73.48 91.5705 73.48H89.0405V75.5H91.5705M74.0005 75.52C74.8205 75.73 75.5505 76.51 75.5505 77.88C75.5505 79.53 74.3005 80.84 72.5405 80.84H66.9505V71.02H72.5405C73.8905 71.02 75.0705 72.11 75.0705 73.51C75.0705 74.45 74.6005 75.19 74.0005 75.53V75.52ZM69.3605 74.58H71.9605C72.3505 74.58 72.6005 74.34 72.6005 74C72.6005 73.66 72.3605 73.4 71.9605 73.4H69.3605V74.58ZM72.1305 78.43C72.6005 78.43 72.8605 78.07 72.8605 77.7C72.8605 77.27 72.5405 76.97 72.1305 76.97H69.3605V78.43H72.1305ZM76.8605 71H84.6605V73.43H79.3305V74.72H83.4505V77.13H79.3305V78.4H84.6605V80.83H76.8605V70.99V71ZM62.9405 71H65.6705L60.5105 80.82H57.7605L59.9705 76.65L56.9905 71H59.8005L61.3705 74.01L62.9405 71ZM35.5705 82.64H39.4205V86.49H35.5705V82.64ZM27.8605 82.64H31.7105V78.79H27.8605V82.64Z" fill="#E30613"/>
<path d="M54.3604 88.2001C54.3604 88.2001 54.4003 88.1801 54.4203 88.1601V93.2801H56.8604V83.5901C56.8604 83.5901 56.8404 83.5901 56.8404 83.6101L54.3604 88.2001Z" fill="#273375"/>
<path d="M78.4497 88.28L80.6197 84.22L78.4297 88.26L78.4497 88.28Z" fill="#273375"/>
<path d="M139.37 86.71C139.54 86.53 140.83 85.1 140.93 84.99C140.79 84.85 140.62 84.68 140.44 84.52L139.37 86.71Z" fill="#273375"/>
<path d="M53.0198 103.56C53.4098 103.56 53.7298 103.87 53.7298 104.26C53.7298 104.65 53.4298 104.95 53.0198 104.95C52.6098 104.95 52.3298 104.65 52.3298 104.26C52.3298 103.87 52.6498 103.56 53.0198 103.56ZM64.9198 100.41H61.3898V101.32H63.8398C63.7298 102.99 62.4498 104.14 60.7498 104.14C58.7998 104.14 57.3798 102.7 57.3798 100.64C57.3798 98.4701 58.7598 97.0101 60.7498 97.0101C61.9598 97.0101 62.8898 97.5301 63.4998 98.5701L64.3598 97.8801C63.5598 96.6801 62.3498 96.0801 60.7198 96.0801C59.4698 96.0801 58.4498 96.4501 57.6698 97.1901C56.7398 98.0601 56.2898 99.2101 56.2898 100.64C56.2898 102.38 57.0898 103.79 58.4998 104.55C59.0798 104.86 59.7998 105.05 60.6598 105.05C63.2798 105.05 64.9398 103.42 64.9398 100.7V100.42H64.9198V100.41ZM74.4798 103.75C75.3498 102.92 75.8198 101.8 75.8198 100.58C75.8198 99.3601 75.3698 98.2501 74.4798 97.3901C73.6198 96.5601 72.4298 96.0901 71.2298 96.0901C70.0298 96.0901 68.8498 96.5501 67.9898 97.3901C67.1198 98.2401 66.6498 99.3501 66.6498 100.58C66.6498 101.81 67.1098 102.9 67.9898 103.75C68.8598 104.58 70.0198 105.07 71.2298 105.07C72.4398 105.07 73.6098 104.59 74.4798 103.75ZM73.6998 103.06C73.0098 103.75 72.1598 104.1 71.2098 104.1C70.2598 104.1 69.4098 103.75 68.7198 103.06C68.0498 102.37 67.6998 101.54 67.6998 100.58C67.6998 99.6201 68.0498 98.7501 68.7198 98.0801C69.3898 97.4101 70.2598 97.0601 71.2098 97.0601C72.1598 97.0601 73.0298 97.4101 73.6998 98.0801C74.3698 98.7501 74.7198 99.6401 74.7198 100.58C74.7398 101.52 74.3898 102.4 73.6998 103.06ZM77.6798 96.2801V101.6C77.6798 103.92 78.7798 105.05 81.0098 105.05C83.2398 105.05 84.3398 103.9 84.3398 101.6V96.2801H83.2998V101.6C83.2998 103.3 82.6098 104.1 81.0098 104.1C79.4098 104.1 78.7198 103.3 78.7198 101.6V96.2801H77.6798ZM89.6398 105.15L93.2498 96.2601H92.1498L89.6398 102.8L87.1298 96.2601H86.0098L89.6398 105.15ZM93.9498 103.56C93.5798 103.56 93.2598 103.87 93.2598 104.26C93.2598 104.65 93.5598 104.95 93.9498 104.95C94.3398 104.95 94.6598 104.65 94.6598 104.26C94.6598 103.87 94.3598 103.56 93.9498 103.56ZM97.6098 104.82H98.6298V100.6H102.13V99.6601H98.6298V97.2101H102.13V96.2601H97.6098V104.82ZM104.53 104.82H105.53V100.74H105.68L108.8 104.82H110.1L106.83 100.74H107.02C108.54 100.74 109.34 100 109.34 98.6101C109.34 97.7801 109.02 97.0901 108.54 96.7001C108 96.2901 107.39 96.2701 106.57 96.2701H104.56V104.81H104.52L104.53 104.82ZM105.52 97.1301H106.3C107.66 97.1301 108.31 97.3701 108.31 98.6101C108.31 99.8501 107.64 99.9801 106.3 99.9801H105.52V97.1301ZM47.7998 83.6601V93.5501H50.2398V88.3301C50.5898 88.5501 52.1198 89.5201 52.4298 89.7201C52.7098 89.5501 54.1598 88.6501 54.5898 88.3701L57.0798 83.6601C56.5398 84.0301 52.8998 86.3801 52.4298 86.7001C51.9598 86.4001 48.4698 84.1101 47.7998 83.6601ZM71.5298 83.8301H69.0198V93.5601H74.3798V91.1901H71.5298V83.8301ZM101.02 83.8301H98.5098V93.5601H103.87V91.1901H101.02V83.8301ZM107.99 83.8301H105.48V93.5601H110.84V91.1901H107.99V83.8301ZM81.0998 83.8301L80.7098 84.5701L78.6098 88.5901L78.5898 88.5701L76.1198 83.8301H73.4398C73.6098 84.2601 75.7998 88.2801 77.2898 91.0201C77.9198 92.2101 78.4398 93.1701 78.5698 93.4701V93.5601C78.5698 93.5601 78.5898 93.5201 78.5898 93.5001C78.6098 93.5201 78.6098 93.5401 78.6098 93.5601V93.4701C79.0598 92.4901 83.4998 84.4501 83.7398 83.8401H81.0998V83.8301ZM62.9498 83.9201V83.8301C62.9498 83.8301 62.9298 83.8701 62.9298 83.8901C62.9298 83.8701 62.9098 83.8501 62.9098 83.8301V83.9201C62.4498 84.9001 58.0198 92.9401 57.7798 93.5501H60.4198L60.8098 92.8101L60.9998 92.4601H64.8098L65.3898 93.5701H68.0698C67.8998 93.1401 65.7098 89.1201 64.2198 86.3801C63.6098 85.1601 63.0998 84.2101 62.9598 83.9201H62.9498ZM62.1898 90.2001L62.9198 88.7901L62.9398 88.8101L63.6698 90.2001H62.1998H62.1898ZM116.68 83.9201V83.8301C116.68 83.8301 116.66 83.8701 116.66 83.8901C116.66 83.8701 116.64 83.8501 116.64 83.8301V83.9201C116.18 84.9001 111.75 92.9401 111.51 93.5501H114.17L114.56 92.8101L114.75 92.4601H118.56L119.14 93.5701H121.8C121.63 93.1401 119.44 89.1201 117.97 86.3801C117.34 85.1601 116.84 84.2101 116.69 83.9201H116.68ZM115.92 90.2001L116.64 88.7901L116.66 88.8101L117.39 90.2001H115.92ZM84.7898 93.5501H92.5398V91.1401H87.2398V89.8801H91.3098V87.4901H87.2398V86.2101H92.5398V83.8001H84.7898V93.5501ZM94.2198 83.8201H96.7498V93.5501H94.2198V83.8201ZM128.25 88.3801C127.77 87.9701 123.28 83.9701 122.89 83.6201V93.5501H125.34V88.9901C125.75 89.3601 130.19 93.3301 130.68 93.7501V83.8201H128.24V88.3801H128.25ZM137.31 91.3401C138.17 91.3401 138.91 90.8601 139.39 90.2701C139.52 90.4201 140.93 91.8501 141.08 91.9901C140.41 92.7101 139.11 93.7901 137.31 93.7901C136.81 93.7901 136.32 93.7001 135.86 93.5501C133.78 92.9601 132.16 91.1001 132.16 88.7001C132.16 85.7901 134.52 83.5901 137.31 83.5901C138.74 83.5901 139.8 84.1801 140.51 84.7601L139.34 87.0001C138.97 86.6501 138.43 86.0401 137.31 86.0401C135.88 86.0401 134.69 87.2301 134.69 88.7101C134.69 90.0401 135.71 91.2101 137.05 91.3401C137.12 91.3401 137.22 91.3601 137.31 91.3601V91.3401ZM150.01 86.2301V83.8201H142.24V93.5501H150.01V91.1401H144.71V89.8801H148.8V87.4901H144.71V86.2101H150.01V86.2301Z" fill="#273375"/>
</svg>
