<svg width="352" height="160" viewBox="0 0 352 160" fill="none" xmlns="http://www.w3.org/2000/svg">
<g clip-path="url(#clip0_78_22660)">
<path d="M143.523 45.9565H145.505C147.09 45.9565 148.191 47.1105 148.191 48.4863C148.191 49.8621 147.09 51.016 145.505 51.016H143.523V45.9565ZM144.536 46.8886V50.084H145.505C146.43 50.084 147.134 49.3739 147.134 48.4863C147.134 47.5987 146.474 46.8886 145.505 46.8886H144.536Z" fill="black"/>
<path d="M148.896 46.134C148.896 45.8234 149.161 45.5127 149.513 45.5127C149.821 45.5127 150.085 45.779 150.085 46.134C150.085 46.4447 149.821 46.7554 149.513 46.7554C149.161 46.711 148.896 46.4447 148.896 46.134ZM149.029 47.3767H149.953V51.0604H149.029V47.3767Z" fill="black"/>
<path d="M151.053 47.3766H151.977V47.7317C152.198 47.4654 152.506 47.2878 152.946 47.2878C153.078 47.2878 153.166 47.2878 153.254 47.3322V48.3086C153.122 48.2642 153.034 48.2642 152.858 48.2642C152.418 48.2642 152.11 48.5305 151.977 48.7524V51.0603H151.053V47.3766Z" fill="black"/>
<path d="M155.633 51.1936C154.356 51.1936 153.607 50.3059 153.607 49.1964C153.607 48.0868 154.268 47.1992 155.457 47.1992C156.47 47.1992 157.13 47.8649 157.13 48.8413C157.13 49.0632 157.086 49.2408 157.086 49.3739H154.532C154.576 49.9953 155.017 50.3503 155.633 50.3503C156.029 50.3503 156.338 50.1728 156.558 49.9065L157.218 50.4391C156.91 50.8829 156.338 51.1936 155.633 51.1936ZM154.62 48.7082H156.249C156.249 48.3531 155.985 47.9981 155.501 47.9981C155.061 47.9981 154.752 48.22 154.62 48.7082Z" fill="black"/>
<path d="M160.609 49.8621L161.358 50.4391C161.006 50.8829 160.477 51.1936 159.817 51.1936C158.54 51.1936 157.791 50.3059 157.791 49.1964C157.791 48.0868 158.54 47.1992 159.817 47.1992C160.477 47.1992 161.006 47.5099 161.358 47.9537L160.609 48.5307C160.433 48.2644 160.169 48.0868 159.773 48.0868C159.156 48.0868 158.716 48.5307 158.716 49.1964C158.716 49.8621 159.156 50.3059 159.773 50.3059C160.169 50.3059 160.433 50.1284 160.609 49.8621Z" fill="black"/>
<path d="M162.282 48.2201H161.621V47.3768H162.282V46.4448H163.206V47.3768H164.307V48.2201H163.206V49.6847C163.206 50.0841 163.426 50.2616 163.779 50.2616C164.043 50.2616 164.219 50.2173 164.307 50.1729V50.9717C164.131 51.0605 163.911 51.1049 163.603 51.1049C162.678 51.1049 162.238 50.5723 162.238 49.6847V48.2201H162.282Z" fill="black"/>
<path d="M165.012 46.134C165.012 45.8234 165.276 45.5127 165.628 45.5127C165.936 45.5127 166.201 45.779 166.201 46.134C166.201 46.4447 165.936 46.7554 165.628 46.7554C165.276 46.711 165.012 46.4447 165.012 46.134ZM165.144 47.3767H166.069V51.0604H165.144V47.3767Z" fill="black"/>
<path d="M170.869 49.1964C170.869 50.3059 170.077 51.1936 168.888 51.1936C167.699 51.1936 166.906 50.3059 166.906 49.1964C166.906 48.0868 167.699 47.1992 168.888 47.1992C170.077 47.2436 170.869 48.0868 170.869 49.1964ZM169.945 49.1964C169.945 48.575 169.504 48.0868 168.932 48.0868C168.315 48.0868 167.875 48.5307 167.875 49.1964C167.875 49.8621 168.315 50.3059 168.932 50.3059C169.504 50.3059 169.945 49.8177 169.945 49.1964Z" fill="black"/>
<path d="M171.705 47.3768H172.63V47.6875C172.894 47.4212 173.202 47.2437 173.687 47.2437C174.479 47.2437 175.096 47.7762 175.096 48.8858V51.0605H174.171V48.9302C174.171 48.442 173.907 48.1313 173.466 48.1313C173.026 48.1313 172.762 48.442 172.63 48.6639V51.0605H171.705V47.3768Z" fill="black"/>
<path d="M143.172 53.2795C143.172 52.9689 143.436 52.6582 143.788 52.6582C144.097 52.6582 144.361 52.9245 144.361 53.2795C144.361 53.6346 144.097 53.9009 143.788 53.9009C143.436 53.9009 143.172 53.6346 143.172 53.2795ZM143.304 54.5222H144.229V58.2059H143.304V54.5222Z" fill="black"/>
<path d="M145.328 54.5221H146.253V54.8327C146.517 54.5664 146.825 54.3889 147.31 54.3889C148.102 54.3889 148.719 54.9215 148.719 56.031V58.2057H147.794V56.0754C147.794 55.5872 147.53 55.2765 147.089 55.2765C146.649 55.2765 146.385 55.5872 146.253 55.8091V58.2057H145.328V54.5221Z" fill="black"/>
<path d="M149.996 55.3653H149.336V54.5221H149.996V53.5901H150.921V54.5221H152.022V55.3653H150.921V56.8299C150.921 57.2294 151.141 57.4069 151.494 57.4069C151.758 57.4069 151.934 57.3625 152.022 57.3181V58.117C151.846 58.2058 151.626 58.2501 151.317 58.2501C150.393 58.2501 149.952 57.7176 149.952 56.8299V55.3653H149.996Z" fill="black"/>
<path d="M154.531 58.3391C153.254 58.3391 152.506 57.4514 152.506 56.3419C152.506 55.2324 153.166 54.3447 154.355 54.3447C155.368 54.3447 156.029 55.0104 156.029 55.9868C156.029 56.2087 155.985 56.3863 155.985 56.5194H153.431C153.475 57.1408 153.915 57.4958 154.531 57.4958C154.928 57.4958 155.236 57.3183 155.456 57.052L156.117 57.5846C155.808 58.0728 155.236 58.3391 154.531 58.3391ZM153.519 55.8537H155.148C155.148 55.4986 154.884 55.1436 154.399 55.1436C153.959 55.1436 153.651 55.3655 153.519 55.8537Z" fill="black"/>
<path d="M156.953 54.5221H157.878V54.8772C158.098 54.6109 158.406 54.4333 158.847 54.4333C158.979 54.4333 159.067 54.4334 159.155 54.4777V55.4541C159.023 55.4097 158.935 55.4097 158.759 55.4097C158.318 55.4097 158.01 55.676 157.878 55.8979V58.2058H156.953V54.5221Z" fill="black"/>
<path d="M159.903 54.5223H160.828V54.7885C161.092 54.5666 161.401 54.3447 161.841 54.3447C162.325 54.3447 162.722 54.5666 162.986 54.9661C163.25 54.611 163.602 54.3447 164.175 54.3447C164.923 54.3447 165.54 54.8773 165.54 55.8981V58.1615H164.615V55.9425C164.615 55.4986 164.395 55.2324 163.955 55.2324C163.558 55.2324 163.338 55.4986 163.206 55.7649V58.2059H162.237V55.9868C162.237 55.543 162.017 55.2767 161.577 55.2767C161.136 55.2767 160.96 55.5874 160.784 55.8093V58.2059H159.859V54.5223H159.903Z" fill="black"/>
<path d="M166.377 53.2795C166.377 52.9689 166.641 52.6582 166.993 52.6582C167.302 52.6582 167.566 52.9245 167.566 53.2795C167.566 53.6346 167.302 53.9009 166.993 53.9009C166.685 53.9009 166.377 53.6346 166.377 53.2795ZM166.553 54.5222H167.478V58.2059H166.553V54.5222Z" fill="black"/>
<path d="M168.535 54.5221H169.46V54.8327C169.724 54.5664 170.032 54.3889 170.517 54.3889C171.309 54.3889 171.926 54.9215 171.926 56.031V58.2057H171.045V56.0754C171.045 55.5872 170.781 55.2765 170.341 55.2765C169.9 55.2765 169.636 55.5872 169.504 55.8091V58.2057H168.579V54.5221H168.535Z" fill="black"/>
<path d="M172.85 53.2795C172.85 52.9689 173.114 52.6582 173.466 52.6582C173.774 52.6582 174.039 52.9245 174.039 53.2795C174.039 53.6346 173.774 53.9009 173.466 53.9009C173.114 53.9009 172.85 53.6346 172.85 53.2795ZM172.982 54.5222H173.906V58.2059H172.982V54.5222Z" fill="black"/>
<path d="M175.272 57.0962C175.492 57.3625 175.756 57.5844 176.108 57.5844C176.417 57.5844 176.549 57.4069 176.549 57.1849C176.549 56.5636 174.831 56.8299 174.831 55.4985C174.831 54.8327 175.36 54.3889 176.108 54.3889C176.681 54.3889 177.165 54.6552 177.43 55.0103L176.813 55.5428C176.637 55.3209 176.373 55.099 176.108 55.099C175.844 55.099 175.668 55.2322 175.668 55.4541C175.668 56.0754 177.385 55.8091 177.385 57.1406C177.385 57.8951 176.769 58.3389 176.064 58.3389C175.404 58.3389 174.964 58.0726 174.611 57.6731L175.272 57.0962Z" fill="black"/>
<path d="M178.53 55.3653H177.869V54.5221H178.53V53.5901H179.454V54.5221H180.555V55.3653H179.454V56.8299C179.454 57.2294 179.675 57.4069 180.027 57.4069C180.291 57.4069 180.467 57.3625 180.555 57.3181V58.117C180.379 58.2058 180.159 58.2501 179.851 58.2501C178.926 58.2501 178.486 57.7176 178.486 56.8299V55.3653H178.53Z" fill="black"/>
<path d="M183.11 58.3389C181.833 58.3389 181.084 57.4513 181.084 56.3417C181.084 55.2322 181.745 54.3446 182.933 54.3446C183.946 54.3446 184.607 55.0103 184.607 55.9867C184.607 56.2086 184.563 56.3861 184.563 56.5193H182.009C182.053 57.1406 182.493 57.4956 183.11 57.4956C183.506 57.4956 183.814 57.3181 184.034 57.0518L184.695 57.5844C184.343 58.0726 183.77 58.3389 183.11 58.3389ZM182.097 55.8535H183.726C183.726 55.4985 183.462 55.1434 182.977 55.1434C182.493 55.1434 182.185 55.3653 182.097 55.8535ZM182.581 53.9451L183.33 52.7468H184.343L183.462 53.9451H182.581Z" fill="black"/>
<path d="M185.531 54.5221H186.456V54.8772C186.676 54.6109 186.984 54.4333 187.425 54.4333C187.557 54.4333 187.645 54.4334 187.733 54.4777V55.4541C187.601 55.4097 187.513 55.4097 187.337 55.4097C186.896 55.4097 186.588 55.676 186.456 55.8979V58.2058H185.531V54.5221Z" fill="black"/>
<path d="M188.307 53.2795C188.307 52.9689 188.571 52.6582 188.923 52.6582C189.231 52.6582 189.496 52.9245 189.496 53.2795C189.496 53.6346 189.231 53.9009 188.923 53.9009C188.571 53.9009 188.307 53.6346 188.307 53.2795ZM188.439 54.5222H189.363V58.2059H188.439V54.5222Z" fill="black"/>
<path d="M192.225 58.3391C190.948 58.3391 190.199 57.4514 190.199 56.3419C190.199 55.2324 190.86 54.3447 192.049 54.3447C193.061 54.3447 193.722 55.0104 193.722 55.9868C193.722 56.2087 193.678 56.3863 193.678 56.5194H191.124C191.168 57.1408 191.608 57.4958 192.225 57.4958C192.621 57.4958 192.929 57.3183 193.149 57.052L193.81 57.5846C193.458 58.0728 192.929 58.3391 192.225 58.3391ZM191.212 55.8537H192.841C192.841 55.4986 192.577 55.1436 192.093 55.1436C191.608 55.1436 191.344 55.3655 191.212 55.8537Z" fill="black"/>
<path d="M194.646 52.7468H195.571V58.2057H194.646V52.7468Z" fill="black"/>
<path d="M196.672 52.7468H197.597V58.2057H196.672V52.7468Z" fill="black"/>
<path d="M200.416 58.3391C199.139 58.3391 198.391 57.4514 198.391 56.3419C198.391 55.2324 199.051 54.3447 200.24 54.3447C201.253 54.3447 201.913 55.0104 201.913 55.9868C201.913 56.2087 201.869 56.3863 201.869 56.5194H199.315C199.359 57.1408 199.8 57.4958 200.416 57.4958C200.812 57.4958 201.121 57.3183 201.341 57.052L202.001 57.5846C201.693 58.0728 201.121 58.3391 200.416 58.3391ZM199.403 55.8537H201.033C201.033 55.4986 200.768 55.1436 200.284 55.1436C199.844 55.1436 199.536 55.3655 199.403 55.8537Z" fill="black"/>
<path d="M144.888 61.5345C145.373 61.5345 145.725 61.6676 146.033 61.9339V59.8923H146.958V65.3513H146.033V65.085C145.725 65.3513 145.373 65.4844 144.888 65.4844C143.744 65.4844 143.039 64.5968 143.039 63.4872C143.039 62.3777 143.744 61.5345 144.888 61.5345ZM145.021 64.6412C145.461 64.6412 145.769 64.4636 146.033 64.1086V62.999C145.769 62.644 145.461 62.4665 145.021 62.4665C144.404 62.4665 144.008 62.9103 144.008 63.576C144.008 64.153 144.404 64.6412 145.021 64.6412Z" fill="black"/>
<path d="M150.438 61.7119H151.362V63.7535C151.362 64.863 150.746 65.5287 149.645 65.5287C148.544 65.5287 147.928 64.863 147.928 63.7535V61.7119H148.852V63.7978C148.852 64.3304 149.117 64.6411 149.645 64.6411C150.129 64.6411 150.438 64.3304 150.438 63.7978V61.7119Z" fill="black"/>
<path d="M154.312 61.712H155.237V62.0227C155.501 61.7564 155.81 61.5789 156.294 61.5789C157.087 61.5789 157.703 62.1114 157.703 63.221V65.3957H156.778V63.221C156.778 62.7328 156.514 62.4221 156.074 62.4221C155.634 62.4221 155.369 62.7328 155.237 62.9547V65.3513H154.312V61.712Z" fill="black"/>
<path d="M161.182 61.7119H162.107V63.7535C162.107 64.863 161.49 65.5287 160.389 65.5287C159.288 65.5287 158.672 64.863 158.672 63.7535V61.7119H159.597V63.7978C159.597 64.3304 159.861 64.6411 160.389 64.6411C160.874 64.6411 161.182 64.3304 161.182 63.7978V61.7119Z" fill="black"/>
<path d="M163.119 61.7119H164.044V61.9782C164.308 61.7563 164.616 61.5344 165.057 61.5344C165.541 61.5344 165.937 61.7563 166.202 62.1558C166.466 61.8007 166.818 61.5344 167.39 61.5344C168.139 61.5344 168.755 62.067 168.755 63.0878V65.3512H167.831V63.1322C167.831 62.6883 167.611 62.4221 167.17 62.4221C166.774 62.4221 166.554 62.6883 166.422 62.9546V65.3956H165.497V63.1765C165.497 62.7327 165.277 62.4664 164.836 62.4664C164.396 62.4664 164.22 62.7771 164.044 62.999V65.3956H163.119V61.7119Z" fill="black"/>
<path d="M171.529 65.5288C170.252 65.5288 169.504 64.6412 169.504 63.5317C169.504 62.4221 170.164 61.5345 171.353 61.5345C172.366 61.5345 173.027 62.2002 173.027 63.1766C173.027 63.3985 172.983 63.576 172.983 63.7092H170.429C170.473 64.3305 170.913 64.6856 171.529 64.6856C171.926 64.6856 172.234 64.5081 172.454 64.2418L173.115 64.7744C172.762 65.2182 172.19 65.5288 171.529 65.5288ZM170.473 63.0435H172.102C172.102 62.6884 171.838 62.3334 171.353 62.3334C170.913 62.3334 170.605 62.5553 170.473 63.0435ZM171.001 61.1351L171.75 59.9368H172.762L171.882 61.1351H171.001Z" fill="black"/>
<path d="M173.951 61.7121H174.876V62.0671C175.096 61.8008 175.404 61.6233 175.845 61.6233C175.977 61.6233 176.065 61.6233 176.153 61.6677V62.6441C176.021 62.5997 175.933 62.5997 175.757 62.5997C175.316 62.5997 175.008 62.866 174.876 63.0879V65.3957H173.951V61.7121Z" fill="black"/>
<path d="M176.725 60.4692C176.725 60.1586 176.989 59.8479 177.341 59.8479C177.649 59.8479 177.914 60.1142 177.914 60.4692C177.914 60.7799 177.649 61.0906 177.341 61.0906C176.989 61.0462 176.725 60.7799 176.725 60.4692ZM176.857 61.7119H177.781V65.3956H176.857V61.7119Z" fill="black"/>
<path d="M180.469 61.5344C180.953 61.5344 181.305 61.6676 181.613 61.9339V61.6676H182.538V67.1265H181.613V65.0849C181.305 65.3512 180.953 65.4844 180.469 65.4844C179.324 65.4844 178.619 64.5967 178.619 63.4872C178.619 62.3777 179.324 61.5344 180.469 61.5344ZM180.601 64.6411C181.041 64.6411 181.349 64.4636 181.613 64.1085V62.999C181.349 62.644 181.041 62.4664 180.601 62.4664C179.984 62.4664 179.588 62.9102 179.588 63.576C179.588 64.1529 179.984 64.6411 180.601 64.6411Z" fill="black"/>
<path d="M186.016 61.7119H186.941V63.7535C186.941 64.863 186.324 65.5287 185.223 65.5287C184.122 65.5287 183.506 64.863 183.506 63.7535V61.7119H184.431V63.7978C184.431 64.3304 184.695 64.6411 185.223 64.6411C185.708 64.6411 186.016 64.3304 186.016 63.7978V61.7119Z" fill="black"/>
<path d="M189.715 65.5288C188.438 65.5288 187.689 64.6411 187.689 63.5316C187.689 62.4221 188.35 61.5344 189.539 61.5344C190.552 61.5344 191.212 62.2001 191.212 63.1765C191.212 63.3984 191.168 63.576 191.168 63.7091H188.614C188.658 64.3305 189.099 64.6855 189.715 64.6855C190.111 64.6855 190.42 64.508 190.64 64.2417L191.3 64.7743C190.948 65.2181 190.42 65.5288 189.715 65.5288ZM188.702 63.0434H190.331C190.331 62.6883 190.067 62.3333 189.583 62.3333C189.099 62.3333 188.834 62.5552 188.702 63.0434Z" fill="black"/>
<path d="M138.282 46.5334H136.961V65.44H138.282V46.5334Z" fill="#1D1D1B"/>
<path d="M21.9886 52.1255V50.8384H20.0511V49.4182H23.5298V52.7024C22.8253 53.6788 21.6364 54.2558 20.1832 54.2558C17.7173 54.2558 16 52.3918 16 50.1727C16 47.9536 17.6293 46.0896 20.0511 46.0896C21.4162 46.0896 22.5611 46.7109 23.2656 47.643L22.0327 48.6193C21.5923 47.998 20.8878 47.5542 20.0511 47.5542C18.598 47.5542 17.5852 48.7081 17.5852 50.1727C17.5852 51.6373 18.6861 52.7912 20.1392 52.7912C20.9318 52.7912 21.5483 52.5693 21.9886 52.1255Z" fill="black"/>
<path d="M32.7761 50.2171C32.7761 52.4362 31.1468 54.3002 28.725 54.3002C26.3031 54.3002 24.6738 52.4362 24.6738 50.2171C24.6738 47.9981 26.3031 46.134 28.725 46.134C31.1468 46.134 32.7761 47.9981 32.7761 50.2171ZM31.1909 50.2171C31.1909 48.7525 30.1781 47.5986 28.725 47.5986C27.2718 47.5986 26.2591 48.7525 26.2591 50.2171C26.2591 51.6817 27.2718 52.8356 28.725 52.8356C30.1781 52.7913 31.1909 51.6817 31.1909 50.2171Z" fill="black"/>
<path d="M38.7662 46.356H40.3074V51.0604C40.3074 53.1019 39.1184 54.3002 37.225 54.3002C35.3315 54.3002 34.1426 53.1019 34.1426 51.0604V46.356H35.6838V51.1935C35.6838 52.2143 36.2562 52.8357 37.225 52.8357C38.1937 52.8357 38.7662 52.2143 38.7662 51.1935V46.356Z" fill="black"/>
<path d="M42.9487 46.356L45.1944 52.3918L47.4842 46.356H49.1135L46.2072 54.034H44.1816L41.2754 46.356H42.9487Z" fill="black"/>
<path d="M50.3027 46.356H54.7502V47.6874H51.8439V49.4627H54.3098V50.7941H51.8439V52.7025H54.7502V54.034H50.3027V46.356Z" fill="black"/>
<path d="M56.5547 46.356H58.8885C60.5618 46.356 61.6186 47.2436 61.6186 48.6638C61.6186 49.5958 61.1783 50.2615 60.3857 50.661L62.8075 54.0783H60.9581L58.9325 50.9716H58.1399V54.0783H56.5547V46.356ZM58.0959 47.6874V49.5958H58.9766C59.6371 49.5958 60.0334 49.2408 60.0334 48.6194C60.0334 48.0425 59.6371 47.6874 58.9766 47.6874H58.0959Z" fill="black"/>
<path d="M63.7324 46.356H65.714L69.1486 51.8593V46.356H70.6898V54.034H68.7083L65.2736 48.4863V54.034H63.7324V46.356Z" fill="black"/>
<path d="M72.8047 46.356H77.2521V47.6874H74.3459V49.4627H76.8118V50.7941H74.3459V52.7025H77.2521V54.034H72.8047V46.356Z" fill="black"/>
<path d="M79.0566 46.356H80.9941L82.8436 49.507L84.737 46.356H86.6745V54.034H85.1333V48.575L83.416 51.4154H82.3152L80.5978 48.575V54.034H79.0566V46.356Z" fill="black"/>
<path d="M88.7891 46.356H93.2365V47.6874H90.3303V49.4627H92.7962V50.7941H90.3303V52.7025H93.2365V54.034H88.7891V46.356Z" fill="black"/>
<path d="M95.041 46.356H97.0225L100.457 51.8593V46.356H101.998V54.034H100.017L96.6262 48.5307V54.0783H95.0851V46.356H95.041Z" fill="black"/>
<path d="M103.364 46.356H109.617V47.7762H107.239V54.0783H105.698V47.7762H103.32V46.356H103.364Z" fill="black"/>
<path d="M41.5392 75.2927C41.7594 75.2927 41.9356 75.4702 41.8475 75.8696L40.8787 76.0915C41.0549 75.6477 41.3191 75.2927 41.5392 75.2927ZM42.0677 76.8904H41.8915C41.6713 77.1567 41.4071 77.423 41.1429 77.423C40.8787 77.423 40.7466 77.2455 40.7466 76.8904C40.7466 76.7573 40.7466 76.5797 40.7907 76.4466L42.3319 75.914C42.6401 75.2039 42.2878 74.8932 41.8475 74.8932C41.0989 74.8932 40.2623 76.1359 40.2623 77.2011C40.2623 77.6893 40.4824 77.9556 40.8347 77.9556C41.275 77.9556 41.7154 77.5561 42.0677 76.8904ZM41.7594 74.627L42.8603 73.6062V73.473H42.2878L41.6273 74.627H41.7594ZM38.4128 75.3371H38.9412L38.1046 77.6005C38.0165 77.778 38.1486 78 38.3248 78C38.8091 78 39.5577 77.5561 39.8219 76.8904H39.6898C39.4696 77.1123 39.0733 77.423 38.7651 77.4674L39.5137 75.3371H40.2623L40.3503 75.0264H39.6017L39.8659 74.2275H39.5577L39.0293 75.0264L38.4128 75.1152V75.3371ZM37.7083 75.2039C37.7523 74.982 37.6202 74.8932 37.5321 74.8932C37.0918 74.8932 36.5634 75.2927 36.3432 75.8696H36.4753C36.6074 75.6477 36.8716 75.4258 37.0918 75.3814L36.2552 77.6449C36.1671 77.8668 36.3432 77.9556 36.4313 77.9556C36.8716 77.9556 37.356 77.5561 37.5762 76.9792H37.4441C37.312 77.2011 37.0478 77.423 36.8276 77.4674L37.7083 75.2039ZM37.8844 74.0944C38.1046 74.0944 38.2367 73.9169 38.2367 73.7393C38.2367 73.5174 38.0605 73.3843 37.8844 73.3843C37.6642 73.3843 37.5321 73.5618 37.5321 73.7393C37.5321 73.9169 37.6642 74.0944 37.8844 74.0944ZM32.9526 77.5561C32.8205 77.8224 32.9526 77.9556 33.2168 77.9556C33.3489 77.9556 33.437 77.9112 33.481 77.7337L34.0534 76.1359C34.3177 75.7809 34.8901 75.4258 35.1103 75.4258C35.2864 75.4258 35.2424 75.559 35.1543 75.7809L34.2296 77.5561C34.1415 77.7337 34.2736 77.9556 34.4498 77.9556C34.8901 77.9556 35.4185 77.5561 35.6387 76.9792H35.5066C35.3745 77.2011 35.1103 77.423 34.8901 77.4674L35.6827 75.8696C35.7708 75.6477 35.8148 75.4702 35.8148 75.3371C35.8148 75.0708 35.6827 74.8932 35.4185 74.8932C35.0222 74.8932 34.6259 75.3371 34.1855 75.8696V75.4702C34.1855 75.1595 34.0975 74.8932 33.8333 74.8932C33.6571 74.8932 33.481 75.0264 33.3489 75.2483V75.2927C33.6571 75.2927 33.7892 75.7365 33.5691 76.1803L32.9526 77.5561ZM32.9526 75.6034C33.0407 75.2483 32.9966 74.8932 32.7324 74.8932C32.3802 74.8932 32.3361 75.1595 31.9838 75.8696V75.4702C31.9838 75.1595 31.8958 74.8932 31.6316 74.8932C31.3233 74.8932 31.0151 75.3814 30.7949 75.8696H30.927C31.0591 75.6477 31.2353 75.5146 31.3233 75.5146C31.4554 75.5146 31.5435 75.7365 31.3233 76.1803L30.7069 77.5561C30.5748 77.8224 30.7069 77.9556 30.9711 77.9556C31.1032 77.9556 31.1912 77.9112 31.2353 77.7337L31.8077 76.1359C31.9838 75.914 32.1159 75.7365 32.3361 75.559H32.9526V75.6034ZM29.5179 75.2927C29.7381 75.2927 29.9142 75.4702 29.8262 75.8696L28.8134 76.0915C28.9895 75.6477 29.2537 75.2927 29.5179 75.2927ZM30.0463 76.8904H29.8702C29.65 77.1567 29.3858 77.423 29.1216 77.423C28.8574 77.423 28.7253 77.2455 28.7253 76.8904C28.7253 76.7573 28.7253 76.5797 28.7694 76.4466L30.3105 75.914C30.6188 75.2039 30.2665 74.8932 29.8262 74.8932C29.0776 74.8932 28.2409 76.1359 28.2409 77.2011C28.2409 77.6893 28.4611 77.9556 28.8134 77.9556C29.2537 77.9556 29.65 77.5561 30.0463 76.8904ZM26.3915 75.3371H26.9199L26.0833 77.6005C25.9952 77.778 26.1273 78 26.3034 78C26.7878 78 27.5364 77.5561 27.8006 76.8904H27.6685C27.4483 77.1123 27.052 77.423 26.7438 77.4674L27.4924 75.3371H28.2409L28.329 75.0264H27.5804L27.8446 74.2275H27.5364L27.008 75.0264L26.3915 75.1152V75.3371ZM23.5293 77.0679C23.5293 76.3578 24.2779 75.4258 24.7182 75.4258C24.8063 75.4258 24.8944 75.4258 24.9824 75.4702L24.5421 76.6685C24.2779 76.9792 23.8816 77.3786 23.7054 77.3786C23.6174 77.3786 23.5293 77.2898 23.5293 77.0679ZM25.9071 74.7601H25.687L25.4228 75.0264H25.3787C24.1017 75.0264 23.0009 76.491 23.0009 77.5118C23.0009 77.8224 23.177 77.9556 23.4412 77.9556C23.7935 77.9556 24.1017 77.4674 24.454 76.9792V77.1567C24.41 77.6893 24.5861 77.9556 24.8503 77.9556C25.1586 77.9556 25.4668 77.4674 25.687 76.9792H25.5549C25.4228 77.2011 25.2466 77.3342 25.1586 77.3342C25.0265 77.3342 24.9384 77.1123 25.1586 76.6685L25.9071 74.7601ZM23.177 75.6034C23.2651 75.2483 23.2211 74.8932 22.9569 74.8932C22.6046 74.8932 22.5605 75.1595 22.2083 75.8696V75.4702C22.2083 75.1595 22.1202 74.8932 21.856 74.8932C21.5478 74.8932 21.2395 75.3814 21.0194 75.8696H21.1515C21.2836 75.6477 21.4597 75.5146 21.5478 75.5146C21.6799 75.5146 21.7679 75.7365 21.5478 76.1803L20.9313 77.5561C20.7992 77.8224 20.9313 77.9556 21.1955 77.9556C21.3276 77.9556 21.4157 77.9112 21.4597 77.7337L22.0321 76.1359C22.2083 75.914 22.3404 75.7365 22.5605 75.559H23.177V75.6034ZM18.9057 77.8668L18.9498 77.6893C18.2012 77.5561 18.1131 77.5561 18.4213 76.7129L18.7296 75.8696H19.5662C19.9185 75.8696 19.9625 76.0028 19.8745 76.4466H20.0946L20.579 75.0708H20.3588C20.1827 75.3814 20.0066 75.6477 19.6103 75.6477H18.8176L19.258 74.4494C19.3901 74.05 19.4782 74.0056 19.9625 74.0056H20.3148C20.8432 74.0056 20.8873 74.1388 20.8873 74.6713H21.1074L21.2836 73.7393H18.2012L18.1571 73.9169C18.7736 74.05 18.8176 74.0944 18.5534 74.8932L17.8929 76.7573C17.6287 77.5118 17.4966 77.6005 16.7921 77.7337L16.748 77.9112H18.9057V77.8668Z" fill="black"/>
<path d="M34.0536 68.2358C34.2738 68.2358 34.4499 68.4134 34.3619 68.8128L33.3931 69.0347C33.5252 68.5909 33.8335 68.2358 34.0536 68.2358ZM34.582 69.8336H34.4059C34.1857 70.0999 33.9215 70.3661 33.6573 70.3661C33.3931 70.3661 33.261 70.1886 33.261 69.8336C33.261 69.7004 33.261 69.5229 33.305 69.3898L34.8462 68.8572C35.1545 68.1471 34.8022 67.8364 34.3619 67.8364C33.6133 67.8364 32.7766 69.0791 32.7766 70.1442C32.7766 70.6324 32.9968 70.8987 33.3491 70.8987C33.7894 70.8987 34.2298 70.4993 34.582 69.8336ZM34.2738 67.5701L35.3746 66.5493V66.4162H34.8022L34.0977 67.5701H34.2738ZM30.9272 68.2802H31.4556L30.619 70.5437C30.5309 70.7212 30.663 70.9431 30.8391 70.9431C31.3235 70.9431 32.0721 70.4993 32.3363 69.8336H32.2042C31.984 70.0555 31.5877 70.3661 31.2795 70.4105L32.0281 68.2802H32.7766L32.8647 67.9695H32.1161L32.3803 67.1707H32.0721L31.5437 67.9695L30.9272 68.0583V68.2802ZM30.2227 68.1471C30.2667 67.9252 30.1346 67.8364 30.0465 67.8364C29.6062 67.8364 29.0778 68.2358 28.8576 68.8128H28.9897C29.1218 68.5909 29.386 68.369 29.6062 68.3246L28.7695 70.5881C28.6815 70.81 28.8576 70.8987 28.9457 70.8987C29.386 70.8987 29.8704 70.4993 30.0906 69.9223H29.9585C29.8263 70.1442 29.5621 70.3661 29.342 70.4105L30.2227 68.1471ZM30.3988 67.0375C30.619 67.0375 30.7511 66.86 30.7511 66.6825C30.7511 66.4606 30.5749 66.3274 30.3988 66.3274C30.1786 66.3274 30.0465 66.505 30.0465 66.6825C30.0025 66.86 30.1786 67.0375 30.3988 67.0375ZM27.4045 70.4105L28.9457 66.283L28.9016 66.2387L27.9329 66.3274V66.4606L28.109 66.5937C28.2852 66.7269 28.2411 66.86 28.065 67.2594L26.832 70.4993C26.744 70.6768 26.8761 70.8987 27.0522 70.8987C27.4925 70.8987 27.9769 70.4993 28.1971 69.9223H28.065C27.9329 70.1442 27.6246 70.3661 27.4045 70.4105ZM24.4542 70.0111C24.4542 69.301 25.2028 68.369 25.6431 68.369C25.7312 68.369 25.8192 68.369 25.9073 68.4134L25.467 69.6117C25.2028 69.9223 24.8065 70.3218 24.6303 70.3218C24.4982 70.3218 24.4542 70.233 24.4542 70.0111ZM26.788 67.7033H26.5678L26.3036 67.9695H26.2596C24.9826 67.9695 23.8817 69.4341 23.8817 70.4549C23.8817 70.7656 24.0579 70.8987 24.3221 70.8987C24.6744 70.8987 24.9826 70.4105 25.3349 69.9223V70.0999C25.2908 70.6324 25.467 70.8987 25.7312 70.8987C26.0394 70.8987 26.3477 70.4105 26.5678 69.9223H26.4357C26.3036 70.1442 26.1275 70.2774 26.0394 70.2774C25.9073 70.2774 25.8192 70.0555 26.0394 69.6117L26.788 67.7033ZM21.1076 71.4757C21.1076 71.165 21.3718 70.9875 21.8121 70.81C21.9442 70.8987 22.1644 70.9431 22.4286 71.0319C22.869 71.165 23.0011 71.2094 23.0011 71.3425C23.0011 71.6088 22.5167 71.8307 21.9002 71.8307C21.3278 71.8307 21.1076 71.742 21.1076 71.4757ZM22.2525 69.656C22.0763 69.656 21.9883 69.4785 21.9883 69.301C21.9883 68.8128 22.2525 68.0583 22.6928 68.0583C22.869 68.0583 22.957 68.2358 22.957 68.4134C22.957 68.9016 22.6488 69.656 22.2525 69.656ZM23.4854 71.165C23.4854 70.81 23.1772 70.6768 22.6488 70.4993C22.2085 70.3661 21.9883 70.3218 21.9883 70.1886C21.9883 70.0555 22.0763 69.9223 22.2525 69.8336C23.0011 69.7892 23.4414 69.1235 23.4414 68.5909C23.4414 68.4577 23.3974 68.369 23.3974 68.2802H24.0138L24.1019 67.9695H23.1332C23.0011 67.8808 22.869 67.8364 22.7369 67.8364C21.9442 67.8364 21.4599 68.5465 21.4599 69.0791C21.4599 69.5229 21.7241 69.7892 22.0323 69.8336C21.68 70.0111 21.4599 70.1886 21.4599 70.4105C21.4599 70.5437 21.5039 70.6324 21.592 70.7212C20.7553 70.9875 20.4031 71.2538 20.4031 71.6532C20.4031 72.0526 20.9315 72.1858 21.5039 72.1858C22.6048 72.2302 23.4854 71.6532 23.4854 71.165ZM19.5664 68.7684C19.9187 68.7684 19.9627 68.9016 19.8746 69.3454H20.0948L20.5792 67.9695H20.359C20.1829 68.2802 20.0067 68.5465 19.6104 68.5465H18.8178L19.2141 67.3926C19.3462 66.9932 19.4343 66.9488 19.9187 66.9488H20.271C20.7994 66.9488 20.8434 67.0819 20.8434 67.6145H21.0636L21.2397 66.6825H18.1573L18.1133 66.86C18.7298 66.9932 18.7738 67.0375 18.5096 67.8364L17.805 69.656C17.5408 70.4105 17.4087 70.4993 16.7042 70.6324L16.6602 70.81H20.0948L20.7113 69.8336H20.4911C20.0948 70.1886 19.6104 70.5437 18.9059 70.5437C17.9812 70.5437 18.0692 70.4993 18.3775 69.656L18.6857 68.7684H19.5664ZM20.0067 66.4162L21.1076 65.6617V65.5286H20.4471L19.8306 66.4162H20.0067Z" fill="black"/>
<path d="M33.7014 61.1793C33.9215 61.1793 34.0977 61.3568 34.0096 61.7563L33.0408 61.9782C33.1729 61.5343 33.4371 61.1793 33.7014 61.1793ZM34.2298 62.777H34.0536C33.8335 63.0433 33.5692 63.3096 33.305 63.3096C33.0408 63.3096 32.9087 63.1321 32.9087 62.777C32.9087 62.6439 32.9087 62.4664 32.9528 62.3332L34.494 61.8006C34.8022 61.0905 34.4499 60.7799 34.0096 60.7799C33.261 60.7799 32.4244 62.0225 32.4244 63.0877C32.4244 63.5759 32.6445 63.8422 32.9968 63.8422C33.4371 63.8422 33.8335 63.4428 34.2298 62.777ZM33.9215 60.5136L35.0224 59.4928V59.3597H34.4499L33.7894 60.5136H33.9215ZM30.707 61.2237H31.1033L30.2667 63.4871C30.1786 63.6647 30.3107 63.8866 30.4869 63.8866C30.9712 63.8866 31.7198 63.4428 31.984 62.777H31.8519C31.6317 62.9989 31.2354 63.3096 30.9272 63.354L31.6758 61.2237H32.4244L32.5124 60.913H31.7639L32.0281 60.1141H31.7198L31.1914 60.913L30.707 61.0018V61.2237ZM30.3107 61.49C30.3988 61.1349 30.3548 60.7799 30.0906 60.7799C29.7383 60.7799 29.6942 61.0462 29.342 61.7563V61.3568C29.342 61.0462 29.2539 60.7799 28.9897 60.7799C28.6815 60.7799 28.3732 61.2681 28.1531 61.7563H28.2852C28.4173 61.5343 28.5934 61.4012 28.6815 61.4012C28.8136 61.4012 28.9016 61.6231 28.6815 62.0669L28.065 63.4428C27.9329 63.709 28.065 63.8422 28.3292 63.8422C28.4613 63.8422 28.5494 63.7978 28.5934 63.6203L29.1658 62.0225C29.342 61.8006 29.4741 61.6231 29.6942 61.4456H30.3107V61.49ZM26.832 61.1793C27.0522 61.1793 27.2283 61.3568 27.1403 61.7563L26.1715 61.9782C26.3477 61.5343 26.6119 61.1793 26.832 61.1793ZM27.4045 62.777H27.2283C27.0082 63.0433 26.744 63.3096 26.4798 63.3096C26.2156 63.3096 26.0835 63.1321 26.0835 62.777C26.0835 62.6439 26.0835 62.4664 26.1275 62.3332L27.6687 61.8006C27.9769 61.0905 27.6246 60.7799 27.1843 60.7799C26.4357 60.7799 25.5991 62.0225 25.5991 63.0877C25.5991 63.5759 25.8192 63.8422 26.1715 63.8422C26.6119 63.8422 27.0082 63.4428 27.4045 62.777ZM23.5735 63.3984C23.4414 63.3984 23.2212 63.2652 23.2212 63.1321C23.2212 63.0877 23.3093 62.9102 23.3533 62.6883L23.6175 62.0225C23.8817 61.7119 24.2781 61.3568 24.5423 61.3568C24.6744 61.3568 24.8065 61.4456 24.8065 61.6675C24.7624 62.2888 24.19 63.3984 23.5735 63.3984ZM25.3349 61.4012C25.3349 60.9574 25.1587 60.7799 24.8505 60.7799C24.4542 60.7799 24.1019 61.1793 23.7056 61.7119L24.6303 59.2265L24.5863 59.1821L23.6175 59.3153V59.4484L23.7937 59.5816C23.9698 59.7147 23.9258 59.8479 23.7496 60.2473L22.7369 62.8658C22.6488 63.0433 22.5607 63.2652 22.5607 63.354C22.5607 63.6203 22.913 63.8866 23.2653 63.8866C24.0579 63.8422 25.3349 62.4664 25.3349 61.4012ZM22.2965 61.0905C22.3406 60.8686 22.2085 60.7799 22.1204 60.7799C21.68 60.7799 21.1516 61.1793 20.9315 61.7563H21.0636C21.1957 61.5343 21.4599 61.3124 21.68 61.2681L20.8434 63.5315C20.7553 63.7534 20.9315 63.8422 21.0195 63.8422C21.4599 63.8422 21.9442 63.4428 22.1644 62.8658H22.0323C21.9002 63.0877 21.636 63.3096 21.4158 63.354L22.2965 61.0905ZM22.4727 59.981C22.6928 59.981 22.8249 59.8035 22.8249 59.6259C22.8249 59.404 22.6488 59.2709 22.4727 59.2709C22.2525 59.2709 22.1204 59.4484 22.1204 59.6259C22.0763 59.8035 22.2525 59.981 22.4727 59.981ZM20.1829 59.6259H18.1573L18.1133 59.8035C18.7298 59.9366 18.7738 59.981 18.5096 60.7799L17.805 62.5995C17.5408 63.354 17.4087 63.4428 16.7042 63.5759L16.6602 63.7534H19.7425L20.4031 62.5551H20.1829C19.7866 62.9989 19.3462 63.4871 18.6857 63.4871C18.1573 63.4871 18.1133 63.3984 18.3775 62.5995L19.038 60.7355C19.3022 59.981 19.4343 59.8922 20.1388 59.7591L20.1829 59.6259Z" fill="black"/>
<path d="M28.1971 40.0538C28.2852 39.9651 28.4173 39.8319 28.5053 39.6988C28.7255 39.4769 28.9016 39.255 29.1658 39.0331C29.2539 38.9887 29.2979 38.8999 29.386 38.8555C29.386 38.8555 29.386 38.8112 29.43 38.7668C29.342 38.8112 29.2979 38.8999 29.1658 38.8999C29.1658 38.8999 29.1218 38.8999 29.1658 38.8555C29.2539 38.8112 29.2979 38.7668 29.386 38.7224V38.678C29.1218 38.6336 28.9457 38.8112 28.7695 38.9887H28.6815C28.3732 39.0774 28.1971 39.3437 27.8889 39.4325V39.3881C27.7567 39.4325 27.6687 39.4769 27.5366 39.5213C27.3604 39.5656 27.2283 39.5213 27.0522 39.5213C26.832 39.5656 26.5678 39.61 26.3477 39.6544C26.2156 39.6988 26.0835 39.7432 25.9954 39.7876C25.9954 39.7876 25.9954 39.8319 25.9514 39.8319C25.9073 39.8763 25.8633 39.9207 25.8192 39.9651C25.6871 40.0095 25.5991 40.1426 25.511 40.2314H25.467L25.1587 40.542H25.1147C25.1147 40.4977 25.1587 40.4977 25.1587 40.4533C25.1587 40.4089 25.2028 40.4089 25.2028 40.3645C25.2468 40.3201 25.2468 40.2757 25.2908 40.2314V40.187H25.2468C25.3349 40.0982 25.467 40.0095 25.555 39.9651C25.555 39.9651 25.555 39.9207 25.5991 39.9207C25.555 39.9207 25.555 39.9651 25.511 39.9651C25.467 40.0095 25.4229 40.0982 25.3789 40.0982H25.3349V40.0538C25.3349 40.0538 25.3349 40.0095 25.3789 40.0095V39.9207C25.4229 39.8763 25.467 39.8319 25.511 39.7876C25.5991 39.7432 25.6431 39.6988 25.7312 39.6544L25.7752 39.61C25.6871 39.6544 25.555 39.6988 25.467 39.7432H25.3789C25.3789 39.6988 25.467 39.6988 25.511 39.6544H25.555C26.1715 39.1662 27.0082 39.2994 27.7127 39.0331C27.7567 38.9887 27.8448 38.9443 27.8889 38.8999C27.9769 38.8555 28.065 38.7668 28.1971 38.7224C28.3292 38.5893 28.4613 38.4561 28.5053 38.2786V38.2342C28.2411 38.5005 27.9769 38.7224 27.6687 38.8555C27.2724 39.0774 26.832 39.0331 26.3917 39.0774C26.3917 39.0331 26.4357 39.0331 26.4798 39.0331C26.4798 38.9887 26.5238 38.9443 26.5678 38.8999H26.6119C26.6119 38.8999 26.6119 38.8555 26.6559 38.8555H26.744C26.6999 38.7668 26.5678 38.8999 26.4798 38.8555C26.5238 38.8112 26.4798 38.7668 26.5238 38.7224H26.6119C26.6119 38.678 26.6559 38.6336 26.6559 38.6336C26.9641 38.4561 27.2283 38.323 27.4925 38.1898C27.4485 38.1898 27.4045 38.2342 27.3604 38.1898C27.4045 38.1898 27.3604 38.1454 27.4045 38.1454C27.6246 38.1011 27.8008 37.9679 27.9769 37.8791C27.8889 37.8791 27.8448 37.9235 27.7567 37.8791C27.8008 37.8791 27.8008 37.8348 27.8889 37.8348V37.7904C27.8889 37.746 27.9769 37.7904 28.021 37.746H27.9769C28.021 37.6572 28.109 37.6572 28.2411 37.6129C28.2411 37.5685 28.1531 37.6129 28.1531 37.5685C28.109 37.5685 28.1531 37.5241 28.1531 37.4797C28.2852 37.3466 28.2852 37.169 28.3292 37.0359H28.2852C28.109 37.2578 27.8008 37.3466 27.4925 37.391H27.4045C27.3164 37.4353 27.1843 37.4353 27.0962 37.391C27.0082 37.3466 26.9641 37.3022 26.9201 37.2578C26.788 37.169 26.6119 37.0803 26.4357 37.0359C25.9514 36.9028 25.467 36.814 24.9386 36.814C25.1587 36.6808 25.3789 36.6808 25.5991 36.6365C25.9073 36.5477 26.2156 36.4146 26.5678 36.4589H26.3917C26.1275 36.4589 25.8633 36.5033 25.555 36.5921C25.3789 36.6365 25.2028 36.7252 24.9826 36.7252C24.8505 36.7696 24.8065 36.8584 24.6744 36.8584V36.814C24.8505 36.5921 25.1147 36.3702 25.4229 36.3258C25.7752 36.2814 26.0835 36.3258 26.4357 36.3702C26.6999 36.3702 26.9201 36.4589 27.1843 36.5033C27.2724 36.5033 27.3164 36.6365 27.3604 36.6808C27.4925 36.7252 27.5806 36.6808 27.7127 36.7696V36.6365C27.8008 36.5477 27.8889 36.6365 27.9769 36.6365C28.109 36.5477 27.8448 36.3702 27.7567 36.237V36.1927C27.8889 36.3258 28.021 36.5033 28.1971 36.5921C28.2852 36.6365 28.5053 36.6808 28.5053 36.5921C28.4173 36.3702 28.1971 36.1927 28.065 36.0151V35.9264C28.0356 35.9264 28.021 35.9116 28.021 35.882V35.7932C27.9329 35.7488 27.9769 35.6601 27.9329 35.6157C27.8889 35.5269 27.9329 35.3938 27.8889 35.2606C27.8448 35.1275 27.8448 35.0387 27.8008 34.95C27.7567 34.6393 27.6687 34.3286 27.6246 34.018C27.5806 33.6629 27.8448 33.3522 28.021 33.0416C28.1531 32.8197 28.3292 32.5978 28.5494 32.4202C28.5934 32.1983 28.7695 31.9764 28.9016 31.7989C29.0337 31.6214 29.2979 31.4882 29.4741 31.3994C29.7383 31.2663 30.0025 31.2219 30.0025 31.2219H16.6602V41.4297H25.9954C26.3477 41.1634 26.744 41.0302 27.2283 40.7639C27.4485 40.4977 28.021 40.2314 28.1971 40.0538ZM25.2468 38.6336C25.2028 38.6336 25.1147 38.6336 25.1587 38.6336C25.1587 38.5449 25.2908 38.5449 25.3789 38.5005C25.4229 38.5005 25.467 38.4561 25.511 38.4561C25.555 38.5005 25.5991 38.5005 25.6431 38.5449C25.511 38.6336 25.3789 38.5893 25.2468 38.6336ZM22.2965 38.2342C22.5167 37.8791 22.7369 37.5685 22.869 37.2134C23.1332 37.0803 23.3093 36.9028 23.5295 36.6808C23.8377 36.3258 24.19 36.0151 24.5863 35.8376C24.7184 35.7932 24.9386 35.7932 25.0707 35.8376C25.0266 35.9264 24.9386 35.882 24.8505 35.9707H24.8065V35.9264C24.6303 36.1483 24.3661 36.237 24.19 36.5033C24.0579 36.6808 24.0139 36.9471 23.7496 36.9915C23.6616 36.9915 23.7496 36.9471 23.7496 36.9471C23.1772 37.2578 22.7809 37.7016 22.2965 38.2342ZM23.8817 36.9471C23.8817 36.9915 23.8377 36.9915 23.8377 37.0359C23.8377 37.0803 23.7937 37.0803 23.7496 37.1247H23.7056C23.7496 36.9915 23.7937 36.9471 23.8817 36.9471ZM24.8065 39.8319L24.7624 39.8763C24.7918 39.8763 24.8065 39.8911 24.8065 39.9207C24.7624 39.9651 24.7184 40.0095 24.6744 40.0095H24.6303C24.601 40.039 24.5716 40.0686 24.5423 40.0982C24.4982 40.0982 24.4102 40.0982 24.4542 40.0538C24.4982 40.0095 24.5423 39.9651 24.5863 39.9207C24.6156 39.8911 24.645 39.8615 24.6744 39.8319L24.7184 39.7876C24.7184 39.8319 24.8065 39.7876 24.8065 39.8319ZM24.4542 39.6988C24.3661 39.7432 24.3221 39.7876 24.234 39.8319C24.146 39.8763 24.0579 39.9207 23.9698 39.9651H23.9258C23.8377 40.0095 23.7937 40.0538 23.7496 40.0982L23.7056 40.1426L23.6616 40.187L23.6175 40.2314L23.5735 40.2757H23.4414C23.3974 40.2757 23.3974 40.3201 23.3533 40.3201L23.2212 40.4533V40.4089C23.2212 40.3645 23.2653 40.3645 23.2653 40.3201V40.2757C23.2653 40.2757 23.2653 40.2314 23.3093 40.2314C23.3093 40.187 23.3533 40.187 23.3533 40.1426C23.3533 40.1426 23.3533 40.0982 23.3974 40.0982V40.0538V40.0095V39.9651C23.3974 39.9207 23.4414 39.8763 23.4854 39.8763C23.4414 39.8763 23.4414 39.9207 23.3974 39.9207C23.3974 39.9207 23.3533 39.9207 23.3533 39.8763L23.3974 39.8319C23.4414 39.7876 23.4414 39.7432 23.4854 39.7432C23.5295 39.7432 23.5295 39.6988 23.5295 39.6988L23.5735 39.6544C23.7496 39.4769 24.0579 39.4769 24.3221 39.3881C24.4102 39.3437 24.5423 39.3881 24.6303 39.3881C24.6744 39.3881 24.7624 39.3881 24.8065 39.4325C24.7624 39.4769 24.5863 39.5656 24.4542 39.6988ZM24.8505 38.323C24.8505 38.323 24.8945 38.323 24.9386 38.2786H24.8065V38.2342C24.7184 38.2342 24.5863 38.2786 24.4982 38.323C24.3661 38.3673 24.234 38.4561 24.1019 38.5005C23.8817 38.5893 23.7056 38.7668 23.4854 38.8112V38.7668C23.4854 38.7224 23.5735 38.678 23.6175 38.6336V38.5893C23.7496 38.3673 23.9698 38.2786 24.19 38.1011V38.0567C24.234 37.9679 24.3221 37.9235 24.3661 37.8348C24.3661 37.7904 24.4542 37.7016 24.5423 37.6572C24.5423 37.6572 24.4982 37.6572 24.4982 37.6129C24.4102 37.6129 24.3661 37.6572 24.2781 37.6129C24.3221 37.5685 24.3661 37.5685 24.4102 37.5241C24.4102 37.5241 24.3661 37.5241 24.3661 37.4797C24.3661 37.4353 24.4102 37.391 24.4542 37.391C24.5423 37.391 24.6303 37.391 24.6744 37.3022C24.5423 37.3022 24.3661 37.3466 24.234 37.2578C24.3221 36.9915 24.4982 36.814 24.7184 36.6808H24.7624C24.7624 36.7696 24.7184 36.8584 24.6303 36.8584C24.7624 36.9028 24.9386 36.9028 25.0707 36.9915C25.0707 37.0359 25.0266 36.9915 24.9826 36.9915C25.0707 37.0359 25.2028 36.9915 25.2908 37.0803C25.2468 37.1247 25.1587 37.0803 25.1147 37.0803C25.6871 37.2578 26.3477 37.391 26.832 37.7904C26.3917 38.0123 25.9514 38.1011 25.511 38.1898H25.3789V38.2342C25.2908 38.2342 25.2468 38.2342 25.2028 38.2786C25.0266 38.3673 24.8945 38.4117 24.8505 38.323Z" fill="#000091"/>
<path d="M44.5328 31H33.6563L33.7444 31.0444C33.8325 31.0888 33.9646 31.1331 34.0086 31.1775C34.1407 31.2663 34.2728 31.3551 34.3609 31.4882C34.4049 31.5326 34.449 31.6657 34.4049 31.7545C34.3609 31.8432 34.3609 32.0208 34.2728 32.0652C34.1407 32.1095 34.0086 32.1095 33.8765 32.1095C33.7885 32.1095 33.7444 32.1095 33.6563 32.0652C33.9646 32.1983 34.2288 32.3314 34.4049 32.5977C34.4049 32.6421 34.493 32.6421 34.5811 32.6421V32.6865C34.537 32.7309 34.493 32.7309 34.537 32.8196H34.5811C34.6691 32.7753 34.6691 32.5977 34.8012 32.6421C34.8893 32.6865 34.9333 32.8196 34.8893 32.9528C34.8012 33.0415 34.7572 33.0859 34.6691 33.1303V33.2635C34.7132 33.3522 34.7572 33.3966 34.7572 33.4854C34.8012 33.6185 34.8453 33.796 34.8893 33.9292C34.9774 34.2398 35.0214 34.5061 35.0214 34.8168C35.0214 34.95 34.9333 35.1275 35.0214 35.2606C35.0654 35.3938 35.1535 35.5269 35.2416 35.6601C35.3296 35.7932 35.3737 35.8376 35.4617 35.9707C35.5939 36.1483 35.77 36.3702 35.6819 36.5921C35.6379 36.7252 35.4177 36.7252 35.2856 36.7696C35.1535 36.8584 35.2856 37.0359 35.3296 37.1246C35.4177 37.3022 35.1975 37.4353 35.0654 37.4797C35.1095 37.5241 35.1975 37.5241 35.1975 37.5685C35.1975 37.6572 35.3296 37.7016 35.2416 37.8347C35.1535 37.9679 34.9333 38.0123 35.0654 38.1898C35.1535 38.3229 35.1095 38.4561 35.0654 38.6336C35.0214 38.8111 34.8453 38.8999 34.7132 38.9443C34.5811 38.9887 34.449 38.9887 34.3609 38.9443C34.3169 38.9443 34.2728 38.8999 34.2288 38.8999C33.9206 38.8555 33.5683 38.7668 33.26 38.7668C33.172 38.7668 33.0839 38.8111 32.9958 38.8555C32.9078 38.8999 32.8197 38.9887 32.7757 39.0774L32.7316 39.1218L32.6876 39.1662C32.6436 39.255 32.5995 39.2993 32.5555 39.3881V39.4325C32.3794 39.4325 32.3353 39.5656 32.3353 39.6988C32.2032 40.1426 32.2473 40.542 32.3353 40.6308C32.3794 40.6752 32.9518 40.8527 33.3921 41.0302C33.6123 41.119 33.7444 41.2077 33.8325 41.2521H44.5328V31Z" fill="#E1000F"/>
<path d="M34.2738 34.7281C34.3619 34.7281 34.4499 34.7281 34.4499 34.7724C34.4059 34.9056 34.1857 34.95 34.0536 35.1275H34.0096C33.9656 35.1719 33.9656 35.2606 33.9215 35.2606H33.7454C33.8335 35.3494 33.9215 35.3938 34.0536 35.3938C34.0536 35.3938 34.0977 35.4382 34.0977 35.4826H34.1857V35.5713C34.1417 35.6601 34.0536 35.6157 33.9656 35.6157C34.0977 35.6601 34.2738 35.6601 34.4059 35.6157C34.538 35.5713 34.4059 35.3938 34.494 35.305C34.4499 35.305 34.494 35.2606 34.4499 35.2606C34.494 35.2163 34.538 35.1719 34.582 35.1275C34.6261 35.1275 34.6701 35.1275 34.7141 35.0831C34.7141 35.0387 34.6261 35.0387 34.6701 34.9944C34.8022 34.9056 34.8903 34.8168 34.8462 34.6837C34.8462 34.6393 34.6701 34.6393 34.582 34.5949C34.494 34.5505 34.3619 34.5949 34.2738 34.5949C34.1857 34.5949 34.0977 34.6393 33.9656 34.6837C33.8335 34.7281 33.7013 34.8168 33.6133 34.8612C33.7454 34.8168 33.8775 34.7724 34.0536 34.7281C34.0977 34.7281 34.1857 34.7281 34.2738 34.7281Z" fill="#9D9D9C"/>
</g>
<defs>
<clipPath id="clip0_78_22660">
<rect width="186" height="47" fill="white" transform="translate(16 31)"/>
</clipPath>
</defs>
</svg>
