<svg width="160" height="160" viewBox="0 0 160 160" fill="none" xmlns="http://www.w3.org/2000/svg">
<g clip-path="url(#clip0_877_27482)">
<path fill-rule="evenodd" clip-rule="evenodd" d="M122.441 94.3612L124.417 91.9644C126.177 89.9373 127.42 87.9804 128.166 86.0553L143.197 104.407C145.925 107.9 145.797 108.551 141.246 108.551H139.684C135.139 108.551 133.45 107.645 130.722 104.407L122.441 94.3612ZM122.441 69.3989L130.722 59.3528C133.45 56.1146 135.139 55.2095 139.684 55.2095H141.246C145.791 55.2095 145.925 55.8597 143.197 59.3528L128.166 77.7048C127.426 75.7797 126.177 73.8228 124.417 71.7957L122.441 69.3989Z" fill="url(#paint0_linear_877_27482)"/>
<path fill-rule="evenodd" clip-rule="evenodd" d="M99.4938 108.544C94.9488 108.544 94.8149 107.894 97.5432 104.401L113.129 85.3732C114.295 83.9517 114.945 82.7852 114.945 81.88C114.945 80.8474 114.295 79.6809 113.129 78.3868L97.5432 59.3592C94.8149 55.866 94.9424 55.2158 99.4938 55.2158H101.055C105.6 55.2158 107.29 56.121 110.018 59.3592L121.97 73.861C127.038 79.6872 127.038 84.0856 121.97 89.9118L110.018 104.414C107.29 107.652 105.6 108.557 101.055 108.557H99.4938V108.544Z" fill="url(#paint1_linear_877_27482)"/>
<path fill-rule="evenodd" clip-rule="evenodd" d="M15 125.143C15 129.006 15.9689 129.975 19.8446 129.975H21.1386C25.0142 129.975 25.9831 129.006 25.9831 125.143V102.705C28.8899 107.32 34.1679 109.685 41.8172 109.685C56.7907 109.685 64.2233 101.845 64.2233 86.2783V76.9398C64.2233 61.3734 56.2489 54.0684 39.5543 54.0684C24.0517 54.0684 15 61.5838 15 76.9334V125.143ZM53.1318 86.4887C53.1318 95.5085 50.1167 99.263 39.669 99.263C29.2213 99.263 25.9895 95.4001 25.9895 86.4887V77.2521C25.9895 68.2323 29.2213 64.3694 39.669 64.3694C50.1167 64.3694 53.1318 68.2323 53.1318 77.2521V86.4887Z" fill="url(#paint2_linear_877_27482)"/>
<path fill-rule="evenodd" clip-rule="evenodd" d="M74.5954 103.585C74.5954 107.448 75.5643 108.417 79.44 108.417H80.8423C84.718 108.417 85.6869 107.448 85.6869 103.585V59.9966C85.6869 56.1337 84.718 55.1648 80.8423 55.1648H79.44C75.5643 55.1648 74.5954 56.1337 74.5954 59.9966V103.585ZM75.3476 43.5697C78.044 46.145 82.3467 46.145 84.9347 43.5697C87.6247 40.8861 87.6247 36.5897 84.9347 34.0144C82.3467 31.3308 78.0376 31.3308 75.3476 34.0144C72.6576 36.5897 72.6576 40.8861 75.3476 43.5697Z" fill="url(#paint3_linear_877_27482)"/>
</g>
<defs>
<linearGradient id="paint0_linear_877_27482" x1="133.723" y1="55.8701" x2="133.723" y2="109.205" gradientUnits="userSpaceOnUse">
<stop stop-color="#12A3FF"/>
<stop offset="1" stop-color="#3D68FF"/>
</linearGradient>
<linearGradient id="paint1_linear_877_27482" x1="110.953" y1="55.87" x2="110.953" y2="109.205" gradientUnits="userSpaceOnUse">
<stop stop-color="#FFBE00"/>
<stop offset="1" stop-color="#FF9F00"/>
</linearGradient>
<linearGradient id="paint2_linear_877_27482" x1="39.6302" y1="54.2907" x2="39.6302" y2="109.703" gradientUnits="userSpaceOnUse">
<stop stop-color="#12A3FF"/>
<stop offset="1" stop-color="#3D68FF"/>
</linearGradient>
<linearGradient id="paint3_linear_877_27482" x1="79.8871" y1="53.5357" x2="79.8871" y2="108.556" gradientUnits="userSpaceOnUse">
<stop stop-color="#12A3FF"/>
<stop offset="1" stop-color="#3D68FF"/>
</linearGradient>
<clipPath id="clip0_877_27482">
<rect width="130" height="97.9749" fill="white" transform="translate(15 32)"/>
</clipPath>
</defs>
</svg>
